<?xml version="1.0" encoding="utf-8"?>
<!-- Generator: Adobe Illustrator 24.0.1, SVG Export Plug-In . SVG Version: 6.00 Build 0)  -->
<svg version="1.1" id="Layer_3" xmlns="http://www.w3.org/2000/svg" xmlns:xlink="http://www.w3.org/1999/xlink" x="0px" y="0px"
	 width="1400px" height="360.1px" viewBox="0 0 1400 360.1" style="enable-background:new 0 0 1400 360.1;" xml:space="preserve">
<style type="text/css">
	.st0{fill:#5B9BD4;}
	.st1{fill:#7E7E7E;}
	.st2{fill:#FFFFFF;}
	.st3{fill:#4482C9;}
</style>
<g>
	<g>
		<path class="st0" d="M709.6,102.2c24.4,3,45.3,17.3,57.1,37.5l56.3-1.5l29.7-48.9C823.6,39.8,771,5.6,710.2,2.2l26.9,49.2
			L709.6,102.2z"/>
		<path class="st1" d="M771.6,149.5c3.8,9.1,5.8,19,5.8,29.5c0,14.2-3.8,27.4-10.5,38.8l29.5,47.9l57.3,1.3
			c14.9-25.9,23.4-56,23.4-88.1c0-28.7-6.8-55.8-18.8-79.6L828.7,148L771.6,149.5z"/>
		<path class="st1" d="M638.5,132.3c13.9-18.3,35.7-30.2,60.3-30.7L726,51.4L698.9,2C637.7,2.3,584,33.8,552.5,81.2l55.2,1.3
			L638.5,132.3z"/>
		<path class="st0" d="M628.6,208.4c-3.8-9.1-5.8-19-5.8-29.5c0-13.7,3.5-26.4,9.7-37.5l-30.2-49.3l-55.8-1.3
			c-14.9,26-23.4,56-23.4,88.1c0,28.1,6.6,54.6,18.2,78.3l28.7-47.3L628.6,208.4z"/>
		<path class="st1" d="M689.2,255.4c-23.8-3.4-44-17.6-55.8-37.4l-57.8,1.5l-29,47.7c28.7,49.8,81,84.3,141.7,88.2l-26.9-49.1
			L689.2,255.4z"/>
		<path class="st0" d="M761,226.7c-14.2,18-36.2,29.6-60.8,29.6c-0.1,0-0.1,0-0.3,0l-27.2,50.2l27.2,49.6c0.1,0,0.3,0,0.3,0
			c61.6,0,115.8-31.5,147.5-79.3l-56.9-1.3L761,226.7z"/>
	</g>
</g>
<g>
	<g>
		<path class="st0" d="M646.7,177.1l-0.9,4.3h-3.5l4-18.7h4.4l3.7,18.7h-3.5l-0.8-4.3H646.7z M649.7,174.3l-0.6-3.9
			c-0.3-1.1-0.5-3-0.6-4.3l0,0c-0.3,1.3-0.5,3.2-0.6,4.3l-0.6,3.9H649.7z"/>
		<path class="st0" d="M665,181.1c-0.5,0.3-1.5,0.5-2.8,0.5c-4.8,0-7.1-3.9-7.1-9.2c0-7.1,3.9-9.9,7.6-9.9c1.3,0,2.1,0.3,2.5,0.5
			l-0.6,3c-0.4-0.3-0.9-0.4-1.6-0.4c-2,0-3.9,1.8-3.9,6.4c0,4.4,1.6,6.2,3.9,6.2c0.6,0,1.3-0.1,1.8-0.3L665,181.1z"/>
		<path class="st0" d="M675.6,181.1c-0.5,0.3-1.5,0.5-2.8,0.5c-4.8,0-7.1-3.9-7.1-9.2c0-7.1,3.9-9.9,7.6-9.9c1.3,0,2.1,0.3,2.5,0.5
			l-0.6,3c-0.4-0.3-0.9-0.4-1.6-0.4c-2,0-3.9,1.8-3.9,6.4c0,4.4,1.6,6.2,3.9,6.2c0.6,0,1.3-0.1,1.8-0.3L675.6,181.1z"/>
		<path class="st0" d="M688.4,171.6c0,7.1-2.5,10-6.1,10c-4.3,0-5.9-4.6-5.9-9.6c0-5.1,2-9.5,6.2-9.5
			C687.1,162.4,688.4,167.4,688.4,171.6z M680.2,172c0,4.3,0.8,6.4,2.3,6.4s2.1-2.8,2.1-6.6c0-3.3-0.5-6.3-2.1-6.3
			C680.9,165.6,680.2,168,680.2,172z"/>
		<path class="st0" d="M694.2,162.6v12.1c0,2.8,0.9,3.5,1.8,3.5c1,0,1.8-0.8,1.8-3.5v-12.1h3.7v11.5c0,4.8-1.8,7.5-5.4,7.5
			c-3.9,0-5.4-2.7-5.4-7.5v-11.6h3.7v0.1H694.2z"/>
		<path class="st0" d="M704.6,181.4v-18.7h3.3l2.9,7.3c0.5,1.4,1.5,3.9,2,5.4l0,0c-0.1-2-0.4-5.2-0.4-8.7v-4.2h3.2v18.7h-3.3
			l-2.9-7.1c-0.6-1.6-1.5-3.9-1.9-5.7l0,0c0.1,1.9,0.3,4.8,0.3,8.6v4.2h-3.2L704.6,181.4L704.6,181.4z"/>
		<path class="st0" d="M721,166.1h-3.3v-3.4H728v3.4h-3.3v15.4H721V166.1z"/>
		<path class="st0" d="M733.5,162.6v18.7h-3.7v-18.7H733.5z"/>
		<path class="st0" d="M736.7,181.4v-18.7h3.3l2.9,7.3c0.5,1.4,1.5,3.9,2,5.4l0,0c-0.1-2-0.4-5.2-0.4-8.7v-4.2h3.2v18.7h-3.2
			l-2.9-7.1c-0.6-1.6-1.5-3.9-1.9-5.7l0,0c0.1,1.9,0.3,4.8,0.3,8.6v4.2h-3.3L736.7,181.4L736.7,181.4z"/>
		<path class="st0" d="M761.5,180.8c-0.8,0.4-2.5,0.6-3.9,0.6c-2.1,0-3.8-0.6-5.1-1.9c-1.6-1.5-2.5-4.3-2.4-7.6
			c0.1-6.8,3.9-9.6,8-9.6c1.4,0,2.5,0.3,3,0.5l-0.6,3.2c-0.5-0.3-1.3-0.4-2.1-0.4c-2.5,0-4.4,1.6-4.4,6.6c0,4.6,1.8,6.1,3.4,6.1
			c0.4,0,0.6,0,0.8-0.1v-4.6h-1.6v-3h5.1v10.2H761.5z"/>
		<path class="st0" d="M685.1,214.5c-0.5,0.3-1.5,0.5-2.8,0.5c-4.8,0-7.1-3.9-7.1-9.2c0-7.1,3.9-9.9,7.6-9.9c1.3,0,2.1,0.3,2.5,0.5
			l-0.6,3c-0.4-0.3-0.9-0.4-1.6-0.4c-2,0-3.9,1.8-3.9,6.4c0,4.4,1.6,6.2,3.9,6.2c0.6,0,1.3-0.1,1.8-0.3L685.1,214.5z"/>
		<path class="st0" d="M690.4,214.7v-7.2l-4.2-11.6h3.9l1.3,4.4c0.4,1.1,0.6,2.5,1,3.9l0,0c0.3-1.4,0.5-2.8,0.9-4l1.1-4.4h3.8
			l-4.2,11.4v7.3h-3.7v0.2H690.4z"/>
		<path class="st0" d="M708.4,214.5c-0.5,0.3-1.5,0.5-2.8,0.5c-4.8,0-7.1-3.9-7.1-9.2c0-7.1,3.9-9.9,7.6-9.9c1.3,0,2.1,0.3,2.5,0.5
			l-0.6,3c-0.4-0.3-0.9-0.4-1.6-0.4c-2,0-3.9,1.8-3.9,6.4c0,4.4,1.6,6.2,3.9,6.2c0.6,0,1.3-0.1,1.8-0.3L708.4,214.5z"/>
		<path class="st0" d="M710.3,196h3.7v15.7h4.8v3h-8.5V196z"/>
		<path class="st0" d="M728.9,206.5h-4.3v5.1h4.8v3.2h-8.5V196h8.1v3.2h-4.6v4.3h4.3v3H728.9z"/>
	</g>
</g>
<g>
	<g>
		<path class="st2" d="M754.2,85.8v-10h1.6v10H754.2z"/>
		<path class="st2" d="M760.9,85.9c-0.9,0-1.6-0.4-2.1-1S758,83.3,758,82s0.3-2.1,0.8-2.9c0.5-0.6,1.3-1,2.1-1c1,0,1.8,0.4,2.3,1.1
			h0.1c-0.1-0.5-0.1-1-0.1-1.3v-2.8h1.6v10.6h-1.3l-0.3-1h-0.1C762.5,85.5,761.7,85.9,760.9,85.9z M761.2,84.6
			c0.6,0,1.1-0.1,1.4-0.5s0.5-1,0.5-1.8V82c0-0.9-0.1-1.6-0.5-2c-0.3-0.4-0.8-0.6-1.4-0.6c-0.5,0-1,0.3-1.3,0.6
			c-0.3,0.5-0.5,1.1-0.5,1.9c0,0.9,0.1,1.5,0.4,1.9C760.2,84.4,760.6,84.6,761.2,84.6z"/>
		<path class="st2" d="M770.2,85.9c-1.1,0-2-0.4-2.8-1c-0.6-0.6-1-1.6-1-2.8c0-1.3,0.3-2.1,0.9-2.9c0.6-0.8,1.4-1,2.5-1
			c1,0,1.8,0.3,2.4,0.9c0.6,0.6,0.9,1.4,0.9,2.5v0.9H768c0,0.8,0.3,1.3,0.6,1.6s0.9,0.6,1.5,0.6c0.5,0,0.9,0,1.3-0.1
			c0.4-0.1,0.8-0.3,1.3-0.4v1.3c-0.4,0.1-0.8,0.4-1.1,0.4S770.7,85.9,770.2,85.9z M770,79.3c-0.5,0-0.9,0.1-1.3,0.5
			c-0.3,0.4-0.5,0.8-0.5,1.4h3.4c0-0.6-0.1-1.1-0.5-1.4C770.8,79.5,770.5,79.3,770,79.3z"/>
		<path class="st2" d="M781.6,85.8H780v-4.7c0-0.6-0.1-1-0.4-1.3c-0.3-0.3-0.6-0.4-1.1-0.4c-0.6,0-1.1,0.3-1.5,0.6
			c-0.4,0.4-0.5,1-0.5,2v3.8H775v-7.7h1.3l0.3,1h0.1c0.3-0.4,0.5-0.6,1-0.9c0.4-0.3,0.9-0.3,1.4-0.3c1.8,0,2.7,0.9,2.7,2.8v5.1
			H781.6z"/>
		<path class="st2" d="M786.5,84.6c0.4,0,0.8,0,1.1-0.1v1.3c-0.1,0.1-0.4,0.1-0.6,0.3c-0.3,0-0.5,0.1-0.9,0.1
			c-1.5,0-2.3-0.8-2.3-2.4v-4.3h-1v-0.8l1.1-0.6l0.5-1.6h1v1.8h2.1v1.3h-2.1v4c0,0.4,0.1,0.6,0.3,0.9
			C786,84.5,786.3,84.6,786.5,84.6z"/>
		<path class="st2" d="M789.2,76.3c0-0.3,0.1-0.5,0.3-0.6c0.1-0.1,0.4-0.3,0.6-0.3s0.5,0.1,0.6,0.3c0.1,0.1,0.3,0.4,0.3,0.6
			c0,0.3-0.1,0.5-0.3,0.6s-0.4,0.3-0.6,0.3s-0.5-0.1-0.6-0.3C789.2,76.8,789.2,76.5,789.2,76.3z M790.8,85.8h-1.6v-7.6h1.6V85.8z"/>
		<path class="st2" d="M796.9,79.5h-1.8v6.3h-1.6v-6.3h-1.3v-0.8l1.3-0.5v-0.5c0-0.9,0.3-1.5,0.6-2c0.4-0.4,1-0.6,1.9-0.6
			c0.5,0,1.1,0.1,1.6,0.3l-0.4,1.3c-0.4-0.1-0.8-0.3-1.1-0.3s-0.6,0.1-0.8,0.4c-0.1,0.3-0.3,0.5-0.3,1v0.5h1.8L796.9,79.5
			L796.9,79.5z"/>
		<path class="st2" d="M797,78.2h1.8l1.5,4.3c0.3,0.6,0.4,1.1,0.5,1.8l0,0c0-0.3,0.1-0.5,0.3-0.9c0.1-0.4,0.6-2,1.8-5.1h1.8
			l-3.2,8.5c-0.6,1.5-1.5,2.4-2.9,2.4c-0.4,0-0.8,0-1-0.1v-1.3c0.3,0,0.5,0.1,0.9,0.1c0.8,0,1.3-0.5,1.6-1.4l0.3-0.8L797,78.2z"/>
		<path class="st2" d="M740.5,102.5h-1.6v-8.6H736v-1.4h7.5v1.4h-2.9L740.5,102.5L740.5,102.5z"/>
		<path class="st2" d="M748.6,94.8c0.4,0,0.6,0,0.8,0.1l-0.1,1.5c-0.3,0-0.5-0.1-0.8-0.1c-0.6,0-1.1,0.3-1.5,0.6
			c-0.4,0.4-0.6,1-0.6,1.6v3.9h-1.6V95h1.3l0.3,1.3h0.1c0.3-0.5,0.6-0.8,1-1C747.7,94.9,748.1,94.8,748.6,94.8z"/>
		<path class="st2" d="M755.4,102.5l-0.4-1l0,0c-0.4,0.5-0.8,0.8-1.1,0.9s-0.9,0.3-1.4,0.3c-0.8,0-1.3-0.3-1.8-0.6
			c-0.4-0.4-0.6-1-0.6-1.6c0-0.8,0.3-1.4,0.9-1.8s1.4-0.6,2.7-0.6h1.3v-0.4c0-0.5-0.1-0.9-0.4-1.1c-0.3-0.3-0.6-0.4-1-0.4
			s-0.8,0-1.1,0.1s-0.6,0.3-1,0.4l-0.5-1.1c0.4-0.3,0.9-0.4,1.4-0.5s0.9-0.1,1.4-0.1c1,0,1.6,0.3,2.1,0.6c0.5,0.4,0.8,1,0.8,2v5.1
			L755.4,102.5L755.4,102.5z M753,101.3c0.6,0,1-0.1,1.4-0.5s0.5-0.8,0.5-1.4v-0.6h-1c-0.8,0-1.3,0.1-1.6,0.4
			c-0.4,0.3-0.5,0.5-0.5,1c0,0.4,0.1,0.6,0.3,0.8C752.4,101.2,752.6,101.3,753,101.3z"/>
		<path class="st2" d="M765.4,102.5h-1.6v-4.7c0-0.6-0.1-1-0.4-1.3c-0.3-0.3-0.6-0.4-1.1-0.4c-0.6,0-1.1,0.3-1.5,0.6
			c-0.4,0.4-0.5,1-0.5,2v3.8h-1.6V95h1.3l0.3,1h0.1c0.3-0.4,0.5-0.6,1-0.9c0.4-0.3,0.9-0.3,1.4-0.3c1.8,0,2.7,0.9,2.7,2.8v4.7h-0.1
			V102.5z"/>
		<path class="st2" d="M772.6,100.3c0,0.8-0.3,1.3-0.8,1.6c-0.5,0.4-1.3,0.6-2.3,0.6s-1.8-0.1-2.4-0.5v-1.4c0.9,0.4,1.6,0.6,2.4,0.6
			c1,0,1.5-0.3,1.5-0.9c0-0.3,0-0.4-0.1-0.5s-0.3-0.3-0.5-0.4c-0.3-0.1-0.6-0.3-1-0.5c-0.9-0.4-1.4-0.6-1.8-1
			c-0.3-0.4-0.5-0.8-0.5-1.3c0-0.6,0.3-1.1,0.8-1.5s1.3-0.5,2.1-0.5c0.9,0,1.8,0.1,2.5,0.5l-0.5,1.3c-0.8-0.4-1.5-0.5-2-0.5
			c-0.9,0-1.3,0.3-1.3,0.8c0,0.3,0.1,0.4,0.4,0.6c0.3,0.3,0.8,0.4,1.4,0.6c0.6,0.3,1,0.5,1.4,0.6c0.3,0.3,0.5,0.4,0.6,0.6
			C772.6,99.7,772.6,99.9,772.6,100.3z"/>
		<path class="st2" d="M779.1,102.5l-0.4-1l0,0c-0.4,0.5-0.8,0.8-1.1,0.9c-0.4,0.1-0.9,0.3-1.4,0.3c-0.8,0-1.3-0.3-1.8-0.6
			c-0.4-0.4-0.6-1-0.6-1.6c0-0.8,0.3-1.4,0.9-1.8c0.6-0.4,1.4-0.6,2.7-0.6h1.3v-0.4c0-0.5-0.1-0.9-0.4-1.1c-0.3-0.3-0.6-0.4-1-0.4
			s-0.8,0-1.1,0.1s-0.6,0.3-1,0.4l-0.5-1.1c0.4-0.3,0.9-0.4,1.4-0.5s0.9-0.1,1.4-0.1c1,0,1.6,0.3,2.1,0.6c0.5,0.4,0.8,1,0.8,2v5.1
			L779.1,102.5L779.1,102.5z M776.7,101.3c0.6,0,1-0.1,1.4-0.5s0.5-0.8,0.5-1.4v-0.6h-1c-0.8,0-1.3,0.1-1.6,0.4
			c-0.4,0.3-0.5,0.5-0.5,1c0,0.4,0.1,0.6,0.3,0.8C776,101.2,776.3,101.3,776.7,101.3z"/>
		<path class="st2" d="M785.5,102.6c-1.1,0-2-0.4-2.5-1c-0.6-0.6-0.9-1.6-0.9-2.9s0.3-2.3,0.9-2.9c0.6-0.6,1.5-1,2.7-1
			c0.8,0,1.5,0.1,2.1,0.4l-0.5,1.3c-0.6-0.3-1.3-0.4-1.6-0.4c-1.3,0-1.9,0.9-1.9,2.5c0,0.9,0.1,1.5,0.5,1.9s0.8,0.6,1.4,0.6
			c0.8,0,1.4-0.1,2-0.5v1.4c-0.3,0.1-0.6,0.3-0.9,0.4C786.5,102.5,785.9,102.6,785.5,102.6z"/>
		<path class="st2" d="M792.1,101.3c0.4,0,0.8,0,1.1-0.1v1.3c-0.1,0.1-0.4,0.1-0.6,0.3c-0.3,0-0.5,0.1-0.9,0.1
			c-1.5,0-2.3-0.8-2.3-2.4v-4h-1v-0.8l1.1-0.6l0.5-1.6h1V95h2.1v1.3H791v4c0,0.4,0.1,0.6,0.3,0.9
			C791.6,101.2,791.8,101.3,792.1,101.3z"/>
		<path class="st2" d="M794.7,93c0-0.3,0.1-0.5,0.3-0.6c0.1-0.1,0.4-0.3,0.6-0.3c0.3,0,0.5,0.1,0.6,0.3c0.1,0.1,0.3,0.4,0.3,0.6
			c0,0.3-0.1,0.5-0.3,0.6s-0.4,0.3-0.6,0.3c-0.3,0-0.5-0.1-0.6-0.3C794.7,93.5,794.7,93.2,794.7,93z M796.4,102.5h-1.6V95h1.6V102.5
			z"/>
		<path class="st2" d="M805.4,98.7c0,1.3-0.3,2.1-0.9,2.9s-1.5,1-2.7,1c-0.8,0-1.3-0.1-1.9-0.5c-0.5-0.4-1-0.8-1.3-1.4
			s-0.4-1.3-0.4-2c0-1.3,0.3-2.1,0.9-2.9s1.5-1,2.7-1c1.1,0,1.9,0.4,2.5,1C805,96.5,805.4,97.5,805.4,98.7z M799.9,98.7
			c0,1.8,0.6,2.7,1.9,2.7s1.9-0.9,1.9-2.7s-0.6-2.5-1.9-2.5c-0.6,0-1.1,0.3-1.5,0.6S799.9,97.8,799.9,98.7z"/>
		<path class="st2" d="M813.8,102.5h-1.6v-4.7c0-0.6-0.1-1-0.4-1.3c-0.3-0.3-0.6-0.4-1.1-0.4c-0.6,0-1.1,0.3-1.5,0.6
			c-0.4,0.4-0.5,1-0.5,2v3.8H807V95h1.3l0.3,1h0.1c0.3-0.4,0.5-0.6,1-0.9C810,95,810.5,95,811,95c1.8,0,2.7,0.9,2.7,2.8L813.8,102.5
			L813.8,102.5z"/>
		<path class="st2" d="M821,100.3c0,0.8-0.3,1.3-0.8,1.6c-0.5,0.4-1.3,0.6-2.3,0.6s-1.8-0.1-2.4-0.5v-1.4c0.9,0.4,1.6,0.6,2.4,0.6
			c1,0,1.5-0.3,1.5-0.9c0-0.3,0-0.4-0.1-0.5s-0.3-0.3-0.5-0.4c-0.3-0.1-0.6-0.3-1-0.5c-0.9-0.4-1.4-0.6-1.8-1
			c-0.3-0.4-0.5-0.8-0.5-1.3c0-0.6,0.3-1.1,0.8-1.5s1.3-0.5,2.1-0.5c0.9,0,1.8,0.1,2.5,0.5l-0.5,1.3c-0.8-0.4-1.5-0.5-2-0.5
			c-0.9,0-1.3,0.3-1.3,0.8c0,0.3,0.1,0.4,0.4,0.6c0.3,0.3,0.8,0.4,1.4,0.6c0.6,0.3,1,0.5,1.4,0.6c0.3,0.3,0.5,0.4,0.6,0.6
			C821,99.7,821,99.9,821,100.3z"/>
	</g>
</g>
<g>
	<g>
		<path class="st2" d="M801.1,208.9v3.9h-1.6v-10h2.8c1.3,0,2.3,0.3,2.9,0.8s0.9,1.3,0.9,2.1c0,1.3-0.6,2.1-1.9,2.7l2.8,4.4h-2
			l-2.4-3.9H801.1L801.1,208.9z M801.1,207.7h1.1c0.8,0,1.3-0.1,1.6-0.4c0.4-0.3,0.5-0.8,0.5-1.3s-0.1-1-0.5-1.3s-0.9-0.4-1.6-0.4
			h-1L801.1,207.7L801.1,207.7L801.1,207.7z"/>
		<path class="st2" d="M811.4,213.1c-1.1,0-2-0.4-2.8-1c-0.6-0.6-1-1.6-1-2.8c0-1.3,0.3-2.1,0.9-2.9s1.4-1,2.5-1
			c1,0,1.8,0.3,2.4,0.9s0.9,1.4,0.9,2.5v0.9h-5.1c0,0.8,0.3,1.3,0.6,1.6c0.4,0.4,0.9,0.6,1.5,0.6c0.5,0,0.9,0,1.3-0.1
			s0.8-0.3,1.3-0.4v1.3c-0.4,0.1-0.8,0.4-1.1,0.4C812.4,213,811.9,213.1,811.4,213.1z M811.2,206.5c-0.5,0-0.9,0.1-1.3,0.5
			c-0.3,0.4-0.5,0.8-0.5,1.4h3.4c0-0.6-0.1-1.1-0.5-1.4C812.1,206.6,811.7,206.5,811.2,206.5z"/>
		<path class="st2" d="M819.3,213.1c-1.1,0-2-0.4-2.5-1c-0.6-0.6-0.9-1.6-0.9-2.9s0.3-2.3,0.9-2.9s1.5-1,2.7-1
			c0.8,0,1.5,0.1,2.1,0.4l-0.5,1.3c-0.6-0.3-1.3-0.4-1.6-0.4c-1.3,0-1.9,0.9-1.9,2.5c0,0.9,0.1,1.5,0.5,1.9s0.8,0.6,1.4,0.6
			c0.8,0,1.4-0.1,2-0.5v1.4c-0.3,0.1-0.6,0.3-0.9,0.4S819.6,213.1,819.3,213.1z"/>
		<path class="st2" d="M829.8,209.2c0,1.3-0.3,2.1-0.9,2.9s-1.5,1-2.7,1c-0.8,0-1.3-0.1-1.9-0.5c-0.5-0.4-1-0.8-1.3-1.4
			s-0.4-1.3-0.4-2c0-1.3,0.3-2.1,0.9-2.9s1.5-1,2.7-1c1.1,0,1.9,0.4,2.5,1C829.4,207,829.8,208,829.8,209.2z M824.3,209.2
			c0,1.8,0.6,2.7,1.9,2.7s1.9-0.9,1.9-2.7s-0.6-2.5-1.9-2.5c-0.6,0-1.1,0.3-1.5,0.6C824.3,207.7,824.3,208.3,824.3,209.2z"/>
		<path class="st2" d="M835.3,205.2c0.4,0,0.6,0,0.8,0.1l-0.1,1.5c-0.3,0-0.5-0.1-0.8-0.1c-0.6,0-1.1,0.3-1.5,0.6
			c-0.4,0.4-0.6,1-0.6,1.6v3.9h-1.6v-7.5h1.3l0.3,1.3h0.1c0.3-0.5,0.6-0.8,1-1C834.4,205.4,834.9,205.2,835.3,205.2z"/>
		<path class="st2" d="M840.1,213.1c-0.9,0-1.6-0.4-2.1-1s-0.8-1.6-0.8-2.9s0.3-2.1,0.8-2.9c0.5-0.6,1.3-1,2.1-1
			c1,0,1.8,0.4,2.3,1.1h0.1c-0.1-0.5-0.1-1-0.1-1.3v-2.8h1.6V213h-1.3l-0.3-1h-0.1C841.9,212.7,841.1,213.1,840.1,213.1z
			 M840.5,211.8c0.6,0,1.1-0.1,1.4-0.5c0.3-0.4,0.5-1,0.5-1.8v-0.3c0-0.9-0.1-1.6-0.5-2c-0.3-0.4-0.8-0.6-1.4-0.6
			c-0.5,0-1,0.3-1.3,0.6c-0.3,0.5-0.5,1.1-0.5,1.9c0,0.9,0.1,1.5,0.4,1.9C839.5,211.6,840,211.8,840.5,211.8z"/>
		<path class="st2" d="M798.1,232.4c-0.5,0-0.8,0-1.1-0.1v-1.4c0.4,0.1,0.8,0.1,1,0.1c0.9,0,1.4-0.5,1.4-1.6v-9.6h1.6v9.6
			c0,1-0.3,1.8-0.8,2.3S799.2,232.4,798.1,232.4z"/>
		<path class="st2" d="M810.2,225.9c0,1.3-0.3,2.1-0.9,2.9c-0.6,0.6-1.5,1-2.7,1c-0.8,0-1.3-0.1-1.9-0.5c-0.6-0.4-1-0.8-1.3-1.4
			c-0.3-0.6-0.4-1.3-0.4-2c0-1.3,0.3-2.1,0.9-2.9s1.5-1,2.7-1c1.1,0,1.9,0.4,2.5,1C809.8,223.7,810.2,224.7,810.2,225.9z
			 M804.6,225.9c0,1.8,0.6,2.7,1.9,2.7s1.9-0.9,1.9-2.7s-0.6-2.5-1.9-2.5c-0.6,0-1.1,0.3-1.5,0.6C804.8,224.3,804.6,225,804.6,225.9
			z"/>
		<path class="st2" d="M817.2,229.6l-0.3-1h-0.1c-0.3,0.4-0.5,0.6-0.9,0.8c-0.4,0.1-0.9,0.3-1.4,0.3c-0.9,0-1.6-0.3-2-0.6
			c-0.4-0.4-0.6-1.1-0.6-2v-4.9h1.6v4.7c0,0.6,0.1,1,0.4,1.3s0.6,0.4,1.1,0.4c0.6,0,1.1-0.3,1.5-0.6c0.3-0.4,0.5-1,0.5-2v-3.8h1.6
			v7.5h-1.5v-0.1H817.2z"/>
		<path class="st2" d="M824.6,221.9c0.4,0,0.6,0,0.8,0.1l-0.1,1.5c-0.3,0-0.5-0.1-0.8-0.1c-0.6,0-1.1,0.3-1.5,0.6s-0.6,1-0.6,1.6
			v3.9h-1.6V222h1.3l0.3,1.3h0.1c0.3-0.5,0.6-0.8,1-1C823.7,222.1,824.1,221.9,824.6,221.9z"/>
		<path class="st2" d="M833.4,229.6h-1.6V225c0-0.6-0.1-1-0.4-1.3c-0.3-0.3-0.6-0.4-1.1-0.4c-0.6,0-1.1,0.3-1.5,0.6s-0.5,1-0.5,2
			v3.8h-1.5v-7.5h1.3l0.3,1h0.1c0.3-0.4,0.5-0.6,1-0.9c0.4-0.3,0.9-0.3,1.4-0.3c1.8,0,2.7,0.9,2.7,2.8v4.8H833.4z"/>
		<path class="st2" d="M840.2,229.6l-0.4-1l0,0c-0.4,0.5-0.8,0.8-1.1,0.9c-0.4,0.1-0.9,0.3-1.4,0.3c-0.8,0-1.3-0.3-1.8-0.6
			c-0.4-0.4-0.6-1-0.6-1.6c0-0.8,0.3-1.4,0.9-1.8c0.6-0.4,1.4-0.6,2.7-0.6h1.3v-0.4c0-0.5-0.1-0.9-0.4-1.1c-0.3-0.3-0.6-0.4-1-0.4
			s-0.8,0-1.1,0.1c-0.4,0.1-0.6,0.3-1,0.4l-0.5-1.1c0.4-0.3,0.9-0.4,1.4-0.5s0.9-0.1,1.4-0.1c1,0,1.6,0.3,2.1,0.6
			c0.5,0.4,0.8,1,0.8,2v5.1L840.2,229.6L840.2,229.6z M838,228.5c0.6,0,1-0.1,1.4-0.5s0.5-0.8,0.5-1.4V226h-1
			c-0.8,0-1.3,0.1-1.6,0.4s-0.5,0.5-0.5,1c0,0.4,0.1,0.6,0.3,0.8C837.2,228.4,837.5,228.5,838,228.5z"/>
		<path class="st2" d="M845.3,229.6h-1.6V219h1.6V229.6z"/>
		<path class="st2" d="M805.1,246.3h-5.6v-10h5.6v1.4h-4v2.7h3.8v1.4h-3.8v3.2h4V246.3z"/>
		<path class="st2" d="M813.7,246.3h-1.6v-4.7c0-0.6-0.1-1-0.4-1.3s-0.6-0.4-1.1-0.4c-0.6,0-1.1,0.3-1.5,0.6s-0.5,1-0.5,2v3.8H807
			v-7.7h1.3l0.3,1h0.1c0.3-0.4,0.5-0.6,1-0.9c0.4-0.3,0.9-0.3,1.4-0.3c1.8,0,2.7,0.9,2.7,2.8v4.9h-0.1V246.3z"/>
		<path class="st2" d="M818.6,245.2c0.4,0,0.8,0,1.1-0.1v1.3c-0.1,0.1-0.4,0.1-0.6,0.3c-0.3,0-0.5,0.1-0.9,0.1
			c-1.5,0-2.3-0.8-2.3-2.4V240h-1v-0.8l1.1-0.6l0.5-1.6h1v1.6h2.1v1.3h-2.1v4c0,0.4,0.1,0.6,0.3,0.9
			C818.1,245.1,818.4,245.2,818.6,245.2z"/>
		<path class="st2" d="M825.2,238.6c0.4,0,0.6,0,0.8,0.1l-0.1,1.5c-0.3,0-0.5-0.1-0.8-0.1c-0.6,0-1.1,0.3-1.5,0.6s-0.6,1-0.6,1.6
			v3.9h-1.6v-7.6h1.3l0.3,1.3h0.1c0.3-0.5,0.6-0.8,1-1S824.7,238.6,825.2,238.6z"/>
		<path class="st2" d="M827.2,236.9c0-0.3,0.1-0.5,0.3-0.6s0.4-0.3,0.6-0.3s0.5,0.1,0.6,0.3c0.1,0.1,0.3,0.4,0.3,0.6
			s-0.1,0.5-0.3,0.6c-0.1,0.1-0.4,0.3-0.6,0.3s-0.5-0.1-0.6-0.3C827.4,237.2,827.2,237.1,827.2,236.9z M829,246.3h-1.6v-7.6h1.6
			V246.3z"/>
		<path class="st2" d="M834.6,246.5c-1.1,0-2-0.4-2.8-1c-0.6-0.6-1-1.6-1-2.8c0-1.3,0.3-2.1,0.9-2.9s1.4-1,2.5-1
			c1,0,1.8,0.3,2.4,0.9s0.9,1.4,0.9,2.5v0.9h-5.1c0,0.8,0.3,1.3,0.6,1.6s0.9,0.6,1.5,0.6c0.5,0,0.9,0,1.3-0.1
			c0.4-0.1,0.8-0.3,1.3-0.4v1.3c-0.4,0.1-0.8,0.4-1.1,0.4S835.1,246.5,834.6,246.5z M834.2,239.9c-0.5,0-0.9,0.1-1.3,0.5
			c-0.3,0.4-0.5,0.8-0.5,1.4h3.4c0-0.6-0.1-1.1-0.5-1.4C835.1,240,834.7,239.9,834.2,239.9z"/>
		<path class="st2" d="M844.3,244.2c0,0.8-0.3,1.3-0.8,1.6c-0.5,0.4-1.3,0.6-2.3,0.6s-1.8-0.1-2.4-0.5v-1.4c0.9,0.4,1.6,0.6,2.4,0.6
			c1,0,1.5-0.3,1.5-0.9c0-0.3,0-0.4-0.1-0.5s-0.3-0.3-0.5-0.4c-0.3-0.1-0.6-0.3-1-0.5c-0.9-0.4-1.4-0.6-1.8-1
			c-0.3-0.4-0.5-0.8-0.5-1.3c0-0.6,0.3-1.1,0.8-1.5s1.3-0.5,2.1-0.5c0.9,0,1.8,0.1,2.5,0.5l-0.5,1.3c-0.8-0.4-1.5-0.5-2-0.5
			c-0.9,0-1.3,0.3-1.3,0.8c0,0.3,0.1,0.4,0.4,0.6c0.3,0.3,0.8,0.4,1.4,0.6s1,0.5,1.4,0.6c0.3,0.3,0.5,0.4,0.6,0.6
			C844.2,243.4,844.3,243.8,844.3,244.2z"/>
	</g>
</g>
<g>
	<g>
		<path class="st2" d="M713.4,306.3c0,1-0.4,1.8-1,2.4s-1.6,0.9-2.9,0.9h-1v3.7h-1.6v-10h2.9c1.3,0,2.1,0.3,2.8,0.8
			C713.2,304.5,713.4,305.3,713.4,306.3z M708.5,308.2h0.9c0.9,0,1.4-0.1,1.9-0.4s0.6-0.8,0.6-1.4s-0.1-1-0.5-1.3s-0.9-0.4-1.6-0.4
			h-1.1v3.4L708.5,308.2L708.5,308.2z"/>
		<path class="st2" d="M721.9,309.4c0,1.3-0.3,2.1-0.9,2.9s-1.5,1-2.7,1c-0.8,0-1.3-0.1-1.9-0.5c-0.5-0.4-1-0.8-1.3-1.4
			s-0.4-1.3-0.4-2c0-1.3,0.3-2.1,0.9-2.9s1.5-1,2.7-1c1.1,0,1.9,0.4,2.5,1C721.7,307.3,721.9,308.3,721.9,309.4z M716.5,309.4
			c0,1.8,0.6,2.7,1.9,2.7s1.9-0.9,1.9-2.7s-0.6-2.5-1.9-2.5c-0.6,0-1.1,0.3-1.5,0.6C716.5,307.9,716.5,308.7,716.5,309.4z"/>
		<path class="st2" d="M728.9,311.1c0,0.8-0.3,1.3-0.8,1.6c-0.5,0.4-1.3,0.6-2.3,0.6s-1.8-0.1-2.4-0.5v-1.4c0.9,0.4,1.6,0.6,2.4,0.6
			c1,0,1.5-0.3,1.5-0.9c0-0.3,0-0.4-0.1-0.5s-0.3-0.3-0.5-0.4s-0.6-0.3-1-0.5c-0.9-0.4-1.4-0.6-1.8-1c-0.3-0.4-0.5-0.8-0.5-1.3
			c0-0.6,0.3-1.1,0.8-1.5s1.3-0.5,2.1-0.5s1.8,0.1,2.5,0.5l-0.5,1.3c-0.8-0.4-1.5-0.5-2-0.5c-0.9,0-1.3,0.3-1.3,0.8
			c0,0.3,0.1,0.4,0.4,0.6c0.3,0.3,0.8,0.4,1.4,0.6c0.6,0.3,1,0.5,1.4,0.6c0.3,0.3,0.5,0.4,0.6,0.6
			C728.7,310.4,728.9,310.7,728.9,311.1z"/>
		<path class="st2" d="M733.3,312.1c0.4,0,0.8,0,1.1-0.1v1.3c-0.1,0.1-0.4,0.1-0.6,0.3c-0.3,0-0.5,0.1-0.9,0.1
			c-1.5,0-2.3-0.8-2.3-2.4v-4h-1v-0.8l1.1-0.6l0.5-1.6h1v1.6h2.1v1.3h-2.1v4c0,0.4,0.1,0.6,0.3,0.9C732.8,312,733,312.1,733.3,312.1
			z"/>
		<path class="st2" d="M739.7,313.2v-10h1.6v8.6h4.2v1.4H739.7L739.7,313.2z"/>
		<path class="st2" d="M750.5,313.3c-1.1,0-2-0.4-2.8-1c-0.6-0.6-1-1.6-1-2.8c0-1.3,0.3-2.1,0.9-2.9s1.4-1,2.5-1
			c1,0,1.8,0.3,2.4,0.9s0.9,1.4,0.9,2.5v0.9h-5.1c0,0.8,0.3,1.3,0.6,1.6c0.4,0.4,0.9,0.6,1.5,0.6c0.5,0,0.9,0,1.3-0.1
			s0.8-0.3,1.3-0.4v1.3c-0.4,0.1-0.8,0.4-1.1,0.4S751,313.3,750.5,313.3z M750.1,306.8c-0.5,0-0.9,0.1-1.3,0.5
			c-0.3,0.4-0.5,0.8-0.5,1.4h3.4c0-0.6-0.1-1.1-0.5-1.4C751,306.9,750.6,306.8,750.1,306.8z"/>
		<path class="st2" d="M757.7,313.3c-0.9,0-1.6-0.4-2.1-1s-0.8-1.6-0.8-2.9s0.3-2.1,0.8-2.9c0.5-0.6,1.3-1,2.1-1
			c1,0,1.8,0.4,2.3,1.1h0.1c-0.1-0.5-0.1-1-0.1-1.3v-2.8h1.6v10.6h-1.3l-0.3-1l0,0C759.5,313,758.7,313.3,757.7,313.3z M758.1,312.1
			c0.6,0,1.1-0.1,1.4-0.5c0.3-0.4,0.5-1,0.5-1.8v-0.3c0-0.9-0.1-1.6-0.5-2c-0.3-0.4-0.8-0.6-1.4-0.6c-0.5,0-1,0.3-1.3,0.6
			c-0.3,0.5-0.5,1.1-0.5,1.9c0,0.9,0.1,1.5,0.4,1.9C757.1,311.8,757.6,312.1,758.1,312.1z"/>
		<path class="st2" d="M770.2,305.8v0.9l-1.3,0.3c0.1,0.1,0.3,0.4,0.3,0.6c0,0.3,0.1,0.5,0.1,0.8c0,0.8-0.3,1.4-0.8,1.8
			c-0.5,0.5-1.3,0.6-2.1,0.6c-0.3,0-0.5,0-0.6,0c-0.4,0.3-0.5,0.5-0.5,0.8c0,0.1,0.1,0.3,0.3,0.4c0.1,0.1,0.5,0.1,0.9,0.1h1.3
			c0.9,0,1.5,0.1,1.9,0.5s0.6,0.9,0.6,1.5c0,0.9-0.4,1.5-1,2c-0.8,0.5-1.8,0.6-3,0.6c-1,0-1.8-0.1-2.4-0.5s-0.8-0.9-0.8-1.5
			c0-0.5,0.1-0.9,0.4-1.1c0.3-0.3,0.8-0.5,1.3-0.6c-0.3-0.1-0.4-0.3-0.5-0.4c-0.1-0.3-0.3-0.4-0.3-0.6c0-0.3,0.1-0.5,0.3-0.8
			c0.1-0.3,0.4-0.4,0.8-0.6c-0.4-0.1-0.8-0.4-0.9-0.8c-0.3-0.4-0.4-0.8-0.4-1.3c0-0.8,0.3-1.4,0.8-1.9s1.3-0.6,2.1-0.6
			c0.3,0,0.4,0,0.6,0s0.4,0,0.5,0.1h2.5L770.2,305.8L770.2,305.8z M764.3,314.4c0,0.4,0.1,0.6,0.5,0.8s0.8,0.3,1.3,0.3
			c0.9,0,1.5-0.1,1.9-0.4s0.6-0.6,0.6-1s-0.1-0.5-0.4-0.8c-0.3-0.1-0.6-0.3-1.3-0.3h-1.3c-0.5,0-0.8,0.1-1.1,0.4
			C764.4,313.7,764.3,314,764.3,314.4z M765,308.2c0,0.5,0.1,0.9,0.4,1.1c0.3,0.3,0.6,0.4,1,0.4c0.9,0,1.4-0.5,1.4-1.5
			c0-0.5-0.1-0.9-0.4-1.1c-0.3-0.3-0.6-0.4-1-0.4c-0.5,0-0.8,0.1-1,0.4C765,307.3,765,307.7,765,308.2z"/>
		<path class="st2" d="M774.9,313.3c-1.1,0-2-0.4-2.8-1c-0.6-0.6-1-1.6-1-2.8c0-1.3,0.3-2.1,0.9-2.9s1.4-1,2.5-1
			c1,0,1.8,0.3,2.4,0.9s0.9,1.4,0.9,2.5v0.9h-5.1c0,0.8,0.3,1.3,0.6,1.6c0.4,0.4,0.9,0.6,1.5,0.6c0.5,0,0.9,0,1.3-0.1
			s0.8-0.3,1.3-0.4v1.3c-0.4,0.1-0.8,0.4-1.1,0.4S775.4,313.3,774.9,313.3z M774.5,306.8c-0.5,0-0.9,0.1-1.3,0.5
			c-0.3,0.4-0.5,0.8-0.5,1.4h3.4c0-0.6-0.1-1.1-0.5-1.4C775.5,306.9,775,306.8,774.5,306.8z"/>
		<path class="st2" d="M783.4,305.5c0.4,0,0.6,0,0.8,0.1l-0.1,1.5c-0.3,0-0.5-0.1-0.8-0.1c-0.6,0-1.1,0.3-1.5,0.6
			c-0.4,0.4-0.6,1-0.6,1.6v3.9h-1.6v-7.5h1.3l0.3,1.3h0.1c0.3-0.5,0.6-0.8,1-1C782.5,305.8,783,305.5,783.4,305.5z"/>
		<path class="st2" d="M728.6,329.9H723v-10h5.6v1.4h-4v2.7h3.8v1.4h-3.8v3.2h4V329.9z"/>
		<path class="st2" d="M737.2,329.9h-1.6v-4.7c0-0.6-0.1-1-0.4-1.3s-0.6-0.4-1.1-0.4c-0.6,0-1.1,0.3-1.5,0.6s-0.5,1-0.5,2v3.8h-1.6
			v-7.5h1.3l0.3,1h0.1c0.3-0.4,0.5-0.6,1-0.9c0.4-0.3,0.9-0.3,1.4-0.3c1.8,0,2.7,0.9,2.7,2.8v4.7h-0.1V329.9z"/>
		<path class="st2" d="M742.1,328.8c0.4,0,0.8,0,1.1-0.1v1.3c-0.1,0.1-0.4,0.1-0.6,0.3c-0.3,0-0.5,0.1-0.9,0.1
			c-1.5,0-2.3-0.8-2.3-2.4v-4h-1v-0.8l1.1-0.6l0.5-1.6h1v1.6h2.1v1.3H741v4c0,0.4,0.1,0.6,0.3,0.9
			C741.6,328.6,741.9,328.8,742.1,328.8z"/>
		<path class="st2" d="M748.7,322.2c0.4,0,0.6,0,0.8,0.1l-0.1,1.5c-0.3,0-0.5-0.1-0.8-0.1c-0.6,0-1.1,0.3-1.5,0.6s-0.6,1-0.6,1.6
			v3.9h-1.6v-7.5h1.3l0.3,1.3h0.1c0.3-0.5,0.6-0.8,1-1C747.7,322.4,748.2,322.2,748.7,322.2z"/>
		<path class="st2" d="M750.7,320.4c0-0.3,0.1-0.5,0.3-0.6c0.1-0.1,0.4-0.3,0.6-0.3s0.5,0.1,0.6,0.3s0.3,0.4,0.3,0.6
			c0,0.3-0.1,0.5-0.3,0.6c-0.1,0.1-0.4,0.3-0.6,0.3s-0.5-0.1-0.6-0.3C750.9,320.9,750.7,320.7,750.7,320.4z M752.4,329.9h-1.5v-7.5
			h1.6L752.4,329.9L752.4,329.9z"/>
		<path class="st2" d="M757.9,330c-1.1,0-2-0.4-2.8-1c-0.6-0.6-1-1.6-1-2.8c0-1.3,0.3-2.1,0.9-2.9c0.6-0.8,1.4-1,2.5-1
			c1,0,1.8,0.3,2.4,0.9c0.6,0.6,0.9,1.4,0.9,2.5v0.9h-5.1c0,0.8,0.3,1.3,0.6,1.6s0.9,0.6,1.5,0.6c0.5,0,0.9,0,1.3-0.1
			c0.4-0.1,0.8-0.3,1.3-0.4v1.3c-0.4,0.1-0.8,0.4-1.1,0.4S758.5,330,757.9,330z M757.7,323.5c-0.5,0-0.9,0.1-1.3,0.5
			c-0.3,0.4-0.5,0.8-0.5,1.4h3.4c0-0.6-0.1-1.1-0.5-1.4C758.6,323.6,758.2,323.5,757.7,323.5z"/>
		<path class="st2" d="M767.8,327.8c0,0.8-0.3,1.3-0.8,1.6c-0.5,0.4-1.3,0.6-2.3,0.6s-1.8-0.1-2.4-0.5v-1.4c0.9,0.4,1.6,0.6,2.4,0.6
			c1,0,1.5-0.3,1.5-0.9c0-0.3,0-0.4-0.1-0.5s-0.3-0.3-0.5-0.4c-0.3-0.1-0.6-0.3-1-0.5c-0.9-0.4-1.4-0.6-1.8-1
			c-0.3-0.4-0.5-0.8-0.5-1.3c0-0.6,0.3-1.1,0.8-1.5s1.3-0.5,2.1-0.5c0.9,0,1.8,0.1,2.5,0.5l-0.5,1.3c-0.8-0.4-1.5-0.5-2-0.5
			c-0.9,0-1.3,0.3-1.3,0.8c0,0.3,0.1,0.4,0.4,0.6c0.3,0.3,0.8,0.4,1.4,0.6s1,0.5,1.4,0.6c0.3,0.3,0.5,0.4,0.6,0.6
			C767.7,327.1,767.8,327.4,767.8,327.8z"/>
	</g>
</g>
<g>
	<path class="st2" d="M604.5,285.4h-1.6v-8.6H600v-1.4h7.5v1.4h-2.9C604.5,276.8,604.5,285.4,604.5,285.4z"/>
	<path class="st2" d="M612.6,277.7c0.4,0,0.6,0,0.8,0.1l-0.1,1.5c-0.3,0-0.5-0.1-0.8-0.1c-0.6,0-1.1,0.3-1.5,0.6
		c-0.4,0.4-0.6,1-0.6,1.6v3.9h-1.6v-7.5h1.3l0.3,1.3h0.1c0.3-0.5,0.6-0.8,1-1C611.7,277.9,612.2,277.7,612.6,277.7z"/>
	<path class="st2" d="M614.7,275.9c0-0.3,0.1-0.5,0.3-0.6s0.4-0.3,0.6-0.3s0.5,0.1,0.6,0.3c0.1,0.1,0.3,0.4,0.3,0.6
		c0,0.3-0.1,0.5-0.3,0.6s-0.4,0.3-0.6,0.3s-0.5-0.1-0.6-0.3C614.7,276.4,614.7,276.2,614.7,275.9z M616.3,285.4h-1.6v-7.5h1.6V285.4
		z"/>
	<path class="st2" d="M623.3,285.4l-0.4-1l0,0c-0.4,0.5-0.8,0.8-1.1,0.9c-0.4,0.1-0.9,0.3-1.4,0.3c-0.8,0-1.3-0.3-1.8-0.6
		c-0.4-0.4-0.6-1-0.6-1.6c0-0.8,0.3-1.4,0.9-1.8c0.6-0.4,1.4-0.6,2.7-0.6h1.3v-0.4c0-0.5-0.1-0.9-0.4-1.1c-0.3-0.3-0.6-0.4-1-0.4
		s-0.8,0-1.1,0.1s-0.6,0.3-1,0.4l-0.5-1.1c0.4-0.3,0.9-0.4,1.4-0.5s0.9-0.1,1.4-0.1c1,0,1.6,0.3,2.1,0.6c0.5,0.4,0.8,1,0.8,2v5.1
		L623.3,285.4L623.3,285.4z M621,284.3c0.6,0,1-0.1,1.4-0.5s0.5-0.8,0.5-1.4v-0.6h-1c-0.8,0-1.3,0.1-1.6,0.4c-0.4,0.3-0.5,0.5-0.5,1
		c0,0.4,0.1,0.6,0.3,0.8C620.3,284.3,620.5,284.3,621,284.3z"/>
	<path class="st2" d="M628.4,285.4h-1.6v-10.6h1.6V285.4z"/>
	<path class="st2" d="M589.4,292.1h2.9c1.4,0,2.4,0.3,2.9,0.6c0.5,0.4,0.9,1,0.9,1.9c0,0.6-0.1,1-0.5,1.4s-0.8,0.6-1.3,0.8v0.1
		c0.8,0.1,1.3,0.4,1.5,0.8c0.4,0.4,0.5,0.9,0.5,1.5c0,0.9-0.3,1.6-0.9,2.1s-1.5,0.8-2.7,0.8h-3.5v-10L589.4,292.1L589.4,292.1z
		 M591.1,296.3h1.5c0.6,0,1.1-0.1,1.5-0.4c0.3-0.3,0.5-0.6,0.5-1.1s-0.1-0.8-0.5-1c-0.4-0.3-0.9-0.3-1.6-0.3h-1.4V296.3z
		 M591.1,297.5v3.2h1.8c0.6,0,1.1-0.1,1.5-0.4s0.5-0.6,0.5-1.3c0-0.5-0.1-0.9-0.5-1.1s-0.9-0.4-1.6-0.4L591.1,297.5L591.1,297.5z"/>
	<path class="st2" d="M603.2,302.1l-0.4-1l0,0c-0.4,0.5-0.8,0.8-1.1,0.9c-0.4,0.1-0.9,0.3-1.4,0.3c-0.8,0-1.3-0.3-1.8-0.6
		c-0.4-0.4-0.6-1-0.6-1.6c0-0.8,0.3-1.4,0.9-1.8s1.4-0.6,2.7-0.6h1.3v-0.4c0-0.5-0.1-0.9-0.4-1.1c-0.3-0.3-0.6-0.4-1-0.4
		s-0.8,0-1.1,0.1s-0.6,0.3-1,0.4l-0.5-1.1c0.4-0.3,0.9-0.4,1.4-0.5s0.9-0.1,1.4-0.1c1,0,1.6,0.3,2.1,0.6c0.5,0.4,0.8,1,0.8,2v5.1
		L603.2,302.1L603.2,302.1z M600.8,301c0.6,0,1-0.1,1.4-0.5s0.5-0.8,0.5-1.4v-0.6h-1c-0.8,0-1.3,0.1-1.6,0.4c-0.4,0.3-0.5,0.5-0.5,1
		c0,0.4,0.1,0.6,0.3,0.8C600,301,600.4,301,600.8,301z"/>
	<path class="st2" d="M608.1,302.1h-1.6v-10.6h1.6V302.1z"/>
	<path class="st2" d="M615.1,302.1l-0.4-1l0,0c-0.4,0.5-0.8,0.8-1.1,0.9c-0.4,0.1-0.9,0.3-1.4,0.3c-0.8,0-1.3-0.3-1.8-0.6
		c-0.4-0.4-0.6-1-0.6-1.6c0-0.8,0.3-1.4,0.9-1.8s1.4-0.6,2.7-0.6h1.3v-0.4c0-0.5-0.1-0.9-0.4-1.1c-0.3-0.3-0.6-0.4-1-0.4
		s-0.8,0-1.1,0.1c-0.4,0.1-0.6,0.3-1,0.4l-0.5-1.1c0.4-0.3,0.9-0.4,1.4-0.5s0.9-0.1,1.4-0.1c1,0,1.6,0.3,2.1,0.6
		c0.5,0.4,0.8,1,0.8,2v5.1L615.1,302.1L615.1,302.1z M612.7,301c0.6,0,1-0.1,1.4-0.5s0.5-0.8,0.5-1.4v-0.6h-1
		c-0.8,0-1.3,0.1-1.6,0.4c-0.4,0.3-0.5,0.5-0.5,1c0,0.4,0.1,0.6,0.3,0.8C612,301,612.3,301,612.7,301z"/>
	<path class="st2" d="M625.1,302.1h-1.6v-4.7c0-0.6-0.1-1-0.4-1.3c-0.3-0.3-0.6-0.4-1.1-0.4c-0.6,0-1.1,0.3-1.5,0.6
		c-0.4,0.4-0.5,1-0.5,2v3.8h-1.6v-7.5h1.3l0.3,1h0.1c0.3-0.4,0.5-0.6,1-0.9c0.4-0.3,0.9-0.3,1.4-0.3c1.8,0,2.7,0.9,2.7,2.8v4.7h-0.1
		V302.1z"/>
	<path class="st2" d="M630.4,302.2c-1.1,0-2-0.4-2.5-1c-0.6-0.6-0.9-1.6-0.9-2.9s0.3-2.3,0.9-2.9s1.5-1,2.7-1c0.8,0,1.5,0.1,2.1,0.4
		l-0.5,1.3c-0.6-0.3-1.3-0.4-1.6-0.4c-1.3,0-1.9,0.9-1.9,2.5c0,0.9,0.1,1.5,0.5,1.9s0.8,0.6,1.4,0.6c0.8,0,1.4-0.1,2-0.5v1.4
		c-0.3,0.1-0.6,0.3-0.9,0.4C631.4,302.1,630.8,302.2,630.4,302.2z"/>
	<path class="st2" d="M637.5,302.2c-1.1,0-2-0.4-2.8-1c-0.6-0.6-1-1.6-1-2.8c0-1.3,0.3-2.1,0.9-2.9s1.4-1,2.5-1c1,0,1.8,0.3,2.4,0.9
		s0.9,1.4,0.9,2.5v0.9h-5.1c0,0.8,0.3,1.3,0.6,1.6c0.4,0.4,0.9,0.6,1.5,0.6c0.5,0,0.9,0,1.3-0.1c0.4-0.1,0.8-0.3,1.3-0.4v1.3
		c-0.4,0.1-0.8,0.4-1.1,0.4S638,302.2,637.5,302.2z M637.2,295.6c-0.5,0-0.9,0.1-1.3,0.5c-0.3,0.4-0.5,0.8-0.5,1.4h3.4
		c0-0.6-0.1-1.1-0.5-1.4C638.1,295.8,637.7,295.6,637.2,295.6z"/>
</g>
<g>
	<g>
		<path class="st2" d="M547.8,167.8h-1.6v-10h5.6v1.4h-4v3.2h3.8v1.4h-3.8V167.8L547.8,167.8L547.8,167.8z"/>
		<path class="st2" d="M553.4,158.3c0-0.3,0.1-0.5,0.3-0.6c0.1-0.1,0.4-0.3,0.6-0.3s0.5,0.1,0.6,0.3c0.1,0.1,0.3,0.4,0.3,0.6
			s-0.1,0.5-0.3,0.6c-0.1,0.1-0.4,0.3-0.6,0.3s-0.5-0.1-0.6-0.3C553.5,158.8,553.4,158.6,553.4,158.3z M555.2,167.8h-1.6v-7.5h1.6
			V167.8z"/>
		<path class="st2" d="M564,167.8h-1.6v-4.7c0-0.6-0.1-1-0.4-1.3c-0.3-0.3-0.6-0.4-1.1-0.4c-0.6,0-1.1,0.3-1.5,0.6s-0.5,1-0.5,2v3.8
			h-1.4v-7.6h1.3l0.3,1h0.1c0.3-0.4,0.5-0.6,1-0.9c0.4-0.3,0.9-0.3,1.4-0.3c1.8,0,2.7,0.9,2.7,2.8v4.8H564V167.8z"/>
		<path class="st2" d="M571,167.8l-0.4-1l0,0c-0.4,0.5-0.8,0.8-1.1,0.9c-0.4,0.1-0.9,0.3-1.4,0.3c-0.8,0-1.3-0.3-1.8-0.6
			c-0.4-0.4-0.6-1-0.6-1.6c0-0.8,0.3-1.4,0.9-1.8c0.6-0.4,1.4-0.6,2.7-0.6h1.3V163c0-0.5-0.1-0.9-0.4-1.1c-0.3-0.3-0.6-0.4-1-0.4
			s-0.8,0-1.1,0.1c-0.4,0.1-0.6,0.3-1,0.4l-0.5-1.1c0.4-0.3,0.9-0.4,1.4-0.5s0.9-0.1,1.4-0.1c1,0,1.6,0.3,2.1,0.6s0.8,1,0.8,2v5.1
			L571,167.8L571,167.8z M568.6,166.7c0.6,0,1-0.1,1.4-0.5s0.5-0.8,0.5-1.4v-0.6h-1c-0.8,0-1.3,0.1-1.6,0.4s-0.5,0.5-0.5,1
			c0,0.4,0.1,0.6,0.3,0.8C567.8,166.7,568.2,166.7,568.6,166.7z"/>
		<path class="st2" d="M580.8,167.8h-1.6v-4.7c0-0.6-0.1-1-0.4-1.3c-0.3-0.3-0.6-0.4-1.1-0.4c-0.6,0-1.1,0.3-1.5,0.6s-0.5,1-0.5,2
			v3.8H574v-7.6h1.3l0.3,1h0.1c0.3-0.4,0.5-0.6,1-0.9c0.4-0.3,0.9-0.3,1.4-0.3c1.8,0,2.7,0.9,2.7,2.8v4.8l0,0V167.8z"/>
		<path class="st2" d="M586.1,168c-1.1,0-2-0.4-2.5-1c-0.6-0.6-0.9-1.6-0.9-2.9s0.3-2.3,0.9-2.9c0.6-0.6,1.5-1,2.7-1
			c0.8,0,1.5,0.1,2.1,0.4l-0.5,1.3c-0.6-0.3-1.3-0.4-1.6-0.4c-1.3,0-1.9,0.9-1.9,2.5c0,0.9,0.1,1.5,0.5,1.9s0.8,0.6,1.4,0.6
			c0.8,0,1.4-0.1,2-0.5v1.4c-0.3,0.1-0.6,0.3-0.9,0.4C587.1,167.8,586.6,168,586.1,168z"/>
		<path class="st2" d="M589.9,158.3c0-0.3,0.1-0.5,0.3-0.6c0.1-0.1,0.4-0.3,0.6-0.3c0.3,0,0.5,0.1,0.6,0.3c0.1,0.1,0.3,0.4,0.3,0.6
			s-0.1,0.5-0.3,0.6c-0.1,0.1-0.4,0.3-0.6,0.3c-0.3,0-0.5-0.1-0.6-0.3C589.9,158.8,589.9,158.6,589.9,158.3z M591.6,167.8H590v-7.5
			h1.6V167.8z"/>
		<path class="st2" d="M598.5,167.8l-0.4-1l0,0c-0.4,0.5-0.8,0.8-1.1,0.9c-0.4,0.1-0.9,0.3-1.4,0.3c-0.8,0-1.3-0.3-1.8-0.6
			c-0.4-0.4-0.6-1-0.6-1.6c0-0.8,0.3-1.4,0.9-1.8c0.6-0.4,1.4-0.6,2.7-0.6h1.3V163c0-0.5-0.1-0.9-0.4-1.1c-0.3-0.3-0.6-0.4-1-0.4
			s-0.8,0-1.1,0.1c-0.4,0.1-0.6,0.3-1,0.4l-0.5-1.1c0.4-0.3,0.9-0.4,1.4-0.5s0.9-0.1,1.4-0.1c1,0,1.6,0.3,2.1,0.6
			c0.5,0.4,0.8,1,0.8,2v5.1L598.5,167.8L598.5,167.8z M596.2,166.7c0.6,0,1-0.1,1.4-0.5s0.5-0.8,0.5-1.4v-0.6h-1
			c-0.8,0-1.3,0.1-1.6,0.4s-0.5,0.5-0.5,1c0,0.4,0.1,0.6,0.3,0.8C595.5,166.7,595.7,166.7,596.2,166.7z"/>
		<path class="st2" d="M603.6,167.8H602v-10.6h1.6V167.8z"/>
		<path class="st2" d="M543.3,181.9c0,0.9-0.4,1.5-1,2s-1.5,0.8-2.7,0.8c-1.1,0-2-0.1-2.8-0.5v-1.5c0.5,0.3,0.9,0.4,1.4,0.5
			s1,0.1,1.4,0.1c0.6,0,1.1-0.1,1.4-0.4c0.3-0.3,0.5-0.6,0.5-1s-0.1-0.6-0.4-0.9c-0.3-0.3-0.9-0.5-1.8-0.9s-1.5-0.8-1.9-1.3
			s-0.5-1-0.5-1.6c0-0.9,0.3-1.5,0.9-1.9s1.4-0.8,2.4-0.8s1.9,0.3,2.8,0.6l-0.5,1.3c-0.9-0.4-1.6-0.5-2.4-0.5
			c-0.5,0-0.9,0.1-1.1,0.4s-0.4,0.5-0.4,0.9c0,0.3,0,0.5,0.1,0.6s0.3,0.4,0.5,0.5c0.3,0.1,0.8,0.4,1.4,0.6c0.8,0.3,1.3,0.6,1.6,0.9
			s0.6,0.5,0.8,0.9C543.1,181.1,543.3,181.4,543.3,181.9z"/>
		<path class="st2" d="M547.8,183.4c0.4,0,0.8,0,1.1-0.1v1.3c-0.1,0.1-0.4,0.1-0.6,0.3c-0.3,0-0.5,0.1-0.9,0.1
			c-1.5,0-2.3-0.8-2.3-2.4v-4h-1v-0.8l1.1-0.6l0.5-1.6h1v1.6h2.1v1.3h-2.1v4c0,0.4,0.1,0.6,0.3,0.9
			C547.3,183.3,547.6,183.4,547.8,183.4z"/>
		<path class="st2" d="M555.3,184.5l-0.4-1l0,0c-0.4,0.5-0.8,0.8-1.1,0.9c-0.4,0.1-0.9,0.3-1.4,0.3c-0.8,0-1.3-0.3-1.8-0.6
			c-0.4-0.4-0.6-1-0.6-1.6c0-0.8,0.3-1.4,0.9-1.8c0.6-0.4,1.4-0.6,2.7-0.6h1.3v-0.4c0-0.5-0.1-0.9-0.4-1.1c-0.3-0.3-0.6-0.4-1-0.4
			s-0.8,0-1.1,0.1c-0.4,0.1-0.6,0.3-1,0.4l-0.5-1.1c0.4-0.3,0.9-0.4,1.4-0.5s0.9-0.1,1.4-0.1c1,0,1.6,0.3,2.1,0.6
			c0.5,0.4,0.8,1,0.8,2v5.1L555.3,184.5L555.3,184.5z M552.9,183.4c0.6,0,1-0.1,1.4-0.5s0.5-0.8,0.5-1.4v-0.6h-1
			c-0.8,0-1.3,0.1-1.6,0.4c-0.4,0.3-0.5,0.5-0.5,1c0,0.4,0.1,0.6,0.3,0.8C552.1,183.4,552.5,183.4,552.9,183.4z"/>
		<path class="st2" d="M561.5,183.4c0.4,0,0.8,0,1.1-0.1v1.3c-0.1,0.1-0.4,0.1-0.6,0.3c-0.3,0-0.5,0.1-0.9,0.1
			c-1.5,0-2.3-0.8-2.3-2.4v-4h-1v-0.8l1.1-0.6l0.5-1.6h1v1.6h2v1.3h-2.1v4c0,0.4,0.1,0.6,0.3,0.9
			C560.8,183.3,561.1,183.4,561.5,183.4z"/>
		<path class="st2" d="M567.4,184.6c-1.1,0-2-0.4-2.8-1c-0.6-0.6-1-1.6-1-2.8c0-1.3,0.3-2.1,0.9-2.9s1.4-1,2.5-1
			c1,0,1.8,0.3,2.4,0.9s0.9,1.4,0.9,2.5v0.9h-5.1c0,0.8,0.3,1.3,0.6,1.6s0.9,0.6,1.5,0.6c0.5,0,0.9,0,1.3-0.1s0.8-0.3,1.3-0.4v1.3
			c-0.4,0.1-0.8,0.4-1.1,0.4S567.9,184.6,567.4,184.6z M567,178.1c-0.5,0-0.9,0.1-1.3,0.5c-0.3,0.4-0.5,0.8-0.5,1.4h3.4
			c0-0.6-0.1-1.1-0.5-1.4C567.9,178.2,567.5,178.1,567,178.1z"/>
		<path class="st2" d="M578.4,184.5h-1.6v-4.7c0-0.6-0.1-1-0.4-1.3c-0.3-0.3-0.5-0.4-1-0.4c-0.6,0-1,0.3-1.4,0.6
			c-0.3,0.4-0.4,1-0.4,2v3.8H572V177h1.3l0.3,1h0.1c0.3-0.4,0.5-0.6,0.9-0.9s0.9-0.3,1.3-0.3c1.1,0,1.9,0.4,2.3,1.1h0.1
			c0.3-0.4,0.5-0.6,0.9-0.9s0.9-0.3,1.4-0.3c0.9,0,1.5,0.3,1.9,0.6s0.6,1.1,0.6,2v4.9h-1.6V180c0-0.6-0.1-1-0.4-1.3s-0.5-0.4-1-0.4
			c-0.6,0-1,0.3-1.4,0.6c-0.3,0.4-0.4,1-0.4,1.8v3.8L578.4,184.5L578.4,184.5z"/>
		<path class="st2" d="M588.7,184.6c-1.1,0-2-0.4-2.8-1c-0.6-0.6-1-1.6-1-2.8c0-1.3,0.3-2.1,0.9-2.9s1.4-1,2.5-1
			c1,0,1.8,0.3,2.4,0.9s0.9,1.4,0.9,2.5v0.9h-5.1c0,0.8,0.3,1.3,0.6,1.6s0.9,0.6,1.5,0.6c0.5,0,0.9,0,1.3-0.1
			c0.4-0.1,0.8-0.3,1.3-0.4v1.3c-0.4,0.1-0.8,0.4-1.1,0.4S589.2,184.6,588.7,184.6z M588.4,178.1c-0.5,0-0.9,0.1-1.3,0.5
			c-0.3,0.4-0.5,0.8-0.5,1.4h3.4c0-0.6-0.1-1.1-0.5-1.4C589.3,178.2,588.9,178.1,588.4,178.1z"/>
		<path class="st2" d="M600,184.5h-1.6v-4.7c0-0.6-0.1-1-0.4-1.3c-0.3-0.3-0.6-0.4-1.1-0.4c-0.6,0-1.1,0.3-1.5,0.6
			c-0.4,0.4-0.5,1-0.5,2v3.8h-1.6V177h1.3l0.3,1h0.1c0.3-0.4,0.5-0.6,1-0.9c0.4-0.3,0.9-0.3,1.4-0.3c1.8,0,2.7,0.9,2.7,2.8v4.7H600
			V184.5z"/>
		<path class="st2" d="M605.1,183.4c0.4,0,0.8,0,1.1-0.1v1.3c-0.1,0.1-0.4,0.1-0.6,0.3c-0.3,0-0.5,0.1-0.9,0.1
			c-1.5,0-2.3-0.8-2.3-2.4v-4h-1v-0.8l1.1-0.6l0.5-1.6h1v1.6h2.1v1.3H604v4c0,0.4,0.1,0.6,0.3,0.9
			C604.5,183.3,604.7,183.4,605.1,183.4z"/>
		<path class="st2" d="M612.8,182.4c0,0.8-0.3,1.3-0.8,1.6c-0.5,0.4-1.3,0.6-2.3,0.6s-1.8-0.1-2.4-0.5v-1.4c0.9,0.4,1.6,0.6,2.4,0.6
			c1,0,1.5-0.3,1.5-0.9c0-0.3,0-0.4-0.1-0.5s-0.3-0.3-0.5-0.4c-0.3-0.1-0.6-0.3-1-0.5c-0.9-0.4-1.4-0.6-1.8-1
			c-0.3-0.4-0.5-0.8-0.5-1.3c0-0.6,0.3-1.1,0.8-1.5s1.3-0.5,2.1-0.5c0.9,0,1.8,0.1,2.5,0.5l-0.5,1.3c-0.8-0.4-1.5-0.5-2-0.5
			c-0.9,0-1.3,0.3-1.3,0.8c0,0.3,0.1,0.4,0.4,0.6c0.3,0.3,0.8,0.4,1.4,0.6s1,0.5,1.4,0.6c0.3,0.3,0.5,0.4,0.6,0.6
			C612.7,181.7,612.8,182,612.8,182.4z"/>
	</g>
</g>
<g>
	<g>
		<path class="st2" d="M622.2,60.1c0,1-0.4,1.8-1,2.4s-1.6,0.9-2.9,0.9h-1v3.7h-1.6v-10h2.9c1.3,0,2.1,0.3,2.8,0.8
			C621.9,58.5,622.2,59.2,622.2,60.1z M617.2,62h0.9c0.9,0,1.4-0.1,1.9-0.4c0.5-0.3,0.6-0.8,0.6-1.4c0-0.6-0.1-1-0.5-1.3
			s-0.9-0.4-1.6-0.4h-1.1V62H617.2z"/>
		<path class="st2" d="M630.6,63.3c0,1.3-0.3,2.1-0.9,2.9c-0.6,0.8-1.5,1-2.7,1c-0.8,0-1.3-0.1-1.9-0.5c-0.5-0.4-1-0.8-1.3-1.4
			s-0.4-1.3-0.4-2c0-1.3,0.3-2.1,0.9-2.9s1.5-1,2.7-1c1.1,0,1.9,0.4,2.5,1C630.4,61.2,630.6,62.1,630.6,63.3z M625.2,63.3
			c0,1.8,0.6,2.7,1.9,2.7s1.9-0.9,1.9-2.7s-0.6-2.5-1.9-2.5c-0.6,0-1.1,0.3-1.5,0.6S625.2,62.5,625.2,63.3z"/>
		<path class="st2" d="M637.6,64.9c0,0.8-0.3,1.3-0.8,1.6c-0.5,0.4-1.3,0.6-2.3,0.6s-1.8-0.1-2.4-0.5v-1.4c0.9,0.4,1.6,0.6,2.4,0.6
			c1,0,1.5-0.3,1.5-0.9c0-0.3,0-0.4-0.1-0.5s-0.3-0.3-0.5-0.4c-0.3-0.1-0.6-0.3-1-0.5c-0.9-0.4-1.4-0.6-1.8-1
			c-0.3-0.4-0.5-0.8-0.5-1.3c0-0.6,0.3-1.1,0.8-1.5s1.3-0.5,2.1-0.5s1.8,0.1,2.5,0.5L637,61c-0.8-0.4-1.5-0.5-2-0.5
			c-0.9,0-1.3,0.3-1.3,0.8c0,0.3,0.1,0.4,0.4,0.6s0.8,0.4,1.4,0.6s1,0.5,1.4,0.6c0.3,0.3,0.5,0.4,0.6,0.6
			C637.5,64.3,637.6,64.5,637.6,64.9z"/>
		<path class="st2" d="M642,65.9c0.4,0,0.8,0,1.1-0.1v1.3c-0.1,0.1-0.4,0.1-0.6,0.3c-0.3,0-0.5,0.1-0.9,0.1c-1.5,0-2.3-0.8-2.3-2.4
			v-4h-1v-0.8l1.1-0.6L640,58h1v1.6h2.1v1.3H641v4c0,0.4,0.1,0.6,0.3,0.9C641.5,65.8,641.8,65.9,642,65.9z"/>
		<path class="st2" d="M647.7,64v-1.4h3.5V64H647.7z"/>
		<path class="st2" d="M660.8,58.5c-0.9,0-1.6,0.4-2.1,1s-0.8,1.5-0.8,2.8s0.3,2.1,0.8,2.8c0.5,0.6,1.3,0.9,2.3,0.9
			c0.4,0,0.9,0,1.3-0.1c0.4-0.1,0.8-0.3,1.3-0.4v1.4c-0.8,0.3-1.6,0.4-2.7,0.4c-1.4,0-2.5-0.4-3.3-1.3s-1.1-2.1-1.1-3.8
			c0-1,0.1-1.9,0.5-2.7s0.9-1.4,1.6-1.8c0.8-0.4,1.5-0.6,2.5-0.6s1.9,0.3,2.8,0.6l-0.6,1.4c-0.4-0.1-0.6-0.3-1-0.4
			C661.6,58.5,661.2,58.5,660.8,58.5z"/>
		<path class="st2" d="M666.8,67.1h-1.6V56.4h1.6V67.1z"/>
		<path class="st2" d="M675.8,63.3c0,1.3-0.3,2.1-0.9,2.9c-0.6,0.8-1.5,1-2.7,1c-0.8,0-1.3-0.1-1.9-0.5c-0.5-0.4-1-0.8-1.3-1.4
			s-0.4-1.3-0.4-2c0-1.3,0.3-2.1,0.9-2.9s1.5-1,2.7-1c1.1,0,1.9,0.4,2.5,1C675.5,61.2,675.8,62.1,675.8,63.3z M670.3,63.3
			c0,1.8,0.6,2.7,1.9,2.7c1.3,0,1.9-0.9,1.9-2.7s-0.6-2.5-1.9-2.5c-0.6,0-1.1,0.3-1.5,0.6S670.3,62.5,670.3,63.3z"/>
		<path class="st2" d="M682.7,64.9c0,0.8-0.3,1.3-0.8,1.6c-0.5,0.4-1.3,0.6-2.3,0.6s-1.8-0.1-2.4-0.5v-1.4c0.9,0.4,1.6,0.6,2.4,0.6
			c1,0,1.5-0.3,1.5-0.9c0-0.3,0-0.4-0.1-0.5s-0.3-0.3-0.5-0.4s-0.6-0.3-1-0.5c-0.9-0.4-1.4-0.6-1.8-1c-0.3-0.4-0.5-0.8-0.5-1.3
			c0-0.6,0.3-1.1,0.8-1.5s1.3-0.5,2.1-0.5c0.9,0,1.8,0.1,2.5,0.5l-0.5,1.3c-0.8-0.4-1.5-0.5-2-0.5c-0.9,0-1.3,0.3-1.3,0.8
			c0,0.3,0.1,0.4,0.4,0.6s0.8,0.4,1.4,0.6s1,0.5,1.4,0.6c0.3,0.3,0.5,0.4,0.6,0.6C682.6,64.3,682.7,64.5,682.7,64.9z"/>
		<path class="st2" d="M684.2,57.6c0-0.3,0.1-0.5,0.3-0.6c0.1-0.1,0.4-0.3,0.6-0.3c0.3,0,0.5,0.1,0.6,0.3c0.1,0.1,0.3,0.4,0.3,0.6
			s-0.1,0.5-0.3,0.6c-0.1,0.1-0.4,0.3-0.6,0.3c-0.3,0-0.5-0.1-0.6-0.3C684.4,58.1,684.2,57.8,684.2,57.6z M686,67.1h-1.6v-7.5h1.6
			V67.1z"/>
		<path class="st2" d="M694.9,67.1h-1.6v-4.7c0-0.6-0.1-1-0.4-1.3s-0.6-0.4-1.1-0.4c-0.6,0-1.1,0.3-1.5,0.6s-0.5,1-0.5,2v3.8H688
			v-7.5h1.3l0.3,1h0.1c0.3-0.4,0.5-0.6,1-0.9c0.4-0.3,0.9-0.3,1.4-0.3c1.8,0,2.7,0.9,2.7,2.8v4.7h0.1V67.1z"/>
		<path class="st2" d="M703.5,59.6v0.9l-1.3,0.3c0.1,0.1,0.3,0.4,0.3,0.6s0.1,0.5,0.1,0.8c0,0.8-0.3,1.4-0.8,1.8
			c-0.5,0.5-1.3,0.6-2.1,0.6c-0.3,0-0.5,0-0.6,0c-0.4,0.3-0.5,0.5-0.5,0.8c0,0.1,0.1,0.3,0.3,0.4c0.1,0.1,0.5,0.1,0.9,0.1h1.3
			c0.9,0,1.5,0.1,1.9,0.5s0.6,0.9,0.6,1.5c0,0.9-0.4,1.5-1,2c-0.8,0.5-1.8,0.6-3,0.6c-1,0-1.8-0.1-2.4-0.5s-0.8-0.9-0.8-1.5
			c0-0.5,0.1-0.9,0.4-1.1c0.3-0.3,0.8-0.5,1.3-0.6c-0.3-0.1-0.4-0.3-0.5-0.4c-0.1-0.3-0.3-0.4-0.3-0.6s0.1-0.5,0.3-0.8
			c0.1-0.3,0.4-0.4,0.8-0.6c-0.4-0.1-0.8-0.4-0.9-0.8c-0.3-0.4-0.4-0.8-0.4-1.3c0-0.8,0.3-1.4,0.8-1.9s1.3-0.6,2.1-0.6
			c0.3,0,0.4,0,0.6,0s0.4,0,0.5,0.1h2.5L703.5,59.6L703.5,59.6z M697.5,68.2c0,0.4,0.1,0.6,0.5,0.8s0.8,0.3,1.3,0.3
			c0.9,0,1.5-0.1,1.9-0.4s0.6-0.6,0.6-1s-0.1-0.5-0.4-0.8c-0.3-0.1-0.6-0.3-1.3-0.3h-1.3c-0.5,0-0.8,0.1-1.1,0.4
			C697.6,67.6,697.5,67.9,697.5,68.2z M698.3,62c0,0.5,0.1,0.9,0.4,1.1s0.6,0.4,1,0.4c0.9,0,1.4-0.5,1.4-1.5c0-0.5-0.1-0.9-0.4-1.1
			c-0.3-0.3-0.6-0.4-1-0.4c-0.5,0-0.8,0.1-1,0.4C698.4,61.1,698.3,61.5,698.3,62z"/>
		<path class="st2" d="M620.6,83.8H619v-8.6h-2.9v-1.4h7.5v1.4h-2.9L620.6,83.8L620.6,83.8z"/>
		<path class="st2" d="M628.7,76.2c0.4,0,0.6,0,0.8,0.1l-0.1,1.5c-0.3,0-0.5-0.1-0.8-0.1c-0.6,0-1.1,0.3-1.5,0.6s-0.6,1-0.6,1.6v3.9
			h-1.6v-7.5h1.3l0.3,1.3h0.1c0.3-0.5,0.6-0.8,1-1C627.9,76.3,628.2,76.2,628.7,76.2z"/>
		<path class="st2" d="M630.8,74.3c0-0.3,0.1-0.5,0.3-0.6c0.1-0.1,0.4-0.3,0.6-0.3c0.3,0,0.5,0.1,0.6,0.3c0.1,0.1,0.3,0.4,0.3,0.6
			c0,0.3-0.1,0.5-0.3,0.6c-0.1,0.1-0.4,0.3-0.6,0.3c-0.3,0-0.5-0.1-0.6-0.3C630.9,74.8,630.8,74.5,630.8,74.3z M632.5,83.8h-1.6
			v-7.5h1.6V83.8z"/>
		<path class="st2" d="M639.5,83.8l-0.4-1l0,0c-0.4,0.5-0.8,0.8-1.1,0.9s-0.9,0.3-1.4,0.3c-0.8,0-1.3-0.3-1.8-0.6
			c-0.4-0.4-0.6-1-0.6-1.6c0-0.8,0.3-1.4,0.9-1.8s1.4-0.6,2.7-0.6h1.3V79c0-0.5-0.1-0.9-0.4-1.1c-0.3-0.3-0.6-0.4-1-0.4
			s-0.8,0-1.1,0.1c-0.4,0.1-0.6,0.3-1,0.4l-0.5-1.1c0.4-0.3,0.9-0.4,1.4-0.5s0.9-0.1,1.4-0.1c1,0,1.6,0.3,2.1,0.6
			c0.5,0.4,0.8,1,0.8,2V84L639.5,83.8L639.5,83.8z M637.1,82.7c0.6,0,1-0.1,1.4-0.5s0.5-0.8,0.5-1.4v-0.6h-1c-0.8,0-1.3,0.1-1.6,0.4
			c-0.4,0.3-0.5,0.5-0.5,1c0,0.4,0.1,0.6,0.3,0.8C636.4,82.6,636.7,82.7,637.1,82.7z"/>
		<path class="st2" d="M644.4,83.8h-1.6V73.1h1.6V83.8z"/>
		<path class="st2" d="M650.5,73.9h2.9c1.4,0,2.4,0.3,2.9,0.6c0.5,0.4,0.9,1,0.9,1.9c0,0.6-0.1,1-0.5,1.4s-0.8,0.6-1.3,0.8v0.1
			c0.8,0.1,1.3,0.4,1.5,0.8c0.4,0.4,0.5,0.9,0.5,1.5c0,0.9-0.3,1.6-0.9,2.1c-0.6,0.5-1.5,0.8-2.7,0.8h-3.5v-10
			C650.3,73.9,650.5,73.9,650.5,73.9z M652.1,77.9h1.5c0.6,0,1.1-0.1,1.5-0.4c0.3-0.3,0.5-0.6,0.5-1.1s-0.1-0.8-0.5-1
			c-0.4-0.3-0.9-0.3-1.6-0.3h-1.4C652.1,75.2,652.1,77.9,652.1,77.9z M652.1,79.3v3.2h1.8c0.6,0,1.1-0.1,1.5-0.4s0.5-0.6,0.5-1.3
			c0-0.5-0.1-0.9-0.5-1.1c-0.4-0.3-0.9-0.4-1.6-0.4C653.8,79.3,652.1,79.3,652.1,79.3z"/>
		<path class="st2" d="M664.3,83.8l-0.4-1l0,0c-0.4,0.5-0.8,0.8-1.1,0.9s-0.9,0.3-1.4,0.3c-0.8,0-1.3-0.3-1.8-0.6
			c-0.4-0.4-0.6-1-0.6-1.6c0-0.8,0.3-1.4,0.9-1.8s1.4-0.6,2.7-0.6h1.3V79c0-0.5-0.1-0.9-0.4-1.1c-0.3-0.3-0.6-0.4-1-0.4
			s-0.8,0-1.1,0.1c-0.4,0.1-0.6,0.3-1,0.4l-0.5-1.1c0.4-0.3,0.9-0.4,1.4-0.5s0.9-0.1,1.4-0.1c1,0,1.6,0.3,2.1,0.6
			c0.5,0.4,0.8,1,0.8,2V84L664.3,83.8L664.3,83.8z M661.9,82.7c0.6,0,1-0.1,1.4-0.5s0.5-0.8,0.5-1.4v-0.6h-1c-0.8,0-1.3,0.1-1.6,0.4
			c-0.4,0.3-0.5,0.5-0.5,1c0,0.4,0.1,0.6,0.3,0.8C661.1,82.6,661.5,82.7,661.9,82.7z"/>
		<path class="st2" d="M669.2,83.8h-1.6V73.1h1.6V83.8z"/>
		<path class="st2" d="M676.1,83.8l-0.4-1l0,0c-0.4,0.5-0.8,0.8-1.1,0.9s-0.9,0.3-1.4,0.3c-0.8,0-1.3-0.3-1.8-0.6
			c-0.4-0.4-0.6-1-0.6-1.6c0-0.8,0.3-1.4,0.9-1.8s1.4-0.6,2.7-0.6h1.3V79c0-0.5-0.1-0.9-0.4-1.1c-0.3-0.3-0.6-0.4-1-0.4
			s-0.8,0-1.1,0.1c-0.4,0.1-0.6,0.3-1,0.4l-0.5-1.1c0.4-0.3,0.9-0.4,1.4-0.5s0.9-0.1,1.4-0.1c1,0,1.6,0.3,2.1,0.6
			c0.5,0.4,0.8,1,0.8,2V84L676.1,83.8L676.1,83.8z M673.7,82.7c0.6,0,1-0.1,1.4-0.5s0.5-0.8,0.5-1.4v-0.6h-1c-0.8,0-1.3,0.1-1.6,0.4
			c-0.4,0.3-0.5,0.5-0.5,1c0,0.4,0.1,0.6,0.3,0.8C673.1,82.6,673.4,82.7,673.7,82.7z"/>
		<path class="st2" d="M686.1,83.8h-1.6v-4.7c0-0.6-0.1-1-0.4-1.3c-0.3-0.3-0.6-0.4-1.1-0.4c-0.6,0-1.1,0.3-1.5,0.6s-0.5,1-0.5,2
			v3.8h-1.6v-7.5h1.3l0.3,1h0.1c0.3-0.4,0.5-0.6,1-0.9c0.4-0.3,0.9-0.3,1.4-0.3c1.8,0,2.7,0.9,2.7,2.8v4.7h-0.1V83.8z"/>
		<path class="st2" d="M691.3,83.9c-1.1,0-2-0.4-2.5-1c-0.6-0.6-0.9-1.6-0.9-2.9s0.3-2.3,0.9-2.9c0.6-0.6,1.5-1,2.7-1
			c0.8,0,1.5,0.1,2.1,0.4l-0.5,1.3c-0.6-0.3-1.3-0.4-1.6-0.4c-1.3,0-1.9,0.9-1.9,2.5c0,0.9,0.1,1.5,0.5,1.9s0.8,0.6,1.4,0.6
			c0.8,0,1.4-0.1,2-0.5v1.4c-0.3,0.1-0.6,0.3-0.9,0.4C692.3,83.8,691.8,83.9,691.3,83.9z"/>
		<path class="st2" d="M698.5,83.9c-1.1,0-2-0.4-2.8-1c-0.6-0.6-1-1.6-1-2.8c0-1.3,0.3-2.1,0.9-2.9c0.6-0.8,1.4-1,2.5-1
			c1,0,1.8,0.3,2.4,0.9c0.6,0.6,0.9,1.4,0.9,2.5v0.9h-5.1c0,0.8,0.3,1.3,0.6,1.6s0.9,0.6,1.5,0.6c0.5,0,0.9,0,1.3-0.1
			c0.4-0.1,0.8-0.3,1.3-0.4v1.3c-0.4,0.1-0.8,0.4-1.1,0.4S699,83.9,698.5,83.9z M698.3,77.3c-0.5,0-0.9,0.1-1.3,0.5
			c-0.3,0.4-0.5,0.8-0.5,1.4h3.4c0-0.6-0.1-1.1-0.5-1.4C699.2,77.6,698.8,77.3,698.3,77.3z"/>
	</g>
</g>
<g>
	<circle class="st2" cx="778.7" cy="53.3" r="11.4"/>
	<g>
		<path class="st3" d="M780.4,58.2h-2v-5.7v-0.9v-1c-0.4,0.4-0.6,0.5-0.8,0.6l-1.1,0.9l-1-1.3l3.2-2.5h1.6L780.4,58.2
			C780.3,58.2,780.4,58.2,780.4,58.2z"/>
	</g>
</g>
<g>
	<circle class="st2" cx="822.5" cy="178.4" r="11.4"/>
	<g>
		<g>
			<path class="st1" d="M826,183.1h-6.8v-1.4l2.4-2.5c0.8-0.8,1.1-1.3,1.4-1.5c0.3-0.3,0.4-0.5,0.5-0.8s0.1-0.5,0.1-0.8
				c0-0.4-0.1-0.6-0.4-0.9c-0.3-0.3-0.5-0.3-0.9-0.3s-0.8,0.1-1.1,0.3s-0.8,0.4-1.1,0.8l-1.1-1.3c0.5-0.4,0.9-0.8,1.1-0.9
				c0.3-0.1,0.6-0.3,1-0.4c0.4-0.1,0.8-0.1,1.3-0.1c0.6,0,1.1,0.1,1.6,0.4c0.5,0.3,0.9,0.5,1.1,0.9s0.4,0.9,0.4,1.4
				s-0.1,0.9-0.3,1.3c-0.1,0.4-0.4,0.8-0.8,1.3c-0.4,0.4-0.9,1-1.8,1.8l-1.3,1.1v0.1h4.3v1.5L826,183.1L826,183.1z"/>
		</g>
	</g>
</g>
<g>
	<circle class="st2" cx="745" cy="280.9" r="11.4"/>
	<g>
		<path class="st3" d="M748.1,277.9c0,0.6-0.1,1.1-0.5,1.5s-0.9,0.8-1.5,0.9l0,0c0.8,0.1,1.4,0.4,1.8,0.8c0.4,0.4,0.6,0.9,0.6,1.5
			c0,0.9-0.4,1.6-1,2.1s-1.6,0.8-2.9,0.8c-1,0-2-0.1-2.8-0.5v-1.8c0.4,0.3,0.8,0.4,1.3,0.5s0.9,0.1,1.4,0.1c0.6,0,1.1-0.1,1.5-0.4
			s0.5-0.6,0.5-1.1s-0.1-0.8-0.5-1c-0.4-0.3-1-0.3-1.8-0.3h-0.8v-1.6h0.8c0.8,0,1.3-0.1,1.6-0.3c0.4-0.3,0.5-0.5,0.5-1
			c0-0.8-0.5-1.1-1.4-1.1c-0.4,0-0.6,0-1,0.1s-0.8,0.3-1.1,0.5l-1-1.4c0.9-0.6,1.9-1,3.2-1c1,0,1.8,0.3,2.4,0.6
			C747.8,276.6,748.1,277.2,748.1,277.9z"/>
	</g>
</g>
<g>
	<circle class="st2" cx="615" cy="250.5" r="11.4"/>
	<g>
		<g>
			<path class="st1" d="M618.6,253.2h-1.1v2h-2v-2h-4.2v-1.4l4.3-6.3h1.9v6.1h1.1V253.2z M615.3,251.5v-1.6c0-0.3,0-0.6,0-1.1
				s0-0.9,0-0.9l0,0c-0.1,0.4-0.4,0.8-0.6,1l-1.8,2.7L615.3,251.5L615.3,251.5z"/>
		</g>
	</g>
</g>
<g>
	<circle class="st2" cx="574.5" cy="136.7" r="11.4"/>
	<g>
		<path class="st3" d="M574.6,135.1c0.9,0,1.6,0.3,2.3,0.8s0.9,1.3,0.9,2.1c0,1.1-0.4,1.9-1,2.5s-1.6,0.9-2.9,0.9
			c-1.1,0-2-0.1-2.7-0.5v-1.8c0.4,0.1,0.8,0.4,1.3,0.5s0.9,0.1,1.3,0.1c1.3,0,1.9-0.5,1.9-1.5s-0.6-1.5-1.9-1.5
			c-0.3,0-0.5,0-0.8,0.1c-0.3,0-0.5,0.1-0.6,0.1l-0.8-0.4l0.4-4.9h5.3v1.8h-3.5l-0.1,1.9h0.3C573.9,135.2,574.2,135.1,574.6,135.1z"
			/>
	</g>
</g>
<g>
	<circle class="st2" cx="659" cy="35.6" r="11.4"/>
	<g>
		<g>
			<path class="st1" d="M655,36.2c0-1.9,0.4-3.4,1.3-4.3c0.8-0.9,2-1.4,3.7-1.4c0.5,0,1,0,1.3,0.1v1.6c-0.4-0.1-0.8-0.1-1.1-0.1
				c-0.8,0-1.3,0.1-1.8,0.4c-0.5,0.3-0.8,0.5-1,0.9s-0.4,1-0.4,1.8h0.1c0.4-0.8,1.1-1.1,2.1-1.1c0.9,0,1.5,0.3,2,0.8
				s0.8,1.3,0.8,2.3s-0.3,1.9-0.9,2.5c-0.6,0.6-1.4,0.9-2.4,0.9c-0.8,0-1.4-0.1-1.9-0.5s-1-0.8-1.3-1.5
				C655.2,37.9,655,37.1,655,36.2z M658.6,38.7c0.4,0,0.8-0.1,1-0.5s0.4-0.8,0.4-1.3s-0.1-0.9-0.4-1.1s-0.5-0.4-1-0.4
				c-0.4,0-0.8,0.1-1,0.4c-0.3,0.3-0.5,0.6-0.5,0.9c0,0.5,0.1,1,0.4,1.4C657.7,38.5,658.1,38.7,658.6,38.7z"/>
		</g>
	</g>
</g>
</svg>
