<?xml version="1.0" encoding="utf-8"?>
<!-- Generator: Adobe Illustrator 24.0.1, SVG Export Plug-In . SVG Version: 6.00 Build 0)  -->
<svg version="1.1" id="Layer_2" xmlns="http://www.w3.org/2000/svg" xmlns:xlink="http://www.w3.org/1999/xlink" x="0px" y="0px"
	 width="1400px" height="360.1px" viewBox="0 0 1400 360.1" style="enable-background:new 0 0 1400 360.1;" xml:space="preserve">
<style type="text/css">
	.st0{fill:#5B9BD4;}
	.st1{fill:#7E7E7E;}
	.st2{fill:#FFFFFF;}
	.st3{fill:#4482C9;}
</style>
<g>
	<g>
		<path class="st0" d="M717.6,102.2c24.4,3,45.3,17.3,57.1,37.5l56.3-1.5l29.7-48.9C831.6,39.8,779,5.6,718.2,2.2l26.9,49.2
			L717.6,102.2z"/>
		<path class="st1" d="M779.6,149.5c3.8,9.1,5.8,19,5.8,29.5c0,14.2-3.8,27.4-10.5,38.8l29.5,47.9l57.3,1.3
			c14.9-25.9,23.4-56,23.4-88.1c0-28.7-6.8-55.8-18.8-79.6l-29.6,48.7L779.6,149.5z"/>
		<path class="st1" d="M646.5,132.3c13.9-18.3,35.7-30.2,60.3-30.7L734,51.4L706.9,2C645.7,2.3,592,33.8,560.5,81.2l55.2,1.3
			L646.5,132.3z"/>
		<path class="st0" d="M636.6,208.4c-3.8-9.1-5.8-19-5.8-29.5c0-13.7,3.5-26.4,9.7-37.5l-30.2-49.3l-55.8-1.3
			c-14.9,26-23.4,56-23.4,88.1c0,28.1,6.6,54.6,18.2,78.3l28.7-47.3L636.6,208.4z"/>
		<path class="st1" d="M697.2,255.4c-23.8-3.4-44-17.6-55.8-37.4l-57.8,1.5l-29,47.7c28.7,49.8,81,84.3,141.7,88.2l-26.9-49.1
			L697.2,255.4z"/>
		<path class="st0" d="M769,226.7c-14.2,18-36.2,29.6-60.8,29.6c-0.1,0-0.1,0-0.3,0l-27.2,50.2l27.2,49.6c0.1,0,0.3,0,0.3,0
			c61.6,0,115.8-31.5,147.5-79.3l-56.9-1.3L769,226.7z"/>
	</g>
</g>
<g>
	<g>
		<path class="st0" d="M654.7,177.1l-0.9,4.3h-3.5l4-18.7h4.4l3.7,18.7h-3.5l-0.8-4.3H654.7z M657.7,174.3l-0.6-3.9
			c-0.3-1.1-0.5-3-0.6-4.3l0,0c-0.3,1.3-0.5,3.2-0.6,4.3l-0.6,3.9H657.7z"/>
		<path class="st0" d="M673,181.1c-0.5,0.3-1.5,0.5-2.8,0.5c-4.8,0-7.1-3.9-7.1-9.2c0-7.1,3.9-9.9,7.6-9.9c1.3,0,2.1,0.3,2.5,0.5
			l-0.6,3c-0.4-0.3-0.9-0.4-1.6-0.4c-2,0-3.9,1.8-3.9,6.4c0,4.4,1.6,6.2,3.9,6.2c0.6,0,1.3-0.1,1.8-0.3L673,181.1z"/>
		<path class="st0" d="M683.6,181.1c-0.5,0.3-1.5,0.5-2.8,0.5c-4.8,0-7.1-3.9-7.1-9.2c0-7.1,3.9-9.9,7.6-9.9c1.3,0,2.1,0.3,2.5,0.5
			l-0.6,3c-0.4-0.3-0.9-0.4-1.6-0.4c-2,0-3.9,1.8-3.9,6.4c0,4.4,1.6,6.2,3.9,6.2c0.6,0,1.3-0.1,1.8-0.3L683.6,181.1z"/>
		<path class="st0" d="M696.4,171.6c0,7.1-2.5,10-6.1,10c-4.3,0-5.9-4.6-5.9-9.6c0-5.1,2-9.5,6.2-9.5
			C695.1,162.4,696.4,167.4,696.4,171.6z M688.2,172c0,4.3,0.8,6.4,2.3,6.4s2.1-2.8,2.1-6.6c0-3.3-0.5-6.3-2.1-6.3
			C688.9,165.6,688.2,168,688.2,172z"/>
		<path class="st0" d="M702.2,162.6v12.1c0,2.8,0.9,3.5,1.8,3.5c1,0,1.8-0.8,1.8-3.5v-12.1h3.7v11.5c0,4.8-1.8,7.5-5.4,7.5
			c-3.9,0-5.4-2.7-5.4-7.5v-11.6h3.7V162.6z"/>
		<path class="st0" d="M712.6,181.4v-18.7h3.3l2.9,7.3c0.5,1.4,1.5,3.9,2,5.4l0,0c-0.1-2-0.4-5.2-0.4-8.7v-4.2h3.2v18.7h-3.3
			l-2.9-7.1c-0.6-1.6-1.5-3.9-1.9-5.7l0,0c0.1,1.9,0.3,4.8,0.3,8.6v4.2h-3.2V181.4z"/>
		<path class="st0" d="M729,166.1h-3.3v-3.4H736v3.4h-3.3v15.4H729V166.1z"/>
		<path class="st0" d="M741.5,162.6v18.7h-3.7v-18.7H741.5z"/>
		<path class="st0" d="M744.7,181.4v-18.7h3.3l2.9,7.3c0.5,1.4,1.5,3.9,2,5.4l0,0c-0.1-2-0.4-5.2-0.4-8.7v-4.2h3.2v18.7h-3.2
			l-2.9-7.1c-0.6-1.6-1.5-3.9-1.9-5.7l0,0c0.1,1.9,0.3,4.8,0.3,8.6v4.2h-3.3V181.4z"/>
		<path class="st0" d="M769.5,180.8c-0.8,0.4-2.5,0.6-3.9,0.6c-2.1,0-3.8-0.6-5.1-1.9c-1.6-1.5-2.5-4.3-2.4-7.6
			c0.1-6.8,3.9-9.6,8-9.6c1.4,0,2.5,0.3,3,0.5l-0.6,3.2c-0.5-0.3-1.3-0.4-2.1-0.4c-2.5,0-4.4,1.6-4.4,6.6c0,4.6,1.8,6.1,3.4,6.1
			c0.4,0,0.6,0,0.8-0.1v-4.6h-1.6v-3h5.1V180.8z"/>
		<path class="st0" d="M693.1,214.5c-0.5,0.3-1.5,0.5-2.8,0.5c-4.8,0-7.1-3.9-7.1-9.2c0-7.1,3.9-9.9,7.6-9.9c1.3,0,2.1,0.3,2.5,0.5
			l-0.6,3c-0.4-0.3-0.9-0.4-1.6-0.4c-2,0-3.9,1.8-3.9,6.4c0,4.4,1.6,6.2,3.9,6.2c0.6,0,1.3-0.1,1.8-0.3L693.1,214.5z"/>
		<path class="st0" d="M698.4,214.7v-7.2l-4.2-11.6h3.9l1.3,4.4c0.4,1.1,0.6,2.5,1,3.9l0,0c0.3-1.4,0.5-2.8,0.9-4l1.1-4.4h3.8
			l-4.2,11.4v7.3h-3.7V214.7z"/>
		<path class="st0" d="M716.4,214.5c-0.5,0.3-1.5,0.5-2.8,0.5c-4.8,0-7.1-3.9-7.1-9.2c0-7.1,3.9-9.9,7.6-9.9c1.3,0,2.1,0.3,2.5,0.5
			l-0.6,3c-0.4-0.3-0.9-0.4-1.6-0.4c-2,0-3.9,1.8-3.9,6.4c0,4.4,1.6,6.2,3.9,6.2c0.6,0,1.3-0.1,1.8-0.3L716.4,214.5z"/>
		<path class="st0" d="M718.3,196h3.7v15.7h4.8v3h-8.5V196z"/>
		<path class="st0" d="M736.9,206.5h-4.3v5.1h4.8v3.2h-8.5V196h8.1v3.2h-4.6v4.3h4.3v3H736.9z"/>
	</g>
</g>
<g>
	<g>
		<path class="st2" d="M762.2,85.8v-10h1.6v10H762.2z"/>
		<path class="st2" d="M768.9,85.9c-0.9,0-1.6-0.4-2.1-1c-0.5-0.6-0.8-1.6-0.8-2.9s0.3-2.1,0.8-2.9c0.5-0.6,1.3-1,2.1-1
			c1,0,1.8,0.4,2.3,1.1h0.1c-0.1-0.5-0.1-1-0.1-1.3v-2.8h1.6v10.6h-1.3l-0.3-1h-0.1C770.5,85.5,769.7,85.9,768.9,85.9z M769.2,84.6
			c0.6,0,1.1-0.1,1.4-0.5s0.5-1,0.5-1.8V82c0-0.9-0.1-1.6-0.5-2c-0.3-0.4-0.8-0.6-1.4-0.6c-0.5,0-1,0.3-1.3,0.6
			c-0.3,0.5-0.5,1.1-0.5,1.9c0,0.9,0.1,1.5,0.4,1.9C768.2,84.4,768.6,84.6,769.2,84.6z"/>
		<path class="st2" d="M778.2,85.9c-1.1,0-2-0.4-2.8-1c-0.6-0.6-1-1.6-1-2.8c0-1.3,0.3-2.1,0.9-2.9c0.6-0.8,1.4-1,2.5-1
			c1,0,1.8,0.3,2.4,0.9c0.6,0.6,0.9,1.4,0.9,2.5v0.9h-5.1c0,0.8,0.3,1.3,0.6,1.6s0.9,0.6,1.5,0.6c0.5,0,0.9,0,1.3-0.1
			c0.4-0.1,0.8-0.3,1.3-0.4v1.3c-0.4,0.1-0.8,0.4-1.1,0.4S778.7,85.9,778.2,85.9z M778,79.3c-0.5,0-0.9,0.1-1.3,0.5
			c-0.3,0.4-0.5,0.8-0.5,1.4h3.4c0-0.6-0.1-1.1-0.5-1.4C778.8,79.5,778.5,79.3,778,79.3z"/>
		<path class="st2" d="M789.6,85.8h-1.6v-4.7c0-0.6-0.1-1-0.4-1.3c-0.3-0.3-0.6-0.4-1.1-0.4c-0.6,0-1.1,0.3-1.5,0.6
			c-0.4,0.4-0.5,1-0.5,2v3.8h-1.5v-7.7h1.3l0.3,1h0.1c0.3-0.4,0.5-0.6,1-0.9c0.4-0.3,0.9-0.3,1.4-0.3c1.8,0,2.7,0.9,2.7,2.8V85.8
			L789.6,85.8z"/>
		<path class="st2" d="M794.5,84.6c0.4,0,0.8,0,1.1-0.1v1.3c-0.1,0.1-0.4,0.1-0.6,0.3c-0.3,0-0.5,0.1-0.9,0.1
			c-1.5,0-2.3-0.8-2.3-2.4v-4.3h-1v-0.8l1.1-0.6l0.5-1.6h1v1.8h2.1v1.3h-2.1v4c0,0.4,0.1,0.6,0.3,0.9
			C794,84.5,794.3,84.6,794.5,84.6z"/>
		<path class="st2" d="M797.2,76.3c0-0.3,0.1-0.5,0.3-0.6c0.1-0.1,0.4-0.3,0.6-0.3s0.5,0.1,0.6,0.3c0.1,0.1,0.3,0.4,0.3,0.6
			c0,0.3-0.1,0.5-0.3,0.6s-0.4,0.3-0.6,0.3s-0.5-0.1-0.6-0.3C797.2,76.8,797.2,76.5,797.2,76.3z M798.8,85.8h-1.6v-7.6h1.6V85.8z"/>
		<path class="st2" d="M804.9,79.5h-1.8v6.3h-1.6v-6.3h-1.3v-0.8l1.3-0.5v-0.5c0-0.9,0.3-1.5,0.6-2c0.4-0.4,1-0.6,1.9-0.6
			c0.5,0,1.1,0.1,1.6,0.3l-0.4,1.3c-0.4-0.1-0.8-0.3-1.1-0.3s-0.6,0.1-0.8,0.4c-0.1,0.3-0.3,0.5-0.3,1v0.5h1.8V79.5z"/>
		<path class="st2" d="M805,78.2h1.8l1.5,4.3c0.3,0.6,0.4,1.1,0.5,1.8l0,0c0-0.3,0.1-0.5,0.3-0.9c0.1-0.4,0.6-2,1.8-5.1h1.8
			l-3.2,8.5c-0.6,1.5-1.5,2.4-2.9,2.4c-0.4,0-0.8,0-1-0.1v-1.3c0.3,0,0.5,0.1,0.9,0.1c0.8,0,1.3-0.5,1.6-1.4l0.3-0.8L805,78.2z"/>
		<path class="st2" d="M748.5,102.5h-1.6v-8.6h-2.9v-1.4h7.5v1.4h-2.9V102.5L748.5,102.5z"/>
		<path class="st2" d="M756.6,94.8c0.4,0,0.6,0,0.8,0.1l-0.1,1.5c-0.3,0-0.5-0.1-0.8-0.1c-0.6,0-1.1,0.3-1.5,0.6
			c-0.4,0.4-0.6,1-0.6,1.6v3.9h-1.6V95h1.3l0.3,1.3h0.1c0.3-0.5,0.6-0.8,1-1C755.7,94.9,756.1,94.8,756.6,94.8z"/>
		<path class="st2" d="M763.4,102.5l-0.4-1l0,0c-0.4,0.5-0.8,0.8-1.1,0.9s-0.9,0.3-1.4,0.3c-0.8,0-1.3-0.3-1.8-0.6
			c-0.4-0.4-0.6-1-0.6-1.6c0-0.8,0.3-1.4,0.9-1.8s1.4-0.6,2.7-0.6h1.3v-0.4c0-0.5-0.1-0.9-0.4-1.1c-0.3-0.3-0.6-0.4-1-0.4
			s-0.8,0-1.1,0.1s-0.6,0.3-1,0.4l-0.5-1.1c0.4-0.3,0.9-0.4,1.4-0.5c0.5-0.1,0.9-0.1,1.4-0.1c1,0,1.6,0.3,2.1,0.6
			c0.5,0.4,0.8,1,0.8,2v5.1L763.4,102.5L763.4,102.5z M761,101.3c0.6,0,1-0.1,1.4-0.5s0.5-0.8,0.5-1.4v-0.6h-1
			c-0.8,0-1.3,0.1-1.6,0.4c-0.4,0.3-0.5,0.5-0.5,1c0,0.4,0.1,0.6,0.3,0.8C760.4,101.2,760.6,101.3,761,101.3z"/>
		<path class="st2" d="M773.4,102.5h-1.6v-4.7c0-0.6-0.1-1-0.4-1.3c-0.3-0.3-0.6-0.4-1.1-0.4c-0.6,0-1.1,0.3-1.5,0.6
			c-0.4,0.4-0.5,1-0.5,2v3.8h-1.6v-7.5h1.3l0.3,1h0.1c0.3-0.4,0.5-0.6,1-0.9c0.4-0.3,0.9-0.3,1.4-0.3c1.8,0,2.7,0.9,2.7,2.8v4.7
			H773.4z"/>
		<path class="st2" d="M780.6,100.3c0,0.8-0.3,1.3-0.8,1.6c-0.5,0.4-1.3,0.6-2.3,0.6c-1,0-1.8-0.1-2.4-0.5v-1.4
			c0.9,0.4,1.6,0.6,2.4,0.6c1,0,1.5-0.3,1.5-0.9c0-0.3,0-0.4-0.1-0.5c-0.1-0.1-0.3-0.3-0.5-0.4c-0.3-0.1-0.6-0.3-1-0.5
			c-0.9-0.4-1.4-0.6-1.8-1c-0.3-0.4-0.5-0.8-0.5-1.3c0-0.6,0.3-1.1,0.8-1.5c0.5-0.4,1.3-0.5,2.1-0.5c0.9,0,1.8,0.1,2.5,0.5l-0.5,1.3
			c-0.8-0.4-1.5-0.5-2-0.5c-0.9,0-1.3,0.3-1.3,0.8c0,0.3,0.1,0.4,0.4,0.6c0.3,0.3,0.8,0.4,1.4,0.6c0.6,0.3,1,0.5,1.4,0.6
			c0.3,0.3,0.5,0.4,0.6,0.6C780.6,99.7,780.6,99.9,780.6,100.3z"/>
		<path class="st2" d="M787.1,102.5l-0.4-1l0,0c-0.4,0.5-0.8,0.8-1.1,0.9c-0.4,0.1-0.9,0.3-1.4,0.3c-0.8,0-1.3-0.3-1.8-0.6
			c-0.4-0.4-0.6-1-0.6-1.6c0-0.8,0.3-1.4,0.9-1.8c0.6-0.4,1.4-0.6,2.7-0.6h1.3v-0.4c0-0.5-0.1-0.9-0.4-1.1c-0.3-0.3-0.6-0.4-1-0.4
			c-0.4,0-0.8,0-1.1,0.1s-0.6,0.3-1,0.4l-0.5-1.1c0.4-0.3,0.9-0.4,1.4-0.5c0.5-0.1,0.9-0.1,1.4-0.1c1,0,1.6,0.3,2.1,0.6
			c0.5,0.4,0.8,1,0.8,2v5.1L787.1,102.5L787.1,102.5z M784.7,101.3c0.6,0,1-0.1,1.4-0.5s0.5-0.8,0.5-1.4v-0.6h-1
			c-0.8,0-1.3,0.1-1.6,0.4c-0.4,0.3-0.5,0.5-0.5,1c0,0.4,0.1,0.6,0.3,0.8C784,101.2,784.3,101.3,784.7,101.3z"/>
		<path class="st2" d="M793.5,102.6c-1.1,0-2-0.4-2.5-1c-0.6-0.6-0.9-1.6-0.9-2.9c0-1.3,0.3-2.3,0.9-2.9c0.6-0.6,1.5-1,2.7-1
			c0.8,0,1.5,0.1,2.1,0.4l-0.5,1.3c-0.6-0.3-1.3-0.4-1.6-0.4c-1.3,0-1.9,0.9-1.9,2.5c0,0.9,0.1,1.5,0.5,1.9s0.8,0.6,1.4,0.6
			c0.8,0,1.4-0.1,2-0.5v1.4c-0.3,0.1-0.6,0.3-0.9,0.4C794.5,102.5,793.9,102.6,793.5,102.6z"/>
		<path class="st2" d="M800.1,101.3c0.4,0,0.8,0,1.1-0.1v1.3c-0.1,0.1-0.4,0.1-0.6,0.3c-0.3,0-0.5,0.1-0.9,0.1
			c-1.5,0-2.3-0.8-2.3-2.4v-4h-1v-0.8l1.1-0.6l0.5-1.6h1V95h2.1v1.3h-2.1v4c0,0.4,0.1,0.6,0.3,0.9
			C799.6,101.2,799.8,101.3,800.1,101.3z"/>
		<path class="st2" d="M802.7,93c0-0.3,0.1-0.5,0.3-0.6c0.1-0.1,0.4-0.3,0.6-0.3c0.3,0,0.5,0.1,0.6,0.3c0.1,0.1,0.3,0.4,0.3,0.6
			c0,0.3-0.1,0.5-0.3,0.6s-0.4,0.3-0.6,0.3c-0.3,0-0.5-0.1-0.6-0.3C802.7,93.5,802.7,93.2,802.7,93z M804.4,102.5h-1.6V95h1.6V102.5
			z"/>
		<path class="st2" d="M813.4,98.7c0,1.3-0.3,2.1-0.9,2.9s-1.5,1-2.7,1c-0.8,0-1.3-0.1-1.9-0.5c-0.5-0.4-1-0.8-1.3-1.4
			c-0.3-0.6-0.4-1.3-0.4-2c0-1.3,0.3-2.1,0.9-2.9s1.5-1,2.7-1c1.1,0,1.9,0.4,2.5,1C813,96.5,813.4,97.5,813.4,98.7z M807.9,98.7
			c0,1.8,0.6,2.7,1.9,2.7s1.9-0.9,1.9-2.7s-0.6-2.5-1.9-2.5c-0.6,0-1.1,0.3-1.5,0.6S807.9,97.8,807.9,98.7z"/>
		<path class="st2" d="M821.8,102.5h-1.6v-4.7c0-0.6-0.1-1-0.4-1.3c-0.3-0.3-0.6-0.4-1.1-0.4c-0.6,0-1.1,0.3-1.5,0.6
			c-0.4,0.4-0.5,1-0.5,2v3.8H815v-7.5h1.3l0.3,1h0.1c0.3-0.4,0.5-0.6,1-0.9C818,95,818.5,95,819,95c1.8,0,2.7,0.9,2.7,2.8v4.7H821.8
			z"/>
		<path class="st2" d="M829,100.3c0,0.8-0.3,1.3-0.8,1.6c-0.5,0.4-1.3,0.6-2.3,0.6c-1,0-1.8-0.1-2.4-0.5v-1.4
			c0.9,0.4,1.6,0.6,2.4,0.6c1,0,1.5-0.3,1.5-0.9c0-0.3,0-0.4-0.1-0.5c-0.1-0.1-0.3-0.3-0.5-0.4c-0.3-0.1-0.6-0.3-1-0.5
			c-0.9-0.4-1.4-0.6-1.8-1c-0.3-0.4-0.5-0.8-0.5-1.3c0-0.6,0.3-1.1,0.8-1.5c0.5-0.4,1.3-0.5,2.1-0.5c0.9,0,1.8,0.1,2.5,0.5l-0.5,1.3
			c-0.8-0.4-1.5-0.5-2-0.5c-0.9,0-1.3,0.3-1.3,0.8c0,0.3,0.1,0.4,0.4,0.6c0.3,0.3,0.8,0.4,1.4,0.6c0.6,0.3,1,0.5,1.4,0.6
			c0.3,0.3,0.5,0.4,0.6,0.6C829,99.7,829,99.9,829,100.3z"/>
	</g>
</g>
<g>
	<g>
		<path class="st2" d="M809.1,208.9v3.9h-1.6v-10h2.8c1.3,0,2.3,0.3,2.9,0.8s0.9,1.3,0.9,2.1c0,1.3-0.6,2.1-1.9,2.7l2.8,4.4H813
			l-2.4-3.9L809.1,208.9L809.1,208.9z M809.1,207.7h1.1c0.8,0,1.3-0.1,1.6-0.4c0.4-0.3,0.5-0.8,0.5-1.3s-0.1-1-0.5-1.3
			s-0.9-0.4-1.6-0.4h-1v3.3H809.1z"/>
		<path class="st2" d="M819.4,213.1c-1.1,0-2-0.4-2.8-1c-0.6-0.6-1-1.6-1-2.8c0-1.3,0.3-2.1,0.9-2.9s1.4-1,2.5-1
			c1,0,1.8,0.3,2.4,0.9s0.9,1.4,0.9,2.5v0.9h-5.1c0,0.8,0.3,1.3,0.6,1.6c0.4,0.4,0.9,0.6,1.5,0.6c0.5,0,0.9,0,1.3-0.1
			s0.8-0.3,1.3-0.4v1.3c-0.4,0.1-0.8,0.4-1.1,0.4C820.4,213,819.9,213.1,819.4,213.1z M819.2,206.5c-0.5,0-0.9,0.1-1.3,0.5
			c-0.3,0.4-0.5,0.8-0.5,1.4h3.4c0-0.6-0.1-1.1-0.5-1.4C820.1,206.6,819.7,206.5,819.2,206.5z"/>
		<path class="st2" d="M827.3,213.1c-1.1,0-2-0.4-2.5-1c-0.6-0.6-0.9-1.6-0.9-2.9s0.3-2.3,0.9-2.9s1.5-1,2.7-1
			c0.8,0,1.5,0.1,2.1,0.4l-0.5,1.3c-0.6-0.3-1.3-0.4-1.6-0.4c-1.3,0-1.9,0.9-1.9,2.5c0,0.9,0.1,1.5,0.5,1.9c0.4,0.4,0.8,0.6,1.4,0.6
			c0.8,0,1.4-0.1,2-0.5v1.4c-0.3,0.1-0.6,0.3-0.9,0.4S827.6,213.1,827.3,213.1z"/>
		<path class="st2" d="M837.8,209.2c0,1.3-0.3,2.1-0.9,2.9s-1.5,1-2.7,1c-0.8,0-1.3-0.1-1.9-0.5c-0.5-0.4-1-0.8-1.3-1.4
			s-0.4-1.3-0.4-2c0-1.3,0.3-2.1,0.9-2.9s1.5-1,2.7-1c1.1,0,1.9,0.4,2.5,1C837.4,207,837.8,208,837.8,209.2z M832.3,209.2
			c0,1.8,0.6,2.7,1.9,2.7s1.9-0.9,1.9-2.7c0-1.8-0.6-2.5-1.9-2.5c-0.6,0-1.1,0.3-1.5,0.6C832.3,207.7,832.3,208.3,832.3,209.2z"/>
		<path class="st2" d="M843.3,205.2c0.4,0,0.6,0,0.8,0.1l-0.1,1.5c-0.3,0-0.5-0.1-0.8-0.1c-0.6,0-1.1,0.3-1.5,0.6
			c-0.4,0.4-0.6,1-0.6,1.6v3.9h-1.6v-7.5h1.3l0.3,1.3h0.1c0.3-0.5,0.6-0.8,1-1C842.4,205.4,842.9,205.2,843.3,205.2z"/>
		<path class="st2" d="M848.1,213.1c-0.9,0-1.6-0.4-2.1-1c-0.5-0.6-0.8-1.6-0.8-2.9s0.3-2.1,0.8-2.9c0.5-0.6,1.3-1,2.1-1
			c1,0,1.8,0.4,2.3,1.1h0.1c-0.1-0.5-0.1-1-0.1-1.3v-2.8h1.6V213h-1.3l-0.3-1h-0.1C849.9,212.7,849.1,213.1,848.1,213.1z
			 M848.5,211.8c0.6,0,1.1-0.1,1.4-0.5c0.3-0.4,0.5-1,0.5-1.8v-0.3c0-0.9-0.1-1.6-0.5-2c-0.3-0.4-0.8-0.6-1.4-0.6
			c-0.5,0-1,0.3-1.3,0.6c-0.3,0.5-0.5,1.1-0.5,1.9c0,0.9,0.1,1.5,0.4,1.9C847.5,211.6,848,211.8,848.5,211.8z"/>
		<path class="st2" d="M806.1,232.4c-0.5,0-0.8,0-1.1-0.1v-1.4c0.4,0.1,0.8,0.1,1,0.1c0.9,0,1.4-0.5,1.4-1.6v-9.6h1.6v9.6
			c0,1-0.3,1.8-0.8,2.3S807.2,232.4,806.1,232.4z"/>
		<path class="st2" d="M818.2,225.9c0,1.3-0.3,2.1-0.9,2.9c-0.6,0.6-1.5,1-2.7,1c-0.8,0-1.3-0.1-1.9-0.5c-0.6-0.4-1-0.8-1.3-1.4
			c-0.3-0.6-0.4-1.3-0.4-2c0-1.3,0.3-2.1,0.9-2.9s1.5-1,2.7-1c1.1,0,1.9,0.4,2.5,1C817.8,223.7,818.2,224.7,818.2,225.9z
			 M812.6,225.9c0,1.8,0.6,2.7,1.9,2.7s1.9-0.9,1.9-2.7c0-1.8-0.6-2.5-1.9-2.5c-0.6,0-1.1,0.3-1.5,0.6
			C812.8,224.3,812.6,225,812.6,225.9z"/>
		<path class="st2" d="M825.2,229.6l-0.3-1h-0.1c-0.3,0.4-0.5,0.6-0.9,0.8c-0.4,0.1-0.9,0.3-1.4,0.3c-0.9,0-1.6-0.3-2-0.6
			c-0.4-0.4-0.6-1.1-0.6-2v-4.9h1.6v4.7c0,0.6,0.1,1,0.4,1.3s0.6,0.4,1.1,0.4c0.6,0,1.1-0.3,1.5-0.6c0.3-0.4,0.5-1,0.5-2v-3.8h1.6
			v7.5h-1.5V229.6z"/>
		<path class="st2" d="M832.6,221.9c0.4,0,0.6,0,0.8,0.1l-0.1,1.5c-0.3,0-0.5-0.1-0.8-0.1c-0.6,0-1.1,0.3-1.5,0.6s-0.6,1-0.6,1.6
			v3.9h-1.6v-7.5h1.3l0.3,1.3h0.1c0.3-0.5,0.6-0.8,1-1C831.7,222.1,832.1,221.9,832.6,221.9z"/>
		<path class="st2" d="M841.4,229.6h-1.6V225c0-0.6-0.1-1-0.4-1.3c-0.3-0.3-0.6-0.4-1.1-0.4c-0.6,0-1.1,0.3-1.5,0.6s-0.5,1-0.5,2
			v3.8h-1.5v-7.5h1.3l0.3,1h0.1c0.3-0.4,0.5-0.6,1-0.9c0.4-0.3,0.9-0.3,1.4-0.3c1.8,0,2.7,0.9,2.7,2.8V229.6L841.4,229.6z"/>
		<path class="st2" d="M848.2,229.6l-0.4-1l0,0c-0.4,0.5-0.8,0.8-1.1,0.9c-0.4,0.1-0.9,0.3-1.4,0.3c-0.8,0-1.3-0.3-1.8-0.6
			c-0.4-0.4-0.6-1-0.6-1.6c0-0.8,0.3-1.4,0.9-1.8c0.6-0.4,1.4-0.6,2.7-0.6h1.3v-0.4c0-0.5-0.1-0.9-0.4-1.1c-0.3-0.3-0.6-0.4-1-0.4
			c-0.4,0-0.8,0-1.1,0.1c-0.4,0.1-0.6,0.3-1,0.4l-0.5-1.1c0.4-0.3,0.9-0.4,1.4-0.5c0.5-0.1,0.9-0.1,1.4-0.1c1,0,1.6,0.3,2.1,0.6
			c0.5,0.4,0.8,1,0.8,2v5.1L848.2,229.6L848.2,229.6z M846,228.5c0.6,0,1-0.1,1.4-0.5c0.4-0.4,0.5-0.8,0.5-1.4V226h-1
			c-0.8,0-1.3,0.1-1.6,0.4s-0.5,0.5-0.5,1c0,0.4,0.1,0.6,0.3,0.8C845.2,228.4,845.5,228.5,846,228.5z"/>
		<path class="st2" d="M853.3,229.6h-1.6V219h1.6V229.6z"/>
		<path class="st2" d="M813.1,246.3h-5.6v-10h5.6v1.4h-4v2.7h3.8v1.4h-3.8v3.2h4V246.3z"/>
		<path class="st2" d="M821.7,246.3h-1.6v-4.7c0-0.6-0.1-1-0.4-1.3s-0.6-0.4-1.1-0.4c-0.6,0-1.1,0.3-1.5,0.6s-0.5,1-0.5,2v3.8h-1.6
			v-7.7h1.3l0.3,1h0.1c0.3-0.4,0.5-0.6,1-0.9c0.4-0.3,0.9-0.3,1.4-0.3c1.8,0,2.7,0.9,2.7,2.8v4.9H821.7z"/>
		<path class="st2" d="M826.6,245.2c0.4,0,0.8,0,1.1-0.1v1.3c-0.1,0.1-0.4,0.1-0.6,0.3c-0.3,0-0.5,0.1-0.9,0.1
			c-1.5,0-2.3-0.8-2.3-2.4V240h-1v-0.8l1.1-0.6l0.5-1.6h1v1.6h2.1v1.3h-2.1v4c0,0.4,0.1,0.6,0.3,0.9
			C826.1,245.1,826.4,245.2,826.6,245.2z"/>
		<path class="st2" d="M833.2,238.6c0.4,0,0.6,0,0.8,0.1l-0.1,1.5c-0.3,0-0.5-0.1-0.8-0.1c-0.6,0-1.1,0.3-1.5,0.6s-0.6,1-0.6,1.6
			v3.9h-1.6v-7.6h1.3l0.3,1.3h0.1c0.3-0.5,0.6-0.8,1-1S832.7,238.6,833.2,238.6z"/>
		<path class="st2" d="M835.2,236.9c0-0.3,0.1-0.5,0.3-0.6s0.4-0.3,0.6-0.3s0.5,0.1,0.6,0.3c0.1,0.1,0.3,0.4,0.3,0.6
			s-0.1,0.5-0.3,0.6c-0.1,0.1-0.4,0.3-0.6,0.3s-0.5-0.1-0.6-0.3C835.4,237.2,835.2,237.1,835.2,236.9z M837,246.3h-1.6v-7.6h1.6
			V246.3z"/>
		<path class="st2" d="M842.6,246.5c-1.1,0-2-0.4-2.8-1c-0.6-0.6-1-1.6-1-2.8c0-1.3,0.3-2.1,0.9-2.9s1.4-1,2.5-1
			c1,0,1.8,0.3,2.4,0.9s0.9,1.4,0.9,2.5v0.9h-5.1c0,0.8,0.3,1.3,0.6,1.6s0.9,0.6,1.5,0.6c0.5,0,0.9,0,1.3-0.1
			c0.4-0.1,0.8-0.3,1.3-0.4v1.3c-0.4,0.1-0.8,0.4-1.1,0.4S843.1,246.5,842.6,246.5z M842.2,239.9c-0.5,0-0.9,0.1-1.3,0.5
			c-0.3,0.4-0.5,0.8-0.5,1.4h3.4c0-0.6-0.1-1.1-0.5-1.4C843.1,240,842.7,239.9,842.2,239.9z"/>
		<path class="st2" d="M852.3,244.2c0,0.8-0.3,1.3-0.8,1.6c-0.5,0.4-1.3,0.6-2.3,0.6c-1,0-1.8-0.1-2.4-0.5v-1.4
			c0.9,0.4,1.6,0.6,2.4,0.6c1,0,1.5-0.3,1.5-0.9c0-0.3,0-0.4-0.1-0.5c-0.1-0.1-0.3-0.3-0.5-0.4c-0.3-0.1-0.6-0.3-1-0.5
			c-0.9-0.4-1.4-0.6-1.8-1c-0.3-0.4-0.5-0.8-0.5-1.3c0-0.6,0.3-1.1,0.8-1.5c0.5-0.4,1.3-0.5,2.1-0.5c0.9,0,1.8,0.1,2.5,0.5l-0.5,1.3
			c-0.8-0.4-1.5-0.5-2-0.5c-0.9,0-1.3,0.3-1.3,0.8c0,0.3,0.1,0.4,0.4,0.6c0.3,0.3,0.8,0.4,1.4,0.6s1,0.5,1.4,0.6
			c0.3,0.3,0.5,0.4,0.6,0.6C852.2,243.4,852.3,243.8,852.3,244.2z"/>
	</g>
</g>
<g>
	<g>
		<path class="st2" d="M721.4,306.3c0,1-0.4,1.8-1,2.4s-1.6,0.9-2.9,0.9h-1v3.7h-1.6v-10h2.9c1.3,0,2.1,0.3,2.8,0.8
			C721.2,304.5,721.4,305.3,721.4,306.3z M716.5,308.2h0.9c0.9,0,1.4-0.1,1.9-0.4c0.5-0.3,0.6-0.8,0.6-1.4s-0.1-1-0.5-1.3
			c-0.4-0.3-0.9-0.4-1.6-0.4h-1.1v3.4H716.5z"/>
		<path class="st2" d="M729.9,309.4c0,1.3-0.3,2.1-0.9,2.9s-1.5,1-2.7,1c-0.8,0-1.3-0.1-1.9-0.5c-0.5-0.4-1-0.8-1.3-1.4
			c-0.3-0.6-0.4-1.3-0.4-2c0-1.3,0.3-2.1,0.9-2.9s1.5-1,2.7-1c1.1,0,1.9,0.4,2.5,1C729.7,307.3,729.9,308.3,729.9,309.4z
			 M724.5,309.4c0,1.8,0.6,2.7,1.9,2.7s1.9-0.9,1.9-2.7s-0.6-2.5-1.9-2.5c-0.6,0-1.1,0.3-1.5,0.6
			C724.5,307.9,724.5,308.7,724.5,309.4z"/>
		<path class="st2" d="M736.9,311.1c0,0.8-0.3,1.3-0.8,1.6c-0.5,0.4-1.3,0.6-2.3,0.6s-1.8-0.1-2.4-0.5v-1.4c0.9,0.4,1.6,0.6,2.4,0.6
			c1,0,1.5-0.3,1.5-0.9c0-0.3,0-0.4-0.1-0.5c-0.1-0.1-0.3-0.3-0.5-0.4s-0.6-0.3-1-0.5c-0.9-0.4-1.4-0.6-1.8-1
			c-0.3-0.4-0.5-0.8-0.5-1.3c0-0.6,0.3-1.1,0.8-1.5c0.5-0.4,1.3-0.5,2.1-0.5s1.8,0.1,2.5,0.5l-0.5,1.3c-0.8-0.4-1.5-0.5-2-0.5
			c-0.9,0-1.3,0.3-1.3,0.8c0,0.3,0.1,0.4,0.4,0.6c0.3,0.3,0.8,0.4,1.4,0.6c0.6,0.3,1,0.5,1.4,0.6c0.3,0.3,0.5,0.4,0.6,0.6
			C736.7,310.4,736.9,310.7,736.9,311.1z"/>
		<path class="st2" d="M741.3,312.1c0.4,0,0.8,0,1.1-0.1v1.3c-0.1,0.1-0.4,0.1-0.6,0.3c-0.3,0-0.5,0.1-0.9,0.1
			c-1.5,0-2.3-0.8-2.3-2.4v-4h-1v-0.8l1.1-0.6l0.5-1.6h1v1.6h2.1v1.3h-2.1v4c0,0.4,0.1,0.6,0.3,0.9C740.8,312,741,312.1,741.3,312.1
			z"/>
		<path class="st2" d="M747.7,313.2v-10h1.6v8.6h4.2v1.4L747.7,313.2L747.7,313.2z"/>
		<path class="st2" d="M758.5,313.3c-1.1,0-2-0.4-2.8-1c-0.6-0.6-1-1.6-1-2.8c0-1.3,0.3-2.1,0.9-2.9s1.4-1,2.5-1
			c1,0,1.8,0.3,2.4,0.9s0.9,1.4,0.9,2.5v0.9h-5.1c0,0.8,0.3,1.3,0.6,1.6c0.4,0.4,0.9,0.6,1.5,0.6c0.5,0,0.9,0,1.3-0.1
			s0.8-0.3,1.3-0.4v1.3c-0.4,0.1-0.8,0.4-1.1,0.4S759,313.3,758.5,313.3z M758.1,306.8c-0.5,0-0.9,0.1-1.3,0.5
			c-0.3,0.4-0.5,0.8-0.5,1.4h3.4c0-0.6-0.1-1.1-0.5-1.4C759,306.9,758.6,306.8,758.1,306.8z"/>
		<path class="st2" d="M765.7,313.3c-0.9,0-1.6-0.4-2.1-1c-0.5-0.6-0.8-1.6-0.8-2.9s0.3-2.1,0.8-2.9c0.5-0.6,1.3-1,2.1-1
			c1,0,1.8,0.4,2.3,1.1h0.1c-0.1-0.5-0.1-1-0.1-1.3v-2.8h1.6v10.6h-1.3l-0.3-1H768C767.5,313,766.7,313.3,765.7,313.3z M766.1,312.1
			c0.6,0,1.1-0.1,1.4-0.5c0.3-0.4,0.5-1,0.5-1.8v-0.3c0-0.9-0.1-1.6-0.5-2c-0.3-0.4-0.8-0.6-1.4-0.6c-0.5,0-1,0.3-1.3,0.6
			c-0.3,0.5-0.5,1.1-0.5,1.9c0,0.9,0.1,1.5,0.4,1.9C765.1,311.8,765.6,312.1,766.1,312.1z"/>
		<path class="st2" d="M778.2,305.8v0.9l-1.3,0.3c0.1,0.1,0.3,0.4,0.3,0.6c0,0.3,0.1,0.5,0.1,0.8c0,0.8-0.3,1.4-0.8,1.8
			c-0.5,0.5-1.3,0.6-2.1,0.6c-0.3,0-0.5,0-0.6,0c-0.4,0.3-0.5,0.5-0.5,0.8c0,0.1,0.1,0.3,0.3,0.4c0.1,0.1,0.5,0.1,0.9,0.1h1.3
			c0.9,0,1.5,0.1,1.9,0.5c0.4,0.4,0.6,0.9,0.6,1.5c0,0.9-0.4,1.5-1,2c-0.8,0.5-1.8,0.6-3,0.6c-1,0-1.8-0.1-2.4-0.5s-0.8-0.9-0.8-1.5
			c0-0.5,0.1-0.9,0.4-1.1c0.3-0.3,0.8-0.5,1.3-0.6c-0.3-0.1-0.4-0.3-0.5-0.4c-0.1-0.3-0.3-0.4-0.3-0.6c0-0.3,0.1-0.5,0.3-0.8
			c0.1-0.3,0.4-0.4,0.8-0.6c-0.4-0.1-0.8-0.4-0.9-0.8c-0.3-0.4-0.4-0.8-0.4-1.3c0-0.8,0.3-1.4,0.8-1.9c0.5-0.5,1.3-0.6,2.1-0.6
			c0.3,0,0.4,0,0.6,0s0.4,0,0.5,0.1h2.5V305.8z M772.3,314.4c0,0.4,0.1,0.6,0.5,0.8s0.8,0.3,1.3,0.3c0.9,0,1.5-0.1,1.9-0.4
			c0.4-0.3,0.6-0.6,0.6-1c0-0.4-0.1-0.5-0.4-0.8c-0.3-0.1-0.6-0.3-1.3-0.3h-1.3c-0.5,0-0.8,0.1-1.1,0.4
			C772.4,313.7,772.3,314,772.3,314.4z M773,308.2c0,0.5,0.1,0.9,0.4,1.1c0.3,0.3,0.6,0.4,1,0.4c0.9,0,1.4-0.5,1.4-1.5
			c0-0.5-0.1-0.9-0.4-1.1c-0.3-0.3-0.6-0.4-1-0.4c-0.5,0-0.8,0.1-1,0.4C773,307.3,773,307.7,773,308.2z"/>
		<path class="st2" d="M782.9,313.3c-1.1,0-2-0.4-2.8-1c-0.6-0.6-1-1.6-1-2.8c0-1.3,0.3-2.1,0.9-2.9s1.4-1,2.5-1
			c1,0,1.8,0.3,2.4,0.9s0.9,1.4,0.9,2.5v0.9h-5.1c0,0.8,0.3,1.3,0.6,1.6c0.4,0.4,0.9,0.6,1.5,0.6c0.5,0,0.9,0,1.3-0.1
			s0.8-0.3,1.3-0.4v1.3c-0.4,0.1-0.8,0.4-1.1,0.4S783.4,313.3,782.9,313.3z M782.5,306.8c-0.5,0-0.9,0.1-1.3,0.5
			c-0.3,0.4-0.5,0.8-0.5,1.4h3.4c0-0.6-0.1-1.1-0.5-1.4C783.5,306.9,783,306.8,782.5,306.8z"/>
		<path class="st2" d="M791.4,305.5c0.4,0,0.6,0,0.8,0.1l-0.1,1.5c-0.3,0-0.5-0.1-0.8-0.1c-0.6,0-1.1,0.3-1.5,0.6
			c-0.4,0.4-0.6,1-0.6,1.6v3.9h-1.6v-7.5h1.3l0.3,1.3h0.1c0.3-0.5,0.6-0.8,1-1C790.5,305.8,791,305.5,791.4,305.5z"/>
		<path class="st2" d="M736.6,329.9h-5.6v-10h5.6v1.4h-4v2.7h3.8v1.4h-3.8v3.2h4V329.9z"/>
		<path class="st2" d="M745.2,329.9h-1.6v-4.7c0-0.6-0.1-1-0.4-1.3s-0.6-0.4-1.1-0.4c-0.6,0-1.1,0.3-1.5,0.6s-0.5,1-0.5,2v3.8h-1.6
			v-7.5h1.3l0.3,1h0.1c0.3-0.4,0.5-0.6,1-0.9c0.4-0.3,0.9-0.3,1.4-0.3c1.8,0,2.7,0.9,2.7,2.8v4.7H745.2z"/>
		<path class="st2" d="M750.1,328.8c0.4,0,0.8,0,1.1-0.1v1.3c-0.1,0.1-0.4,0.1-0.6,0.3c-0.3,0-0.5,0.1-0.9,0.1
			c-1.5,0-2.3-0.8-2.3-2.4v-4h-1v-0.8l1.1-0.6l0.5-1.6h1v1.6h2.1v1.3h-2.1v4c0,0.4,0.1,0.6,0.3,0.9
			C749.6,328.6,749.9,328.8,750.1,328.8z"/>
		<path class="st2" d="M756.7,322.2c0.4,0,0.6,0,0.8,0.1l-0.1,1.5c-0.3,0-0.5-0.1-0.8-0.1c-0.6,0-1.1,0.3-1.5,0.6s-0.6,1-0.6,1.6
			v3.9h-1.6v-7.5h1.3l0.3,1.3h0.1c0.3-0.5,0.6-0.8,1-1C755.7,322.4,756.2,322.2,756.7,322.2z"/>
		<path class="st2" d="M758.7,320.4c0-0.3,0.1-0.5,0.3-0.6c0.1-0.1,0.4-0.3,0.6-0.3s0.5,0.1,0.6,0.3s0.3,0.4,0.3,0.6
			c0,0.3-0.1,0.5-0.3,0.6c-0.1,0.1-0.4,0.3-0.6,0.3s-0.5-0.1-0.6-0.3C758.9,320.9,758.7,320.7,758.7,320.4z M760.4,329.9h-1.5v-7.5
			h1.6v7.5H760.4z"/>
		<path class="st2" d="M765.9,330c-1.1,0-2-0.4-2.8-1c-0.6-0.6-1-1.6-1-2.8c0-1.3,0.3-2.1,0.9-2.9c0.6-0.8,1.4-1,2.5-1
			c1,0,1.8,0.3,2.4,0.9c0.6,0.6,0.9,1.4,0.9,2.5v0.9h-5.1c0,0.8,0.3,1.3,0.6,1.6s0.9,0.6,1.5,0.6c0.5,0,0.9,0,1.3-0.1
			c0.4-0.1,0.8-0.3,1.3-0.4v1.3c-0.4,0.1-0.8,0.4-1.1,0.4S766.5,330,765.9,330z M765.7,323.5c-0.5,0-0.9,0.1-1.3,0.5
			c-0.3,0.4-0.5,0.8-0.5,1.4h3.4c0-0.6-0.1-1.1-0.5-1.4C766.6,323.6,766.2,323.5,765.7,323.5z"/>
		<path class="st2" d="M775.8,327.8c0,0.8-0.3,1.3-0.8,1.6c-0.5,0.4-1.3,0.6-2.3,0.6c-1,0-1.8-0.1-2.4-0.5v-1.4
			c0.9,0.4,1.6,0.6,2.4,0.6c1,0,1.5-0.3,1.5-0.9c0-0.3,0-0.4-0.1-0.5c-0.1-0.1-0.3-0.3-0.5-0.4c-0.3-0.1-0.6-0.3-1-0.5
			c-0.9-0.4-1.4-0.6-1.8-1c-0.3-0.4-0.5-0.8-0.5-1.3c0-0.6,0.3-1.1,0.8-1.5c0.5-0.4,1.3-0.5,2.1-0.5c0.9,0,1.8,0.1,2.5,0.5l-0.5,1.3
			c-0.8-0.4-1.5-0.5-2-0.5c-0.9,0-1.3,0.3-1.3,0.8c0,0.3,0.1,0.4,0.4,0.6c0.3,0.3,0.8,0.4,1.4,0.6s1,0.5,1.4,0.6
			c0.3,0.3,0.5,0.4,0.6,0.6C775.7,327.1,775.8,327.4,775.8,327.8z"/>
	</g>
</g>
<g>
	<path class="st2" d="M612.5,285.4h-1.6v-8.6h-2.9v-1.4h7.5v1.4h-2.9C612.5,276.8,612.5,285.4,612.5,285.4z"/>
	<path class="st2" d="M620.6,277.7c0.4,0,0.6,0,0.8,0.1l-0.1,1.5c-0.3,0-0.5-0.1-0.8-0.1c-0.6,0-1.1,0.3-1.5,0.6
		c-0.4,0.4-0.6,1-0.6,1.6v3.9h-1.6v-7.5h1.3l0.3,1.3h0.1c0.3-0.5,0.6-0.8,1-1C619.7,277.9,620.2,277.7,620.6,277.7z"/>
	<path class="st2" d="M622.7,275.9c0-0.3,0.1-0.5,0.3-0.6s0.4-0.3,0.6-0.3s0.5,0.1,0.6,0.3c0.1,0.1,0.3,0.4,0.3,0.6
		c0,0.3-0.1,0.5-0.3,0.6s-0.4,0.3-0.6,0.3s-0.5-0.1-0.6-0.3C622.7,276.4,622.7,276.2,622.7,275.9z M624.3,285.4h-1.6v-7.5h1.6V285.4
		z"/>
	<path class="st2" d="M631.3,285.4l-0.4-1l0,0c-0.4,0.5-0.8,0.8-1.1,0.9c-0.4,0.1-0.9,0.3-1.4,0.3c-0.8,0-1.3-0.3-1.8-0.6
		c-0.4-0.4-0.6-1-0.6-1.6c0-0.8,0.3-1.4,0.9-1.8c0.6-0.4,1.4-0.6,2.7-0.6h1.3v-0.4c0-0.5-0.1-0.9-0.4-1.1c-0.3-0.3-0.6-0.4-1-0.4
		c-0.4,0-0.8,0-1.1,0.1s-0.6,0.3-1,0.4l-0.5-1.1c0.4-0.3,0.9-0.4,1.4-0.5c0.5-0.1,0.9-0.1,1.4-0.1c1,0,1.6,0.3,2.1,0.6
		c0.5,0.4,0.8,1,0.8,2v5.1L631.3,285.4L631.3,285.4z M629,284.3c0.6,0,1-0.1,1.4-0.5s0.5-0.8,0.5-1.4v-0.6h-1
		c-0.8,0-1.3,0.1-1.6,0.4c-0.4,0.3-0.5,0.5-0.5,1c0,0.4,0.1,0.6,0.3,0.8C628.3,284.3,628.5,284.3,629,284.3z"/>
	<path class="st2" d="M636.4,285.4h-1.6v-10.6h1.6V285.4z"/>
	<path class="st2" d="M597.4,292.1h2.9c1.4,0,2.4,0.3,2.9,0.6c0.5,0.4,0.9,1,0.9,1.9c0,0.6-0.1,1-0.5,1.4c-0.4,0.4-0.8,0.6-1.3,0.8
		v0.1c0.8,0.1,1.3,0.4,1.5,0.8c0.4,0.4,0.5,0.9,0.5,1.5c0,0.9-0.3,1.6-0.9,2.1s-1.5,0.8-2.7,0.8h-3.5v-10H597.4z M599.1,296.3h1.5
		c0.6,0,1.1-0.1,1.5-0.4c0.3-0.3,0.5-0.6,0.5-1.1c0-0.5-0.1-0.8-0.5-1c-0.4-0.3-0.9-0.3-1.6-0.3h-1.4
		C599.1,293.5,599.1,296.3,599.1,296.3z M599.1,297.5v3.2h1.8c0.6,0,1.1-0.1,1.5-0.4c0.4-0.3,0.5-0.6,0.5-1.3c0-0.5-0.1-0.9-0.5-1.1
		s-0.9-0.4-1.6-0.4H599.1z"/>
	<path class="st2" d="M611.2,302.1l-0.4-1l0,0c-0.4,0.5-0.8,0.8-1.1,0.9c-0.4,0.1-0.9,0.3-1.4,0.3c-0.8,0-1.3-0.3-1.8-0.6
		c-0.4-0.4-0.6-1-0.6-1.6c0-0.8,0.3-1.4,0.9-1.8s1.4-0.6,2.7-0.6h1.3v-0.4c0-0.5-0.1-0.9-0.4-1.1c-0.3-0.3-0.6-0.4-1-0.4
		c-0.4,0-0.8,0-1.1,0.1s-0.6,0.3-1,0.4l-0.5-1.1c0.4-0.3,0.9-0.4,1.4-0.5c0.5-0.1,0.9-0.1,1.4-0.1c1,0,1.6,0.3,2.1,0.6
		c0.5,0.4,0.8,1,0.8,2v5.1L611.2,302.1L611.2,302.1z M608.8,301c0.6,0,1-0.1,1.4-0.5c0.4-0.4,0.5-0.8,0.5-1.4v-0.6h-1
		c-0.8,0-1.3,0.1-1.6,0.4c-0.4,0.3-0.5,0.5-0.5,1c0,0.4,0.1,0.6,0.3,0.8C608,301,608.4,301,608.8,301z"/>
	<path class="st2" d="M616.1,302.1h-1.6v-10.6h1.6V302.1z"/>
	<path class="st2" d="M623.1,302.1l-0.4-1l0,0c-0.4,0.5-0.8,0.8-1.1,0.9c-0.4,0.1-0.9,0.3-1.4,0.3c-0.8,0-1.3-0.3-1.8-0.6
		c-0.4-0.4-0.6-1-0.6-1.6c0-0.8,0.3-1.4,0.9-1.8s1.4-0.6,2.7-0.6h1.3v-0.4c0-0.5-0.1-0.9-0.4-1.1c-0.3-0.3-0.6-0.4-1-0.4
		s-0.8,0-1.1,0.1c-0.4,0.1-0.6,0.3-1,0.4l-0.5-1.1c0.4-0.3,0.9-0.4,1.4-0.5c0.5-0.1,0.9-0.1,1.4-0.1c1,0,1.6,0.3,2.1,0.6
		c0.5,0.4,0.8,1,0.8,2v5.1L623.1,302.1L623.1,302.1z M620.7,301c0.6,0,1-0.1,1.4-0.5c0.4-0.4,0.5-0.8,0.5-1.4v-0.6h-1
		c-0.8,0-1.3,0.1-1.6,0.4c-0.4,0.3-0.5,0.5-0.5,1c0,0.4,0.1,0.6,0.3,0.8C620,301,620.3,301,620.7,301z"/>
	<path class="st2" d="M633.1,302.1h-1.6v-4.7c0-0.6-0.1-1-0.4-1.3c-0.3-0.3-0.6-0.4-1.1-0.4c-0.6,0-1.1,0.3-1.5,0.6
		c-0.4,0.4-0.5,1-0.5,2v3.8h-1.6v-7.5h1.3l0.3,1h0.1c0.3-0.4,0.5-0.6,1-0.9c0.4-0.3,0.9-0.3,1.4-0.3c1.8,0,2.7,0.9,2.7,2.8v4.7
		H633.1z"/>
	<path class="st2" d="M638.4,302.2c-1.1,0-2-0.4-2.5-1c-0.6-0.6-0.9-1.6-0.9-2.9s0.3-2.3,0.9-2.9s1.5-1,2.7-1c0.8,0,1.5,0.1,2.1,0.4
		l-0.5,1.3c-0.6-0.3-1.3-0.4-1.6-0.4c-1.3,0-1.9,0.9-1.9,2.5c0,0.9,0.1,1.5,0.5,1.9c0.4,0.4,0.8,0.6,1.4,0.6c0.8,0,1.4-0.1,2-0.5
		v1.4c-0.3,0.1-0.6,0.3-0.9,0.4C639.4,302.1,638.8,302.2,638.4,302.2z"/>
	<path class="st2" d="M645.5,302.2c-1.1,0-2-0.4-2.8-1c-0.6-0.6-1-1.6-1-2.8c0-1.3,0.3-2.1,0.9-2.9s1.4-1,2.5-1c1,0,1.8,0.3,2.4,0.9
		s0.9,1.4,0.9,2.5v0.9h-5.1c0,0.8,0.3,1.3,0.6,1.6c0.4,0.4,0.9,0.6,1.5,0.6c0.5,0,0.9,0,1.3-0.1c0.4-0.1,0.8-0.3,1.3-0.4v1.3
		c-0.4,0.1-0.8,0.4-1.1,0.4S646,302.2,645.5,302.2z M645.2,295.6c-0.5,0-0.9,0.1-1.3,0.5c-0.3,0.4-0.5,0.8-0.5,1.4h3.4
		c0-0.6-0.1-1.1-0.5-1.4C646.1,295.8,645.7,295.6,645.2,295.6z"/>
</g>
<g>
	<g>
		<path class="st2" d="M555.8,167.8h-1.6v-10h5.6v1.4h-4v3.2h3.8v1.4h-3.8v4H555.8z"/>
		<path class="st2" d="M561.4,158.3c0-0.3,0.1-0.5,0.3-0.6c0.1-0.1,0.4-0.3,0.6-0.3s0.5,0.1,0.6,0.3c0.1,0.1,0.3,0.4,0.3,0.6
			s-0.1,0.5-0.3,0.6c-0.1,0.1-0.4,0.3-0.6,0.3s-0.5-0.1-0.6-0.3C561.5,158.8,561.4,158.6,561.4,158.3z M563.2,167.8h-1.6v-7.5h1.6
			V167.8z"/>
		<path class="st2" d="M572,167.8h-1.6v-4.7c0-0.6-0.1-1-0.4-1.3c-0.3-0.3-0.6-0.4-1.1-0.4c-0.6,0-1.1,0.3-1.5,0.6s-0.5,1-0.5,2v3.8
			h-1.4v-7.6h1.3l0.3,1h0.1c0.3-0.4,0.5-0.6,1-0.9c0.4-0.3,0.9-0.3,1.4-0.3c1.8,0,2.7,0.9,2.7,2.8v4.8H572z"/>
		<path class="st2" d="M579,167.8l-0.4-1l0,0c-0.4,0.5-0.8,0.8-1.1,0.9c-0.4,0.1-0.9,0.3-1.4,0.3c-0.8,0-1.3-0.3-1.8-0.6
			c-0.4-0.4-0.6-1-0.6-1.6c0-0.8,0.3-1.4,0.9-1.8c0.6-0.4,1.4-0.6,2.7-0.6h1.3v-0.4c0-0.5-0.1-0.9-0.4-1.1c-0.3-0.3-0.6-0.4-1-0.4
			s-0.8,0-1.1,0.1c-0.4,0.1-0.6,0.3-1,0.4l-0.5-1.1c0.4-0.3,0.9-0.4,1.4-0.5c0.5-0.1,0.9-0.1,1.4-0.1c1,0,1.6,0.3,2.1,0.6
			s0.8,1,0.8,2v5.1L579,167.8L579,167.8z M576.6,166.7c0.6,0,1-0.1,1.4-0.5c0.4-0.4,0.5-0.8,0.5-1.4v-0.6h-1c-0.8,0-1.3,0.1-1.6,0.4
			s-0.5,0.5-0.5,1c0,0.4,0.1,0.6,0.3,0.8C575.8,166.7,576.2,166.7,576.6,166.7z"/>
		<path class="st2" d="M588.8,167.8h-1.6v-4.7c0-0.6-0.1-1-0.4-1.3c-0.3-0.3-0.6-0.4-1.1-0.4c-0.6,0-1.1,0.3-1.5,0.6s-0.5,1-0.5,2
			v3.8H582v-7.6h1.3l0.3,1h0.1c0.3-0.4,0.5-0.6,1-0.9c0.4-0.3,0.9-0.3,1.4-0.3c1.8,0,2.7,0.9,2.7,2.8v4.8H588.8z"/>
		<path class="st2" d="M594.1,168c-1.1,0-2-0.4-2.5-1c-0.6-0.6-0.9-1.6-0.9-2.9s0.3-2.3,0.9-2.9c0.6-0.6,1.5-1,2.7-1
			c0.8,0,1.5,0.1,2.1,0.4l-0.5,1.3c-0.6-0.3-1.3-0.4-1.6-0.4c-1.3,0-1.9,0.9-1.9,2.5c0,0.9,0.1,1.5,0.5,1.9s0.8,0.6,1.4,0.6
			c0.8,0,1.4-0.1,2-0.5v1.4c-0.3,0.1-0.6,0.3-0.9,0.4C595.1,167.8,594.6,168,594.1,168z"/>
		<path class="st2" d="M597.9,158.3c0-0.3,0.1-0.5,0.3-0.6c0.1-0.1,0.4-0.3,0.6-0.3c0.3,0,0.5,0.1,0.6,0.3c0.1,0.1,0.3,0.4,0.3,0.6
			s-0.1,0.5-0.3,0.6c-0.1,0.1-0.4,0.3-0.6,0.3c-0.3,0-0.5-0.1-0.6-0.3C597.9,158.8,597.9,158.6,597.9,158.3z M599.6,167.8h-1.6v-7.5
			h1.6V167.8z"/>
		<path class="st2" d="M606.5,167.8l-0.4-1l0,0c-0.4,0.5-0.8,0.8-1.1,0.9c-0.4,0.1-0.9,0.3-1.4,0.3c-0.8,0-1.3-0.3-1.8-0.6
			c-0.4-0.4-0.6-1-0.6-1.6c0-0.8,0.3-1.4,0.9-1.8c0.6-0.4,1.4-0.6,2.7-0.6h1.3v-0.4c0-0.5-0.1-0.9-0.4-1.1c-0.3-0.3-0.6-0.4-1-0.4
			s-0.8,0-1.1,0.1c-0.4,0.1-0.6,0.3-1,0.4l-0.5-1.1c0.4-0.3,0.9-0.4,1.4-0.5c0.5-0.1,0.9-0.1,1.4-0.1c1,0,1.6,0.3,2.1,0.6
			c0.5,0.4,0.8,1,0.8,2v5.1L606.5,167.8L606.5,167.8z M604.2,166.7c0.6,0,1-0.1,1.4-0.5c0.4-0.4,0.5-0.8,0.5-1.4v-0.6h-1
			c-0.8,0-1.3,0.1-1.6,0.4s-0.5,0.5-0.5,1c0,0.4,0.1,0.6,0.3,0.8C603.5,166.7,603.7,166.7,604.2,166.7z"/>
		<path class="st2" d="M611.6,167.8h-1.6v-10.6h1.6V167.8z"/>
		<path class="st2" d="M551.3,181.9c0,0.9-0.4,1.5-1,2c-0.6,0.5-1.5,0.8-2.7,0.8c-1.1,0-2-0.1-2.8-0.5v-1.5c0.5,0.3,0.9,0.4,1.4,0.5
			c0.5,0.1,1,0.1,1.4,0.1c0.6,0,1.1-0.1,1.4-0.4c0.3-0.3,0.5-0.6,0.5-1s-0.1-0.6-0.4-0.9c-0.3-0.3-0.9-0.5-1.8-0.9s-1.5-0.8-1.9-1.3
			c-0.4-0.5-0.5-1-0.5-1.6c0-0.9,0.3-1.5,0.9-1.9s1.4-0.8,2.4-0.8s1.9,0.3,2.8,0.6l-0.5,1.3c-0.9-0.4-1.6-0.5-2.4-0.5
			c-0.5,0-0.9,0.1-1.1,0.4s-0.4,0.5-0.4,0.9c0,0.3,0,0.5,0.1,0.6s0.3,0.4,0.5,0.5c0.3,0.1,0.8,0.4,1.4,0.6c0.8,0.3,1.3,0.6,1.6,0.9
			s0.6,0.5,0.8,0.9C551.1,181.1,551.3,181.4,551.3,181.9z"/>
		<path class="st2" d="M555.8,183.4c0.4,0,0.8,0,1.1-0.1v1.3c-0.1,0.1-0.4,0.1-0.6,0.3c-0.3,0-0.5,0.1-0.9,0.1
			c-1.5,0-2.3-0.8-2.3-2.4v-4h-1v-0.8l1.1-0.6l0.5-1.6h1v1.6h2.1v1.3h-2.1v4c0,0.4,0.1,0.6,0.3,0.9
			C555.3,183.3,555.6,183.4,555.8,183.4z"/>
		<path class="st2" d="M563.3,184.5l-0.4-1l0,0c-0.4,0.5-0.8,0.8-1.1,0.9c-0.4,0.1-0.9,0.3-1.4,0.3c-0.8,0-1.3-0.3-1.8-0.6
			c-0.4-0.4-0.6-1-0.6-1.6c0-0.8,0.3-1.4,0.9-1.8c0.6-0.4,1.4-0.6,2.7-0.6h1.3v-0.4c0-0.5-0.1-0.9-0.4-1.1c-0.3-0.3-0.6-0.4-1-0.4
			c-0.4,0-0.8,0-1.1,0.1c-0.4,0.1-0.6,0.3-1,0.4l-0.5-1.1c0.4-0.3,0.9-0.4,1.4-0.5c0.5-0.1,0.9-0.1,1.4-0.1c1,0,1.6,0.3,2.1,0.6
			c0.5,0.4,0.8,1,0.8,2v5.1L563.3,184.5L563.3,184.5z M560.9,183.4c0.6,0,1-0.1,1.4-0.5c0.4-0.4,0.5-0.8,0.5-1.4v-0.6h-1
			c-0.8,0-1.3,0.1-1.6,0.4c-0.4,0.3-0.5,0.5-0.5,1c0,0.4,0.1,0.6,0.3,0.8C560.1,183.4,560.5,183.4,560.9,183.4z"/>
		<path class="st2" d="M569.5,183.4c0.4,0,0.8,0,1.1-0.1v1.3c-0.1,0.1-0.4,0.1-0.6,0.3c-0.3,0-0.5,0.1-0.9,0.1
			c-1.5,0-2.3-0.8-2.3-2.4v-4h-1v-0.8l1.1-0.6l0.5-1.6h1v1.6h2v1.3h-2.1v4c0,0.4,0.1,0.6,0.3,0.9
			C568.8,183.3,569.1,183.4,569.5,183.4z"/>
		<path class="st2" d="M575.4,184.6c-1.1,0-2-0.4-2.8-1c-0.6-0.6-1-1.6-1-2.8c0-1.3,0.3-2.1,0.9-2.9s1.4-1,2.5-1
			c1,0,1.8,0.3,2.4,0.9s0.9,1.4,0.9,2.5v0.9h-5.1c0,0.8,0.3,1.3,0.6,1.6s0.9,0.6,1.5,0.6c0.5,0,0.9,0,1.3-0.1s0.8-0.3,1.3-0.4v1.3
			c-0.4,0.1-0.8,0.4-1.1,0.4S575.9,184.6,575.4,184.6z M575,178.1c-0.5,0-0.9,0.1-1.3,0.5c-0.3,0.4-0.5,0.8-0.5,1.4h3.4
			c0-0.6-0.1-1.1-0.5-1.4C575.9,178.2,575.5,178.1,575,178.1z"/>
		<path class="st2" d="M586.4,184.5h-1.6v-4.7c0-0.6-0.1-1-0.4-1.3c-0.3-0.3-0.5-0.4-1-0.4c-0.6,0-1,0.3-1.4,0.6
			c-0.3,0.4-0.4,1-0.4,2v3.8H580v-7.5h1.3l0.3,1h0.1c0.3-0.4,0.5-0.6,0.9-0.9s0.9-0.3,1.3-0.3c1.1,0,1.9,0.4,2.3,1.1h0.1
			c0.3-0.4,0.5-0.6,0.9-0.9s0.9-0.3,1.4-0.3c0.9,0,1.5,0.3,1.9,0.6s0.6,1.1,0.6,2v4.9h-1.6V180c0-0.6-0.1-1-0.4-1.3s-0.5-0.4-1-0.4
			c-0.6,0-1,0.3-1.4,0.6c-0.3,0.4-0.4,1-0.4,1.8v3.8H586.4z"/>
		<path class="st2" d="M596.7,184.6c-1.1,0-2-0.4-2.8-1c-0.6-0.6-1-1.6-1-2.8c0-1.3,0.3-2.1,0.9-2.9s1.4-1,2.5-1
			c1,0,1.8,0.3,2.4,0.9s0.9,1.4,0.9,2.5v0.9h-5.1c0,0.8,0.3,1.3,0.6,1.6s0.9,0.6,1.5,0.6c0.5,0,0.9,0,1.3-0.1
			c0.4-0.1,0.8-0.3,1.3-0.4v1.3c-0.4,0.1-0.8,0.4-1.1,0.4S597.2,184.6,596.7,184.6z M596.4,178.1c-0.5,0-0.9,0.1-1.3,0.5
			c-0.3,0.4-0.5,0.8-0.5,1.4h3.4c0-0.6-0.1-1.1-0.5-1.4C597.3,178.2,596.9,178.1,596.4,178.1z"/>
		<path class="st2" d="M608,184.5h-1.6v-4.7c0-0.6-0.1-1-0.4-1.3c-0.3-0.3-0.6-0.4-1.1-0.4c-0.6,0-1.1,0.3-1.5,0.6
			c-0.4,0.4-0.5,1-0.5,2v3.8h-1.6v-7.5h1.3l0.3,1h0.1c0.3-0.4,0.5-0.6,1-0.9c0.4-0.3,0.9-0.3,1.4-0.3c1.8,0,2.7,0.9,2.7,2.8v4.7H608
			z"/>
		<path class="st2" d="M613.1,183.4c0.4,0,0.8,0,1.1-0.1v1.3c-0.1,0.1-0.4,0.1-0.6,0.3c-0.3,0-0.5,0.1-0.9,0.1
			c-1.5,0-2.3-0.8-2.3-2.4v-4h-1v-0.8l1.1-0.6l0.5-1.6h1v1.6h2.1v1.3h-2.1v4c0,0.4,0.1,0.6,0.3,0.9
			C612.5,183.3,612.7,183.4,613.1,183.4z"/>
		<path class="st2" d="M620.8,182.4c0,0.8-0.3,1.3-0.8,1.6c-0.5,0.4-1.3,0.6-2.3,0.6s-1.8-0.1-2.4-0.5v-1.4c0.9,0.4,1.6,0.6,2.4,0.6
			c1,0,1.5-0.3,1.5-0.9c0-0.3,0-0.4-0.1-0.5c-0.1-0.1-0.3-0.3-0.5-0.4c-0.3-0.1-0.6-0.3-1-0.5c-0.9-0.4-1.4-0.6-1.8-1
			c-0.3-0.4-0.5-0.8-0.5-1.3c0-0.6,0.3-1.1,0.8-1.5c0.5-0.4,1.3-0.5,2.1-0.5c0.9,0,1.8,0.1,2.5,0.5l-0.5,1.3c-0.8-0.4-1.5-0.5-2-0.5
			c-0.9,0-1.3,0.3-1.3,0.8c0,0.3,0.1,0.4,0.4,0.6c0.3,0.3,0.8,0.4,1.4,0.6s1,0.5,1.4,0.6c0.3,0.3,0.5,0.4,0.6,0.6
			C620.7,181.7,620.8,182,620.8,182.4z"/>
	</g>
</g>
<g>
	<g>
		<path class="st2" d="M630.2,60.1c0,1-0.4,1.8-1,2.4s-1.6,0.9-2.9,0.9h-1v3.7h-1.6v-10h2.9c1.3,0,2.1,0.3,2.8,0.8
			C629.9,58.5,630.2,59.2,630.2,60.1z M625.2,62h0.9c0.9,0,1.4-0.1,1.9-0.4c0.5-0.3,0.6-0.8,0.6-1.4c0-0.6-0.1-1-0.5-1.3
			c-0.4-0.3-0.9-0.4-1.6-0.4h-1.1V62H625.2z"/>
		<path class="st2" d="M638.6,63.3c0,1.3-0.3,2.1-0.9,2.9c-0.6,0.8-1.5,1-2.7,1c-0.8,0-1.3-0.1-1.9-0.5c-0.5-0.4-1-0.8-1.3-1.4
			c-0.3-0.6-0.4-1.3-0.4-2c0-1.3,0.3-2.1,0.9-2.9s1.5-1,2.7-1c1.1,0,1.9,0.4,2.5,1C638.4,61.2,638.6,62.1,638.6,63.3z M633.2,63.3
			c0,1.8,0.6,2.7,1.9,2.7s1.9-0.9,1.9-2.7c0-1.8-0.6-2.5-1.9-2.5c-0.6,0-1.1,0.3-1.5,0.6S633.2,62.5,633.2,63.3z"/>
		<path class="st2" d="M645.6,64.9c0,0.8-0.3,1.3-0.8,1.6c-0.5,0.4-1.3,0.6-2.3,0.6s-1.8-0.1-2.4-0.5v-1.4c0.9,0.4,1.6,0.6,2.4,0.6
			c1,0,1.5-0.3,1.5-0.9c0-0.3,0-0.4-0.1-0.5c-0.1-0.1-0.3-0.3-0.5-0.4c-0.3-0.1-0.6-0.3-1-0.5c-0.9-0.4-1.4-0.6-1.8-1
			c-0.3-0.4-0.5-0.8-0.5-1.3c0-0.6,0.3-1.1,0.8-1.5c0.5-0.4,1.3-0.5,2.1-0.5s1.8,0.1,2.5,0.5l-0.5,1.3c-0.8-0.4-1.5-0.5-2-0.5
			c-0.9,0-1.3,0.3-1.3,0.8c0,0.3,0.1,0.4,0.4,0.6s0.8,0.4,1.4,0.6s1,0.5,1.4,0.6c0.3,0.3,0.5,0.4,0.6,0.6
			C645.5,64.3,645.6,64.5,645.6,64.9z"/>
		<path class="st2" d="M650,65.9c0.4,0,0.8,0,1.1-0.1v1.3c-0.1,0.1-0.4,0.1-0.6,0.3c-0.3,0-0.5,0.1-0.9,0.1c-1.5,0-2.3-0.8-2.3-2.4
			v-4h-1v-0.8l1.1-0.6L648,58h1v1.6h2.1v1.3H649v4c0,0.4,0.1,0.6,0.3,0.9C649.5,65.8,649.8,65.9,650,65.9z"/>
		<path class="st2" d="M655.7,64v-1.4h3.5V64H655.7z"/>
		<path class="st2" d="M668.8,58.5c-0.9,0-1.6,0.4-2.1,1c-0.5,0.6-0.8,1.5-0.8,2.8s0.3,2.1,0.8,2.8c0.5,0.6,1.3,0.9,2.3,0.9
			c0.4,0,0.9,0,1.3-0.1c0.4-0.1,0.8-0.3,1.3-0.4v1.4c-0.8,0.3-1.6,0.4-2.7,0.4c-1.4,0-2.5-0.4-3.3-1.3c-0.8-0.9-1.1-2.1-1.1-3.8
			c0-1,0.1-1.9,0.5-2.7c0.4-0.8,0.9-1.4,1.6-1.8c0.8-0.4,1.5-0.6,2.5-0.6s1.9,0.3,2.8,0.6l-0.6,1.4c-0.4-0.1-0.6-0.3-1-0.4
			C669.6,58.5,669.2,58.5,668.8,58.5z"/>
		<path class="st2" d="M674.8,67.1h-1.6V56.4h1.6V67.1z"/>
		<path class="st2" d="M683.8,63.3c0,1.3-0.3,2.1-0.9,2.9c-0.6,0.8-1.5,1-2.7,1c-0.8,0-1.3-0.1-1.9-0.5c-0.5-0.4-1-0.8-1.3-1.4
			c-0.3-0.6-0.4-1.3-0.4-2c0-1.3,0.3-2.1,0.9-2.9s1.5-1,2.7-1c1.1,0,1.9,0.4,2.5,1C683.5,61.2,683.8,62.1,683.8,63.3z M678.3,63.3
			c0,1.8,0.6,2.7,1.9,2.7c1.3,0,1.9-0.9,1.9-2.7c0-1.8-0.6-2.5-1.9-2.5c-0.6,0-1.1,0.3-1.5,0.6S678.3,62.5,678.3,63.3z"/>
		<path class="st2" d="M690.7,64.9c0,0.8-0.3,1.3-0.8,1.6c-0.5,0.4-1.3,0.6-2.3,0.6c-1,0-1.8-0.1-2.4-0.5v-1.4
			c0.9,0.4,1.6,0.6,2.4,0.6c1,0,1.5-0.3,1.5-0.9c0-0.3,0-0.4-0.1-0.5c-0.1-0.1-0.3-0.3-0.5-0.4s-0.6-0.3-1-0.5
			c-0.9-0.4-1.4-0.6-1.8-1c-0.3-0.4-0.5-0.8-0.5-1.3c0-0.6,0.3-1.1,0.8-1.5c0.5-0.4,1.3-0.5,2.1-0.5c0.9,0,1.8,0.1,2.5,0.5l-0.5,1.3
			c-0.8-0.4-1.5-0.5-2-0.5c-0.9,0-1.3,0.3-1.3,0.8c0,0.3,0.1,0.4,0.4,0.6s0.8,0.4,1.4,0.6s1,0.5,1.4,0.6c0.3,0.3,0.5,0.4,0.6,0.6
			C690.6,64.3,690.7,64.5,690.7,64.9z"/>
		<path class="st2" d="M692.2,57.6c0-0.3,0.1-0.5,0.3-0.6c0.1-0.1,0.4-0.3,0.6-0.3c0.3,0,0.5,0.1,0.6,0.3c0.1,0.1,0.3,0.4,0.3,0.6
			s-0.1,0.5-0.3,0.6c-0.1,0.1-0.4,0.3-0.6,0.3c-0.3,0-0.5-0.1-0.6-0.3C692.4,58.1,692.2,57.8,692.2,57.6z M694,67.1h-1.6v-7.5h1.6
			V67.1z"/>
		<path class="st2" d="M702.9,67.1h-1.6v-4.7c0-0.6-0.1-1-0.4-1.3s-0.6-0.4-1.1-0.4c-0.6,0-1.1,0.3-1.5,0.6s-0.5,1-0.5,2v3.8H696
			v-7.5h1.3l0.3,1h0.1c0.3-0.4,0.5-0.6,1-0.9c0.4-0.3,0.9-0.3,1.4-0.3c1.8,0,2.7,0.9,2.7,2.8v4.7H702.9z"/>
		<path class="st2" d="M711.5,59.6v0.9l-1.3,0.3c0.1,0.1,0.3,0.4,0.3,0.6s0.1,0.5,0.1,0.8c0,0.8-0.3,1.4-0.8,1.8
			c-0.5,0.5-1.3,0.6-2.1,0.6c-0.3,0-0.5,0-0.6,0c-0.4,0.3-0.5,0.5-0.5,0.8c0,0.1,0.1,0.3,0.3,0.4c0.1,0.1,0.5,0.1,0.9,0.1h1.3
			c0.9,0,1.5,0.1,1.9,0.5s0.6,0.9,0.6,1.5c0,0.9-0.4,1.5-1,2c-0.8,0.5-1.8,0.6-3,0.6c-1,0-1.8-0.1-2.4-0.5s-0.8-0.9-0.8-1.5
			c0-0.5,0.1-0.9,0.4-1.1c0.3-0.3,0.8-0.5,1.3-0.6c-0.3-0.1-0.4-0.3-0.5-0.4c-0.1-0.3-0.3-0.4-0.3-0.6s0.1-0.5,0.3-0.8
			c0.1-0.3,0.4-0.4,0.8-0.6c-0.4-0.1-0.8-0.4-0.9-0.8c-0.3-0.4-0.4-0.8-0.4-1.3c0-0.8,0.3-1.4,0.8-1.9c0.5-0.5,1.3-0.6,2.1-0.6
			c0.3,0,0.4,0,0.6,0s0.4,0,0.5,0.1h2.5V59.6z M705.5,68.2c0,0.4,0.1,0.6,0.5,0.8s0.8,0.3,1.3,0.3c0.9,0,1.5-0.1,1.9-0.4
			s0.6-0.6,0.6-1s-0.1-0.5-0.4-0.8c-0.3-0.1-0.6-0.3-1.3-0.3h-1.3c-0.5,0-0.8,0.1-1.1,0.4C705.6,67.6,705.5,67.9,705.5,68.2z
			 M706.3,62c0,0.5,0.1,0.9,0.4,1.1s0.6,0.4,1,0.4c0.9,0,1.4-0.5,1.4-1.5c0-0.5-0.1-0.9-0.4-1.1c-0.3-0.3-0.6-0.4-1-0.4
			c-0.5,0-0.8,0.1-1,0.4C706.4,61.1,706.3,61.5,706.3,62z"/>
		<path class="st2" d="M628.6,83.8H627v-8.6h-2.9v-1.4h7.5v1.4h-2.9V83.8z"/>
		<path class="st2" d="M636.7,76.2c0.4,0,0.6,0,0.8,0.1l-0.1,1.5c-0.3,0-0.5-0.1-0.8-0.1c-0.6,0-1.1,0.3-1.5,0.6s-0.6,1-0.6,1.6v3.9
			h-1.6v-7.5h1.3l0.3,1.3h0.1c0.3-0.5,0.6-0.8,1-1C635.9,76.3,636.2,76.2,636.7,76.2z"/>
		<path class="st2" d="M638.8,74.3c0-0.3,0.1-0.5,0.3-0.6c0.1-0.1,0.4-0.3,0.6-0.3c0.3,0,0.5,0.1,0.6,0.3c0.1,0.1,0.3,0.4,0.3,0.6
			c0,0.3-0.1,0.5-0.3,0.6c-0.1,0.1-0.4,0.3-0.6,0.3c-0.3,0-0.5-0.1-0.6-0.3C638.9,74.8,638.8,74.5,638.8,74.3z M640.5,83.8h-1.6
			v-7.5h1.6V83.8z"/>
		<path class="st2" d="M647.5,83.8l-0.4-1l0,0c-0.4,0.5-0.8,0.8-1.1,0.9s-0.9,0.3-1.4,0.3c-0.8,0-1.3-0.3-1.8-0.6
			c-0.4-0.4-0.6-1-0.6-1.6c0-0.8,0.3-1.4,0.9-1.8s1.4-0.6,2.7-0.6h1.3v-0.4c0-0.5-0.1-0.9-0.4-1.1c-0.3-0.3-0.6-0.4-1-0.4
			s-0.8,0-1.1,0.1c-0.4,0.1-0.6,0.3-1,0.4l-0.5-1.1c0.4-0.3,0.9-0.4,1.4-0.5c0.5-0.1,0.9-0.1,1.4-0.1c1,0,1.6,0.3,2.1,0.6
			c0.5,0.4,0.8,1,0.8,2v5.1L647.5,83.8L647.5,83.8z M645.1,82.7c0.6,0,1-0.1,1.4-0.5s0.5-0.8,0.5-1.4v-0.6h-1
			c-0.8,0-1.3,0.1-1.6,0.4c-0.4,0.3-0.5,0.5-0.5,1c0,0.4,0.1,0.6,0.3,0.8C644.4,82.6,644.7,82.7,645.1,82.7z"/>
		<path class="st2" d="M652.4,83.8h-1.6V73.1h1.6V83.8z"/>
		<path class="st2" d="M658.5,73.9h2.9c1.4,0,2.4,0.3,2.9,0.6c0.5,0.4,0.9,1,0.9,1.9c0,0.6-0.1,1-0.5,1.4c-0.4,0.4-0.8,0.6-1.3,0.8
			v0.1c0.8,0.1,1.3,0.4,1.5,0.8c0.4,0.4,0.5,0.9,0.5,1.5c0,0.9-0.3,1.6-0.9,2.1c-0.6,0.5-1.5,0.8-2.7,0.8h-3.5v-10H658.5z
			 M660.1,77.9h1.5c0.6,0,1.1-0.1,1.5-0.4c0.3-0.3,0.5-0.6,0.5-1.1s-0.1-0.8-0.5-1c-0.4-0.3-0.9-0.3-1.6-0.3h-1.4
			C660.1,75.2,660.1,77.9,660.1,77.9z M660.1,79.3v3.2h1.8c0.6,0,1.1-0.1,1.5-0.4c0.4-0.3,0.5-0.6,0.5-1.3c0-0.5-0.1-0.9-0.5-1.1
			c-0.4-0.3-0.9-0.4-1.6-0.4C661.8,79.3,660.1,79.3,660.1,79.3z"/>
		<path class="st2" d="M672.3,83.8l-0.4-1l0,0c-0.4,0.5-0.8,0.8-1.1,0.9s-0.9,0.3-1.4,0.3c-0.8,0-1.3-0.3-1.8-0.6
			c-0.4-0.4-0.6-1-0.6-1.6c0-0.8,0.3-1.4,0.9-1.8s1.4-0.6,2.7-0.6h1.3v-0.4c0-0.5-0.1-0.9-0.4-1.1c-0.3-0.3-0.6-0.4-1-0.4
			c-0.4,0-0.8,0-1.1,0.1c-0.4,0.1-0.6,0.3-1,0.4l-0.5-1.1c0.4-0.3,0.9-0.4,1.4-0.5c0.5-0.1,0.9-0.1,1.4-0.1c1,0,1.6,0.3,2.1,0.6
			c0.5,0.4,0.8,1,0.8,2v5.1L672.3,83.8L672.3,83.8z M669.9,82.7c0.6,0,1-0.1,1.4-0.5c0.4-0.4,0.5-0.8,0.5-1.4v-0.6h-1
			c-0.8,0-1.3,0.1-1.6,0.4c-0.4,0.3-0.5,0.5-0.5,1c0,0.4,0.1,0.6,0.3,0.8C669.1,82.6,669.5,82.7,669.9,82.7z"/>
		<path class="st2" d="M677.2,83.8h-1.6V73.1h1.6V83.8z"/>
		<path class="st2" d="M684.1,83.8l-0.4-1l0,0c-0.4,0.5-0.8,0.8-1.1,0.9s-0.9,0.3-1.4,0.3c-0.8,0-1.3-0.3-1.8-0.6
			c-0.4-0.4-0.6-1-0.6-1.6c0-0.8,0.3-1.4,0.9-1.8s1.4-0.6,2.7-0.6h1.3v-0.4c0-0.5-0.1-0.9-0.4-1.1c-0.3-0.3-0.6-0.4-1-0.4
			c-0.4,0-0.8,0-1.1,0.1c-0.4,0.1-0.6,0.3-1,0.4l-0.5-1.1c0.4-0.3,0.9-0.4,1.4-0.5c0.5-0.1,0.9-0.1,1.4-0.1c1,0,1.6,0.3,2.1,0.6
			c0.5,0.4,0.8,1,0.8,2v5.1L684.1,83.8L684.1,83.8z M681.7,82.7c0.6,0,1-0.1,1.4-0.5c0.4-0.4,0.5-0.8,0.5-1.4v-0.6h-1
			c-0.8,0-1.3,0.1-1.6,0.4c-0.4,0.3-0.5,0.5-0.5,1c0,0.4,0.1,0.6,0.3,0.8C681.1,82.6,681.4,82.7,681.7,82.7z"/>
		<path class="st2" d="M694.1,83.8h-1.6v-4.7c0-0.6-0.1-1-0.4-1.3c-0.3-0.3-0.6-0.4-1.1-0.4c-0.6,0-1.1,0.3-1.5,0.6s-0.5,1-0.5,2
			v3.8h-1.6v-7.5h1.3l0.3,1h0.1c0.3-0.4,0.5-0.6,1-0.9c0.4-0.3,0.9-0.3,1.4-0.3c1.8,0,2.7,0.9,2.7,2.8v4.7H694.1z"/>
		<path class="st2" d="M699.3,83.9c-1.1,0-2-0.4-2.5-1c-0.6-0.6-0.9-1.6-0.9-2.9s0.3-2.3,0.9-2.9c0.6-0.6,1.5-1,2.7-1
			c0.8,0,1.5,0.1,2.1,0.4l-0.5,1.3c-0.6-0.3-1.3-0.4-1.6-0.4c-1.3,0-1.9,0.9-1.9,2.5c0,0.9,0.1,1.5,0.5,1.9c0.4,0.4,0.8,0.6,1.4,0.6
			c0.8,0,1.4-0.1,2-0.5v1.4c-0.3,0.1-0.6,0.3-0.9,0.4C700.3,83.8,699.8,83.9,699.3,83.9z"/>
		<path class="st2" d="M706.5,83.9c-1.1,0-2-0.4-2.8-1c-0.6-0.6-1-1.6-1-2.8c0-1.3,0.3-2.1,0.9-2.9c0.6-0.8,1.4-1,2.5-1
			c1,0,1.8,0.3,2.4,0.9c0.6,0.6,0.9,1.4,0.9,2.5v0.9h-5.1c0,0.8,0.3,1.3,0.6,1.6s0.9,0.6,1.5,0.6c0.5,0,0.9,0,1.3-0.1
			c0.4-0.1,0.8-0.3,1.3-0.4v1.3c-0.4,0.1-0.8,0.4-1.1,0.4S707,83.9,706.5,83.9z M706.3,77.3c-0.5,0-0.9,0.1-1.3,0.5
			c-0.3,0.4-0.5,0.8-0.5,1.4h3.4c0-0.6-0.1-1.1-0.5-1.4C707.2,77.6,706.8,77.3,706.3,77.3z"/>
	</g>
</g>
<g>
	<circle class="st2" cx="786.7" cy="53.3" r="11.4"/>
	<g>
		<path class="st3" d="M788.4,58.2h-2v-5.7v-0.9v-1c-0.4,0.4-0.6,0.5-0.8,0.6l-1.1,0.9l-1-1.3l3.2-2.5h1.6v9.9H788.4z"/>
	</g>
</g>
<g>
	<circle class="st2" cx="830.5" cy="178.4" r="11.4"/>
	<g>
		<g>
			<path class="st1" d="M834,183.1h-6.8v-1.4l2.4-2.5c0.8-0.8,1.1-1.3,1.4-1.5c0.3-0.3,0.4-0.5,0.5-0.8c0.1-0.3,0.1-0.5,0.1-0.8
				c0-0.4-0.1-0.6-0.4-0.9c-0.3-0.3-0.5-0.3-0.9-0.3s-0.8,0.1-1.1,0.3s-0.8,0.4-1.1,0.8l-1.1-1.3c0.5-0.4,0.9-0.8,1.1-0.9
				c0.3-0.1,0.6-0.3,1-0.4c0.4-0.1,0.8-0.1,1.3-0.1c0.6,0,1.1,0.1,1.6,0.4c0.5,0.3,0.9,0.5,1.1,0.9s0.4,0.9,0.4,1.4
				c0,0.5-0.1,0.9-0.3,1.3c-0.1,0.4-0.4,0.8-0.8,1.3c-0.4,0.4-0.9,1-1.8,1.8l-1.3,1.1v0.1h4.3v1.5H834z"/>
		</g>
	</g>
</g>
<g>
	<circle class="st2" cx="753" cy="280.9" r="11.4"/>
	<g>
		<path class="st3" d="M756.1,277.9c0,0.6-0.1,1.1-0.5,1.5c-0.4,0.4-0.9,0.8-1.5,0.9l0,0c0.8,0.1,1.4,0.4,1.8,0.8
			c0.4,0.4,0.6,0.9,0.6,1.5c0,0.9-0.4,1.6-1,2.1s-1.6,0.8-2.9,0.8c-1,0-2-0.1-2.8-0.5v-1.8c0.4,0.3,0.8,0.4,1.3,0.5
			c0.5,0.1,0.9,0.1,1.4,0.1c0.6,0,1.1-0.1,1.5-0.4c0.4-0.3,0.5-0.6,0.5-1.1s-0.1-0.8-0.5-1c-0.4-0.3-1-0.3-1.8-0.3h-0.8v-1.6h0.8
			c0.8,0,1.3-0.1,1.6-0.3c0.4-0.3,0.5-0.5,0.5-1c0-0.8-0.5-1.1-1.4-1.1c-0.4,0-0.6,0-1,0.1c-0.4,0.1-0.8,0.3-1.1,0.5l-1-1.4
			c0.9-0.6,1.9-1,3.2-1c1,0,1.8,0.3,2.4,0.6C755.8,276.6,756.1,277.2,756.1,277.9z"/>
	</g>
</g>
<g>
	<circle class="st2" cx="623" cy="250.5" r="11.4"/>
	<g>
		<g>
			<path class="st1" d="M626.6,253.2h-1.1v2h-2v-2h-4.2v-1.4l4.3-6.3h1.9v6.1h1.1V253.2z M623.3,251.5v-1.6c0-0.3,0-0.6,0-1.1
				s0-0.9,0-0.9l0,0c-0.1,0.4-0.4,0.8-0.6,1l-1.8,2.7L623.3,251.5L623.3,251.5z"/>
		</g>
	</g>
</g>
<g>
	<circle class="st2" cx="582.5" cy="136.7" r="11.4"/>
	<g>
		<path class="st3" d="M582.6,135.1c0.9,0,1.6,0.3,2.3,0.8s0.9,1.3,0.9,2.1c0,1.1-0.4,1.9-1,2.5c-0.6,0.6-1.6,0.9-2.9,0.9
			c-1.1,0-2-0.1-2.7-0.5v-1.8c0.4,0.1,0.8,0.4,1.3,0.5c0.5,0.1,0.9,0.1,1.3,0.1c1.3,0,1.9-0.5,1.9-1.5c0-1-0.6-1.5-1.9-1.5
			c-0.3,0-0.5,0-0.8,0.1c-0.3,0-0.5,0.1-0.6,0.1l-0.8-0.4l0.4-4.9h5.3v1.8h-3.5l-0.1,1.9h0.3C581.9,135.2,582.2,135.1,582.6,135.1z"
			/>
	</g>
</g>
<g>
	<circle class="st2" cx="667" cy="35.6" r="11.4"/>
	<g>
		<g>
			<path class="st1" d="M663,36.2c0-1.9,0.4-3.4,1.3-4.3c0.8-0.9,2-1.4,3.7-1.4c0.5,0,1,0,1.3,0.1v1.6c-0.4-0.1-0.8-0.1-1.1-0.1
				c-0.8,0-1.3,0.1-1.8,0.4c-0.5,0.3-0.8,0.5-1,0.9s-0.4,1-0.4,1.8h0.1c0.4-0.8,1.1-1.1,2.1-1.1c0.9,0,1.5,0.3,2,0.8
				s0.8,1.3,0.8,2.3s-0.3,1.9-0.9,2.5c-0.6,0.6-1.4,0.9-2.4,0.9c-0.8,0-1.4-0.1-1.9-0.5c-0.5-0.4-1-0.8-1.3-1.5
				C663.2,37.9,663,37.1,663,36.2z M666.6,38.7c0.4,0,0.8-0.1,1-0.5s0.4-0.8,0.4-1.3s-0.1-0.9-0.4-1.1s-0.5-0.4-1-0.4
				c-0.4,0-0.8,0.1-1,0.4c-0.3,0.3-0.5,0.6-0.5,0.9c0,0.5,0.1,1,0.4,1.4C665.7,38.5,666.1,38.7,666.6,38.7z"/>
		</g>
	</g>
</g>
</svg>
