<?xml version="1.0" encoding="utf-8"?>
<!-- Generator: Adobe Illustrator 24.0.0, SVG Export Plug-In . SVG Version: 6.00 Build 0)  -->
<svg version="1.1" id="Layer_1" xmlns="http://www.w3.org/2000/svg" xmlns:xlink="http://www.w3.org/1999/xlink" x="0px" y="0px"
	 width="287px" height="287px" viewBox="0 0 287 287" style="enable-background:new 0 0 287 287;" xml:space="preserve">
<style type="text/css">
	.st0{fill:#5B9BD4;}
	.st1{fill:#7E7E7E;}
	.st2{fill:#FFFFFF;}
	.st3{fill:#4482C9;}
</style>
<g>
	<g>
		<path class="st0" d="M150.4,83c19.3,2.4,35.8,13.7,45.2,29.7l44.5-1.2l23.5-38.7C240.5,33.6,198.9,6.6,150.8,3.9l21.3,38.9
			L150.4,83z"/>
		<path class="st1" d="M199.4,120.4c3,7.2,4.6,15,4.6,23.3c0,11.2-3,21.7-8.3,30.7l23.3,37.9l45.3,1c11.8-20.5,18.5-44.3,18.5-69.7
			c0-22.7-5.4-44.1-14.9-63l-23.4,38.5L199.4,120.4z"/>
		<path class="st1" d="M94.1,106.8c11-14.5,28.2-23.9,47.7-24.3l21.5-39.7L141.9,3.7C93.5,4,51,28.9,26.1,66.4l43.7,1L94.1,106.8z"
			/>
		<path class="st0" d="M86.3,167c-3-7.2-4.6-15-4.6-23.3c0-10.8,2.8-20.9,7.7-29.7L65.5,75l-44.1-1C9.6,94.6,2.9,118.3,2.9,143.7
			c0,22.2,5.2,43.2,14.4,61.9l22.7-37.4L86.3,167z"/>
		<path class="st1" d="M134.2,204.2c-18.8-2.7-34.8-13.9-44.1-29.6l-45.7,1.2l-22.9,37.7c22.7,39.4,64.1,66.7,112.1,69.8l-21.3-38.8
			L134.2,204.2z"/>
		<path class="st0" d="M191,181.5c-11.2,14.2-28.6,23.4-48.1,23.4c-0.1,0-0.1,0-0.2,0l-21.5,39.7l21.5,39.2c0.1,0,0.2,0,0.2,0
			c48.7,0,91.6-24.9,116.7-62.7l-45-1L191,181.5z"/>
	</g>
</g>
<g>
	<g>
		<path class="st0" d="M100.6,142.2l-0.7,3.4h-2.8l3.2-14.8h3.5l2.9,14.8h-2.8l-0.6-3.4H100.6z M103,140l-0.5-3.1
			c-0.2-0.9-0.4-2.4-0.5-3.4H102c-0.2,1-0.4,2.5-0.5,3.4l-0.5,3.1H103z"/>
		<path class="st0" d="M115.1,145.4c-0.4,0.2-1.2,0.4-2.2,0.4c-3.8,0-5.6-3.1-5.6-7.3c0-5.6,3.1-7.8,6-7.8c1,0,1.7,0.2,2,0.4
			l-0.5,2.4c-0.3-0.2-0.7-0.3-1.3-0.3c-1.6,0-3.1,1.4-3.1,5.1c0,3.5,1.3,4.9,3.1,4.9c0.5,0,1-0.1,1.4-0.2L115.1,145.4z"/>
		<path class="st0" d="M123.5,145.4c-0.4,0.2-1.2,0.4-2.2,0.4c-3.8,0-5.6-3.1-5.6-7.3c0-5.6,3.1-7.8,6-7.8c1,0,1.7,0.2,2,0.4
			l-0.5,2.4c-0.3-0.2-0.7-0.3-1.3-0.3c-1.6,0-3.1,1.4-3.1,5.1c0,3.5,1.3,4.9,3.1,4.9c0.5,0,1-0.1,1.4-0.2L123.5,145.4z"/>
		<path class="st0" d="M133.6,137.9c0,5.6-2,7.9-4.8,7.9c-3.4,0-4.7-3.6-4.7-7.6c0-4,1.6-7.5,4.9-7.5
			C132.6,130.6,133.6,134.6,133.6,137.9z M127.1,138.2c0,3.4,0.6,5.1,1.8,5.1c1.2,0,1.7-2.2,1.7-5.2c0-2.6-0.4-5-1.7-5
			C127.7,133.1,127.1,135,127.1,138.2z"/>
		<path class="st0" d="M138.2,130.8v9.6c0,2.2,0.7,2.8,1.4,2.8c0.8,0,1.4-0.6,1.4-2.8v-9.6h2.9v9.1c0,3.8-1.4,5.9-4.3,5.9
			c-3.1,0-4.3-2.1-4.3-5.9v-9.2H138.2z"/>
		<path class="st0" d="M146.4,145.6v-14.8h2.6l2.3,5.8c0.4,1.1,1.2,3.1,1.6,4.3h0c-0.1-1.6-0.3-4.1-0.3-6.9v-3.3h2.5v14.8h-2.6
			l-2.3-5.6c-0.5-1.3-1.2-3.1-1.5-4.5h0c0.1,1.5,0.2,3.8,0.2,6.8v3.3H146.4z"/>
		<path class="st0" d="M159.4,133.5h-2.6v-2.7h8.1v2.7h-2.6v12.2h-2.9V133.5z"/>
		<path class="st0" d="M169.3,130.8v14.8h-2.9v-14.8H169.3z"/>
		<path class="st0" d="M171.8,145.6v-14.8h2.6l2.3,5.8c0.4,1.1,1.2,3.1,1.6,4.3h0c-0.1-1.6-0.3-4.1-0.3-6.9v-3.3h2.5v14.8H178
			l-2.3-5.6c-0.5-1.3-1.2-3.1-1.5-4.5h0c0.1,1.5,0.2,3.8,0.2,6.8v3.3H171.8z"/>
		<path class="st0" d="M191.4,145.2c-0.6,0.3-2,0.5-3.1,0.5c-1.7,0-3-0.5-4-1.5c-1.3-1.2-2-3.4-1.9-6c0.1-5.4,3.1-7.6,6.3-7.6
			c1.1,0,2,0.2,2.4,0.4l-0.5,2.5c-0.4-0.2-1-0.3-1.7-0.3c-2,0-3.5,1.3-3.5,5.2c0,3.6,1.4,4.8,2.7,4.8c0.3,0,0.5,0,0.6-0.1v-3.6h-1.3
			v-2.4h4V145.2z"/>
		<path class="st0" d="M131,171.8c-0.4,0.2-1.2,0.4-2.2,0.4c-3.8,0-5.6-3.1-5.6-7.3c0-5.6,3.1-7.8,6-7.8c1,0,1.7,0.2,2,0.4l-0.5,2.4
			c-0.3-0.2-0.7-0.3-1.3-0.3c-1.6,0-3.1,1.4-3.1,5.1c0,3.5,1.3,4.9,3.1,4.9c0.5,0,1-0.1,1.4-0.2L131,171.8z"/>
		<path class="st0" d="M135.2,172v-5.7l-3.3-9.2h3.1l1,3.5c0.3,0.9,0.5,2,0.8,3.1h0c0.2-1.1,0.4-2.2,0.7-3.2l0.9-3.5h3l-3.3,9v5.8
			H135.2z"/>
		<path class="st0" d="M149.4,171.8c-0.4,0.2-1.2,0.4-2.2,0.4c-3.8,0-5.6-3.1-5.6-7.3c0-5.6,3.1-7.8,6-7.8c1,0,1.7,0.2,2,0.4
			l-0.5,2.4c-0.3-0.2-0.7-0.3-1.3-0.3c-1.6,0-3.1,1.4-3.1,5.1c0,3.5,1.3,4.9,3.1,4.9c0.5,0,1-0.1,1.4-0.2L149.4,171.8z"/>
		<path class="st0" d="M150.9,157.2h2.9v12.4h3.8v2.4h-6.7V157.2z"/>
		<path class="st0" d="M165.6,165.5h-3.4v4h3.8v2.5h-6.7v-14.8h6.4v2.5h-3.6v3.4h3.4V165.5z"/>
	</g>
</g>
<g>
	<g>
		<path class="st2" d="M185.6,70v-7.9h1.3V70H185.6z"/>
		<path class="st2" d="M190.9,70.1c-0.7,0-1.3-0.3-1.7-0.8s-0.6-1.3-0.6-2.3c0-1,0.2-1.7,0.6-2.3c0.4-0.5,1-0.8,1.7-0.8
			c0.8,0,1.4,0.3,1.8,0.9h0.1c-0.1-0.4-0.1-0.8-0.1-1v-2.2h1.3V70h-1l-0.2-0.8h-0.1C192.2,69.8,191.6,70.1,190.9,70.1z M191.2,69.1
			c0.5,0,0.9-0.1,1.1-0.4c0.2-0.3,0.4-0.8,0.4-1.4V67c0-0.7-0.1-1.3-0.4-1.6c-0.2-0.3-0.6-0.5-1.1-0.5c-0.4,0-0.8,0.2-1,0.5
			c-0.2,0.4-0.4,0.9-0.4,1.5c0,0.7,0.1,1.2,0.3,1.5C190.4,68.9,190.7,69.1,191.2,69.1z"/>
		<path class="st2" d="M198.3,70.1c-0.9,0-1.6-0.3-2.2-0.8c-0.5-0.5-0.8-1.3-0.8-2.2c0-1,0.2-1.7,0.7-2.3c0.5-0.6,1.1-0.8,2-0.8
			c0.8,0,1.4,0.2,1.9,0.7s0.7,1.1,0.7,2v0.7h-4c0,0.6,0.2,1,0.5,1.3c0.3,0.3,0.7,0.5,1.2,0.5c0.4,0,0.7,0,1-0.1
			c0.3-0.1,0.6-0.2,1-0.3v1c-0.3,0.1-0.6,0.3-0.9,0.3S198.7,70.1,198.3,70.1z M198.1,64.9c-0.4,0-0.7,0.1-1,0.4
			c-0.2,0.3-0.4,0.6-0.4,1.1h2.7c0-0.5-0.1-0.9-0.4-1.1C198.8,65,198.5,64.9,198.1,64.9z"/>
		<path class="st2" d="M207.3,70H206v-3.7c0-0.5-0.1-0.8-0.3-1s-0.5-0.3-0.9-0.3c-0.5,0-0.9,0.2-1.2,0.5s-0.4,0.8-0.4,1.6v3H202V64
			h1l0.2,0.8h0.1c0.2-0.3,0.4-0.5,0.8-0.7c0.3-0.2,0.7-0.2,1.1-0.2c1.4,0,2.1,0.7,2.1,2.2V70z"/>
		<path class="st2" d="M211.2,69.1c0.3,0,0.6,0,0.9-0.1v1c-0.1,0.1-0.3,0.1-0.5,0.2c-0.2,0-0.4,0.1-0.7,0.1c-1.2,0-1.8-0.6-1.8-1.9
			V65h-0.8v-0.6l0.9-0.5l0.4-1.3h0.8V64h1.7v1h-1.7v3.2c0,0.3,0.1,0.5,0.2,0.7C210.8,69,211,69.1,211.2,69.1z"/>
		<path class="st2" d="M213.3,62.5c0-0.2,0.1-0.4,0.2-0.5c0.1-0.1,0.3-0.2,0.5-0.2c0.2,0,0.4,0.1,0.5,0.2c0.1,0.1,0.2,0.3,0.2,0.5
			c0,0.2-0.1,0.4-0.2,0.5c-0.1,0.1-0.3,0.2-0.5,0.2c-0.2,0-0.4-0.1-0.5-0.2C213.3,62.9,213.3,62.7,213.3,62.5z M214.6,70h-1.3V64
			h1.3V70z"/>
		<path class="st2" d="M219.4,65h-1.4v5h-1.3v-5h-1v-0.6l1-0.4v-0.4c0-0.7,0.2-1.2,0.5-1.6c0.3-0.3,0.8-0.5,1.5-0.5
			c0.4,0,0.9,0.1,1.3,0.2l-0.3,1c-0.3-0.1-0.6-0.2-0.9-0.2c-0.3,0-0.5,0.1-0.6,0.3c-0.1,0.2-0.2,0.4-0.2,0.8V64h1.4V65z"/>
		<path class="st2" d="M219.5,64h1.4l1.2,3.4c0.2,0.5,0.3,0.9,0.4,1.4h0c0-0.2,0.1-0.4,0.2-0.7c0.1-0.3,0.5-1.6,1.4-4h1.4l-2.5,6.7
			c-0.5,1.2-1.2,1.9-2.3,1.9c-0.3,0-0.6,0-0.8-0.1v-1c0.2,0,0.4,0.1,0.7,0.1c0.6,0,1-0.4,1.3-1.1l0.2-0.6L219.5,64z"/>
		<path class="st2" d="M174.8,83.2h-1.3v-6.8h-2.3v-1.1h5.9v1.1h-2.3V83.2z"/>
		<path class="st2" d="M181.2,77.1c0.3,0,0.5,0,0.6,0.1l-0.1,1.2c-0.2,0-0.4-0.1-0.6-0.1c-0.5,0-0.9,0.2-1.2,0.5s-0.5,0.8-0.5,1.3
			v3.1h-1.3v-5.9h1l0.2,1h0.1c0.2-0.4,0.5-0.6,0.8-0.8C180.5,77.2,180.8,77.1,181.2,77.1z"/>
		<path class="st2" d="M186.6,83.2l-0.3-0.8h0c-0.3,0.4-0.6,0.6-0.9,0.7c-0.3,0.1-0.7,0.2-1.1,0.2c-0.6,0-1-0.2-1.4-0.5
			c-0.3-0.3-0.5-0.8-0.5-1.3c0-0.6,0.2-1.1,0.7-1.4c0.5-0.3,1.1-0.5,2.1-0.5l1,0v-0.3c0-0.4-0.1-0.7-0.3-0.9
			c-0.2-0.2-0.5-0.3-0.8-0.3c-0.3,0-0.6,0-0.9,0.1s-0.5,0.2-0.8,0.3l-0.4-0.9c0.3-0.2,0.7-0.3,1.1-0.4c0.4-0.1,0.7-0.1,1.1-0.1
			c0.8,0,1.3,0.2,1.7,0.5s0.6,0.8,0.6,1.6v4H186.6z M184.7,82.3c0.5,0,0.8-0.1,1.1-0.4c0.3-0.3,0.4-0.6,0.4-1.1v-0.5l-0.8,0
			c-0.6,0-1,0.1-1.3,0.3c-0.3,0.2-0.4,0.4-0.4,0.8c0,0.3,0.1,0.5,0.2,0.6C184.2,82.2,184.4,82.3,184.7,82.3z"/>
		<path class="st2" d="M194.5,83.2h-1.3v-3.7c0-0.5-0.1-0.8-0.3-1s-0.5-0.3-0.9-0.3c-0.5,0-0.9,0.2-1.2,0.5s-0.4,0.8-0.4,1.6v3h-1.3
			v-5.9h1l0.2,0.8h0.1c0.2-0.3,0.4-0.5,0.8-0.7c0.3-0.2,0.7-0.2,1.1-0.2c1.4,0,2.1,0.7,2.1,2.2V83.2z"/>
		<path class="st2" d="M200.2,81.5c0,0.6-0.2,1-0.6,1.3c-0.4,0.3-1,0.5-1.8,0.5c-0.8,0-1.4-0.1-1.9-0.4v-1.1
			c0.7,0.3,1.3,0.5,1.9,0.5c0.8,0,1.2-0.2,1.2-0.7c0-0.2,0-0.3-0.1-0.4s-0.2-0.2-0.4-0.3c-0.2-0.1-0.5-0.2-0.8-0.4
			c-0.7-0.3-1.1-0.5-1.4-0.8c-0.2-0.3-0.4-0.6-0.4-1c0-0.5,0.2-0.9,0.6-1.2c0.4-0.3,1-0.4,1.7-0.4c0.7,0,1.4,0.1,2,0.4l-0.4,1
			c-0.6-0.3-1.2-0.4-1.6-0.4c-0.7,0-1,0.2-1,0.6c0,0.2,0.1,0.3,0.3,0.5s0.6,0.3,1.1,0.5c0.5,0.2,0.8,0.4,1.1,0.5
			c0.2,0.2,0.4,0.3,0.5,0.5C200.2,81,200.2,81.2,200.2,81.5z"/>
		<path class="st2" d="M205.3,83.2l-0.3-0.8h0c-0.3,0.4-0.6,0.6-0.9,0.7c-0.3,0.1-0.7,0.2-1.1,0.2c-0.6,0-1-0.2-1.4-0.5
			c-0.3-0.3-0.5-0.8-0.5-1.3c0-0.6,0.2-1.1,0.7-1.4c0.5-0.3,1.1-0.5,2.1-0.5l1,0v-0.3c0-0.4-0.1-0.7-0.3-0.9
			c-0.2-0.2-0.5-0.3-0.8-0.3c-0.3,0-0.6,0-0.9,0.1s-0.5,0.2-0.8,0.3l-0.4-0.9c0.3-0.2,0.7-0.3,1.1-0.4c0.4-0.1,0.7-0.1,1.1-0.1
			c0.8,0,1.3,0.2,1.7,0.5s0.6,0.8,0.6,1.6v4H205.3z M203.4,82.3c0.5,0,0.8-0.1,1.1-0.4c0.3-0.3,0.4-0.6,0.4-1.1v-0.5l-0.8,0
			c-0.6,0-1,0.1-1.3,0.3c-0.3,0.2-0.4,0.4-0.4,0.8c0,0.3,0.1,0.5,0.2,0.6C202.9,82.2,203.1,82.3,203.4,82.3z"/>
		<path class="st2" d="M210.4,83.3c-0.9,0-1.6-0.3-2-0.8c-0.5-0.5-0.7-1.3-0.7-2.3c0-1,0.2-1.8,0.7-2.3c0.5-0.5,1.2-0.8,2.1-0.8
			c0.6,0,1.2,0.1,1.7,0.3l-0.4,1c-0.5-0.2-1-0.3-1.3-0.3c-1,0-1.5,0.7-1.5,2c0,0.7,0.1,1.2,0.4,1.5c0.3,0.3,0.6,0.5,1.1,0.5
			c0.6,0,1.1-0.1,1.6-0.4v1.1c-0.2,0.1-0.5,0.2-0.7,0.3S210.7,83.3,210.4,83.3z"/>
		<path class="st2" d="M215.6,82.3c0.3,0,0.6,0,0.9-0.1v1c-0.1,0.1-0.3,0.1-0.5,0.2c-0.2,0-0.4,0.1-0.7,0.1c-1.2,0-1.8-0.6-1.8-1.9
			v-3.2h-0.8v-0.6l0.9-0.5l0.4-1.3h0.8v1.3h1.7v1h-1.7v3.2c0,0.3,0.1,0.5,0.2,0.7C215.2,82.2,215.4,82.3,215.6,82.3z"/>
		<path class="st2" d="M217.7,75.7c0-0.2,0.1-0.4,0.2-0.5c0.1-0.1,0.3-0.2,0.5-0.2c0.2,0,0.4,0.1,0.5,0.2c0.1,0.1,0.2,0.3,0.2,0.5
			c0,0.2-0.1,0.4-0.2,0.5c-0.1,0.1-0.3,0.2-0.5,0.2c-0.2,0-0.4-0.1-0.5-0.2C217.7,76.1,217.7,75.9,217.7,75.7z M219,83.2h-1.3v-5.9
			h1.3V83.2z"/>
		<path class="st2" d="M226.1,80.2c0,1-0.2,1.7-0.7,2.3s-1.2,0.8-2.1,0.8c-0.6,0-1-0.1-1.5-0.4c-0.4-0.3-0.8-0.6-1-1.1
			s-0.3-1-0.3-1.6c0-1,0.2-1.7,0.7-2.3s1.2-0.8,2.1-0.8c0.9,0,1.5,0.3,2,0.8C225.8,78.5,226.1,79.3,226.1,80.2z M221.8,80.2
			c0,1.4,0.5,2.1,1.5,2.1c1,0,1.5-0.7,1.5-2.1c0-1.4-0.5-2-1.5-2c-0.5,0-0.9,0.2-1.2,0.5S221.8,79.5,221.8,80.2z"/>
		<path class="st2" d="M232.8,83.2h-1.3v-3.7c0-0.5-0.1-0.8-0.3-1s-0.5-0.3-0.9-0.3c-0.5,0-0.9,0.2-1.2,0.5s-0.4,0.8-0.4,1.6v3h-1.3
			v-5.9h1l0.2,0.8h0.1c0.2-0.3,0.4-0.5,0.8-0.7c0.3-0.2,0.7-0.2,1.1-0.2c1.4,0,2.1,0.7,2.1,2.2V83.2z"/>
		<path class="st2" d="M238.5,81.5c0,0.6-0.2,1-0.6,1.3c-0.4,0.3-1,0.5-1.8,0.5c-0.8,0-1.4-0.1-1.9-0.4v-1.1
			c0.7,0.3,1.3,0.5,1.9,0.5c0.8,0,1.2-0.2,1.2-0.7c0-0.2,0-0.3-0.1-0.4s-0.2-0.2-0.4-0.3c-0.2-0.1-0.5-0.2-0.8-0.4
			c-0.7-0.3-1.1-0.5-1.4-0.8c-0.2-0.3-0.4-0.6-0.4-1c0-0.5,0.2-0.9,0.6-1.2c0.4-0.3,1-0.4,1.7-0.4c0.7,0,1.4,0.1,2,0.4l-0.4,1
			c-0.6-0.3-1.2-0.4-1.6-0.4c-0.7,0-1,0.2-1,0.6c0,0.2,0.1,0.3,0.3,0.5s0.6,0.3,1.1,0.5c0.5,0.2,0.8,0.4,1.1,0.5
			c0.2,0.2,0.4,0.3,0.5,0.5C238.5,81,238.5,81.2,238.5,81.5z"/>
	</g>
</g>
<g>
	<g>
		<path class="st2" d="M222.7,167.4v3.1h-1.3v-7.9h2.2c1,0,1.8,0.2,2.3,0.6s0.7,1,0.7,1.7c0,1-0.5,1.7-1.5,2.1l2.2,3.5h-1.5
			l-1.9-3.1H222.7z M222.7,166.4h0.9c0.6,0,1-0.1,1.3-0.3s0.4-0.6,0.4-1c0-0.4-0.1-0.8-0.4-1s-0.7-0.3-1.3-0.3h-0.8V166.4z"/>
		<path class="st2" d="M230.9,170.7c-0.9,0-1.6-0.3-2.2-0.8c-0.5-0.5-0.8-1.3-0.8-2.2c0-1,0.2-1.7,0.7-2.3s1.1-0.8,2-0.8
			c0.8,0,1.4,0.2,1.9,0.7c0.5,0.5,0.7,1.1,0.7,2v0.7h-4c0,0.6,0.2,1,0.5,1.3c0.3,0.3,0.7,0.5,1.2,0.5c0.4,0,0.7,0,1-0.1
			c0.3-0.1,0.6-0.2,1-0.3v1c-0.3,0.1-0.6,0.3-0.9,0.3C231.7,170.6,231.3,170.7,230.9,170.7z M230.7,165.5c-0.4,0-0.7,0.1-1,0.4
			c-0.2,0.3-0.4,0.6-0.4,1.1h2.7c0-0.5-0.1-0.9-0.4-1.1C231.4,165.6,231.1,165.5,230.7,165.5z"/>
		<path class="st2" d="M237.1,170.7c-0.9,0-1.6-0.3-2-0.8c-0.5-0.5-0.7-1.3-0.7-2.3c0-1,0.2-1.8,0.7-2.3c0.5-0.5,1.2-0.8,2.1-0.8
			c0.6,0,1.2,0.1,1.7,0.3l-0.4,1c-0.5-0.2-1-0.3-1.3-0.3c-1,0-1.5,0.7-1.5,2c0,0.7,0.1,1.2,0.4,1.5c0.3,0.3,0.6,0.5,1.1,0.5
			c0.6,0,1.1-0.1,1.6-0.4v1.1c-0.2,0.1-0.5,0.2-0.7,0.3S237.4,170.7,237.1,170.7z"/>
		<path class="st2" d="M245.4,167.6c0,1-0.2,1.7-0.7,2.3s-1.2,0.8-2.1,0.8c-0.6,0-1-0.1-1.5-0.4c-0.4-0.3-0.8-0.6-1-1.1
			s-0.3-1-0.3-1.6c0-1,0.2-1.7,0.7-2.3s1.2-0.8,2.1-0.8c0.9,0,1.5,0.3,2,0.8C245.1,165.9,245.4,166.7,245.4,167.6z M241.1,167.6
			c0,1.4,0.5,2.1,1.5,2.1c1,0,1.5-0.7,1.5-2.1c0-1.4-0.5-2-1.5-2c-0.5,0-0.9,0.2-1.2,0.5S241.1,166.9,241.1,167.6z"/>
		<path class="st2" d="M249.8,164.5c0.3,0,0.5,0,0.6,0.1l-0.1,1.2c-0.2,0-0.4-0.1-0.6-0.1c-0.5,0-0.9,0.2-1.2,0.5s-0.5,0.8-0.5,1.3
			v3.1h-1.3v-5.9h1l0.2,1h0.1c0.2-0.4,0.5-0.6,0.8-0.8C249.1,164.6,249.5,164.5,249.8,164.5z"/>
		<path class="st2" d="M253.6,170.7c-0.7,0-1.3-0.3-1.7-0.8s-0.6-1.3-0.6-2.3c0-1,0.2-1.7,0.6-2.3c0.4-0.5,1-0.8,1.7-0.8
			c0.8,0,1.4,0.3,1.8,0.9h0.1c-0.1-0.4-0.1-0.8-0.1-1v-2.2h1.3v8.4h-1l-0.2-0.8h-0.1C255,170.4,254.4,170.7,253.6,170.7z
			 M253.9,169.7c0.5,0,0.9-0.1,1.1-0.4c0.2-0.3,0.4-0.8,0.4-1.4v-0.2c0-0.7-0.1-1.3-0.4-1.6c-0.2-0.3-0.6-0.5-1.1-0.5
			c-0.4,0-0.8,0.2-1,0.5c-0.2,0.4-0.4,0.9-0.4,1.5c0,0.7,0.1,1.2,0.3,1.5C253.1,169.5,253.5,169.7,253.9,169.7z"/>
		<path class="st2" d="M220.4,186c-0.4,0-0.6,0-0.9-0.1v-1.1c0.3,0.1,0.6,0.1,0.8,0.1c0.7,0,1.1-0.4,1.1-1.3v-7.6h1.3v7.6
			c0,0.8-0.2,1.4-0.6,1.8C221.7,185.8,221.2,186,220.4,186z"/>
		<path class="st2" d="M229.9,180.8c0,1-0.2,1.7-0.7,2.3c-0.5,0.5-1.2,0.8-2.1,0.8c-0.6,0-1-0.1-1.5-0.4s-0.8-0.6-1-1.1
			s-0.3-1-0.3-1.6c0-1,0.2-1.7,0.7-2.3s1.2-0.8,2.1-0.8c0.9,0,1.5,0.3,2,0.8C229.6,179.1,229.9,179.9,229.9,180.8z M225.5,180.8
			c0,1.4,0.5,2.1,1.5,2.1c1,0,1.5-0.7,1.5-2.1c0-1.4-0.5-2-1.5-2c-0.5,0-0.9,0.2-1.2,0.5C225.7,179.6,225.5,180.1,225.5,180.8z"/>
		<path class="st2" d="M235.5,183.8l-0.2-0.8h-0.1c-0.2,0.3-0.4,0.5-0.7,0.6s-0.7,0.2-1.1,0.2c-0.7,0-1.3-0.2-1.6-0.5
			s-0.5-0.9-0.5-1.6v-3.9h1.3v3.7c0,0.5,0.1,0.8,0.3,1c0.2,0.2,0.5,0.3,0.9,0.3c0.5,0,0.9-0.2,1.2-0.5c0.2-0.3,0.4-0.8,0.4-1.6v-3
			h1.3v5.9H235.5z"/>
		<path class="st2" d="M241.3,177.7c0.3,0,0.5,0,0.6,0.1l-0.1,1.2c-0.2,0-0.4-0.1-0.6-0.1c-0.5,0-0.9,0.2-1.2,0.5s-0.5,0.8-0.5,1.3
			v3.1h-1.3v-5.9h1l0.2,1h0.1c0.2-0.4,0.5-0.6,0.8-0.8C240.6,177.8,240.9,177.7,241.3,177.7z"/>
		<path class="st2" d="M248.3,183.8H247v-3.7c0-0.5-0.1-0.8-0.3-1s-0.5-0.3-0.9-0.3c-0.5,0-0.9,0.2-1.2,0.5s-0.4,0.8-0.4,1.6v3H243
			v-5.9h1l0.2,0.8h0.1c0.2-0.3,0.4-0.5,0.8-0.7c0.3-0.2,0.7-0.2,1.1-0.2c1.4,0,2.1,0.7,2.1,2.2V183.8z"/>
		<path class="st2" d="M253.7,183.8l-0.3-0.8h0c-0.3,0.4-0.6,0.6-0.9,0.7c-0.3,0.1-0.7,0.2-1.1,0.2c-0.6,0-1-0.2-1.4-0.5
			c-0.3-0.3-0.5-0.8-0.5-1.3c0-0.6,0.2-1.1,0.7-1.4c0.5-0.3,1.1-0.5,2.1-0.5l1,0v-0.3c0-0.4-0.1-0.7-0.3-0.9
			c-0.2-0.2-0.5-0.3-0.8-0.3c-0.3,0-0.6,0-0.9,0.1s-0.5,0.2-0.8,0.3l-0.4-0.9c0.3-0.2,0.7-0.3,1.1-0.4c0.4-0.1,0.7-0.1,1.1-0.1
			c0.8,0,1.3,0.2,1.7,0.5s0.6,0.8,0.6,1.6v4H253.7z M251.9,182.9c0.5,0,0.8-0.1,1.1-0.4c0.3-0.3,0.4-0.6,0.4-1.1v-0.5l-0.8,0
			c-0.6,0-1,0.1-1.3,0.3c-0.3,0.2-0.4,0.4-0.4,0.8c0,0.3,0.1,0.5,0.2,0.6C251.3,182.8,251.5,182.9,251.9,182.9z"/>
		<path class="st2" d="M257.7,183.8h-1.3v-8.4h1.3V183.8z"/>
		<path class="st2" d="M225.9,197h-4.4v-7.9h4.4v1.1h-3.2v2.1h3v1.1h-3v2.5h3.2V197z"/>
		<path class="st2" d="M232.7,197h-1.3v-3.7c0-0.5-0.1-0.8-0.3-1s-0.5-0.3-0.9-0.3c-0.5,0-0.9,0.2-1.2,0.5s-0.4,0.8-0.4,1.6v3h-1.3
			V191h1l0.2,0.8h0.1c0.2-0.3,0.4-0.5,0.8-0.7c0.3-0.2,0.7-0.2,1.1-0.2c1.4,0,2.1,0.7,2.1,2.2V197z"/>
		<path class="st2" d="M236.6,196.1c0.3,0,0.6,0,0.9-0.1v1c-0.1,0.1-0.3,0.1-0.5,0.2c-0.2,0-0.4,0.1-0.7,0.1c-1.2,0-1.8-0.6-1.8-1.9
			V192h-0.8v-0.6l0.9-0.5l0.4-1.3h0.8v1.3h1.7v1h-1.7v3.2c0,0.3,0.1,0.5,0.2,0.7C236.2,196,236.4,196.1,236.6,196.1z"/>
		<path class="st2" d="M241.8,190.9c0.3,0,0.5,0,0.6,0.1l-0.1,1.2c-0.2,0-0.4-0.1-0.6-0.1c-0.5,0-0.9,0.2-1.2,0.5s-0.5,0.8-0.5,1.3
			v3.1h-1.3V191h1l0.2,1h0.1c0.2-0.4,0.5-0.6,0.8-0.8C241.1,191,241.4,190.9,241.8,190.9z"/>
		<path class="st2" d="M243.4,189.5c0-0.2,0.1-0.4,0.2-0.5c0.1-0.1,0.3-0.2,0.5-0.2c0.2,0,0.4,0.1,0.5,0.2c0.1,0.1,0.2,0.3,0.2,0.5
			c0,0.2-0.1,0.4-0.2,0.5c-0.1,0.1-0.3,0.2-0.5,0.2c-0.2,0-0.4-0.1-0.5-0.2C243.5,189.8,243.4,189.7,243.4,189.5z M244.8,197h-1.3
			V191h1.3V197z"/>
		<path class="st2" d="M249.2,197.1c-0.9,0-1.6-0.3-2.2-0.8c-0.5-0.5-0.8-1.3-0.8-2.2c0-1,0.2-1.7,0.7-2.3c0.5-0.6,1.1-0.8,2-0.8
			c0.8,0,1.4,0.2,1.9,0.7s0.7,1.1,0.7,2v0.7h-4c0,0.6,0.2,1,0.5,1.3c0.3,0.3,0.7,0.5,1.2,0.5c0.4,0,0.7,0,1-0.1
			c0.3-0.1,0.6-0.2,1-0.3v1c-0.3,0.1-0.6,0.3-0.9,0.3S249.6,197.1,249.2,197.1z M248.9,191.9c-0.4,0-0.7,0.1-1,0.4
			c-0.2,0.3-0.4,0.6-0.4,1.1h2.7c0-0.5-0.1-0.9-0.4-1.1C249.6,192,249.3,191.9,248.9,191.9z"/>
		<path class="st2" d="M256.9,195.3c0,0.6-0.2,1-0.6,1.3c-0.4,0.3-1,0.5-1.8,0.5c-0.8,0-1.4-0.1-1.9-0.4v-1.1
			c0.7,0.3,1.3,0.5,1.9,0.5c0.8,0,1.2-0.2,1.2-0.7c0-0.2,0-0.3-0.1-0.4s-0.2-0.2-0.4-0.3c-0.2-0.1-0.5-0.2-0.8-0.4
			c-0.7-0.3-1.1-0.5-1.4-0.8c-0.2-0.3-0.4-0.6-0.4-1c0-0.5,0.2-0.9,0.6-1.2c0.4-0.3,1-0.4,1.7-0.4c0.7,0,1.4,0.1,2,0.4l-0.4,1
			c-0.6-0.3-1.2-0.4-1.6-0.4c-0.7,0-1,0.2-1,0.6c0,0.2,0.1,0.3,0.3,0.5s0.6,0.3,1.1,0.5c0.5,0.2,0.8,0.4,1.1,0.5
			c0.2,0.2,0.4,0.3,0.5,0.5C256.8,194.7,256.9,195,256.9,195.3z"/>
	</g>
</g>
<g>
	<g>
		<path class="st2" d="M153.4,244.4c0,0.8-0.3,1.4-0.8,1.9s-1.3,0.7-2.3,0.7h-0.8v2.9h-1.3V242h2.3c1,0,1.7,0.2,2.2,0.6
			C153.2,243,153.4,243.6,153.4,244.4z M149.5,245.9h0.7c0.7,0,1.1-0.1,1.5-0.3s0.5-0.6,0.5-1.1c0-0.5-0.1-0.8-0.4-1
			s-0.7-0.3-1.3-0.3h-0.9V245.9z"/>
		<path class="st2" d="M160.1,246.9c0,1-0.2,1.7-0.7,2.3s-1.2,0.8-2.1,0.8c-0.6,0-1-0.1-1.5-0.4c-0.4-0.3-0.8-0.6-1-1.1
			s-0.3-1-0.3-1.6c0-1,0.2-1.7,0.7-2.3s1.2-0.8,2.1-0.8c0.9,0,1.5,0.3,2,0.8C159.9,245.2,160.1,246,160.1,246.9z M155.8,246.9
			c0,1.4,0.5,2.1,1.5,2.1c1,0,1.5-0.7,1.5-2.1c0-1.4-0.5-2-1.5-2c-0.5,0-0.9,0.2-1.2,0.5S155.8,246.3,155.8,246.9z"/>
		<path class="st2" d="M165.6,248.2c0,0.6-0.2,1-0.6,1.3c-0.4,0.3-1,0.5-1.8,0.5c-0.8,0-1.4-0.1-1.9-0.4v-1.1
			c0.7,0.3,1.3,0.5,1.9,0.5c0.8,0,1.2-0.2,1.2-0.7c0-0.2,0-0.3-0.1-0.4s-0.2-0.2-0.4-0.3c-0.2-0.1-0.5-0.2-0.8-0.4
			c-0.7-0.3-1.1-0.5-1.4-0.8c-0.2-0.3-0.4-0.6-0.4-1c0-0.5,0.2-0.9,0.6-1.2c0.4-0.3,1-0.4,1.7-0.4c0.7,0,1.4,0.1,2,0.4l-0.4,1
			c-0.6-0.3-1.2-0.4-1.6-0.4c-0.7,0-1,0.2-1,0.6c0,0.2,0.1,0.3,0.3,0.5s0.6,0.3,1.1,0.5c0.5,0.2,0.8,0.4,1.1,0.5
			c0.2,0.2,0.4,0.3,0.5,0.5C165.5,247.7,165.6,247.9,165.6,248.2z"/>
		<path class="st2" d="M169.1,249c0.3,0,0.6,0,0.9-0.1v1c-0.1,0.1-0.3,0.1-0.5,0.2c-0.2,0-0.4,0.1-0.7,0.1c-1.2,0-1.8-0.6-1.8-1.9
			v-3.2h-0.8v-0.6l0.9-0.5l0.4-1.3h0.8v1.3h1.7v1h-1.7v3.2c0,0.3,0.1,0.5,0.2,0.7C168.7,248.9,168.9,249,169.1,249z"/>
		<path class="st2" d="M174.2,249.9V242h1.3v6.8h3.3v1.1H174.2z"/>
		<path class="st2" d="M182.7,250c-0.9,0-1.6-0.3-2.2-0.8c-0.5-0.5-0.8-1.3-0.8-2.2c0-1,0.2-1.7,0.7-2.3c0.5-0.6,1.1-0.8,2-0.8
			c0.8,0,1.4,0.2,1.9,0.7s0.7,1.1,0.7,2v0.7h-4c0,0.6,0.2,1,0.5,1.3c0.3,0.3,0.7,0.5,1.2,0.5c0.4,0,0.7,0,1-0.1
			c0.3-0.1,0.6-0.2,1-0.3v1c-0.3,0.1-0.6,0.3-0.9,0.3S183.1,250,182.7,250z M182.4,244.8c-0.4,0-0.7,0.1-1,0.4
			c-0.2,0.3-0.4,0.6-0.4,1.1h2.7c0-0.5-0.1-0.9-0.4-1.1C183.1,244.9,182.8,244.8,182.4,244.8z"/>
		<path class="st2" d="M188.4,250c-0.7,0-1.3-0.3-1.7-0.8s-0.6-1.3-0.6-2.3c0-1,0.2-1.7,0.6-2.3c0.4-0.5,1-0.8,1.7-0.8
			c0.8,0,1.4,0.3,1.8,0.9h0.1c-0.1-0.4-0.1-0.8-0.1-1v-2.2h1.3v8.4h-1l-0.2-0.8h-0.1C189.8,249.7,189.2,250,188.4,250z M188.7,249
			c0.5,0,0.9-0.1,1.1-0.4c0.2-0.3,0.4-0.8,0.4-1.4v-0.2c0-0.7-0.1-1.3-0.4-1.6c-0.2-0.3-0.6-0.5-1.1-0.5c-0.4,0-0.8,0.2-1,0.5
			c-0.2,0.4-0.4,0.9-0.4,1.5c0,0.7,0.1,1.2,0.3,1.5C187.9,248.8,188.3,249,188.7,249z"/>
		<path class="st2" d="M198.3,244v0.7l-1,0.2c0.1,0.1,0.2,0.3,0.2,0.5s0.1,0.4,0.1,0.6c0,0.6-0.2,1.1-0.6,1.4
			c-0.4,0.4-1,0.5-1.7,0.5c-0.2,0-0.4,0-0.5,0c-0.3,0.2-0.4,0.4-0.4,0.6c0,0.1,0.1,0.2,0.2,0.3s0.4,0.1,0.7,0.1h1
			c0.7,0,1.2,0.1,1.5,0.4c0.3,0.3,0.5,0.7,0.5,1.2c0,0.7-0.3,1.2-0.8,1.6c-0.6,0.4-1.4,0.5-2.4,0.5c-0.8,0-1.4-0.1-1.9-0.4
			s-0.6-0.7-0.6-1.2c0-0.4,0.1-0.7,0.3-0.9c0.2-0.2,0.6-0.4,1-0.5c-0.2-0.1-0.3-0.2-0.4-0.3c-0.1-0.2-0.2-0.3-0.2-0.5
			c0-0.2,0.1-0.4,0.2-0.6c0.1-0.2,0.3-0.3,0.6-0.5c-0.3-0.1-0.6-0.3-0.7-0.6c-0.2-0.3-0.3-0.6-0.3-1c0-0.6,0.2-1.1,0.6-1.5
			s1-0.5,1.7-0.5c0.2,0,0.3,0,0.5,0c0.2,0,0.3,0,0.4,0.1H198.3z M193.6,250.8c0,0.3,0.1,0.5,0.4,0.6s0.6,0.2,1,0.2
			c0.7,0,1.2-0.1,1.5-0.3s0.5-0.5,0.5-0.8c0-0.3-0.1-0.4-0.3-0.6c-0.2-0.1-0.5-0.2-1-0.2h-1c-0.4,0-0.6,0.1-0.9,0.3
			C193.7,250.3,193.6,250.5,193.6,250.8z M194.2,245.9c0,0.4,0.1,0.7,0.3,0.9s0.5,0.3,0.8,0.3c0.7,0,1.1-0.4,1.1-1.2
			c0-0.4-0.1-0.7-0.3-0.9c-0.2-0.2-0.5-0.3-0.8-0.3c-0.4,0-0.6,0.1-0.8,0.3C194.2,245.2,194.2,245.5,194.2,245.9z"/>
		<path class="st2" d="M202,250c-0.9,0-1.6-0.3-2.2-0.8c-0.5-0.5-0.8-1.3-0.8-2.2c0-1,0.2-1.7,0.7-2.3c0.5-0.6,1.1-0.8,2-0.8
			c0.8,0,1.4,0.2,1.9,0.7s0.7,1.1,0.7,2v0.7h-4c0,0.6,0.2,1,0.5,1.3c0.3,0.3,0.7,0.5,1.2,0.5c0.4,0,0.7,0,1-0.1
			c0.3-0.1,0.6-0.2,1-0.3v1c-0.3,0.1-0.6,0.3-0.9,0.3S202.4,250,202,250z M201.7,244.8c-0.4,0-0.7,0.1-1,0.4
			c-0.2,0.3-0.4,0.6-0.4,1.1h2.7c0-0.5-0.1-0.9-0.4-1.1C202.5,244.9,202.1,244.8,201.7,244.8z"/>
		<path class="st2" d="M208.7,243.8c0.3,0,0.5,0,0.6,0.1l-0.1,1.2c-0.2,0-0.4-0.1-0.6-0.1c-0.5,0-0.9,0.2-1.2,0.5s-0.5,0.8-0.5,1.3
			v3.1h-1.3V244h1l0.2,1h0.1c0.2-0.4,0.5-0.6,0.8-0.8C208,244,208.4,243.8,208.7,243.8z"/>
		<path class="st2" d="M165.4,263.1h-4.4v-7.9h4.4v1.1h-3.2v2.1h3v1.1h-3v2.5h3.2V263.1z"/>
		<path class="st2" d="M172.2,263.1h-1.3v-3.7c0-0.5-0.1-0.8-0.3-1s-0.5-0.3-0.9-0.3c-0.5,0-0.9,0.2-1.2,0.5s-0.4,0.8-0.4,1.6v3
			h-1.3v-5.9h1l0.2,0.8h0.1c0.2-0.3,0.4-0.5,0.8-0.7c0.3-0.2,0.7-0.2,1.1-0.2c1.4,0,2.1,0.7,2.1,2.2V263.1z"/>
		<path class="st2" d="M176.1,262.2c0.3,0,0.6,0,0.9-0.1v1c-0.1,0.1-0.3,0.1-0.5,0.2c-0.2,0-0.4,0.1-0.7,0.1c-1.2,0-1.8-0.6-1.8-1.9
			v-3.2h-0.8v-0.6l0.9-0.5l0.4-1.3h0.8v1.3h1.7v1h-1.7v3.2c0,0.3,0.1,0.5,0.2,0.7C175.7,262.1,175.9,262.2,176.1,262.2z"/>
		<path class="st2" d="M181.3,257c0.3,0,0.5,0,0.6,0.1l-0.1,1.2c-0.2,0-0.4-0.1-0.6-0.1c-0.5,0-0.9,0.2-1.2,0.5s-0.5,0.8-0.5,1.3
			v3.1h-1.3v-5.9h1l0.2,1h0.1c0.2-0.4,0.5-0.6,0.8-0.8C180.5,257.2,180.9,257,181.3,257z"/>
		<path class="st2" d="M182.9,255.6c0-0.2,0.1-0.4,0.2-0.5c0.1-0.1,0.3-0.2,0.5-0.2c0.2,0,0.4,0.1,0.5,0.2c0.1,0.1,0.2,0.3,0.2,0.5
			c0,0.2-0.1,0.4-0.2,0.5c-0.1,0.1-0.3,0.2-0.5,0.2c-0.2,0-0.4-0.1-0.5-0.2C183,256,182.9,255.8,182.9,255.6z M184.2,263.1H183v-5.9
			h1.3V263.1z"/>
		<path class="st2" d="M188.6,263.2c-0.9,0-1.6-0.3-2.2-0.8c-0.5-0.5-0.8-1.3-0.8-2.2c0-1,0.2-1.7,0.7-2.3c0.5-0.6,1.1-0.8,2-0.8
			c0.8,0,1.4,0.2,1.9,0.7s0.7,1.1,0.7,2v0.7h-4c0,0.6,0.2,1,0.5,1.3c0.3,0.3,0.7,0.5,1.2,0.5c0.4,0,0.7,0,1-0.1
			c0.3-0.1,0.6-0.2,1-0.3v1c-0.3,0.1-0.6,0.3-0.9,0.3S189,263.2,188.6,263.2z M188.4,258c-0.4,0-0.7,0.1-1,0.4
			c-0.2,0.3-0.4,0.6-0.4,1.1h2.7c0-0.5-0.1-0.9-0.4-1.1C189.1,258.1,188.8,258,188.4,258z"/>
		<path class="st2" d="M196.4,261.4c0,0.6-0.2,1-0.6,1.3c-0.4,0.3-1,0.5-1.8,0.5c-0.8,0-1.4-0.1-1.9-0.4v-1.1
			c0.7,0.3,1.3,0.5,1.9,0.5c0.8,0,1.2-0.2,1.2-0.7c0-0.2,0-0.3-0.1-0.4s-0.2-0.2-0.4-0.3c-0.2-0.1-0.5-0.2-0.8-0.4
			c-0.7-0.3-1.1-0.5-1.4-0.8c-0.2-0.3-0.4-0.6-0.4-1c0-0.5,0.2-0.9,0.6-1.2c0.4-0.3,1-0.4,1.7-0.4c0.7,0,1.4,0.1,2,0.4l-0.4,1
			c-0.6-0.3-1.2-0.4-1.6-0.4c-0.7,0-1,0.2-1,0.6c0,0.2,0.1,0.3,0.3,0.5s0.6,0.3,1.1,0.5c0.5,0.2,0.8,0.4,1.1,0.5
			c0.2,0.2,0.4,0.3,0.5,0.5C196.3,260.9,196.4,261.1,196.4,261.4z"/>
	</g>
</g>
<g>
	<path class="st2" d="M67.2,227.9h-1.3v-6.8h-2.3V220h5.9v1.1h-2.3V227.9z"/>
	<path class="st2" d="M73.6,221.8c0.3,0,0.5,0,0.6,0.1l-0.1,1.2c-0.2,0-0.4-0.1-0.6-0.1c-0.5,0-0.9,0.2-1.2,0.5s-0.5,0.8-0.5,1.3
		v3.1h-1.3V222h1l0.2,1h0.1c0.2-0.4,0.5-0.6,0.8-0.8C72.9,222,73.3,221.8,73.6,221.8z"/>
	<path class="st2" d="M75.3,220.4c0-0.2,0.1-0.4,0.2-0.5c0.1-0.1,0.3-0.2,0.5-0.2c0.2,0,0.4,0.1,0.5,0.2c0.1,0.1,0.2,0.3,0.2,0.5
		c0,0.2-0.1,0.4-0.2,0.5c-0.1,0.1-0.3,0.2-0.5,0.2c-0.2,0-0.4-0.1-0.5-0.2C75.3,220.8,75.3,220.6,75.3,220.4z M76.6,227.9h-1.3V222
		h1.3V227.9z"/>
	<path class="st2" d="M82.1,227.9l-0.3-0.8h0c-0.3,0.4-0.6,0.6-0.9,0.7c-0.3,0.1-0.7,0.2-1.1,0.2c-0.6,0-1-0.2-1.4-0.5
		c-0.3-0.3-0.5-0.8-0.5-1.3c0-0.6,0.2-1.1,0.7-1.4c0.5-0.3,1.1-0.5,2.1-0.5l1,0v-0.3c0-0.4-0.1-0.7-0.3-0.9
		c-0.2-0.2-0.5-0.3-0.8-0.3c-0.3,0-0.6,0-0.9,0.1s-0.5,0.2-0.8,0.3l-0.4-0.9c0.3-0.2,0.7-0.3,1.1-0.4c0.4-0.1,0.7-0.1,1.1-0.1
		c0.8,0,1.3,0.2,1.7,0.5s0.6,0.8,0.6,1.6v4H82.1z M80.3,227c0.5,0,0.8-0.1,1.1-0.4c0.3-0.3,0.4-0.6,0.4-1.1v-0.5l-0.8,0
		c-0.6,0-1,0.1-1.3,0.3c-0.3,0.2-0.4,0.4-0.4,0.8c0,0.3,0.1,0.5,0.2,0.6C79.7,227,79.9,227,80.3,227z"/>
	<path class="st2" d="M86.1,227.9h-1.3v-8.4h1.3V227.9z"/>
	<path class="st2" d="M55.3,233.2h2.3c1.1,0,1.9,0.2,2.3,0.5s0.7,0.8,0.7,1.5c0,0.5-0.1,0.8-0.4,1.1s-0.6,0.5-1,0.6v0.1
		c0.6,0.1,1,0.3,1.2,0.6c0.3,0.3,0.4,0.7,0.4,1.2c0,0.7-0.2,1.3-0.7,1.7c-0.5,0.4-1.2,0.6-2.1,0.6h-2.8V233.2z M56.6,236.5h1.2
		c0.5,0,0.9-0.1,1.2-0.3c0.2-0.2,0.4-0.5,0.4-0.9c0-0.4-0.1-0.6-0.4-0.8s-0.7-0.2-1.3-0.2h-1.1V236.5z M56.6,237.5v2.5H58
		c0.5,0,0.9-0.1,1.2-0.3c0.3-0.2,0.4-0.5,0.4-1c0-0.4-0.1-0.7-0.4-0.9s-0.7-0.3-1.3-0.3H56.6z"/>
	<path class="st2" d="M66.2,241.1l-0.3-0.8h0c-0.3,0.4-0.6,0.6-0.9,0.7c-0.3,0.1-0.7,0.2-1.1,0.2c-0.6,0-1-0.2-1.4-0.5
		c-0.3-0.3-0.5-0.8-0.5-1.3c0-0.6,0.2-1.1,0.7-1.4c0.5-0.3,1.1-0.5,2.1-0.5l1,0v-0.3c0-0.4-0.1-0.7-0.3-0.9
		c-0.2-0.2-0.5-0.3-0.8-0.3c-0.3,0-0.6,0-0.9,0.1s-0.5,0.2-0.8,0.3l-0.4-0.9c0.3-0.2,0.7-0.3,1.1-0.4c0.4-0.1,0.7-0.1,1.1-0.1
		c0.8,0,1.3,0.2,1.7,0.5s0.6,0.8,0.6,1.6v4H66.2z M64.3,240.2c0.5,0,0.8-0.1,1.1-0.4c0.3-0.3,0.4-0.6,0.4-1.1v-0.5l-0.8,0
		c-0.6,0-1,0.1-1.3,0.3c-0.3,0.2-0.4,0.4-0.4,0.8c0,0.3,0.1,0.5,0.2,0.6C63.7,240.2,64,240.2,64.3,240.2z"/>
	<path class="st2" d="M70.1,241.1h-1.3v-8.4h1.3V241.1z"/>
	<path class="st2" d="M75.6,241.1l-0.3-0.8h0c-0.3,0.4-0.6,0.6-0.9,0.7c-0.3,0.1-0.7,0.2-1.1,0.2c-0.6,0-1-0.2-1.4-0.5
		c-0.3-0.3-0.5-0.8-0.5-1.3c0-0.6,0.2-1.1,0.7-1.4c0.5-0.3,1.1-0.5,2.1-0.5l1,0v-0.3c0-0.4-0.1-0.7-0.3-0.9
		c-0.2-0.2-0.5-0.3-0.8-0.3c-0.3,0-0.6,0-0.9,0.1s-0.5,0.2-0.8,0.3l-0.4-0.9c0.3-0.2,0.7-0.3,1.1-0.4c0.4-0.1,0.7-0.1,1.1-0.1
		c0.8,0,1.3,0.2,1.7,0.5s0.6,0.8,0.6,1.6v4H75.6z M73.7,240.2c0.5,0,0.8-0.1,1.1-0.4c0.3-0.3,0.4-0.6,0.4-1.1v-0.5l-0.8,0
		c-0.6,0-1,0.1-1.3,0.3c-0.3,0.2-0.4,0.4-0.4,0.8c0,0.3,0.1,0.5,0.2,0.6C73.2,240.2,73.4,240.2,73.7,240.2z"/>
	<path class="st2" d="M83.5,241.1h-1.3v-3.7c0-0.5-0.1-0.8-0.3-1s-0.5-0.3-0.9-0.3c-0.5,0-0.9,0.2-1.2,0.5s-0.4,0.8-0.4,1.6v3h-1.3
		v-5.9h1l0.2,0.8h0.1c0.2-0.3,0.4-0.5,0.8-0.7c0.3-0.2,0.7-0.2,1.1-0.2c1.4,0,2.1,0.7,2.1,2.2V241.1z"/>
	<path class="st2" d="M87.7,241.2c-0.9,0-1.6-0.3-2-0.8c-0.5-0.5-0.7-1.3-0.7-2.3c0-1,0.2-1.8,0.7-2.3c0.5-0.5,1.2-0.8,2.1-0.8
		c0.6,0,1.2,0.1,1.7,0.3l-0.4,1c-0.5-0.2-1-0.3-1.3-0.3c-1,0-1.5,0.7-1.5,2c0,0.7,0.1,1.2,0.4,1.5c0.3,0.3,0.6,0.5,1.1,0.5
		c0.6,0,1.1-0.1,1.6-0.4v1.1c-0.2,0.1-0.5,0.2-0.7,0.3S88,241.2,87.7,241.2z"/>
	<path class="st2" d="M93.3,241.2c-0.9,0-1.6-0.3-2.2-0.8c-0.5-0.5-0.8-1.3-0.8-2.2c0-1,0.2-1.7,0.7-2.3c0.5-0.6,1.1-0.8,2-0.8
		c0.8,0,1.4,0.2,1.9,0.7s0.7,1.1,0.7,2v0.7h-4c0,0.6,0.2,1,0.5,1.3c0.3,0.3,0.7,0.5,1.2,0.5c0.4,0,0.7,0,1-0.1
		c0.3-0.1,0.6-0.2,1-0.3v1c-0.3,0.1-0.6,0.3-0.9,0.3S93.7,241.2,93.3,241.2z M93.1,236c-0.4,0-0.7,0.1-1,0.4
		c-0.2,0.3-0.4,0.6-0.4,1.1h2.7c0-0.5-0.1-0.9-0.4-1.1C93.8,236.1,93.5,236,93.1,236z"/>
</g>
<g>
	<g>
		<path class="st2" d="M22.4,134.9h-1.3V127h4.4v1.1h-3.2v2.5h3v1.1h-3V134.9z"/>
		<path class="st2" d="M26.8,127.4c0-0.2,0.1-0.4,0.2-0.5c0.1-0.1,0.3-0.2,0.5-0.2c0.2,0,0.4,0.1,0.5,0.2c0.1,0.1,0.2,0.3,0.2,0.5
			c0,0.2-0.1,0.4-0.2,0.5c-0.1,0.1-0.3,0.2-0.5,0.2c-0.2,0-0.4-0.1-0.5-0.2C26.9,127.8,26.8,127.6,26.8,127.4z M28.2,134.9h-1.3V129
			h1.3V134.9z"/>
		<path class="st2" d="M35.2,134.9h-1.3v-3.7c0-0.5-0.1-0.8-0.3-1s-0.5-0.3-0.9-0.3c-0.5,0-0.9,0.2-1.2,0.5s-0.4,0.8-0.4,1.6v3H30
			V129h1l0.2,0.8h0.1c0.2-0.3,0.4-0.5,0.8-0.7c0.3-0.2,0.7-0.2,1.1-0.2c1.4,0,2.1,0.7,2.1,2.2V134.9z"/>
		<path class="st2" d="M40.7,134.9l-0.3-0.8h0c-0.3,0.4-0.6,0.6-0.9,0.7c-0.3,0.1-0.7,0.2-1.1,0.2c-0.6,0-1-0.2-1.4-0.5
			c-0.3-0.3-0.5-0.8-0.5-1.3c0-0.6,0.2-1.1,0.7-1.4c0.5-0.3,1.1-0.5,2.1-0.5l1,0v-0.3c0-0.4-0.1-0.7-0.3-0.9
			c-0.2-0.2-0.5-0.3-0.8-0.3c-0.3,0-0.6,0-0.9,0.1s-0.5,0.2-0.8,0.3l-0.4-0.9c0.3-0.2,0.7-0.3,1.1-0.4c0.4-0.1,0.7-0.1,1.1-0.1
			c0.8,0,1.3,0.2,1.7,0.5s0.6,0.8,0.6,1.6v4H40.7z M38.8,134c0.5,0,0.8-0.1,1.1-0.4c0.3-0.3,0.4-0.6,0.4-1.1v-0.5l-0.8,0
			c-0.6,0-1,0.1-1.3,0.3c-0.3,0.2-0.4,0.4-0.4,0.8c0,0.3,0.1,0.5,0.2,0.6C38.2,134,38.5,134,38.8,134z"/>
		<path class="st2" d="M48.5,134.9h-1.3v-3.7c0-0.5-0.1-0.8-0.3-1s-0.5-0.3-0.9-0.3c-0.5,0-0.9,0.2-1.2,0.5s-0.4,0.8-0.4,1.6v3h-1.3
			V129h1l0.2,0.8h0.1c0.2-0.3,0.4-0.5,0.8-0.7c0.3-0.2,0.7-0.2,1.1-0.2c1.4,0,2.1,0.7,2.1,2.2V134.9z"/>
		<path class="st2" d="M52.7,135c-0.9,0-1.6-0.3-2-0.8c-0.5-0.5-0.7-1.3-0.7-2.3c0-1,0.2-1.8,0.7-2.3c0.5-0.5,1.2-0.8,2.1-0.8
			c0.6,0,1.2,0.1,1.7,0.3l-0.4,1c-0.5-0.2-1-0.3-1.3-0.3c-1,0-1.5,0.7-1.5,2c0,0.7,0.1,1.2,0.4,1.5c0.3,0.3,0.6,0.5,1.1,0.5
			c0.6,0,1.1-0.1,1.6-0.4v1.1c-0.2,0.1-0.5,0.2-0.7,0.3S53.1,135,52.7,135z"/>
		<path class="st2" d="M55.7,127.4c0-0.2,0.1-0.4,0.2-0.5c0.1-0.1,0.3-0.2,0.5-0.2c0.2,0,0.4,0.1,0.5,0.2c0.1,0.1,0.2,0.3,0.2,0.5
			c0,0.2-0.1,0.4-0.2,0.5c-0.1,0.1-0.3,0.2-0.5,0.2c-0.2,0-0.4-0.1-0.5-0.2C55.7,127.8,55.7,127.6,55.7,127.4z M57,134.9h-1.3V129
			H57V134.9z"/>
		<path class="st2" d="M62.5,134.9l-0.3-0.8h0c-0.3,0.4-0.6,0.6-0.9,0.7c-0.3,0.1-0.7,0.2-1.1,0.2c-0.6,0-1-0.2-1.4-0.5
			c-0.3-0.3-0.5-0.8-0.5-1.3c0-0.6,0.2-1.1,0.7-1.4c0.5-0.3,1.1-0.5,2.1-0.5l1,0v-0.3c0-0.4-0.1-0.7-0.3-0.9
			c-0.2-0.2-0.5-0.3-0.8-0.3c-0.3,0-0.6,0-0.9,0.1s-0.5,0.2-0.8,0.3l-0.4-0.9c0.3-0.2,0.7-0.3,1.1-0.4c0.4-0.1,0.7-0.1,1.1-0.1
			c0.8,0,1.3,0.2,1.7,0.5s0.6,0.8,0.6,1.6v4H62.5z M60.7,134c0.5,0,0.8-0.1,1.1-0.4c0.3-0.3,0.4-0.6,0.4-1.1v-0.5l-0.8,0
			c-0.6,0-1,0.1-1.3,0.3c-0.3,0.2-0.4,0.4-0.4,0.8c0,0.3,0.1,0.5,0.2,0.6C60.1,134,60.3,134,60.7,134z"/>
		<path class="st2" d="M66.5,134.9h-1.3v-8.4h1.3V134.9z"/>
		<path class="st2" d="M18.8,146c0,0.7-0.3,1.2-0.8,1.6c-0.5,0.4-1.2,0.6-2.1,0.6c-0.9,0-1.6-0.1-2.2-0.4v-1.2
			c0.4,0.2,0.7,0.3,1.1,0.4c0.4,0.1,0.8,0.1,1.1,0.1c0.5,0,0.9-0.1,1.1-0.3s0.4-0.5,0.4-0.8c0-0.3-0.1-0.5-0.3-0.7s-0.7-0.4-1.4-0.7
			c-0.7-0.3-1.2-0.6-1.5-1s-0.4-0.8-0.4-1.3c0-0.7,0.2-1.2,0.7-1.5s1.1-0.6,1.9-0.6c0.8,0,1.5,0.2,2.2,0.5l-0.4,1
			c-0.7-0.3-1.3-0.4-1.9-0.4c-0.4,0-0.7,0.1-0.9,0.3c-0.2,0.2-0.3,0.4-0.3,0.7c0,0.2,0,0.4,0.1,0.5c0.1,0.1,0.2,0.3,0.4,0.4
			s0.6,0.3,1.1,0.5c0.6,0.2,1,0.5,1.3,0.7c0.3,0.2,0.5,0.4,0.6,0.7S18.8,145.6,18.8,146z"/>
		<path class="st2" d="M22.4,147.2c0.3,0,0.6,0,0.9-0.1v1c-0.1,0.1-0.3,0.1-0.5,0.2c-0.2,0-0.4,0.1-0.7,0.1c-1.2,0-1.8-0.6-1.8-1.9
			v-3.2h-0.8v-0.6l0.9-0.5l0.4-1.3h0.8v1.3h1.7v1h-1.7v3.2c0,0.3,0.1,0.5,0.2,0.7C22,147.1,22.2,147.2,22.4,147.2z"/>
		<path class="st2" d="M28.3,148.1l-0.3-0.8h0c-0.3,0.4-0.6,0.6-0.9,0.7c-0.3,0.1-0.7,0.2-1.1,0.2c-0.6,0-1-0.2-1.4-0.5
			c-0.3-0.3-0.5-0.8-0.5-1.3c0-0.6,0.2-1.1,0.7-1.4c0.5-0.3,1.1-0.5,2.1-0.5l1,0v-0.3c0-0.4-0.1-0.7-0.3-0.9
			c-0.2-0.2-0.5-0.3-0.8-0.3c-0.3,0-0.6,0-0.9,0.1s-0.5,0.2-0.8,0.3l-0.4-0.9c0.3-0.2,0.7-0.3,1.1-0.4c0.4-0.1,0.7-0.1,1.1-0.1
			c0.8,0,1.3,0.2,1.7,0.5s0.6,0.8,0.6,1.6v4H28.3z M26.4,147.2c0.5,0,0.8-0.1,1.1-0.4c0.3-0.3,0.4-0.6,0.4-1.1v-0.5l-0.8,0
			c-0.6,0-1,0.1-1.3,0.3c-0.3,0.2-0.4,0.4-0.4,0.8c0,0.3,0.1,0.5,0.2,0.6C25.8,147.2,26.1,147.2,26.4,147.2z"/>
		<path class="st2" d="M33.2,147.2c0.3,0,0.6,0,0.9-0.1v1c-0.1,0.1-0.3,0.1-0.5,0.2c-0.2,0-0.4,0.1-0.7,0.1c-1.2,0-1.8-0.6-1.8-1.9
			v-3.2h-0.8v-0.6l0.9-0.5l0.4-1.3h0.8v1.3H34v1h-1.7v3.2c0,0.3,0.1,0.5,0.2,0.7C32.7,147.1,32.9,147.2,33.2,147.2z"/>
		<path class="st2" d="M37.9,148.2c-0.9,0-1.6-0.3-2.2-0.8c-0.5-0.5-0.8-1.3-0.8-2.2c0-1,0.2-1.7,0.7-2.3c0.5-0.6,1.1-0.8,2-0.8
			c0.8,0,1.4,0.2,1.9,0.7s0.7,1.1,0.7,2v0.7h-4c0,0.6,0.2,1,0.5,1.3c0.3,0.3,0.7,0.5,1.2,0.5c0.4,0,0.7,0,1-0.1
			c0.3-0.1,0.6-0.2,1-0.3v1c-0.3,0.1-0.6,0.3-0.9,0.3S38.3,148.2,37.9,148.2z M37.6,143c-0.4,0-0.7,0.1-1,0.4
			c-0.2,0.3-0.4,0.6-0.4,1.1h2.7c0-0.5-0.1-0.9-0.4-1.1C38.3,143.1,38,143,37.6,143z"/>
		<path class="st2" d="M46.6,148.1h-1.3v-3.7c0-0.5-0.1-0.8-0.3-1c-0.2-0.2-0.4-0.3-0.8-0.3c-0.5,0-0.8,0.2-1.1,0.5
			c-0.2,0.3-0.3,0.8-0.3,1.6v3h-1.3v-5.9h1l0.2,0.8h0.1c0.2-0.3,0.4-0.5,0.7-0.7s0.7-0.2,1-0.2c0.9,0,1.5,0.3,1.8,0.9h0.1
			c0.2-0.3,0.4-0.5,0.7-0.7c0.3-0.2,0.7-0.2,1.1-0.2c0.7,0,1.2,0.2,1.5,0.5s0.5,0.9,0.5,1.6v3.9h-1.3v-3.7c0-0.5-0.1-0.8-0.3-1
			c-0.2-0.2-0.4-0.3-0.8-0.3c-0.5,0-0.8,0.2-1.1,0.5c-0.2,0.3-0.3,0.8-0.3,1.4V148.1z"/>
		<path class="st2" d="M54.7,148.2c-0.9,0-1.6-0.3-2.2-0.8c-0.5-0.5-0.8-1.3-0.8-2.2c0-1,0.2-1.7,0.7-2.3c0.5-0.6,1.1-0.8,2-0.8
			c0.8,0,1.4,0.2,1.9,0.7s0.7,1.1,0.7,2v0.7h-4c0,0.6,0.2,1,0.5,1.3c0.3,0.3,0.7,0.5,1.2,0.5c0.4,0,0.7,0,1-0.1
			c0.3-0.1,0.6-0.2,1-0.3v1c-0.3,0.1-0.6,0.3-0.9,0.3S55.1,148.2,54.7,148.2z M54.5,143c-0.4,0-0.7,0.1-1,0.4
			c-0.2,0.3-0.4,0.6-0.4,1.1h2.7c0-0.5-0.1-0.9-0.4-1.1C55.2,143.1,54.9,143,54.5,143z"/>
		<path class="st2" d="M63.7,148.1h-1.3v-3.7c0-0.5-0.1-0.8-0.3-1s-0.5-0.3-0.9-0.3c-0.5,0-0.9,0.2-1.2,0.5s-0.4,0.8-0.4,1.6v3h-1.3
			v-5.9h1l0.2,0.8h0.1c0.2-0.3,0.4-0.5,0.8-0.7c0.3-0.2,0.7-0.2,1.1-0.2c1.4,0,2.1,0.7,2.1,2.2V148.1z"/>
		<path class="st2" d="M67.7,147.2c0.3,0,0.6,0,0.9-0.1v1c-0.1,0.1-0.3,0.1-0.5,0.2c-0.2,0-0.4,0.1-0.7,0.1c-1.2,0-1.8-0.6-1.8-1.9
			v-3.2h-0.8v-0.6l0.9-0.5l0.4-1.3h0.8v1.3h1.7v1h-1.7v3.2c0,0.3,0.1,0.5,0.2,0.7C67.2,147.1,67.4,147.2,67.7,147.2z"/>
		<path class="st2" d="M73.8,146.4c0,0.6-0.2,1-0.6,1.3c-0.4,0.3-1,0.5-1.8,0.5c-0.8,0-1.4-0.1-1.9-0.4v-1.1
			c0.7,0.3,1.3,0.5,1.9,0.5c0.8,0,1.2-0.2,1.2-0.7c0-0.2,0-0.3-0.1-0.4s-0.2-0.2-0.4-0.3c-0.2-0.1-0.5-0.2-0.8-0.4
			c-0.7-0.3-1.1-0.5-1.4-0.8c-0.2-0.3-0.4-0.6-0.4-1c0-0.5,0.2-0.9,0.6-1.2c0.4-0.3,1-0.4,1.7-0.4c0.7,0,1.4,0.1,2,0.4l-0.4,1
			c-0.6-0.3-1.2-0.4-1.6-0.4c-0.7,0-1,0.2-1,0.6c0,0.2,0.1,0.3,0.3,0.5s0.6,0.3,1.1,0.5c0.5,0.2,0.8,0.4,1.1,0.5
			c0.2,0.2,0.4,0.3,0.5,0.5C73.7,145.9,73.8,146.1,73.8,146.4z"/>
	</g>
</g>
<g>
	<g>
		<path class="st2" d="M81.2,49.7c0,0.8-0.3,1.4-0.8,1.9s-1.3,0.7-2.3,0.7h-0.8v2.9H76v-7.9h2.3c1,0,1.7,0.2,2.2,0.6
			C81,48.4,81.2,49,81.2,49.7z M77.3,51.2H78c0.7,0,1.1-0.1,1.5-0.3s0.5-0.6,0.5-1.1c0-0.5-0.1-0.8-0.4-1s-0.7-0.3-1.3-0.3h-0.9
			V51.2z"/>
		<path class="st2" d="M87.9,52.2c0,1-0.2,1.7-0.7,2.3s-1.2,0.8-2.1,0.8c-0.6,0-1-0.1-1.5-0.4c-0.4-0.3-0.8-0.6-1-1.1
			s-0.3-1-0.3-1.6c0-1,0.2-1.7,0.7-2.3s1.2-0.8,2.1-0.8c0.9,0,1.5,0.3,2,0.8C87.7,50.6,87.9,51.3,87.9,52.2z M83.6,52.2
			c0,1.4,0.5,2.1,1.5,2.1c1,0,1.5-0.7,1.5-2.1c0-1.4-0.5-2-1.5-2c-0.5,0-0.9,0.2-1.2,0.5S83.6,51.6,83.6,52.2z"/>
		<path class="st2" d="M93.4,53.5c0,0.6-0.2,1-0.6,1.3c-0.4,0.3-1,0.5-1.8,0.5c-0.8,0-1.4-0.1-1.9-0.4v-1.1c0.7,0.3,1.3,0.5,1.9,0.5
			c0.8,0,1.2-0.2,1.2-0.7c0-0.2,0-0.3-0.1-0.4s-0.2-0.2-0.4-0.3c-0.2-0.1-0.5-0.2-0.8-0.4c-0.7-0.3-1.1-0.5-1.4-0.8
			c-0.2-0.3-0.4-0.6-0.4-1c0-0.5,0.2-0.9,0.6-1.2c0.4-0.3,1-0.4,1.7-0.4c0.7,0,1.4,0.1,2,0.4l-0.4,1c-0.6-0.3-1.2-0.4-1.6-0.4
			c-0.7,0-1,0.2-1,0.6c0,0.2,0.1,0.3,0.3,0.5s0.6,0.3,1.1,0.5c0.5,0.2,0.8,0.4,1.1,0.5c0.2,0.2,0.4,0.3,0.5,0.5
			C93.3,53,93.4,53.2,93.4,53.5z"/>
		<path class="st2" d="M96.9,54.3c0.3,0,0.6,0,0.9-0.1v1c-0.1,0.1-0.3,0.1-0.5,0.2c-0.2,0-0.4,0.1-0.7,0.1c-1.2,0-1.8-0.6-1.8-1.9
			v-3.2H94v-0.6l0.9-0.5l0.4-1.3h0.8v1.3h1.7v1h-1.7v3.2c0,0.3,0.1,0.5,0.2,0.7C96.5,54.2,96.7,54.3,96.9,54.3z"/>
		<path class="st2" d="M101.4,52.8v-1.1h2.8v1.1H101.4z"/>
		<path class="st2" d="M111.8,48.4c-0.7,0-1.3,0.3-1.7,0.8c-0.4,0.5-0.6,1.2-0.6,2.2c0,1,0.2,1.7,0.6,2.2s1,0.7,1.8,0.7
			c0.3,0,0.7,0,1-0.1c0.3-0.1,0.6-0.2,1-0.3V55c-0.6,0.2-1.3,0.3-2.1,0.3c-1.1,0-2-0.3-2.6-1c-0.6-0.7-0.9-1.7-0.9-3
			c0-0.8,0.1-1.5,0.4-2.1s0.7-1.1,1.3-1.4s1.2-0.5,2-0.5c0.8,0,1.5,0.2,2.2,0.5l-0.5,1.1c-0.3-0.1-0.5-0.2-0.8-0.3
			C112.4,48.4,112.1,48.4,111.8,48.4z"/>
		<path class="st2" d="M116.5,55.2h-1.3v-8.4h1.3V55.2z"/>
		<path class="st2" d="M123.6,52.2c0,1-0.2,1.7-0.7,2.3s-1.2,0.8-2.1,0.8c-0.6,0-1-0.1-1.5-0.4c-0.4-0.3-0.8-0.6-1-1.1
			s-0.3-1-0.3-1.6c0-1,0.2-1.7,0.7-2.3s1.2-0.8,2.1-0.8c0.9,0,1.5,0.3,2,0.8C123.4,50.6,123.6,51.3,123.6,52.2z M119.3,52.2
			c0,1.4,0.5,2.1,1.5,2.1c1,0,1.5-0.7,1.5-2.1c0-1.4-0.5-2-1.5-2c-0.5,0-0.9,0.2-1.2,0.5S119.3,51.6,119.3,52.2z"/>
		<path class="st2" d="M129.1,53.5c0,0.6-0.2,1-0.6,1.3c-0.4,0.3-1,0.5-1.8,0.5c-0.8,0-1.4-0.1-1.9-0.4v-1.1
			c0.7,0.3,1.3,0.5,1.9,0.5c0.8,0,1.2-0.2,1.2-0.7c0-0.2,0-0.3-0.1-0.4s-0.2-0.2-0.4-0.3c-0.2-0.1-0.5-0.2-0.8-0.4
			c-0.7-0.3-1.1-0.5-1.4-0.8c-0.2-0.3-0.4-0.6-0.4-1c0-0.5,0.2-0.9,0.6-1.2c0.4-0.3,1-0.4,1.7-0.4c0.7,0,1.4,0.1,2,0.4l-0.4,1
			c-0.6-0.3-1.2-0.4-1.6-0.4c-0.7,0-1,0.2-1,0.6c0,0.2,0.1,0.3,0.3,0.5s0.6,0.3,1.1,0.5c0.5,0.2,0.8,0.4,1.1,0.5
			c0.2,0.2,0.4,0.3,0.5,0.5C129,53,129.1,53.2,129.1,53.5z"/>
		<path class="st2" d="M130.3,47.7c0-0.2,0.1-0.4,0.2-0.5c0.1-0.1,0.3-0.2,0.5-0.2c0.2,0,0.4,0.1,0.5,0.2c0.1,0.1,0.2,0.3,0.2,0.5
			c0,0.2-0.1,0.4-0.2,0.5c-0.1,0.1-0.3,0.2-0.5,0.2c-0.2,0-0.4-0.1-0.5-0.2C130.4,48.1,130.3,47.9,130.3,47.7z M131.7,55.2h-1.3
			v-5.9h1.3V55.2z"/>
		<path class="st2" d="M138.7,55.2h-1.3v-3.7c0-0.5-0.1-0.8-0.3-1s-0.5-0.3-0.9-0.3c-0.5,0-0.9,0.2-1.2,0.5s-0.4,0.8-0.4,1.6v3h-1.3
			v-5.9h1l0.2,0.8h0.1c0.2-0.3,0.4-0.5,0.8-0.7c0.3-0.2,0.7-0.2,1.1-0.2c1.4,0,2.1,0.7,2.1,2.2V55.2z"/>
		<path class="st2" d="M145.5,49.3V50l-1,0.2c0.1,0.1,0.2,0.3,0.2,0.5s0.1,0.4,0.1,0.6c0,0.6-0.2,1.1-0.6,1.4
			c-0.4,0.4-1,0.5-1.7,0.5c-0.2,0-0.4,0-0.5,0c-0.3,0.2-0.4,0.4-0.4,0.6c0,0.1,0.1,0.2,0.2,0.3s0.4,0.1,0.7,0.1h1
			c0.7,0,1.2,0.1,1.5,0.4c0.3,0.3,0.5,0.7,0.5,1.2c0,0.7-0.3,1.2-0.8,1.6c-0.6,0.4-1.4,0.5-2.4,0.5c-0.8,0-1.4-0.1-1.9-0.4
			s-0.6-0.7-0.6-1.2c0-0.4,0.1-0.7,0.3-0.9c0.2-0.2,0.6-0.4,1-0.5c-0.2-0.1-0.3-0.2-0.4-0.3c-0.1-0.2-0.2-0.3-0.2-0.5
			c0-0.2,0.1-0.4,0.2-0.6c0.1-0.2,0.3-0.3,0.6-0.5c-0.3-0.1-0.6-0.3-0.7-0.6c-0.2-0.3-0.3-0.6-0.3-1c0-0.6,0.2-1.1,0.6-1.5
			s1-0.5,1.7-0.5c0.2,0,0.3,0,0.5,0c0.2,0,0.3,0,0.4,0.1H145.5z M140.8,56.1c0,0.3,0.1,0.5,0.4,0.6s0.6,0.2,1,0.2
			c0.7,0,1.2-0.1,1.5-0.3s0.5-0.5,0.5-0.8c0-0.3-0.1-0.4-0.3-0.6c-0.2-0.1-0.5-0.2-1-0.2h-1c-0.4,0-0.6,0.1-0.9,0.3
			C140.9,55.6,140.8,55.9,140.8,56.1z M141.4,51.2c0,0.4,0.1,0.7,0.3,0.9s0.5,0.3,0.8,0.3c0.7,0,1.1-0.4,1.1-1.2
			c0-0.4-0.1-0.7-0.3-0.9c-0.2-0.2-0.5-0.3-0.8-0.3c-0.4,0-0.6,0.1-0.8,0.3C141.5,50.5,141.4,50.8,141.4,51.2z"/>
		<path class="st2" d="M80,68.4h-1.3v-6.8h-2.3v-1.1h5.9v1.1H80V68.4z"/>
		<path class="st2" d="M86.4,62.4c0.3,0,0.5,0,0.6,0.1l-0.1,1.2c-0.2,0-0.4-0.1-0.6-0.1c-0.5,0-0.9,0.2-1.2,0.5s-0.5,0.8-0.5,1.3
			v3.1h-1.3v-5.9h1l0.2,1h0.1c0.2-0.4,0.5-0.6,0.8-0.8C85.7,62.5,86,62.4,86.4,62.4z"/>
		<path class="st2" d="M88,60.9c0-0.2,0.1-0.4,0.2-0.5c0.1-0.1,0.3-0.2,0.5-0.2c0.2,0,0.4,0.1,0.5,0.2c0.1,0.1,0.2,0.3,0.2,0.5
			c0,0.2-0.1,0.4-0.2,0.5c-0.1,0.1-0.3,0.2-0.5,0.2c-0.2,0-0.4-0.1-0.5-0.2C88.1,61.3,88,61.1,88,60.9z M89.4,68.4h-1.3v-5.9h1.3
			V68.4z"/>
		<path class="st2" d="M94.9,68.4l-0.3-0.8h0c-0.3,0.4-0.6,0.6-0.9,0.7c-0.3,0.1-0.7,0.2-1.1,0.2c-0.6,0-1-0.2-1.4-0.5
			c-0.3-0.3-0.5-0.8-0.5-1.3c0-0.6,0.2-1.1,0.7-1.4c0.5-0.3,1.1-0.5,2.1-0.5l1,0v-0.3c0-0.4-0.1-0.7-0.3-0.9
			c-0.2-0.2-0.5-0.3-0.8-0.3c-0.3,0-0.6,0-0.9,0.1s-0.5,0.2-0.8,0.3l-0.4-0.9c0.3-0.2,0.7-0.3,1.1-0.4c0.4-0.1,0.7-0.1,1.1-0.1
			c0.8,0,1.3,0.2,1.7,0.5s0.6,0.8,0.6,1.6v4H94.9z M93,67.6c0.5,0,0.8-0.1,1.1-0.4c0.3-0.3,0.4-0.6,0.4-1.1v-0.5l-0.8,0
			c-0.6,0-1,0.1-1.3,0.3c-0.3,0.2-0.4,0.4-0.4,0.8c0,0.3,0.1,0.5,0.2,0.6C92.5,67.5,92.7,67.6,93,67.6z"/>
		<path class="st2" d="M98.8,68.4h-1.3v-8.4h1.3V68.4z"/>
		<path class="st2" d="M103.6,60.6h2.3c1.1,0,1.9,0.2,2.3,0.5s0.7,0.8,0.7,1.5c0,0.5-0.1,0.8-0.4,1.1s-0.6,0.5-1,0.6v0.1
			c0.6,0.1,1,0.3,1.2,0.6c0.3,0.3,0.4,0.7,0.4,1.2c0,0.7-0.2,1.3-0.7,1.7c-0.5,0.4-1.2,0.6-2.1,0.6h-2.8V60.6z M104.9,63.8h1.2
			c0.5,0,0.9-0.1,1.2-0.3c0.2-0.2,0.4-0.5,0.4-0.9c0-0.4-0.1-0.6-0.4-0.8s-0.7-0.2-1.3-0.2h-1.1V63.8z M104.9,64.9v2.5h1.4
			c0.5,0,0.9-0.1,1.2-0.3c0.3-0.2,0.4-0.5,0.4-1c0-0.4-0.1-0.7-0.4-0.9s-0.7-0.3-1.3-0.3H104.9z"/>
		<path class="st2" d="M114.5,68.4l-0.3-0.8h0c-0.3,0.4-0.6,0.6-0.9,0.7c-0.3,0.1-0.7,0.2-1.1,0.2c-0.6,0-1-0.2-1.4-0.5
			c-0.3-0.3-0.5-0.8-0.5-1.3c0-0.6,0.2-1.1,0.7-1.4c0.5-0.3,1.1-0.5,2.1-0.5l1,0v-0.3c0-0.4-0.1-0.7-0.3-0.9
			c-0.2-0.2-0.5-0.3-0.8-0.3c-0.3,0-0.6,0-0.9,0.1s-0.5,0.2-0.8,0.3l-0.4-0.9c0.3-0.2,0.7-0.3,1.1-0.4c0.4-0.1,0.7-0.1,1.1-0.1
			c0.8,0,1.3,0.2,1.7,0.5s0.6,0.8,0.6,1.6v4H114.5z M112.6,67.6c0.5,0,0.8-0.1,1.1-0.4c0.3-0.3,0.4-0.6,0.4-1.1v-0.5l-0.8,0
			c-0.6,0-1,0.1-1.3,0.3c-0.3,0.2-0.4,0.4-0.4,0.8c0,0.3,0.1,0.5,0.2,0.6C112,67.5,112.3,67.6,112.6,67.6z"/>
		<path class="st2" d="M118.4,68.4h-1.3v-8.4h1.3V68.4z"/>
		<path class="st2" d="M123.9,68.4l-0.3-0.8h0c-0.3,0.4-0.6,0.6-0.9,0.7c-0.3,0.1-0.7,0.2-1.1,0.2c-0.6,0-1-0.2-1.4-0.5
			c-0.3-0.3-0.5-0.8-0.5-1.3c0-0.6,0.2-1.1,0.7-1.4c0.5-0.3,1.1-0.5,2.1-0.5l1,0v-0.3c0-0.4-0.1-0.7-0.3-0.9
			c-0.2-0.2-0.5-0.3-0.8-0.3c-0.3,0-0.6,0-0.9,0.1s-0.5,0.2-0.8,0.3l-0.4-0.9c0.3-0.2,0.7-0.3,1.1-0.4c0.4-0.1,0.7-0.1,1.1-0.1
			c0.8,0,1.3,0.2,1.7,0.5s0.6,0.8,0.6,1.6v4H123.9z M122,67.6c0.5,0,0.8-0.1,1.1-0.4c0.3-0.3,0.4-0.6,0.4-1.1v-0.5l-0.8,0
			c-0.6,0-1,0.1-1.3,0.3c-0.3,0.2-0.4,0.4-0.4,0.8c0,0.3,0.1,0.5,0.2,0.6C121.5,67.5,121.7,67.6,122,67.6z"/>
		<path class="st2" d="M131.8,68.4h-1.3v-3.7c0-0.5-0.1-0.8-0.3-1s-0.5-0.3-0.9-0.3c-0.5,0-0.9,0.2-1.2,0.5s-0.4,0.8-0.4,1.6v3h-1.3
			v-5.9h1l0.2,0.8h0.1c0.2-0.3,0.4-0.5,0.8-0.7c0.3-0.2,0.7-0.2,1.1-0.2c1.4,0,2.1,0.7,2.1,2.2V68.4z"/>
		<path class="st2" d="M135.9,68.5c-0.9,0-1.6-0.3-2-0.8c-0.5-0.5-0.7-1.3-0.7-2.3c0-1,0.2-1.8,0.7-2.3c0.5-0.5,1.2-0.8,2.1-0.8
			c0.6,0,1.2,0.1,1.7,0.3l-0.4,1c-0.5-0.2-1-0.3-1.3-0.3c-1,0-1.5,0.7-1.5,2c0,0.7,0.1,1.2,0.4,1.5c0.3,0.3,0.6,0.5,1.1,0.5
			c0.6,0,1.1-0.1,1.6-0.4v1.1c-0.2,0.1-0.5,0.2-0.7,0.3S136.3,68.5,135.9,68.5z"/>
		<path class="st2" d="M141.6,68.5c-0.9,0-1.6-0.3-2.2-0.8c-0.5-0.5-0.8-1.3-0.8-2.2c0-1,0.2-1.7,0.7-2.3c0.5-0.6,1.1-0.8,2-0.8
			c0.8,0,1.4,0.2,1.9,0.7s0.7,1.1,0.7,2v0.7h-4c0,0.6,0.2,1,0.5,1.3c0.3,0.3,0.7,0.5,1.2,0.5c0.4,0,0.7,0,1-0.1
			c0.3-0.1,0.6-0.2,1-0.3v1c-0.3,0.1-0.6,0.3-0.9,0.3S142,68.5,141.6,68.5z M141.4,63.3c-0.4,0-0.7,0.1-1,0.4
			c-0.2,0.3-0.4,0.6-0.4,1.1h2.7c0-0.5-0.1-0.9-0.4-1.1C142.1,63.5,141.8,63.3,141.4,63.3z"/>
	</g>
</g>
<g>
	<circle class="st2" cx="205" cy="44.3" r="9"/>
	<g>
		<path class="st3" d="M206.4,48.2h-1.6v-4.5l0-0.7l0-0.8c-0.3,0.3-0.5,0.4-0.6,0.5l-0.9,0.7l-0.8-1l2.5-2h1.3V48.2z"/>
	</g>
</g>
<g>
	<circle class="st2" cx="239.7" cy="143.3" r="9"/>
	<g>
		<g>
			<path class="st1" d="M242.4,147H237v-1.1l1.9-2c0.6-0.6,0.9-1,1.1-1.2s0.3-0.4,0.4-0.6c0.1-0.2,0.1-0.4,0.1-0.6
				c0-0.3-0.1-0.5-0.3-0.7c-0.2-0.2-0.4-0.2-0.7-0.2c-0.3,0-0.6,0.1-0.9,0.2s-0.6,0.3-0.9,0.6l-0.9-1c0.4-0.3,0.7-0.6,0.9-0.7
				c0.2-0.1,0.5-0.2,0.8-0.3c0.3-0.1,0.6-0.1,1-0.1c0.5,0,0.9,0.1,1.3,0.3s0.7,0.4,0.9,0.7s0.3,0.7,0.3,1.1c0,0.4-0.1,0.7-0.2,1
				c-0.1,0.3-0.3,0.6-0.6,1c-0.3,0.3-0.7,0.8-1.4,1.4l-1,0.9v0.1h3.4V147z"/>
		</g>
	</g>
</g>
<g>
	<circle class="st2" cx="178.4" cy="224.3" r="9"/>
	<g>
		<path class="st3" d="M180.8,222c0,0.5-0.1,0.9-0.4,1.2c-0.3,0.3-0.7,0.6-1.2,0.7v0c0.6,0.1,1.1,0.3,1.4,0.6
			c0.3,0.3,0.5,0.7,0.5,1.2c0,0.7-0.3,1.3-0.8,1.7s-1.3,0.6-2.3,0.6c-0.8,0-1.6-0.1-2.2-0.4v-1.4c0.3,0.2,0.6,0.3,1,0.4
			c0.4,0.1,0.7,0.1,1.1,0.1c0.5,0,0.9-0.1,1.2-0.3c0.3-0.2,0.4-0.5,0.4-0.9c0-0.4-0.1-0.6-0.4-0.8c-0.3-0.2-0.8-0.2-1.4-0.2h-0.6
			v-1.3h0.6c0.6,0,1-0.1,1.3-0.2c0.3-0.2,0.4-0.4,0.4-0.8c0-0.6-0.4-0.9-1.1-0.9c-0.3,0-0.5,0-0.8,0.1s-0.6,0.2-0.9,0.4l-0.8-1.1
			c0.7-0.5,1.5-0.8,2.5-0.8c0.8,0,1.4,0.2,1.9,0.5C180.6,220.9,180.8,221.4,180.8,222z"/>
	</g>
</g>
<g>
	<circle class="st2" cx="75.5" cy="200.3" r="9"/>
	<g>
		<g>
			<path class="st1" d="M78.4,202.4h-0.9v1.6h-1.6v-1.6h-3.3v-1.1l3.4-5h1.5v4.8h0.9V202.4z M75.8,201.1v-1.3c0-0.2,0-0.5,0-0.9
				c0-0.4,0-0.7,0-0.7h0c-0.1,0.3-0.3,0.6-0.5,0.8l-1.4,2.1H75.8z"/>
		</g>
	</g>
</g>
<g>
	<circle class="st2" cx="43.5" cy="110.3" r="9"/>
	<g>
		<path class="st3" d="M43.6,109c0.7,0,1.3,0.2,1.8,0.6s0.7,1,0.7,1.7c0,0.9-0.3,1.5-0.8,2c-0.5,0.5-1.3,0.7-2.3,0.7
			c-0.9,0-1.6-0.1-2.1-0.4v-1.4c0.3,0.1,0.6,0.3,1,0.4s0.7,0.1,1,0.1c1,0,1.5-0.4,1.5-1.2c0-0.8-0.5-1.2-1.5-1.2
			c-0.2,0-0.4,0-0.6,0.1c-0.2,0-0.4,0.1-0.5,0.1l-0.6-0.3l0.3-3.9h4.2v1.4h-2.8l-0.1,1.5l0.2,0C43,109.1,43.3,109,43.6,109z"/>
	</g>
</g>
<g>
	<circle class="st2" cx="110.3" cy="30.3" r="9"/>
	<g>
		<g>
			<path class="st1" d="M107.2,30.8c0-1.5,0.3-2.7,1-3.4c0.6-0.7,1.6-1.1,2.9-1.1c0.4,0,0.8,0,1,0.1v1.3c-0.3-0.1-0.6-0.1-0.9-0.1
				c-0.6,0-1,0.1-1.4,0.3c-0.4,0.2-0.6,0.4-0.8,0.7c-0.2,0.3-0.3,0.8-0.3,1.4h0.1c0.3-0.6,0.9-0.9,1.7-0.9c0.7,0,1.2,0.2,1.6,0.6
				c0.4,0.4,0.6,1,0.6,1.8c0,0.8-0.2,1.5-0.7,2s-1.1,0.7-1.9,0.7c-0.6,0-1.1-0.1-1.5-0.4s-0.8-0.6-1-1.2
				C107.3,32.1,107.2,31.5,107.2,30.8z M110,32.8c0.3,0,0.6-0.1,0.8-0.4s0.3-0.6,0.3-1c0-0.4-0.1-0.7-0.3-0.9s-0.4-0.3-0.8-0.3
				c-0.3,0-0.6,0.1-0.8,0.3c-0.2,0.2-0.4,0.5-0.4,0.7c0,0.4,0.1,0.8,0.3,1.1S109.6,32.8,110,32.8z"/>
		</g>
	</g>
</g>
</svg>
