<?xml version="1.0" encoding="utf-8"?>
<!-- Generator: Adobe Illustrator 24.0.0, SVG Export Plug-In . SVG Version: 6.00 Build 0)  -->
<svg version="1.1" id="Layer_1" xmlns="http://www.w3.org/2000/svg" xmlns:xlink="http://www.w3.org/1999/xlink" x="0px" y="0px"
	 width="566px" height="240px" viewBox="0 0 566 240" style="enable-background:new 0 0 566 240;" xml:space="preserve">
<style type="text/css">
	.st0{fill:#0071BC;}
	.st1{fill:#ED1C24;}
	.st2{fill:#646D02;}
	.st3{fill:#64E100;}
	.st4{fill:#BE0100;}
	.st5{fill:#EA7E6C;}
	.st6{fill:#FFFFFF;}
</style>
<g>
	<path class="st0" d="M37.92,67.5c-0.12-0.39-0.26-0.78-0.4-1.19c-0.14-0.41-0.28-0.81-0.42-1.21h-4.33
		c-0.14,0.4-0.28,0.81-0.42,1.22c-0.14,0.41-0.27,0.8-0.39,1.18h-2.59c0.42-1.19,0.81-2.3,1.19-3.31c0.37-1.01,0.74-1.97,1.1-2.86
		s0.71-1.75,1.06-2.55c0.35-0.81,0.71-1.59,1.08-2.36h2.37c0.36,0.77,0.72,1.55,1.08,2.36c0.35,0.81,0.71,1.66,1.07,2.55
		s0.73,1.85,1.1,2.86c0.38,1.01,0.77,2.12,1.19,3.31H37.92z M34.92,58.92c-0.06,0.16-0.14,0.38-0.24,0.66
		c-0.11,0.28-0.23,0.6-0.37,0.96c-0.14,0.36-0.29,0.76-0.46,1.2c-0.17,0.44-0.34,0.89-0.52,1.37h3.17
		c-0.17-0.48-0.33-0.94-0.49-1.38s-0.31-0.84-0.45-1.2c-0.14-0.36-0.27-0.68-0.38-0.96S34.99,59.08,34.92,58.92z"/>
	<path class="st0" d="M45.34,65.59c0.35,0,0.64-0.03,0.87-0.09c0.23-0.06,0.41-0.14,0.55-0.24c0.14-0.1,0.23-0.22,0.29-0.36
		c0.05-0.14,0.08-0.29,0.08-0.46c0-0.36-0.17-0.66-0.51-0.9c-0.34-0.24-0.93-0.5-1.76-0.78c-0.36-0.13-0.73-0.27-1.09-0.44
		c-0.36-0.17-0.69-0.37-0.98-0.62c-0.29-0.25-0.52-0.55-0.7-0.91c-0.18-0.36-0.27-0.79-0.27-1.3c0-0.51,0.1-0.97,0.29-1.38
		c0.19-0.41,0.46-0.76,0.82-1.05c0.35-0.29,0.78-0.51,1.28-0.66s1.07-0.23,1.7-0.23c0.75,0,1.39,0.08,1.94,0.24
		c0.54,0.16,0.99,0.34,1.34,0.53l-0.72,1.97c-0.31-0.16-0.65-0.3-1.03-0.42c-0.38-0.12-0.83-0.18-1.37-0.18
		c-0.6,0-1.03,0.08-1.29,0.25c-0.26,0.17-0.39,0.42-0.39,0.76c0,0.2,0.05,0.37,0.14,0.51c0.1,0.14,0.23,0.26,0.41,0.38
		c0.18,0.11,0.38,0.21,0.61,0.3c0.23,0.09,0.48,0.18,0.76,0.28c0.58,0.21,1.08,0.42,1.5,0.63c0.43,0.21,0.78,0.45,1.06,0.73
		c0.28,0.28,0.49,0.6,0.63,0.98s0.21,0.83,0.21,1.36c0,1.03-0.36,1.84-1.09,2.41c-0.73,0.57-1.82,0.86-3.28,0.86
		c-0.49,0-0.93-0.03-1.33-0.09c-0.4-0.06-0.74-0.13-1.05-0.22c-0.3-0.08-0.57-0.18-0.78-0.27c-0.22-0.1-0.4-0.19-0.55-0.27l0.7-1.98
		c0.33,0.18,0.74,0.34,1.22,0.49S44.64,65.59,45.34,65.59z"/>
	<path class="st0" d="M54.65,65.59c0.35,0,0.64-0.03,0.87-0.09c0.23-0.06,0.41-0.14,0.55-0.24c0.14-0.1,0.23-0.22,0.29-0.36
		c0.05-0.14,0.08-0.29,0.08-0.46c0-0.36-0.17-0.66-0.51-0.9c-0.34-0.24-0.93-0.5-1.76-0.78c-0.36-0.13-0.73-0.27-1.09-0.44
		c-0.36-0.17-0.69-0.37-0.98-0.62c-0.29-0.25-0.52-0.55-0.7-0.91c-0.18-0.36-0.27-0.79-0.27-1.3c0-0.51,0.1-0.97,0.29-1.38
		c0.19-0.41,0.46-0.76,0.82-1.05c0.35-0.29,0.78-0.51,1.28-0.66s1.07-0.23,1.7-0.23c0.75,0,1.39,0.08,1.94,0.24
		c0.54,0.16,0.99,0.34,1.34,0.53l-0.72,1.97c-0.31-0.16-0.65-0.3-1.03-0.42c-0.38-0.12-0.83-0.18-1.37-0.18
		c-0.6,0-1.03,0.08-1.29,0.25c-0.26,0.17-0.39,0.42-0.39,0.76c0,0.2,0.05,0.37,0.14,0.51c0.1,0.14,0.23,0.26,0.41,0.38
		c0.18,0.11,0.38,0.21,0.61,0.3c0.23,0.09,0.48,0.18,0.76,0.28c0.58,0.21,1.08,0.42,1.5,0.63c0.43,0.21,0.78,0.45,1.06,0.73
		c0.28,0.28,0.49,0.6,0.63,0.98s0.21,0.83,0.21,1.36c0,1.03-0.36,1.84-1.09,2.41c-0.73,0.57-1.82,0.86-3.28,0.86
		c-0.49,0-0.93-0.03-1.33-0.09c-0.4-0.06-0.74-0.13-1.05-0.22c-0.3-0.08-0.57-0.18-0.78-0.27c-0.22-0.1-0.4-0.19-0.55-0.27l0.7-1.98
		c0.33,0.18,0.74,0.34,1.22,0.49S53.95,65.59,54.65,65.59z"/>
	<path class="st0" d="M60.94,67.5V56.41h7.49v2.1h-4.99v2.18h4.43v2.05h-4.43v2.67h5.36v2.1H60.94z"/>
	<path class="st0" d="M78.86,56.41v2.13h-3.34v8.96h-2.5v-8.96h-3.34v-2.13H78.86z"/>
</g>
<g>
	<path class="st0" d="M30.48,107.14V96.05h7.49v2.1h-4.99v2.18h4.43v2.05h-4.43v2.67h5.36v2.1H30.48z"/>
	<path class="st0" d="M46.87,107.14c-0.31-0.62-0.65-1.24-1.03-1.88c-0.37-0.63-0.8-1.17-1.28-1.61c-0.15,0.17-0.34,0.39-0.57,0.69
		s-0.46,0.61-0.69,0.94s-0.44,0.67-0.64,1.03c-0.2,0.35-0.35,0.63-0.45,0.83h-2.85c0.47-0.87,1.02-1.76,1.65-2.68
		c0.63-0.92,1.34-1.9,2.13-2.94l-3.62-5.47h3.02l2.11,3.21l2.16-3.21h2.85l-3.6,5.35c0.94,1.18,1.72,2.27,2.33,3.25
		c0.61,0.99,1.09,1.81,1.44,2.49H46.87z"/>
	<path class="st0" d="M54.62,95.92c1.65,0,2.92,0.29,3.81,0.87c0.89,0.58,1.33,1.53,1.33,2.86c0,1.33-0.45,2.3-1.34,2.89
		c-0.9,0.59-2.18,0.89-3.84,0.89h-0.78v3.71h-2.5V96.21c0.54-0.11,1.12-0.18,1.73-0.22C53.63,95.94,54.16,95.92,54.62,95.92z
		 M54.78,98.05c-0.18,0-0.36,0.01-0.54,0.02c-0.18,0.01-0.33,0.02-0.46,0.03v3.2h0.78c0.86,0,1.51-0.12,1.95-0.35
		c0.44-0.23,0.66-0.67,0.66-1.31c0-0.31-0.06-0.57-0.17-0.77s-0.27-0.37-0.48-0.49s-0.46-0.21-0.76-0.26
		C55.48,98.07,55.15,98.05,54.78,98.05z"/>
	<path class="st0" d="M61.6,107.14V96.05h7.49v2.1h-4.99v2.18h4.43v2.05h-4.43v2.67h5.36v2.1H61.6z"/>
	<path class="st0" d="M78.73,107.14c-0.71-1.27-1.49-2.52-2.32-3.76s-1.72-2.41-2.66-3.5v7.26h-2.46V96.05h2.03
		c0.35,0.35,0.74,0.78,1.17,1.3s0.86,1.06,1.3,1.64c0.44,0.58,0.88,1.18,1.32,1.81c0.44,0.62,0.85,1.22,1.23,1.8v-6.54h2.48v11.09
		H78.73z"/>
	<path class="st0" d="M86.41,105.23c0.35,0,0.64-0.03,0.87-0.09c0.23-0.06,0.41-0.14,0.55-0.24c0.14-0.1,0.23-0.22,0.29-0.36
		c0.05-0.14,0.08-0.29,0.08-0.46c0-0.36-0.17-0.66-0.51-0.9c-0.34-0.24-0.93-0.5-1.76-0.78c-0.36-0.13-0.73-0.27-1.09-0.44
		c-0.36-0.17-0.69-0.37-0.98-0.62c-0.29-0.25-0.52-0.55-0.7-0.91c-0.18-0.36-0.27-0.79-0.27-1.3c0-0.51,0.1-0.97,0.29-1.38
		c0.19-0.41,0.46-0.76,0.82-1.05c0.35-0.29,0.78-0.51,1.28-0.66s1.07-0.23,1.7-0.23c0.75,0,1.39,0.08,1.94,0.24
		c0.54,0.16,0.99,0.34,1.34,0.53l-0.72,1.97c-0.31-0.16-0.65-0.3-1.03-0.42c-0.38-0.12-0.83-0.18-1.37-0.18
		c-0.6,0-1.03,0.08-1.29,0.25c-0.26,0.17-0.39,0.42-0.39,0.76c0,0.2,0.05,0.37,0.14,0.51c0.1,0.14,0.23,0.26,0.41,0.38
		c0.18,0.11,0.38,0.21,0.61,0.3c0.23,0.09,0.48,0.18,0.76,0.28c0.58,0.21,1.08,0.42,1.5,0.63c0.43,0.21,0.78,0.45,1.06,0.73
		c0.28,0.28,0.49,0.6,0.63,0.98s0.21,0.83,0.21,1.36c0,1.03-0.36,1.84-1.09,2.41c-0.73,0.57-1.82,0.86-3.28,0.86
		c-0.49,0-0.93-0.03-1.33-0.09c-0.4-0.06-0.74-0.13-1.05-0.22c-0.3-0.08-0.57-0.18-0.78-0.27c-0.22-0.1-0.4-0.19-0.55-0.27l0.7-1.98
		c0.33,0.18,0.74,0.34,1.22,0.49S85.71,105.23,86.41,105.23z"/>
	<path class="st0" d="M92.7,107.14V96.05h7.49v2.1H95.2v2.18h4.43v2.05H95.2v2.67h5.36v2.1H92.7z"/>
</g>
<g>
	<g>
		<path class="st1" d="M37.89,144.63v2.14h-7.41v-11.09h2.5v8.94H37.89z"/>
		<path class="st1" d="M39.49,135.69h2.5v11.09h-2.5V135.69z"/>
		<path class="st1" d="M51.98,146.78c-0.12-0.39-0.26-0.78-0.4-1.19c-0.14-0.41-0.28-0.81-0.42-1.21h-4.33
			c-0.14,0.4-0.28,0.81-0.42,1.22c-0.14,0.41-0.27,0.8-0.39,1.18h-2.59c0.42-1.19,0.81-2.3,1.19-3.31c0.37-1.01,0.74-1.97,1.1-2.86
			s0.71-1.75,1.06-2.55c0.35-0.81,0.71-1.59,1.08-2.36h2.37c0.36,0.77,0.72,1.55,1.08,2.36c0.35,0.81,0.71,1.66,1.07,2.55
			s0.73,1.85,1.1,2.86c0.38,1.01,0.77,2.12,1.19,3.31H51.98z M48.98,138.2c-0.06,0.16-0.14,0.38-0.24,0.66
			c-0.11,0.28-0.23,0.6-0.37,0.96c-0.14,0.36-0.29,0.76-0.46,1.2c-0.17,0.44-0.34,0.89-0.52,1.37h3.17
			c-0.17-0.48-0.33-0.94-0.49-1.38s-0.31-0.84-0.45-1.2c-0.14-0.36-0.27-0.68-0.38-0.96S49.05,138.36,48.98,138.2z"/>
		<path class="st1" d="M59.77,146.92c-0.61,0-1.21-0.02-1.82-0.06c-0.6-0.04-1.23-0.13-1.88-0.26v-10.75
			c0.51-0.1,1.07-0.17,1.68-0.22s1.17-0.07,1.7-0.07c0.7,0,1.35,0.05,1.94,0.15c0.59,0.1,1.1,0.27,1.53,0.52
			c0.43,0.25,0.76,0.57,1,0.97c0.24,0.4,0.36,0.89,0.36,1.48c0,0.89-0.43,1.58-1.28,2.1c0.7,0.27,1.18,0.63,1.44,1.09
			c0.26,0.46,0.38,0.98,0.38,1.55c0,1.16-0.42,2.04-1.27,2.62C62.71,146.63,61.45,146.92,59.77,146.92z M58.51,140.04h1.22
			c0.77,0,1.32-0.1,1.65-0.3c0.33-0.2,0.5-0.51,0.5-0.95c0-0.45-0.17-0.76-0.51-0.94c-0.34-0.18-0.84-0.27-1.5-0.27
			c-0.21,0-0.44,0-0.69,0.01c-0.25,0.01-0.46,0.02-0.66,0.04V140.04z M58.51,141.94v2.86c0.18,0.02,0.38,0.04,0.59,0.05
			c0.21,0.01,0.45,0.02,0.7,0.02c0.75,0,1.35-0.11,1.81-0.32c0.46-0.21,0.69-0.61,0.69-1.18c0-0.51-0.19-0.88-0.58-1.1
			c-0.38-0.22-0.93-0.33-1.65-0.33H58.51z"/>
		<path class="st1" d="M66.83,135.69h2.5v11.09h-2.5V135.69z"/>
		<path class="st1" d="M79.29,144.63v2.14h-7.41v-11.09h2.5v8.94H79.29z"/>
		<path class="st1" d="M80.89,135.69h2.5v11.09h-2.5V135.69z"/>
		<path class="st1" d="M94.17,135.69v2.13h-3.34v8.96h-2.5v-8.96h-3.34v-2.13H94.17z"/>
		<path class="st1" d="M100.38,140.24c0.45-0.76,0.88-1.51,1.28-2.27c0.41-0.75,0.78-1.52,1.12-2.28h2.75
			c-0.61,1.19-1.24,2.35-1.89,3.47c-0.65,1.12-1.34,2.25-2.06,3.38v4.24h-2.5v-4.21c-0.73-1.13-1.42-2.26-2.07-3.39
			c-0.66-1.13-1.29-2.29-1.9-3.49h2.9c0.34,0.77,0.71,1.53,1.1,2.28C99.51,138.73,99.93,139.48,100.38,140.24z"/>
	</g>
</g>
<g>
	<path class="st1" d="M35.54,186.64c-1.8,0-3.18-0.5-4.12-1.5c-0.94-1-1.42-2.43-1.42-4.27c0-0.92,0.14-1.74,0.43-2.46
		c0.29-0.72,0.68-1.33,1.18-1.82s1.1-0.87,1.79-1.13s1.45-0.38,2.26-0.38c0.47,0,0.9,0.04,1.28,0.1c0.38,0.07,0.72,0.15,1.01,0.24
		c0.29,0.09,0.53,0.18,0.72,0.28c0.19,0.1,0.33,0.17,0.42,0.22l-0.72,2.02c-0.34-0.18-0.74-0.34-1.19-0.46
		c-0.45-0.13-0.97-0.19-1.54-0.19c-0.38,0-0.76,0.06-1.13,0.19c-0.37,0.13-0.69,0.33-0.98,0.62c-0.28,0.28-0.51,0.65-0.68,1.1
		c-0.17,0.45-0.26,0.99-0.26,1.63c0,0.51,0.06,0.99,0.17,1.43c0.11,0.44,0.29,0.82,0.54,1.14c0.25,0.32,0.58,0.57,0.98,0.76
		c0.41,0.19,0.9,0.28,1.47,0.28c0.36,0,0.69-0.02,0.98-0.06s0.54-0.09,0.77-0.15c0.22-0.06,0.42-0.13,0.59-0.2
		c0.17-0.07,0.33-0.14,0.46-0.21l0.69,2c-0.35,0.21-0.85,0.41-1.49,0.58C37.12,186.55,36.38,186.64,35.54,186.64z"/>
	<path class="st1" d="M48.73,186.42c-0.12-0.39-0.26-0.78-0.4-1.19c-0.14-0.41-0.28-0.81-0.42-1.21h-4.33
		c-0.14,0.4-0.28,0.81-0.42,1.22c-0.14,0.41-0.27,0.8-0.39,1.18h-2.59c0.42-1.19,0.81-2.3,1.19-3.31c0.37-1.01,0.74-1.97,1.1-2.86
		s0.71-1.75,1.06-2.55c0.35-0.81,0.71-1.59,1.08-2.36h2.37c0.36,0.77,0.72,1.55,1.08,2.36c0.35,0.81,0.71,1.66,1.07,2.55
		s0.73,1.85,1.1,2.86c0.38,1.01,0.77,2.12,1.19,3.31H48.73z M45.74,177.84c-0.06,0.16-0.14,0.38-0.24,0.66
		c-0.11,0.28-0.23,0.6-0.37,0.96c-0.14,0.36-0.29,0.76-0.46,1.2c-0.17,0.44-0.34,0.89-0.52,1.37h3.17
		c-0.17-0.48-0.33-0.94-0.49-1.38s-0.31-0.84-0.45-1.2c-0.14-0.36-0.27-0.68-0.38-0.96S45.8,178,45.74,177.84z"/>
	<path class="st1" d="M56.16,175.2c1.65,0,2.92,0.29,3.81,0.87c0.89,0.58,1.33,1.53,1.33,2.86c0,1.33-0.45,2.3-1.34,2.89
		c-0.9,0.59-2.18,0.89-3.84,0.89h-0.78v3.71h-2.5v-10.93c0.54-0.11,1.12-0.18,1.73-0.22C55.17,175.22,55.7,175.2,56.16,175.2z
		 M56.32,177.33c-0.18,0-0.36,0.01-0.54,0.02c-0.18,0.01-0.33,0.02-0.46,0.03v3.2h0.78c0.86,0,1.51-0.12,1.95-0.35
		c0.44-0.23,0.66-0.67,0.66-1.31c0-0.31-0.06-0.57-0.17-0.77s-0.27-0.37-0.48-0.49s-0.46-0.21-0.76-0.26
		C57.01,177.35,56.68,177.33,56.32,177.33z"/>
	<path class="st1" d="M63.13,175.33h2.5v11.09h-2.5V175.33z"/>
	<path class="st1" d="M76.42,175.33v2.13h-3.34v8.96h-2.5v-8.96h-3.34v-2.13H76.42z"/>
	<path class="st1" d="M84.14,186.42c-0.12-0.39-0.26-0.78-0.4-1.19c-0.14-0.41-0.28-0.81-0.42-1.21h-4.33
		c-0.14,0.4-0.28,0.81-0.42,1.22c-0.14,0.41-0.27,0.8-0.39,1.18h-2.59c0.42-1.19,0.81-2.3,1.19-3.31c0.37-1.01,0.74-1.97,1.1-2.86
		s0.71-1.75,1.06-2.55c0.35-0.81,0.71-1.59,1.08-2.36h2.37c0.36,0.77,0.72,1.55,1.08,2.36c0.35,0.81,0.71,1.66,1.07,2.55
		s0.73,1.85,1.1,2.86c0.38,1.01,0.77,2.12,1.19,3.31H84.14z M81.14,177.84c-0.06,0.16-0.14,0.38-0.24,0.66
		c-0.11,0.28-0.23,0.6-0.37,0.96c-0.14,0.36-0.29,0.76-0.46,1.2c-0.17,0.44-0.34,0.89-0.52,1.37h3.17
		c-0.17-0.48-0.33-0.94-0.49-1.38s-0.31-0.84-0.45-1.2c-0.14-0.36-0.27-0.68-0.38-0.96S81.21,178,81.14,177.84z"/>
	<path class="st1" d="M95.65,184.27v2.14h-7.41v-11.09h2.5v8.94H95.65z"/>
</g>
<g>
	<path class="st1" d="M33.73,214.84c1.66,0,2.94,0.3,3.82,0.89c0.89,0.59,1.33,1.51,1.33,2.76c0,0.78-0.18,1.41-0.54,1.9
		s-0.87,0.87-1.54,1.14c0.22,0.28,0.46,0.59,0.7,0.95c0.25,0.36,0.49,0.73,0.73,1.12c0.24,0.39,0.47,0.79,0.7,1.22
		c0.22,0.42,0.43,0.83,0.62,1.24h-2.79c-0.2-0.36-0.41-0.73-0.62-1.1c-0.21-0.37-0.42-0.74-0.64-1.09c-0.22-0.35-0.44-0.69-0.65-1
		c-0.21-0.31-0.43-0.6-0.64-0.86h-1.23v4.05h-2.5v-10.93c0.54-0.11,1.11-0.18,1.69-0.22C32.75,214.86,33.27,214.84,33.73,214.84z
		 M33.87,216.97c-0.18,0-0.34,0.01-0.49,0.02s-0.28,0.02-0.41,0.03v3.01h0.7c0.94,0,1.61-0.12,2.02-0.35
		c0.41-0.23,0.61-0.63,0.61-1.2c0-0.54-0.21-0.93-0.62-1.16C35.28,217.08,34.67,216.97,33.87,216.97z"/>
	<path class="st1" d="M41.15,226.05v-11.09h7.49v2.1h-4.99v2.18h4.43v2.05h-4.43v2.67h5.36v2.1H41.15z"/>
	<path class="st1" d="M54.34,226.05c-0.44-0.93-0.88-1.9-1.31-2.9c-0.43-1-0.84-1.99-1.22-2.97c-0.39-0.98-0.74-1.92-1.07-2.82
		c-0.32-0.9-0.6-1.7-0.84-2.4h2.75c0.21,0.64,0.44,1.33,0.69,2.07c0.25,0.74,0.51,1.48,0.78,2.21c0.26,0.74,0.52,1.44,0.76,2.11
		c0.24,0.67,0.47,1.26,0.69,1.75c0.21-0.49,0.44-1.07,0.68-1.74s0.5-1.38,0.77-2.11c0.26-0.73,0.52-1.47,0.78-2.21
		c0.25-0.74,0.49-1.43,0.69-2.08h2.66c-0.25,0.71-0.53,1.51-0.86,2.4s-0.68,1.83-1.06,2.81s-0.79,1.97-1.22,2.98
		c-0.43,1-0.86,1.97-1.3,2.9H54.34z"/>
	<path class="st1" d="M62.57,226.05v-11.09h7.49v2.1h-4.99v2.18h4.43v2.05h-4.43v2.67h5.36v2.1H62.57z"/>
	<path class="st1" d="M79.71,226.05c-0.71-1.27-1.49-2.52-2.32-3.76s-1.72-2.41-2.66-3.5v7.26h-2.46v-11.09h2.03
		c0.35,0.35,0.74,0.78,1.17,1.3s0.86,1.06,1.3,1.64c0.44,0.58,0.88,1.18,1.32,1.81c0.44,0.62,0.85,1.22,1.23,1.8v-6.54h2.48v11.09
		H79.71z"/>
	<path class="st1" d="M88.7,226.28c-0.78,0-1.45-0.11-2.02-0.33c-0.57-0.22-1.03-0.52-1.4-0.91c-0.37-0.39-0.64-0.85-0.82-1.39
		c-0.18-0.54-0.26-1.13-0.26-1.78v-6.9h2.5v6.69c0,0.45,0.05,0.83,0.15,1.14c0.1,0.31,0.24,0.57,0.42,0.77
		c0.18,0.2,0.39,0.34,0.64,0.42c0.25,0.09,0.52,0.13,0.82,0.13c0.61,0,1.1-0.19,1.48-0.56c0.38-0.37,0.57-1.01,0.57-1.9v-6.69h2.5
		v6.9c0,0.65-0.09,1.25-0.27,1.79c-0.18,0.54-0.46,1.01-0.83,1.4c-0.37,0.39-0.85,0.69-1.42,0.9
		C90.17,226.17,89.49,226.28,88.7,226.28z"/>
	<path class="st1" d="M95.68,226.05v-11.09h7.49v2.1h-4.99v2.18h4.43v2.05h-4.43v2.67h5.36v2.1H95.68z"/>
</g>
<g>
	<path class="st0" d="M210.19,61.95c0,0.96-0.15,1.8-0.45,2.51c-0.3,0.71-0.72,1.31-1.27,1.78c-0.55,0.47-1.22,0.82-2.01,1.06
		c-0.79,0.23-1.67,0.35-2.66,0.35c-0.45,0-0.97-0.02-1.57-0.06c-0.6-0.04-1.18-0.11-1.76-0.23v-10.8c0.58-0.11,1.18-0.18,1.8-0.22
		c0.62-0.04,1.16-0.06,1.61-0.06c0.95,0,1.81,0.11,2.58,0.32s1.44,0.55,1.99,1.01c0.55,0.46,0.98,1.05,1.28,1.76
		C210.04,60.08,210.19,60.94,210.19,61.95z M202.98,65.47c0.12,0.01,0.25,0.02,0.41,0.02c0.15,0.01,0.34,0.01,0.55,0.01
		c1.25,0,2.17-0.31,2.78-0.94c0.6-0.63,0.9-1.5,0.9-2.61c0-1.16-0.29-2.04-0.86-2.64c-0.58-0.6-1.49-0.9-2.74-0.9
		c-0.17,0-0.35,0-0.53,0.01c-0.18,0.01-0.35,0.02-0.51,0.04V65.47z"/>
	<path class="st0" d="M212.27,67.5V56.41h7.49v2.1h-4.99v2.18h4.43v2.05h-4.43v2.67h5.36v2.1H212.27z"/>
	<path class="st0" d="M225.66,67.64c-0.61,0-1.21-0.02-1.82-0.06c-0.6-0.04-1.23-0.13-1.88-0.26V56.57c0.51-0.1,1.07-0.17,1.68-0.22
		s1.17-0.07,1.7-0.07c0.7,0,1.35,0.05,1.94,0.15c0.59,0.1,1.1,0.27,1.53,0.52c0.43,0.25,0.76,0.57,1,0.97
		c0.24,0.4,0.36,0.89,0.36,1.48c0,0.89-0.43,1.58-1.28,2.1c0.7,0.27,1.18,0.63,1.44,1.09c0.26,0.46,0.38,0.98,0.38,1.55
		c0,1.16-0.42,2.04-1.27,2.62C228.6,67.35,227.34,67.64,225.66,67.64z M224.4,60.76h1.22c0.77,0,1.32-0.1,1.65-0.3
		c0.33-0.2,0.5-0.51,0.5-0.95c0-0.45-0.17-0.76-0.51-0.94c-0.34-0.18-0.84-0.27-1.5-0.27c-0.21,0-0.44,0-0.69,0.01
		c-0.25,0.01-0.46,0.02-0.66,0.04V60.76z M224.4,62.67v2.86c0.18,0.02,0.38,0.04,0.59,0.05c0.21,0.01,0.45,0.02,0.7,0.02
		c0.75,0,1.35-0.11,1.81-0.32c0.46-0.21,0.69-0.61,0.69-1.18c0-0.51-0.19-0.88-0.58-1.1c-0.38-0.22-0.93-0.33-1.65-0.33H224.4z"/>
	<path class="st0" d="M232.72,56.41h2.5V67.5h-2.5V56.41z"/>
	<path class="st0" d="M246,56.41v2.13h-3.34v8.96h-2.5v-8.96h-3.34v-2.13H246z"/>
</g>
<g>
	<path class="st0" d="M210.19,101.59c0,0.96-0.15,1.8-0.45,2.51c-0.3,0.71-0.72,1.31-1.27,1.78c-0.55,0.47-1.22,0.82-2.01,1.06
		c-0.79,0.23-1.67,0.35-2.66,0.35c-0.45,0-0.97-0.02-1.57-0.06c-0.6-0.04-1.18-0.11-1.76-0.23v-10.8c0.58-0.11,1.18-0.18,1.8-0.22
		c0.62-0.04,1.16-0.06,1.61-0.06c0.95,0,1.81,0.11,2.58,0.32s1.44,0.55,1.99,1.01c0.55,0.46,0.98,1.05,1.28,1.76
		C210.04,99.72,210.19,100.58,210.19,101.59z M202.98,105.1c0.12,0.01,0.25,0.02,0.41,0.02c0.15,0.01,0.34,0.01,0.55,0.01
		c1.25,0,2.17-0.31,2.78-0.94c0.6-0.63,0.9-1.5,0.9-2.61c0-1.16-0.29-2.04-0.86-2.64c-0.58-0.6-1.49-0.9-2.74-0.9
		c-0.17,0-0.35,0-0.53,0.01c-0.18,0.01-0.35,0.02-0.51,0.04V105.1z"/>
	<path class="st0" d="M212.27,107.14V96.05h7.49v2.1h-4.99v2.18h4.43v2.05h-4.43v2.67h5.36v2.1H212.27z"/>
	<path class="st0" d="M225.66,107.28c-0.61,0-1.21-0.02-1.82-0.06c-0.6-0.04-1.23-0.13-1.88-0.26V96.21
		c0.51-0.1,1.07-0.17,1.68-0.22s1.17-0.07,1.7-0.07c0.7,0,1.35,0.05,1.94,0.15c0.59,0.1,1.1,0.27,1.53,0.52
		c0.43,0.25,0.76,0.57,1,0.97c0.24,0.4,0.36,0.89,0.36,1.48c0,0.89-0.43,1.58-1.28,2.1c0.7,0.27,1.18,0.63,1.44,1.09
		c0.26,0.46,0.38,0.98,0.38,1.55c0,1.16-0.42,2.04-1.27,2.62C228.6,106.99,227.34,107.28,225.66,107.28z M224.4,100.4h1.22
		c0.77,0,1.32-0.1,1.65-0.3c0.33-0.2,0.5-0.51,0.5-0.95c0-0.45-0.17-0.76-0.51-0.94c-0.34-0.18-0.84-0.27-1.5-0.27
		c-0.21,0-0.44,0-0.69,0.01c-0.25,0.01-0.46,0.02-0.66,0.04V100.4z M224.4,102.31v2.86c0.18,0.02,0.38,0.04,0.59,0.05
		c0.21,0.01,0.45,0.02,0.7,0.02c0.75,0,1.35-0.11,1.81-0.32c0.46-0.21,0.69-0.61,0.69-1.18c0-0.51-0.19-0.88-0.58-1.1
		c-0.38-0.22-0.93-0.33-1.65-0.33H224.4z"/>
	<path class="st0" d="M232.72,96.05h2.5v11.09h-2.5V96.05z"/>
	<path class="st0" d="M246,96.05v2.13h-3.34v8.96h-2.5v-8.96h-3.34v-2.13H246z"/>
</g>
<g>
	<g>
		<path class="st1" d="M205.54,147c-1.8,0-3.18-0.5-4.12-1.5c-0.94-1-1.42-2.43-1.42-4.27c0-0.92,0.14-1.74,0.43-2.46
			c0.29-0.72,0.68-1.33,1.18-1.82s1.1-0.87,1.79-1.13s1.45-0.38,2.26-0.38c0.47,0,0.9,0.04,1.28,0.1c0.38,0.07,0.72,0.15,1.01,0.24
			c0.29,0.09,0.53,0.18,0.72,0.28c0.19,0.1,0.33,0.17,0.42,0.22l-0.72,2.02c-0.34-0.18-0.74-0.34-1.19-0.46
			c-0.45-0.13-0.97-0.19-1.54-0.19c-0.38,0-0.76,0.06-1.13,0.19c-0.37,0.13-0.69,0.33-0.98,0.62c-0.28,0.28-0.51,0.65-0.68,1.1
			c-0.17,0.45-0.26,0.99-0.26,1.63c0,0.51,0.06,0.99,0.17,1.43c0.11,0.44,0.29,0.82,0.54,1.14c0.25,0.32,0.58,0.57,0.98,0.76
			c0.41,0.19,0.9,0.28,1.47,0.28c0.36,0,0.69-0.02,0.98-0.06s0.54-0.09,0.77-0.15c0.22-0.06,0.42-0.13,0.59-0.2
			c0.17-0.07,0.33-0.14,0.46-0.21l0.69,2c-0.35,0.21-0.85,0.41-1.49,0.58C207.12,146.92,206.38,147,205.54,147z"/>
		<path class="st1" d="M214.1,135.56c1.66,0,2.94,0.3,3.82,0.89c0.89,0.59,1.33,1.51,1.33,2.76c0,0.78-0.18,1.41-0.54,1.9
			s-0.87,0.87-1.54,1.14c0.22,0.28,0.46,0.59,0.7,0.95c0.25,0.36,0.49,0.73,0.73,1.12c0.24,0.39,0.47,0.79,0.7,1.22
			c0.22,0.42,0.43,0.83,0.62,1.24h-2.79c-0.2-0.36-0.41-0.73-0.62-1.1c-0.21-0.37-0.42-0.74-0.64-1.09c-0.22-0.35-0.44-0.69-0.65-1
			c-0.21-0.31-0.43-0.6-0.64-0.86h-1.23v4.05h-2.5v-10.93c0.54-0.11,1.11-0.18,1.69-0.22C213.12,135.58,213.64,135.56,214.1,135.56z
			 M214.24,137.69c-0.18,0-0.34,0.01-0.49,0.02s-0.28,0.02-0.41,0.03v3.01h0.7c0.94,0,1.61-0.12,2.02-0.35
			c0.41-0.23,0.61-0.63,0.61-1.2c0-0.54-0.21-0.93-0.62-1.16C215.64,137.8,215.04,137.69,214.24,137.69z"/>
		<path class="st1" d="M221.52,146.78v-11.09h7.49v2.1h-4.99v2.18h4.43v2.05h-4.43v2.67h5.36v2.1H221.52z"/>
		<path class="st1" d="M240.93,141.22c0,0.96-0.15,1.8-0.45,2.51c-0.3,0.71-0.72,1.31-1.27,1.78c-0.55,0.47-1.22,0.82-2.01,1.06
			c-0.79,0.23-1.67,0.35-2.66,0.35c-0.45,0-0.97-0.02-1.57-0.06c-0.6-0.04-1.18-0.11-1.76-0.23v-10.8c0.58-0.11,1.18-0.18,1.8-0.22
			c0.62-0.04,1.16-0.06,1.61-0.06c0.95,0,1.81,0.11,2.58,0.32s1.44,0.55,1.99,1.01c0.55,0.46,0.98,1.05,1.28,1.76
			C240.78,139.36,240.93,140.22,240.93,141.22z M233.71,144.74c0.12,0.01,0.25,0.02,0.41,0.02c0.15,0.01,0.34,0.01,0.55,0.01
			c1.25,0,2.17-0.31,2.78-0.94c0.6-0.63,0.9-1.5,0.9-2.61c0-1.16-0.29-2.04-0.86-2.64c-0.58-0.6-1.49-0.9-2.74-0.9
			c-0.17,0-0.35,0-0.53,0.01c-0.18,0.01-0.35,0.02-0.51,0.04V144.74z"/>
		<path class="st1" d="M243.01,135.69h2.5v11.09h-2.5V135.69z"/>
		<path class="st1" d="M256.29,135.69v2.13h-3.34v8.96h-2.5v-8.96h-3.34v-2.13H256.29z"/>
	</g>
</g>
<g>
	<path class="st1" d="M205.54,186.64c-1.8,0-3.18-0.5-4.12-1.5c-0.94-1-1.42-2.43-1.42-4.27c0-0.92,0.14-1.74,0.43-2.46
		c0.29-0.72,0.68-1.33,1.18-1.82s1.1-0.87,1.79-1.13s1.45-0.38,2.26-0.38c0.47,0,0.9,0.04,1.28,0.1c0.38,0.07,0.72,0.15,1.01,0.24
		c0.29,0.09,0.53,0.18,0.72,0.28c0.19,0.1,0.33,0.17,0.42,0.22l-0.72,2.02c-0.34-0.18-0.74-0.34-1.19-0.46
		c-0.45-0.13-0.97-0.19-1.54-0.19c-0.38,0-0.76,0.06-1.13,0.19c-0.37,0.13-0.69,0.33-0.98,0.62c-0.28,0.28-0.51,0.65-0.68,1.1
		c-0.17,0.45-0.26,0.99-0.26,1.63c0,0.51,0.06,0.99,0.17,1.43c0.11,0.44,0.29,0.82,0.54,1.14c0.25,0.32,0.58,0.57,0.98,0.76
		c0.41,0.19,0.9,0.28,1.47,0.28c0.36,0,0.69-0.02,0.98-0.06s0.54-0.09,0.77-0.15c0.22-0.06,0.42-0.13,0.59-0.2
		c0.17-0.07,0.33-0.14,0.46-0.21l0.69,2c-0.35,0.21-0.85,0.41-1.49,0.58C207.12,186.55,206.38,186.64,205.54,186.64z"/>
	<path class="st1" d="M214.1,175.2c1.66,0,2.94,0.3,3.82,0.89c0.89,0.59,1.33,1.51,1.33,2.76c0,0.78-0.18,1.41-0.54,1.9
		s-0.87,0.87-1.54,1.14c0.22,0.28,0.46,0.59,0.7,0.95c0.25,0.36,0.49,0.73,0.73,1.12c0.24,0.39,0.47,0.79,0.7,1.22
		c0.22,0.42,0.43,0.83,0.62,1.24h-2.79c-0.2-0.36-0.41-0.73-0.62-1.1c-0.21-0.37-0.42-0.74-0.64-1.09c-0.22-0.35-0.44-0.69-0.65-1
		c-0.21-0.31-0.43-0.6-0.64-0.86h-1.23v4.05h-2.5v-10.93c0.54-0.11,1.11-0.18,1.69-0.22C213.12,175.22,213.64,175.2,214.1,175.2z
		 M214.24,177.33c-0.18,0-0.34,0.01-0.49,0.02s-0.28,0.02-0.41,0.03v3.01h0.7c0.94,0,1.61-0.12,2.02-0.35
		c0.41-0.23,0.61-0.63,0.61-1.2c0-0.54-0.21-0.93-0.62-1.16C215.64,177.44,215.04,177.33,214.24,177.33z"/>
	<path class="st1" d="M221.52,186.42v-11.09h7.49v2.1h-4.99v2.18h4.43v2.05h-4.43v2.67h5.36v2.1H221.52z"/>
	<path class="st1" d="M240.93,180.86c0,0.96-0.15,1.8-0.45,2.51c-0.3,0.71-0.72,1.31-1.27,1.78c-0.55,0.47-1.22,0.82-2.01,1.06
		c-0.79,0.23-1.67,0.35-2.66,0.35c-0.45,0-0.97-0.02-1.57-0.06c-0.6-0.04-1.18-0.11-1.76-0.23v-10.8c0.58-0.11,1.18-0.18,1.8-0.22
		c0.62-0.04,1.16-0.06,1.61-0.06c0.95,0,1.81,0.11,2.58,0.32s1.44,0.55,1.99,1.01c0.55,0.46,0.98,1.05,1.28,1.76
		C240.78,179,240.93,179.86,240.93,180.86z M233.71,184.38c0.12,0.01,0.25,0.02,0.41,0.02c0.15,0.01,0.34,0.01,0.55,0.01
		c1.25,0,2.17-0.31,2.78-0.94c0.6-0.63,0.9-1.5,0.9-2.61c0-1.16-0.29-2.04-0.86-2.64c-0.58-0.6-1.49-0.9-2.74-0.9
		c-0.17,0-0.35,0-0.53,0.01c-0.18,0.01-0.35,0.02-0.51,0.04V184.38z"/>
	<path class="st1" d="M243.01,175.33h2.5v11.09h-2.5V175.33z"/>
	<path class="st1" d="M256.29,175.33v2.13h-3.34v8.96h-2.5v-8.96h-3.34v-2.13H256.29z"/>
</g>
<g>
	<path class="st1" d="M205.54,226.28c-1.8,0-3.18-0.5-4.12-1.5c-0.94-1-1.42-2.43-1.42-4.27c0-0.92,0.14-1.74,0.43-2.46
		c0.29-0.72,0.68-1.33,1.18-1.82s1.1-0.87,1.79-1.13s1.45-0.38,2.26-0.38c0.47,0,0.9,0.04,1.28,0.1c0.38,0.07,0.72,0.15,1.01,0.24
		c0.29,0.09,0.53,0.18,0.72,0.28c0.19,0.1,0.33,0.17,0.42,0.22l-0.72,2.02c-0.34-0.18-0.74-0.34-1.19-0.46
		c-0.45-0.13-0.97-0.19-1.54-0.19c-0.38,0-0.76,0.06-1.13,0.19c-0.37,0.13-0.69,0.33-0.98,0.62c-0.28,0.28-0.51,0.65-0.68,1.1
		c-0.17,0.45-0.26,0.99-0.26,1.63c0,0.51,0.06,0.99,0.17,1.43c0.11,0.44,0.29,0.82,0.54,1.14c0.25,0.32,0.58,0.57,0.98,0.76
		c0.41,0.19,0.9,0.28,1.47,0.28c0.36,0,0.69-0.02,0.98-0.06s0.54-0.09,0.77-0.15c0.22-0.06,0.42-0.13,0.59-0.2
		c0.17-0.07,0.33-0.14,0.46-0.21l0.69,2c-0.35,0.21-0.85,0.41-1.49,0.58C207.12,226.19,206.38,226.28,205.54,226.28z"/>
	<path class="st1" d="M214.1,214.84c1.66,0,2.94,0.3,3.82,0.89c0.89,0.59,1.33,1.51,1.33,2.76c0,0.78-0.18,1.41-0.54,1.9
		s-0.87,0.87-1.54,1.14c0.22,0.28,0.46,0.59,0.7,0.95c0.25,0.36,0.49,0.73,0.73,1.12c0.24,0.39,0.47,0.79,0.7,1.22
		c0.22,0.42,0.43,0.83,0.62,1.24h-2.79c-0.2-0.36-0.41-0.73-0.62-1.1c-0.21-0.37-0.42-0.74-0.64-1.09c-0.22-0.35-0.44-0.69-0.65-1
		c-0.21-0.31-0.43-0.6-0.64-0.86h-1.23v4.05h-2.5v-10.93c0.54-0.11,1.11-0.18,1.69-0.22C213.12,214.86,213.64,214.84,214.1,214.84z
		 M214.24,216.97c-0.18,0-0.34,0.01-0.49,0.02s-0.28,0.02-0.41,0.03v3.01h0.7c0.94,0,1.61-0.12,2.02-0.35
		c0.41-0.23,0.61-0.63,0.61-1.2c0-0.54-0.21-0.93-0.62-1.16C215.64,217.08,215.04,216.97,214.24,216.97z"/>
	<path class="st1" d="M221.52,226.05v-11.09h7.49v2.1h-4.99v2.18h4.43v2.05h-4.43v2.67h5.36v2.1H221.52z"/>
	<path class="st1" d="M240.93,220.5c0,0.96-0.15,1.8-0.45,2.51c-0.3,0.71-0.72,1.31-1.27,1.78c-0.55,0.47-1.22,0.82-2.01,1.06
		c-0.79,0.23-1.67,0.35-2.66,0.35c-0.45,0-0.97-0.02-1.57-0.06c-0.6-0.04-1.18-0.11-1.76-0.23v-10.8c0.58-0.11,1.18-0.18,1.8-0.22
		c0.62-0.04,1.16-0.06,1.61-0.06c0.95,0,1.81,0.11,2.58,0.32s1.44,0.55,1.99,1.01c0.55,0.46,0.98,1.05,1.28,1.76
		C240.78,218.64,240.93,219.5,240.93,220.5z M233.71,224.02c0.12,0.01,0.25,0.02,0.41,0.02c0.15,0.01,0.34,0.01,0.55,0.01
		c1.25,0,2.17-0.31,2.78-0.94c0.6-0.63,0.9-1.5,0.9-2.61c0-1.16-0.29-2.04-0.86-2.64c-0.58-0.6-1.49-0.9-2.74-0.9
		c-0.17,0-0.35,0-0.53,0.01c-0.18,0.01-0.35,0.02-0.51,0.04V224.02z"/>
	<path class="st1" d="M243.01,214.97h2.5v11.09h-2.5V214.97z"/>
	<path class="st1" d="M256.29,214.97v2.13h-3.34v8.96h-2.5v-8.96h-3.34v-2.13H256.29z"/>
</g>
<polyline class="st2" points="161.43,229.32 127.43,229.32 127.43,46.82 106.43,46.82 145.43,14.32 181.93,46.82 161.43,46.82 "/>
<polygon class="st3" points="145.43,17.32 145.43,24.32 166.43,44.32 174.43,44.32 "/>
<polyline class="st4" points="428.93,14.32 462.93,14.32 462.93,196.82 483.93,196.82 444.93,229.32 408.43,196.82 428.93,196.82 
	"/>
<polygon class="st5" points="444.93,226.32 444.93,219.32 423.93,199.32 415.93,199.32 "/>
<g>
	<path class="st0" d="M333.92,67.5c-0.12-0.39-0.26-0.78-0.4-1.19c-0.14-0.41-0.28-0.81-0.42-1.21h-4.33
		c-0.14,0.4-0.28,0.81-0.42,1.22c-0.14,0.41-0.27,0.8-0.39,1.18h-2.59c0.42-1.19,0.81-2.3,1.19-3.31c0.37-1.01,0.74-1.97,1.1-2.86
		s0.71-1.75,1.06-2.55c0.35-0.81,0.71-1.59,1.08-2.36h2.37c0.36,0.77,0.72,1.55,1.08,2.36c0.35,0.81,0.71,1.66,1.07,2.55
		s0.73,1.85,1.1,2.86c0.38,1.01,0.77,2.12,1.19,3.31H333.92z M330.92,58.92c-0.06,0.16-0.14,0.38-0.24,0.66
		c-0.11,0.28-0.23,0.6-0.37,0.96c-0.14,0.36-0.29,0.76-0.46,1.2c-0.17,0.44-0.34,0.89-0.52,1.37h3.17
		c-0.17-0.48-0.33-0.94-0.49-1.38s-0.31-0.84-0.45-1.2c-0.14-0.36-0.27-0.68-0.38-0.96S330.99,59.08,330.92,58.92z"/>
	<path class="st0" d="M341.34,65.59c0.35,0,0.64-0.03,0.87-0.09c0.23-0.06,0.41-0.14,0.55-0.24c0.14-0.1,0.23-0.22,0.29-0.36
		c0.05-0.14,0.08-0.29,0.08-0.46c0-0.36-0.17-0.66-0.51-0.9c-0.34-0.24-0.93-0.5-1.76-0.78c-0.36-0.13-0.73-0.27-1.09-0.44
		c-0.36-0.17-0.69-0.37-0.98-0.62c-0.29-0.25-0.52-0.55-0.7-0.91c-0.18-0.36-0.27-0.79-0.27-1.3c0-0.51,0.1-0.97,0.29-1.38
		c0.19-0.41,0.46-0.76,0.82-1.05c0.35-0.29,0.78-0.51,1.28-0.66s1.07-0.23,1.7-0.23c0.75,0,1.39,0.08,1.94,0.24
		c0.54,0.16,0.99,0.34,1.34,0.53l-0.72,1.97c-0.31-0.16-0.65-0.3-1.03-0.42c-0.38-0.12-0.83-0.18-1.37-0.18
		c-0.6,0-1.03,0.08-1.29,0.25c-0.26,0.17-0.39,0.42-0.39,0.76c0,0.2,0.05,0.37,0.14,0.51c0.1,0.14,0.23,0.26,0.41,0.38
		c0.18,0.11,0.38,0.21,0.61,0.3c0.23,0.09,0.48,0.18,0.76,0.28c0.58,0.21,1.08,0.42,1.5,0.63c0.43,0.21,0.78,0.45,1.06,0.73
		c0.28,0.28,0.49,0.6,0.63,0.98s0.21,0.83,0.21,1.36c0,1.03-0.36,1.84-1.09,2.41c-0.73,0.57-1.82,0.86-3.28,0.86
		c-0.49,0-0.93-0.03-1.33-0.09c-0.4-0.06-0.74-0.13-1.05-0.22c-0.3-0.08-0.57-0.18-0.78-0.27c-0.22-0.1-0.4-0.19-0.55-0.27l0.7-1.98
		c0.33,0.18,0.74,0.34,1.22,0.49S340.64,65.59,341.34,65.59z"/>
	<path class="st0" d="M350.65,65.59c0.35,0,0.64-0.03,0.87-0.09c0.23-0.06,0.41-0.14,0.55-0.24c0.14-0.1,0.23-0.22,0.29-0.36
		c0.05-0.14,0.08-0.29,0.08-0.46c0-0.36-0.17-0.66-0.51-0.9c-0.34-0.24-0.93-0.5-1.76-0.78c-0.36-0.13-0.73-0.27-1.09-0.44
		c-0.36-0.17-0.69-0.37-0.98-0.62c-0.29-0.25-0.52-0.55-0.7-0.91c-0.18-0.36-0.27-0.79-0.27-1.3c0-0.51,0.1-0.97,0.29-1.38
		c0.19-0.41,0.46-0.76,0.82-1.05c0.35-0.29,0.78-0.51,1.28-0.66s1.07-0.23,1.7-0.23c0.75,0,1.39,0.08,1.94,0.24
		c0.54,0.16,0.99,0.34,1.34,0.53l-0.72,1.97c-0.31-0.16-0.65-0.3-1.03-0.42c-0.38-0.12-0.83-0.18-1.37-0.18
		c-0.6,0-1.03,0.08-1.29,0.25c-0.26,0.17-0.39,0.42-0.39,0.76c0,0.2,0.05,0.37,0.14,0.51c0.1,0.14,0.23,0.26,0.41,0.38
		c0.18,0.11,0.38,0.21,0.61,0.3c0.23,0.09,0.48,0.18,0.76,0.28c0.58,0.21,1.08,0.42,1.5,0.63c0.43,0.21,0.78,0.45,1.06,0.73
		c0.28,0.28,0.49,0.6,0.63,0.98s0.21,0.83,0.21,1.36c0,1.03-0.36,1.84-1.09,2.41c-0.73,0.57-1.82,0.86-3.28,0.86
		c-0.49,0-0.93-0.03-1.33-0.09c-0.4-0.06-0.74-0.13-1.05-0.22c-0.3-0.08-0.57-0.18-0.78-0.27c-0.22-0.1-0.4-0.19-0.55-0.27l0.7-1.98
		c0.33,0.18,0.74,0.34,1.22,0.49S349.95,65.59,350.65,65.59z"/>
	<path class="st0" d="M356.94,67.5V56.41h7.49v2.1h-4.99v2.18h4.43v2.05h-4.43v2.67h5.36v2.1H356.94z"/>
	<path class="st0" d="M374.86,56.41v2.13h-3.34v8.96h-2.5v-8.96h-3.34v-2.13H374.86z"/>
</g>
<g>
	<path class="st0" d="M326.48,107.14V96.05h7.49v2.1h-4.99v2.18h4.43v2.05h-4.43v2.67h5.36v2.1H326.48z"/>
	<path class="st0" d="M342.87,107.14c-0.31-0.62-0.65-1.24-1.03-1.88c-0.37-0.63-0.8-1.17-1.28-1.61c-0.15,0.17-0.34,0.39-0.57,0.69
		s-0.46,0.61-0.69,0.94s-0.44,0.67-0.64,1.03c-0.2,0.35-0.35,0.63-0.45,0.83h-2.85c0.47-0.87,1.02-1.76,1.65-2.68
		c0.63-0.92,1.34-1.9,2.13-2.94l-3.62-5.47h3.02l2.11,3.21l2.16-3.21h2.85l-3.6,5.35c0.94,1.18,1.72,2.27,2.33,3.25
		c0.61,0.99,1.09,1.81,1.44,2.49H342.87z"/>
	<path class="st0" d="M350.62,95.92c1.65,0,2.92,0.29,3.81,0.87c0.89,0.58,1.33,1.53,1.33,2.86c0,1.33-0.45,2.3-1.34,2.89
		c-0.9,0.59-2.18,0.89-3.84,0.89h-0.78v3.71h-2.5V96.21c0.54-0.11,1.12-0.18,1.73-0.22C349.63,95.94,350.16,95.92,350.62,95.92z
		 M350.78,98.05c-0.18,0-0.36,0.01-0.54,0.02c-0.18,0.01-0.33,0.02-0.46,0.03v3.2h0.78c0.86,0,1.51-0.12,1.95-0.35
		c0.44-0.23,0.66-0.67,0.66-1.31c0-0.31-0.06-0.57-0.17-0.77s-0.27-0.37-0.48-0.49s-0.46-0.21-0.76-0.26
		C351.48,98.07,351.15,98.05,350.78,98.05z"/>
	<path class="st0" d="M357.6,107.14V96.05h7.49v2.1h-4.99v2.18h4.43v2.05h-4.43v2.67h5.36v2.1H357.6z"/>
	<path class="st0" d="M374.73,107.14c-0.71-1.27-1.49-2.52-2.32-3.76s-1.72-2.41-2.66-3.5v7.26h-2.46V96.05h2.03
		c0.35,0.35,0.74,0.78,1.17,1.3s0.86,1.06,1.3,1.64c0.44,0.58,0.88,1.18,1.32,1.81c0.44,0.62,0.85,1.22,1.23,1.8v-6.54h2.48v11.09
		H374.73z"/>
	<path class="st0" d="M382.41,105.23c0.35,0,0.64-0.03,0.87-0.09c0.23-0.06,0.41-0.14,0.55-0.24c0.14-0.1,0.23-0.22,0.29-0.36
		c0.05-0.14,0.08-0.29,0.08-0.46c0-0.36-0.17-0.66-0.51-0.9c-0.34-0.24-0.93-0.5-1.76-0.78c-0.36-0.13-0.73-0.27-1.09-0.44
		c-0.36-0.17-0.69-0.37-0.98-0.62c-0.29-0.25-0.52-0.55-0.7-0.91c-0.18-0.36-0.27-0.79-0.27-1.3c0-0.51,0.1-0.97,0.29-1.38
		c0.19-0.41,0.46-0.76,0.82-1.05c0.35-0.29,0.78-0.51,1.28-0.66s1.07-0.23,1.7-0.23c0.75,0,1.39,0.08,1.94,0.24
		c0.54,0.16,0.99,0.34,1.34,0.53l-0.72,1.97c-0.31-0.16-0.65-0.3-1.03-0.42c-0.38-0.12-0.83-0.18-1.37-0.18
		c-0.6,0-1.03,0.08-1.29,0.25c-0.26,0.17-0.39,0.42-0.39,0.76c0,0.2,0.05,0.37,0.14,0.51c0.1,0.14,0.23,0.26,0.41,0.38
		c0.18,0.11,0.38,0.21,0.61,0.3c0.23,0.09,0.48,0.18,0.76,0.28c0.58,0.21,1.08,0.42,1.5,0.63c0.43,0.21,0.78,0.45,1.06,0.73
		c0.28,0.28,0.49,0.6,0.63,0.98s0.21,0.83,0.21,1.36c0,1.03-0.36,1.84-1.09,2.41c-0.73,0.57-1.82,0.86-3.28,0.86
		c-0.49,0-0.93-0.03-1.33-0.09c-0.4-0.06-0.74-0.13-1.05-0.22c-0.3-0.08-0.57-0.18-0.78-0.27c-0.22-0.1-0.4-0.19-0.55-0.27l0.7-1.98
		c0.33,0.18,0.74,0.34,1.22,0.49S381.71,105.23,382.41,105.23z"/>
	<path class="st0" d="M388.7,107.14V96.05h7.49v2.1h-4.99v2.18h4.43v2.05h-4.43v2.67h5.36v2.1H388.7z"/>
</g>
<g>
	<g>
		<path class="st1" d="M333.89,144.63v2.14h-7.41v-11.09h2.5v8.94H333.89z"/>
		<path class="st1" d="M335.49,135.69h2.5v11.09h-2.5V135.69z"/>
		<path class="st1" d="M347.98,146.78c-0.12-0.39-0.26-0.78-0.4-1.19c-0.14-0.41-0.28-0.81-0.42-1.21h-4.33
			c-0.14,0.4-0.28,0.81-0.42,1.22c-0.14,0.41-0.27,0.8-0.39,1.18h-2.59c0.42-1.19,0.81-2.3,1.19-3.31c0.37-1.01,0.74-1.97,1.1-2.86
			s0.71-1.75,1.06-2.55c0.35-0.81,0.71-1.59,1.08-2.36h2.37c0.36,0.77,0.72,1.55,1.08,2.36c0.35,0.81,0.71,1.66,1.07,2.55
			s0.73,1.85,1.1,2.86c0.38,1.01,0.77,2.12,1.19,3.31H347.98z M344.98,138.2c-0.06,0.16-0.14,0.38-0.24,0.66
			c-0.11,0.28-0.23,0.6-0.37,0.96c-0.14,0.36-0.29,0.76-0.46,1.2c-0.17,0.44-0.34,0.89-0.52,1.37h3.17
			c-0.17-0.48-0.33-0.94-0.49-1.38s-0.31-0.84-0.45-1.2c-0.14-0.36-0.27-0.68-0.38-0.96S345.05,138.36,344.98,138.2z"/>
		<path class="st1" d="M355.77,146.92c-0.61,0-1.21-0.02-1.82-0.06c-0.6-0.04-1.23-0.13-1.88-0.26v-10.75
			c0.51-0.1,1.07-0.17,1.68-0.22s1.17-0.07,1.7-0.07c0.7,0,1.35,0.05,1.94,0.15c0.59,0.1,1.1,0.27,1.53,0.52
			c0.43,0.25,0.76,0.57,1,0.97c0.24,0.4,0.36,0.89,0.36,1.48c0,0.89-0.43,1.58-1.28,2.1c0.7,0.27,1.18,0.63,1.44,1.09
			c0.26,0.46,0.38,0.98,0.38,1.55c0,1.16-0.42,2.04-1.27,2.62C358.71,146.63,357.45,146.92,355.77,146.92z M354.51,140.04h1.22
			c0.77,0,1.32-0.1,1.65-0.3c0.33-0.2,0.5-0.51,0.5-0.95c0-0.45-0.17-0.76-0.51-0.94c-0.34-0.18-0.84-0.27-1.5-0.27
			c-0.21,0-0.44,0-0.69,0.01c-0.25,0.01-0.46,0.02-0.66,0.04V140.04z M354.51,141.94v2.86c0.18,0.02,0.38,0.04,0.59,0.05
			c0.21,0.01,0.45,0.02,0.7,0.02c0.75,0,1.35-0.11,1.81-0.32c0.46-0.21,0.69-0.61,0.69-1.18c0-0.51-0.19-0.88-0.58-1.1
			c-0.38-0.22-0.93-0.33-1.65-0.33H354.51z"/>
		<path class="st1" d="M362.83,135.69h2.5v11.09h-2.5V135.69z"/>
		<path class="st1" d="M375.29,144.63v2.14h-7.41v-11.09h2.5v8.94H375.29z"/>
		<path class="st1" d="M376.89,135.69h2.5v11.09h-2.5V135.69z"/>
		<path class="st1" d="M390.17,135.69v2.13h-3.34v8.96h-2.5v-8.96h-3.34v-2.13H390.17z"/>
		<path class="st1" d="M396.38,140.24c0.45-0.76,0.88-1.51,1.28-2.27c0.41-0.75,0.78-1.52,1.12-2.28h2.75
			c-0.61,1.19-1.24,2.35-1.89,3.47c-0.65,1.12-1.34,2.25-2.06,3.38v4.24h-2.5v-4.21c-0.73-1.13-1.42-2.26-2.07-3.39
			c-0.66-1.13-1.29-2.29-1.9-3.49h2.9c0.34,0.77,0.71,1.53,1.1,2.28C395.51,138.73,395.93,139.48,396.38,140.24z"/>
	</g>
</g>
<g>
	<path class="st1" d="M331.54,186.64c-1.8,0-3.18-0.5-4.12-1.5c-0.94-1-1.42-2.43-1.42-4.27c0-0.92,0.14-1.74,0.43-2.46
		c0.29-0.72,0.68-1.33,1.18-1.82s1.1-0.87,1.79-1.13s1.45-0.38,2.26-0.38c0.47,0,0.9,0.04,1.28,0.1c0.38,0.07,0.72,0.15,1.01,0.24
		c0.29,0.09,0.53,0.18,0.72,0.28c0.19,0.1,0.33,0.17,0.42,0.22l-0.72,2.02c-0.34-0.18-0.74-0.34-1.19-0.46
		c-0.45-0.13-0.97-0.19-1.54-0.19c-0.38,0-0.76,0.06-1.13,0.19c-0.37,0.13-0.69,0.33-0.98,0.62c-0.28,0.28-0.51,0.65-0.68,1.1
		c-0.17,0.45-0.26,0.99-0.26,1.63c0,0.51,0.06,0.99,0.17,1.43c0.11,0.44,0.29,0.82,0.54,1.14c0.25,0.32,0.58,0.57,0.98,0.76
		c0.41,0.19,0.9,0.28,1.47,0.28c0.36,0,0.69-0.02,0.98-0.06s0.54-0.09,0.77-0.15c0.22-0.06,0.42-0.13,0.59-0.2
		c0.17-0.07,0.33-0.14,0.46-0.21l0.69,2c-0.35,0.21-0.85,0.41-1.49,0.58C333.12,186.55,332.38,186.64,331.54,186.64z"/>
	<path class="st1" d="M344.73,186.42c-0.12-0.39-0.26-0.78-0.4-1.19c-0.14-0.41-0.28-0.81-0.42-1.21h-4.33
		c-0.14,0.4-0.28,0.81-0.42,1.22c-0.14,0.41-0.27,0.8-0.39,1.18h-2.59c0.42-1.19,0.81-2.3,1.19-3.31c0.37-1.01,0.74-1.97,1.1-2.86
		s0.71-1.75,1.06-2.55c0.35-0.81,0.71-1.59,1.08-2.36h2.37c0.36,0.77,0.72,1.55,1.08,2.36c0.35,0.81,0.71,1.66,1.07,2.55
		s0.73,1.85,1.1,2.86c0.38,1.01,0.77,2.12,1.19,3.31H344.73z M341.74,177.84c-0.06,0.16-0.14,0.38-0.24,0.66
		c-0.11,0.28-0.23,0.6-0.37,0.96c-0.14,0.36-0.29,0.76-0.46,1.2c-0.17,0.44-0.34,0.89-0.52,1.37h3.17
		c-0.17-0.48-0.33-0.94-0.49-1.38s-0.31-0.84-0.45-1.2c-0.14-0.36-0.27-0.68-0.38-0.96S341.8,178,341.74,177.84z"/>
	<path class="st1" d="M352.16,175.2c1.65,0,2.92,0.29,3.81,0.87c0.89,0.58,1.33,1.53,1.33,2.86c0,1.33-0.45,2.3-1.34,2.89
		c-0.9,0.59-2.18,0.89-3.84,0.89h-0.78v3.71h-2.5v-10.93c0.54-0.11,1.12-0.18,1.73-0.22C351.17,175.22,351.7,175.2,352.16,175.2z
		 M352.32,177.33c-0.18,0-0.36,0.01-0.54,0.02c-0.18,0.01-0.33,0.02-0.46,0.03v3.2h0.78c0.86,0,1.51-0.12,1.95-0.35
		c0.44-0.23,0.66-0.67,0.66-1.31c0-0.31-0.06-0.57-0.17-0.77s-0.27-0.37-0.48-0.49s-0.46-0.21-0.76-0.26
		C353.01,177.35,352.68,177.33,352.32,177.33z"/>
	<path class="st1" d="M359.13,175.33h2.5v11.09h-2.5V175.33z"/>
	<path class="st1" d="M372.42,175.33v2.13h-3.34v8.96h-2.5v-8.96h-3.34v-2.13H372.42z"/>
	<path class="st1" d="M380.14,186.42c-0.12-0.39-0.26-0.78-0.4-1.19c-0.14-0.41-0.28-0.81-0.42-1.21h-4.33
		c-0.14,0.4-0.28,0.81-0.42,1.22c-0.14,0.41-0.27,0.8-0.39,1.18h-2.59c0.42-1.19,0.81-2.3,1.19-3.31c0.37-1.01,0.74-1.97,1.1-2.86
		s0.71-1.75,1.06-2.55c0.35-0.81,0.71-1.59,1.08-2.36h2.37c0.36,0.77,0.72,1.55,1.08,2.36c0.35,0.81,0.71,1.66,1.07,2.55
		s0.73,1.85,1.1,2.86c0.38,1.01,0.77,2.12,1.19,3.31H380.14z M377.14,177.84c-0.06,0.16-0.14,0.38-0.24,0.66
		c-0.11,0.28-0.23,0.6-0.37,0.96c-0.14,0.36-0.29,0.76-0.46,1.2c-0.17,0.44-0.34,0.89-0.52,1.37h3.17
		c-0.17-0.48-0.33-0.94-0.49-1.38s-0.31-0.84-0.45-1.2c-0.14-0.36-0.27-0.68-0.38-0.96S377.21,178,377.14,177.84z"/>
	<path class="st1" d="M391.65,184.27v2.14h-7.41v-11.09h2.5v8.94H391.65z"/>
</g>
<g>
	<path class="st1" d="M329.73,214.84c1.66,0,2.94,0.3,3.82,0.89c0.89,0.59,1.33,1.51,1.33,2.76c0,0.78-0.18,1.41-0.54,1.9
		s-0.87,0.87-1.54,1.14c0.22,0.28,0.46,0.59,0.7,0.95c0.25,0.36,0.49,0.73,0.73,1.12c0.24,0.39,0.47,0.79,0.7,1.22
		c0.22,0.42,0.43,0.83,0.62,1.24h-2.79c-0.2-0.36-0.41-0.73-0.62-1.1c-0.21-0.37-0.42-0.74-0.64-1.09c-0.22-0.35-0.44-0.69-0.65-1
		c-0.21-0.31-0.43-0.6-0.64-0.86h-1.23v4.05h-2.5v-10.93c0.54-0.11,1.11-0.18,1.69-0.22C328.75,214.86,329.27,214.84,329.73,214.84z
		 M329.87,216.97c-0.18,0-0.34,0.01-0.49,0.02s-0.28,0.02-0.41,0.03v3.01h0.7c0.94,0,1.61-0.12,2.02-0.35
		c0.41-0.23,0.61-0.63,0.61-1.2c0-0.54-0.21-0.93-0.62-1.16C331.28,217.08,330.67,216.97,329.87,216.97z"/>
	<path class="st1" d="M337.15,226.05v-11.09h7.49v2.1h-4.99v2.18h4.43v2.05h-4.43v2.67h5.36v2.1H337.15z"/>
	<path class="st1" d="M350.34,226.05c-0.44-0.93-0.88-1.9-1.31-2.9c-0.43-1-0.84-1.99-1.22-2.97c-0.39-0.98-0.74-1.92-1.07-2.82
		c-0.32-0.9-0.6-1.7-0.84-2.4h2.75c0.21,0.64,0.44,1.33,0.69,2.07c0.25,0.74,0.51,1.48,0.78,2.21c0.26,0.74,0.52,1.44,0.76,2.11
		c0.24,0.67,0.47,1.26,0.69,1.75c0.21-0.49,0.44-1.07,0.68-1.74s0.5-1.38,0.77-2.11c0.26-0.73,0.52-1.47,0.78-2.21
		c0.25-0.74,0.49-1.43,0.69-2.08h2.66c-0.25,0.71-0.53,1.51-0.86,2.4s-0.68,1.83-1.06,2.81s-0.79,1.97-1.22,2.98
		c-0.43,1-0.86,1.97-1.3,2.9H350.34z"/>
	<path class="st1" d="M358.57,226.05v-11.09h7.49v2.1h-4.99v2.18h4.43v2.05h-4.43v2.67h5.36v2.1H358.57z"/>
	<path class="st1" d="M375.71,226.05c-0.71-1.27-1.49-2.52-2.32-3.76s-1.72-2.41-2.66-3.5v7.26h-2.46v-11.09h2.03
		c0.35,0.35,0.74,0.78,1.17,1.3s0.86,1.06,1.3,1.64c0.44,0.58,0.88,1.18,1.32,1.81c0.44,0.62,0.85,1.22,1.23,1.8v-6.54h2.48v11.09
		H375.71z"/>
	<path class="st1" d="M384.7,226.28c-0.78,0-1.45-0.11-2.02-0.33c-0.57-0.22-1.03-0.52-1.4-0.91c-0.37-0.39-0.64-0.85-0.82-1.39
		c-0.18-0.54-0.26-1.13-0.26-1.78v-6.9h2.5v6.69c0,0.45,0.05,0.83,0.15,1.14c0.1,0.31,0.24,0.57,0.42,0.77
		c0.18,0.2,0.39,0.34,0.64,0.42c0.25,0.09,0.52,0.13,0.82,0.13c0.61,0,1.1-0.19,1.48-0.56c0.38-0.37,0.57-1.01,0.57-1.9v-6.69h2.5
		v6.9c0,0.65-0.09,1.25-0.27,1.79c-0.18,0.54-0.46,1.01-0.83,1.4c-0.37,0.39-0.85,0.69-1.42,0.9
		C386.17,226.17,385.49,226.28,384.7,226.28z"/>
	<path class="st1" d="M391.68,226.05v-11.09h7.49v2.1h-4.99v2.18h4.43v2.05h-4.43v2.67h5.36v2.1H391.68z"/>
</g>
<g>
	<g>
		<path class="st6" d="M138.29,158.75v-2.81h12.47v2.81H138.29z"/>
		<path class="st6" d="M150.77,144.69c-1.43,0.8-2.84,1.67-4.23,2.61s-2.71,1.93-3.94,2.99h8.17v2.77h-12.47v-2.29
			c0.4-0.4,0.88-0.83,1.46-1.31c0.58-0.48,1.19-0.97,1.85-1.47c0.65-0.5,1.33-0.99,2.03-1.49c0.7-0.49,1.38-0.95,2.03-1.39h-7.36
			v-2.79h12.47V144.69z"/>
		<path class="st6" d="M151.02,133.77c0,2.03-0.56,3.57-1.69,4.63s-2.73,1.59-4.81,1.59c-1.03,0-1.95-0.16-2.76-0.49
			c-0.81-0.32-1.49-0.77-2.05-1.33s-0.98-1.24-1.27-2.02c-0.29-0.78-0.43-1.63-0.43-2.54c0-0.53,0.04-1.01,0.12-1.44
			s0.17-0.81,0.27-1.13c0.1-0.32,0.21-0.59,0.31-0.81c0.11-0.22,0.19-0.37,0.25-0.47l2.27,0.81c-0.2,0.38-0.38,0.83-0.52,1.34
			c-0.14,0.51-0.22,1.09-0.22,1.74c0,0.43,0.07,0.85,0.22,1.27c0.14,0.41,0.38,0.78,0.69,1.1c0.32,0.32,0.73,0.57,1.23,0.77
			c0.5,0.19,1.12,0.29,1.84,0.29c0.58,0,1.11-0.06,1.61-0.19s0.93-0.33,1.29-0.61c0.36-0.28,0.65-0.65,0.85-1.11
			c0.21-0.46,0.31-1.01,0.31-1.66c0-0.41-0.02-0.77-0.07-1.1c-0.05-0.32-0.1-0.61-0.17-0.86c-0.07-0.25-0.14-0.47-0.23-0.67
			c-0.08-0.19-0.16-0.37-0.23-0.52l2.25-0.77c0.24,0.4,0.46,0.95,0.65,1.67C150.92,131.98,151.02,132.82,151.02,133.77z"/>
		<path class="st6" d="M138.15,124.14c0-1.87,0.33-3.31,1-4.3s1.7-1.49,3.1-1.49c0.88,0,1.59,0.2,2.13,0.6
			c0.55,0.4,0.98,0.98,1.29,1.74c0.31-0.25,0.67-0.52,1.07-0.79c0.4-0.28,0.82-0.55,1.26-0.82c0.44-0.27,0.89-0.53,1.37-0.78
			s0.94-0.49,1.4-0.7v3.14c-0.41,0.23-0.82,0.46-1.24,0.7c-0.42,0.23-0.83,0.48-1.22,0.72c-0.4,0.25-0.77,0.49-1.13,0.73
			c-0.35,0.24-0.68,0.48-0.96,0.72v1.39h4.55v2.81h-12.29c-0.12-0.61-0.2-1.24-0.25-1.9C138.17,125.24,138.15,124.65,138.15,124.14z
			 M140.54,123.97c0,0.2,0.01,0.39,0.02,0.55c0.01,0.16,0.02,0.31,0.04,0.46h3.38v-0.79c0-1.06-0.13-1.81-0.4-2.27
			c-0.26-0.46-0.71-0.68-1.35-0.68c-0.61,0-1.05,0.23-1.3,0.69C140.67,122.39,140.54,123.07,140.54,123.97z"/>
		<path class="st6" d="M150.77,115.78h-12.47v-8.42h2.36v5.62h2.45v-4.99h2.3v4.99h3.01v-6.03h2.36V115.78z"/>
		<path class="st6" d="M150.77,96.51c-0.43,0.14-0.88,0.29-1.34,0.45c-0.46,0.16-0.91,0.32-1.36,0.48v4.87
			c0.46,0.16,0.91,0.32,1.37,0.47c0.46,0.16,0.9,0.31,1.33,0.44v2.92c-1.34-0.47-2.59-0.91-3.73-1.34
			c-1.14-0.42-2.21-0.83-3.22-1.24c-1.01-0.4-1.96-0.8-2.87-1.19s-1.79-0.8-2.66-1.22v-2.66c0.86-0.41,1.75-0.81,2.66-1.21
			c0.91-0.4,1.86-0.8,2.87-1.2c1.01-0.4,2.08-0.82,3.22-1.24c1.14-0.42,2.38-0.87,3.73-1.34V96.51z M141.12,99.88
			c0.18,0.06,0.43,0.15,0.74,0.27c0.31,0.12,0.67,0.26,1.08,0.41c0.41,0.15,0.86,0.33,1.35,0.52c0.49,0.19,1.01,0.38,1.55,0.58V98.1
			c-0.54,0.19-1.06,0.38-1.55,0.55c-0.49,0.18-0.94,0.35-1.35,0.51s-0.77,0.3-1.08,0.42C141.54,99.71,141.3,99.81,141.12,99.88z"/>
		<path class="st6" d="M148.62,88.16c0-0.4-0.03-0.72-0.1-0.98c-0.07-0.26-0.16-0.46-0.27-0.62c-0.11-0.16-0.25-0.26-0.4-0.32
			c-0.16-0.06-0.33-0.09-0.52-0.09c-0.41,0-0.75,0.19-1.02,0.58c-0.27,0.38-0.56,1.04-0.87,1.98c-0.14,0.41-0.31,0.82-0.5,1.22
			c-0.19,0.41-0.42,0.77-0.7,1.1c-0.28,0.32-0.62,0.59-1.03,0.79c-0.4,0.2-0.89,0.31-1.47,0.31s-1.09-0.11-1.56-0.32
			c-0.46-0.22-0.85-0.52-1.18-0.92c-0.32-0.4-0.57-0.88-0.75-1.44s-0.26-1.2-0.26-1.91c0-0.84,0.09-1.57,0.27-2.18
			c0.18-0.61,0.38-1.12,0.59-1.51l2.21,0.81c-0.18,0.35-0.34,0.74-0.48,1.16c-0.14,0.43-0.21,0.94-0.21,1.54
			c0,0.67,0.09,1.15,0.28,1.45c0.19,0.29,0.47,0.44,0.85,0.44c0.23,0,0.42-0.05,0.58-0.16c0.16-0.11,0.3-0.26,0.42-0.46
			c0.13-0.2,0.24-0.43,0.34-0.68c0.1-0.26,0.21-0.54,0.31-0.85c0.24-0.65,0.48-1.21,0.71-1.69c0.23-0.48,0.51-0.88,0.82-1.2
			c0.31-0.32,0.68-0.55,1.1-0.71c0.42-0.16,0.93-0.23,1.53-0.23c1.16,0,2.07,0.41,2.71,1.22c0.64,0.82,0.96,2.05,0.96,3.69
			c0,0.55-0.03,1.05-0.1,1.49c-0.07,0.44-0.15,0.84-0.24,1.18c-0.1,0.34-0.2,0.64-0.31,0.88c-0.11,0.25-0.21,0.45-0.31,0.62
			l-2.23-0.79c0.2-0.37,0.39-0.83,0.55-1.38C148.54,89.62,148.62,88.95,148.62,88.16z"/>
		<path class="st6" d="M150.77,81.08h-12.47v-8.42h2.36v5.62h2.45v-4.99h2.3v4.99h3.01v-6.03h2.36V81.08z"/>
	</g>
</g>
<g>
	<g>
		<path class="st6" d="M446.52,152.7c1.08,0,2.02,0.17,2.83,0.5c0.8,0.34,1.47,0.81,2,1.43c0.53,0.62,0.92,1.37,1.19,2.26
			c0.26,0.89,0.4,1.88,0.4,2.99c0,0.5-0.02,1.09-0.06,1.76c-0.04,0.67-0.13,1.33-0.26,1.98h-12.15c-0.12-0.65-0.2-1.32-0.24-2.02
			c-0.04-0.7-0.06-1.31-0.06-1.81c0-1.07,0.12-2.04,0.36-2.91c0.24-0.87,0.62-1.62,1.13-2.24c0.52-0.62,1.18-1.1,1.98-1.44
			C444.43,152.87,445.39,152.7,446.52,152.7z M450.48,160.82c0.01-0.13,0.02-0.28,0.03-0.46c0.01-0.17,0.01-0.38,0.01-0.62
			c0-1.4-0.35-2.44-1.06-3.12c-0.71-0.68-1.69-1.02-2.93-1.02c-1.31,0-2.3,0.32-2.97,0.97s-1.01,1.67-1.01,3.08
			c0,0.19,0,0.39,0.01,0.59c0.01,0.2,0.02,0.4,0.04,0.58H450.48z"/>
		<path class="st6" d="M452.77,150.36h-12.47v-8.42h2.36v5.62h2.45v-4.99h2.3v4.99h3.01v-6.03h2.36V150.36z"/>
		<path class="st6" d="M453.02,133.77c0,2.03-0.56,3.57-1.69,4.63s-2.73,1.59-4.81,1.59c-1.03,0-1.95-0.16-2.76-0.49
			c-0.81-0.32-1.49-0.77-2.05-1.33s-0.98-1.24-1.27-2.02c-0.29-0.78-0.43-1.63-0.43-2.54c0-0.53,0.04-1.01,0.12-1.44
			s0.17-0.81,0.27-1.13c0.1-0.32,0.21-0.59,0.31-0.81c0.11-0.22,0.19-0.37,0.25-0.47l2.27,0.81c-0.2,0.38-0.38,0.83-0.52,1.34
			c-0.14,0.51-0.22,1.09-0.22,1.74c0,0.43,0.07,0.85,0.22,1.27c0.14,0.41,0.38,0.78,0.69,1.1c0.32,0.32,0.73,0.57,1.23,0.77
			c0.5,0.19,1.12,0.29,1.84,0.29c0.58,0,1.11-0.06,1.61-0.19s0.93-0.33,1.29-0.61c0.36-0.28,0.65-0.65,0.85-1.11
			c0.21-0.46,0.31-1.01,0.31-1.66c0-0.41-0.02-0.77-0.07-1.1c-0.05-0.32-0.1-0.61-0.17-0.86c-0.07-0.25-0.14-0.47-0.23-0.67
			c-0.08-0.19-0.16-0.37-0.23-0.52l2.25-0.77c0.24,0.4,0.46,0.95,0.65,1.67C452.92,131.98,453.02,132.82,453.02,133.77z"/>
		<path class="st6" d="M440.15,124.14c0-1.87,0.33-3.31,1-4.3s1.7-1.49,3.1-1.49c0.88,0,1.59,0.2,2.13,0.6
			c0.55,0.4,0.98,0.98,1.29,1.74c0.31-0.25,0.67-0.52,1.07-0.79c0.4-0.28,0.82-0.55,1.26-0.82c0.44-0.27,0.89-0.53,1.37-0.78
			s0.94-0.49,1.4-0.7v3.14c-0.41,0.23-0.82,0.46-1.24,0.7c-0.42,0.23-0.83,0.48-1.22,0.72c-0.4,0.25-0.77,0.49-1.13,0.73
			c-0.35,0.24-0.68,0.48-0.96,0.72v1.39h4.55v2.81h-12.29c-0.12-0.61-0.2-1.24-0.25-1.9C440.17,125.24,440.15,124.65,440.15,124.14z
			 M442.54,123.97c0,0.2,0.01,0.39,0.02,0.55c0.01,0.16,0.02,0.31,0.04,0.46h3.38v-0.79c0-1.06-0.13-1.81-0.4-2.27
			c-0.26-0.46-0.71-0.68-1.35-0.68c-0.61,0-1.05,0.23-1.3,0.69C442.67,122.39,442.54,123.07,442.54,123.97z"/>
		<path class="st6" d="M452.77,115.78h-12.47v-8.42h2.36v5.62h2.45v-4.99h2.3v4.99h3.01v-6.03h2.36V115.78z"/>
		<path class="st6" d="M452.77,96.51c-0.43,0.14-0.88,0.29-1.34,0.45c-0.46,0.16-0.91,0.32-1.36,0.48v4.87
			c0.46,0.16,0.91,0.32,1.37,0.47c0.46,0.16,0.9,0.31,1.33,0.44v2.92c-1.34-0.47-2.59-0.91-3.73-1.34
			c-1.14-0.42-2.21-0.83-3.22-1.24c-1.01-0.4-1.96-0.8-2.87-1.19s-1.79-0.8-2.66-1.22v-2.66c0.86-0.41,1.75-0.81,2.66-1.21
			c0.91-0.4,1.86-0.8,2.87-1.2c1.01-0.4,2.08-0.82,3.22-1.24c1.14-0.42,2.38-0.87,3.73-1.34V96.51z M443.12,99.88
			c0.18,0.06,0.43,0.15,0.74,0.27c0.31,0.12,0.67,0.26,1.08,0.41c0.41,0.15,0.86,0.33,1.35,0.52c0.49,0.19,1.01,0.38,1.55,0.58V98.1
			c-0.54,0.19-1.06,0.38-1.55,0.55c-0.49,0.18-0.94,0.35-1.35,0.51s-0.77,0.3-1.08,0.42C443.54,99.71,443.3,99.81,443.12,99.88z"/>
		<path class="st6" d="M450.62,88.16c0-0.4-0.03-0.72-0.1-0.98c-0.07-0.26-0.16-0.46-0.27-0.62c-0.11-0.16-0.25-0.26-0.4-0.32
			c-0.16-0.06-0.33-0.09-0.52-0.09c-0.41,0-0.75,0.19-1.02,0.58c-0.27,0.38-0.56,1.04-0.87,1.98c-0.14,0.41-0.31,0.82-0.5,1.22
			c-0.19,0.41-0.42,0.77-0.7,1.1c-0.28,0.32-0.62,0.59-1.03,0.79c-0.4,0.2-0.89,0.31-1.47,0.31s-1.09-0.11-1.56-0.32
			c-0.46-0.22-0.85-0.52-1.18-0.92c-0.32-0.4-0.57-0.88-0.75-1.44s-0.26-1.2-0.26-1.91c0-0.84,0.09-1.57,0.27-2.18
			c0.18-0.61,0.38-1.12,0.59-1.51l2.21,0.81c-0.18,0.35-0.34,0.74-0.48,1.16c-0.14,0.43-0.21,0.94-0.21,1.54
			c0,0.67,0.09,1.15,0.28,1.45c0.19,0.29,0.47,0.44,0.85,0.44c0.23,0,0.42-0.05,0.58-0.16c0.16-0.11,0.3-0.26,0.42-0.46
			c0.13-0.2,0.24-0.43,0.34-0.68c0.1-0.26,0.21-0.54,0.31-0.85c0.24-0.65,0.48-1.21,0.71-1.69c0.23-0.48,0.51-0.88,0.82-1.2
			c0.31-0.32,0.68-0.55,1.1-0.71c0.42-0.16,0.93-0.23,1.53-0.23c1.16,0,2.07,0.41,2.71,1.22c0.64,0.82,0.96,2.05,0.96,3.69
			c0,0.55-0.03,1.05-0.1,1.49c-0.07,0.44-0.15,0.84-0.24,1.18c-0.1,0.34-0.2,0.64-0.31,0.88c-0.11,0.25-0.21,0.45-0.31,0.62
			l-2.23-0.79c0.2-0.37,0.39-0.83,0.55-1.38C450.54,89.62,450.62,88.95,450.62,88.16z"/>
		<path class="st6" d="M452.77,81.08h-12.47v-8.42h2.36v5.62h2.45v-4.99h2.3v4.99h3.01v-6.03h2.36V81.08z"/>
	</g>
</g>
<g>
	<path class="st0" d="M505.54,67.72c-1.8,0-3.18-0.5-4.12-1.5c-0.94-1-1.42-2.43-1.42-4.27c0-0.92,0.14-1.74,0.43-2.46
		c0.29-0.72,0.68-1.33,1.18-1.82s1.1-0.87,1.79-1.13s1.45-0.38,2.26-0.38c0.47,0,0.9,0.04,1.28,0.1c0.38,0.07,0.72,0.15,1.01,0.24
		c0.29,0.09,0.53,0.18,0.72,0.28c0.19,0.1,0.33,0.17,0.42,0.22l-0.72,2.02c-0.34-0.18-0.74-0.34-1.19-0.46
		c-0.45-0.13-0.97-0.19-1.54-0.19c-0.38,0-0.76,0.06-1.13,0.19c-0.37,0.13-0.69,0.33-0.98,0.62c-0.28,0.28-0.51,0.65-0.68,1.1
		c-0.17,0.45-0.26,0.99-0.26,1.63c0,0.51,0.06,0.99,0.17,1.43c0.11,0.44,0.29,0.82,0.54,1.14c0.25,0.32,0.58,0.57,0.98,0.76
		c0.41,0.19,0.9,0.28,1.47,0.28c0.36,0,0.69-0.02,0.98-0.06s0.54-0.09,0.77-0.15c0.22-0.06,0.42-0.13,0.59-0.2
		c0.17-0.07,0.33-0.14,0.46-0.21l0.69,2c-0.35,0.21-0.85,0.41-1.49,0.58C507.12,67.64,506.38,67.72,505.54,67.72z"/>
	<path class="st0" d="M514.1,56.28c1.66,0,2.94,0.3,3.82,0.89c0.89,0.59,1.33,1.51,1.33,2.76c0,0.78-0.18,1.41-0.54,1.9
		s-0.87,0.87-1.54,1.14c0.22,0.28,0.46,0.59,0.7,0.95c0.25,0.36,0.49,0.73,0.73,1.12c0.24,0.39,0.47,0.79,0.7,1.22
		c0.22,0.42,0.43,0.83,0.62,1.24h-2.79c-0.2-0.36-0.41-0.73-0.62-1.1c-0.21-0.37-0.42-0.74-0.64-1.09c-0.22-0.35-0.44-0.69-0.65-1
		c-0.21-0.31-0.43-0.6-0.64-0.86h-1.23v4.05h-2.5V56.57c0.54-0.11,1.11-0.18,1.69-0.22C513.12,56.3,513.64,56.28,514.1,56.28z
		 M514.24,58.41c-0.18,0-0.34,0.01-0.49,0.02s-0.28,0.02-0.41,0.03v3.01h0.7c0.94,0,1.61-0.12,2.02-0.35
		c0.41-0.23,0.61-0.63,0.61-1.2c0-0.54-0.21-0.93-0.62-1.16C515.64,58.52,515.04,58.41,514.24,58.41z"/>
	<path class="st0" d="M521.52,67.5V56.41h7.49v2.1h-4.99v2.18h4.43v2.05h-4.43v2.67h5.36v2.1H521.52z"/>
	<path class="st0" d="M540.93,61.95c0,0.96-0.15,1.8-0.45,2.51c-0.3,0.71-0.72,1.31-1.27,1.78c-0.55,0.47-1.22,0.82-2.01,1.06
		c-0.79,0.23-1.67,0.35-2.66,0.35c-0.45,0-0.97-0.02-1.57-0.06c-0.6-0.04-1.18-0.11-1.76-0.23v-10.8c0.58-0.11,1.18-0.18,1.8-0.22
		c0.62-0.04,1.16-0.06,1.61-0.06c0.95,0,1.81,0.11,2.58,0.32s1.44,0.55,1.99,1.01c0.55,0.46,0.98,1.05,1.28,1.76
		C540.78,60.08,540.93,60.94,540.93,61.95z M533.71,65.47c0.12,0.01,0.25,0.02,0.41,0.02c0.15,0.01,0.34,0.01,0.55,0.01
		c1.25,0,2.17-0.31,2.78-0.94c0.6-0.63,0.9-1.5,0.9-2.61c0-1.16-0.29-2.04-0.86-2.64c-0.58-0.6-1.49-0.9-2.74-0.9
		c-0.17,0-0.35,0-0.53,0.01c-0.18,0.01-0.35,0.02-0.51,0.04V65.47z"/>
	<path class="st0" d="M543.01,56.41h2.5V67.5h-2.5V56.41z"/>
	<path class="st0" d="M556.29,56.41v2.13h-3.34v8.96h-2.5v-8.96h-3.34v-2.13H556.29z"/>
</g>
<g>
	<path class="st0" d="M505.54,107.36c-1.8,0-3.18-0.5-4.12-1.5c-0.94-1-1.42-2.43-1.42-4.27c0-0.92,0.14-1.74,0.43-2.46
		c0.29-0.72,0.68-1.33,1.18-1.82s1.1-0.87,1.79-1.13s1.45-0.38,2.26-0.38c0.47,0,0.9,0.04,1.28,0.1c0.38,0.07,0.72,0.15,1.01,0.24
		c0.29,0.09,0.53,0.18,0.72,0.28c0.19,0.1,0.33,0.17,0.42,0.22l-0.72,2.02c-0.34-0.18-0.74-0.34-1.19-0.46
		c-0.45-0.13-0.97-0.19-1.54-0.19c-0.38,0-0.76,0.06-1.13,0.19c-0.37,0.13-0.69,0.33-0.98,0.62c-0.28,0.28-0.51,0.65-0.68,1.1
		c-0.17,0.45-0.26,0.99-0.26,1.63c0,0.51,0.06,0.99,0.17,1.43c0.11,0.44,0.29,0.82,0.54,1.14c0.25,0.32,0.58,0.57,0.98,0.76
		c0.41,0.19,0.9,0.28,1.47,0.28c0.36,0,0.69-0.02,0.98-0.06s0.54-0.09,0.77-0.15c0.22-0.06,0.42-0.13,0.59-0.2
		c0.17-0.07,0.33-0.14,0.46-0.21l0.69,2c-0.35,0.21-0.85,0.41-1.49,0.58C507.12,107.28,506.38,107.36,505.54,107.36z"/>
	<path class="st0" d="M514.1,95.92c1.66,0,2.94,0.3,3.82,0.89c0.89,0.59,1.33,1.51,1.33,2.76c0,0.78-0.18,1.41-0.54,1.9
		s-0.87,0.87-1.54,1.14c0.22,0.28,0.46,0.59,0.7,0.95c0.25,0.36,0.49,0.73,0.73,1.12c0.24,0.39,0.47,0.79,0.7,1.22
		c0.22,0.42,0.43,0.83,0.62,1.24h-2.79c-0.2-0.36-0.41-0.73-0.62-1.1c-0.21-0.37-0.42-0.74-0.64-1.09c-0.22-0.35-0.44-0.69-0.65-1
		c-0.21-0.31-0.43-0.6-0.64-0.86h-1.23v4.05h-2.5V96.21c0.54-0.11,1.11-0.18,1.69-0.22C513.12,95.94,513.64,95.92,514.1,95.92z
		 M514.24,98.05c-0.18,0-0.34,0.01-0.49,0.02s-0.28,0.02-0.41,0.03v3.01h0.7c0.94,0,1.61-0.12,2.02-0.35
		c0.41-0.23,0.61-0.63,0.61-1.2c0-0.54-0.21-0.93-0.62-1.16C515.64,98.16,515.04,98.05,514.24,98.05z"/>
	<path class="st0" d="M521.52,107.14V96.05h7.49v2.1h-4.99v2.18h4.43v2.05h-4.43v2.67h5.36v2.1H521.52z"/>
	<path class="st0" d="M540.93,101.59c0,0.96-0.15,1.8-0.45,2.51c-0.3,0.71-0.72,1.31-1.27,1.78c-0.55,0.47-1.22,0.82-2.01,1.06
		c-0.79,0.23-1.67,0.35-2.66,0.35c-0.45,0-0.97-0.02-1.57-0.06c-0.6-0.04-1.18-0.11-1.76-0.23v-10.8c0.58-0.11,1.18-0.18,1.8-0.22
		c0.62-0.04,1.16-0.06,1.61-0.06c0.95,0,1.81,0.11,2.58,0.32s1.44,0.55,1.99,1.01c0.55,0.46,0.98,1.05,1.28,1.76
		C540.78,99.72,540.93,100.58,540.93,101.59z M533.71,105.1c0.12,0.01,0.25,0.02,0.41,0.02c0.15,0.01,0.34,0.01,0.55,0.01
		c1.25,0,2.17-0.31,2.78-0.94c0.6-0.63,0.9-1.5,0.9-2.61c0-1.16-0.29-2.04-0.86-2.64c-0.58-0.6-1.49-0.9-2.74-0.9
		c-0.17,0-0.35,0-0.53,0.01c-0.18,0.01-0.35,0.02-0.51,0.04V105.1z"/>
	<path class="st0" d="M543.01,96.05h2.5v11.09h-2.5V96.05z"/>
	<path class="st0" d="M556.29,96.05v2.13h-3.34v8.96h-2.5v-8.96h-3.34v-2.13H556.29z"/>
</g>
<g>
	<g>
		<path class="st1" d="M510.19,141.22c0,0.96-0.15,1.8-0.45,2.51c-0.3,0.71-0.72,1.31-1.27,1.78c-0.55,0.47-1.22,0.82-2.01,1.06
			c-0.79,0.23-1.67,0.35-2.66,0.35c-0.45,0-0.97-0.02-1.57-0.06c-0.6-0.04-1.18-0.11-1.76-0.23v-10.8c0.58-0.11,1.18-0.18,1.8-0.22
			c0.62-0.04,1.16-0.06,1.61-0.06c0.95,0,1.81,0.11,2.58,0.32s1.44,0.55,1.99,1.01c0.55,0.46,0.98,1.05,1.28,1.76
			C510.04,139.36,510.19,140.22,510.19,141.22z M502.98,144.74c0.12,0.01,0.25,0.02,0.41,0.02c0.15,0.01,0.34,0.01,0.55,0.01
			c1.25,0,2.17-0.31,2.78-0.94c0.6-0.63,0.9-1.5,0.9-2.61c0-1.16-0.29-2.04-0.86-2.64c-0.58-0.6-1.49-0.9-2.74-0.9
			c-0.17,0-0.35,0-0.53,0.01c-0.18,0.01-0.35,0.02-0.51,0.04V144.74z"/>
		<path class="st1" d="M512.27,146.78v-11.09h7.49v2.1h-4.99v2.18h4.43v2.05h-4.43v2.67h5.36v2.1H512.27z"/>
		<path class="st1" d="M525.66,146.92c-0.61,0-1.21-0.02-1.82-0.06c-0.6-0.04-1.23-0.13-1.88-0.26v-10.75
			c0.51-0.1,1.07-0.17,1.68-0.22s1.17-0.07,1.7-0.07c0.7,0,1.35,0.05,1.94,0.15c0.59,0.1,1.1,0.27,1.53,0.52
			c0.43,0.25,0.76,0.57,1,0.97c0.24,0.4,0.36,0.89,0.36,1.48c0,0.89-0.43,1.58-1.28,2.1c0.7,0.27,1.18,0.63,1.44,1.09
			c0.26,0.46,0.38,0.98,0.38,1.55c0,1.16-0.42,2.04-1.27,2.62C528.6,146.63,527.34,146.92,525.66,146.92z M524.4,140.04h1.22
			c0.77,0,1.32-0.1,1.65-0.3c0.33-0.2,0.5-0.51,0.5-0.95c0-0.45-0.17-0.76-0.51-0.94c-0.34-0.18-0.84-0.27-1.5-0.27
			c-0.21,0-0.44,0-0.69,0.01c-0.25,0.01-0.46,0.02-0.66,0.04V140.04z M524.4,141.94v2.86c0.18,0.02,0.38,0.04,0.59,0.05
			c0.21,0.01,0.45,0.02,0.7,0.02c0.75,0,1.35-0.11,1.81-0.32c0.46-0.21,0.69-0.61,0.69-1.18c0-0.51-0.19-0.88-0.58-1.1
			c-0.38-0.22-0.93-0.33-1.65-0.33H524.4z"/>
		<path class="st1" d="M532.72,135.69h2.5v11.09h-2.5V135.69z"/>
		<path class="st1" d="M546,135.69v2.13h-3.34v8.96h-2.5v-8.96h-3.34v-2.13H546z"/>
	</g>
</g>
<g>
	<path class="st1" d="M510.19,180.86c0,0.96-0.15,1.8-0.45,2.51c-0.3,0.71-0.72,1.31-1.27,1.78c-0.55,0.47-1.22,0.82-2.01,1.06
		c-0.79,0.23-1.67,0.35-2.66,0.35c-0.45,0-0.97-0.02-1.57-0.06c-0.6-0.04-1.18-0.11-1.76-0.23v-10.8c0.58-0.11,1.18-0.18,1.8-0.22
		c0.62-0.04,1.16-0.06,1.61-0.06c0.95,0,1.81,0.11,2.58,0.32s1.44,0.55,1.99,1.01c0.55,0.46,0.98,1.05,1.28,1.76
		C510.04,179,510.19,179.86,510.19,180.86z M502.98,184.38c0.12,0.01,0.25,0.02,0.41,0.02c0.15,0.01,0.34,0.01,0.55,0.01
		c1.25,0,2.17-0.31,2.78-0.94c0.6-0.63,0.9-1.5,0.9-2.61c0-1.16-0.29-2.04-0.86-2.64c-0.58-0.6-1.49-0.9-2.74-0.9
		c-0.17,0-0.35,0-0.53,0.01c-0.18,0.01-0.35,0.02-0.51,0.04V184.38z"/>
	<path class="st1" d="M512.27,186.42v-11.09h7.49v2.1h-4.99v2.18h4.43v2.05h-4.43v2.67h5.36v2.1H512.27z"/>
	<path class="st1" d="M525.66,186.56c-0.61,0-1.21-0.02-1.82-0.06c-0.6-0.04-1.23-0.13-1.88-0.26v-10.75
		c0.51-0.1,1.07-0.17,1.68-0.22s1.17-0.07,1.7-0.07c0.7,0,1.35,0.05,1.94,0.15c0.59,0.1,1.1,0.27,1.53,0.52
		c0.43,0.25,0.76,0.57,1,0.97c0.24,0.4,0.36,0.89,0.36,1.48c0,0.89-0.43,1.58-1.28,2.1c0.7,0.27,1.18,0.63,1.44,1.09
		c0.26,0.46,0.38,0.98,0.38,1.55c0,1.16-0.42,2.04-1.27,2.62C528.6,186.27,527.34,186.56,525.66,186.56z M524.4,179.68h1.22
		c0.77,0,1.32-0.1,1.65-0.3c0.33-0.2,0.5-0.51,0.5-0.95c0-0.45-0.17-0.76-0.51-0.94c-0.34-0.18-0.84-0.27-1.5-0.27
		c-0.21,0-0.44,0-0.69,0.01c-0.25,0.01-0.46,0.02-0.66,0.04V179.68z M524.4,181.58v2.86c0.18,0.02,0.38,0.04,0.59,0.05
		c0.21,0.01,0.45,0.02,0.7,0.02c0.75,0,1.35-0.11,1.81-0.32c0.46-0.21,0.69-0.61,0.69-1.18c0-0.51-0.19-0.88-0.58-1.1
		c-0.38-0.22-0.93-0.33-1.65-0.33H524.4z"/>
	<path class="st1" d="M532.72,175.33h2.5v11.09h-2.5V175.33z"/>
	<path class="st1" d="M546,175.33v2.13h-3.34v8.96h-2.5v-8.96h-3.34v-2.13H546z"/>
</g>
<g>
	<path class="st1" d="M510.19,220.5c0,0.96-0.15,1.8-0.45,2.51c-0.3,0.71-0.72,1.31-1.27,1.78c-0.55,0.47-1.22,0.82-2.01,1.06
		c-0.79,0.23-1.67,0.35-2.66,0.35c-0.45,0-0.97-0.02-1.57-0.06c-0.6-0.04-1.18-0.11-1.76-0.23v-10.8c0.58-0.11,1.18-0.18,1.8-0.22
		c0.62-0.04,1.16-0.06,1.61-0.06c0.95,0,1.81,0.11,2.58,0.32s1.44,0.55,1.99,1.01c0.55,0.46,0.98,1.05,1.28,1.76
		C510.04,218.64,510.19,219.5,510.19,220.5z M502.98,224.02c0.12,0.01,0.25,0.02,0.41,0.02c0.15,0.01,0.34,0.01,0.55,0.01
		c1.25,0,2.17-0.31,2.78-0.94c0.6-0.63,0.9-1.5,0.9-2.61c0-1.16-0.29-2.04-0.86-2.64c-0.58-0.6-1.49-0.9-2.74-0.9
		c-0.17,0-0.35,0-0.53,0.01c-0.18,0.01-0.35,0.02-0.51,0.04V224.02z"/>
	<path class="st1" d="M512.27,226.05v-11.09h7.49v2.1h-4.99v2.18h4.43v2.05h-4.43v2.67h5.36v2.1H512.27z"/>
	<path class="st1" d="M525.66,226.2c-0.61,0-1.21-0.02-1.82-0.06c-0.6-0.04-1.23-0.13-1.88-0.26v-10.75
		c0.51-0.1,1.07-0.17,1.68-0.22s1.17-0.07,1.7-0.07c0.7,0,1.35,0.05,1.94,0.15c0.59,0.1,1.1,0.27,1.53,0.52
		c0.43,0.25,0.76,0.57,1,0.97c0.24,0.4,0.36,0.89,0.36,1.48c0,0.89-0.43,1.58-1.28,2.1c0.7,0.27,1.18,0.63,1.44,1.09
		c0.26,0.46,0.38,0.98,0.38,1.55c0,1.16-0.42,2.04-1.27,2.62C528.6,225.91,527.34,226.2,525.66,226.2z M524.4,219.32h1.22
		c0.77,0,1.32-0.1,1.65-0.3c0.33-0.2,0.5-0.51,0.5-0.95c0-0.45-0.17-0.76-0.51-0.94c-0.34-0.18-0.84-0.27-1.5-0.27
		c-0.21,0-0.44,0-0.69,0.01c-0.25,0.01-0.46,0.02-0.66,0.04V219.32z M524.4,221.22v2.86c0.18,0.02,0.38,0.04,0.59,0.05
		c0.21,0.01,0.45,0.02,0.7,0.02c0.75,0,1.35-0.11,1.81-0.32c0.46-0.21,0.69-0.61,0.69-1.18c0-0.51-0.19-0.88-0.58-1.1
		c-0.38-0.22-0.93-0.33-1.65-0.33H524.4z"/>
	<path class="st1" d="M532.72,214.97h2.5v11.09h-2.5V214.97z"/>
	<path class="st1" d="M546,214.97v2.13h-3.34v8.96h-2.5v-8.96h-3.34v-2.13H546z"/>
</g>
</svg>
