<?xml version="1.0" encoding="utf-8"?>
<!-- Generator: Adobe Illustrator 24.0.0, SVG Export Plug-In . SVG Version: 6.00 Build 0)  -->
<svg version="1.1" id="Layer_1" xmlns="http://www.w3.org/2000/svg" xmlns:xlink="http://www.w3.org/1999/xlink" x="0px" y="0px"
	 width="1400px" height="228.8px" viewBox="0 0 1400 228.8" style="enable-background:new 0 0 1400 228.8;" xml:space="preserve">
<style type="text/css">
	.st0{fill:#0071BC;}
	.st1{fill:#ED1C24;}
	.st2{fill:#646D02;}
	.st3{fill:#64E100;}
	.st4{fill:#BE0100;}
	.st5{fill:#EA7E6C;}
	.st6{fill:#FFFFFF;}
</style>
<g>
	<path class="st0" d="M444.1,60.2c-0.1-0.4-0.3-0.8-0.4-1.2c-0.1-0.4-0.3-0.8-0.4-1.2h-4.3c-0.1,0.4-0.3,0.8-0.4,1.2
		c-0.1,0.4-0.3,0.8-0.4,1.2h-2.6c0.4-1.2,0.8-2.3,1.2-3.3c0.4-1,0.7-2,1.1-2.9c0.4-0.9,0.7-1.8,1.1-2.5c0.4-0.8,0.7-1.6,1.1-2.4h2.4
		c0.4,0.8,0.7,1.5,1.1,2.4c0.4,0.8,0.7,1.7,1.1,2.5c0.4,0.9,0.7,1.8,1.1,2.9c0.4,1,0.8,2.1,1.2,3.3H444.1z M441.1,51.6
		c-0.1,0.2-0.1,0.4-0.2,0.7c-0.1,0.3-0.2,0.6-0.4,1c-0.1,0.4-0.3,0.8-0.5,1.2c-0.2,0.4-0.3,0.9-0.5,1.4h3.2
		c-0.2-0.5-0.3-0.9-0.5-1.4c-0.2-0.4-0.3-0.8-0.5-1.2c-0.1-0.4-0.3-0.7-0.4-1C441.2,52,441.2,51.8,441.1,51.6z"/>
	<path class="st0" d="M451.5,58.3c0.4,0,0.6,0,0.9-0.1c0.2-0.1,0.4-0.1,0.6-0.2c0.1-0.1,0.2-0.2,0.3-0.4c0.1-0.1,0.1-0.3,0.1-0.5
		c0-0.4-0.2-0.7-0.5-0.9s-0.9-0.5-1.8-0.8c-0.4-0.1-0.7-0.3-1.1-0.4c-0.4-0.2-0.7-0.4-1-0.6s-0.5-0.5-0.7-0.9s-0.3-0.8-0.3-1.3
		s0.1-1,0.3-1.4c0.2-0.4,0.5-0.8,0.8-1c0.4-0.3,0.8-0.5,1.3-0.7s1.1-0.2,1.7-0.2c0.8,0,1.4,0.1,1.9,0.2c0.5,0.2,1,0.3,1.3,0.5
		l-0.7,2c-0.3-0.2-0.6-0.3-1-0.4s-0.8-0.2-1.4-0.2c-0.6,0-1,0.1-1.3,0.3s-0.4,0.4-0.4,0.8c0,0.2,0,0.4,0.1,0.5
		c0.1,0.1,0.2,0.3,0.4,0.4c0.2,0.1,0.4,0.2,0.6,0.3c0.2,0.1,0.5,0.2,0.8,0.3c0.6,0.2,1.1,0.4,1.5,0.6c0.4,0.2,0.8,0.5,1.1,0.7
		s0.5,0.6,0.6,1c0.1,0.4,0.2,0.8,0.2,1.4c0,1-0.4,1.8-1.1,2.4c-0.7,0.6-1.8,0.9-3.3,0.9c-0.5,0-0.9,0-1.3-0.1
		c-0.4-0.1-0.7-0.1-1.1-0.2c-0.3-0.1-0.6-0.2-0.8-0.3c-0.2-0.1-0.4-0.2-0.5-0.3l0.7-2c0.3,0.2,0.7,0.3,1.2,0.5
		C450.2,58.3,450.8,58.3,451.5,58.3z"/>
	<path class="st0" d="M460.8,58.3c0.4,0,0.6,0,0.9-0.1c0.2-0.1,0.4-0.1,0.6-0.2c0.1-0.1,0.2-0.2,0.3-0.4c0.1-0.1,0.1-0.3,0.1-0.5
		c0-0.4-0.2-0.7-0.5-0.9s-0.9-0.5-1.8-0.8c-0.4-0.1-0.7-0.3-1.1-0.4c-0.4-0.2-0.7-0.4-1-0.6s-0.5-0.5-0.7-0.9
		c-0.2-0.4-0.3-0.8-0.3-1.3s0.1-1,0.3-1.4s0.5-0.8,0.8-1c0.4-0.3,0.8-0.5,1.3-0.7s1.1-0.2,1.7-0.2c0.8,0,1.4,0.1,1.9,0.2
		c0.5,0.2,1,0.3,1.3,0.5l-0.7,2c-0.3-0.2-0.6-0.3-1-0.4s-0.8-0.2-1.4-0.2c-0.6,0-1,0.1-1.3,0.3c-0.3,0.2-0.4,0.4-0.4,0.8
		c0,0.2,0,0.4,0.1,0.5c0.1,0.1,0.2,0.3,0.4,0.4c0.2,0.1,0.4,0.2,0.6,0.3c0.2,0.1,0.5,0.2,0.8,0.3c0.6,0.2,1.1,0.4,1.5,0.6
		c0.4,0.2,0.8,0.5,1.1,0.7s0.5,0.6,0.6,1c0.1,0.4,0.2,0.8,0.2,1.4c0,1-0.4,1.8-1.1,2.4c-0.7,0.6-1.8,0.9-3.3,0.9
		c-0.5,0-0.9,0-1.3-0.1s-0.7-0.1-1.1-0.2c-0.3-0.1-0.6-0.2-0.8-0.3c-0.2-0.1-0.4-0.2-0.5-0.3l0.7-2c0.3,0.2,0.7,0.3,1.2,0.5
		C459.5,58.3,460.1,58.3,460.8,58.3z"/>
	<path class="st0" d="M467.1,60.2V49.1h7.5v2.1h-5v2.2h4.4v2h-4.4v2.7h5.4v2.1L467.1,60.2L467.1,60.2z"/>
	<path class="st0" d="M485,49.1v2.1h-3.3v9h-2.5v-9h-3.3v-2.1H485z"/>
</g>
<g>
	<path class="st0" d="M436.7,99.8V88.7h7.5v2.1h-5V93h4.4v2.1h-4.4v2.7h5.4v2.1L436.7,99.8L436.7,99.8z"/>
	<path class="st0" d="M453,99.8c-0.3-0.6-0.6-1.2-1-1.9c-0.4-0.6-0.8-1.2-1.3-1.6c-0.1,0.2-0.3,0.4-0.6,0.7
		c-0.2,0.3-0.5,0.6-0.7,0.9c-0.2,0.3-0.4,0.7-0.6,1c-0.2,0.3-0.4,0.6-0.5,0.8h-2.8c0.5-0.9,1-1.8,1.6-2.7s1.3-1.9,2.1-2.9l-3.6-5.5
		h3l2.1,3.2l2.2-3.2h2.9l-3.6,5.4c0.9,1.2,1.7,2.3,2.3,3.3c0.6,1,1.1,1.8,1.4,2.5H453z"/>
	<path class="st0" d="M460.8,88.6c1.6,0,2.9,0.3,3.8,0.9c0.9,0.6,1.3,1.5,1.3,2.9s-0.5,2.3-1.3,2.9c-0.9,0.6-2.2,0.9-3.8,0.9H460
		v3.7h-2.5V88.9c0.5-0.1,1.1-0.2,1.7-0.2C459.8,88.6,460.3,88.6,460.8,88.6z M461,90.7c-0.2,0-0.4,0-0.5,0s-0.3,0-0.5,0V94h0.8
		c0.9,0,1.5-0.1,2-0.4c0.4-0.2,0.7-0.7,0.7-1.3c0-0.3-0.1-0.6-0.2-0.8s-0.3-0.4-0.5-0.5c-0.2-0.1-0.5-0.2-0.8-0.3
		C461.7,90.8,461.3,90.7,461,90.7z"/>
	<path class="st0" d="M467.8,99.8V88.7h7.5v2.1h-5V93h4.4v2.1h-4.4v2.7h5.4v2.1L467.8,99.8L467.8,99.8z"/>
	<path class="st0" d="M484.9,99.8c-0.7-1.3-1.5-2.5-2.3-3.8c-0.8-1.2-1.7-2.4-2.7-3.5v7.3h-2.5V88.7h2c0.3,0.4,0.7,0.8,1.2,1.3
		s0.9,1.1,1.3,1.6s0.9,1.2,1.3,1.8c0.4,0.6,0.9,1.2,1.2,1.8v-6.5h2.5v11.1L484.9,99.8L484.9,99.8z"/>
	<path class="st0" d="M492.6,97.9c0.4,0,0.6,0,0.9-0.1s0.4-0.1,0.6-0.2c0.1-0.1,0.2-0.2,0.3-0.4c0.1-0.1,0.1-0.3,0.1-0.5
		c0-0.4-0.2-0.7-0.5-0.9c-0.3-0.2-0.9-0.5-1.8-0.8c-0.4-0.1-0.7-0.3-1.1-0.4c-0.4-0.2-0.7-0.4-1-0.6c-0.3-0.3-0.5-0.6-0.7-0.9
		s-0.3-0.8-0.3-1.3c0-0.5,0.1-1,0.3-1.4s0.5-0.8,0.8-1.1c0.4-0.3,0.8-0.5,1.3-0.7c0.5-0.1,1.1-0.2,1.7-0.2c0.8,0,1.4,0.1,1.9,0.2
		c0.5,0.2,1,0.3,1.3,0.5l-0.7,2c-0.3-0.2-0.6-0.3-1-0.4s-0.8-0.2-1.4-0.2c-0.6,0-1,0.1-1.3,0.3s-0.4,0.4-0.4,0.8
		c0,0.2,0.1,0.4,0.1,0.5c0.1,0.1,0.2,0.3,0.4,0.4c0.2,0.1,0.4,0.2,0.6,0.3c0.2,0.1,0.5,0.2,0.8,0.3c0.6,0.2,1.1,0.4,1.5,0.6
		c0.4,0.2,0.8,0.4,1.1,0.7s0.5,0.6,0.6,1c0.1,0.4,0.2,0.8,0.2,1.4c0,1-0.4,1.8-1.1,2.4c-0.7,0.6-1.8,0.9-3.3,0.9
		c-0.5,0-0.9,0-1.3-0.1c-0.4-0.1-0.7-0.1-1.1-0.2c-0.3-0.1-0.6-0.2-0.8-0.3c-0.2-0.1-0.4-0.2-0.5-0.3l0.7-2c0.3,0.2,0.7,0.3,1.2,0.5
		C491.3,97.9,491.9,97.9,492.6,97.9z"/>
	<path class="st0" d="M498.9,99.8V88.7h7.5v2.1h-5V93h4.4v2.1h-4.4v2.7h5.4v2.1L498.9,99.8L498.9,99.8z"/>
</g>
<g>
	<g>
		<path class="st1" d="M444.1,137.3v2.1h-7.4v-11.1h2.5v8.9L444.1,137.3L444.1,137.3z"/>
		<path class="st1" d="M445.7,128.4h2.5v11.1h-2.5V128.4z"/>
		<path class="st1" d="M458.2,139.5c-0.1-0.4-0.3-0.8-0.4-1.2c-0.1-0.4-0.3-0.8-0.4-1.2H453c-0.1,0.4-0.3,0.8-0.4,1.2
			c-0.1,0.4-0.3,0.8-0.4,1.2h-2.6c0.4-1.2,0.8-2.3,1.2-3.3c0.4-1,0.7-2,1.1-2.9s0.7-1.8,1.1-2.6c0.4-0.8,0.7-1.6,1.1-2.4h2.4
			c0.4,0.8,0.7,1.6,1.1,2.4c0.4,0.8,0.7,1.7,1.1,2.6c0.4,0.9,0.7,1.9,1.1,2.9c0.4,1,0.8,2.1,1.2,3.3L458.2,139.5L458.2,139.5z
			 M455.2,130.9c-0.1,0.2-0.1,0.4-0.2,0.7c-0.1,0.3-0.2,0.6-0.4,1c-0.1,0.4-0.3,0.8-0.5,1.2c-0.2,0.4-0.3,0.9-0.5,1.4h3.2
			c-0.2-0.5-0.3-0.9-0.5-1.4c-0.2-0.4-0.3-0.8-0.5-1.2c-0.1-0.4-0.3-0.7-0.4-1C455.3,131.2,455.2,131,455.2,130.9z"/>
		<path class="st1" d="M465.9,139.6c-0.6,0-1.2,0-1.8-0.1c-0.6,0-1.2-0.1-1.9-0.3v-10.8c0.5-0.1,1.1-0.2,1.7-0.2
			c0.6-0.1,1.2-0.1,1.7-0.1c0.7,0,1.3,0.1,1.9,0.1c0.6,0.1,1.1,0.3,1.5,0.5c0.4,0.3,0.8,0.6,1,1c0.2,0.4,0.4,0.9,0.4,1.5
			c0,0.9-0.4,1.6-1.3,2.1c0.7,0.3,1.2,0.6,1.4,1.1c0.3,0.5,0.4,1,0.4,1.6c0,1.2-0.4,2-1.3,2.6C468.9,139.3,467.6,139.6,465.9,139.6z
			 M464.7,132.7h1.2c0.8,0,1.3-0.1,1.6-0.3c0.3-0.2,0.5-0.5,0.5-0.9c0-0.4-0.2-0.8-0.5-0.9c-0.3-0.2-0.8-0.3-1.5-0.3
			c-0.2,0-0.4,0-0.7,0s-0.5,0-0.7,0L464.7,132.7L464.7,132.7z M464.7,134.6v2.9c0.2,0,0.4,0,0.6,0.1c0.2,0,0.4,0,0.7,0
			c0.8,0,1.4-0.1,1.8-0.3c0.5-0.2,0.7-0.6,0.7-1.2c0-0.5-0.2-0.9-0.6-1.1c-0.4-0.2-0.9-0.3-1.6-0.3H464.7z"/>
		<path class="st1" d="M473,128.4h2.5v11.1H473V128.4z"/>
		<path class="st1" d="M485.5,137.3v2.1h-7.4v-11.1h2.5v8.9L485.5,137.3L485.5,137.3z"/>
		<path class="st1" d="M487.1,128.4h2.5v11.1h-2.5V128.4z"/>
		<path class="st1" d="M500.3,128.4v2.1H497v9h-2.5v-9h-3.3v-2.1H500.3z"/>
		<path class="st1" d="M506.6,132.9c0.4-0.8,0.9-1.5,1.3-2.3c0.4-0.8,0.8-1.5,1.1-2.3h2.8c-0.6,1.2-1.2,2.4-1.9,3.5
			c-0.6,1.1-1.3,2.3-2.1,3.4v4.2h-2.5v-4.2c-0.7-1.1-1.4-2.3-2.1-3.4c-0.7-1.1-1.3-2.3-1.9-3.5h2.9c0.3,0.8,0.7,1.5,1.1,2.3
			C505.7,131.4,506.1,132.2,506.6,132.9z"/>
	</g>
</g>
<g>
	<path class="st1" d="M441.7,179.3c-1.8,0-3.2-0.5-4.1-1.5c-0.9-1-1.4-2.4-1.4-4.3c0-0.9,0.1-1.7,0.4-2.5s0.7-1.3,1.2-1.8
		c0.5-0.5,1.1-0.9,1.8-1.1s1.5-0.4,2.3-0.4c0.5,0,0.9,0,1.3,0.1c0.4,0.1,0.7,0.1,1,0.2c0.3,0.1,0.5,0.2,0.7,0.3s0.3,0.2,0.4,0.2
		l-0.7,2c-0.3-0.2-0.7-0.3-1.2-0.5c-0.5-0.1-1-0.2-1.5-0.2c-0.4,0-0.8,0.1-1.1,0.2c-0.4,0.1-0.7,0.3-1,0.6c-0.3,0.3-0.5,0.6-0.7,1.1
		c-0.2,0.4-0.3,1-0.3,1.6c0,0.5,0.1,1,0.2,1.4c0.1,0.4,0.3,0.8,0.5,1.1c0.3,0.3,0.6,0.6,1,0.8c0.4,0.2,0.9,0.3,1.5,0.3
		c0.4,0,0.7,0,1-0.1c0.3,0,0.5-0.1,0.8-0.1c0.2-0.1,0.4-0.1,0.6-0.2c0.2-0.1,0.3-0.1,0.5-0.2l0.7,2c-0.4,0.2-0.9,0.4-1.5,0.6
		C443.3,179.2,442.6,179.3,441.7,179.3z"/>
	<path class="st1" d="M454.9,179.1c-0.1-0.4-0.3-0.8-0.4-1.2c-0.1-0.4-0.3-0.8-0.4-1.2h-4.3c-0.1,0.4-0.3,0.8-0.4,1.2
		c-0.1,0.4-0.3,0.8-0.4,1.2h-2.6c0.4-1.2,0.8-2.3,1.2-3.3c0.4-1,0.7-2,1.1-2.9s0.7-1.8,1.1-2.6c0.4-0.8,0.7-1.6,1.1-2.4h2.4
		c0.4,0.8,0.7,1.6,1.1,2.4c0.4,0.8,0.7,1.7,1.1,2.6c0.4,0.9,0.7,1.9,1.1,2.9c0.4,1,0.8,2.1,1.2,3.3L454.9,179.1L454.9,179.1z
		 M451.9,170.5c-0.1,0.2-0.1,0.4-0.2,0.7c-0.1,0.3-0.2,0.6-0.4,1c-0.1,0.4-0.3,0.8-0.5,1.2c-0.2,0.4-0.3,0.9-0.5,1.4h3.2
		c-0.2-0.5-0.3-0.9-0.5-1.4s-0.3-0.8-0.4-1.2c-0.1-0.4-0.3-0.7-0.4-1C452.1,170.9,452,170.7,451.9,170.5z"/>
	<path class="st1" d="M462.3,167.9c1.6,0,2.9,0.3,3.8,0.9c0.9,0.6,1.3,1.5,1.3,2.9s-0.4,2.3-1.3,2.9c-0.9,0.6-2.2,0.9-3.8,0.9h-0.8
		v3.7H459v-10.9c0.5-0.1,1.1-0.2,1.7-0.2C461.3,167.9,461.9,167.9,462.3,167.9z M462.5,170c-0.2,0-0.4,0-0.5,0c-0.2,0-0.3,0-0.5,0
		v3.2h0.8c0.9,0,1.5-0.1,1.9-0.4c0.4-0.2,0.7-0.7,0.7-1.3c0-0.3-0.1-0.6-0.2-0.8c-0.1-0.2-0.3-0.4-0.5-0.5s-0.5-0.2-0.8-0.3
		C463.2,170,462.9,170,462.5,170z"/>
	<path class="st1" d="M469.3,168h2.5v11.1h-2.5C469.3,179.1,469.3,168,469.3,168z"/>
	<path class="st1" d="M482.6,168v2.1h-3.3v9h-2.5v-9h-3.3V168H482.6z"/>
	<path class="st1" d="M490.3,179.1c-0.1-0.4-0.3-0.8-0.4-1.2c-0.1-0.4-0.3-0.8-0.4-1.2h-4.3c-0.1,0.4-0.3,0.8-0.4,1.2
		c-0.1,0.4-0.3,0.8-0.4,1.2h-2.6c0.4-1.2,0.8-2.3,1.2-3.3c0.4-1,0.7-2,1.1-2.9c0.4-0.9,0.7-1.8,1.1-2.6c0.4-0.8,0.7-1.6,1.1-2.4h2.4
		c0.4,0.8,0.7,1.6,1.1,2.4c0.4,0.8,0.7,1.7,1.1,2.6c0.4,0.9,0.7,1.9,1.1,2.9c0.4,1,0.8,2.1,1.2,3.3L490.3,179.1L490.3,179.1z
		 M487.3,170.5c-0.1,0.2-0.1,0.4-0.2,0.7c-0.1,0.3-0.2,0.6-0.4,1c-0.1,0.4-0.3,0.8-0.5,1.2c-0.2,0.4-0.3,0.9-0.5,1.4h3.2
		c-0.2-0.5-0.3-0.9-0.5-1.4c-0.2-0.4-0.3-0.8-0.5-1.2c-0.1-0.4-0.3-0.7-0.4-1C487.5,170.9,487.4,170.7,487.3,170.5z"/>
	<path class="st1" d="M501.8,176.9v2.1h-7.4V168h2.5v8.9L501.8,176.9L501.8,176.9z"/>
</g>
<g>
	<path class="st1" d="M439.9,207.5c1.7,0,2.9,0.3,3.8,0.9c0.9,0.6,1.3,1.5,1.3,2.8c0,0.8-0.2,1.4-0.5,1.9c-0.4,0.5-0.9,0.9-1.5,1.1
		c0.2,0.3,0.5,0.6,0.7,0.9c0.3,0.4,0.5,0.7,0.7,1.1c0.2,0.4,0.5,0.8,0.7,1.2c0.2,0.4,0.4,0.8,0.6,1.2h-2.8c-0.2-0.4-0.4-0.7-0.6-1.1
		c-0.2-0.4-0.4-0.7-0.6-1.1c-0.2-0.4-0.4-0.7-0.6-1c-0.2-0.3-0.4-0.6-0.6-0.9h-1.2v4.1h-2.5v-10.9c0.5-0.1,1.1-0.2,1.7-0.2
		C438.9,207.5,439.4,207.5,439.9,207.5z M440,209.6c-0.2,0-0.3,0-0.5,0c-0.2,0-0.3,0-0.4,0v3h0.7c0.9,0,1.6-0.1,2-0.4
		c0.4-0.2,0.6-0.6,0.6-1.2c0-0.5-0.2-0.9-0.6-1.2C441.5,209.8,440.8,209.6,440,209.6z"/>
	<path class="st1" d="M447.3,218.7v-11.1h7.5v2.1h-5v2.2h4.4v2.1h-4.4v2.7h5.4v2.1L447.3,218.7L447.3,218.7z"/>
	<path class="st1" d="M460.5,218.7c-0.4-0.9-0.9-1.9-1.3-2.9s-0.8-2-1.2-3c-0.4-1-0.7-1.9-1.1-2.8c-0.3-0.9-0.6-1.7-0.8-2.4h2.8
		c0.2,0.6,0.4,1.3,0.7,2.1s0.5,1.5,0.8,2.2c0.3,0.7,0.5,1.4,0.8,2.1c0.2,0.7,0.5,1.3,0.7,1.8c0.2-0.5,0.4-1.1,0.7-1.7
		c0.2-0.7,0.5-1.4,0.8-2.1c0.3-0.7,0.5-1.5,0.8-2.2c0.3-0.7,0.5-1.4,0.7-2.1h2.7c-0.3,0.7-0.5,1.5-0.9,2.4c-0.3,0.9-0.7,1.8-1.1,2.8
		s-0.8,2-1.2,3c-0.4,1-0.9,2-1.3,2.9L460.5,218.7L460.5,218.7z"/>
	<path class="st1" d="M468.7,218.7v-11.1h7.5v2.1h-5v2.2h4.4v2.1h-4.4v2.7h5.4v2.1L468.7,218.7L468.7,218.7z"/>
	<path class="st1" d="M485.9,218.7c-0.7-1.3-1.5-2.5-2.3-3.8c-0.8-1.2-1.7-2.4-2.7-3.5v7.3h-2.5v-11.1h2c0.4,0.4,0.7,0.8,1.2,1.3
		c0.4,0.5,0.9,1.1,1.3,1.6s0.9,1.2,1.3,1.8c0.4,0.6,0.9,1.2,1.2,1.8v-6.5h2.5v11.1L485.9,218.7L485.9,218.7z"/>
	<path class="st1" d="M494.9,219c-0.8,0-1.4-0.1-2-0.3s-1-0.5-1.4-0.9s-0.6-0.9-0.8-1.4s-0.3-1.1-0.3-1.8v-6.9h2.5v6.7
		c0,0.4,0.1,0.8,0.2,1.1c0.1,0.3,0.2,0.6,0.4,0.8s0.4,0.3,0.6,0.4c0.3,0.1,0.5,0.1,0.8,0.1c0.6,0,1.1-0.2,1.5-0.6s0.6-1,0.6-1.9
		v-6.7h2.5v6.9c0,0.6-0.1,1.3-0.3,1.8c-0.2,0.5-0.5,1-0.8,1.4s-0.9,0.7-1.4,0.9C496.3,218.8,495.7,219,494.9,219z"/>
	<path class="st1" d="M501.9,218.7v-11.1h7.5v2.1h-5v2.2h4.4v2.1h-4.4v2.7h5.4v2.1L501.9,218.7L501.9,218.7z"/>
</g>
<g>
	<path class="st0" d="M616.4,54.6c0,1-0.1,1.8-0.4,2.5c-0.3,0.7-0.7,1.3-1.3,1.8s-1.2,0.8-2,1.1c-0.8,0.2-1.7,0.3-2.7,0.3
		c-0.5,0-1,0-1.6-0.1c-0.6,0-1.2-0.1-1.8-0.2V49.2c0.6-0.1,1.2-0.2,1.8-0.2s1.2-0.1,1.6-0.1c1,0,1.8,0.1,2.6,0.3s1.4,0.5,2,1
		c0.6,0.5,1,1,1.3,1.8C616.2,52.8,616.4,53.6,616.4,54.6z M609.2,58.1c0.1,0,0.3,0,0.4,0c0.2,0,0.3,0,0.5,0c1.3,0,2.2-0.3,2.8-0.9
		c0.6-0.6,0.9-1.5,0.9-2.6c0-1.2-0.3-2-0.9-2.6c-0.6-0.6-1.5-0.9-2.7-0.9c-0.2,0-0.4,0-0.5,0s-0.3,0-0.5,0V58.1z"/>
	<path class="st0" d="M618.4,60.2V49.1h7.5v2.1h-5v2.2h4.4v2h-4.4v2.7h5.4v2.1L618.4,60.2L618.4,60.2z"/>
	<path class="st0" d="M631.8,60.3c-0.6,0-1.2,0-1.8-0.1c-0.6,0-1.2-0.1-1.9-0.3V49.2c0.5-0.1,1.1-0.2,1.7-0.2s1.2-0.1,1.7-0.1
		c0.7,0,1.3,0,1.9,0.2c0.6,0.1,1.1,0.3,1.5,0.5s0.8,0.6,1,1s0.4,0.9,0.4,1.5c0,0.9-0.4,1.6-1.3,2.1c0.7,0.3,1.2,0.6,1.4,1.1
		s0.4,1,0.4,1.5c0,1.2-0.4,2-1.3,2.6C634.8,60,633.5,60.3,631.8,60.3z M630.6,53.4h1.2c0.8,0,1.3-0.1,1.7-0.3s0.5-0.5,0.5-1
		c0-0.5-0.2-0.8-0.5-0.9c-0.3-0.2-0.8-0.3-1.5-0.3c-0.2,0-0.4,0-0.7,0s-0.5,0-0.7,0L630.6,53.4L630.6,53.4z M630.6,55.3v2.9
		c0.2,0,0.4,0,0.6,0.1c0.2,0,0.5,0,0.7,0c0.8,0,1.4-0.1,1.8-0.3c0.5-0.2,0.7-0.6,0.7-1.2c0-0.5-0.2-0.9-0.6-1.1
		c-0.4-0.2-0.9-0.3-1.6-0.3H630.6z"/>
	<path class="st0" d="M638.9,49.1h2.5v11.1h-2.5V49.1z"/>
	<path class="st0" d="M652.2,49.1v2.1h-3.3v9h-2.5v-9H643v-2.1H652.2z"/>
</g>
<g>
	<path class="st0" d="M616.4,94.3c0,1-0.1,1.8-0.4,2.5c-0.3,0.7-0.7,1.3-1.3,1.8s-1.2,0.8-2,1.1c-0.8,0.2-1.7,0.3-2.7,0.3
		c-0.5,0-1,0-1.6-0.1c-0.6,0-1.2-0.1-1.8-0.2V88.9c0.6-0.1,1.2-0.2,1.8-0.2c0.6,0,1.2-0.1,1.6-0.1c1,0,1.8,0.1,2.6,0.3
		c0.8,0.2,1.4,0.6,2,1c0.6,0.5,1,1.1,1.3,1.8C616.2,92.4,616.4,93.3,616.4,94.3z M609.2,97.8c0.1,0,0.3,0,0.4,0c0.2,0,0.3,0,0.5,0
		c1.3,0,2.2-0.3,2.8-0.9c0.6-0.6,0.9-1.5,0.9-2.6c0-1.2-0.3-2-0.9-2.6c-0.6-0.6-1.5-0.9-2.7-0.9c-0.2,0-0.4,0-0.5,0
		c-0.2,0-0.3,0-0.5,0V97.8z"/>
	<path class="st0" d="M618.4,99.8V88.7h7.5v2.1h-5V93h4.4v2.1h-4.4v2.7h5.4v2.1L618.4,99.8L618.4,99.8z"/>
	<path class="st0" d="M631.8,100c-0.6,0-1.2,0-1.8-0.1c-0.6,0-1.2-0.1-1.9-0.3V88.9c0.5-0.1,1.1-0.2,1.7-0.2s1.2-0.1,1.7-0.1
		c0.7,0,1.3,0.1,1.9,0.2c0.6,0.1,1.1,0.3,1.5,0.5s0.8,0.6,1,1c0.2,0.4,0.4,0.9,0.4,1.5c0,0.9-0.4,1.6-1.3,2.1
		c0.7,0.3,1.2,0.6,1.4,1.1c0.3,0.5,0.4,1,0.4,1.6c0,1.2-0.4,2-1.3,2.6C634.8,99.7,633.5,100,631.8,100z M630.6,93.1h1.2
		c0.8,0,1.3-0.1,1.7-0.3s0.5-0.5,0.5-0.9c0-0.4-0.2-0.8-0.5-0.9c-0.3-0.2-0.8-0.3-1.5-0.3c-0.2,0-0.4,0-0.7,0c-0.3,0-0.5,0-0.7,0
		L630.6,93.1L630.6,93.1z M630.6,95v2.9c0.2,0,0.4,0,0.6,0.1c0.2,0,0.5,0,0.7,0c0.8,0,1.4-0.1,1.8-0.3c0.5-0.2,0.7-0.6,0.7-1.2
		c0-0.5-0.2-0.9-0.6-1.1c-0.4-0.2-0.9-0.3-1.6-0.3H630.6z"/>
	<path class="st0" d="M638.9,88.7h2.5v11.1h-2.5V88.7z"/>
	<path class="st0" d="M652.2,88.7v2.1h-3.3v9h-2.5v-9H643v-2.1H652.2z"/>
</g>
<g>
	<g>
		<path class="st1" d="M611.7,139.7c-1.8,0-3.2-0.5-4.1-1.5s-1.4-2.4-1.4-4.3c0-0.9,0.1-1.7,0.4-2.5c0.3-0.7,0.7-1.3,1.2-1.8
			s1.1-0.9,1.8-1.1c0.7-0.3,1.4-0.4,2.3-0.4c0.5,0,0.9,0,1.3,0.1c0.4,0.1,0.7,0.1,1,0.2c0.3,0.1,0.5,0.2,0.7,0.3s0.3,0.2,0.4,0.2
			l-0.7,2c-0.3-0.2-0.7-0.3-1.2-0.5c-0.5-0.1-1-0.2-1.5-0.2c-0.4,0-0.8,0.1-1.1,0.2s-0.7,0.3-1,0.6c-0.3,0.3-0.5,0.6-0.7,1.1
			c-0.2,0.4-0.3,1-0.3,1.6c0,0.5,0.1,1,0.2,1.4c0.1,0.4,0.3,0.8,0.5,1.1c0.3,0.3,0.6,0.6,1,0.8c0.4,0.2,0.9,0.3,1.5,0.3
			c0.4,0,0.7,0,1-0.1s0.5-0.1,0.8-0.1c0.2-0.1,0.4-0.1,0.6-0.2c0.2-0.1,0.3-0.1,0.5-0.2l0.7,2c-0.3,0.2-0.8,0.4-1.5,0.6
			C613.3,139.6,612.5,139.7,611.7,139.7z"/>
		<path class="st1" d="M620.3,128.2c1.7,0,2.9,0.3,3.8,0.9c0.9,0.6,1.3,1.5,1.3,2.8c0,0.8-0.2,1.4-0.5,1.9c-0.4,0.5-0.9,0.9-1.5,1.1
			c0.2,0.3,0.5,0.6,0.7,0.9c0.3,0.4,0.5,0.7,0.7,1.1s0.5,0.8,0.7,1.2c0.2,0.4,0.4,0.8,0.6,1.2h-2.8c-0.2-0.4-0.4-0.7-0.6-1.1
			c-0.2-0.4-0.4-0.7-0.6-1.1c-0.2-0.4-0.4-0.7-0.7-1c-0.2-0.3-0.4-0.6-0.6-0.9h-1.2v4.1H617v-10.9c0.5-0.1,1.1-0.2,1.7-0.2
			C619.3,128.3,619.8,128.2,620.3,128.2z M620.4,130.4c-0.2,0-0.3,0-0.5,0c-0.1,0-0.3,0-0.4,0v3h0.7c0.9,0,1.6-0.1,2-0.4
			c0.4-0.2,0.6-0.6,0.6-1.2c0-0.5-0.2-0.9-0.6-1.2C621.8,130.5,621.2,130.4,620.4,130.4z"/>
		<path class="st1" d="M627.7,139.5v-11.1h7.5v2.1h-5v2.2h4.4v2.1h-4.4v2.7h5.4v2.1L627.7,139.5L627.7,139.5z"/>
		<path class="st1" d="M647.1,133.9c0,1-0.1,1.8-0.4,2.5c-0.3,0.7-0.7,1.3-1.3,1.8s-1.2,0.8-2,1.1c-0.8,0.2-1.7,0.4-2.7,0.4
			c-0.5,0-1,0-1.6-0.1c-0.6,0-1.2-0.1-1.8-0.2v-10.8c0.6-0.1,1.2-0.2,1.8-0.2c0.6,0,1.2-0.1,1.6-0.1c1,0,1.8,0.1,2.6,0.3
			s1.4,0.6,2,1c0.6,0.5,1,1.1,1.3,1.8C647,132,647.1,132.9,647.1,133.9z M639.9,137.4c0.1,0,0.3,0,0.4,0c0.1,0,0.3,0,0.5,0
			c1.3,0,2.2-0.3,2.8-0.9c0.6-0.6,0.9-1.5,0.9-2.6c0-1.2-0.3-2-0.9-2.6c-0.6-0.6-1.5-0.9-2.7-0.9c-0.2,0-0.3,0-0.5,0s-0.4,0-0.5,0
			V137.4z"/>
		<path class="st1" d="M649.2,128.4h2.5v11.1h-2.5V128.4z"/>
		<path class="st1" d="M662.5,128.4v2.1h-3.3v9h-2.5v-9h-3.3v-2.1H662.5z"/>
	</g>
</g>
<g>
	<path class="st1" d="M611.7,179.3c-1.8,0-3.2-0.5-4.1-1.5s-1.4-2.4-1.4-4.3c0-0.9,0.1-1.7,0.4-2.5c0.3-0.7,0.7-1.3,1.2-1.8
		s1.1-0.9,1.8-1.1c0.7-0.3,1.4-0.4,2.3-0.4c0.5,0,0.9,0,1.3,0.1c0.4,0.1,0.7,0.1,1,0.2c0.3,0.1,0.5,0.2,0.7,0.3s0.3,0.2,0.4,0.2
		l-0.7,2c-0.3-0.2-0.7-0.3-1.2-0.5c-0.5-0.1-1-0.2-1.5-0.2c-0.4,0-0.8,0.1-1.1,0.2s-0.7,0.3-1,0.6c-0.3,0.3-0.5,0.6-0.7,1.1
		c-0.2,0.4-0.3,1-0.3,1.6c0,0.5,0.1,1,0.2,1.4c0.1,0.4,0.3,0.8,0.5,1.1c0.3,0.3,0.6,0.6,1,0.8c0.4,0.2,0.9,0.3,1.5,0.3
		c0.4,0,0.7,0,1-0.1s0.5-0.1,0.8-0.1c0.2-0.1,0.4-0.1,0.6-0.2c0.2-0.1,0.3-0.1,0.5-0.2l0.7,2c-0.3,0.2-0.8,0.4-1.5,0.6
		C613.3,179.2,612.5,179.3,611.7,179.3z"/>
	<path class="st1" d="M620.3,167.9c1.7,0,2.9,0.3,3.8,0.9c0.9,0.6,1.3,1.5,1.3,2.8c0,0.8-0.2,1.4-0.5,1.9c-0.4,0.5-0.9,0.9-1.5,1.1
		c0.2,0.3,0.5,0.6,0.7,0.9c0.3,0.4,0.5,0.7,0.7,1.1s0.5,0.8,0.7,1.2c0.2,0.4,0.4,0.8,0.6,1.2h-2.8c-0.2-0.4-0.4-0.7-0.6-1.1
		c-0.2-0.4-0.4-0.7-0.6-1.1c-0.2-0.4-0.4-0.7-0.7-1c-0.2-0.3-0.4-0.6-0.6-0.9h-1.2v4.1H617v-10.9c0.5-0.1,1.1-0.2,1.7-0.2
		C619.3,167.9,619.8,167.9,620.3,167.9z M620.4,170c-0.2,0-0.3,0-0.5,0c-0.1,0-0.3,0-0.4,0v3h0.7c0.9,0,1.6-0.1,2-0.4
		c0.4-0.2,0.6-0.6,0.6-1.2c0-0.5-0.2-0.9-0.6-1.2C621.8,170.1,621.2,170,620.4,170z"/>
	<path class="st1" d="M627.7,179.1V168h7.5v2.1h-5v2.2h4.4v2.1h-4.4v2.7h5.4v2.1L627.7,179.1L627.7,179.1z"/>
	<path class="st1" d="M647.1,173.5c0,1-0.1,1.8-0.4,2.5c-0.3,0.7-0.7,1.3-1.3,1.8s-1.2,0.8-2,1.1c-0.8,0.2-1.7,0.4-2.7,0.4
		c-0.5,0-1,0-1.6-0.1c-0.6,0-1.2-0.1-1.8-0.2v-10.8c0.6-0.1,1.2-0.2,1.8-0.2c0.6,0,1.2-0.1,1.6-0.1c1,0,1.8,0.1,2.6,0.3s1.4,0.6,2,1
		c0.6,0.5,1,1.1,1.3,1.8C647,171.7,647.1,172.5,647.1,173.5z M639.9,177.1c0.1,0,0.3,0,0.4,0c0.1,0,0.3,0,0.5,0
		c1.3,0,2.2-0.3,2.8-0.9c0.6-0.6,0.9-1.5,0.9-2.6c0-1.2-0.3-2-0.9-2.6c-0.6-0.6-1.5-0.9-2.7-0.9c-0.2,0-0.3,0-0.5,0s-0.4,0-0.5,0
		V177.1z"/>
	<path class="st1" d="M649.2,168h2.5v11.1h-2.5V168z"/>
	<path class="st1" d="M662.5,168v2.1h-3.3v9h-2.5v-9h-3.3V168H662.5z"/>
</g>
<g>
	<path class="st1" d="M611.7,219c-1.8,0-3.2-0.5-4.1-1.5s-1.4-2.4-1.4-4.3c0-0.9,0.1-1.7,0.4-2.5c0.3-0.7,0.7-1.3,1.2-1.8
		s1.1-0.9,1.8-1.1c0.7-0.3,1.4-0.4,2.3-0.4c0.5,0,0.9,0,1.3,0.1c0.4,0.1,0.7,0.1,1,0.2c0.3,0.1,0.5,0.2,0.7,0.3s0.3,0.2,0.4,0.2
		l-0.7,2c-0.3-0.2-0.7-0.3-1.2-0.5c-0.5-0.1-1-0.2-1.5-0.2c-0.4,0-0.8,0.1-1.1,0.2s-0.7,0.3-1,0.6c-0.3,0.3-0.5,0.6-0.7,1.1
		c-0.2,0.4-0.3,1-0.3,1.6c0,0.5,0.1,1,0.2,1.4c0.1,0.4,0.3,0.8,0.5,1.1c0.3,0.3,0.6,0.6,1,0.8c0.4,0.2,0.9,0.3,1.5,0.3
		c0.4,0,0.7,0,1-0.1s0.5-0.1,0.8-0.1c0.2-0.1,0.4-0.1,0.6-0.2c0.2-0.1,0.3-0.1,0.5-0.2l0.7,2c-0.3,0.2-0.8,0.4-1.5,0.6
		C613.3,218.9,612.5,219,611.7,219z"/>
	<path class="st1" d="M620.3,207.5c1.7,0,2.9,0.3,3.8,0.9c0.9,0.6,1.3,1.5,1.3,2.8c0,0.8-0.2,1.4-0.5,1.9c-0.4,0.5-0.9,0.9-1.5,1.1
		c0.2,0.3,0.5,0.6,0.7,0.9c0.3,0.4,0.5,0.7,0.7,1.1s0.5,0.8,0.7,1.2c0.2,0.4,0.4,0.8,0.6,1.2h-2.8c-0.2-0.4-0.4-0.7-0.6-1.1
		c-0.2-0.4-0.4-0.7-0.6-1.1c-0.2-0.4-0.4-0.7-0.7-1c-0.2-0.3-0.4-0.6-0.6-0.9h-1.2v4.1H617v-10.9c0.5-0.1,1.1-0.2,1.7-0.2
		C619.3,207.5,619.8,207.5,620.3,207.5z M620.4,209.6c-0.2,0-0.3,0-0.5,0c-0.1,0-0.3,0-0.4,0v3h0.7c0.9,0,1.6-0.1,2-0.4
		c0.4-0.2,0.6-0.6,0.6-1.2c0-0.5-0.2-0.9-0.6-1.2C621.8,209.8,621.2,209.6,620.4,209.6z"/>
	<path class="st1" d="M627.7,218.7v-11.1h7.5v2.1h-5v2.2h4.4v2.1h-4.4v2.7h5.4v2.1L627.7,218.7L627.7,218.7z"/>
	<path class="st1" d="M647.1,213.2c0,1-0.1,1.8-0.4,2.5c-0.3,0.7-0.7,1.3-1.3,1.8s-1.2,0.8-2,1.1c-0.8,0.2-1.7,0.4-2.7,0.4
		c-0.5,0-1,0-1.6-0.1c-0.6,0-1.2-0.1-1.8-0.2v-10.8c0.6-0.1,1.2-0.2,1.8-0.2c0.6,0,1.2-0.1,1.6-0.1c1,0,1.8,0.1,2.6,0.3s1.4,0.6,2,1
		c0.6,0.5,1,1.1,1.3,1.8C647,211.3,647.1,212.2,647.1,213.2z M639.9,216.7c0.1,0,0.3,0,0.4,0c0.1,0,0.3,0,0.5,0
		c1.3,0,2.2-0.3,2.8-0.9c0.6-0.6,0.9-1.5,0.9-2.6c0-1.2-0.3-2-0.9-2.6c-0.6-0.6-1.5-0.9-2.7-0.9c-0.2,0-0.3,0-0.5,0s-0.4,0-0.5,0
		V216.7z"/>
	<path class="st1" d="M649.2,207.6h2.5v11.1h-2.5V207.6z"/>
	<path class="st1" d="M662.5,207.6v2.1h-3.3v9h-2.5v-9h-3.3v-2.1H662.5z"/>
</g>
<polyline class="st2" points="567.6,222 533.6,222 533.6,39.5 512.6,39.5 551.6,7 588.1,39.5 567.6,39.5 "/>
<polygon class="st3" points="551.6,10 551.6,17 572.6,37 580.6,37 "/>
<polyline class="st4" points="835.1,7 869.1,7 869.1,189.5 890.1,189.5 851.1,222 814.6,189.5 835.1,189.5 "/>
<polygon class="st5" points="851.1,219 851.1,212 830.1,192 822.1,192 "/>
<g>
	<path class="st0" d="M740.1,60.2c-0.1-0.4-0.3-0.8-0.4-1.2s-0.3-0.8-0.4-1.2h-4.3c-0.1,0.4-0.3,0.8-0.4,1.2s-0.3,0.8-0.4,1.2h-2.6
		c0.4-1.2,0.8-2.3,1.2-3.3c0.4-1,0.7-2,1.1-2.9c0.4-0.9,0.7-1.8,1.1-2.5c0.3-0.8,0.7-1.6,1.1-2.4h2.4c0.4,0.8,0.7,1.5,1.1,2.4
		c0.3,0.8,0.7,1.7,1.1,2.5c0.4,0.9,0.7,1.8,1.1,2.9c0.4,1,0.8,2.1,1.2,3.3H740.1z M737.1,51.6c-0.1,0.2-0.1,0.4-0.2,0.7
		c-0.1,0.3-0.2,0.6-0.4,1c-0.1,0.4-0.3,0.8-0.5,1.2c-0.2,0.4-0.3,0.9-0.5,1.4h3.2c-0.2-0.5-0.3-0.9-0.5-1.4
		c-0.2-0.4-0.3-0.8-0.5-1.2s-0.3-0.7-0.4-1C737.2,52,737.2,51.8,737.1,51.6z"/>
	<path class="st0" d="M747.5,58.3c0.3,0,0.6,0,0.9-0.1s0.4-0.1,0.5-0.2s0.2-0.2,0.3-0.4c0-0.1,0.1-0.3,0.1-0.5
		c0-0.4-0.2-0.7-0.5-0.9c-0.3-0.2-0.9-0.5-1.8-0.8c-0.4-0.1-0.7-0.3-1.1-0.4s-0.7-0.4-1-0.6c-0.3-0.3-0.5-0.5-0.7-0.9
		s-0.3-0.8-0.3-1.3s0.1-1,0.3-1.4s0.5-0.8,0.8-1c0.3-0.3,0.8-0.5,1.3-0.7s1.1-0.2,1.7-0.2c0.8,0,1.4,0.1,1.9,0.2
		c0.5,0.2,1,0.3,1.3,0.5l-0.7,2c-0.3-0.2-0.6-0.3-1-0.4s-0.8-0.2-1.4-0.2c-0.6,0-1,0.1-1.3,0.3s-0.4,0.4-0.4,0.8
		c0,0.2,0,0.4,0.1,0.5c0.1,0.1,0.2,0.3,0.4,0.4c0.2,0.1,0.4,0.2,0.6,0.3s0.5,0.2,0.8,0.3c0.6,0.2,1.1,0.4,1.5,0.6
		c0.4,0.2,0.8,0.5,1.1,0.7c0.3,0.3,0.5,0.6,0.6,1s0.2,0.8,0.2,1.4c0,1-0.4,1.8-1.1,2.4c-0.7,0.6-1.8,0.9-3.3,0.9
		c-0.5,0-0.9,0-1.3-0.1c-0.4-0.1-0.7-0.1-1-0.2c-0.3-0.1-0.6-0.2-0.8-0.3c-0.2-0.1-0.4-0.2-0.5-0.3l0.7-2c0.3,0.2,0.7,0.3,1.2,0.5
		C746.2,58.3,746.8,58.3,747.5,58.3z"/>
	<path class="st0" d="M756.8,58.3c0.3,0,0.6,0,0.9-0.1s0.4-0.1,0.5-0.2s0.2-0.2,0.3-0.4c0-0.1,0.1-0.3,0.1-0.5
		c0-0.4-0.2-0.7-0.5-0.9c-0.3-0.2-0.9-0.5-1.8-0.8c-0.4-0.1-0.7-0.3-1.1-0.4s-0.7-0.4-1-0.6c-0.3-0.3-0.5-0.5-0.7-0.9
		s-0.3-0.8-0.3-1.3s0.1-1,0.3-1.4s0.5-0.8,0.8-1c0.3-0.3,0.8-0.5,1.3-0.7s1.1-0.2,1.7-0.2c0.8,0,1.4,0.1,1.9,0.2
		c0.5,0.2,1,0.3,1.3,0.5l-0.7,2c-0.3-0.2-0.6-0.3-1-0.4s-0.8-0.2-1.4-0.2c-0.6,0-1,0.1-1.3,0.3s-0.4,0.4-0.4,0.8
		c0,0.2,0,0.4,0.1,0.5c0.1,0.1,0.2,0.3,0.4,0.4c0.2,0.1,0.4,0.2,0.6,0.3s0.5,0.2,0.8,0.3c0.6,0.2,1.1,0.4,1.5,0.6
		c0.4,0.2,0.8,0.5,1.1,0.7c0.3,0.3,0.5,0.6,0.6,1s0.2,0.8,0.2,1.4c0,1-0.4,1.8-1.1,2.4c-0.7,0.6-1.8,0.9-3.3,0.9
		c-0.5,0-0.9,0-1.3-0.1c-0.4-0.1-0.7-0.1-1-0.2c-0.3-0.1-0.6-0.2-0.8-0.3c-0.2-0.1-0.4-0.2-0.5-0.3l0.7-2c0.3,0.2,0.7,0.3,1.2,0.5
		C755.5,58.3,756.1,58.3,756.8,58.3z"/>
	<path class="st0" d="M763.1,60.2V49.1h7.5v2.1h-5v2.2h4.4v2h-4.4v2.7h5.4v2.1L763.1,60.2L763.1,60.2z"/>
	<path class="st0" d="M781,49.1v2.1h-3.3v9h-2.5v-9h-3.3v-2.1H781z"/>
</g>
<g>
	<path class="st0" d="M732.7,99.8V88.7h7.5v2.1h-5V93h4.4v2.1h-4.4v2.7h5.4v2.1L732.7,99.8L732.7,99.8z"/>
	<path class="st0" d="M749,99.8c-0.3-0.6-0.6-1.2-1-1.9c-0.4-0.6-0.8-1.2-1.3-1.6c-0.1,0.2-0.3,0.4-0.6,0.7
		c-0.2,0.3-0.5,0.6-0.7,0.9c-0.2,0.3-0.4,0.7-0.6,1c-0.2,0.3-0.3,0.6-0.5,0.8h-2.8c0.5-0.9,1-1.8,1.6-2.7s1.3-1.9,2.1-2.9l-3.6-5.5
		h3l2.1,3.2l2.2-3.2h2.9l-3.6,5.4c0.9,1.2,1.7,2.3,2.3,3.3c0.6,1,1.1,1.8,1.4,2.5H749z"/>
	<path class="st0" d="M756.8,88.6c1.7,0,2.9,0.3,3.8,0.9c0.9,0.6,1.3,1.5,1.3,2.9s-0.5,2.3-1.3,2.9c-0.9,0.6-2.2,0.9-3.8,0.9H756
		v3.7h-2.5V88.9c0.5-0.1,1.1-0.2,1.7-0.2C755.8,88.6,756.3,88.6,756.8,88.6z M757,90.7c-0.2,0-0.4,0-0.5,0c-0.2,0-0.3,0-0.5,0V94
		h0.8c0.9,0,1.5-0.1,2-0.4s0.7-0.7,0.7-1.3c0-0.3-0.1-0.6-0.2-0.8c-0.1-0.2-0.3-0.4-0.5-0.5s-0.5-0.2-0.8-0.3
		C757.7,90.8,757.3,90.7,757,90.7z"/>
	<path class="st0" d="M763.8,99.8V88.7h7.5v2.1h-5V93h4.4v2.1h-4.4v2.7h5.4v2.1L763.8,99.8L763.8,99.8z"/>
	<path class="st0" d="M780.9,99.8c-0.7-1.3-1.5-2.5-2.3-3.8s-1.7-2.4-2.7-3.5v7.3h-2.5V88.7h2c0.4,0.4,0.7,0.8,1.2,1.3
		c0.4,0.5,0.9,1.1,1.3,1.6s0.9,1.2,1.3,1.8c0.4,0.6,0.8,1.2,1.2,1.8v-6.5h2.5v11.1L780.9,99.8L780.9,99.8z"/>
	<path class="st0" d="M788.6,97.9c0.3,0,0.6,0,0.9-0.1s0.4-0.1,0.5-0.2c0.1-0.1,0.2-0.2,0.3-0.4c0-0.1,0.1-0.3,0.1-0.5
		c0-0.4-0.2-0.7-0.5-0.9c-0.3-0.2-0.9-0.5-1.8-0.8c-0.4-0.1-0.7-0.3-1.1-0.4c-0.4-0.2-0.7-0.4-1-0.6c-0.3-0.3-0.5-0.6-0.7-0.9
		s-0.3-0.8-0.3-1.3c0-0.5,0.1-1,0.3-1.4s0.5-0.8,0.8-1.1c0.3-0.3,0.8-0.5,1.3-0.7c0.5-0.1,1.1-0.2,1.7-0.2c0.8,0,1.4,0.1,1.9,0.2
		c0.5,0.2,1,0.3,1.3,0.5l-0.7,2c-0.3-0.2-0.6-0.3-1-0.4s-0.8-0.2-1.4-0.2c-0.6,0-1,0.1-1.3,0.3s-0.4,0.4-0.4,0.8
		c0,0.2,0,0.4,0.1,0.5c0.1,0.1,0.2,0.3,0.4,0.4c0.2,0.1,0.4,0.2,0.6,0.3s0.5,0.2,0.8,0.3c0.6,0.2,1.1,0.4,1.5,0.6
		c0.4,0.2,0.8,0.4,1.1,0.7c0.3,0.3,0.5,0.6,0.6,1s0.2,0.8,0.2,1.4c0,1-0.4,1.8-1.1,2.4c-0.7,0.6-1.8,0.9-3.3,0.9
		c-0.5,0-0.9,0-1.3-0.1c-0.4-0.1-0.7-0.1-1-0.2c-0.3-0.1-0.6-0.2-0.8-0.3c-0.2-0.1-0.4-0.2-0.5-0.3l0.7-2c0.3,0.2,0.7,0.3,1.2,0.5
		C787.3,97.9,787.9,97.9,788.6,97.9z"/>
	<path class="st0" d="M794.9,99.8V88.7h7.5v2.1h-5V93h4.4v2.1h-4.4v2.7h5.4v2.1L794.9,99.8L794.9,99.8z"/>
</g>
<g>
	<g>
		<path class="st1" d="M740.1,137.3v2.1h-7.4v-11.1h2.5v8.9L740.1,137.3L740.1,137.3z"/>
		<path class="st1" d="M741.7,128.4h2.5v11.1h-2.5V128.4z"/>
		<path class="st1" d="M754.2,139.5c-0.1-0.4-0.3-0.8-0.4-1.2s-0.3-0.8-0.4-1.2H749c-0.1,0.4-0.3,0.8-0.4,1.2s-0.3,0.8-0.4,1.2h-2.6
			c0.4-1.2,0.8-2.3,1.2-3.3c0.4-1,0.7-2,1.1-2.9c0.4-0.9,0.7-1.8,1.1-2.6c0.3-0.8,0.7-1.6,1.1-2.4h2.4c0.4,0.8,0.7,1.6,1.1,2.4
			c0.3,0.8,0.7,1.7,1.1,2.6c0.4,0.9,0.7,1.9,1.1,2.9c0.4,1,0.8,2.1,1.2,3.3L754.2,139.5L754.2,139.5z M751.2,130.9
			c-0.1,0.2-0.1,0.4-0.2,0.7c-0.1,0.3-0.2,0.6-0.4,1c-0.1,0.4-0.3,0.8-0.5,1.2s-0.3,0.9-0.5,1.4h3.2c-0.2-0.5-0.3-0.9-0.5-1.4
			c-0.2-0.4-0.3-0.8-0.5-1.2s-0.3-0.7-0.4-1C751.3,131.2,751.2,131,751.2,130.9z"/>
		<path class="st1" d="M761.9,139.6c-0.6,0-1.2,0-1.8-0.1c-0.6,0-1.2-0.1-1.9-0.3v-10.8c0.5-0.1,1.1-0.2,1.7-0.2s1.2-0.1,1.7-0.1
			c0.7,0,1.3,0.1,1.9,0.1c0.6,0.1,1.1,0.3,1.5,0.5s0.8,0.6,1,1s0.4,0.9,0.4,1.5c0,0.9-0.4,1.6-1.3,2.1c0.7,0.3,1.2,0.6,1.4,1.1
			c0.3,0.5,0.4,1,0.4,1.6c0,1.2-0.4,2-1.3,2.6C764.9,139.3,763.6,139.6,761.9,139.6z M760.7,132.7h1.2c0.8,0,1.3-0.1,1.6-0.3
			c0.3-0.2,0.5-0.5,0.5-0.9c0-0.4-0.2-0.8-0.5-0.9c-0.3-0.2-0.8-0.3-1.5-0.3c-0.2,0-0.4,0-0.7,0s-0.5,0-0.7,0L760.7,132.7
			L760.7,132.7z M760.7,134.6v2.9c0.2,0,0.4,0,0.6,0.1c0.2,0,0.5,0,0.7,0c0.8,0,1.3-0.1,1.8-0.3c0.5-0.2,0.7-0.6,0.7-1.2
			c0-0.5-0.2-0.9-0.6-1.1c-0.4-0.2-0.9-0.3-1.6-0.3H760.7z"/>
		<path class="st1" d="M769,128.4h2.5v11.1H769V128.4z"/>
		<path class="st1" d="M781.5,137.3v2.1H774v-11.1h2.5v8.9L781.5,137.3L781.5,137.3z"/>
		<path class="st1" d="M783.1,128.4h2.5v11.1h-2.5V128.4z"/>
		<path class="st1" d="M796.3,128.4v2.1H793v9h-2.5v-9h-3.3v-2.1H796.3z"/>
		<path class="st1" d="M802.5,132.9c0.5-0.8,0.9-1.5,1.3-2.3c0.4-0.8,0.8-1.5,1.1-2.3h2.8c-0.6,1.2-1.2,2.4-1.9,3.5
			s-1.3,2.3-2.1,3.4v4.2h-2.5v-4.2c-0.7-1.1-1.4-2.3-2.1-3.4c-0.7-1.1-1.3-2.3-1.9-3.5h2.9c0.3,0.8,0.7,1.5,1.1,2.3
			C801.7,131.4,802.1,132.2,802.5,132.9z"/>
	</g>
</g>
<g>
	<path class="st1" d="M737.7,179.3c-1.8,0-3.2-0.5-4.1-1.5s-1.4-2.4-1.4-4.3c0-0.9,0.1-1.7,0.4-2.5c0.3-0.7,0.7-1.3,1.2-1.8
		s1.1-0.9,1.8-1.1s1.5-0.4,2.3-0.4c0.5,0,0.9,0,1.3,0.1c0.4,0.1,0.7,0.1,1,0.2c0.3,0.1,0.5,0.2,0.7,0.3s0.3,0.2,0.4,0.2l-0.7,2
		c-0.3-0.2-0.7-0.3-1.2-0.5c-0.5-0.1-1-0.2-1.5-0.2c-0.4,0-0.8,0.1-1.1,0.2s-0.7,0.3-1,0.6c-0.3,0.3-0.5,0.6-0.7,1.1
		c-0.2,0.4-0.3,1-0.3,1.6c0,0.5,0.1,1,0.2,1.4c0.1,0.4,0.3,0.8,0.5,1.1c0.3,0.3,0.6,0.6,1,0.8c0.4,0.2,0.9,0.3,1.5,0.3
		c0.4,0,0.7,0,1-0.1c0.3,0,0.5-0.1,0.8-0.1c0.2-0.1,0.4-0.1,0.6-0.2c0.2-0.1,0.3-0.1,0.5-0.2l0.7,2c-0.4,0.2-0.9,0.4-1.5,0.6
		C739.3,179.2,738.5,179.3,737.7,179.3z"/>
	<path class="st1" d="M750.9,179.1c-0.1-0.4-0.3-0.8-0.4-1.2s-0.3-0.8-0.4-1.2h-4.3c-0.1,0.4-0.3,0.8-0.4,1.2s-0.3,0.8-0.4,1.2h-2.6
		c0.4-1.2,0.8-2.3,1.2-3.3c0.4-1,0.7-2,1.1-2.9c0.4-0.9,0.7-1.8,1.1-2.6c0.3-0.8,0.7-1.6,1.1-2.4h2.4c0.4,0.8,0.7,1.6,1.1,2.4
		c0.3,0.8,0.7,1.7,1.1,2.6c0.4,0.9,0.7,1.9,1.1,2.9c0.4,1,0.8,2.1,1.2,3.3L750.9,179.1L750.9,179.1z M747.9,170.5
		c-0.1,0.2-0.1,0.4-0.2,0.7c-0.1,0.3-0.2,0.6-0.4,1s-0.3,0.8-0.5,1.2c-0.2,0.4-0.3,0.9-0.5,1.4h3.2c-0.2-0.5-0.3-0.9-0.5-1.4
		c-0.2-0.4-0.3-0.8-0.5-1.2s-0.3-0.7-0.4-1C748.1,170.9,748,170.7,747.9,170.5z"/>
	<path class="st1" d="M758.3,167.9c1.6,0,2.9,0.3,3.8,0.9s1.3,1.5,1.3,2.9s-0.5,2.3-1.3,2.9c-0.9,0.6-2.2,0.9-3.8,0.9h-0.8v3.7H755
		v-10.9c0.5-0.1,1.1-0.2,1.7-0.2C757.3,167.9,757.9,167.9,758.3,167.9z M758.5,170c-0.2,0-0.4,0-0.5,0c-0.2,0-0.3,0-0.5,0v3.2h0.8
		c0.9,0,1.5-0.1,2-0.4c0.4-0.2,0.7-0.7,0.7-1.3c0-0.3-0.1-0.6-0.2-0.8c-0.1-0.2-0.3-0.4-0.5-0.5s-0.5-0.2-0.8-0.3
		C759.2,170,758.8,170,758.5,170z"/>
	<path class="st1" d="M765.3,168h2.5v11.1h-2.5V168z"/>
	<path class="st1" d="M778.6,168v2.1h-3.3v9h-2.5v-9h-3.3V168H778.6z"/>
	<path class="st1" d="M786.3,179.1c-0.1-0.4-0.3-0.8-0.4-1.2c-0.1-0.4-0.3-0.8-0.4-1.2h-4.3c-0.1,0.4-0.3,0.8-0.4,1.2
		s-0.3,0.8-0.4,1.2h-2.6c0.4-1.2,0.8-2.3,1.2-3.3c0.4-1,0.7-2,1.1-2.9c0.4-0.9,0.7-1.8,1.1-2.6c0.4-0.8,0.7-1.6,1.1-2.4h2.4
		c0.4,0.8,0.7,1.6,1.1,2.4c0.4,0.8,0.7,1.7,1.1,2.6c0.4,0.9,0.7,1.9,1.1,2.9c0.4,1,0.8,2.1,1.2,3.3L786.3,179.1L786.3,179.1z
		 M783.3,170.5c-0.1,0.2-0.1,0.4-0.2,0.7c-0.1,0.3-0.2,0.6-0.4,1s-0.3,0.8-0.5,1.2c-0.2,0.4-0.3,0.9-0.5,1.4h3.2
		c-0.2-0.5-0.3-0.9-0.5-1.4c-0.2-0.4-0.3-0.8-0.5-1.2s-0.3-0.7-0.4-1C783.5,170.9,783.4,170.7,783.3,170.5z"/>
	<path class="st1" d="M797.8,176.9v2.1h-7.4V168h2.5v8.9L797.8,176.9L797.8,176.9z"/>
</g>
<g>
	<path class="st1" d="M735.9,207.5c1.7,0,2.9,0.3,3.8,0.9c0.9,0.6,1.3,1.5,1.3,2.8c0,0.8-0.2,1.4-0.5,1.9c-0.4,0.5-0.9,0.9-1.5,1.1
		c0.2,0.3,0.5,0.6,0.7,0.9c0.3,0.4,0.5,0.7,0.7,1.1c0.2,0.4,0.5,0.8,0.7,1.2c0.2,0.4,0.4,0.8,0.6,1.2h-2.8c-0.2-0.4-0.4-0.7-0.6-1.1
		c-0.2-0.4-0.4-0.7-0.6-1.1c-0.2-0.4-0.4-0.7-0.6-1c-0.2-0.3-0.4-0.6-0.6-0.9h-1.2v4.1h-2.5v-10.9c0.5-0.1,1.1-0.2,1.7-0.2
		C734.9,207.5,735.4,207.5,735.9,207.5z M736,209.6c-0.2,0-0.3,0-0.5,0c-0.1,0-0.3,0-0.4,0v3h0.7c0.9,0,1.6-0.1,2-0.4
		c0.4-0.2,0.6-0.6,0.6-1.2c0-0.5-0.2-0.9-0.6-1.2C737.5,209.8,736.8,209.6,736,209.6z"/>
	<path class="st1" d="M743.3,218.7v-11.1h7.5v2.1h-5v2.2h4.4v2.1h-4.4v2.7h5.4v2.1L743.3,218.7L743.3,218.7z"/>
	<path class="st1" d="M756.5,218.7c-0.4-0.9-0.9-1.9-1.3-2.9s-0.8-2-1.2-3c-0.4-1-0.7-1.9-1.1-2.8c-0.3-0.9-0.6-1.7-0.8-2.4h2.8
		c0.2,0.6,0.4,1.3,0.7,2.1s0.5,1.5,0.8,2.2c0.3,0.7,0.5,1.4,0.8,2.1s0.5,1.3,0.7,1.8c0.2-0.5,0.4-1.1,0.7-1.7s0.5-1.4,0.8-2.1
		c0.3-0.7,0.5-1.5,0.8-2.2c0.3-0.7,0.5-1.4,0.7-2.1h2.7c-0.3,0.7-0.5,1.5-0.9,2.4c-0.3,0.9-0.7,1.8-1.1,2.8s-0.8,2-1.2,3
		c-0.4,1-0.9,2-1.3,2.9L756.5,218.7L756.5,218.7z"/>
	<path class="st1" d="M764.7,218.7v-11.1h7.5v2.1h-5v2.2h4.4v2.1h-4.4v2.7h5.4v2.1L764.7,218.7L764.7,218.7z"/>
	<path class="st1" d="M781.9,218.7c-0.7-1.3-1.5-2.5-2.3-3.8s-1.7-2.4-2.7-3.5v7.3h-2.5v-11.1h2c0.4,0.4,0.7,0.8,1.2,1.3
		c0.4,0.5,0.9,1.1,1.3,1.6s0.9,1.2,1.3,1.8c0.4,0.6,0.8,1.2,1.2,1.8v-6.5h2.5v11.1L781.9,218.7L781.9,218.7z"/>
	<path class="st1" d="M790.9,219c-0.8,0-1.5-0.1-2-0.3c-0.6-0.2-1-0.5-1.4-0.9s-0.6-0.9-0.8-1.4s-0.3-1.1-0.3-1.8v-6.9h2.5v6.7
		c0,0.4,0,0.8,0.2,1.1c0.1,0.3,0.2,0.6,0.4,0.8s0.4,0.3,0.6,0.4c0.3,0.1,0.5,0.1,0.8,0.1c0.6,0,1.1-0.2,1.5-0.6s0.6-1,0.6-1.9v-6.7
		h2.5v6.9c0,0.6-0.1,1.3-0.3,1.8s-0.5,1-0.8,1.4s-0.9,0.7-1.4,0.9C792.3,218.8,791.7,219,790.9,219z"/>
	<path class="st1" d="M797.8,218.7v-11.1h7.5v2.1h-5v2.2h4.4v2.1h-4.4v2.7h5.4v2.1L797.8,218.7L797.8,218.7z"/>
</g>
<g>
	<g>
		<path class="st6" d="M544.5,151.4v-2.8h12.5v2.8H544.5z"/>
		<path class="st6" d="M556.9,137.4c-1.4,0.8-2.8,1.7-4.2,2.6s-2.7,1.9-3.9,3h8.2v2.8h-12.5v-2.3c0.4-0.4,0.9-0.8,1.5-1.3
			c0.6-0.5,1.2-1,1.9-1.5c0.6-0.5,1.3-1,2-1.5c0.7-0.5,1.4-0.9,2-1.4h-7.4V135H557L556.9,137.4L556.9,137.4z"/>
		<path class="st6" d="M557.2,126.4c0,2-0.6,3.6-1.7,4.6s-2.7,1.6-4.8,1.6c-1,0-2-0.2-2.8-0.5c-0.8-0.3-1.5-0.8-2-1.3s-1-1.2-1.3-2
			c-0.3-0.8-0.4-1.6-0.4-2.5c0-0.5,0-1,0.1-1.4c0.1-0.4,0.2-0.8,0.3-1.1c0.1-0.3,0.2-0.6,0.3-0.8c0.1-0.2,0.2-0.4,0.3-0.5l2.3,0.8
			c-0.2,0.4-0.4,0.8-0.5,1.3s-0.2,1.1-0.2,1.7c0,0.4,0.1,0.9,0.2,1.3c0.1,0.4,0.4,0.8,0.7,1.1c0.3,0.3,0.7,0.6,1.2,0.8
			c0.5,0.2,1.1,0.3,1.8,0.3c0.6,0,1.1-0.1,1.6-0.2s0.9-0.3,1.3-0.6c0.4-0.3,0.7-0.6,0.9-1.1c0.2-0.5,0.3-1,0.3-1.7
			c0-0.4,0-0.8-0.1-1.1c0-0.3-0.1-0.6-0.2-0.9c-0.1-0.3-0.1-0.5-0.2-0.7c-0.1-0.2-0.2-0.4-0.2-0.5l2.3-0.8c0.2,0.4,0.5,0.9,0.7,1.7
			C557.1,124.7,557.2,125.5,557.2,126.4z"/>
		<path class="st6" d="M544.3,116.8c0-1.9,0.3-3.3,1-4.3s1.7-1.5,3.1-1.5c0.9,0,1.6,0.2,2.1,0.6c0.6,0.4,1,1,1.3,1.7
			c0.3-0.3,0.7-0.5,1.1-0.8c0.4-0.3,0.8-0.6,1.3-0.8c0.4-0.3,0.9-0.5,1.4-0.8c0.5-0.3,0.9-0.5,1.4-0.7v3.1c-0.4,0.2-0.8,0.5-1.2,0.7
			c-0.4,0.2-0.8,0.5-1.2,0.7c-0.4,0.3-0.8,0.5-1.1,0.7c-0.3,0.2-0.7,0.5-1,0.7v1.4h4.6v2.8h-12.3c-0.1-0.6-0.2-1.2-0.3-1.9
			C544.3,117.9,544.3,117.3,544.3,116.8z M546.7,116.6c0,0.2,0,0.4,0,0.6s0,0.3,0,0.5h3.4v-0.8c0-1.1-0.1-1.8-0.4-2.3
			c-0.3-0.5-0.7-0.7-1.3-0.7c-0.6,0-1.1,0.2-1.3,0.7C546.8,115.1,546.7,115.8,546.7,116.6z"/>
		<path class="st6" d="M556.9,108.5h-12.5V100h2.4v5.6h2.5v-5h2.3v5h3v-6h2.4L556.9,108.5L556.9,108.5z"/>
		<path class="st6" d="M556.9,89.2c-0.4,0.1-0.9,0.3-1.3,0.4c-0.5,0.2-0.9,0.3-1.4,0.5V95c0.5,0.2,0.9,0.3,1.4,0.5
			c0.5,0.2,0.9,0.3,1.3,0.4v2.9c-1.3-0.5-2.6-0.9-3.7-1.3c-1.1-0.4-2.2-0.8-3.2-1.2c-1-0.4-2-0.8-2.9-1.2c-0.9-0.4-1.8-0.8-2.7-1.2
			v-2.7c0.9-0.4,1.8-0.8,2.7-1.2c0.9-0.4,1.9-0.8,2.9-1.2c1-0.4,2.1-0.8,3.2-1.2s2.4-0.9,3.7-1.3V89.2z M547.3,92.6
			c0.2,0.1,0.4,0.1,0.7,0.3c0.3,0.1,0.7,0.3,1.1,0.4c0.4,0.2,0.9,0.3,1.4,0.5s1,0.4,1.5,0.6v-3.6c-0.5,0.2-1.1,0.4-1.5,0.6
			c-0.5,0.2-0.9,0.3-1.4,0.5c-0.4,0.2-0.8,0.3-1.1,0.4C547.7,92.4,547.5,92.5,547.3,92.6z"/>
		<path class="st6" d="M554.8,80.8c0-0.4,0-0.7-0.1-1c-0.1-0.3-0.2-0.5-0.3-0.6s-0.3-0.3-0.4-0.3c-0.2-0.1-0.3-0.1-0.5-0.1
			c-0.4,0-0.8,0.2-1,0.6c-0.3,0.4-0.6,1-0.9,2c-0.1,0.4-0.3,0.8-0.5,1.2c-0.2,0.4-0.4,0.8-0.7,1.1c-0.3,0.3-0.6,0.6-1,0.8
			c-0.4,0.2-0.9,0.3-1.5,0.3c-0.6,0-1.1-0.1-1.6-0.3c-0.5-0.2-0.8-0.5-1.2-0.9c-0.3-0.4-0.6-0.9-0.8-1.4c-0.2-0.6-0.3-1.2-0.3-1.9
			c0-0.8,0.1-1.6,0.3-2.2s0.4-1.1,0.6-1.5l2.2,0.8c-0.2,0.3-0.3,0.7-0.5,1.2c-0.1,0.4-0.2,0.9-0.2,1.5c0,0.7,0.1,1.2,0.3,1.4
			c0.2,0.3,0.5,0.4,0.9,0.4c0.2,0,0.4-0.1,0.6-0.2c0.2-0.1,0.3-0.3,0.4-0.5c0.1-0.2,0.2-0.4,0.3-0.7c0.1-0.3,0.2-0.5,0.3-0.8
			c0.2-0.7,0.5-1.2,0.7-1.7c0.2-0.5,0.5-0.9,0.8-1.2c0.3-0.3,0.7-0.6,1.1-0.7c0.4-0.2,0.9-0.2,1.5-0.2c1.2,0,2.1,0.4,2.7,1.2
			c0.6,0.8,1,2.1,1,3.7c0,0.6,0,1.1-0.1,1.5c-0.1,0.4-0.2,0.8-0.2,1.2c-0.1,0.3-0.2,0.6-0.3,0.9c-0.1,0.3-0.2,0.4-0.3,0.6l-2.2-0.8
			c0.2-0.4,0.4-0.8,0.6-1.4C554.7,82.3,554.8,81.6,554.8,80.8z"/>
		<path class="st6" d="M556.9,73.8h-12.5v-8.4h2.4V71h2.5v-5h2.3v5h3v-6h2.4L556.9,73.8L556.9,73.8z"/>
	</g>
</g>
<g>
	<g>
		<path class="st6" d="M852.7,145.4c1.1,0,2,0.2,2.8,0.5c0.8,0.3,1.5,0.8,2,1.4c0.5,0.6,0.9,1.4,1.2,2.3c0.3,0.9,0.4,1.9,0.4,3
			c0,0.5,0,1.1-0.1,1.8c0,0.7-0.1,1.3-0.3,2h-12.2c-0.1-0.6-0.2-1.3-0.2-2s-0.1-1.3-0.1-1.8c0-1.1,0.1-2,0.4-2.9
			c0.2-0.9,0.6-1.6,1.1-2.2c0.5-0.6,1.2-1.1,2-1.4C850.6,145.5,851.6,145.4,852.7,145.4z M856.7,153.5c0-0.1,0-0.3,0-0.5
			c0-0.2,0-0.4,0-0.6c0-1.4-0.3-2.4-1.1-3.1c-0.7-0.7-1.7-1-2.9-1c-1.3,0-2.3,0.3-3,1c-0.7,0.6-1,1.7-1,3.1c0,0.2,0,0.4,0,0.6
			s0,0.4,0,0.6H856.7z"/>
		<path class="st6" d="M858.9,143h-12.5v-8.4h2.4v5.6h2.5v-5h2.3v5h3v-6h2.4L858.9,143L858.9,143z"/>
		<path class="st6" d="M859.2,126.4c0,2-0.6,3.6-1.7,4.6s-2.7,1.6-4.8,1.6c-1,0-2-0.2-2.8-0.5c-0.8-0.3-1.5-0.8-2-1.3s-1-1.2-1.3-2
			s-0.4-1.6-0.4-2.5c0-0.5,0-1,0.1-1.4c0.1-0.4,0.2-0.8,0.3-1.1s0.2-0.6,0.3-0.8c0.1-0.2,0.2-0.4,0.3-0.5l2.3,0.8
			c-0.2,0.4-0.4,0.8-0.5,1.3c-0.1,0.5-0.2,1.1-0.2,1.7c0,0.4,0.1,0.9,0.2,1.3c0.1,0.4,0.4,0.8,0.7,1.1c0.3,0.3,0.7,0.6,1.2,0.8
			c0.5,0.2,1.1,0.3,1.8,0.3c0.6,0,1.1-0.1,1.6-0.2s0.9-0.3,1.3-0.6s0.7-0.6,0.9-1.1c0.2-0.5,0.3-1,0.3-1.7c0-0.4,0-0.8-0.1-1.1
			c0-0.3-0.1-0.6-0.2-0.9s-0.1-0.5-0.2-0.7c-0.1-0.2-0.2-0.4-0.2-0.5l2.3-0.8c0.2,0.4,0.5,0.9,0.7,1.7
			C859.1,124.7,859.2,125.5,859.2,126.4z"/>
		<path class="st6" d="M846.3,116.8c0-1.9,0.3-3.3,1-4.3c0.7-1,1.7-1.5,3.1-1.5c0.9,0,1.6,0.2,2.1,0.6c0.5,0.4,1,1,1.3,1.7
			c0.3-0.3,0.7-0.5,1.1-0.8c0.4-0.3,0.8-0.6,1.3-0.8c0.4-0.3,0.9-0.5,1.4-0.8s0.9-0.5,1.4-0.7v3.1c-0.4,0.2-0.8,0.5-1.2,0.7
			c-0.4,0.2-0.8,0.5-1.2,0.7c-0.4,0.3-0.8,0.5-1.1,0.7c-0.4,0.2-0.7,0.5-1,0.7v1.4h4.5v2.8h-12.3c-0.1-0.6-0.2-1.2-0.3-1.9
			C846.3,117.9,846.3,117.3,846.3,116.8z M848.7,116.6c0,0.2,0,0.4,0,0.6c0,0.2,0,0.3,0,0.5h3.4v-0.8c0-1.1-0.1-1.8-0.4-2.3
			c-0.3-0.5-0.7-0.7-1.3-0.7c-0.6,0-1,0.2-1.3,0.7C848.8,115.1,848.7,115.8,848.7,116.6z"/>
		<path class="st6" d="M858.9,108.5h-12.5V100h2.4v5.6h2.5v-5h2.3v5h3v-6h2.4L858.9,108.5L858.9,108.5z"/>
		<path class="st6" d="M858.9,89.2c-0.4,0.1-0.9,0.3-1.3,0.4c-0.5,0.2-0.9,0.3-1.4,0.5V95c0.5,0.2,0.9,0.3,1.4,0.5
			c0.5,0.2,0.9,0.3,1.3,0.4v2.9c-1.3-0.5-2.6-0.9-3.7-1.3c-1.1-0.4-2.2-0.8-3.2-1.2c-1-0.4-2-0.8-2.9-1.2c-0.9-0.4-1.8-0.8-2.7-1.2
			v-2.7c0.9-0.4,1.8-0.8,2.7-1.2c0.9-0.4,1.9-0.8,2.9-1.2c1-0.4,2.1-0.8,3.2-1.2s2.4-0.9,3.7-1.3V89.2z M849.3,92.6
			c0.2,0.1,0.4,0.1,0.7,0.3c0.3,0.1,0.7,0.3,1.1,0.4c0.4,0.2,0.9,0.3,1.3,0.5s1,0.4,1.5,0.6v-3.6c-0.5,0.2-1.1,0.4-1.5,0.6
			c-0.5,0.2-0.9,0.3-1.3,0.5c-0.4,0.2-0.8,0.3-1.1,0.4C849.7,92.4,849.5,92.5,849.3,92.6z"/>
		<path class="st6" d="M856.8,80.8c0-0.4,0-0.7-0.1-1c-0.1-0.3-0.2-0.5-0.3-0.6s-0.3-0.3-0.4-0.3c-0.2-0.1-0.3-0.1-0.5-0.1
			c-0.4,0-0.8,0.2-1,0.6c-0.3,0.4-0.6,1-0.9,2c-0.1,0.4-0.3,0.8-0.5,1.2c-0.2,0.4-0.4,0.8-0.7,1.1c-0.3,0.3-0.6,0.6-1,0.8
			c-0.4,0.2-0.9,0.3-1.5,0.3c-0.6,0-1.1-0.1-1.6-0.3c-0.5-0.2-0.9-0.5-1.2-0.9c-0.3-0.4-0.6-0.9-0.8-1.4c-0.2-0.6-0.3-1.2-0.3-1.9
			c0-0.8,0.1-1.6,0.3-2.2s0.4-1.1,0.6-1.5l2.2,0.8c-0.2,0.3-0.3,0.7-0.5,1.2c-0.1,0.4-0.2,0.9-0.2,1.5c0,0.7,0.1,1.2,0.3,1.4
			c0.2,0.3,0.5,0.4,0.8,0.4c0.2,0,0.4-0.1,0.6-0.2s0.3-0.3,0.4-0.5c0.1-0.2,0.2-0.4,0.3-0.7c0.1-0.3,0.2-0.5,0.3-0.8
			c0.2-0.7,0.5-1.2,0.7-1.7c0.2-0.5,0.5-0.9,0.8-1.2c0.3-0.3,0.7-0.6,1.1-0.7c0.4-0.2,0.9-0.2,1.5-0.2c1.2,0,2.1,0.4,2.7,1.2
			c0.6,0.8,1,2.1,1,3.7c0,0.6,0,1.1-0.1,1.5c-0.1,0.4-0.2,0.8-0.2,1.2c-0.1,0.3-0.2,0.6-0.3,0.9c-0.1,0.3-0.2,0.4-0.3,0.6l-2.2-0.8
			c0.2-0.4,0.4-0.8,0.5-1.4C856.7,82.3,856.8,81.6,856.8,80.8z"/>
		<path class="st6" d="M858.9,73.8h-12.5v-8.4h2.4V71h2.5v-5h2.3v5h3v-6h2.4L858.9,73.8L858.9,73.8z"/>
	</g>
</g>
<g>
	<path class="st0" d="M911.7,60.4c-1.8,0-3.2-0.5-4.1-1.5s-1.4-2.4-1.4-4.3c0-0.9,0.1-1.7,0.4-2.5c0.3-0.7,0.7-1.3,1.2-1.8
		s1.1-0.9,1.8-1.1s1.5-0.4,2.3-0.4c0.5,0,0.9,0,1.3,0.1c0.4,0.1,0.7,0.2,1,0.2c0.3,0.1,0.5,0.2,0.7,0.3s0.3,0.2,0.4,0.2l-0.7,2
		c-0.3-0.2-0.7-0.3-1.2-0.5c-0.5-0.1-1-0.2-1.5-0.2c-0.4,0-0.8,0.1-1.1,0.2c-0.4,0.1-0.7,0.3-1,0.6c-0.3,0.3-0.5,0.7-0.7,1.1
		c-0.2,0.5-0.3,1-0.3,1.6c0,0.5,0.1,1,0.2,1.4s0.3,0.8,0.5,1.1s0.6,0.6,1,0.8c0.4,0.2,0.9,0.3,1.5,0.3c0.4,0,0.7,0,1-0.1
		c0.3,0,0.5-0.1,0.8-0.2c0.2-0.1,0.4-0.1,0.6-0.2c0.2-0.1,0.3-0.1,0.5-0.2l0.7,2c-0.4,0.2-0.9,0.4-1.5,0.6
		C913.3,60.3,912.5,60.4,911.7,60.4z"/>
	<path class="st0" d="M920.3,49c1.7,0,2.9,0.3,3.8,0.9c0.9,0.6,1.3,1.5,1.3,2.8c0,0.8-0.2,1.4-0.5,1.9s-0.9,0.9-1.5,1.1
		c0.2,0.3,0.5,0.6,0.7,1c0.3,0.4,0.5,0.7,0.7,1.1s0.5,0.8,0.7,1.2c0.2,0.4,0.4,0.8,0.6,1.2h-2.8c-0.2-0.4-0.4-0.7-0.6-1.1
		c-0.2-0.4-0.4-0.7-0.6-1.1c-0.2-0.3-0.4-0.7-0.7-1s-0.4-0.6-0.6-0.9h-1.2v4.1H917V49.2c0.5-0.1,1.1-0.2,1.7-0.2
		C919.3,49,919.8,49,920.3,49z M920.4,51.1c-0.2,0-0.3,0-0.5,0s-0.3,0-0.4,0v3h0.7c0.9,0,1.6-0.1,2-0.3c0.4-0.2,0.6-0.6,0.6-1.2
		c0-0.5-0.2-0.9-0.6-1.2C921.8,51.2,921.2,51.1,920.4,51.1z"/>
	<path class="st0" d="M927.7,60.2V49.1h7.5v2.1h-5v2.2h4.4v2h-4.4v2.7h5.4v2.1L927.7,60.2L927.7,60.2z"/>
	<path class="st0" d="M947.1,54.6c0,1-0.2,1.8-0.5,2.5s-0.7,1.3-1.3,1.8c-0.5,0.5-1.2,0.8-2,1.1c-0.8,0.2-1.7,0.3-2.7,0.3
		c-0.5,0-1,0-1.6-0.1c-0.6,0-1.2-0.1-1.8-0.2V49.2c0.6-0.1,1.2-0.2,1.8-0.2s1.2-0.1,1.6-0.1c1,0,1.8,0.1,2.6,0.3s1.4,0.5,2,1
		s1,1,1.3,1.8C947,52.8,947.1,53.6,947.1,54.6z M939.9,58.1c0.1,0,0.3,0,0.4,0c0.2,0,0.3,0,0.5,0c1.3,0,2.2-0.3,2.8-0.9
		c0.6-0.6,0.9-1.5,0.9-2.6c0-1.2-0.3-2-0.9-2.6c-0.6-0.6-1.5-0.9-2.7-0.9c-0.2,0-0.3,0-0.5,0c-0.2,0-0.3,0-0.5,0V58.1z"/>
	<path class="st0" d="M949.2,49.1h2.5v11.1h-2.5V49.1z"/>
	<path class="st0" d="M962.5,49.1v2.1h-3.3v9h-2.5v-9h-3.3v-2.1H962.5z"/>
</g>
<g>
	<path class="st0" d="M911.7,100c-1.8,0-3.2-0.5-4.1-1.5s-1.4-2.4-1.4-4.3c0-0.9,0.1-1.7,0.4-2.5c0.3-0.7,0.7-1.3,1.2-1.8
		c0.5-0.5,1.1-0.9,1.8-1.1s1.5-0.4,2.3-0.4c0.5,0,0.9,0,1.3,0.1c0.4,0.1,0.7,0.2,1,0.2c0.3,0.1,0.5,0.2,0.7,0.3
		c0.2,0.1,0.3,0.2,0.4,0.2l-0.7,2c-0.3-0.2-0.7-0.3-1.2-0.5c-0.5-0.1-1-0.2-1.5-0.2c-0.4,0-0.8,0.1-1.1,0.2c-0.4,0.1-0.7,0.3-1,0.6
		c-0.3,0.3-0.5,0.7-0.7,1.1c-0.2,0.4-0.3,1-0.3,1.6c0,0.5,0.1,1,0.2,1.4s0.3,0.8,0.5,1.1c0.3,0.3,0.6,0.6,1,0.8
		c0.4,0.2,0.9,0.3,1.5,0.3c0.4,0,0.7,0,1-0.1c0.3,0,0.5-0.1,0.8-0.1c0.2-0.1,0.4-0.1,0.6-0.2c0.2-0.1,0.3-0.1,0.5-0.2l0.7,2
		c-0.4,0.2-0.9,0.4-1.5,0.6C913.3,100,912.5,100,911.7,100z"/>
	<path class="st0" d="M920.3,88.6c1.7,0,2.9,0.3,3.8,0.9c0.9,0.6,1.3,1.5,1.3,2.8c0,0.8-0.2,1.4-0.5,1.9c-0.4,0.5-0.9,0.9-1.5,1.1
		c0.2,0.3,0.5,0.6,0.7,0.9c0.3,0.4,0.5,0.7,0.7,1.1s0.5,0.8,0.7,1.2c0.2,0.4,0.4,0.8,0.6,1.2h-2.8c-0.2-0.4-0.4-0.7-0.6-1.1
		c-0.2-0.4-0.4-0.7-0.6-1.1c-0.2-0.4-0.4-0.7-0.7-1s-0.4-0.6-0.6-0.9h-1.2v4.1H917V88.9c0.5-0.1,1.1-0.2,1.7-0.2
		C919.3,88.6,919.8,88.6,920.3,88.6z M920.4,90.7c-0.2,0-0.3,0-0.5,0s-0.3,0-0.4,0v3h0.7c0.9,0,1.6-0.1,2-0.3
		c0.4-0.2,0.6-0.6,0.6-1.2c0-0.5-0.2-0.9-0.6-1.2C921.8,90.8,921.2,90.7,920.4,90.7z"/>
	<path class="st0" d="M927.7,99.8V88.7h7.5v2.1h-5V93h4.4v2.1h-4.4v2.7h5.4v2.1L927.7,99.8L927.7,99.8z"/>
	<path class="st0" d="M947.1,94.3c0,1-0.2,1.8-0.5,2.5c-0.3,0.7-0.7,1.3-1.3,1.8c-0.5,0.5-1.2,0.8-2,1.1c-0.8,0.2-1.7,0.3-2.7,0.3
		c-0.5,0-1,0-1.6-0.1c-0.6,0-1.2-0.1-1.8-0.2V88.9c0.6-0.1,1.2-0.2,1.8-0.2c0.6,0,1.2-0.1,1.6-0.1c1,0,1.8,0.1,2.6,0.3
		c0.8,0.2,1.4,0.6,2,1c0.5,0.5,1,1.1,1.3,1.8C947,92.4,947.1,93.3,947.1,94.3z M939.9,97.8c0.1,0,0.3,0,0.4,0c0.2,0,0.3,0,0.5,0
		c1.3,0,2.2-0.3,2.8-0.9c0.6-0.6,0.9-1.5,0.9-2.6c0-1.2-0.3-2-0.9-2.6c-0.6-0.6-1.5-0.9-2.7-0.9c-0.2,0-0.3,0-0.5,0
		c-0.2,0-0.3,0-0.5,0V97.8z"/>
	<path class="st0" d="M949.2,88.7h2.5v11.1h-2.5V88.7z"/>
	<path class="st0" d="M962.5,88.7v2.1h-3.3v9h-2.5v-9h-3.3v-2.1H962.5z"/>
</g>
<g>
	<g>
		<path class="st1" d="M916.4,133.9c0,1-0.1,1.8-0.5,2.5c-0.3,0.7-0.7,1.3-1.3,1.8s-1.2,0.8-2,1.1c-0.8,0.2-1.7,0.4-2.7,0.4
			c-0.5,0-1,0-1.6-0.1c-0.6,0-1.2-0.1-1.8-0.2v-10.8c0.6-0.1,1.2-0.2,1.8-0.2c0.6,0,1.2-0.1,1.6-0.1c1,0,1.8,0.1,2.6,0.3
			c0.8,0.2,1.4,0.6,2,1c0.5,0.5,1,1.1,1.3,1.8C916.2,132,916.4,132.9,916.4,133.9z M909.2,137.4c0.1,0,0.3,0,0.4,0
			c0.2,0,0.3,0,0.5,0c1.3,0,2.2-0.3,2.8-0.9c0.6-0.6,0.9-1.5,0.9-2.6c0-1.2-0.3-2-0.9-2.6c-0.6-0.6-1.5-0.9-2.7-0.9
			c-0.2,0-0.3,0-0.5,0s-0.4,0-0.5,0V137.4z"/>
		<path class="st1" d="M918.4,139.5v-11.1h7.5v2.1h-5v2.2h4.4v2.1h-4.4v2.7h5.4v2.1L918.4,139.5L918.4,139.5z"/>
		<path class="st1" d="M931.8,139.6c-0.6,0-1.2,0-1.8-0.1c-0.6,0-1.2-0.1-1.9-0.3v-10.8c0.5-0.1,1.1-0.2,1.7-0.2s1.2-0.1,1.7-0.1
			c0.7,0,1.3,0.1,1.9,0.1c0.6,0.1,1.1,0.3,1.5,0.5c0.4,0.3,0.8,0.6,1,1s0.4,0.9,0.4,1.5c0,0.9-0.4,1.6-1.3,2.1
			c0.7,0.3,1.2,0.6,1.4,1.1c0.3,0.5,0.4,1,0.4,1.6c0,1.2-0.4,2-1.3,2.6C934.8,139.3,933.5,139.6,931.8,139.6z M930.6,132.7h1.2
			c0.8,0,1.3-0.1,1.7-0.3s0.5-0.5,0.5-0.9c0-0.4-0.2-0.8-0.5-0.9c-0.3-0.2-0.8-0.3-1.5-0.3c-0.2,0-0.4,0-0.7,0s-0.5,0-0.7,0
			L930.6,132.7L930.6,132.7z M930.6,134.6v2.9c0.2,0,0.4,0,0.6,0.1c0.2,0,0.5,0,0.7,0c0.8,0,1.3-0.1,1.8-0.3s0.7-0.6,0.7-1.2
			c0-0.5-0.2-0.9-0.6-1.1c-0.4-0.2-0.9-0.3-1.7-0.3H930.6z"/>
		<path class="st1" d="M938.9,128.4h2.5v11.1h-2.5V128.4z"/>
		<path class="st1" d="M952.2,128.4v2.1h-3.3v9h-2.5v-9H943v-2.1H952.2z"/>
	</g>
</g>
<g>
	<path class="st1" d="M916.4,173.5c0,1-0.1,1.8-0.5,2.5c-0.3,0.7-0.7,1.3-1.3,1.8s-1.2,0.8-2,1.1c-0.8,0.2-1.7,0.4-2.7,0.4
		c-0.5,0-1,0-1.6-0.1c-0.6,0-1.2-0.1-1.8-0.2v-10.8c0.6-0.1,1.2-0.2,1.8-0.2c0.6,0,1.2-0.1,1.6-0.1c1,0,1.8,0.1,2.6,0.3
		c0.8,0.2,1.4,0.6,2,1c0.5,0.5,1,1.1,1.3,1.8C916.2,171.7,916.4,172.5,916.4,173.5z M909.2,177.1c0.1,0,0.3,0,0.4,0
		c0.2,0,0.3,0,0.5,0c1.3,0,2.2-0.3,2.8-0.9c0.6-0.6,0.9-1.5,0.9-2.6c0-1.2-0.3-2-0.9-2.6c-0.6-0.6-1.5-0.9-2.7-0.9
		c-0.2,0-0.3,0-0.5,0s-0.4,0-0.5,0V177.1z"/>
	<path class="st1" d="M918.4,179.1V168h7.5v2.1h-5v2.2h4.4v2.1h-4.4v2.7h5.4v2.1L918.4,179.1L918.4,179.1z"/>
	<path class="st1" d="M931.8,179.2c-0.6,0-1.2,0-1.8-0.1c-0.6,0-1.2-0.1-1.9-0.3v-10.8c0.5-0.1,1.1-0.2,1.7-0.2s1.2-0.1,1.7-0.1
		c0.7,0,1.3,0.1,1.9,0.1c0.6,0.1,1.1,0.3,1.5,0.5c0.4,0.3,0.8,0.6,1,1s0.4,0.9,0.4,1.5c0,0.9-0.4,1.6-1.3,2.1
		c0.7,0.3,1.2,0.6,1.4,1.1c0.3,0.5,0.4,1,0.4,1.6c0,1.2-0.4,2-1.3,2.6C934.8,178.9,933.5,179.2,931.8,179.2z M930.6,172.4h1.2
		c0.8,0,1.3-0.1,1.7-0.3s0.5-0.5,0.5-0.9c0-0.4-0.2-0.8-0.5-0.9c-0.3-0.2-0.8-0.3-1.5-0.3c-0.2,0-0.4,0-0.7,0s-0.5,0-0.7,0
		L930.6,172.4L930.6,172.4z M930.6,174.3v2.9c0.2,0,0.4,0,0.6,0.1c0.2,0,0.5,0,0.7,0c0.8,0,1.3-0.1,1.8-0.3s0.7-0.6,0.7-1.2
		c0-0.5-0.2-0.9-0.6-1.1c-0.4-0.2-0.9-0.3-1.7-0.3H930.6z"/>
	<path class="st1" d="M938.9,168h2.5v11.1h-2.5V168z"/>
	<path class="st1" d="M952.2,168v2.1h-3.3v9h-2.5v-9H943V168H952.2z"/>
</g>
<g>
	<path class="st1" d="M916.4,213.2c0,1-0.1,1.8-0.5,2.5c-0.3,0.7-0.7,1.3-1.3,1.8s-1.2,0.8-2,1.1c-0.8,0.2-1.7,0.4-2.7,0.4
		c-0.5,0-1,0-1.6-0.1c-0.6,0-1.2-0.1-1.8-0.2v-10.8c0.6-0.1,1.2-0.2,1.8-0.2c0.6,0,1.2-0.1,1.6-0.1c1,0,1.8,0.1,2.6,0.3
		c0.8,0.2,1.4,0.6,2,1c0.5,0.5,1,1.1,1.3,1.8C916.2,211.3,916.4,212.2,916.4,213.2z M909.2,216.7c0.1,0,0.3,0,0.4,0
		c0.2,0,0.3,0,0.5,0c1.3,0,2.2-0.3,2.8-0.9c0.6-0.6,0.9-1.5,0.9-2.6c0-1.2-0.3-2-0.9-2.6c-0.6-0.6-1.5-0.9-2.7-0.9
		c-0.2,0-0.3,0-0.5,0s-0.4,0-0.5,0V216.7z"/>
	<path class="st1" d="M918.4,218.7v-11.1h7.5v2.1h-5v2.2h4.4v2.1h-4.4v2.7h5.4v2.1L918.4,218.7L918.4,218.7z"/>
	<path class="st1" d="M931.8,218.9c-0.6,0-1.2,0-1.8-0.1c-0.6,0-1.2-0.1-1.9-0.3v-10.8c0.5-0.1,1.1-0.2,1.7-0.2s1.2-0.1,1.7-0.1
		c0.7,0,1.3,0.1,1.9,0.1c0.6,0.1,1.1,0.3,1.5,0.5c0.4,0.3,0.8,0.6,1,1s0.4,0.9,0.4,1.5c0,0.9-0.4,1.6-1.3,2.1
		c0.7,0.3,1.2,0.6,1.4,1.1c0.3,0.5,0.4,1,0.4,1.6c0,1.2-0.4,2-1.3,2.6C934.8,218.6,933.5,218.9,931.8,218.9z M930.6,212h1.2
		c0.8,0,1.3-0.1,1.7-0.3s0.5-0.5,0.5-0.9c0-0.4-0.2-0.8-0.5-0.9c-0.3-0.2-0.8-0.3-1.5-0.3c-0.2,0-0.4,0-0.7,0s-0.5,0-0.7,0
		L930.6,212L930.6,212z M930.6,213.9v2.9c0.2,0,0.4,0,0.6,0.1c0.2,0,0.5,0,0.7,0c0.8,0,1.3-0.1,1.8-0.3s0.7-0.6,0.7-1.2
		c0-0.5-0.2-0.9-0.6-1.1c-0.4-0.2-0.9-0.3-1.7-0.3H930.6z"/>
	<path class="st1" d="M938.9,207.6h2.5v11.1h-2.5V207.6z"/>
	<path class="st1" d="M952.2,207.6v2.1h-3.3v9h-2.5v-9H943v-2.1H952.2z"/>
</g>
</svg>
