<?xml version="1.0" encoding="utf-8"?>
<!-- Generator: Adobe Illustrator 24.0.1, SVG Export Plug-In . SVG Version: 6.00 Build 0)  -->
<svg version="1.1" id="Layer_2_1_" xmlns="http://www.w3.org/2000/svg" xmlns:xlink="http://www.w3.org/1999/xlink" x="0px" y="0px"
	 width="1400px" height="450.1px" viewBox="0 0 1400 450.1" style="enable-background:new 0 0 1400 450.1;" xml:space="preserve">
<style type="text/css">
	.st0{opacity:0.1;fill:url(#SVGID_1_);}
	.st1{fill:#CCCCCC;}
	.st2{fill:#231F20;}
	.st3{fill:none;}
	.st4{fill:#231F20;stroke:#000000;stroke-width:0.1094;stroke-miterlimit:10;}
	.st5{fill:#E8E8E8;}
	.st6{fill:#606060;}
	.st7{fill:#FFFFFF;}
	.st8{fill:#33A46B;}
	.st9{fill:#F9ECE4;}
	.st10{fill:#FDFEFE;}
	.st11{fill:#00A6D3;}
	.st12{fill:#0189B4;}
	.st13{fill:#63CDF5;}
</style>
<radialGradient id="SVGID_1_" cx="678.535" cy="266.7361" r="48.9843" gradientTransform="matrix(6.2565 1.273213e-02 -4.918232e-04 0.2007 -3546.0911 374.0323)" gradientUnits="userSpaceOnUse">
	<stop  offset="0" style="stop-color:#2B2B2B"/>
	<stop  offset="0.2707" style="stop-color:#737373"/>
	<stop  offset="0.5232" style="stop-color:#AFAFAF"/>
	<stop  offset="0.7365" style="stop-color:#DBDBDB"/>
	<stop  offset="0.9022" style="stop-color:#F5F5F5"/>
	<stop  offset="1" style="stop-color:#FFFFFF"/>
</radialGradient>
<path class="st0" d="M1005.5,436.8c0,5.4-137.2,9.6-306.5,9.2c-169.3-0.3-306.5-5-306.4-10.5c0-5.4,137.2-9.6,306.5-9.2
	C868.3,426.7,1005.5,431.4,1005.5,436.8z"/>
<polygon class="st1" points="691.2,401.6 703.3,401.6 732,433.8 661.7,434 "/>
<path class="st1" d="M961,401.4H437.9c-0.1,0-0.2,0-0.3,0c-6.2,0.6-8-1.7-8.3-7.4v-12.9c0-2.5,2-4.5,4.5-4.5h529
	c2.5,0,4.5,2,4.5,4.5V394C967.2,399,966.7,401.3,961,401.4z"/>
<g>
	<path d="M657.6,393.8h-1.4v-7.4h-2.5v-1.2h6.4v1.2h-2.5V393.8z"/>
	<path d="M662.9,390.4v3.4h-1.4v-8.6h2.4c1.1,0,1.9,0.2,2.5,0.6s0.8,1,0.8,1.9c0,1.1-0.6,1.8-1.7,2.3l2.4,3.8h-1.6l-2.1-3.4H662.9z
		 M662.9,389.2h1c0.7,0,1.1-0.1,1.4-0.4s0.4-0.6,0.4-1.1c0-0.5-0.2-0.8-0.5-1s-0.8-0.3-1.4-0.3h-0.9V389.2z"/>
	<path d="M669.1,393.8v-8.6h1.4v8.6H669.1z"/>
	<path d="M678.1,393.8l-0.9-2.4H674l-0.8,2.4h-1.5l3.2-8.6h1.5l3.2,8.6H678.1z M676.9,390.2l-0.8-2.3c-0.1-0.2-0.1-0.4-0.2-0.7
		s-0.2-0.6-0.2-0.7c-0.1,0.5-0.3,1-0.5,1.6l-0.8,2.2H676.9z"/>
	<path d="M680.7,393.8v-8.6h1.4v7.4h3.6v1.2H680.7z"/>
	<path d="M690.4,385.2h2.5c1.2,0,2,0.2,2.6,0.5s0.8,0.9,0.8,1.6c0,0.5-0.1,0.9-0.4,1.2s-0.6,0.5-1.1,0.6v0.1c0.6,0.1,1,0.3,1.3,0.7
		s0.4,0.8,0.4,1.4c0,0.8-0.3,1.4-0.8,1.8s-1.3,0.7-2.2,0.7h-3.1V385.2z M691.8,388.8h1.3c0.6,0,1-0.1,1.3-0.3s0.4-0.5,0.4-0.9
		c0-0.4-0.1-0.7-0.4-0.9s-0.8-0.3-1.4-0.3h-1.2V388.8z M691.8,389.9v2.7h1.5c0.6,0,1-0.1,1.3-0.3s0.4-0.6,0.4-1.1
		c0-0.4-0.2-0.8-0.5-1s-0.8-0.3-1.4-0.3H691.8z"/>
	<path d="M703.6,393.8l-0.9-2.4h-3.3l-0.8,2.4h-1.5l3.2-8.6h1.5l3.2,8.6H703.6z M702.4,390.2l-0.8-2.3c-0.1-0.2-0.1-0.4-0.2-0.7
		s-0.2-0.6-0.2-0.7c-0.1,0.5-0.3,1-0.5,1.6l-0.8,2.2H702.4z"/>
	<path d="M706.2,393.8v-8.6h1.4v7.4h3.6v1.2H706.2z"/>
	<path d="M718,393.8l-0.9-2.4h-3.3l-0.8,2.4h-1.5l3.2-8.6h1.5l3.2,8.6H718z M716.8,390.2l-0.8-2.3c-0.1-0.2-0.1-0.4-0.2-0.7
		s-0.2-0.6-0.2-0.7c-0.1,0.5-0.3,1-0.5,1.6l-0.8,2.2H716.8z"/>
	<path d="M727.8,393.8h-1.7l-4.2-6.8h0l0,0.4c0.1,0.7,0.1,1.4,0.1,2v4.5h-1.3v-8.6h1.7l4.2,6.8h0c0-0.1,0-0.4,0-1s0-1,0-1.3v-4.5
		h1.3V393.8z"/>
	<path d="M733.7,386.3c-0.8,0-1.4,0.3-1.9,0.9s-0.7,1.4-0.7,2.4c0,1.1,0.2,1.8,0.7,2.4s1.1,0.8,1.9,0.8c0.4,0,0.7,0,1.1-0.1
		s0.7-0.2,1.1-0.3v1.2c-0.7,0.3-1.4,0.4-2.3,0.4c-1.3,0-2.2-0.4-2.9-1.1s-1-1.8-1-3.3c0-0.9,0.2-1.7,0.5-2.3s0.8-1.2,1.4-1.5
		s1.3-0.5,2.2-0.5c0.9,0,1.7,0.2,2.4,0.6l-0.5,1.2c-0.3-0.1-0.6-0.3-0.9-0.4S734,386.3,733.7,386.3z"/>
	<path d="M742.5,393.8h-4.8v-8.6h4.8v1.2h-3.4v2.3h3.2v1.2h-3.2v2.7h3.4V393.8z"/>
</g>
<g>
	<path class="st2" d="M546.8,263c0,2.1-0.6,3.7-1.8,4.9c-1.2,1.1-2.9,1.7-5.1,1.7h-3.6v-12.8h4c2,0,3.6,0.6,4.8,1.7
		S546.8,261,546.8,263z M544.6,263.1c0-3.1-1.4-4.6-4.3-4.6h-1.8v9.3h1.5C543.1,267.8,544.6,266.2,544.6,263.1z"/>
	<path class="st2" d="M553.6,269.7c-1.5,0-2.7-0.4-3.5-1.3s-1.3-2.1-1.3-3.6c0-1.6,0.4-2.8,1.2-3.7s1.9-1.4,3.3-1.4
		c1.3,0,2.3,0.4,3,1.2s1.1,1.9,1.1,3.2v1.1h-6.5c0,0.9,0.3,1.7,0.8,2.2s1.2,0.8,2,0.8c0.6,0,1.1-0.1,1.6-0.2s1-0.3,1.6-0.5v1.7
		c-0.5,0.2-1,0.4-1.5,0.5S554.3,269.7,553.6,269.7z M553.2,261.2c-0.7,0-1.2,0.2-1.6,0.6s-0.6,1-0.7,1.8h4.4c0-0.8-0.2-1.4-0.6-1.8
		C554.4,261.4,553.9,261.2,553.2,261.2z"/>
	<path class="st2" d="M564.7,259.7c1.2,0,2.2,0.4,2.8,1.3s1,2.1,1,3.7c0,1.6-0.3,2.8-1,3.7c-0.7,0.9-1.6,1.3-2.9,1.3
		c-1.2,0-2.2-0.4-2.9-1.3h-0.1l-0.4,1.2h-1.5v-13.7h2.1v3.3c0,0.2,0,0.6,0,1.1s0,0.8-0.1,0.9h0.1
		C562.5,260.1,563.4,259.7,564.7,259.7z M564.2,261.3c-0.8,0-1.4,0.2-1.8,0.7s-0.6,1.3-0.6,2.5v0.1c0,1.2,0.2,2,0.6,2.6
		s1,0.8,1.8,0.8c0.7,0,1.3-0.3,1.7-0.9s0.6-1.4,0.6-2.5C566.4,262.4,565.7,261.3,564.2,261.3z"/>
	<path class="st2" d="M570.8,257.3c0-0.4,0.1-0.7,0.3-0.9s0.5-0.3,0.9-0.3c0.4,0,0.6,0.1,0.8,0.3s0.3,0.5,0.3,0.9
		c0,0.4-0.1,0.6-0.3,0.8c-0.2,0.2-0.5,0.3-0.8,0.3c-0.4,0-0.7-0.1-0.9-0.3C570.9,257.9,570.8,257.6,570.8,257.3z M573,269.6H571
		v-9.7h2.1V269.6z"/>
	<path class="st2" d="M579.6,268.1c0.5,0,1-0.1,1.5-0.2v1.6c-0.2,0.1-0.5,0.2-0.9,0.3s-0.7,0.1-1.1,0.1c-2,0-2.9-1-2.9-3.1v-5.2
		h-1.3v-0.9l1.4-0.8l0.7-2.1h1.3v2.2h2.8v1.6h-2.8v5.2c0,0.5,0.1,0.9,0.4,1.1C578.9,267.9,579.2,268.1,579.6,268.1z"/>
	<path class="st2" d="M589.6,266.8c0,0.9-0.3,1.7-1,2.2c-0.7,0.5-1.7,0.8-3,0.8c-1.3,0-2.3-0.2-3.1-0.6v-1.8
		c1.1,0.5,2.2,0.8,3.2,0.8c1.3,0,1.9-0.4,1.9-1.2c0-0.2-0.1-0.5-0.2-0.6s-0.4-0.3-0.7-0.5s-0.8-0.4-1.3-0.6
		c-1.1-0.4-1.9-0.9-2.3-1.3s-0.6-1-0.6-1.7c0-0.8,0.3-1.5,1-1.9c0.7-0.5,1.6-0.7,2.7-0.7c1.1,0,2.2,0.2,3.2,0.7l-0.7,1.6
		c-1-0.4-1.9-0.7-2.6-0.7c-1.1,0-1.6,0.3-1.6,0.9c0,0.3,0.1,0.6,0.4,0.8s0.9,0.5,1.9,0.9c0.8,0.3,1.4,0.6,1.7,0.9
		c0.4,0.3,0.6,0.6,0.8,0.9S589.6,266.3,589.6,266.8z"/>
</g>
<g>
	<path class="st2" d="M814.9,258.3c-1.2,0-2.2,0.4-2.8,1.3s-1,2-1,3.5c0,1.6,0.3,2.8,1,3.6s1.6,1.2,2.9,1.2c0.5,0,1.1-0.1,1.6-0.2
		s1-0.2,1.6-0.4v1.8c-1,0.4-2.2,0.6-3.4,0.6c-1.9,0-3.3-0.6-4.3-1.7s-1.5-2.8-1.5-4.9c0-1.3,0.2-2.5,0.7-3.5s1.2-1.8,2.1-2.3
		s2-0.8,3.3-0.8c1.3,0,2.5,0.3,3.6,0.8l-0.8,1.7c-0.4-0.2-0.9-0.4-1.4-0.5C815.9,258.4,815.4,258.3,814.9,258.3z"/>
	<path class="st2" d="M825.5,259.7c0.4,0,0.8,0,1,0.1l-0.2,1.9c-0.3-0.1-0.6-0.1-0.9-0.1c-0.8,0-1.5,0.3-2,0.8s-0.8,1.2-0.8,2.1v5.1
		h-2.1v-9.7h1.6l0.3,1.7h0.1c0.3-0.6,0.7-1,1.3-1.4S824.9,259.7,825.5,259.7z"/>
	<path class="st2" d="M832.6,269.7c-1.5,0-2.7-0.4-3.5-1.3s-1.3-2.1-1.3-3.6c0-1.6,0.4-2.8,1.2-3.7s1.9-1.4,3.3-1.4
		c1.3,0,2.3,0.4,3,1.2s1.1,1.9,1.1,3.2v1.1h-6.5c0,0.9,0.3,1.7,0.8,2.2s1.2,0.8,2,0.8c0.6,0,1.1-0.1,1.6-0.2s1-0.3,1.6-0.5v1.7
		c-0.5,0.2-1,0.4-1.5,0.5S833.3,269.7,832.6,269.7z M832.2,261.2c-0.7,0-1.2,0.2-1.6,0.6s-0.6,1-0.7,1.8h4.4c0-0.8-0.2-1.4-0.6-1.8
		C833.4,261.4,832.9,261.2,832.2,261.2z"/>
	<path class="st2" d="M842,269.7c-1.2,0-2.2-0.4-2.8-1.3s-1-2.1-1-3.7c0-1.6,0.3-2.8,1-3.7c0.7-0.9,1.6-1.3,2.9-1.3
		c1.3,0,2.3,0.5,2.9,1.4h0.1c-0.1-0.7-0.1-1.2-0.1-1.7v-3.5h2.1v13.7h-1.6l-0.4-1.3h-0.1C844.2,269.2,843.3,269.7,842,269.7z
		 M842.6,268.1c0.8,0,1.5-0.2,1.9-0.7c0.4-0.5,0.6-1.3,0.6-2.3v-0.3c0-1.2-0.2-2.1-0.6-2.6s-1-0.8-1.9-0.8c-0.7,0-1.3,0.3-1.7,0.9
		c-0.4,0.6-0.6,1.4-0.6,2.5c0,1.1,0.2,1.9,0.6,2.5S841.8,268.1,842.6,268.1z"/>
	<path class="st2" d="M849.8,257.3c0-0.4,0.1-0.7,0.3-0.9s0.5-0.3,0.9-0.3c0.4,0,0.6,0.1,0.8,0.3s0.3,0.5,0.3,0.9
		c0,0.4-0.1,0.6-0.3,0.8c-0.2,0.2-0.5,0.3-0.8,0.3c-0.4,0-0.7-0.1-0.9-0.3C849.9,257.9,849.8,257.6,849.8,257.3z M852,269.6h-2.1
		v-9.7h2.1V269.6z"/>
	<path class="st2" d="M858.6,268.1c0.5,0,1-0.1,1.5-0.2v1.6c-0.2,0.1-0.5,0.2-0.9,0.3s-0.7,0.1-1.1,0.1c-2,0-2.9-1-2.9-3.1v-5.2
		h-1.3v-0.9l1.4-0.8l0.7-2.1h1.3v2.2h2.8v1.6h-2.8v5.2c0,0.5,0.1,0.9,0.4,1.1C857.8,267.9,858.2,268.1,858.6,268.1z"/>
	<path class="st2" d="M868.6,266.8c0,0.9-0.3,1.7-1,2.2s-1.7,0.8-3,0.8c-1.3,0-2.3-0.2-3.1-0.6v-1.8c1.1,0.5,2.2,0.8,3.2,0.8
		c1.3,0,1.9-0.4,1.9-1.2c0-0.2-0.1-0.5-0.2-0.6s-0.4-0.3-0.7-0.5s-0.8-0.4-1.3-0.6c-1.1-0.4-1.9-0.9-2.3-1.3s-0.6-1-0.6-1.7
		c0-0.8,0.3-1.5,1-1.9c0.7-0.5,1.6-0.7,2.7-0.7c1.1,0,2.2,0.2,3.2,0.7l-0.7,1.6c-1-0.4-1.9-0.7-2.6-0.7c-1.1,0-1.6,0.3-1.6,0.9
		c0,0.3,0.1,0.6,0.4,0.8s0.9,0.5,1.9,0.9c0.8,0.3,1.4,0.6,1.8,0.9s0.6,0.6,0.8,0.9S868.6,266.3,868.6,266.8z"/>
</g>
<rect x="526.4" y="37.6" class="st3" width="26.3" height="63.7"/>
<g>
	<polygon class="st4" points="558.8,105.7 558.8,240.1 555.4,240.1 559.9,248 564.5,240.1 561,240.1 561,105.7 	"/>
</g>
<g>
	<polygon class="st4" points="835.8,105.7 835.7,240.1 832.4,240.1 836.9,248 841.5,240.1 838,240.1 838,105.7 	"/>
</g>
<path class="st5" d="M433.5,376.1l81.4-23.7c0.1,0,0.1,0,0.2,0h372.9c0.1,0,0.2,0,0.3,0l75.4,23.4c0.7,0.3,0.5,1.4-0.3,1.4
	l-529.7,0.4C432.9,377.5,432.7,376.4,433.5,376.1z"/>
<path class="st6" d="M890.7,82.3H503.3c-4.4,0-8-3.6-8-8V12.6c0-4.4,3.6-8,8-8h387.5c4.4,0,8,3.6,8,8v61.6
	C898.7,78.7,895.1,82.3,890.7,82.3z"/>
<g>
	<path class="st7" d="M577.7,52.7l-1.2-3.2h-4l-1.2,3.2h-1.2l4-10h1l3.9,10H577.7z M576.1,48.4l-1.2-3.1c-0.2-0.4-0.3-0.9-0.5-1.4
		c-0.1,0.4-0.2,0.9-0.4,1.4l-1.2,3.1H576.1z"/>
	<path class="st7" d="M585,50.6c0,0.7-0.3,1.2-0.8,1.6s-1.2,0.6-2.2,0.6c-1,0-1.8-0.2-2.3-0.5v-1.1c0.4,0.2,0.7,0.3,1.2,0.4
		s0.8,0.2,1.2,0.2c0.6,0,1-0.1,1.4-0.3s0.5-0.5,0.5-0.9c0-0.3-0.1-0.5-0.4-0.7s-0.7-0.5-1.5-0.7c-0.7-0.3-1.2-0.5-1.5-0.7
		s-0.5-0.4-0.7-0.7s-0.2-0.5-0.2-0.9c0-0.6,0.2-1.1,0.7-1.4s1.2-0.5,2-0.5c0.8,0,1.6,0.2,2.4,0.5l-0.4,0.9c-0.8-0.3-1.4-0.5-2-0.5
		c-0.5,0-0.9,0.1-1.2,0.3s-0.4,0.4-0.4,0.7c0,0.2,0.1,0.4,0.2,0.5s0.3,0.3,0.5,0.4s0.7,0.3,1.3,0.6c0.9,0.3,1.5,0.6,1.8,1
		S585,50.1,585,50.6z"/>
	<path class="st7" d="M591.6,50.6c0,0.7-0.3,1.2-0.8,1.6s-1.2,0.6-2.2,0.6c-1,0-1.8-0.2-2.3-0.5v-1.1c0.4,0.2,0.7,0.3,1.2,0.4
		s0.8,0.2,1.2,0.2c0.6,0,1-0.1,1.4-0.3s0.5-0.5,0.5-0.9c0-0.3-0.1-0.5-0.4-0.7s-0.7-0.5-1.5-0.7c-0.7-0.3-1.2-0.5-1.5-0.7
		s-0.5-0.4-0.7-0.7s-0.2-0.5-0.2-0.9c0-0.6,0.2-1.1,0.7-1.4s1.2-0.5,2-0.5c0.8,0,1.6,0.2,2.4,0.5l-0.4,0.9c-0.8-0.3-1.4-0.5-2-0.5
		c-0.5,0-0.9,0.1-1.2,0.3s-0.4,0.4-0.4,0.7c0,0.2,0.1,0.4,0.2,0.5s0.3,0.3,0.5,0.4s0.7,0.3,1.3,0.6c0.9,0.3,1.5,0.6,1.8,1
		S591.6,50.1,591.6,50.6z"/>
	<path class="st7" d="M596.7,52.8c-1.1,0-2-0.3-2.6-1s-1-1.6-1-2.8c0-1.2,0.3-2.2,0.9-2.9s1.4-1.1,2.4-1.1c0.9,0,1.7,0.3,2.2,0.9
		s0.8,1.4,0.8,2.4v0.7h-5.2c0,0.9,0.2,1.5,0.7,2s1,0.7,1.8,0.7c0.8,0,1.6-0.2,2.4-0.5v1c-0.4,0.2-0.8,0.3-1.1,0.4
		S597.2,52.8,596.7,52.8z M596.3,46c-0.6,0-1.1,0.2-1.4,0.6s-0.6,0.9-0.6,1.6h3.9c0-0.7-0.2-1.3-0.5-1.6S596.9,46,596.3,46z"/>
	<path class="st7" d="M603.8,51.9c0.2,0,0.4,0,0.6,0s0.3-0.1,0.4-0.1v0.9c-0.1,0.1-0.3,0.1-0.5,0.1s-0.5,0.1-0.6,0.1
		c-1.4,0-2.2-0.8-2.2-2.3v-4.5h-1.1v-0.5l1.1-0.5l0.5-1.6h0.7v1.7h2.2v0.9h-2.2v4.4c0,0.5,0.1,0.8,0.3,1S603.4,51.9,603.8,51.9z"/>
	<path class="st7" d="M611.1,50.6c0,0.7-0.3,1.2-0.8,1.6s-1.2,0.6-2.2,0.6c-1,0-1.8-0.2-2.3-0.5v-1.1c0.4,0.2,0.7,0.3,1.2,0.4
		s0.8,0.2,1.2,0.2c0.6,0,1-0.1,1.4-0.3s0.5-0.5,0.5-0.9c0-0.3-0.1-0.5-0.4-0.7s-0.7-0.5-1.5-0.7c-0.7-0.3-1.2-0.5-1.5-0.7
		s-0.5-0.4-0.7-0.7s-0.2-0.5-0.2-0.9c0-0.6,0.2-1.1,0.7-1.4s1.2-0.5,2-0.5c0.8,0,1.6,0.2,2.4,0.5l-0.4,0.9c-0.8-0.3-1.4-0.5-2-0.5
		c-0.5,0-0.9,0.1-1.2,0.3s-0.4,0.4-0.4,0.7c0,0.2,0.1,0.4,0.2,0.5s0.3,0.3,0.5,0.4s0.7,0.3,1.3,0.6c0.9,0.3,1.5,0.6,1.8,1
		S611.1,50.1,611.1,50.6z"/>
	<path class="st7" d="M614.2,51l0.1,0.2c-0.1,0.5-0.3,1-0.5,1.6s-0.5,1.2-0.7,1.7h-0.9c0.1-0.5,0.3-1.1,0.4-1.8s0.3-1.3,0.3-1.7
		H614.2z"/>
	<path class="st7" d="M620.2,52.7v-10h1.2v8.9h4.4v1.1H620.2z"/>
	<path class="st7" d="M627.2,43.1c0-0.3,0.1-0.5,0.2-0.6s0.3-0.2,0.5-0.2c0.2,0,0.3,0.1,0.5,0.2s0.2,0.3,0.2,0.6s-0.1,0.4-0.2,0.6
		s-0.3,0.2-0.5,0.2c-0.2,0-0.4-0.1-0.5-0.2S627.2,43.4,627.2,43.1z M628.4,52.7h-1.1v-7.5h1.1V52.7z"/>
	<path class="st7" d="M635.4,52.7l-0.2-1.1h-0.1c-0.4,0.5-0.7,0.8-1.1,1s-0.8,0.2-1.4,0.2c-0.7,0-1.3-0.2-1.7-0.6s-0.6-0.9-0.6-1.6
		c0-1.5,1.2-2.3,3.6-2.4l1.3,0v-0.5c0-0.6-0.1-1-0.4-1.3s-0.7-0.4-1.2-0.4c-0.6,0-1.3,0.2-2.1,0.6l-0.3-0.9c0.4-0.2,0.8-0.4,1.2-0.5
		s0.9-0.2,1.3-0.2c0.9,0,1.6,0.2,2,0.6s0.6,1,0.6,1.9v5.1H635.4z M632.9,51.9c0.7,0,1.3-0.2,1.7-0.6s0.6-0.9,0.6-1.6V49l-1.1,0
		c-0.9,0-1.6,0.2-2,0.4s-0.6,0.6-0.6,1.2c0,0.4,0.1,0.7,0.4,0.9S632.4,51.9,632.9,51.9z"/>
	<path class="st7" d="M642.1,45.1c1,0,1.7,0.3,2.3,1s0.8,1.6,0.8,2.9s-0.3,2.2-0.8,2.9s-1.3,1-2.3,1c-0.5,0-0.9-0.1-1.3-0.3
		s-0.7-0.5-1-0.8h-0.1l-0.2,1h-0.8V42h1.1v2.6c0,0.6,0,1.1-0.1,1.6h0.1C640.3,45.4,641.1,45.1,642.1,45.1z M641.9,46
		c-0.8,0-1.3,0.2-1.7,0.7s-0.5,1.2-0.5,2.2s0.2,1.8,0.5,2.3s0.9,0.7,1.7,0.7c0.7,0,1.2-0.3,1.6-0.8s0.5-1.2,0.5-2.2
		c0-1-0.2-1.7-0.5-2.2S642.7,46,641.9,46z"/>
	<path class="st7" d="M647.1,43.1c0-0.3,0.1-0.5,0.2-0.6s0.3-0.2,0.5-0.2c0.2,0,0.3,0.1,0.5,0.2s0.2,0.3,0.2,0.6s-0.1,0.4-0.2,0.6
		s-0.3,0.2-0.5,0.2c-0.2,0-0.4-0.1-0.5-0.2S647.1,43.4,647.1,43.1z M648.3,52.7h-1.1v-7.5h1.1V52.7z"/>
	<path class="st7" d="M651.9,52.7h-1.1V42h1.1V52.7z"/>
	<path class="st7" d="M654.2,43.1c0-0.3,0.1-0.5,0.2-0.6s0.3-0.2,0.5-0.2c0.2,0,0.3,0.1,0.5,0.2s0.2,0.3,0.2,0.6s-0.1,0.4-0.2,0.6
		s-0.3,0.2-0.5,0.2c-0.2,0-0.4-0.1-0.5-0.2S654.2,43.4,654.2,43.1z M655.4,52.7h-1.1v-7.5h1.1V52.7z"/>
	<path class="st7" d="M660.2,51.9c0.2,0,0.4,0,0.6,0s0.3-0.1,0.4-0.1v0.9c-0.1,0.1-0.3,0.1-0.5,0.1s-0.5,0.1-0.6,0.1
		c-1.4,0-2.2-0.8-2.2-2.3v-4.5h-1.1v-0.5l1.1-0.5l0.5-1.6h0.7v1.7h2.2v0.9H659v4.4c0,0.5,0.1,0.8,0.3,1S659.9,51.9,660.2,51.9z"/>
	<path class="st7" d="M662.7,43.1c0-0.3,0.1-0.5,0.2-0.6s0.3-0.2,0.5-0.2c0.2,0,0.3,0.1,0.5,0.2s0.2,0.3,0.2,0.6s-0.1,0.4-0.2,0.6
		s-0.3,0.2-0.5,0.2c-0.2,0-0.4-0.1-0.5-0.2S662.7,43.4,662.7,43.1z M663.9,52.7h-1.1v-7.5h1.1V52.7z"/>
	<path class="st7" d="M669.5,52.8c-1.1,0-2-0.3-2.6-1s-1-1.6-1-2.8c0-1.2,0.3-2.2,0.9-2.9s1.4-1.1,2.4-1.1c0.9,0,1.7,0.3,2.2,0.9
		s0.8,1.4,0.8,2.4v0.7h-5.2c0,0.9,0.2,1.5,0.7,2s1,0.7,1.8,0.7c0.8,0,1.6-0.2,2.4-0.5v1c-0.4,0.2-0.8,0.3-1.1,0.4
		S670,52.8,669.5,52.8z M669.2,46c-0.6,0-1.1,0.2-1.4,0.6s-0.6,0.9-0.6,1.6h3.9c0-0.7-0.2-1.3-0.5-1.6S669.8,46,669.2,46z"/>
	<path class="st7" d="M679,50.6c0,0.7-0.3,1.2-0.8,1.6s-1.2,0.6-2.2,0.6c-1,0-1.8-0.2-2.3-0.5v-1.1c0.4,0.2,0.7,0.3,1.2,0.4
		s0.8,0.2,1.2,0.2c0.6,0,1-0.1,1.4-0.3s0.5-0.5,0.5-0.9c0-0.3-0.1-0.5-0.4-0.7s-0.7-0.5-1.5-0.7c-0.7-0.3-1.2-0.5-1.5-0.7
		s-0.5-0.4-0.7-0.7s-0.2-0.5-0.2-0.9c0-0.6,0.2-1.1,0.7-1.4s1.2-0.5,2-0.5c0.8,0,1.6,0.2,2.4,0.5l-0.4,0.9c-0.8-0.3-1.4-0.5-2-0.5
		c-0.5,0-0.9,0.1-1.2,0.3s-0.4,0.4-0.4,0.7c0,0.2,0.1,0.4,0.2,0.5s0.3,0.3,0.5,0.4s0.7,0.3,1.3,0.6c0.9,0.3,1.5,0.6,1.8,1
		S679,50.1,679,50.6z"/>
	<path class="st7" d="M682,51l0.1,0.2c-0.1,0.5-0.3,1-0.5,1.6s-0.5,1.2-0.7,1.7h-0.9c0.1-0.5,0.3-1.1,0.4-1.8s0.3-1.3,0.3-1.7H682z"
		/>
	<path class="st7" d="M693.7,50c0,0.9-0.3,1.6-1,2.1s-1.5,0.7-2.6,0.7c-1.2,0-2.1-0.2-2.7-0.5v-1.1c0.4,0.2,0.9,0.3,1.3,0.4
		s1,0.2,1.4,0.2c0.8,0,1.4-0.1,1.8-0.4s0.6-0.7,0.6-1.2c0-0.3-0.1-0.6-0.2-0.9s-0.4-0.4-0.7-0.6s-0.8-0.4-1.5-0.6
		c-0.9-0.3-1.6-0.7-2-1.2s-0.6-1.1-0.6-1.8c0-0.8,0.3-1.4,0.9-1.8s1.3-0.7,2.3-0.7c1,0,1.9,0.2,2.7,0.5l-0.4,1
		c-0.8-0.3-1.6-0.5-2.4-0.5c-0.6,0-1.1,0.1-1.4,0.4s-0.5,0.6-0.5,1.1c0,0.3,0.1,0.6,0.2,0.9s0.3,0.4,0.6,0.6s0.8,0.4,1.4,0.6
		c1,0.4,1.8,0.8,2.2,1.2S693.7,49.3,693.7,50z"/>
	<path class="st7" d="M700.7,52.7v-4.8c0-0.6-0.1-1.1-0.4-1.4c-0.3-0.3-0.7-0.5-1.3-0.5c-0.8,0-1.4,0.2-1.7,0.6s-0.5,1.1-0.5,2.1
		v3.9h-1.1V42h1.1v3.2c0,0.4,0,0.7-0.1,1h0.1c0.2-0.4,0.5-0.6,1-0.9s0.9-0.3,1.4-0.3c0.9,0,1.6,0.2,2.1,0.7s0.7,1.1,0.7,2.1v4.9
		H700.7z"/>
	<path class="st7" d="M708.8,52.7l-0.2-1.1h-0.1c-0.4,0.5-0.7,0.8-1.1,1c-0.4,0.2-0.8,0.2-1.4,0.2c-0.7,0-1.3-0.2-1.7-0.6
		c-0.4-0.4-0.6-0.9-0.6-1.6c0-1.5,1.2-2.3,3.6-2.4l1.3,0v-0.5c0-0.6-0.1-1-0.4-1.3s-0.7-0.4-1.2-0.4c-0.6,0-1.3,0.2-2.1,0.6
		l-0.3-0.9c0.4-0.2,0.8-0.4,1.2-0.5c0.4-0.1,0.9-0.2,1.3-0.2c0.9,0,1.6,0.2,2,0.6s0.6,1,0.6,1.9v5.1H708.8z M706.2,51.9
		c0.7,0,1.3-0.2,1.7-0.6s0.6-0.9,0.6-1.6V49l-1.1,0c-0.9,0-1.6,0.2-2,0.4c-0.4,0.2-0.6,0.6-0.6,1.2c0,0.4,0.1,0.7,0.4,0.9
		C705.4,51.8,705.8,51.9,706.2,51.9z"/>
	<path class="st7" d="M715.4,45c0.3,0,0.6,0,0.9,0.1l-0.2,1.1c-0.3-0.1-0.6-0.1-0.8-0.1c-0.6,0-1.1,0.2-1.6,0.7s-0.6,1.1-0.6,1.8v4
		H712v-7.5h0.9l0.1,1.4h0.1c0.3-0.5,0.6-0.9,1-1.1C714.5,45.2,714.9,45,715.4,45z"/>
	<path class="st7" d="M720.9,52.8c-1.1,0-2-0.3-2.6-1c-0.6-0.7-1-1.6-1-2.8c0-1.2,0.3-2.2,0.9-2.9s1.4-1.1,2.4-1.1
		c0.9,0,1.7,0.3,2.2,0.9s0.8,1.4,0.8,2.4v0.7h-5.2c0,0.9,0.2,1.5,0.7,2c0.4,0.5,1,0.7,1.8,0.7c0.8,0,1.6-0.2,2.4-0.5v1
		c-0.4,0.2-0.8,0.3-1.1,0.4C721.8,52.8,721.4,52.8,720.9,52.8z M720.5,46c-0.6,0-1.1,0.2-1.4,0.6c-0.4,0.4-0.6,0.9-0.6,1.6h3.9
		c0-0.7-0.2-1.3-0.5-1.6C721.6,46.2,721.1,46,720.5,46z"/>
	<path class="st7" d="M730.7,52.7v-4.8c0-0.6-0.1-1.1-0.4-1.4c-0.3-0.3-0.7-0.5-1.3-0.5c-0.8,0-1.4,0.2-1.7,0.6s-0.5,1.1-0.5,2.1
		v3.9h-1.1V42h1.1v3.2c0,0.4,0,0.7-0.1,1h0.1c0.2-0.4,0.5-0.6,1-0.9c0.4-0.2,0.9-0.3,1.4-0.3c0.9,0,1.6,0.2,2.1,0.7
		c0.5,0.4,0.7,1.1,0.7,2.1v4.9H730.7z"/>
	<path class="st7" d="M740.6,48.9c0,1.2-0.3,2.2-0.9,2.9s-1.5,1-2.5,1c-0.7,0-1.3-0.2-1.8-0.5s-0.9-0.8-1.2-1.4s-0.4-1.3-0.4-2.1
		c0-1.2,0.3-2.2,0.9-2.9s1.5-1,2.5-1c1,0,1.9,0.3,2.5,1C740.3,46.8,740.6,47.7,740.6,48.9z M734.9,48.9c0,1,0.2,1.7,0.6,2.2
		s0.9,0.8,1.7,0.8s1.3-0.2,1.7-0.7c0.4-0.5,0.6-1.2,0.6-2.2c0-1-0.2-1.7-0.6-2.2c-0.4-0.5-1-0.7-1.7-0.7c-0.7,0-1.3,0.2-1.7,0.7
		S734.9,48,734.9,48.9z"/>
	<path class="st7" d="M743.7,52.7h-1.1V42h1.1V52.7z"/>
	<path class="st7" d="M751.2,51.7L751.2,51.7c-0.6,0.8-1.4,1.1-2.4,1.1c-1,0-1.7-0.3-2.3-1c-0.5-0.7-0.8-1.6-0.8-2.9
		s0.3-2.2,0.8-2.9s1.3-1,2.3-1c1,0,1.8,0.4,2.3,1.1h0.1l0-0.5l0-0.5v-3h1.1v10.6h-0.9L751.2,51.7z M749,51.9c0.8,0,1.3-0.2,1.7-0.6
		c0.3-0.4,0.5-1.1,0.5-2v-0.2c0-1.1-0.2-1.8-0.5-2.3c-0.4-0.5-0.9-0.7-1.7-0.7c-0.7,0-1.2,0.3-1.5,0.8c-0.4,0.5-0.5,1.2-0.5,2.2
		c0,1,0.2,1.7,0.5,2.2S748.3,51.9,749,51.9z"/>
	<path class="st7" d="M757.9,52.8c-1.1,0-2-0.3-2.6-1c-0.6-0.7-1-1.6-1-2.8c0-1.2,0.3-2.2,0.9-2.9c0.6-0.7,1.4-1.1,2.4-1.1
		c0.9,0,1.7,0.3,2.2,0.9s0.8,1.4,0.8,2.4v0.7h-5.2c0,0.9,0.2,1.5,0.7,2c0.4,0.5,1,0.7,1.8,0.7c0.8,0,1.6-0.2,2.4-0.5v1
		c-0.4,0.2-0.8,0.3-1.1,0.4C758.8,52.8,758.4,52.8,757.9,52.8z M757.6,46c-0.6,0-1.1,0.2-1.4,0.6c-0.4,0.4-0.6,0.9-0.6,1.6h3.9
		c0-0.7-0.2-1.3-0.5-1.6S758.2,46,757.6,46z"/>
	<path class="st7" d="M766,45c0.3,0,0.6,0,0.9,0.1l-0.2,1.1c-0.3-0.1-0.6-0.1-0.8-0.1c-0.6,0-1.1,0.2-1.6,0.7
		c-0.4,0.5-0.6,1.1-0.6,1.8v4h-1.1v-7.5h0.9l0.1,1.4h0.1c0.3-0.5,0.6-0.9,1-1.1S765.5,45,766,45z"/>
	<path class="st7" d="M773.1,50.6c0,0.7-0.3,1.2-0.8,1.6s-1.2,0.6-2.2,0.6c-1,0-1.8-0.2-2.3-0.5v-1.1c0.4,0.2,0.7,0.3,1.2,0.4
		c0.4,0.1,0.8,0.2,1.2,0.2c0.6,0,1-0.1,1.4-0.3s0.5-0.5,0.5-0.9c0-0.3-0.1-0.5-0.4-0.7c-0.3-0.2-0.7-0.5-1.5-0.7
		c-0.7-0.3-1.2-0.5-1.5-0.7c-0.3-0.2-0.5-0.4-0.7-0.7c-0.1-0.2-0.2-0.5-0.2-0.9c0-0.6,0.2-1.1,0.7-1.4s1.2-0.5,2-0.5
		c0.8,0,1.6,0.2,2.4,0.5l-0.4,0.9c-0.8-0.3-1.4-0.5-2-0.5c-0.5,0-0.9,0.1-1.2,0.3s-0.4,0.4-0.4,0.7c0,0.2,0.1,0.4,0.2,0.5
		c0.1,0.1,0.3,0.3,0.5,0.4s0.7,0.3,1.3,0.6c0.9,0.3,1.5,0.6,1.8,1C773,49.7,773.1,50.1,773.1,50.6z"/>
	<path class="st7" d="M775.9,42.7l0.1,0.2c-0.1,0.5-0.3,1-0.5,1.6s-0.5,1.2-0.7,1.7h-0.8c0.3-1.3,0.6-2.4,0.7-3.4H775.9z"/>
	<path class="st7" d="M786.7,52.7h-5.6v-10h5.6v1h-4.4v3.2h4.1v1h-4.1v3.7h4.4V52.7z"/>
	<path class="st7" d="M791.4,52.8c-1,0-1.7-0.3-2.3-1s-0.8-1.6-0.8-2.8c0-1.2,0.3-2.2,0.8-2.9s1.3-1,2.3-1c1,0,1.8,0.4,2.4,1.2h0.1
		l0.2-1h0.9V56h-1.1v-3.2c0-0.5,0-0.8,0.1-1.2h-0.1C793.3,52.4,792.5,52.8,791.4,52.8z M791.6,51.9c0.8,0,1.3-0.2,1.7-0.6
		s0.5-1.1,0.6-2.1v-0.3c0-1-0.2-1.8-0.5-2.3s-0.9-0.7-1.7-0.7c-0.7,0-1.2,0.3-1.5,0.8c-0.4,0.5-0.5,1.2-0.5,2.2s0.2,1.7,0.5,2.2
		C790.4,51.6,790.9,51.9,791.6,51.9z"/>
	<path class="st7" d="M798.4,45.2V50c0,0.6,0.1,1.1,0.4,1.4s0.7,0.5,1.3,0.5c0.8,0,1.4-0.2,1.7-0.6c0.4-0.4,0.5-1.1,0.5-2.1v-3.9
		h1.1v7.5h-0.9l-0.2-1h-0.1c-0.2,0.4-0.6,0.7-1,0.8c-0.4,0.2-0.9,0.3-1.4,0.3c-0.9,0-1.6-0.2-2-0.6c-0.5-0.4-0.7-1.1-0.7-2.1v-4.9
		H798.4z"/>
	<path class="st7" d="M805.8,43.1c0-0.3,0.1-0.5,0.2-0.6s0.3-0.2,0.5-0.2c0.2,0,0.3,0.1,0.5,0.2s0.2,0.3,0.2,0.6s-0.1,0.4-0.2,0.6
		s-0.3,0.2-0.5,0.2c-0.2,0-0.4-0.1-0.5-0.2S805.8,43.4,805.8,43.1z M807.1,52.7h-1.1v-7.5h1.1V52.7z"/>
	<path class="st7" d="M811.9,51.9c0.2,0,0.4,0,0.6,0s0.3-0.1,0.4-0.1v0.9c-0.1,0.1-0.3,0.1-0.5,0.1c-0.2,0-0.5,0.1-0.6,0.1
		c-1.4,0-2.2-0.8-2.2-2.3v-4.5h-1.1v-0.5l1.1-0.5l0.5-1.6h0.7v1.7h2.2v0.9h-2.2v4.4c0,0.5,0.1,0.8,0.3,1S811.5,51.9,811.9,51.9z"/>
	<path class="st7" d="M813.2,45.2h1.2l1.6,4.3c0.4,1,0.6,1.7,0.7,2.1h0.1c0.1-0.2,0.2-0.6,0.4-1.2c0.2-0.6,0.8-2.3,1.9-5.2h1.2
		l-3.2,8.5c-0.3,0.8-0.7,1.4-1.1,1.8c-0.4,0.4-0.9,0.5-1.6,0.5c-0.3,0-0.7,0-1-0.1V55c0.3,0.1,0.5,0.1,0.8,0.1
		c0.8,0,1.3-0.4,1.7-1.3l0.4-1.1L813.2,45.2z"/>
	<path class="st7" d="M822.7,51l0.1,0.2c-0.1,0.5-0.3,1-0.5,1.6s-0.5,1.2-0.7,1.7h-0.9c0.1-0.5,0.3-1.1,0.4-1.8
		c0.1-0.7,0.3-1.3,0.3-1.7H822.7z"/>
	<path class="st7" d="M625.4,69.5h-1.2v-10h5.6v1h-4.4v3.7h4.1v1h-4.1V69.5z"/>
	<path class="st7" d="M634.5,69.6c-1.1,0-2-0.3-2.6-1s-1-1.6-1-2.8c0-1.2,0.3-2.2,0.9-2.9s1.4-1.1,2.4-1.1c0.9,0,1.7,0.3,2.2,0.9
		s0.8,1.4,0.8,2.4v0.7h-5.2c0,0.9,0.2,1.5,0.7,2s1,0.7,1.8,0.7c0.8,0,1.6-0.2,2.4-0.5v1c-0.4,0.2-0.8,0.3-1.1,0.4
		S635,69.6,634.5,69.6z M634.2,62.8c-0.6,0-1.1,0.2-1.4,0.6s-0.6,0.9-0.6,1.6h3.9c0-0.7-0.2-1.3-0.5-1.6S634.8,62.8,634.2,62.8z"/>
	<path class="st7" d="M642.3,69.6c-1.1,0-2-0.3-2.6-1s-1-1.6-1-2.8c0-1.2,0.3-2.2,0.9-2.9s1.4-1.1,2.4-1.1c0.9,0,1.7,0.3,2.2,0.9
		s0.8,1.4,0.8,2.4v0.7h-5.2c0,0.9,0.2,1.5,0.7,2s1,0.7,1.8,0.7c0.8,0,1.6-0.2,2.4-0.5v1c-0.4,0.2-0.8,0.3-1.1,0.4
		S642.8,69.6,642.3,69.6z M642,62.8c-0.6,0-1.1,0.2-1.4,0.6S640,64.3,640,65h3.9c0-0.7-0.2-1.3-0.5-1.6S642.6,62.8,642,62.8z"/>
	<path class="st7" d="M651.9,67.4c0,0.7-0.3,1.2-0.8,1.6s-1.2,0.6-2.2,0.6c-1,0-1.8-0.2-2.3-0.5v-1.1c0.4,0.2,0.7,0.3,1.2,0.4
		s0.8,0.2,1.2,0.2c0.6,0,1-0.1,1.4-0.3s0.5-0.5,0.5-0.9c0-0.3-0.1-0.5-0.4-0.7s-0.7-0.5-1.5-0.7c-0.7-0.3-1.2-0.5-1.5-0.7
		s-0.5-0.4-0.7-0.7s-0.2-0.5-0.2-0.9c0-0.6,0.2-1.1,0.7-1.4s1.2-0.5,2-0.5c0.8,0,1.6,0.2,2.4,0.5l-0.4,0.9c-0.8-0.3-1.4-0.5-2-0.5
		c-0.5,0-0.9,0.1-1.2,0.3s-0.4,0.4-0.4,0.7c0,0.2,0.1,0.4,0.2,0.5s0.3,0.3,0.5,0.4s0.7,0.3,1.3,0.6c0.9,0.3,1.5,0.6,1.8,1
		S651.9,66.9,651.9,67.4z"/>
	<path class="st7" d="M663.1,69.5h-5.6v-10h5.6v1h-4.4v3.2h4.1v1h-4.1v3.7h4.4V69.5z"/>
	<path class="st7" d="M669.7,69.5l-0.2-1.1h-0.1c-0.4,0.5-0.7,0.8-1.1,1s-0.8,0.2-1.4,0.2c-0.7,0-1.3-0.2-1.7-0.6s-0.6-0.9-0.6-1.6
		c0-1.5,1.2-2.3,3.6-2.4l1.3,0v-0.5c0-0.6-0.1-1-0.4-1.3s-0.7-0.4-1.2-0.4c-0.6,0-1.3,0.2-2.1,0.6l-0.3-0.9c0.4-0.2,0.8-0.4,1.2-0.5
		s0.9-0.2,1.3-0.2c0.9,0,1.6,0.2,2,0.6s0.6,1,0.6,1.9v5.1H669.7z M667.2,68.7c0.7,0,1.3-0.2,1.7-0.6s0.6-0.9,0.6-1.6v-0.7l-1.1,0
		c-0.9,0-1.6,0.2-2,0.4s-0.6,0.6-0.6,1.2c0,0.4,0.1,0.7,0.4,0.9S666.7,68.7,667.2,68.7z"/>
	<path class="st7" d="M676.3,61.8c0.3,0,0.6,0,0.9,0.1l-0.2,1.1c-0.3-0.1-0.6-0.1-0.8-0.1c-0.6,0-1.1,0.2-1.6,0.7s-0.6,1.1-0.6,1.8
		v4h-1.1V62h0.9l0.1,1.4h0.1c0.3-0.5,0.6-0.9,1-1.1S675.9,61.8,676.3,61.8z"/>
	<path class="st7" d="M683.8,69.5v-4.8c0-0.6-0.1-1.1-0.4-1.4s-0.7-0.5-1.3-0.5c-0.8,0-1.4,0.2-1.7,0.6s-0.5,1.1-0.5,2.1v3.9h-1.1
		V62h0.9l0.2,1h0.1c0.2-0.4,0.6-0.7,1-0.9s0.9-0.3,1.4-0.3c0.9,0,1.6,0.2,2,0.7s0.7,1.1,0.7,2.1v4.9H683.8z"/>
	<path class="st7" d="M690.4,69.6c-1.1,0-2-0.3-2.6-1s-1-1.6-1-2.8c0-1.2,0.3-2.2,0.9-2.9s1.4-1.1,2.4-1.1c0.9,0,1.7,0.3,2.2,0.9
		s0.8,1.4,0.8,2.4v0.7H688c0,0.9,0.2,1.5,0.7,2s1,0.7,1.8,0.7c0.8,0,1.6-0.2,2.4-0.5v1c-0.4,0.2-0.8,0.3-1.1,0.4
		S690.9,69.6,690.4,69.6z M690.1,62.8c-0.6,0-1.1,0.2-1.4,0.6s-0.6,0.9-0.6,1.6h3.9c0-0.7-0.2-1.3-0.5-1.6S690.7,62.8,690.1,62.8z"
		/>
	<path class="st7" d="M700.2,68.5L700.2,68.5c-0.6,0.8-1.4,1.1-2.4,1.1c-1,0-1.7-0.3-2.3-1s-0.8-1.6-0.8-2.9s0.3-2.2,0.8-2.9
		s1.3-1,2.3-1c1,0,1.8,0.4,2.3,1.1h0.1l0-0.5l0-0.5v-3h1.1v10.6h-0.9L700.2,68.5z M697.9,68.7c0.8,0,1.3-0.2,1.7-0.6s0.5-1.1,0.5-2
		v-0.2c0-1.1-0.2-1.8-0.5-2.3s-0.9-0.7-1.7-0.7c-0.7,0-1.2,0.3-1.5,0.8s-0.5,1.2-0.5,2.2c0,1,0.2,1.7,0.5,2.2S697.2,68.7,697.9,68.7
		z"/>
	<path class="st7" d="M704.8,67.8l0.1,0.2c-0.1,0.5-0.3,1-0.5,1.6c-0.2,0.6-0.5,1.2-0.7,1.7h-0.9c0.1-0.5,0.3-1.1,0.4-1.8
		c0.1-0.7,0.3-1.3,0.3-1.7H704.8z"/>
	<path class="st7" d="M716.5,69.5h-5.6v-10h5.6v1h-4.4v3.2h4.1v1h-4.1v3.7h4.4V69.5z"/>
	<path class="st7" d="M720.3,65.6l-2.6-3.7h1.3l2,2.9l2-2.9h1.3l-2.6,3.7l2.7,3.8h-1.3l-2.1-3l-2.1,3h-1.3L720.3,65.6z"/>
	<path class="st7" d="M729.3,69.6c-0.5,0-0.9-0.1-1.3-0.3s-0.7-0.5-1-0.8h-0.1c0.1,0.4,0.1,0.9,0.1,1.2v3.1h-1.1V62h0.9l0.2,1h0.1
		c0.3-0.4,0.6-0.7,1-0.9c0.4-0.2,0.8-0.3,1.3-0.3c1,0,1.8,0.3,2.3,1c0.5,0.7,0.8,1.6,0.8,2.9c0,1.2-0.3,2.2-0.8,2.9
		S730.3,69.6,729.3,69.6z M729.2,62.8c-0.8,0-1.3,0.2-1.7,0.6s-0.5,1.1-0.5,2v0.3c0,1.1,0.2,1.8,0.5,2.3c0.4,0.5,0.9,0.7,1.7,0.7
		c0.6,0,1.2-0.3,1.5-0.8s0.6-1.2,0.6-2.2c0-0.9-0.2-1.7-0.6-2.1S729.8,62.8,729.2,62.8z"/>
	<path class="st7" d="M737.6,69.6c-1.1,0-2-0.3-2.6-1c-0.6-0.7-1-1.6-1-2.8c0-1.2,0.3-2.2,0.9-2.9c0.6-0.7,1.4-1.1,2.4-1.1
		c0.9,0,1.7,0.3,2.2,0.9s0.8,1.4,0.8,2.4v0.7h-5.2c0,0.9,0.2,1.5,0.7,2c0.4,0.5,1,0.7,1.8,0.7c0.8,0,1.6-0.2,2.4-0.5v1
		c-0.4,0.2-0.8,0.3-1.1,0.4C738.5,69.6,738.1,69.6,737.6,69.6z M737.3,62.8c-0.6,0-1.1,0.2-1.4,0.6c-0.4,0.4-0.6,0.9-0.6,1.6h3.9
		c0-0.7-0.2-1.3-0.5-1.6S737.9,62.8,737.3,62.8z"/>
	<path class="st7" d="M747.4,69.5v-4.8c0-0.6-0.1-1.1-0.4-1.4s-0.7-0.5-1.3-0.5c-0.8,0-1.4,0.2-1.7,0.6s-0.5,1.1-0.5,2.1v3.9h-1.1
		V62h0.9l0.2,1h0.1c0.2-0.4,0.6-0.7,1-0.9s0.9-0.3,1.4-0.3c0.9,0,1.6,0.2,2,0.7s0.7,1.1,0.7,2.1v4.9H747.4z"/>
	<path class="st7" d="M755.7,67.4c0,0.7-0.3,1.2-0.8,1.6s-1.2,0.6-2.2,0.6c-1,0-1.8-0.2-2.3-0.5v-1.1c0.4,0.2,0.7,0.3,1.2,0.4
		c0.4,0.1,0.8,0.2,1.2,0.2c0.6,0,1-0.1,1.4-0.3s0.5-0.5,0.5-0.9c0-0.3-0.1-0.5-0.4-0.7c-0.3-0.2-0.7-0.5-1.5-0.7
		c-0.7-0.3-1.2-0.5-1.5-0.7c-0.3-0.2-0.5-0.4-0.7-0.7c-0.1-0.2-0.2-0.5-0.2-0.9c0-0.6,0.2-1.1,0.7-1.4s1.2-0.5,2-0.5
		c0.8,0,1.6,0.2,2.4,0.5l-0.4,0.9c-0.8-0.3-1.4-0.5-2-0.5c-0.5,0-0.9,0.1-1.2,0.3s-0.4,0.4-0.4,0.7c0,0.2,0.1,0.4,0.2,0.5
		c0.1,0.1,0.3,0.3,0.5,0.4s0.7,0.3,1.3,0.6c0.9,0.3,1.5,0.6,1.8,1C755.5,66.5,755.7,66.9,755.7,67.4z"/>
	<path class="st7" d="M760.7,69.6c-1.1,0-2-0.3-2.6-1c-0.6-0.7-1-1.6-1-2.8c0-1.2,0.3-2.2,0.9-2.9c0.6-0.7,1.4-1.1,2.4-1.1
		c0.9,0,1.7,0.3,2.2,0.9s0.8,1.4,0.8,2.4v0.7h-5.2c0,0.9,0.2,1.5,0.7,2c0.4,0.5,1,0.7,1.8,0.7c0.8,0,1.6-0.2,2.4-0.5v1
		c-0.4,0.2-0.8,0.3-1.1,0.4C761.7,69.6,761.2,69.6,760.7,69.6z M760.4,62.8c-0.6,0-1.1,0.2-1.4,0.6c-0.4,0.4-0.6,0.9-0.6,1.6h3.9
		c0-0.7-0.2-1.3-0.5-1.6S761,62.8,760.4,62.8z"/>
	<path class="st7" d="M770.2,67.4c0,0.7-0.3,1.2-0.8,1.6s-1.2,0.6-2.2,0.6c-1,0-1.8-0.2-2.3-0.5v-1.1c0.4,0.2,0.7,0.3,1.2,0.4
		c0.4,0.1,0.8,0.2,1.2,0.2c0.6,0,1-0.1,1.4-0.3s0.5-0.5,0.5-0.9c0-0.3-0.1-0.5-0.4-0.7c-0.3-0.2-0.7-0.5-1.5-0.7
		c-0.7-0.3-1.2-0.5-1.5-0.7c-0.3-0.2-0.5-0.4-0.7-0.7c-0.1-0.2-0.2-0.5-0.2-0.9c0-0.6,0.2-1.1,0.7-1.4s1.2-0.5,2-0.5
		c0.8,0,1.6,0.2,2.4,0.5l-0.4,0.9c-0.8-0.3-1.4-0.5-2-0.5c-0.5,0-0.9,0.1-1.2,0.3s-0.4,0.4-0.4,0.7c0,0.2,0.1,0.4,0.2,0.5
		c0.1,0.1,0.3,0.3,0.5,0.4s0.7,0.3,1.3,0.6c0.9,0.3,1.5,0.6,1.8,1C770.1,66.5,770.2,66.9,770.2,67.4z"/>
</g>
<g>
	<path class="st7" d="M610.5,31.9V19h2.7v10.6h5.2v2.3H610.5z"/>
	<path class="st7" d="M628.1,31.9h-7.4V19h7.4v2.2h-4.7v2.8h4.4v2.2h-4.4v3.3h4.7V31.9z"/>
	<path class="st7" d="M641.4,25.3c0,2.1-0.6,3.7-1.8,4.9c-1.2,1.1-2.9,1.7-5.2,1.7h-3.6V19h4c2.1,0,3.7,0.6,4.9,1.7
		S641.4,23.3,641.4,25.3z M638.6,25.4c0-2.8-1.2-4.1-3.7-4.1h-1.5v8.4h1.2C637.3,29.6,638.6,28.2,638.6,25.4z"/>
	<path class="st7" d="M649,24.7h5.1v6.7c-0.8,0.3-1.6,0.5-2.3,0.6c-0.7,0.1-1.5,0.2-2.2,0.2c-1.9,0-3.4-0.6-4.4-1.7
		c-1-1.1-1.5-2.8-1.5-4.9c0-2.1,0.6-3.7,1.8-4.9c1.2-1.2,2.8-1.7,4.9-1.7c1.3,0,2.6,0.3,3.8,0.8l-0.9,2.2c-0.9-0.5-1.9-0.7-2.9-0.7
		c-1.2,0-2.1,0.4-2.8,1.2s-1.1,1.9-1.1,3.2c0,1.4,0.3,2.5,0.9,3.2c0.6,0.7,1.4,1.1,2.5,1.1c0.6,0,1.1-0.1,1.7-0.2v-2.7H649V24.7z"/>
	<path class="st7" d="M664.5,31.9h-7.4V19h7.4v2.2h-4.7v2.8h4.4v2.2h-4.4v3.3h4.7V31.9z"/>
	<path class="st7" d="M669.9,26.9v4.9h-2.7V19h3.7c1.7,0,3,0.3,3.9,1s1.3,1.6,1.3,2.9c0,0.8-0.2,1.4-0.6,2s-1,1.1-1.8,1.4
		c1.9,2.9,3.2,4.8,3.8,5.6h-3l-3.1-4.9H669.9z M669.9,24.7h0.9c0.9,0,1.5-0.1,1.9-0.4s0.6-0.7,0.6-1.4c0-0.6-0.2-1-0.6-1.3
		c-0.4-0.3-1.1-0.4-1.9-0.4h-0.8V24.7z"/>
	<path class="st7" d="M691.6,31.9l-0.9-3.1H686l-0.9,3.1h-2.9l4.5-12.9h3.3l4.6,12.9H691.6z M690.1,26.5c-0.9-2.8-1.3-4.3-1.5-4.7
		c-0.1-0.4-0.2-0.7-0.2-0.9c-0.2,0.8-0.7,2.6-1.7,5.6H690.1z"/>
	<path class="st7" d="M701.6,21.1c-1,0-1.8,0.4-2.4,1.2s-0.8,1.8-0.8,3.2c0,2.9,1.1,4.3,3.2,4.3c0.9,0,2-0.2,3.3-0.7v2.3
		c-1.1,0.4-2.2,0.7-3.5,0.7c-1.9,0-3.3-0.6-4.3-1.7s-1.5-2.8-1.5-4.9c0-1.3,0.2-2.5,0.7-3.5s1.2-1.8,2.1-2.3s2-0.8,3.2-0.8
		c1.2,0,2.5,0.3,3.8,0.9l-0.9,2.2c-0.5-0.2-1-0.4-1.5-0.6S702.1,21.1,701.6,21.1z"/>
	<path class="st7" d="M713.1,21.1c-1,0-1.8,0.4-2.4,1.2s-0.8,1.8-0.8,3.2c0,2.9,1.1,4.3,3.2,4.3c0.9,0,2-0.2,3.3-0.7v2.3
		c-1.1,0.4-2.2,0.7-3.5,0.7c-1.9,0-3.3-0.6-4.3-1.7s-1.5-2.8-1.5-4.9c0-1.3,0.2-2.5,0.7-3.5s1.2-1.8,2.1-2.3s2-0.8,3.2-0.8
		c1.2,0,2.5,0.3,3.8,0.9L716,22c-0.5-0.2-1-0.4-1.5-0.6S713.6,21.1,713.1,21.1z"/>
	<path class="st7" d="M730.8,25.4c0,2.1-0.5,3.8-1.6,4.9s-2.6,1.7-4.5,1.7s-3.5-0.6-4.5-1.7s-1.6-2.8-1.6-4.9s0.5-3.8,1.6-4.9
		c1.1-1.1,2.6-1.7,4.5-1.7s3.5,0.6,4.5,1.7C730.3,21.7,730.8,23.3,730.8,25.4z M721.4,25.4c0,1.4,0.3,2.5,0.8,3.2s1.4,1.1,2.4,1.1
		c2.2,0,3.3-1.4,3.3-4.3c0-2.9-1.1-4.3-3.2-4.3c-1.1,0-1.9,0.4-2.5,1.1S721.4,24,721.4,25.4z"/>
	<path class="st7" d="M743.9,19v8.3c0,0.9-0.2,1.8-0.6,2.5c-0.4,0.7-1,1.3-1.8,1.6s-1.8,0.6-2.8,0.6c-1.7,0-2.9-0.4-3.8-1.3
		s-1.4-2-1.4-3.5V19h2.7v7.9c0,1,0.2,1.7,0.6,2.2s1.1,0.7,2,0.7c0.9,0,1.5-0.2,1.9-0.7s0.6-1.2,0.6-2.2V19H743.9z"/>
	<path class="st7" d="M758.5,31.9H755l-5.6-9.7h-0.1c0.1,1.7,0.2,2.9,0.2,3.7v6h-2.4V19h3.4l5.6,9.6h0.1c-0.1-1.7-0.1-2.9-0.1-3.5
		V19h2.5V31.9z"/>
	<path class="st7" d="M766.7,31.9h-2.7V21.3h-3.5V19h9.7v2.3h-3.5V31.9z"/>
	<path class="st7" d="M779.7,28.3c0,1.2-0.4,2.1-1.3,2.7c-0.8,0.7-2,1-3.5,1c-1.4,0-2.6-0.3-3.6-0.8v-2.5c0.9,0.4,1.6,0.7,2.2,0.8
		s1.2,0.2,1.6,0.2c0.6,0,1.1-0.1,1.4-0.3s0.5-0.6,0.5-1c0-0.3-0.1-0.5-0.2-0.7s-0.3-0.4-0.6-0.6c-0.3-0.2-0.8-0.5-1.7-0.9
		c-0.8-0.4-1.4-0.7-1.8-1.1s-0.7-0.7-0.9-1.2s-0.4-1-0.4-1.6c0-1.1,0.4-2,1.2-2.7s1.8-1,3.2-1c0.7,0,1.3,0.1,1.9,0.2
		c0.6,0.2,1.2,0.4,1.9,0.7l-0.9,2.1c-0.7-0.3-1.3-0.5-1.7-0.6c-0.4-0.1-0.9-0.2-1.3-0.2c-0.5,0-0.9,0.1-1.2,0.4s-0.4,0.6-0.4,0.9
		c0,0.2,0.1,0.4,0.2,0.6s0.3,0.4,0.5,0.5c0.2,0.2,0.8,0.5,1.7,0.9c1.2,0.6,2,1.1,2.5,1.7S779.7,27.5,779.7,28.3z"/>
</g>
<g>
	<path class="st7" d="M854.1,333.8l-7.6-0.2l0-1.4l3-2.8c0.9-0.8,1.5-1.5,1.8-1.8c0.3-0.4,0.5-0.7,0.6-1s0.2-0.7,0.2-1
		c0-0.5-0.1-0.9-0.4-1.2c-0.3-0.3-0.7-0.5-1.2-0.5c-0.4,0-0.8,0.1-1.3,0.2c-0.4,0.1-0.9,0.4-1.4,0.8l-0.9-1.2
		c0.6-0.5,1.3-0.9,1.9-1.1c0.6-0.2,1.2-0.3,1.9-0.3c1,0,1.9,0.3,2.5,0.9c0.6,0.6,0.9,1.3,0.9,2.2c0,0.5-0.1,1-0.3,1.4
		c-0.2,0.4-0.5,0.9-0.9,1.4c-0.4,0.5-1,1.1-1.9,1.9l-2,1.8l0,0.1l5.3,0.2L854.1,333.8z"/>
	<path class="st7" d="M863.3,328.5c-0.1,1.9-0.4,3.4-1.1,4.3c-0.7,0.9-1.6,1.4-2.9,1.3c-1.2,0-2.2-0.6-2.8-1.6
		c-0.6-1-0.9-2.4-0.8-4.3c0.1-2,0.4-3.4,1.1-4.3c0.7-0.9,1.6-1.4,2.9-1.3c1.3,0,2.2,0.6,2.8,1.6C863,325.1,863.3,326.6,863.3,328.5z
		 M857.5,328.3c0,1.5,0.1,2.6,0.4,3.3c0.3,0.7,0.8,1,1.5,1c0.7,0,1.2-0.3,1.5-1c0.3-0.7,0.5-1.7,0.6-3.2c0-1.5-0.1-2.6-0.4-3.3
		c-0.3-0.7-0.8-1-1.5-1.1c-0.7,0-1.2,0.3-1.5,0.9C857.7,325.7,857.5,326.8,857.5,328.3z"/>
</g>
<g>
	<path class="st8" d="M771.4,336.2c0,16.4,0,29.8,0,29.8s2.1,5.9,21,5.8c14.1,0,19.4-5.2,19.5-6.6c0.2-3,0.2-29.4,0-29.5
		C811.8,335.7,791.6,342.8,771.4,336.2z"/>
	
		<ellipse transform="matrix(0.9999 -1.449122e-02 1.449122e-02 0.9999 -4.7853 11.508)" class="st9" cx="791.7" cy="336" rx="20.3" ry="5.3"/>
	<g>
		<path class="st7" d="M789.3,361.2h-2.1v-5.8l0-1l0-1c-0.4,0.4-0.6,0.6-0.7,0.7l-1.1,0.9l-1-1.3l3.2-2.6h1.7V361.2z"/>
		<path class="st7" d="M799,356.2c0,1.7-0.3,3-0.9,3.9c-0.6,0.8-1.5,1.3-2.6,1.3c-1.2,0-2-0.4-2.6-1.3c-0.6-0.9-0.9-2.1-0.9-3.8
			c0-1.8,0.3-3.1,0.9-3.9c0.6-0.8,1.4-1.3,2.6-1.3c1.2,0,2,0.4,2.6,1.3C798.7,353.3,799,354.5,799,356.2z M794.1,356.2
			c0,1.2,0.1,2.1,0.3,2.6c0.2,0.5,0.6,0.8,1.1,0.8c0.5,0,0.8-0.3,1.1-0.8s0.3-1.4,0.3-2.6c0-1.2-0.1-2.1-0.3-2.6
			c-0.2-0.5-0.6-0.8-1.1-0.8c-0.5,0-0.9,0.3-1.1,0.8C794.2,354.1,794.1,355,794.1,356.2z"/>
	</g>
</g>
<g>
	<path class="st8" d="M814.7,336.9c0,16.4,0,29.8,0,29.8s2.1,5.9,21,5.8c14.1,0,19.4-5.2,19.5-6.6c0.2-3,0.2-29.4,0-29.5
		C855.2,336.4,834.9,343.5,814.7,336.9z"/>
	
		<ellipse transform="matrix(0.9999 -1.449122e-02 1.449122e-02 0.9999 -4.7905 12.1359)" class="st9" cx="835" cy="336.6" rx="20.3" ry="5.3"/>
	<g>
		<path class="st7" d="M830.8,351.8c1,0,1.7,0.2,2.3,0.7c0.6,0.4,0.9,1,0.9,1.8c0,0.5-0.1,1-0.4,1.4c-0.3,0.4-0.7,0.8-1.4,1.1
			c0.7,0.4,1.3,0.8,1.6,1.3c0.3,0.4,0.5,0.9,0.5,1.4c0,0.8-0.3,1.5-1,2c-0.6,0.5-1.5,0.7-2.5,0.7c-1.1,0-2-0.2-2.6-0.7
			s-0.9-1.1-0.9-2c0-0.6,0.2-1.1,0.5-1.5c0.3-0.4,0.8-0.8,1.5-1.2c-0.6-0.4-1-0.7-1.2-1.2s-0.4-0.9-0.4-1.3c0-0.7,0.3-1.3,0.9-1.7
			S829.9,351.8,830.8,351.8z M829.3,359.2c0,0.4,0.1,0.7,0.4,0.9s0.6,0.3,1.1,0.3c0.5,0,0.9-0.1,1.2-0.3c0.3-0.2,0.4-0.5,0.4-0.9
			c0-0.3-0.1-0.6-0.4-0.9c-0.3-0.3-0.7-0.5-1.3-0.9C829.8,358,829.3,358.6,829.3,359.2z M830.8,353.3c-0.4,0-0.7,0.1-0.9,0.3
			c-0.2,0.2-0.3,0.4-0.3,0.7c0,0.3,0.1,0.5,0.3,0.7c0.2,0.2,0.5,0.4,1,0.7c0.4-0.2,0.8-0.4,0.9-0.6s0.3-0.5,0.3-0.8
			c0-0.3-0.1-0.6-0.3-0.7S831.2,353.3,830.8,353.3z"/>
		<path class="st7" d="M842.3,356.9c0,1.7-0.3,3-0.9,3.9c-0.6,0.8-1.5,1.3-2.6,1.3c-1.2,0-2-0.4-2.6-1.3c-0.6-0.9-0.9-2.1-0.9-3.8
			c0-1.8,0.3-3.1,0.9-3.9c0.6-0.8,1.4-1.3,2.6-1.3c1.2,0,2,0.4,2.6,1.3C842,353.9,842.3,355.2,842.3,356.9z M837.4,356.9
			c0,1.2,0.1,2.1,0.3,2.6c0.2,0.5,0.6,0.8,1.1,0.8c0.5,0,0.8-0.3,1.1-0.8s0.3-1.4,0.3-2.6c0-1.2-0.1-2.1-0.3-2.6
			c-0.2-0.5-0.6-0.8-1.1-0.8c-0.5,0-0.9,0.3-1.1,0.8C837.5,354.8,837.4,355.7,837.4,356.9z"/>
	</g>
</g>
<g>
	<path class="st8" d="M858.3,338c0,16.4,0,29.8,0,29.8s2.1,5.9,21,5.8c14.1,0,19.4-5.2,19.5-6.6c0.2-3,0.2-29.4,0-29.5
		C898.7,337.5,878.5,344.6,858.3,338z"/>
	
		<ellipse transform="matrix(0.9999 -1.449122e-02 1.449122e-02 0.9999 -4.8023 12.7672)" class="st9" cx="878.6" cy="337.8" rx="20.3" ry="5.3"/>
	<g>
		<path class="st7" d="M877.5,355.3c0,0.6-0.2,1.2-0.6,1.6s-0.9,0.7-1.6,0.9v0c0.8,0.1,1.4,0.3,1.8,0.7c0.4,0.4,0.6,0.9,0.6,1.6
			c0,1-0.3,1.7-1,2.2c-0.7,0.5-1.7,0.8-3,0.8c-1.1,0-2-0.2-2.9-0.5v-1.8c0.4,0.2,0.8,0.4,1.3,0.5s0.9,0.2,1.4,0.2
			c0.7,0,1.2-0.1,1.5-0.4s0.5-0.6,0.5-1.1c0-0.5-0.2-0.8-0.6-1s-1-0.3-1.8-0.3h-0.8v-1.6h0.8c0.8,0,1.3-0.1,1.7-0.3
			c0.4-0.2,0.5-0.5,0.5-1c0-0.8-0.5-1.1-1.4-1.1c-0.3,0-0.7,0.1-1,0.2c-0.3,0.1-0.7,0.3-1.1,0.6l-1-1.5c0.9-0.7,2-1,3.3-1
			c1,0,1.9,0.2,2.5,0.6C877.2,353.9,877.5,354.5,877.5,355.3z"/>
		<path class="st7" d="M885.9,358c0,1.7-0.3,3-0.9,3.9c-0.6,0.8-1.5,1.3-2.6,1.3c-1.2,0-2-0.4-2.6-1.3c-0.6-0.9-0.9-2.1-0.9-3.8
			c0-1.8,0.3-3.1,0.9-3.9c0.6-0.8,1.4-1.3,2.6-1.3c1.2,0,2,0.4,2.6,1.3C885.6,355.1,885.9,356.4,885.9,358z M881,358
			c0,1.2,0.1,2.1,0.3,2.6c0.2,0.5,0.6,0.8,1.1,0.8c0.5,0,0.8-0.3,1.1-0.8s0.3-1.4,0.3-2.6c0-1.2-0.1-2.1-0.3-2.6
			c-0.2-0.5-0.6-0.8-1.1-0.8c-0.5,0-0.9,0.3-1.1,0.8C881.1,355.9,881,356.8,881,358z"/>
	</g>
</g>
<g>
	<path class="st8" d="M792.6,303.2c0,16.4,0,29.8,0,29.8s2.1,5.9,21,5.8c14.1,0,19.4-5.2,19.5-6.6c0.2-3,0.2-29.4,0-29.5
		C833.1,302.7,812.8,309.8,792.6,303.2z"/>
	
		<ellipse transform="matrix(0.9999 -1.449122e-02 1.449122e-02 0.9999 -4.3047 11.8122)" class="st9" cx="812.9" cy="302.9" rx="20.3" ry="5.3"/>
	<g>
		<path class="st7" d="M811.9,320.5c0,0.6-0.2,1.2-0.6,1.6s-0.9,0.7-1.6,0.9v0c0.8,0.1,1.4,0.3,1.8,0.7c0.4,0.4,0.6,0.9,0.6,1.6
			c0,1-0.3,1.7-1,2.2c-0.7,0.5-1.7,0.8-3,0.8c-1.1,0-2-0.2-2.9-0.5V326c0.4,0.2,0.8,0.4,1.3,0.5s0.9,0.2,1.4,0.2
			c0.7,0,1.2-0.1,1.5-0.4s0.5-0.6,0.5-1.1c0-0.5-0.2-0.8-0.6-1s-1-0.3-1.8-0.3h-0.8v-1.6h0.8c0.8,0,1.3-0.1,1.7-0.3
			c0.4-0.2,0.5-0.5,0.5-1c0-0.8-0.5-1.1-1.4-1.1c-0.3,0-0.7,0.1-1,0.2c-0.3,0.1-0.7,0.3-1.1,0.6l-1-1.5c0.9-0.7,2-1,3.3-1
			c1,0,1.9,0.2,2.5,0.6C811.6,319.1,811.9,319.7,811.9,320.5z"/>
		<path class="st7" d="M820.2,323.2c0,1.7-0.3,3-0.9,3.9c-0.6,0.8-1.5,1.3-2.6,1.3c-1.2,0-2-0.4-2.6-1.3c-0.6-0.9-0.9-2.1-0.9-3.8
			c0-1.8,0.3-3.1,0.9-3.9c0.6-0.8,1.4-1.3,2.6-1.3c1.2,0,2,0.4,2.6,1.3C819.9,320.3,820.2,321.5,820.2,323.2z M815.3,323.2
			c0,1.2,0.1,2.1,0.3,2.6c0.2,0.5,0.6,0.8,1.1,0.8c0.5,0,0.8-0.3,1.1-0.8s0.3-1.4,0.3-2.6c0-1.2-0.1-2.1-0.3-2.6
			c-0.2-0.5-0.6-0.8-1.1-0.8c-0.5,0-0.9,0.3-1.1,0.8C815.4,321.1,815.3,322,815.3,323.2z"/>
	</g>
</g>
<g>
	<path class="st8" d="M837.1,303.9c0,16.4,0,29.8,0,29.8s2.1,5.9,21,5.8c14.1,0,19.4-5.2,19.5-6.6c0.2-3,0.2-29.4,0-29.5
		C877.6,303.4,857.3,310.5,837.1,303.9z"/>
	
		<ellipse transform="matrix(0.9999 -1.449122e-02 1.449122e-02 0.9999 -4.3103 12.457)" class="st9" cx="857.4" cy="303.7" rx="20.3" ry="5.3"/>
	<g>
		<path class="st7" d="M856.8,328.9h-7v-1.5l2.5-2.5c0.7-0.8,1.2-1.3,1.5-1.6c0.2-0.3,0.4-0.6,0.5-0.8s0.2-0.5,0.2-0.8
			c0-0.4-0.1-0.7-0.3-0.9c-0.2-0.2-0.5-0.3-0.9-0.3c-0.4,0-0.8,0.1-1.1,0.3s-0.7,0.4-1.1,0.8l-1.1-1.4c0.5-0.4,0.9-0.7,1.2-0.9
			s0.7-0.3,1.1-0.4c0.4-0.1,0.8-0.1,1.3-0.1c0.6,0,1.2,0.1,1.7,0.3s0.8,0.5,1.1,1s0.4,0.9,0.4,1.4c0,0.5-0.1,0.9-0.2,1.3
			c-0.2,0.4-0.4,0.8-0.8,1.2c-0.3,0.4-0.9,1-1.8,1.8l-1.3,1.2v0.1h4.4V328.9z"/>
		<path class="st7" d="M864.7,323.9c0,1.7-0.3,3-0.9,3.9c-0.6,0.8-1.5,1.3-2.6,1.3c-1.2,0-2-0.4-2.6-1.3c-0.6-0.9-0.9-2.1-0.9-3.8
			c0-1.8,0.3-3.1,0.9-3.9c0.6-0.8,1.4-1.3,2.6-1.3c1.2,0,2,0.4,2.6,1.3C864.4,321,864.7,322.2,864.7,323.9z M859.8,323.9
			c0,1.2,0.1,2.1,0.3,2.6c0.2,0.5,0.6,0.8,1.1,0.8c0.5,0,0.8-0.3,1.1-0.8s0.3-1.4,0.3-2.6c0-1.2-0.1-2.1-0.3-2.6
			c-0.2-0.5-0.6-0.8-1.1-0.8c-0.5,0-0.9,0.3-1.1,0.8C859.9,321.8,859.8,322.7,859.8,323.9z"/>
	</g>
</g>
<g>
	<path class="st10" d="M544.9,326.1c-0.2,0-0.3,0-0.5,0c-10.4,0-20.8,0-31.1,0c-0.3,0-0.5,0.1-0.8,0.2c-5.1,2.8-10.1,5.7-15.2,8.5
		c-0.7,0.4-1.5,0.7-2.1,1.2c-0.4,0-0.3,0.3-0.3,0.6c0,10.4,0,20.7,0,31.1c0,0.4,0.1,0.6,0.5,0.6c10.4,0,20.7,0,31.1,0
		c0.2,0,0.3,0,0.5,0c0.2-0.1,0.4-0.2,0.6-0.3c5.7-3.5,11.3-6.9,17-10.4c0.4-0.2,0.5-0.5,0.5-0.9c0-10,0-19.9,0-29.9
		c0-0.2,0-0.3,0-0.5C545.1,326.1,545,326.1,544.9,326.1z"/>
	<path class="st11" d="M527,368.1c-0.2,0-0.3,0-0.5,0c-10.4,0-20.7,0-31.1,0c-0.5,0-0.5-0.1-0.5-0.6c0-10.4,0-20.7,0-31.1
		c0-0.2-0.1-0.5,0.3-0.6c0.2,0.1,0.4,0.1,0.6,0.1c10.2,0,20.4,0,30.5,0c0.2,0,0.4,0,0.6,0c0,0.2,0,0.5,0,0.7
		C527,347.2,527,357.7,527,368.1z"/>
	<path class="st12" d="M527,368.1c0-10.4,0-20.9,0-31.3c0-0.2,0-0.5,0-0.7c0.5-0.3,1.1-0.6,1.6-0.9c4.7-2.6,9.4-5.2,14.1-7.8
		c0.7-0.4,1.5-0.8,2.2-1.3c0.1,0,0.2,0,0.2,0.1c0,0.2,0,0.3,0,0.5c0,10,0,19.9,0,29.9c0,0.4-0.1,0.7-0.5,0.9
		c-5.7,3.5-11.3,6.9-17,10.4C527.4,367.9,527.2,368,527,368.1z"/>
	<path class="st13" d="M544.9,326.1c-0.7,0.5-1.5,0.9-2.2,1.3c-4.7,2.6-9.4,5.2-14.1,7.8c-0.5,0.3-1.1,0.6-1.6,0.9
		c-0.2,0-0.4,0-0.6,0c-10.2,0-20.4,0-30.5,0c-0.2,0-0.4,0-0.6-0.1c0.6-0.5,1.4-0.8,2.1-1.2c5.1-2.8,10.1-5.7,15.2-8.5
		c0.2-0.1,0.5-0.2,0.8-0.2c10.4,0,20.8,0,31.1,0C544.6,326.1,544.7,326.1,544.9,326.1z"/>
</g>
<g>
	<path class="st7" d="M507.4,351.7c1,0,1.8,0.3,2.3,0.8c0.6,0.5,0.9,1.3,0.9,2.2c0,1.1-0.3,2-1,2.6c-0.7,0.6-1.7,0.9-3,0.9
		c-1.1,0-2-0.2-2.7-0.5v-1.8c0.4,0.2,0.8,0.4,1.3,0.5c0.5,0.1,0.9,0.2,1.4,0.2c1.3,0,2-0.5,2-1.6c0-1-0.7-1.5-2-1.5
		c-0.2,0-0.5,0-0.8,0.1c-0.3,0-0.5,0.1-0.7,0.2l-0.8-0.5l0.4-5.1h5.5v1.8h-3.6l-0.2,2l0.2,0C506.6,351.7,506.9,351.7,507.4,351.7z"
		/>
	<path class="st7" d="M518.7,353.1c0,1.8-0.3,3.1-0.9,3.9c-0.6,0.8-1.5,1.3-2.7,1.3c-1.2,0-2-0.4-2.6-1.3c-0.6-0.9-0.9-2.2-0.9-3.9
		c0-1.8,0.3-3.1,0.9-3.9c0.6-0.8,1.5-1.3,2.7-1.3c1.2,0,2,0.4,2.6,1.3S518.7,351.4,518.7,353.1z M513.8,353.1c0,1.2,0.1,2.1,0.3,2.7
		c0.2,0.5,0.6,0.8,1.1,0.8c0.5,0,0.9-0.3,1.1-0.8c0.2-0.5,0.3-1.4,0.3-2.6c0-1.2-0.1-2.1-0.3-2.7c-0.2-0.5-0.6-0.8-1.1-0.8
		c-0.5,0-0.9,0.3-1.1,0.8C513.9,351,513.8,351.9,513.8,353.1z"/>
</g>
<g>
	<path class="st10" d="M582.8,326.1c-0.2,0-0.3,0-0.5,0c-10.4,0-20.8,0-31.1,0c-0.3,0-0.5,0.1-0.8,0.2c-5.1,2.8-10.1,5.7-15.2,8.5
		c-0.7,0.4-1.5,0.7-2.1,1.2c-0.4,0-0.3,0.3-0.3,0.6c0,10.4,0,20.7,0,31.1c0,0.4,0.1,0.6,0.5,0.6c10.4,0,20.7,0,31.1,0
		c0.2,0,0.3,0,0.5,0c0.2-0.1,0.4-0.2,0.6-0.3c5.7-3.5,11.3-6.9,17-10.4c0.4-0.2,0.5-0.5,0.5-0.9c0-10,0-19.9,0-29.9
		c0-0.2,0-0.3,0-0.5C582.9,326.1,582.8,326.1,582.8,326.1z"/>
	<path class="st11" d="M564.9,368.1c-0.2,0-0.3,0-0.5,0c-10.4,0-20.7,0-31.1,0c-0.5,0-0.5-0.1-0.5-0.6c0-10.4,0-20.7,0-31.1
		c0-0.2-0.1-0.5,0.3-0.6c0.2,0.1,0.4,0.1,0.6,0.1c10.2,0,20.4,0,30.5,0c0.2,0,0.4,0,0.6,0c0,0.2,0,0.5,0,0.7
		C564.9,347.2,564.9,357.7,564.9,368.1z"/>
	<path class="st12" d="M564.9,368.1c0-10.4,0-20.9,0-31.3c0-0.2,0-0.5,0-0.7c0.5-0.3,1.1-0.6,1.6-0.9c4.7-2.6,9.4-5.2,14.1-7.8
		c0.7-0.4,1.5-0.8,2.2-1.3c0.1,0,0.2,0,0.2,0.1c0,0.2,0,0.3,0,0.5c0,10,0,19.9,0,29.9c0,0.4-0.1,0.7-0.5,0.9
		c-5.7,3.5-11.3,6.9-17,10.4C565.3,367.9,565.1,368,564.9,368.1z"/>
	<path class="st13" d="M582.8,326.1c-0.7,0.5-1.5,0.9-2.2,1.3c-4.7,2.6-9.4,5.2-14.1,7.8c-0.5,0.3-1.1,0.6-1.6,0.9
		c-0.2,0-0.4,0-0.6,0c-10.2,0-20.4,0-30.5,0c-0.2,0-0.4,0-0.6-0.1c0.6-0.5,1.4-0.8,2.1-1.2c5.1-2.8,10.1-5.7,15.2-8.5
		c0.2-0.1,0.5-0.2,0.8-0.2c10.4,0,20.8,0,31.1,0C582.5,326.1,582.6,326.1,582.8,326.1z"/>
</g>
<g>
	<path class="st7" d="M548.8,356.6h-1.2v2.1h-2.1v-2.1h-4.3v-1.5l4.4-6.5h2v6.3h1.2V356.6z M545.5,355v-1.7c0-0.3,0-0.7,0-1.2
		c0-0.5,0-0.9,0.1-0.9h-0.1c-0.2,0.4-0.4,0.7-0.6,1.1l-1.8,2.8H545.5z"/>
	<path class="st7" d="M556.6,353.7c0,1.8-0.3,3.1-0.9,3.9s-1.5,1.3-2.7,1.3c-1.2,0-2-0.4-2.6-1.3c-0.6-0.9-0.9-2.2-0.9-3.9
		c0-1.8,0.3-3.1,0.9-3.9c0.6-0.8,1.5-1.3,2.7-1.3c1.2,0,2,0.4,2.6,1.3S556.6,352,556.6,353.7z M551.7,353.7c0,1.2,0.1,2.1,0.3,2.7
		c0.2,0.5,0.6,0.8,1.1,0.8c0.5,0,0.9-0.3,1.1-0.8c0.2-0.5,0.3-1.4,0.3-2.6c0-1.2-0.1-2.1-0.3-2.7c-0.2-0.5-0.6-0.8-1.1-0.8
		c-0.5,0-0.9,0.3-1.1,0.8C551.8,351.5,551.7,352.4,551.7,353.7z"/>
</g>
<g>
	<path class="st10" d="M620.3,326.1c-0.2,0-0.3,0-0.5,0c-10.4,0-20.8,0-31.1,0c-0.3,0-0.5,0.1-0.8,0.2c-5.1,2.8-10.1,5.7-15.2,8.5
		c-0.7,0.4-1.5,0.7-2.1,1.2c-0.4,0-0.3,0.3-0.3,0.6c0,10.4,0,20.7,0,31.1c0,0.4,0.1,0.6,0.5,0.6c10.4,0,20.7,0,31.1,0
		c0.2,0,0.3,0,0.5,0c0.2-0.1,0.4-0.2,0.6-0.3c5.7-3.5,11.3-6.9,17-10.4c0.4-0.2,0.5-0.5,0.5-0.9c0-10,0-19.9,0-29.9
		c0-0.2,0-0.3,0-0.5C620.5,326.1,620.4,326.1,620.3,326.1z"/>
	<path class="st11" d="M602.4,368.1c-0.2,0-0.3,0-0.5,0c-10.4,0-20.7,0-31.1,0c-0.5,0-0.5-0.1-0.5-0.6c0-10.4,0-20.7,0-31.1
		c0-0.2-0.1-0.5,0.3-0.6c0.2,0.1,0.4,0.1,0.6,0.1c10.2,0,20.4,0,30.5,0c0.2,0,0.4,0,0.6,0c0,0.2,0,0.5,0,0.7
		C602.4,347.2,602.4,357.7,602.4,368.1z"/>
	<path class="st12" d="M602.4,368.1c0-10.4,0-20.9,0-31.3c0-0.2,0-0.5,0-0.7c0.5-0.3,1.1-0.6,1.6-0.9c4.7-2.6,9.4-5.2,14.1-7.8
		c0.7-0.4,1.5-0.8,2.2-1.3c0.1,0,0.2,0,0.2,0.1c0,0.2,0,0.3,0,0.5c0,10,0,19.9,0,29.9c0,0.4-0.1,0.7-0.5,0.9
		c-5.7,3.5-11.3,6.9-17,10.4C602.8,367.9,602.6,368,602.4,368.1z"/>
	<path class="st13" d="M620.3,326.1c-0.7,0.5-1.5,0.9-2.2,1.3c-4.7,2.6-9.4,5.2-14.1,7.8c-0.5,0.3-1.1,0.6-1.6,0.9
		c-0.2,0-0.4,0-0.6,0c-10.2,0-20.4,0-30.5,0c-0.2,0-0.4,0-0.6-0.1c0.6-0.5,1.4-0.8,2.1-1.2c5.1-2.8,10.1-5.7,15.2-8.5
		c0.2-0.1,0.5-0.2,0.8-0.2c10.4,0,20.8,0,31.1,0C620,326.1,620.1,326.1,620.3,326.1z"/>
</g>
<g>
	<path class="st7" d="M579,353.4c0-2,0.4-3.5,1.3-4.5s2.1-1.5,3.8-1.5c0.6,0,1,0,1.4,0.1v1.7c-0.4-0.1-0.8-0.1-1.2-0.1
		c-0.7,0-1.3,0.1-1.8,0.3s-0.8,0.5-1,1c-0.2,0.4-0.4,1-0.4,1.8h0.1c0.5-0.8,1.2-1.2,2.2-1.2c0.9,0,1.6,0.3,2.1,0.8
		c0.5,0.6,0.8,1.3,0.8,2.3c0,1.1-0.3,1.9-0.9,2.6c-0.6,0.6-1.4,0.9-2.5,0.9c-0.7,0-1.4-0.2-1.9-0.5c-0.6-0.3-1-0.8-1.3-1.5
		S579,354.3,579,353.4z M582.6,356.1c0.5,0,0.8-0.2,1-0.5c0.2-0.3,0.4-0.7,0.4-1.3c0-0.5-0.1-0.9-0.3-1.2c-0.2-0.3-0.6-0.4-1-0.4
		c-0.4,0-0.8,0.1-1.1,0.4s-0.5,0.6-0.5,1c0,0.5,0.1,1,0.4,1.4C581.8,355.9,582.2,356.1,582.6,356.1z"/>
	<path class="st7" d="M594.1,352.6c0,1.8-0.3,3.1-0.9,3.9s-1.5,1.3-2.7,1.3c-1.2,0-2-0.4-2.6-1.3c-0.6-0.9-0.9-2.2-0.9-3.9
		c0-1.8,0.3-3.1,0.9-3.9c0.6-0.8,1.5-1.3,2.7-1.3c1.2,0,2,0.4,2.6,1.3S594.1,350.9,594.1,352.6z M589.2,352.6c0,1.2,0.1,2.1,0.3,2.7
		c0.2,0.5,0.6,0.8,1.1,0.8c0.5,0,0.9-0.3,1.1-0.8c0.2-0.5,0.3-1.4,0.3-2.6c0-1.2-0.1-2.1-0.3-2.7c-0.2-0.5-0.6-0.8-1.1-0.8
		c-0.5,0-0.9,0.3-1.1,0.8C589.3,350.5,589.2,351.4,589.2,352.6z"/>
</g>
<g>
	<path class="st10" d="M582,293.1c-0.2,0-0.3,0-0.5,0c-10.4,0-20.8,0-31.1,0c-0.3,0-0.5,0.1-0.8,0.2c-5.1,2.8-10.1,5.7-15.2,8.5
		c-0.7,0.4-1.5,0.7-2.1,1.2c-0.4,0-0.3,0.3-0.3,0.6c0,10.4,0,20.7,0,31.1c0,0.4,0.1,0.6,0.5,0.6c10.4,0,20.7,0,31.1,0
		c0.2,0,0.3,0,0.5,0c0.2-0.1,0.4-0.2,0.6-0.3c5.7-3.5,11.3-6.9,17-10.4c0.4-0.2,0.5-0.5,0.5-0.9c0-10,0-19.9,0-29.9
		c0-0.2,0-0.3,0-0.5C582.2,293.1,582.1,293.1,582,293.1z"/>
	<path class="st11" d="M564.1,335.1c-0.2,0-0.3,0-0.5,0c-10.4,0-20.7,0-31.1,0c-0.5,0-0.5-0.1-0.5-0.6c0-10.4,0-20.7,0-31.1
		c0-0.2-0.1-0.5,0.3-0.6c0.2,0.1,0.4,0.1,0.6,0.1c10.2,0,20.4,0,30.5,0c0.2,0,0.4,0,0.6,0c0,0.2,0,0.5,0,0.7
		C564.1,314.2,564.1,324.7,564.1,335.1z"/>
	<path class="st12" d="M564.1,335.1c0-10.4,0-20.9,0-31.3c0-0.2,0-0.5,0-0.7c0.5-0.3,1.1-0.6,1.6-0.9c4.7-2.6,9.4-5.2,14.1-7.8
		c0.7-0.4,1.5-0.8,2.2-1.3c0.1,0,0.2,0,0.2,0.1c0,0.2,0,0.3,0,0.5c0,10,0,19.9,0,29.9c0,0.4-0.1,0.7-0.5,0.9
		c-5.7,3.5-11.3,6.9-17,10.4C564.5,334.9,564.3,335,564.1,335.1z"/>
	<path class="st13" d="M582,293.1c-0.7,0.5-1.5,0.9-2.2,1.3c-4.7,2.6-9.4,5.2-14.1,7.8c-0.5,0.3-1.1,0.6-1.6,0.9c-0.2,0-0.4,0-0.6,0
		c-10.2,0-20.4,0-30.5,0c-0.2,0-0.4,0-0.6-0.1c0.6-0.5,1.4-0.8,2.1-1.2c5.1-2.8,10.1-5.7,15.2-8.5c0.2-0.1,0.5-0.2,0.8-0.2
		c10.4,0,20.8,0,31.1,0C581.7,293,581.9,293,582,293.1z"/>
</g>
<g>
	<path class="st7" d="M548.8,324.8h-7v-1.5l2.5-2.6c0.7-0.8,1.2-1.3,1.5-1.6c0.2-0.3,0.4-0.6,0.5-0.8s0.2-0.5,0.2-0.8
		c0-0.4-0.1-0.7-0.3-0.9c-0.2-0.2-0.5-0.3-0.9-0.3c-0.4,0-0.8,0.1-1.1,0.3c-0.4,0.2-0.8,0.4-1.2,0.8l-1.2-1.4
		c0.5-0.4,0.9-0.7,1.2-0.9c0.3-0.2,0.7-0.3,1.1-0.4c0.4-0.1,0.8-0.1,1.3-0.1c0.6,0,1.2,0.1,1.7,0.3c0.5,0.2,0.9,0.6,1.1,1
		c0.3,0.4,0.4,0.9,0.4,1.4c0,0.5-0.1,0.9-0.2,1.3c-0.2,0.4-0.4,0.8-0.8,1.3s-0.9,1-1.8,1.8l-1.3,1.2v0.1h4.4V324.8z"/>
	<path class="st7" d="M556.8,319.8c0,1.8-0.3,3.1-0.9,3.9c-0.6,0.8-1.5,1.3-2.7,1.3c-1.2,0-2-0.4-2.6-1.3c-0.6-0.9-0.9-2.2-0.9-3.9
		c0-1.8,0.3-3.1,0.9-3.9c0.6-0.8,1.5-1.3,2.7-1.3c1.2,0,2,0.4,2.6,1.3S556.8,318.1,556.8,319.8z M551.9,319.8c0,1.2,0.1,2.1,0.3,2.7
		c0.2,0.5,0.6,0.8,1.1,0.8c0.5,0,0.9-0.3,1.1-0.8c0.2-0.5,0.3-1.4,0.3-2.6c0-1.2-0.1-2.1-0.3-2.7c-0.2-0.5-0.6-0.8-1.1-0.8
		c-0.5,0-0.9,0.3-1.1,0.8C552,317.6,551.9,318.5,551.9,319.8z"/>
</g>
</svg>
