<?xml version="1.0" encoding="utf-8"?>
<!-- Generator: Adobe Illustrator 23.0.3, SVG Export Plug-In . SVG Version: 6.00 Build 0)  -->
<svg version="1.1" id="Layer_1" xmlns="http://www.w3.org/2000/svg" xmlns:xlink="http://www.w3.org/1999/xlink" x="0px" y="0px"
	 viewBox="0 0 1400 156.2" style="enable-background:new 0 0 1400 156.2;" xml:space="preserve">
<style type="text/css">
	.st0{fill-rule:evenodd;clip-rule:evenodd;fill:#F8CCAD;}
	.st1{fill-rule:evenodd;clip-rule:evenodd;fill:#FFFFFF;}
	.st2{fill:#C45C28;}
	.st3{fill:#B7B7B7;}
	.st4{fill:#57451A;}
	.st5{enable-background:new    ;}
	.st6{fill:#595959;}
</style>
<polygon class="st0" points="169,-0.3 165.5,-0.3 165.5,155.2 169,155.2 "/>
<polygon class="st0" points="168.9,0.7 165.4,0.7 165.4,156.2 168.9,156.2 "/>
<path class="st1" d="M190,77.4c0,12.4-10.1,22.5-22.5,22.5S145,89.8,145,77.4l0,0c0-12.4,10.1-22.5,22.5-22.5S190,65,190,77.4"/>
<g>
	<path class="st2" d="M163.1,67.7l0.8,1.5c-1.6,0.8-3.1,2-4.2,3.3c-0.8,0.8-1.2,1.8-1.4,2.9c-0.1,0.4,0.2,0.7,0.6,0.8l0,0
		c0.1,0,0.1,0,0.2,0h0.6h0.8c2.3-0.1,4.3,1.7,4.4,4.1c0.1,2.3-1.7,4.3-4.1,4.4c-0.1,0-0.3,0-0.4,0c-1.5,0-2.9-0.6-3.9-1.8
		c-1.1-1.3-1.7-2.9-1.6-4.6c0.1-2.1,0.8-4.1,2.1-5.8C158.6,70.4,160.7,68.8,163.1,67.7z M176,67.7l0.8,1.5c-1.6,0.8-3.1,2-4.2,3.3
		c-0.7,0.8-1.2,1.8-1.3,2.9c-0.1,0.4,0.2,0.7,0.6,0.8l0,0c0.1,0,0.1,0,0.2,0h0.6h0.7c2.3,0,4.2,1.8,4.2,4.1l0,0v0.1
		c0,1.1-0.4,2.2-1.2,3s-1.9,1.2-3.1,1.2c-1.5,0-2.9-0.6-3.9-1.8c-1.1-1.3-1.6-2.9-1.6-4.6c0.1-2.1,0.8-4.1,2-5.7
		C171.4,70.4,173.6,68.8,176,67.7L176,67.7z"/>
</g>
<polygon class="st0" points="1231.7,0 1228.1,0 1228.1,155.5 1231.7,155.5 "/>
<path class="st1" d="M1208.5,76.3c0-12.2,9.9-22.1,22.2-22.1c12.2,0,22.1,9.9,22.1,22.2c0,12.2-9.9,22.1-22.1,22.1
	C1218.4,98.5,1208.5,88.6,1208.5,76.3"/>
<g>
	<g>
		<g>
			<g>
				<g>
					<g>
						<path class="st2" d="M1221.4,84.5l-0.8-1.5c1.6-0.8,3.1-2,4.3-3.3c0.7-0.8,1.2-1.8,1.3-2.9c0-0.5-0.3-0.8-0.8-0.8h-0.6
							l-0.7,0.1c-2.3,0-4.2-1.8-4.2-4.1l0,0v-0.1c0-1.1,0.4-2.2,1.2-3c0.8-0.8,1.9-1.2,3.1-1.2c1.5,0,2.9,0.6,3.8,1.8
							c1.1,1.3,1.7,2.9,1.6,4.6c-0.1,2.1-0.8,4.1-2.1,5.7C1225.9,81.8,1223.8,83.4,1221.4,84.5z M1234.3,84.5l-0.8-1.5
							c1.6-0.8,3.1-2,4.2-3.3c0.8-0.8,1.2-1.8,1.4-2.9c0.1-0.4-0.2-0.7-0.6-0.8l0,0c-0.1,0-0.1,0-0.2,0h-0.6h-0.8
							c-2.3,0.1-4.3-1.7-4.4-4.1c-0.1-2.3,1.7-4.3,4.1-4.4c0.1,0,0.3,0,0.4,0c1.5,0,2.9,0.7,3.9,1.9c1.1,1.3,1.7,2.9,1.6,4.6
							c-0.1,2.1-0.8,4.1-2.1,5.7C1238.8,81.8,1236.7,83.5,1234.3,84.5L1234.3,84.5z"/>
					</g>
				</g>
			</g>
		</g>
	</g>
</g>
<g>
	<g>
		<path class="st3" d="M213,51.5c-0.4,1-0.8,2.1-1.2,3.2c-0.4,1.1-0.9,2.3-1.4,3.4c-0.5,1.2-1,2.3-1.5,3.5s-1,2.3-1.5,3.3v8.8h-2.9
			v-8.6c-0.5-1-1-2.2-1.6-3.3s-1-2.3-1.5-3.5s-1-2.3-1.4-3.5s-0.9-2.2-1.2-3.3h3.1c0.6,1.7,1.2,3.5,1.9,5.3c0.7,1.9,1.4,3.6,2.2,5.2
			c0.7-1.6,1.5-3.4,2.2-5.2s1.3-3.7,1.9-5.3C210.1,51.5,213,51.5,213,51.5z"/>
		<path class="st3" d="M225,65.3c0,1.3-0.1,2.5-0.4,3.6c-0.2,1.1-0.6,2-1.1,2.8s-1.1,1.4-1.8,1.8s-1.6,0.6-2.6,0.6s-1.9-0.2-2.6-0.6
			c-0.7-0.4-1.4-1-1.8-1.8s-0.8-1.7-1.1-2.8c-0.2-1.1-0.4-2.3-0.4-3.6c0-1.3,0.1-2.5,0.4-3.6c0.2-1.1,0.6-2,1.1-2.8s1.1-1.4,1.8-1.8
			c0.7-0.4,1.6-0.6,2.6-0.6s1.9,0.2,2.6,0.6c0.7,0.4,1.3,1,1.8,1.8s0.8,1.7,1.1,2.8C224.8,62.8,225,64,225,65.3z M222.1,65.3
			c0-0.9-0.1-1.8-0.2-2.6c-0.1-0.8-0.3-1.5-0.5-2c-0.2-0.6-0.5-1-0.9-1.3s-0.8-0.5-1.4-0.5c-0.6,0-1,0.2-1.4,0.5s-0.7,0.7-0.9,1.3
			s-0.4,1.2-0.5,2s-0.2,1.6-0.2,2.6c0,0.9,0.1,1.8,0.2,2.6c0.1,0.8,0.3,1.4,0.5,2s0.6,1,0.9,1.3c0.4,0.3,0.8,0.5,1.4,0.5
			c0.5,0,1-0.2,1.4-0.5s0.7-0.7,0.9-1.3c0.2-0.6,0.4-1.2,0.5-2C222,67.1,222.1,66.2,222.1,65.3z"/>
		<path class="st3" d="M239.4,73.2c-0.3,0.1-0.6,0.2-1,0.3c-0.4,0.1-0.8,0.2-1.2,0.3c-0.4,0.1-0.9,0.1-1.3,0.2
			c-0.4,0.1-0.8,0.1-1.2,0.1c-0.9,0-1.7-0.1-2.4-0.3c-0.7-0.2-1.3-0.6-1.9-1.1c-0.5-0.5-0.9-1.2-1.2-2.1s-0.4-2-0.4-3.3V56.9h2.8
			v10.2c0,1.6,0.3,2.8,0.8,3.5s1.3,1,2.3,1c0.3,0,0.7,0,1,0s0.7-0.1,1.1-0.2V56.9h2.8v16.3H239.4z"/>
		<path class="st3" d="M250.6,73.7V49.3l2.8-0.5v8.1c0.4-0.1,0.8-0.2,1.3-0.3s1-0.1,1.5-0.1c0.7,0,1.4,0.1,2,0.3s1.2,0.6,1.6,1.1
			c0.5,0.5,0.8,1.3,1.1,2.2c0.3,0.9,0.4,2,0.4,3.4v10.1h-2.8v-9.9c0-1.7-0.2-2.9-0.6-3.6c-0.4-0.8-1.2-1.2-2.4-1.2
			c-0.6,0-1.3,0.1-2.1,0.3v14.4L250.6,73.7L250.6,73.7z"/>
		<path class="st3" d="M266.3,57.2c0.6-0.2,1.1-0.4,1.8-0.6c0.6-0.1,1.3-0.2,2-0.2c1.5,0,2.7,0.5,3.6,1.4s1.4,2.4,1.4,4.3v11.1
			c-0.8,0.2-1.6,0.4-2.4,0.5s-1.6,0.2-2.4,0.2s-1.5-0.1-2.2-0.3c-0.7-0.2-1.3-0.5-1.8-0.9s-0.9-1-1.2-1.6c-0.3-0.7-0.4-1.4-0.4-2.4
			c0-0.9,0.1-1.6,0.4-2.3c0.3-0.7,0.6-1.2,1.1-1.6s1-0.8,1.7-1s1.3-0.3,2.1-0.3c0.7,0,1.5,0.1,2.3,0.3v-1.5c0-1.2-0.2-2.1-0.7-2.6
			s-1.2-0.7-2.1-0.7c-0.5,0-1,0-1.4,0.1s-0.9,0.3-1.4,0.5L266.3,57.2z M267.6,68.8c0,1,0.3,1.7,0.8,2.2s1.2,0.7,2.2,0.7
			c0.6,0,1.2-0.1,1.9-0.2v-5.3c-0.6-0.2-1.3-0.3-1.9-0.3c-0.4,0-0.8,0-1.2,0.1c-0.4,0.1-0.7,0.3-0.9,0.5c-0.3,0.2-0.5,0.5-0.6,0.9
			C267.7,67.7,267.6,68.2,267.6,68.8z"/>
		<path class="st3" d="M283.5,70.4c0.3-0.9,0.5-1.9,0.8-3c0.3-1.2,0.6-2.3,0.8-3.6c0.3-1.2,0.5-2.4,0.8-3.7c0.2-1.2,0.5-2.3,0.6-3.3
			h2.8c-0.3,1.4-0.6,2.9-1,4.4c-0.4,1.6-0.8,3.1-1.2,4.6c-0.4,1.5-0.8,2.9-1.2,4.3c-0.4,1.3-0.8,2.5-1.1,3.5H282
			c-0.3-1-0.7-2.1-1.1-3.5c-0.4-1.3-0.8-2.8-1.2-4.3c-0.4-1.5-0.8-3-1.2-4.6c-0.4-1.6-0.7-3-1-4.4h2.9c0.2,1,0.4,2.1,0.6,3.3
			s0.5,2.4,0.8,3.7c0.3,1.2,0.5,2.4,0.8,3.6C283,68.6,283.2,69.6,283.5,70.4z"/>
		<path class="st3" d="M293.9,66.1c0,0.8,0.1,1.6,0.2,2.2c0.1,0.7,0.3,1.3,0.6,1.8c0.3,0.5,0.7,0.9,1.2,1.2c0.5,0.3,1.1,0.4,1.8,0.4
			c0.6,0,1.2-0.1,1.7-0.3c0.5-0.2,0.9-0.3,1.1-0.5l0.5,2.2c-0.3,0.2-0.7,0.4-1.4,0.6c-0.7,0.2-1.4,0.3-2.3,0.3c-1.2,0-2.2-0.2-3-0.6
			s-1.5-1-2-1.8s-0.9-1.7-1.1-2.8c-0.2-1.1-0.3-2.2-0.3-3.5c0-3.1,0.5-5.4,1.5-6.8s2.4-2.1,4.1-2.1c1.9,0,3.2,0.7,4,2.1
			c0.8,1.4,1.2,3.4,1.2,6c0,0.2,0,0.5,0,0.7s0,0.5,0,0.8h-7.8L293.9,66.1L293.9,66.1z M296.6,58.8c-0.9,0-1.6,0.5-2,1.4
			s-0.7,2.1-0.8,3.7h5.1c0-1.6-0.2-2.8-0.5-3.7C298.2,59.2,297.6,58.8,296.6,58.8z"/>
		<path class="st3" d="M314.7,56.9h4.2v2.4h-4.2v9.2c0,1.2,0.2,2,0.6,2.4c0.4,0.5,1,0.7,1.7,0.7c0.4,0,0.7-0.1,1-0.2
			s0.6-0.2,0.8-0.4l0.5,2.2c-0.9,0.5-1.8,0.8-2.8,0.8c-1.6,0-2.8-0.4-3.5-1.3c-0.8-0.9-1.2-2.4-1.2-4.4v-16l2.8-0.5v5.1
			C314.6,56.9,314.7,56.9,314.7,56.9z"/>
		<path class="st3" d="M333.1,65.3c0,1.3-0.1,2.5-0.4,3.6c-0.2,1.1-0.6,2-1.1,2.8s-1.1,1.4-1.8,1.8c-0.7,0.4-1.6,0.6-2.6,0.6
			s-1.9-0.2-2.6-0.6s-1.4-1-1.8-1.8s-0.8-1.7-1.1-2.8c-0.2-1.1-0.4-2.3-0.4-3.6c0-1.3,0.1-2.5,0.4-3.6c0.2-1.1,0.6-2,1.1-2.8
			s1.1-1.4,1.8-1.8c0.7-0.4,1.6-0.6,2.6-0.6s1.9,0.2,2.6,0.6c0.7,0.4,1.3,1,1.8,1.8s0.8,1.7,1.1,2.8C332.9,62.8,333.1,64,333.1,65.3
			z M330.2,65.3c0-0.9-0.1-1.8-0.2-2.6s-0.3-1.5-0.5-2c-0.2-0.6-0.5-1-0.9-1.3s-0.8-0.5-1.4-0.5s-1,0.2-1.4,0.5s-0.7,0.7-0.9,1.3
			c-0.2,0.6-0.4,1.2-0.5,2s-0.2,1.6-0.2,2.6c0,0.9,0.1,1.8,0.2,2.6c0.1,0.8,0.3,1.4,0.5,2s0.6,1,0.9,1.3c0.4,0.3,0.8,0.5,1.4,0.5
			c0.5,0,1-0.2,1.4-0.5s0.7-0.7,0.9-1.3c0.2-0.6,0.4-1.2,0.5-2S330.2,66.2,330.2,65.3z"/>
		<path class="st3" d="M353.7,73.2c-0.3,0.1-0.6,0.2-1,0.3c-0.4,0.1-0.8,0.2-1.2,0.3c-0.4,0.1-0.9,0.1-1.3,0.2s-0.8,0.1-1.2,0.1
			c-0.9,0-1.7-0.1-2.4-0.3c-0.7-0.2-1.3-0.6-1.9-1.1c-0.5-0.5-0.9-1.2-1.2-2.1c-0.3-0.9-0.4-2-0.4-3.3V56.9h2.8v10.2
			c0,1.6,0.3,2.8,0.8,3.5s1.3,1,2.3,1c0.3,0,0.7,0,1,0s0.7-0.1,1.1-0.2V56.9h2.8v16.3H353.7z"/>
		<path class="st3" d="M358.7,57.3c0.8-0.2,1.6-0.4,2.6-0.6c0.9-0.2,1.8-0.2,2.5-0.2c0.8,0,1.6,0.1,2.3,0.3c0.7,0.2,1.3,0.6,1.7,1.1
			c0.5,0.5,0.9,1.3,1.1,2.2c0.3,0.9,0.4,2,0.4,3.4v10.1h-2.8v-9.9c0-1.7-0.2-2.9-0.6-3.6c-0.4-0.8-1.2-1.2-2.4-1.2
			c-0.6,0-1.3,0.1-2.1,0.3v14.4h-2.8L358.7,57.3L358.7,57.3z"/>
		<path class="st3" d="M381.3,49.3l2.8-0.5v24.4c-0.6,0.3-1.3,0.5-2,0.6c-0.8,0.2-1.5,0.2-2.3,0.2c-2.3,0-4-0.7-5-2.2
			s-1.6-3.7-1.6-6.7c0-1.3,0.1-2.6,0.3-3.6c0.2-1.1,0.6-2,1.1-2.8s1.1-1.3,1.8-1.8c0.7-0.4,1.6-0.6,2.7-0.6c0.5,0,0.9,0,1.3,0.1
			s0.7,0.2,1,0.4L381.3,49.3L381.3,49.3z M381.3,59.4c-0.6-0.3-1.3-0.5-2-0.5c-0.5,0-1,0.1-1.4,0.3s-0.8,0.6-1,1.1
			c-0.3,0.5-0.5,1.1-0.7,2c-0.1,0.8-0.2,1.8-0.2,3c0,2.3,0.3,4,0.9,4.9c0.6,1,1.5,1.5,2.8,1.5c0.2,0,0.5,0,0.8,0s0.6-0.1,0.9-0.2
			L381.3,59.4L381.3,59.4z"/>
		<path class="st3" d="M390.9,66.1c0,0.8,0.1,1.6,0.2,2.2c0.1,0.7,0.3,1.3,0.6,1.8c0.3,0.5,0.7,0.9,1.2,1.2c0.5,0.3,1.1,0.4,1.8,0.4
			c0.6,0,1.2-0.1,1.7-0.3c0.5-0.2,0.9-0.3,1.1-0.5l0.5,2.2c-0.3,0.2-0.7,0.4-1.4,0.6c-0.7,0.2-1.4,0.3-2.3,0.3c-1.2,0-2.2-0.2-3-0.6
			s-1.5-1-2-1.8s-0.9-1.7-1.1-2.8c-0.2-1.1-0.3-2.2-0.3-3.5c0-3.1,0.5-5.4,1.5-6.8s2.4-2.1,4.1-2.1c1.9,0,3.2,0.7,4,2.1
			c0.8,1.4,1.2,3.4,1.2,6c0,0.2,0,0.5,0,0.7s0,0.5,0,0.8h-7.8L390.9,66.1L390.9,66.1z M393.7,58.8c-0.9,0-1.6,0.5-2,1.4
			s-0.7,2.1-0.8,3.7h5.1c0-1.6-0.2-2.8-0.5-3.7C395.3,59.2,394.6,58.8,393.7,58.8z"/>
		<path class="st3" d="M410.3,59.3c-0.7-0.3-1.5-0.4-2.3-0.4s-1.5,0.1-2.2,0.4v14.3H403v-16c0.6-0.3,1.3-0.5,2.1-0.8
			c0.8-0.2,1.7-0.3,2.6-0.3c0.5,0,1,0,1.5,0.1s1,0.2,1.4,0.4L410.3,59.3z"/>
		<path class="st3" d="M415.8,71.7c0.8,0,1.4-0.2,1.8-0.7s0.6-1.1,0.6-1.8c0-0.5-0.1-0.9-0.3-1.2c-0.2-0.3-0.4-0.6-0.7-0.9
			c-0.3-0.3-0.6-0.5-1-0.7s-0.7-0.4-1.1-0.7c-0.4-0.2-0.7-0.5-1.1-0.8c-0.3-0.3-0.6-0.6-0.9-1s-0.5-0.8-0.6-1.3s-0.2-1-0.2-1.7
			c0-1.4,0.4-2.5,1.3-3.4s2-1.3,3.5-1.3c0.6,0,1.2,0.1,1.8,0.2c0.6,0.2,1,0.3,1.4,0.5l-0.6,2.2c-0.4-0.2-0.8-0.4-1.2-0.5
			c-0.4-0.1-0.8-0.2-1.2-0.2c-0.7,0-1.2,0.2-1.6,0.6c-0.4,0.4-0.6,1-0.6,1.7c0,0.4,0.1,0.8,0.2,1.1s0.3,0.6,0.6,0.8
			c0.2,0.2,0.5,0.5,0.8,0.7s0.6,0.4,1,0.6c0.4,0.2,0.8,0.5,1.2,0.8c0.4,0.3,0.7,0.6,1.1,1c0.3,0.4,0.6,0.8,0.8,1.3
			c0.2,0.5,0.3,1.1,0.3,1.8c0,1.5-0.4,2.7-1.3,3.6s-2.1,1.3-3.8,1.3c-0.9,0-1.6-0.1-2.3-0.4c-0.7-0.2-1.2-0.4-1.5-0.6l0.6-2.3
			c0.3,0.2,0.8,0.4,1.3,0.6C414.6,71.6,415.2,71.7,415.8,71.7z"/>
		<path class="st3" d="M427,56.9h4.2v2.4H427v9.2c0,1.2,0.2,2,0.6,2.4c0.4,0.5,1,0.7,1.7,0.7c0.4,0,0.7-0.1,1-0.2s0.6-0.2,0.8-0.4
			l0.5,2.2c-0.9,0.5-1.8,0.8-2.8,0.8c-1.6,0-2.8-0.4-3.5-1.3c-0.8-0.9-1.2-2.4-1.2-4.4v-16l2.8-0.5v5.1
			C426.9,56.9,427,56.9,427,56.9z"/>
		<path class="st3" d="M434.9,57.2c0.6-0.2,1.1-0.4,1.8-0.6c0.6-0.1,1.3-0.2,2-0.2c1.5,0,2.7,0.5,3.6,1.4s1.4,2.4,1.4,4.3v11.1
			c-0.8,0.2-1.6,0.4-2.4,0.5s-1.6,0.2-2.4,0.2s-1.5-0.1-2.2-0.3c-0.7-0.2-1.3-0.5-1.8-0.9s-0.9-1-1.2-1.6c-0.3-0.7-0.4-1.4-0.4-2.4
			c0-0.9,0.1-1.6,0.4-2.3c0.3-0.7,0.6-1.2,1.1-1.6s1-0.8,1.7-1s1.3-0.3,2.1-0.3c0.7,0,1.5,0.1,2.3,0.3v-1.5c0-1.2-0.2-2.1-0.7-2.6
			S439,59,438.1,59c-0.5,0-1,0-1.4,0.1s-0.9,0.3-1.4,0.5L434.9,57.2z M436.3,68.8c0,1,0.3,1.7,0.8,2.2s1.2,0.7,2.2,0.7
			c0.6,0,1.2-0.1,1.9-0.2v-5.3c-0.6-0.2-1.3-0.3-1.9-0.3c-0.4,0-0.8,0-1.2,0.1c-0.4,0.1-0.7,0.3-0.9,0.5c-0.3,0.2-0.5,0.5-0.6,0.9
			C436.3,67.7,436.3,68.2,436.3,68.8z"/>
		<path class="st3" d="M448.6,57.3c0.8-0.2,1.6-0.4,2.6-0.6c0.9-0.2,1.8-0.2,2.5-0.2c0.8,0,1.6,0.1,2.3,0.3c0.7,0.2,1.3,0.6,1.7,1.1
			c0.5,0.5,0.9,1.3,1.1,2.2c0.3,0.9,0.4,2,0.4,3.4v10.1h-2.8v-9.9c0-1.7-0.2-2.9-0.6-3.6c-0.4-0.8-1.2-1.2-2.4-1.2
			c-0.6,0-1.3,0.1-2.1,0.3v14.4h-2.8L448.6,57.3L448.6,57.3z"/>
		<path class="st3" d="M471.2,49.3l2.8-0.5v24.4c-0.6,0.3-1.3,0.5-2,0.6c-0.8,0.2-1.5,0.2-2.3,0.2c-2.3,0-4-0.7-5-2.2
			s-1.6-3.7-1.6-6.7c0-1.3,0.1-2.6,0.3-3.6c0.2-1.1,0.6-2,1.1-2.8s1.1-1.3,1.8-1.8c0.7-0.4,1.6-0.6,2.7-0.6c0.5,0,0.9,0,1.3,0.1
			s0.7,0.2,1,0.4L471.2,49.3L471.2,49.3z M471.2,59.4c-0.6-0.3-1.3-0.5-2-0.5c-0.5,0-1,0.1-1.4,0.3s-0.8,0.6-1,1.1
			c-0.3,0.5-0.5,1.1-0.7,2c-0.1,0.8-0.2,1.8-0.2,3c0,2.3,0.3,4,0.9,4.9c0.6,1,1.5,1.5,2.8,1.5c0.2,0,0.5,0,0.8,0s0.6-0.1,0.9-0.2
			L471.2,59.4L471.2,59.4z"/>
		<path class="st3" d="M492.3,51.5c0.5,1.6,1,3.2,1.5,4.8s1,3.3,1.5,5.1s1,3.7,1.4,5.7c0.5,2,1,4.2,1.4,6.5h-2.9
			c-0.2-1-0.3-1.9-0.5-2.8s-0.4-1.9-0.6-2.8h-7c-0.2,0.9-0.4,1.9-0.6,2.8s-0.3,1.9-0.5,2.8h-2.8c0.5-2.3,1-4.5,1.4-6.5
			c0.5-2,1-3.9,1.5-5.7s1-3.5,1.5-5.1s1-3.2,1.5-4.9h3.2V51.5z M490.7,54.7c-0.5,1.8-1,3.6-1.5,5.4c-0.5,1.8-1,3.6-1.4,5.5h5.8
			c-0.4-1.9-0.9-3.7-1.4-5.5C491.7,58.3,491.2,56.5,490.7,54.7z"/>
		<path class="st3" d="M506.4,74.1c-1.2,0-2.1-0.2-2.9-0.7c-0.8-0.4-1.4-1.1-1.9-1.8c-0.5-0.8-0.8-1.7-1-2.8s-0.3-2.2-0.3-3.5
			c0-2.8,0.5-4.9,1.5-6.5s2.5-2.4,4.6-2.4c0.6,0,1.2,0.1,1.7,0.2c0.5,0.1,0.9,0.3,1.4,0.6l-0.7,2.3c-0.7-0.4-1.4-0.6-2.2-0.6
			c-1.2,0-2,0.5-2.5,1.6s-0.8,2.7-0.8,4.9c0,0.9,0.1,1.8,0.2,2.5c0.1,0.8,0.3,1.4,0.6,2c0.3,0.6,0.6,1,1.1,1.3
			c0.4,0.3,1,0.5,1.7,0.5c0.5,0,0.9-0.1,1.3-0.2s0.7-0.3,1.1-0.5l0.6,2.1c-0.3,0.2-0.8,0.4-1.4,0.6C507.7,74,507.1,74.1,506.4,74.1z
			"/>
		<path class="st3" d="M517.5,74.1c-1.2,0-2.1-0.2-2.9-0.7c-0.8-0.4-1.4-1.1-1.9-1.8c-0.5-0.8-0.8-1.7-1-2.8s-0.3-2.2-0.3-3.5
			c0-2.8,0.5-4.9,1.5-6.5s2.5-2.4,4.6-2.4c0.6,0,1.2,0.1,1.7,0.2c0.5,0.1,0.9,0.3,1.4,0.6l-0.7,2.3c-0.7-0.4-1.4-0.6-2.2-0.6
			c-1.2,0-2,0.5-2.5,1.6s-0.8,2.7-0.8,4.9c0,0.9,0.1,1.8,0.2,2.5c0.1,0.8,0.3,1.4,0.6,2s0.6,1,1.1,1.3c0.4,0.3,1,0.5,1.7,0.5
			c0.5,0,0.9-0.1,1.3-0.2c0.4-0.1,0.7-0.3,1.1-0.5l0.6,2.1c-0.3,0.2-0.8,0.4-1.4,0.6C518.8,74,518.2,74.1,517.5,74.1z"/>
		<path class="st3" d="M534.3,65.3c0,1.3-0.1,2.5-0.4,3.6c-0.2,1.1-0.6,2-1.1,2.8s-1.1,1.4-1.8,1.8s-1.6,0.6-2.6,0.6
			s-1.9-0.2-2.6-0.6c-0.7-0.4-1.4-1-1.8-1.8s-0.8-1.7-1.1-2.8c-0.2-1.1-0.4-2.3-0.4-3.6c0-1.3,0.1-2.5,0.4-3.6
			c0.2-1.1,0.6-2,1.1-2.8s1.1-1.4,1.8-1.8c0.7-0.4,1.6-0.6,2.6-0.6s1.9,0.2,2.6,0.6c0.7,0.4,1.3,1,1.8,1.8s0.8,1.7,1.1,2.8
			C534.2,62.8,534.3,64,534.3,65.3z M531.5,65.3c0-0.9-0.1-1.8-0.2-2.6c-0.1-0.8-0.3-1.5-0.5-2c-0.2-0.6-0.5-1-0.9-1.3
			s-0.8-0.5-1.4-0.5c-0.6,0-1,0.2-1.4,0.5s-0.7,0.7-0.9,1.3s-0.4,1.2-0.5,2s-0.2,1.6-0.2,2.6c0,0.9,0.1,1.8,0.2,2.6
			c0.1,0.8,0.3,1.4,0.5,2s0.6,1,0.9,1.3c0.4,0.3,0.8,0.5,1.4,0.5c0.5,0,1-0.2,1.4-0.5s0.7-0.7,0.9-1.3c0.2-0.6,0.4-1.2,0.5-2
			C531.4,67.1,531.5,66.2,531.5,65.3z"/>
		<path class="st3" d="M548.8,73.2c-0.3,0.1-0.6,0.2-1,0.3c-0.4,0.1-0.8,0.2-1.2,0.3c-0.4,0.1-0.9,0.1-1.3,0.2
			c-0.4,0.1-0.8,0.1-1.2,0.1c-0.9,0-1.7-0.1-2.4-0.3c-0.7-0.2-1.3-0.6-1.9-1.1c-0.5-0.5-0.9-1.2-1.2-2.1s-0.4-2-0.4-3.3V56.9h2.8
			v10.2c0,1.6,0.3,2.8,0.8,3.5s1.3,1,2.3,1c0.3,0,0.7,0,1,0s0.7-0.1,1.1-0.2V56.9h2.8v16.3H548.8z"/>
		<path class="st3" d="M553.7,57.3c0.8-0.2,1.6-0.4,2.6-0.6c0.9-0.2,1.8-0.2,2.5-0.2c0.8,0,1.6,0.1,2.3,0.3s1.3,0.6,1.7,1.1
			c0.5,0.5,0.9,1.3,1.1,2.2c0.3,0.9,0.4,2,0.4,3.4v10.1h-2.8v-9.9c0-1.7-0.2-2.9-0.6-3.6c-0.4-0.8-1.2-1.2-2.4-1.2
			c-0.6,0-1.3,0.1-2.1,0.3v14.4h-2.8L553.7,57.3L553.7,57.3z"/>
		<path class="st3" d="M571.7,56.9h4.2v2.4h-4.2v9.2c0,1.2,0.2,2,0.6,2.4c0.4,0.5,1,0.7,1.7,0.7c0.4,0,0.7-0.1,1-0.2
			s0.6-0.2,0.8-0.4l0.5,2.2c-0.9,0.5-1.8,0.8-2.8,0.8c-1.6,0-2.8-0.4-3.5-1.3c-0.8-0.9-1.2-2.4-1.2-4.4v-16l2.8-0.5v5.1
			C571.6,56.9,571.7,56.9,571.7,56.9z"/>
		<path class="st3" d="M580.8,53.9c-0.5,0-0.9-0.2-1.3-0.5c-0.4-0.3-0.5-0.8-0.5-1.3c0-0.6,0.2-1,0.5-1.3c0.4-0.3,0.8-0.5,1.3-0.5
			s0.9,0.2,1.3,0.5c0.4,0.3,0.5,0.8,0.5,1.3c0,0.6-0.2,1-0.5,1.3C581.7,53.7,581.3,53.9,580.8,53.9z M582.2,73.7h-2.8V56.9h2.8V73.7
			z"/>
		<path class="st3" d="M587.2,57.3c0.8-0.2,1.6-0.4,2.6-0.6c0.9-0.2,1.8-0.2,2.5-0.2c0.8,0,1.6,0.1,2.3,0.3s1.3,0.6,1.7,1.1
			c0.5,0.5,0.9,1.3,1.1,2.2c0.3,0.9,0.4,2,0.4,3.4v10.1H595v-9.9c0-1.7-0.2-2.9-0.6-3.6c-0.4-0.8-1.2-1.2-2.4-1.2
			c-0.6,0-1.3,0.1-2.1,0.3v14.4h-2.8L587.2,57.3L587.2,57.3z"/>
		<path class="st3" d="M612.6,73.2c0,1.2-0.2,2.2-0.5,3s-0.7,1.5-1.3,2c-0.5,0.5-1.2,0.9-1.9,1.1s-1.5,0.4-2.3,0.4
			c-0.7,0-1.4-0.1-2-0.2c-0.7-0.1-1.3-0.4-1.9-0.7l0.6-2.3c0.4,0.2,0.9,0.4,1.4,0.6c0.6,0.2,1.1,0.3,1.7,0.3c1,0,1.9-0.3,2.5-0.9
			s0.9-1.6,0.9-3.1v-0.8c-0.3,0.1-0.7,0.3-1.1,0.4c-0.4,0.1-0.8,0.1-1.3,0.1c-2,0-3.5-0.7-4.4-2.1s-1.4-3.3-1.4-5.8
			c0-1.3,0.1-2.6,0.4-3.6c0.2-1.1,0.6-2,1.2-2.8c0.5-0.8,1.2-1.3,2-1.7s1.8-0.6,3-0.6c0.8,0,1.6,0.1,2.3,0.2c0.8,0.2,1.4,0.4,2,0.6
			L612.6,73.2L612.6,73.2z M609.8,59.1c-0.3-0.1-0.6-0.1-0.9-0.2c-0.3,0-0.5,0-0.8,0c-1.3,0-2.2,0.5-2.8,1.5s-0.9,2.6-0.9,4.8
			c0,2,0.3,3.4,0.9,4.2c0.6,0.8,1.4,1.2,2.5,1.2c0.4,0,0.7,0,1-0.1s0.6-0.2,0.9-0.4L609.8,59.1L609.8,59.1z"/>
		<path class="st3" d="M624,57.2c0.6-0.2,1.1-0.4,1.8-0.6c0.6-0.1,1.3-0.2,2-0.2c1.5,0,2.7,0.5,3.6,1.4c0.9,0.9,1.4,2.4,1.4,4.3
			v11.1c-0.8,0.2-1.6,0.4-2.4,0.5c-0.8,0.1-1.6,0.2-2.4,0.2s-1.5-0.1-2.2-0.3c-0.7-0.2-1.3-0.5-1.8-0.9s-0.9-1-1.2-1.6
			c-0.3-0.7-0.4-1.4-0.4-2.4c0-0.9,0.1-1.6,0.4-2.3c0.3-0.7,0.6-1.2,1.1-1.6s1-0.8,1.7-1s1.3-0.3,2.1-0.3c0.7,0,1.5,0.1,2.3,0.3
			v-1.5c0-1.2-0.2-2.1-0.7-2.6s-1.2-0.7-2.1-0.7c-0.5,0-1,0-1.4,0.1s-0.9,0.3-1.4,0.5L624,57.2z M625.3,68.8c0,1,0.3,1.7,0.8,2.2
			s1.2,0.7,2.2,0.7c0.6,0,1.2-0.1,1.9-0.2v-5.3c-0.6-0.2-1.3-0.3-1.9-0.3c-0.4,0-0.8,0-1.2,0.1s-0.7,0.3-0.9,0.5
			c-0.3,0.2-0.5,0.5-0.6,0.9C625.4,67.7,625.3,68.2,625.3,68.8z"/>
		<path class="st3" d="M637.7,57.3c0.8-0.2,1.6-0.4,2.6-0.6c0.9-0.2,1.8-0.2,2.5-0.2c0.8,0,1.6,0.1,2.3,0.3s1.3,0.6,1.7,1.1
			c0.5,0.5,0.9,1.3,1.1,2.2c0.3,0.9,0.4,2,0.4,3.4v10.1h-2.8v-9.9c0-1.7-0.2-2.9-0.6-3.6c-0.4-0.8-1.2-1.2-2.4-1.2
			c-0.6,0-1.3,0.1-2.1,0.3v14.4h-2.8L637.7,57.3L637.7,57.3z"/>
		<path class="st3" d="M660.3,49.3l2.8-0.5v24.4c-0.6,0.3-1.3,0.5-2,0.6c-0.8,0.2-1.5,0.2-2.3,0.2c-2.3,0-4-0.7-5-2.2
			s-1.6-3.7-1.6-6.7c0-1.3,0.1-2.6,0.3-3.6c0.2-1.1,0.6-2,1.1-2.8s1.1-1.3,1.8-1.8c0.7-0.4,1.6-0.6,2.7-0.6c0.5,0,0.9,0,1.3,0.1
			c0.4,0.1,0.7,0.2,1,0.4L660.3,49.3L660.3,49.3z M660.3,59.4c-0.6-0.3-1.3-0.5-2-0.5c-0.5,0-1,0.1-1.4,0.3s-0.8,0.6-1,1.1
			c-0.3,0.5-0.5,1.1-0.7,2c-0.1,0.8-0.2,1.8-0.2,3c0,2.3,0.3,4,0.9,4.9c0.6,1,1.5,1.5,2.8,1.5c0.2,0,0.5,0,0.8,0s0.6-0.1,0.9-0.2
			L660.3,59.4L660.3,59.4z"/>
		<path class="st3" d="M676.8,56.9h4.2v2.4h-4.2v9.2c0,1.2,0.2,2,0.6,2.4c0.4,0.5,1,0.7,1.7,0.7c0.4,0,0.7-0.1,1-0.2
			s0.6-0.2,0.8-0.4l0.5,2.2c-0.9,0.5-1.8,0.8-2.8,0.8c-1.6,0-2.8-0.4-3.5-1.3c-0.8-0.9-1.2-2.4-1.2-4.4v-16l2.8-0.5v5.1
			C676.7,56.9,676.8,56.9,676.8,56.9z"/>
		<path class="st3" d="M684.5,73.7V49.3l2.8-0.5v8.1c0.4-0.1,0.8-0.2,1.3-0.3s1-0.1,1.5-0.1c0.7,0,1.4,0.1,2,0.3s1.2,0.6,1.6,1.1
			c0.5,0.5,0.8,1.3,1.1,2.2s0.4,2,0.4,3.4v10.1h-2.8v-9.9c0-1.7-0.2-2.9-0.6-3.6c-0.4-0.8-1.2-1.2-2.4-1.2c-0.6,0-1.3,0.1-2.1,0.3
			v14.4L684.5,73.7L684.5,73.7z"/>
		<path class="st3" d="M701.9,66.1c0,0.8,0.1,1.6,0.2,2.2c0.1,0.7,0.3,1.3,0.6,1.8s0.7,0.9,1.2,1.2c0.5,0.3,1.1,0.4,1.8,0.4
			c0.6,0,1.2-0.1,1.7-0.3c0.5-0.2,0.9-0.3,1.1-0.5l0.5,2.2c-0.3,0.2-0.7,0.4-1.4,0.6s-1.4,0.3-2.3,0.3c-1.2,0-2.2-0.2-3-0.6
			s-1.5-1-2-1.8s-0.9-1.7-1.1-2.8c-0.2-1.1-0.3-2.2-0.3-3.5c0-3.1,0.5-5.4,1.5-6.8s2.4-2.1,4.1-2.1c1.9,0,3.2,0.7,4,2.1
			c0.8,1.4,1.2,3.4,1.2,6c0,0.2,0,0.5,0,0.7s0,0.5,0,0.8h-7.8V66.1z M704.6,58.8c-0.9,0-1.6,0.5-2,1.4s-0.7,2.1-0.8,3.7h5.1
			c0-1.6-0.2-2.8-0.5-3.7C706.2,59.2,705.6,58.8,704.6,58.8z"/>
		<path class="st3" d="M720.2,57.3c0.8-0.2,1.6-0.4,2.6-0.6c0.9-0.2,1.8-0.2,2.5-0.2c0.8,0,1.6,0.1,2.3,0.3s1.3,0.6,1.7,1.1
			c0.5,0.5,0.9,1.3,1.1,2.2c0.3,0.9,0.4,2,0.4,3.4v10.1H728v-9.9c0-1.7-0.2-2.9-0.6-3.6s-1.2-1.2-2.4-1.2c-0.6,0-1.3,0.1-2.1,0.3
			v14.4h-2.8L720.2,57.3L720.2,57.3z"/>
		<path class="st3" d="M746,73.2c-0.3,0.1-0.6,0.2-1,0.3c-0.4,0.1-0.8,0.2-1.2,0.3c-0.4,0.1-0.9,0.1-1.3,0.2
			c-0.4,0.1-0.8,0.1-1.2,0.1c-0.9,0-1.7-0.1-2.4-0.3c-0.7-0.2-1.3-0.6-1.9-1.1c-0.5-0.5-0.9-1.2-1.2-2.1s-0.4-2-0.4-3.3V56.9h2.8
			v10.2c0,1.6,0.3,2.8,0.8,3.5s1.3,1,2.3,1c0.3,0,0.7,0,1,0s0.7-0.1,1.1-0.2V56.9h2.8v16.3H746z"/>
		<path class="st3" d="M751.2,57.2c0.6-0.2,1.1-0.4,1.8-0.6s1.3-0.2,2-0.2c1.5,0,2.7,0.5,3.6,1.4c0.9,0.9,1.4,2.4,1.4,4.3v11.1
			c-0.8,0.2-1.6,0.4-2.4,0.5c-0.8,0.1-1.6,0.2-2.4,0.2c-0.8,0-1.5-0.1-2.2-0.3s-1.3-0.5-1.8-0.9s-0.9-1-1.2-1.6
			c-0.3-0.7-0.4-1.4-0.4-2.4c0-0.9,0.1-1.6,0.4-2.3s0.6-1.2,1.1-1.6s1-0.8,1.7-1c0.6-0.2,1.3-0.3,2.1-0.3c0.7,0,1.5,0.1,2.3,0.3
			v-1.5c0-1.2-0.2-2.1-0.7-2.6s-1.2-0.7-2.1-0.7c-0.5,0-1,0-1.4,0.1s-0.9,0.3-1.4,0.5L751.2,57.2z M752.5,68.8c0,1,0.3,1.7,0.8,2.2
			s1.2,0.7,2.2,0.7c0.6,0,1.2-0.1,1.9-0.2v-5.3c-0.6-0.2-1.3-0.3-1.9-0.3c-0.4,0-0.8,0-1.2,0.1s-0.7,0.3-0.9,0.5
			c-0.3,0.2-0.5,0.5-0.6,0.9C752.6,67.7,752.5,68.2,752.5,68.8z"/>
		<path class="st3" d="M764.8,57.3c0.8-0.2,1.6-0.4,2.6-0.6c0.9-0.2,1.8-0.2,2.5-0.2c0.8,0,1.6,0.1,2.3,0.3s1.3,0.6,1.7,1.1
			c0.5,0.5,0.9,1.3,1.1,2.2c0.3,0.9,0.4,2,0.4,3.4v10.1h-2.8v-9.9c0-1.7-0.2-2.9-0.6-3.6s-1.2-1.2-2.4-1.2c-0.6,0-1.3,0.1-2.1,0.3
			v14.4h-2.8L764.8,57.3L764.8,57.3z"/>
		<path class="st3" d="M785.4,74.1c-1.2,0-2.1-0.2-2.9-0.7c-0.8-0.4-1.4-1.1-1.9-1.8c-0.5-0.8-0.8-1.7-1-2.8s-0.3-2.2-0.3-3.5
			c0-2.8,0.5-4.9,1.5-6.5s2.5-2.4,4.6-2.4c0.6,0,1.2,0.1,1.7,0.2c0.5,0.1,0.9,0.3,1.4,0.6l-0.7,2.3c-0.7-0.4-1.4-0.6-2.2-0.6
			c-1.2,0-2,0.5-2.5,1.6s-0.8,2.7-0.8,4.9c0,0.9,0.1,1.8,0.2,2.5c0.1,0.8,0.3,1.4,0.6,2s0.6,1,1.1,1.3c0.4,0.3,1,0.5,1.7,0.5
			c0.5,0,0.9-0.1,1.3-0.2s0.7-0.3,1.1-0.5l0.6,2.1c-0.3,0.2-0.8,0.4-1.4,0.6S786,74.1,785.4,74.1z"/>
		<path class="st3" d="M793.3,66.1c0,0.8,0.1,1.6,0.2,2.2c0.1,0.7,0.3,1.3,0.6,1.8s0.7,0.9,1.2,1.2c0.5,0.3,1.1,0.4,1.8,0.4
			c0.6,0,1.2-0.1,1.7-0.3c0.5-0.2,0.9-0.3,1.1-0.5l0.5,2.2c-0.3,0.2-0.7,0.4-1.4,0.6s-1.4,0.3-2.3,0.3c-1.2,0-2.2-0.2-3-0.6
			s-1.5-1-2-1.8s-0.9-1.7-1.1-2.8c-0.2-1.1-0.3-2.2-0.3-3.5c0-3.1,0.5-5.4,1.5-6.8c1-1.4,2.4-2.1,4.1-2.1c1.9,0,3.2,0.7,4,2.1
			c0.8,1.4,1.2,3.4,1.2,6c0,0.2,0,0.5,0,0.7s0,0.5,0,0.8h-7.8V66.1z M796.1,58.8c-0.9,0-1.6,0.5-2,1.4s-0.7,2.1-0.8,3.7h5.1
			c0-1.6-0.2-2.8-0.5-3.7C797.6,59.2,797,58.8,796.1,58.8z"/>
		<path class="st3" d="M807.7,71.7c0.8,0,1.4-0.2,1.8-0.7c0.4-0.5,0.6-1.1,0.6-1.8c0-0.5-0.1-0.9-0.3-1.2c-0.2-0.3-0.4-0.6-0.7-0.9
			s-0.6-0.5-1-0.7s-0.7-0.4-1.1-0.7c-0.4-0.2-0.7-0.5-1.1-0.8c-0.3-0.3-0.6-0.6-0.9-1c-0.3-0.4-0.5-0.8-0.6-1.3s-0.2-1-0.2-1.7
			c0-1.4,0.4-2.5,1.3-3.4c0.9-0.9,2-1.3,3.5-1.3c0.6,0,1.2,0.1,1.8,0.2c0.6,0.2,1,0.3,1.4,0.5l-0.6,2.2c-0.4-0.2-0.8-0.4-1.2-0.5
			s-0.8-0.2-1.2-0.2c-0.7,0-1.2,0.2-1.6,0.6c-0.4,0.4-0.6,1-0.6,1.7c0,0.4,0.1,0.8,0.2,1.1c0.1,0.3,0.3,0.6,0.6,0.8
			c0.2,0.2,0.5,0.5,0.8,0.7s0.6,0.4,1,0.6c0.4,0.2,0.8,0.5,1.2,0.8s0.7,0.6,1.1,1c0.3,0.4,0.6,0.8,0.8,1.3s0.3,1.1,0.3,1.8
			c0,1.5-0.4,2.7-1.3,3.6s-2.1,1.3-3.8,1.3c-0.9,0-1.6-0.1-2.3-0.4c-0.7-0.2-1.2-0.4-1.5-0.6l0.6-2.3c0.3,0.2,0.8,0.4,1.3,0.6
			C806.4,71.6,807,71.7,807.7,71.7z"/>
		<path class="st3" d="M833.3,65.3c0,1.3-0.1,2.5-0.4,3.6c-0.2,1.1-0.6,2-1.1,2.8s-1.1,1.4-1.8,1.8s-1.6,0.6-2.6,0.6
			s-1.9-0.2-2.6-0.6c-0.7-0.4-1.4-1-1.8-1.8c-0.5-0.8-0.8-1.7-1.1-2.8c-0.2-1.1-0.4-2.3-0.4-3.6c0-1.3,0.1-2.5,0.4-3.6
			c0.2-1.1,0.6-2,1.1-2.8s1.1-1.4,1.8-1.8c0.7-0.4,1.6-0.6,2.6-0.6s1.9,0.2,2.6,0.6c0.7,0.4,1.3,1,1.8,1.8s0.8,1.7,1.1,2.8
			C833.2,62.8,833.3,64,833.3,65.3z M830.4,65.3c0-0.9-0.1-1.8-0.2-2.6c-0.1-0.8-0.3-1.5-0.5-2c-0.2-0.6-0.5-1-0.9-1.3
			s-0.8-0.5-1.4-0.5c-0.6,0-1,0.2-1.4,0.5s-0.7,0.7-0.9,1.3s-0.4,1.2-0.5,2s-0.2,1.6-0.2,2.6c0,0.9,0.1,1.8,0.2,2.6
			c0.1,0.8,0.3,1.4,0.5,2s0.6,1,0.9,1.3c0.4,0.3,0.8,0.5,1.4,0.5c0.5,0,1-0.2,1.4-0.5s0.7-0.7,0.9-1.3c0.2-0.6,0.4-1.2,0.5-2
			S830.4,66.2,830.4,65.3z"/>
		<path class="st3" d="M842.2,48.8c0.6,0,1.2,0.1,1.6,0.2c0.5,0.1,0.9,0.3,1.2,0.4l-0.6,2.2c-0.3-0.1-0.6-0.3-0.9-0.3
			s-0.7-0.1-1-0.1c-0.5,0-0.9,0.1-1.2,0.3s-0.6,0.4-0.7,0.7c-0.2,0.3-0.3,0.7-0.4,1.1c-0.1,0.4-0.1,0.9-0.1,1.3v2.3h4.3v2.4h-4.3
			v14.4h-2.8V54.5c0-1.8,0.4-3.2,1.2-4.2S840.6,48.8,842.2,48.8z"/>
		<path class="st3" d="M860.4,51.5c0.5,1.6,1,3.2,1.5,4.8s1,3.3,1.5,5.1s1,3.7,1.4,5.7s1,4.2,1.4,6.5h-2.9c-0.2-1-0.3-1.9-0.5-2.8
			s-0.4-1.9-0.6-2.8h-7c-0.2,0.9-0.4,1.9-0.6,2.8s-0.3,1.9-0.5,2.8h-2.8c0.5-2.3,1-4.5,1.4-6.5c0.5-2,1-3.9,1.5-5.7s1-3.5,1.5-5.1
			s1-3.2,1.5-4.9h3.2L860.4,51.5L860.4,51.5z M858.9,54.7c-0.5,1.8-1,3.6-1.5,5.4s-1,3.6-1.4,5.5h5.8c-0.4-1.9-0.9-3.7-1.4-5.5
			S859.4,56.5,858.9,54.7z"/>
		<path class="st3" d="M874.6,74.1c-1.2,0-2.1-0.2-2.9-0.7c-0.8-0.4-1.4-1.1-1.9-1.8c-0.5-0.8-0.8-1.7-1-2.8s-0.3-2.2-0.3-3.5
			c0-2.8,0.5-4.9,1.5-6.5s2.5-2.4,4.6-2.4c0.6,0,1.2,0.1,1.7,0.2c0.5,0.1,0.9,0.3,1.4,0.6l-0.7,2.3c-0.7-0.4-1.4-0.6-2.2-0.6
			c-1.2,0-2,0.5-2.5,1.6s-0.8,2.7-0.8,4.9c0,0.9,0.1,1.8,0.2,2.5c0.1,0.8,0.3,1.4,0.6,2s0.6,1,1.1,1.3c0.4,0.3,1,0.5,1.7,0.5
			c0.5,0,0.9-0.1,1.3-0.2s0.7-0.3,1.1-0.5l0.6,2.1c-0.3,0.2-0.8,0.4-1.4,0.6S875.2,74.1,874.6,74.1z"/>
		<path class="st3" d="M885.7,74.1c-1.2,0-2.1-0.2-2.9-0.7c-0.8-0.4-1.4-1.1-1.9-1.8c-0.5-0.8-0.8-1.7-1-2.8s-0.3-2.2-0.3-3.5
			c0-2.8,0.5-4.9,1.5-6.5s2.5-2.4,4.6-2.4c0.6,0,1.2,0.1,1.7,0.2c0.5,0.1,0.9,0.3,1.4,0.6l-0.7,2.3c-0.7-0.4-1.4-0.6-2.2-0.6
			c-1.2,0-2,0.5-2.5,1.6s-0.8,2.7-0.8,4.9c0,0.9,0.1,1.8,0.2,2.5c0.1,0.8,0.3,1.4,0.6,2s0.6,1,1.1,1.3c0.4,0.3,1,0.5,1.7,0.5
			c0.5,0,0.9-0.1,1.3-0.2s0.7-0.3,1.1-0.5l0.6,2.1c-0.3,0.2-0.8,0.4-1.4,0.6S886.4,74.1,885.7,74.1z"/>
		<path class="st3" d="M902.5,65.3c0,1.3-0.1,2.5-0.4,3.6c-0.2,1.1-0.6,2-1.1,2.8s-1.1,1.4-1.8,1.8s-1.6,0.6-2.6,0.6
			s-1.9-0.2-2.6-0.6c-0.7-0.4-1.4-1-1.8-1.8c-0.5-0.8-0.8-1.7-1.1-2.8c-0.2-1.1-0.4-2.3-0.4-3.6c0-1.3,0.1-2.5,0.4-3.6
			c0.2-1.1,0.6-2,1.1-2.8s1.1-1.4,1.8-1.8c0.7-0.4,1.6-0.6,2.6-0.6s1.9,0.2,2.6,0.6c0.7,0.4,1.3,1,1.8,1.8s0.8,1.7,1.1,2.8
			C902.4,62.8,902.5,64,902.5,65.3z M899.6,65.3c0-0.9-0.1-1.8-0.2-2.6c-0.1-0.8-0.3-1.5-0.5-2c-0.2-0.6-0.5-1-0.9-1.3
			s-0.8-0.5-1.4-0.5c-0.6,0-1,0.2-1.4,0.5s-0.7,0.7-0.9,1.3s-0.4,1.2-0.5,2s-0.2,1.6-0.2,2.6c0,0.9,0.1,1.8,0.2,2.6
			c0.1,0.8,0.3,1.4,0.5,2s0.6,1,0.9,1.3c0.4,0.3,0.8,0.5,1.4,0.5c0.5,0,1-0.2,1.4-0.5s0.7-0.7,0.9-1.3c0.2-0.6,0.4-1.2,0.5-2
			C899.6,67.1,899.6,66.2,899.6,65.3z"/>
		<path class="st3" d="M916.9,73.2c-0.3,0.1-0.6,0.2-1,0.3c-0.4,0.1-0.8,0.2-1.2,0.3c-0.4,0.1-0.9,0.1-1.3,0.2
			c-0.4,0.1-0.8,0.1-1.2,0.1c-0.9,0-1.7-0.1-2.4-0.3c-0.7-0.2-1.3-0.6-1.9-1.1c-0.5-0.5-0.9-1.2-1.2-2.1s-0.4-2-0.4-3.3V56.9h2.8
			v10.2c0,1.6,0.3,2.8,0.8,3.5s1.3,1,2.3,1c0.3,0,0.7,0,1,0s0.7-0.1,1.1-0.2V56.9h2.8v16.3H916.9z"/>
		<path class="st3" d="M921.9,57.3c0.8-0.2,1.6-0.4,2.6-0.6c0.9-0.2,1.8-0.2,2.5-0.2c0.8,0,1.6,0.1,2.3,0.3s1.3,0.6,1.7,1.1
			c0.5,0.5,0.9,1.3,1.1,2.2c0.3,0.9,0.4,2,0.4,3.4v10.1h-2.8v-9.9c0-1.7-0.2-2.9-0.6-3.6s-1.2-1.2-2.4-1.2c-0.6,0-1.3,0.1-2.1,0.3
			v14.4h-2.8L921.9,57.3L921.9,57.3z"/>
		<path class="st3" d="M939.9,56.9h4.2v2.4h-4.2v9.2c0,1.2,0.2,2,0.6,2.4c0.4,0.5,1,0.7,1.7,0.7c0.4,0,0.7-0.1,1-0.2
			s0.6-0.2,0.8-0.4l0.5,2.2c-0.9,0.5-1.8,0.8-2.8,0.8c-1.6,0-2.8-0.4-3.5-1.3c-0.8-0.9-1.2-2.4-1.2-4.4v-16l2.8-0.5v5.1
			C939.8,56.9,939.9,56.9,939.9,56.9z"/>
		<path class="st3" d="M949,53.9c-0.5,0-0.9-0.2-1.3-0.5c-0.4-0.3-0.5-0.8-0.5-1.3c0-0.6,0.2-1,0.5-1.3c0.4-0.3,0.8-0.5,1.3-0.5
			s0.9,0.2,1.3,0.5c0.4,0.3,0.5,0.8,0.5,1.3c0,0.6-0.2,1-0.5,1.3C949.9,53.7,949.4,53.9,949,53.9z M950.3,73.7h-2.8V56.9h2.8V73.7z"
			/>
		<path class="st3" d="M955.3,57.3c0.8-0.2,1.6-0.4,2.6-0.6c0.9-0.2,1.8-0.2,2.5-0.2c0.8,0,1.6,0.1,2.3,0.3s1.3,0.6,1.7,1.1
			c0.5,0.5,0.9,1.3,1.1,2.2c0.3,0.9,0.4,2,0.4,3.4v10.1h-2.8v-9.9c0-1.7-0.2-2.9-0.6-3.6s-1.2-1.2-2.4-1.2c-0.6,0-1.3,0.1-2.1,0.3
			v14.4h-2.8L955.3,57.3L955.3,57.3z"/>
		<path class="st3" d="M980.7,73.2c0,1.2-0.2,2.2-0.5,3s-0.7,1.5-1.3,2c-0.5,0.5-1.2,0.9-1.9,1.1s-1.5,0.4-2.3,0.4
			c-0.7,0-1.4-0.1-2-0.2c-0.7-0.1-1.3-0.4-1.9-0.7l0.6-2.3c0.4,0.2,0.9,0.4,1.4,0.6c0.6,0.2,1.1,0.3,1.7,0.3c1,0,1.9-0.3,2.5-0.9
			s0.9-1.6,0.9-3.1v-0.8c-0.3,0.1-0.7,0.3-1.1,0.4c-0.4,0.1-0.8,0.1-1.3,0.1c-2,0-3.5-0.7-4.4-2.1s-1.4-3.3-1.4-5.8
			c0-1.3,0.1-2.6,0.4-3.6c0.2-1.1,0.6-2,1.2-2.8c0.5-0.8,1.2-1.3,2-1.7s1.8-0.6,3-0.6c0.8,0,1.6,0.1,2.3,0.2c0.8,0.2,1.4,0.4,2,0.6
			L980.7,73.2L980.7,73.2z M978,59.1c-0.3-0.1-0.6-0.1-0.9-0.2c-0.3,0-0.5,0-0.8,0c-1.3,0-2.2,0.5-2.8,1.5s-0.9,2.6-0.9,4.8
			c0,2,0.3,3.4,0.9,4.2c0.6,0.8,1.4,1.2,2.5,1.2c0.4,0,0.7,0,1-0.1s0.6-0.2,0.9-0.4L978,59.1L978,59.1z"/>
		<path class="st3" d="M988.8,72.2c0,0.5-0.2,0.9-0.5,1.3c-0.4,0.4-0.8,0.6-1.4,0.6s-1-0.2-1.4-0.6c-0.3-0.4-0.5-0.8-0.5-1.3
			s0.2-1,0.5-1.3c0.3-0.4,0.8-0.6,1.4-0.6s1,0.2,1.4,0.6C988.6,71.2,988.8,71.7,988.8,72.2z"/>
		<path class="st3" d="M999.5,51.5h2.9v22.2h-2.9V51.5z"/>
		<path class="st3" d="M1010.2,56.9h4.2v2.4h-4.2v9.2c0,1.2,0.2,2,0.6,2.4c0.4,0.5,1,0.7,1.7,0.7c0.4,0,0.7-0.1,1-0.2
			s0.6-0.2,0.8-0.4l0.5,2.2c-0.9,0.5-1.8,0.8-2.8,0.8c-1.6,0-2.8-0.4-3.5-1.3c-0.8-0.9-1.2-2.4-1.2-4.4v-16l2.8-0.5v5.1
			C1010.1,56.9,1010.2,56.9,1010.2,56.9z"/>
		<path class="st3" d="M1020.7,49.7c0,0.2,0,0.3,0,0.4c0,0.1,0,0.3,0,0.4c0,1.2-0.2,2.4-0.6,3.5c-0.4,1.1-0.9,2.2-1.6,3.2l-2-0.6
			c0.5-1,0.9-1.9,1.1-2.9c0.2-1,0.3-1.9,0.3-2.8c0-0.2,0-0.5,0-0.7s0-0.4,0-0.7h2.8V49.7z"/>
		<path class="st3" d="M1026.7,71.7c0.8,0,1.4-0.2,1.8-0.7s0.6-1.1,0.6-1.8c0-0.5-0.1-0.9-0.3-1.2c-0.2-0.3-0.4-0.6-0.7-0.9
			c-0.3-0.3-0.6-0.5-1-0.7s-0.7-0.4-1.1-0.7c-0.4-0.2-0.7-0.5-1.1-0.8c-0.3-0.3-0.6-0.6-0.9-1c-0.3-0.4-0.5-0.8-0.6-1.3
			s-0.2-1-0.2-1.7c0-1.4,0.4-2.5,1.3-3.4c0.9-0.9,2-1.3,3.5-1.3c0.6,0,1.2,0.1,1.8,0.2c0.6,0.2,1,0.3,1.4,0.5l-0.6,2.2
			c-0.4-0.2-0.8-0.4-1.2-0.5c-0.4-0.1-0.8-0.2-1.2-0.2c-0.7,0-1.2,0.2-1.6,0.6c-0.4,0.4-0.6,1-0.6,1.7c0,0.4,0.1,0.8,0.2,1.1
			s0.3,0.6,0.6,0.8c0.2,0.2,0.5,0.5,0.8,0.7s0.6,0.4,1,0.6c0.4,0.2,0.8,0.5,1.2,0.8c0.4,0.3,0.7,0.6,1.1,1c0.3,0.4,0.6,0.8,0.8,1.3
			c0.2,0.5,0.3,1.1,0.3,1.8c0,1.5-0.4,2.7-1.3,3.6s-2.1,1.3-3.8,1.3c-0.9,0-1.6-0.1-2.3-0.4c-0.7-0.2-1.2-0.4-1.5-0.6l0.6-2.3
			c0.3,0.2,0.8,0.4,1.3,0.6C1025.4,71.6,1026.1,71.7,1026.7,71.7z"/>
		<path class="st3" d="M1044.1,56.9h4.2v2.4h-4.2v9.2c0,1.2,0.2,2,0.6,2.4c0.4,0.5,1,0.7,1.7,0.7c0.4,0,0.7-0.1,1-0.2
			s0.6-0.2,0.8-0.4l0.5,2.2c-0.9,0.5-1.8,0.8-2.8,0.8c-1.6,0-2.8-0.4-3.5-1.3c-0.8-0.9-1.2-2.4-1.2-4.4v-16l2.8-0.5L1044.1,56.9
			L1044.1,56.9z"/>
		<path class="st3" d="M1051.8,73.7V49.3l2.8-0.5v8.1c0.4-0.1,0.8-0.2,1.3-0.3s1-0.1,1.5-0.1c0.7,0,1.4,0.1,2,0.3s1.2,0.6,1.6,1.1
			c0.5,0.5,0.8,1.3,1.1,2.2c0.3,0.9,0.4,2,0.4,3.4v10.1h-2.8v-9.9c0-1.7-0.2-2.9-0.6-3.6s-1.2-1.2-2.4-1.2c-0.6,0-1.3,0.1-2.1,0.3
			v14.4L1051.8,73.7L1051.8,73.7z"/>
		<path class="st3" d="M1069.1,66.1c0,0.8,0.1,1.6,0.2,2.2c0.1,0.7,0.3,1.3,0.6,1.8c0.3,0.5,0.7,0.9,1.2,1.2
			c0.5,0.3,1.1,0.4,1.8,0.4c0.6,0,1.2-0.1,1.7-0.3c0.5-0.2,0.9-0.3,1.1-0.5l0.5,2.2c-0.3,0.2-0.7,0.4-1.4,0.6
			c-0.7,0.2-1.4,0.3-2.3,0.3c-1.2,0-2.2-0.2-3-0.6s-1.5-1-2-1.8s-0.9-1.7-1.1-2.8c-0.2-1.1-0.3-2.2-0.3-3.5c0-3.1,0.5-5.4,1.5-6.8
			c1-1.4,2.4-2.1,4.1-2.1c1.9,0,3.2,0.7,4,2.1c0.8,1.4,1.2,3.4,1.2,6c0,0.2,0,0.5,0,0.7s0,0.5,0,0.8h-7.8L1069.1,66.1L1069.1,66.1z
			 M1071.9,58.8c-0.9,0-1.6,0.5-2,1.4s-0.7,2.1-0.8,3.7h5.1c0-1.6-0.2-2.8-0.5-3.7C1073.4,59.2,1072.8,58.8,1071.9,58.8z"/>
		<path class="st3" d="M1091.8,74c-1.6,0-2.7-0.4-3.4-1.2c-0.7-0.7-1-1.9-1-3.5v-20l2.8-0.5v20.5c0,0.7,0.1,1.3,0.4,1.6
			c0.3,0.3,0.8,0.6,1.6,0.7L1091.8,74z"/>
		<path class="st3" d="M1095.4,57.2c0.6-0.2,1.1-0.4,1.8-0.6s1.3-0.2,2-0.2c1.5,0,2.7,0.5,3.6,1.4s1.4,2.4,1.4,4.3v11.1
			c-0.8,0.2-1.6,0.4-2.4,0.5s-1.6,0.2-2.4,0.2s-1.5-0.1-2.2-0.3s-1.3-0.5-1.8-0.9s-0.9-1-1.2-1.6c-0.3-0.7-0.4-1.4-0.4-2.4
			c0-0.9,0.1-1.6,0.4-2.3s0.6-1.2,1.1-1.6s1-0.8,1.7-1c0.6-0.2,1.3-0.3,2.1-0.3c0.7,0,1.5,0.1,2.3,0.3v-1.5c0-1.2-0.2-2.1-0.7-2.6
			s-1.2-0.7-2.1-0.7c-0.5,0-1,0-1.4,0.1s-0.9,0.3-1.4,0.5L1095.4,57.2z M1096.8,68.8c0,1,0.3,1.7,0.8,2.2s1.2,0.7,2.2,0.7
			c0.6,0,1.2-0.1,1.9-0.2v-5.3c-0.6-0.2-1.3-0.3-1.9-0.3c-0.4,0-0.8,0-1.2,0.1c-0.4,0.1-0.7,0.3-0.9,0.5c-0.3,0.2-0.5,0.5-0.6,0.9
			C1096.8,67.7,1096.8,68.2,1096.8,68.8z"/>
		<path class="st3" d="M1109.1,57.3c0.8-0.2,1.6-0.4,2.6-0.6c0.9-0.2,1.8-0.2,2.5-0.2c0.8,0,1.6,0.1,2.3,0.3
			c0.7,0.2,1.3,0.6,1.7,1.1c0.5,0.5,0.9,1.3,1.1,2.2c0.3,0.9,0.4,2,0.4,3.4v10.1h-2.8v-9.9c0-1.7-0.2-2.9-0.6-3.6s-1.2-1.2-2.4-1.2
			c-0.6,0-1.3,0.1-2.1,0.3v14.4h-2.8V57.3H1109.1z"/>
		<path class="st3" d="M1134.5,73.2c0,1.2-0.2,2.2-0.5,3s-0.7,1.5-1.3,2c-0.5,0.5-1.2,0.9-1.9,1.1c-0.7,0.2-1.5,0.4-2.3,0.4
			c-0.7,0-1.4-0.1-2-0.2c-0.7-0.1-1.3-0.4-1.9-0.7l0.6-2.3c0.4,0.2,0.9,0.4,1.4,0.6c0.6,0.2,1.1,0.3,1.7,0.3c1,0,1.9-0.3,2.5-0.9
			s0.9-1.6,0.9-3.1v-0.8c-0.3,0.1-0.7,0.3-1.1,0.4s-0.8,0.1-1.3,0.1c-2,0-3.5-0.7-4.4-2.1s-1.4-3.3-1.4-5.8c0-1.3,0.1-2.6,0.4-3.6
			c0.2-1.1,0.6-2,1.2-2.8c0.5-0.8,1.2-1.3,2-1.7s1.8-0.6,3-0.6c0.8,0,1.6,0.1,2.3,0.2c0.8,0.2,1.4,0.4,2,0.6v15.9H1134.5z
			 M1131.7,59.1c-0.3-0.1-0.6-0.1-0.9-0.2c-0.3,0-0.5,0-0.8,0c-1.3,0-2.2,0.5-2.8,1.5c-0.6,1-0.9,2.6-0.9,4.8c0,2,0.3,3.4,0.9,4.2
			c0.6,0.8,1.4,1.2,2.5,1.2c0.4,0,0.7,0,1-0.1s0.6-0.2,0.9-0.4v-11C1131.6,59.1,1131.7,59.1,1131.7,59.1z"/>
		<path class="st3" d="M1149.8,73.2c-0.3,0.1-0.6,0.2-1,0.3c-0.4,0.1-0.8,0.2-1.2,0.3c-0.4,0.1-0.9,0.1-1.3,0.2s-0.8,0.1-1.2,0.1
			c-0.9,0-1.7-0.1-2.4-0.3c-0.7-0.2-1.3-0.6-1.9-1.1c-0.5-0.5-0.9-1.2-1.2-2.1c-0.3-0.9-0.4-2-0.4-3.3V56.9h2.8v10.2
			c0,1.6,0.3,2.8,0.8,3.5s1.3,1,2.3,1c0.3,0,0.7,0,1,0s0.7-0.1,1.1-0.2V56.9h2.8v16.3H1149.8z"/>
		<path class="st3" d="M1155.1,57.2c0.6-0.2,1.1-0.4,1.8-0.6s1.3-0.2,2-0.2c1.5,0,2.7,0.5,3.6,1.4s1.4,2.4,1.4,4.3v11.1
			c-0.8,0.2-1.6,0.4-2.4,0.5s-1.6,0.2-2.4,0.2s-1.5-0.1-2.2-0.3s-1.3-0.5-1.8-0.9s-0.9-1-1.2-1.6c-0.3-0.7-0.4-1.4-0.4-2.4
			c0-0.9,0.1-1.6,0.4-2.3s0.6-1.2,1.1-1.6s1-0.8,1.7-1c0.6-0.2,1.3-0.3,2.1-0.3c0.7,0,1.5,0.1,2.3,0.3v-1.5c0-1.2-0.2-2.1-0.7-2.6
			s-1.2-0.7-2.1-0.7c-0.5,0-1,0-1.4,0.1s-0.9,0.3-1.4,0.5L1155.1,57.2z M1156.4,68.8c0,1,0.3,1.7,0.8,2.2s1.2,0.7,2.2,0.7
			c0.6,0,1.2-0.1,1.9-0.2v-5.3c-0.6-0.2-1.3-0.3-1.9-0.3c-0.4,0-0.8,0-1.2,0.1c-0.4,0.1-0.7,0.3-0.9,0.5c-0.3,0.2-0.5,0.5-0.6,0.9
			C1156.4,67.7,1156.4,68.2,1156.4,68.8z"/>
		<path class="st3" d="M1178.7,73.2c0,1.2-0.2,2.2-0.5,3s-0.7,1.5-1.3,2c-0.5,0.5-1.2,0.9-1.9,1.1c-0.7,0.2-1.5,0.4-2.3,0.4
			c-0.7,0-1.4-0.1-2-0.2c-0.7-0.1-1.3-0.4-1.9-0.7l0.6-2.3c0.4,0.2,0.9,0.4,1.4,0.6c0.6,0.2,1.1,0.3,1.7,0.3c1,0,1.9-0.3,2.5-0.9
			s0.9-1.6,0.9-3.1v-0.8c-0.3,0.1-0.7,0.3-1.1,0.4s-0.8,0.1-1.3,0.1c-2,0-3.5-0.7-4.4-2.1s-1.4-3.3-1.4-5.8c0-1.3,0.1-2.6,0.4-3.6
			c0.2-1.1,0.6-2,1.2-2.8c0.5-0.8,1.2-1.3,2-1.7s1.8-0.6,3-0.6c0.8,0,1.6,0.1,2.3,0.2c0.8,0.2,1.4,0.4,2,0.6v15.9H1178.7z
			 M1175.9,59.1c-0.3-0.1-0.6-0.1-0.9-0.2c-0.3,0-0.5,0-0.8,0c-1.3,0-2.2,0.5-2.8,1.5c-0.6,1-0.9,2.6-0.9,4.8c0,2,0.3,3.4,0.9,4.2
			c0.6,0.8,1.4,1.2,2.5,1.2c0.4,0,0.7,0,1-0.1s0.6-0.2,0.9-0.4v-11C1175.8,59.1,1175.9,59.1,1175.9,59.1z"/>
		<path class="st3" d="M1185.5,66.1c0,0.8,0.1,1.6,0.2,2.2c0.1,0.7,0.3,1.3,0.6,1.8c0.3,0.5,0.7,0.9,1.2,1.2
			c0.5,0.3,1.1,0.4,1.8,0.4c0.6,0,1.2-0.1,1.7-0.3c0.5-0.2,0.9-0.3,1.1-0.5l0.5,2.2c-0.3,0.2-0.7,0.4-1.4,0.6
			c-0.7,0.2-1.4,0.3-2.3,0.3c-1.2,0-2.2-0.2-3-0.6s-1.5-1-2-1.8s-0.9-1.7-1.1-2.8c-0.2-1.1-0.3-2.2-0.3-3.5c0-3.1,0.5-5.4,1.5-6.8
			c1-1.4,2.4-2.1,4.1-2.1c1.9,0,3.2,0.7,4,2.1c0.8,1.4,1.2,3.4,1.2,6c0,0.2,0,0.5,0,0.7s0,0.5,0,0.8h-7.8L1185.5,66.1L1185.5,66.1z
			 M1188.3,58.8c-0.9,0-1.6,0.5-2,1.4s-0.7,2.1-0.8,3.7h5.1c0-1.6-0.2-2.8-0.5-3.7C1189.8,59.2,1189.2,58.8,1188.3,58.8z"/>
		<path class="st3" d="M212,103.7c0,1.3-0.1,2.5-0.4,3.6c-0.2,1.1-0.6,2-1.1,2.8s-1.1,1.4-1.8,1.8s-1.6,0.6-2.6,0.6
			s-1.9-0.2-2.6-0.6s-1.4-1-1.8-1.8c-0.5-0.8-0.8-1.7-1.1-2.8c-0.2-1.1-0.4-2.3-0.4-3.6c0-1.3,0.1-2.5,0.4-3.6
			c0.2-1.1,0.6-2,1.1-2.8s1.1-1.4,1.8-1.8s1.6-0.6,2.6-0.6s1.9,0.2,2.6,0.6c0.7,0.4,1.3,1,1.8,1.8s0.8,1.7,1.1,2.8
			C211.9,101.2,212,102.4,212,103.7z M209.1,103.7c0-0.9-0.1-1.8-0.2-2.6c-0.1-0.8-0.3-1.5-0.5-2c-0.2-0.6-0.5-1-0.9-1.3
			s-0.8-0.5-1.4-0.5c-0.6,0-1,0.2-1.4,0.5s-0.7,0.7-0.9,1.3c-0.2,0.6-0.4,1.2-0.5,2s-0.2,1.6-0.2,2.6c0,0.9,0.1,1.8,0.2,2.6
			c0.1,0.8,0.3,1.4,0.5,2s0.6,1,0.9,1.3c0.4,0.3,0.8,0.5,1.4,0.5c0.5,0,1-0.2,1.4-0.5s0.7-0.7,0.9-1.3c0.2-0.6,0.4-1.2,0.5-2
			C209,105.5,209.1,104.6,209.1,103.7z"/>
		<path class="st3" d="M220.9,87.2c0.6,0,1.2,0.1,1.6,0.2s0.9,0.3,1.2,0.4l-0.6,2.2c-0.3-0.1-0.6-0.3-0.9-0.3
			c-0.3-0.1-0.7-0.1-1-0.1c-0.5,0-0.9,0.1-1.2,0.3c-0.3,0.2-0.6,0.4-0.7,0.7c-0.2,0.3-0.3,0.7-0.4,1.1c-0.1,0.4-0.1,0.9-0.1,1.3v2.3
			h4.3v2.4h-4.3v14.4H216V92.9c0-1.8,0.4-3.2,1.2-4.2C218,87.7,219.3,87.2,220.9,87.2z"/>
		<path class="st3" d="M234.8,95.4c0.3-0.2,0.7-0.3,1-0.4c0.4-0.1,0.8-0.1,1.3-0.1c1,0,1.9,0.2,2.7,0.6c0.7,0.4,1.4,1,1.8,1.8
			c0.5,0.8,0.8,1.7,1,2.8c0.2,1.1,0.3,2.3,0.3,3.6c0,3-0.5,5.2-1.6,6.7s-2.7,2.2-5,2.2c-0.8,0-1.6-0.1-2.3-0.2
			c-0.8-0.2-1.5-0.4-2-0.6V87.7l2.8-0.5V95.4z M234.8,109.8c0.3,0.1,0.6,0.1,0.9,0.2c0.3,0,0.5,0,0.8,0c1.2,0,2.2-0.5,2.8-1.5
			s0.9-2.6,0.9-4.9c0-1.2-0.1-2.2-0.2-3c-0.1-0.8-0.4-1.5-0.7-2s-0.6-0.8-1-1.1c-0.4-0.2-0.9-0.3-1.4-0.3c-0.7,0-1.4,0.2-2,0.5v12.1
			C234.9,109.8,234.8,109.8,234.8,109.8z"/>
		<path class="st3" d="M257.4,111.6c-0.3,0.1-0.6,0.2-1,0.3c-0.4,0.1-0.8,0.2-1.2,0.3c-0.4,0.1-0.9,0.1-1.3,0.2
			c-0.4,0.1-0.8,0.1-1.2,0.1c-0.9,0-1.7-0.1-2.4-0.3c-0.7-0.2-1.3-0.6-1.9-1.1c-0.5-0.5-0.9-1.2-1.2-2.1s-0.4-2-0.4-3.3V95.3h2.8
			v10.2c0,1.6,0.3,2.8,0.8,3.5s1.3,1,2.3,1c0.3,0,0.7,0,1,0s0.7-0.1,1.1-0.2V95.3h2.8v16.3C257.6,111.6,257.4,111.6,257.4,111.6z"/>
		<path class="st3" d="M264.7,110.1c0.8,0,1.4-0.2,1.8-0.7s0.6-1.1,0.6-1.8c0-0.5-0.1-0.9-0.3-1.2c-0.2-0.3-0.4-0.6-0.7-0.9
			c-0.3-0.3-0.6-0.5-1-0.7s-0.7-0.4-1.1-0.7c-0.4-0.2-0.7-0.5-1.1-0.8c-0.3-0.3-0.6-0.6-0.9-1s-0.5-0.8-0.6-1.3
			c-0.2-0.5-0.2-1-0.2-1.7c0-1.4,0.4-2.5,1.3-3.4s2-1.3,3.5-1.3c0.6,0,1.2,0.1,1.8,0.2c0.6,0.2,1,0.3,1.4,0.5l-0.6,2.2
			c-0.4-0.2-0.8-0.4-1.2-0.5c-0.4-0.1-0.8-0.2-1.2-0.2c-0.7,0-1.2,0.2-1.6,0.6s-0.6,1-0.6,1.7c0,0.4,0.1,0.8,0.2,1.1
			c0.1,0.3,0.3,0.6,0.6,0.8c0.2,0.2,0.5,0.5,0.8,0.7s0.6,0.4,1,0.6s0.8,0.5,1.2,0.8c0.4,0.3,0.7,0.6,1.1,1c0.3,0.4,0.6,0.8,0.8,1.3
			c0.2,0.5,0.3,1.1,0.3,1.8c0,1.5-0.4,2.7-1.3,3.6s-2.1,1.3-3.8,1.3c-0.9,0-1.6-0.1-2.3-0.4c-0.7-0.2-1.2-0.4-1.5-0.6l0.6-2.3
			c0.3,0.2,0.8,0.4,1.3,0.6S264,110.1,264.7,110.1z"/>
		<path class="st3" d="M274.6,92.3c-0.5,0-0.9-0.2-1.3-0.5s-0.5-0.8-0.5-1.3s0.2-1,0.5-1.3c0.4-0.3,0.8-0.5,1.3-0.5s0.9,0.2,1.3,0.5
			s0.5,0.8,0.5,1.3s-0.2,1-0.5,1.3C275.5,92.1,275.1,92.3,274.6,92.3z M276,112.1h-2.8V95.3h2.8V112.1z"/>
		<path class="st3" d="M281,95.7c0.8-0.2,1.6-0.4,2.6-0.6c0.9-0.2,1.8-0.2,2.5-0.2c0.8,0,1.6,0.1,2.3,0.3c0.7,0.2,1.3,0.6,1.7,1.1
			s0.9,1.3,1.1,2.2c0.3,0.9,0.4,2,0.4,3.4V112h-2.8v-9.9c0-1.7-0.2-2.9-0.6-3.6c-0.4-0.8-1.2-1.2-2.4-1.2c-0.6,0-1.3,0.1-2.1,0.3
			V112H281V95.7z"/>
		<path class="st3" d="M298.3,104.5c0,0.8,0.1,1.6,0.2,2.2c0.1,0.7,0.3,1.3,0.6,1.8s0.7,0.9,1.2,1.2s1.1,0.4,1.8,0.4
			c0.6,0,1.2-0.1,1.7-0.3c0.5-0.2,0.9-0.3,1.1-0.5l0.5,2.2c-0.3,0.2-0.7,0.4-1.4,0.6c-0.7,0.2-1.4,0.3-2.3,0.3c-1.2,0-2.2-0.2-3-0.6
			s-1.5-1-2-1.8s-0.9-1.7-1.1-2.8c-0.2-1.1-0.3-2.2-0.3-3.5c0-3.1,0.5-5.4,1.5-6.8s2.4-2.1,4.1-2.1c1.9,0,3.2,0.7,4,2.1
			s1.2,3.4,1.2,6c0,0.2,0,0.5,0,0.7s0,0.5,0,0.8h-7.8L298.3,104.5L298.3,104.5z M301.1,97.2c-0.9,0-1.6,0.5-2,1.4s-0.7,2.1-0.8,3.7
			h5.1c0-1.6-0.2-2.8-0.5-3.7C302.6,97.6,302,97.2,301.1,97.2z"/>
		<path class="st3" d="M312.7,110.1c0.8,0,1.4-0.2,1.8-0.7s0.6-1.1,0.6-1.8c0-0.5-0.1-0.9-0.3-1.2c-0.2-0.3-0.4-0.6-0.7-0.9
			c-0.3-0.3-0.6-0.5-1-0.7s-0.7-0.4-1.1-0.7c-0.4-0.2-0.7-0.5-1.1-0.8c-0.3-0.3-0.6-0.6-0.9-1s-0.5-0.8-0.6-1.3
			c-0.2-0.5-0.2-1-0.2-1.7c0-1.4,0.4-2.5,1.3-3.4s2-1.3,3.5-1.3c0.6,0,1.2,0.1,1.8,0.2c0.6,0.2,1,0.3,1.4,0.5l-0.6,2.2
			c-0.4-0.2-0.8-0.4-1.2-0.5c-0.4-0.1-0.8-0.2-1.2-0.2c-0.7,0-1.2,0.2-1.6,0.6s-0.6,1-0.6,1.7c0,0.4,0.1,0.8,0.2,1.1
			c0.1,0.3,0.3,0.6,0.6,0.8c0.2,0.2,0.5,0.5,0.8,0.7s0.6,0.4,1,0.6s0.8,0.5,1.2,0.8c0.4,0.3,0.7,0.6,1.1,1c0.3,0.4,0.6,0.8,0.8,1.3
			c0.2,0.5,0.3,1.1,0.3,1.8c0,1.5-0.4,2.7-1.3,3.6s-2.1,1.3-3.8,1.3c-0.9,0-1.6-0.1-2.3-0.4c-0.7-0.2-1.2-0.4-1.5-0.6l0.6-2.3
			c0.3,0.2,0.8,0.4,1.3,0.6S312,110.1,312.7,110.1z"/>
		<path class="st3" d="M323.6,110.1c0.8,0,1.4-0.2,1.8-0.7s0.6-1.1,0.6-1.8c0-0.5-0.1-0.9-0.3-1.2c-0.2-0.3-0.4-0.6-0.7-0.9
			c-0.3-0.3-0.6-0.5-1-0.7s-0.7-0.4-1.1-0.7c-0.4-0.2-0.7-0.5-1.1-0.8c-0.3-0.3-0.6-0.6-0.9-1s-0.5-0.8-0.6-1.3
			c-0.2-0.5-0.2-1-0.2-1.7c0-1.4,0.4-2.5,1.3-3.4s2-1.3,3.5-1.3c0.6,0,1.2,0.1,1.8,0.2c0.6,0.2,1,0.3,1.4,0.5l-0.6,2.2
			c-0.4-0.2-0.8-0.4-1.2-0.5c-0.4-0.1-0.8-0.2-1.2-0.2c-0.7,0-1.2,0.2-1.6,0.6s-0.6,1-0.6,1.7c0,0.4,0.1,0.8,0.2,1.1
			c0.1,0.3,0.3,0.6,0.6,0.8c0.2,0.2,0.5,0.5,0.8,0.7s0.6,0.4,1,0.6s0.8,0.5,1.2,0.8c0.4,0.3,0.7,0.6,1.1,1c0.3,0.4,0.6,0.8,0.8,1.3
			c0.2,0.5,0.3,1.1,0.3,1.8c0,1.5-0.4,2.7-1.3,3.6s-2.1,1.3-3.8,1.3c-0.9,0-1.6-0.1-2.3-0.4c-0.7-0.2-1.2-0.4-1.5-0.6l0.6-2.3
			c0.3,0.2,0.8,0.4,1.3,0.6S323,110.1,323.6,110.1z"/>
		<path class="st3" d="M335.3,110.6c0,0.5-0.2,0.9-0.5,1.3c-0.4,0.4-0.8,0.6-1.4,0.6s-1-0.2-1.4-0.6c-0.3-0.4-0.5-0.8-0.5-1.3
			s0.2-1,0.5-1.3c0.3-0.4,0.8-0.6,1.4-0.6s1,0.2,1.4,0.6C335.2,109.6,335.3,110.1,335.3,110.6z"/>
	</g>
</g>
<g>
	<path class="st4" d="M211.6,49.8c-0.4,1-0.8,2.1-1.2,3.2c-0.4,1.1-0.9,2.3-1.4,3.4c-0.5,1.2-1,2.3-1.5,3.5s-1,2.3-1.5,3.3V72h-2.9
		v-8.6c-0.5-1-1-2.2-1.6-3.3s-1-2.3-1.5-3.5s-1-2.3-1.4-3.5s-0.9-2.2-1.2-3.3h3.1c0.6,1.7,1.2,3.5,1.9,5.3c0.7,1.9,1.4,3.6,2.2,5.2
		c0.7-1.6,1.5-3.4,2.2-5.2s1.3-3.7,1.9-5.3C208.7,49.8,211.6,49.8,211.6,49.8z"/>
	<path class="st4" d="M223.5,63.6c0,1.3-0.1,2.5-0.4,3.6c-0.2,1.1-0.6,2-1.1,2.8s-1.1,1.4-1.8,1.8s-1.6,0.6-2.6,0.6
		s-1.9-0.2-2.6-0.6c-0.7-0.4-1.4-1-1.8-1.8s-0.8-1.7-1.1-2.8c-0.2-1.1-0.4-2.3-0.4-3.6c0-1.3,0.1-2.5,0.4-3.6c0.2-1.1,0.6-2,1.1-2.8
		s1.1-1.4,1.8-1.8c0.7-0.4,1.6-0.6,2.6-0.6s1.9,0.2,2.6,0.6c0.7,0.4,1.3,1,1.8,1.8s0.8,1.7,1.1,2.8
		C223.4,61.1,223.5,62.3,223.5,63.6z M220.7,63.6c0-0.9-0.1-1.8-0.2-2.6c-0.1-0.8-0.3-1.5-0.5-2c-0.2-0.6-0.5-1-0.9-1.3
		s-0.8-0.5-1.4-0.5c-0.6,0-1,0.2-1.4,0.5s-0.7,0.7-0.9,1.3s-0.4,1.2-0.5,2s-0.2,1.6-0.2,2.6c0,0.9,0.1,1.8,0.2,2.6
		c0.1,0.8,0.3,1.4,0.5,2s0.6,1,0.9,1.3c0.4,0.3,0.8,0.5,1.4,0.5c0.5,0,1-0.2,1.4-0.5s0.7-0.7,0.9-1.3c0.2-0.6,0.4-1.2,0.5-2
		C220.6,65.4,220.7,64.6,220.7,63.6z"/>
	<path class="st4" d="M238,71.5c-0.3,0.1-0.6,0.2-1,0.3c-0.4,0.1-0.8,0.2-1.2,0.3c-0.4,0.1-0.9,0.1-1.3,0.2
		c-0.4,0.1-0.8,0.1-1.2,0.1c-0.9,0-1.7-0.1-2.4-0.3c-0.7-0.2-1.3-0.6-1.9-1.1c-0.5-0.5-0.9-1.2-1.2-2.1s-0.4-2-0.4-3.3V55.2h2.8
		v10.2c0,1.6,0.3,2.8,0.8,3.5s1.3,1,2.3,1c0.3,0,0.7,0,1,0s0.7-0.1,1.1-0.2V55.2h2.8v16.3H238z"/>
	<path class="st4" d="M249.2,72V47.7l2.8-0.5v8.1c0.4-0.1,0.8-0.2,1.3-0.3s1-0.1,1.5-0.1c0.7,0,1.4,0.1,2,0.3
		c0.6,0.2,1.2,0.6,1.6,1.1c0.5,0.5,0.8,1.3,1.1,2.2c0.3,0.9,0.4,2,0.4,3.4V72H257v-9.9c0-1.7-0.2-2.9-0.6-3.6
		c-0.4-0.8-1.2-1.2-2.4-1.2c-0.6,0-1.3,0.1-2.1,0.3V72H249.2z"/>
	<path class="st4" d="M264.8,55.6c0.6-0.2,1.1-0.4,1.8-0.6c0.6-0.1,1.3-0.2,2-0.2c1.5,0,2.7,0.5,3.6,1.4s1.4,2.4,1.4,4.3v11.1
		c-0.8,0.2-1.6,0.4-2.4,0.5s-1.6,0.2-2.4,0.2s-1.5-0.1-2.2-0.3c-0.7-0.2-1.3-0.5-1.8-0.9s-0.9-1-1.2-1.6c-0.3-0.7-0.4-1.4-0.4-2.4
		c0-0.9,0.1-1.6,0.4-2.3c0.3-0.7,0.6-1.2,1.1-1.6c0.5-0.4,1-0.8,1.7-1s1.3-0.3,2.1-0.3c0.7,0,1.5,0.1,2.3,0.3v-1.5
		c0-1.2-0.2-2.1-0.7-2.6s-1.2-0.7-2.1-0.7c-0.5,0-1,0-1.4,0.1s-0.9,0.3-1.4,0.5L264.8,55.6z M266.2,67.1c0,1,0.3,1.7,0.8,2.2
		s1.2,0.7,2.2,0.7c0.6,0,1.2-0.1,1.9-0.2v-5.3c-0.6-0.2-1.3-0.3-1.9-0.3c-0.4,0-0.8,0-1.2,0.1c-0.4,0.1-0.7,0.3-0.9,0.5
		c-0.3,0.2-0.5,0.5-0.6,0.9C266.2,66.1,266.2,66.5,266.2,67.1z"/>
	<path class="st4" d="M282.1,68.8c0.3-0.9,0.5-1.9,0.8-3c0.3-1.2,0.6-2.3,0.8-3.6c0.3-1.2,0.5-2.4,0.8-3.7c0.2-1.2,0.5-2.3,0.6-3.3
		h2.8c-0.3,1.4-0.6,2.9-1,4.4c-0.4,1.6-0.8,3.1-1.2,4.6c-0.4,1.5-0.8,2.9-1.2,4.3c-0.4,1.3-0.8,2.5-1.1,3.5h-2.8
		c-0.3-1-0.7-2.1-1.1-3.5c-0.4-1.3-0.8-2.8-1.2-4.3c-0.4-1.5-0.8-3-1.2-4.6c-0.4-1.6-0.7-3-1-4.4h2.9c0.2,1,0.4,2.1,0.6,3.3
		s0.5,2.4,0.8,3.7c0.3,1.2,0.5,2.4,0.8,3.6C281.5,66.9,281.8,67.9,282.1,68.8z"/>
	<path class="st4" d="M292.4,64.4c0,0.8,0.1,1.6,0.2,2.2c0.1,0.7,0.3,1.3,0.6,1.8c0.3,0.5,0.7,0.9,1.2,1.2c0.5,0.3,1.1,0.4,1.8,0.4
		c0.6,0,1.2-0.1,1.7-0.3c0.5-0.2,0.9-0.3,1.1-0.5l0.5,2.2c-0.3,0.2-0.7,0.4-1.4,0.6c-0.7,0.2-1.4,0.3-2.3,0.3c-1.2,0-2.2-0.2-3-0.6
		s-1.5-1-2-1.8s-0.9-1.7-1.1-2.8c-0.2-1.1-0.3-2.2-0.3-3.5c0-3.1,0.5-5.4,1.5-6.8s2.4-2.1,4.1-2.1c1.9,0,3.2,0.7,4,2.1
		c0.8,1.4,1.2,3.4,1.2,6c0,0.2,0,0.5,0,0.7s0,0.5,0,0.8h-7.8L292.4,64.4L292.4,64.4z M295.2,57.1c-0.9,0-1.6,0.5-2,1.4
		s-0.7,2.1-0.8,3.7h5.1c0-1.6-0.2-2.8-0.5-3.7C296.8,57.6,296.1,57.1,295.2,57.1z"/>
	<path class="st4" d="M313.3,55.2h4.2v2.4h-4.2v9.2c0,1.2,0.2,2,0.6,2.4c0.4,0.5,1,0.7,1.7,0.7c0.4,0,0.7-0.1,1-0.2s0.6-0.2,0.8-0.4
		l0.5,2.2c-0.9,0.5-1.8,0.8-2.8,0.8c-1.6,0-2.8-0.4-3.5-1.3c-0.8-0.9-1.2-2.4-1.2-4.4V50.7l2.8-0.5v5H313.3z"/>
	<path class="st4" d="M331.6,63.6c0,1.3-0.1,2.5-0.4,3.6c-0.2,1.1-0.6,2-1.1,2.8s-1.1,1.4-1.8,1.8c-0.7,0.4-1.6,0.6-2.6,0.6
		s-1.9-0.2-2.6-0.6s-1.4-1-1.8-1.8s-0.8-1.7-1.1-2.8c-0.2-1.1-0.4-2.3-0.4-3.6c0-1.3,0.1-2.5,0.4-3.6c0.2-1.1,0.6-2,1.1-2.8
		s1.1-1.4,1.8-1.8c0.7-0.4,1.6-0.6,2.6-0.6s1.9,0.2,2.6,0.6c0.7,0.4,1.3,1,1.8,1.8s0.8,1.7,1.1,2.8
		C331.5,61.1,331.6,62.3,331.6,63.6z M328.8,63.6c0-0.9-0.1-1.8-0.2-2.6s-0.3-1.5-0.5-2c-0.2-0.6-0.5-1-0.9-1.3s-0.8-0.5-1.4-0.5
		s-1,0.2-1.4,0.5s-0.7,0.7-0.9,1.3c-0.2,0.6-0.4,1.2-0.5,2s-0.2,1.6-0.2,2.6c0,0.9,0.1,1.8,0.2,2.6c0.1,0.8,0.3,1.4,0.5,2
		s0.6,1,0.9,1.3c0.4,0.3,0.8,0.5,1.4,0.5c0.5,0,1-0.2,1.4-0.5s0.7-0.7,0.9-1.3c0.2-0.6,0.4-1.2,0.5-2
		C328.7,65.4,328.8,64.6,328.8,63.6z"/>
	<path class="st4" d="M352.3,71.5c-0.3,0.1-0.6,0.2-1,0.3c-0.4,0.1-0.8,0.2-1.2,0.3c-0.4,0.1-0.9,0.1-1.3,0.2s-0.8,0.1-1.2,0.1
		c-0.9,0-1.7-0.1-2.4-0.3c-0.7-0.2-1.3-0.6-1.9-1.1c-0.5-0.5-0.9-1.2-1.2-2.1c-0.3-0.9-0.4-2-0.4-3.3V55.2h2.8v10.2
		c0,1.6,0.3,2.8,0.8,3.5s1.3,1,2.3,1c0.3,0,0.7,0,1,0s0.7-0.1,1.1-0.2V55.2h2.8v16.3H352.3z"/>
	<path class="st4" d="M357.3,55.7c0.8-0.2,1.6-0.4,2.6-0.6c0.9-0.2,1.8-0.2,2.5-0.2c0.8,0,1.6,0.1,2.3,0.3c0.7,0.2,1.3,0.6,1.7,1.1
		c0.5,0.5,0.9,1.3,1.1,2.2c0.3,0.9,0.4,2,0.4,3.4V72h-2.8v-9.9c0-1.7-0.2-2.9-0.6-3.6c-0.4-0.8-1.2-1.2-2.4-1.2
		c-0.6,0-1.3,0.1-2.1,0.3V72h-2.8L357.3,55.7L357.3,55.7z"/>
	<path class="st4" d="M379.9,47.7l2.8-0.5v24.4c-0.6,0.3-1.3,0.5-2,0.6c-0.8,0.2-1.5,0.2-2.3,0.2c-2.3,0-4-0.7-5-2.2
		s-1.6-3.7-1.6-6.7c0-1.3,0.1-2.6,0.3-3.6c0.2-1.1,0.6-2,1.1-2.8s1.1-1.3,1.8-1.8c0.7-0.4,1.6-0.6,2.7-0.6c0.5,0,0.9,0,1.3,0.1
		s0.7,0.2,1,0.4L379.9,47.7L379.9,47.7z M379.9,57.7c-0.6-0.3-1.3-0.5-2-0.5c-0.5,0-1,0.1-1.4,0.3s-0.8,0.6-1,1.1
		c-0.3,0.5-0.5,1.1-0.7,2c-0.1,0.8-0.2,1.8-0.2,3c0,2.3,0.3,4,0.9,4.9c0.6,1,1.5,1.5,2.8,1.5c0.2,0,0.5,0,0.8,0s0.6-0.1,0.9-0.2
		L379.9,57.7L379.9,57.7z"/>
	<path class="st4" d="M389.5,64.4c0,0.8,0.1,1.6,0.2,2.2c0.1,0.7,0.3,1.3,0.6,1.8c0.3,0.5,0.7,0.9,1.2,1.2c0.5,0.3,1.1,0.4,1.8,0.4
		c0.6,0,1.2-0.1,1.7-0.3c0.5-0.2,0.9-0.3,1.1-0.5l0.5,2.2c-0.3,0.2-0.7,0.4-1.4,0.6c-0.7,0.2-1.4,0.3-2.3,0.3c-1.2,0-2.2-0.2-3-0.6
		s-1.5-1-2-1.8s-0.9-1.7-1.1-2.8c-0.2-1.1-0.3-2.2-0.3-3.5c0-3.1,0.5-5.4,1.5-6.8s2.4-2.1,4.1-2.1c1.9,0,3.2,0.7,4,2.1
		c0.8,1.4,1.2,3.4,1.2,6c0,0.2,0,0.5,0,0.7s0,0.5,0,0.8h-7.8L389.5,64.4L389.5,64.4z M392.3,57.1c-0.9,0-1.6,0.5-2,1.4
		s-0.7,2.1-0.8,3.7h5.1c0-1.6-0.2-2.8-0.5-3.7C393.8,57.6,393.2,57.1,392.3,57.1z"/>
	<path class="st4" d="M408.8,57.7c-0.7-0.3-1.5-0.4-2.3-0.4s-1.5,0.1-2.2,0.4V72h-2.8V55.9c0.6-0.3,1.3-0.5,2.1-0.8
		c0.8-0.2,1.7-0.3,2.6-0.3c0.5,0,1,0,1.5,0.1s1,0.2,1.4,0.4L408.8,57.7z"/>
	<path class="st4" d="M414.4,70.1c0.8,0,1.4-0.2,1.8-0.7s0.6-1.1,0.6-1.8c0-0.5-0.1-0.9-0.3-1.2c-0.2-0.3-0.4-0.6-0.7-0.9
		c-0.3-0.3-0.6-0.5-1-0.7s-0.7-0.4-1.1-0.7c-0.4-0.2-0.7-0.5-1.1-0.8c-0.3-0.3-0.6-0.6-0.9-1s-0.5-0.8-0.6-1.3s-0.2-1-0.2-1.7
		c0-1.4,0.4-2.5,1.3-3.4s2-1.3,3.5-1.3c0.6,0,1.2,0.1,1.8,0.2c0.6,0.2,1,0.3,1.4,0.5l-0.6,2.2c-0.4-0.2-0.8-0.4-1.2-0.5
		c-0.4-0.1-0.8-0.2-1.2-0.2c-0.7,0-1.2,0.2-1.6,0.6c-0.4,0.4-0.6,1-0.6,1.7c0,0.4,0.1,0.8,0.2,1.1s0.3,0.6,0.6,0.8
		c0.2,0.2,0.5,0.5,0.8,0.7s0.6,0.4,1,0.6c0.4,0.2,0.8,0.5,1.2,0.8c0.4,0.3,0.7,0.6,1.1,1c0.3,0.4,0.6,0.8,0.8,1.3
		c0.2,0.5,0.3,1.1,0.3,1.8c0,1.5-0.4,2.7-1.3,3.6s-2.1,1.3-3.8,1.3c-0.9,0-1.6-0.1-2.3-0.4c-0.7-0.2-1.2-0.4-1.5-0.6l0.6-2.3
		c0.3,0.2,0.8,0.4,1.3,0.6C413.1,70,413.8,70.1,414.4,70.1z"/>
	<path class="st4" d="M425.5,55.2h4.2v2.4h-4.2v9.2c0,1.2,0.2,2,0.6,2.4c0.4,0.5,1,0.7,1.7,0.7c0.4,0,0.7-0.1,1-0.2s0.6-0.2,0.8-0.4
		l0.5,2.2c-0.9,0.5-1.8,0.8-2.8,0.8c-1.6,0-2.8-0.4-3.5-1.3c-0.8-0.9-1.2-2.4-1.2-4.4V50.7l2.8-0.5v5H425.5z"/>
	<path class="st4" d="M433.5,55.6c0.6-0.2,1.1-0.4,1.8-0.6c0.6-0.1,1.3-0.2,2-0.2c1.5,0,2.7,0.5,3.6,1.4s1.4,2.4,1.4,4.3v11.1
		c-0.8,0.2-1.6,0.4-2.4,0.5s-1.6,0.2-2.4,0.2s-1.5-0.1-2.2-0.3c-0.7-0.2-1.3-0.5-1.8-0.9s-0.9-1-1.2-1.6c-0.3-0.7-0.4-1.4-0.4-2.4
		c0-0.9,0.1-1.6,0.4-2.3c0.3-0.7,0.6-1.2,1.1-1.6c0.5-0.4,1-0.8,1.7-1s1.3-0.3,2.1-0.3c0.7,0,1.5,0.1,2.3,0.3v-1.5
		c0-1.2-0.2-2.1-0.7-2.6s-1.2-0.7-2.1-0.7c-0.5,0-1,0-1.4,0.1s-0.9,0.3-1.4,0.5L433.5,55.6z M434.8,67.1c0,1,0.3,1.7,0.8,2.2
		s1.2,0.7,2.2,0.7c0.6,0,1.2-0.1,1.9-0.2v-5.3c-0.6-0.2-1.3-0.3-1.9-0.3c-0.4,0-0.8,0-1.2,0.1c-0.4,0.1-0.7,0.3-0.9,0.5
		c-0.3,0.2-0.5,0.5-0.6,0.9C434.9,66.1,434.8,66.5,434.8,67.1z"/>
	<path class="st4" d="M447.1,55.7c0.8-0.2,1.6-0.4,2.6-0.6c0.9-0.2,1.8-0.2,2.5-0.2c0.8,0,1.6,0.1,2.3,0.3c0.7,0.2,1.3,0.6,1.7,1.1
		c0.5,0.5,0.9,1.3,1.1,2.2c0.3,0.9,0.4,2,0.4,3.4V72H455v-9.9c0-1.7-0.2-2.9-0.6-3.6c-0.4-0.8-1.2-1.2-2.4-1.2
		c-0.6,0-1.3,0.1-2.1,0.3V72h-2.8V55.7z"/>
	<path class="st4" d="M469.8,47.7l2.8-0.5v24.4c-0.6,0.3-1.3,0.5-2,0.6c-0.8,0.2-1.5,0.2-2.3,0.2c-2.3,0-4-0.7-5-2.2
		s-1.6-3.7-1.6-6.7c0-1.3,0.1-2.6,0.3-3.6c0.2-1.1,0.6-2,1.1-2.8s1.1-1.3,1.8-1.8c0.7-0.4,1.6-0.6,2.7-0.6c0.5,0,0.9,0,1.3,0.1
		s0.7,0.2,1,0.4L469.8,47.7L469.8,47.7z M469.8,57.7c-0.6-0.3-1.3-0.5-2-0.5c-0.5,0-1,0.1-1.4,0.3s-0.8,0.6-1,1.1
		c-0.3,0.5-0.5,1.1-0.7,2c-0.1,0.8-0.2,1.8-0.2,3c0,2.3,0.3,4,0.9,4.9c0.6,1,1.5,1.5,2.8,1.5c0.2,0,0.5,0,0.8,0s0.6-0.1,0.9-0.2
		L469.8,57.7L469.8,57.7z"/>
	<path class="st4" d="M490.8,49.8c0.5,1.6,1,3.2,1.5,4.8s1,3.3,1.5,5.1s1,3.7,1.4,5.7c0.5,2,1,4.2,1.4,6.5h-2.9
		c-0.2-1-0.3-1.9-0.5-2.8s-0.4-1.9-0.6-2.8h-7c-0.2,0.9-0.4,1.9-0.6,2.8s-0.3,1.9-0.5,2.8h-2.8c0.5-2.3,1-4.5,1.4-6.5
		c0.5-2,1-3.9,1.5-5.7s1-3.5,1.5-5.1s1-3.2,1.5-4.9h3.2V49.8z M489.3,53.1c-0.5,1.8-1,3.6-1.5,5.4c-0.5,1.8-1,3.6-1.4,5.5h5.8
		c-0.4-1.9-0.9-3.7-1.4-5.5S489.8,54.9,489.3,53.1z"/>
	<path class="st4" d="M505,72.4c-1.2,0-2.1-0.2-2.9-0.7c-0.8-0.4-1.4-1.1-1.9-1.8c-0.5-0.8-0.8-1.7-1-2.8s-0.3-2.2-0.3-3.5
		c0-2.8,0.5-4.9,1.5-6.5s2.5-2.4,4.6-2.4c0.6,0,1.2,0.1,1.7,0.2c0.5,0.1,0.9,0.3,1.4,0.6l-0.7,2.3c-0.7-0.4-1.4-0.6-2.2-0.6
		c-1.2,0-2,0.5-2.5,1.6s-0.8,2.7-0.8,4.9c0,0.9,0.1,1.8,0.2,2.5c0.1,0.8,0.3,1.4,0.6,2c0.3,0.6,0.6,1,1.1,1.3c0.4,0.3,1,0.5,1.7,0.5
		c0.5,0,0.9-0.1,1.3-0.2s0.7-0.3,1.1-0.5l0.6,2.1c-0.3,0.2-0.8,0.4-1.4,0.6C506.2,72.3,505.6,72.4,505,72.4z"/>
	<path class="st4" d="M516.1,72.4c-1.2,0-2.1-0.2-2.9-0.7c-0.8-0.4-1.4-1.1-1.9-1.8c-0.5-0.8-0.8-1.7-1-2.8s-0.3-2.2-0.3-3.5
		c0-2.8,0.5-4.9,1.5-6.5c1-1.6,2.5-2.4,4.6-2.4c0.6,0,1.2,0.1,1.7,0.2c0.5,0.1,0.9,0.3,1.4,0.6l-0.7,2.3c-0.7-0.4-1.4-0.6-2.2-0.6
		c-1.2,0-2,0.5-2.5,1.6s-0.8,2.7-0.8,4.9c0,0.9,0.1,1.8,0.2,2.5c0.1,0.8,0.3,1.4,0.6,2s0.6,1,1.1,1.3c0.4,0.3,1,0.5,1.7,0.5
		c0.5,0,0.9-0.1,1.3-0.2c0.4-0.1,0.7-0.3,1.1-0.5l0.6,2.1c-0.3,0.2-0.8,0.4-1.4,0.6C517.4,72.3,516.8,72.4,516.1,72.4z"/>
	<path class="st4" d="M532.9,63.6c0,1.3-0.1,2.5-0.4,3.6c-0.2,1.1-0.6,2-1.1,2.8s-1.1,1.4-1.8,1.8s-1.6,0.6-2.6,0.6
		s-1.9-0.2-2.6-0.6c-0.7-0.4-1.4-1-1.8-1.8s-0.8-1.7-1.1-2.8c-0.2-1.1-0.4-2.3-0.4-3.6c0-1.3,0.1-2.5,0.4-3.6c0.2-1.1,0.6-2,1.1-2.8
		s1.1-1.4,1.8-1.8c0.7-0.4,1.6-0.6,2.6-0.6s1.9,0.2,2.6,0.6c0.7,0.4,1.3,1,1.8,1.8s0.8,1.7,1.1,2.8S532.9,62.3,532.9,63.6z
		 M530,63.6c0-0.9-0.1-1.8-0.2-2.6c-0.1-0.8-0.3-1.5-0.5-2c-0.2-0.6-0.5-1-0.9-1.3s-0.8-0.5-1.4-0.5c-0.6,0-1,0.2-1.4,0.5
		s-0.7,0.7-0.9,1.3s-0.4,1.2-0.5,2s-0.2,1.6-0.2,2.6c0,0.9,0.1,1.8,0.2,2.6c0.1,0.8,0.3,1.4,0.5,2s0.6,1,0.9,1.3
		c0.4,0.3,0.8,0.5,1.4,0.5c0.5,0,1-0.2,1.4-0.5s0.7-0.7,0.9-1.3c0.2-0.6,0.4-1.2,0.5-2C530,65.4,530,64.6,530,63.6z"/>
	<path class="st4" d="M547.3,71.5c-0.3,0.1-0.6,0.2-1,0.3c-0.4,0.1-0.8,0.2-1.2,0.3c-0.4,0.1-0.9,0.1-1.3,0.2
		c-0.4,0.1-0.8,0.1-1.2,0.1c-0.9,0-1.7-0.1-2.4-0.3c-0.7-0.2-1.3-0.6-1.9-1.1c-0.5-0.5-0.9-1.2-1.2-2.1s-0.4-2-0.4-3.3V55.2h2.8
		v10.2c0,1.6,0.3,2.8,0.8,3.5s1.3,1,2.3,1c0.3,0,0.7,0,1,0s0.7-0.1,1.1-0.2V55.2h2.8v16.3H547.3z"/>
	<path class="st4" d="M552.3,55.7c0.8-0.2,1.6-0.4,2.6-0.6c0.9-0.2,1.8-0.2,2.5-0.2c0.8,0,1.6,0.1,2.3,0.3s1.3,0.6,1.7,1.1
		c0.5,0.5,0.9,1.3,1.1,2.2c0.3,0.9,0.4,2,0.4,3.4V72h-2.8v-9.9c0-1.7-0.2-2.9-0.6-3.6c-0.4-0.8-1.2-1.2-2.4-1.2
		c-0.6,0-1.3,0.1-2.1,0.3V72h-2.8L552.3,55.7L552.3,55.7z"/>
	<path class="st4" d="M570.3,55.2h4.2v2.4h-4.2v9.2c0,1.2,0.2,2,0.6,2.4c0.4,0.5,1,0.7,1.7,0.7c0.4,0,0.7-0.1,1-0.2s0.6-0.2,0.8-0.4
		l0.5,2.2c-0.9,0.5-1.8,0.8-2.8,0.8c-1.6,0-2.8-0.4-3.5-1.3c-0.8-0.9-1.2-2.4-1.2-4.4V50.7l2.8-0.5v5H570.3z"/>
	<path class="st4" d="M579.4,52.2c-0.5,0-0.9-0.2-1.3-0.5c-0.4-0.3-0.5-0.8-0.5-1.3c0-0.6,0.2-1,0.5-1.3c0.4-0.3,0.8-0.5,1.3-0.5
		s0.9,0.2,1.3,0.5c0.4,0.3,0.5,0.8,0.5,1.3c0,0.6-0.2,1-0.5,1.3C580.3,52.1,579.9,52.2,579.4,52.2z M580.7,72H578V55.2h2.8L580.7,72
		L580.7,72z"/>
	<path class="st4" d="M585.7,55.7c0.8-0.2,1.6-0.4,2.6-0.6c0.9-0.2,1.8-0.2,2.5-0.2c0.8,0,1.6,0.1,2.3,0.3s1.3,0.6,1.7,1.1
		c0.5,0.5,0.9,1.3,1.1,2.2c0.3,0.9,0.4,2,0.4,3.4V72h-2.8v-9.9c0-1.7-0.2-2.9-0.6-3.6c-0.4-0.8-1.2-1.2-2.4-1.2
		c-0.6,0-1.3,0.1-2.1,0.3V72h-2.8L585.7,55.7L585.7,55.7z"/>
	<path class="st4" d="M611.1,71.5c0,1.2-0.2,2.2-0.5,3s-0.7,1.5-1.3,2c-0.5,0.5-1.2,0.9-1.9,1.1s-1.5,0.4-2.3,0.4
		c-0.7,0-1.4-0.1-2-0.2c-0.7-0.1-1.3-0.4-1.9-0.7l0.6-2.3c0.4,0.2,0.9,0.4,1.4,0.6c0.6,0.2,1.1,0.3,1.7,0.3c1,0,1.9-0.3,2.5-0.9
		s0.9-1.6,0.9-3.1v-0.8c-0.3,0.1-0.7,0.3-1.1,0.4c-0.4,0.1-0.8,0.1-1.3,0.1c-2,0-3.5-0.7-4.4-2.1s-1.4-3.3-1.4-5.8
		c0-1.3,0.1-2.6,0.4-3.6c0.2-1.1,0.6-2,1.2-2.8c0.5-0.8,1.2-1.3,2-1.7s1.8-0.6,3-0.6c0.8,0,1.6,0.1,2.3,0.2c0.8,0.2,1.4,0.4,2,0.6
		L611.1,71.5L611.1,71.5z M608.4,57.4c-0.3-0.1-0.6-0.1-0.9-0.2c-0.3,0-0.5,0-0.8,0c-1.3,0-2.2,0.5-2.8,1.5s-0.9,2.6-0.9,4.8
		c0,2,0.3,3.4,0.9,4.2c0.6,0.8,1.4,1.2,2.5,1.2c0.4,0,0.7,0,1-0.1s0.6-0.2,0.9-0.4L608.4,57.4L608.4,57.4z"/>
	<path class="st4" d="M622.6,55.6c0.6-0.2,1.1-0.4,1.8-0.6c0.6-0.1,1.3-0.2,2-0.2c1.5,0,2.7,0.5,3.6,1.4c0.9,0.9,1.4,2.4,1.4,4.3
		v11.1c-0.8,0.2-1.6,0.4-2.4,0.5c-0.8,0.1-1.6,0.2-2.4,0.2s-1.5-0.1-2.2-0.3c-0.7-0.2-1.3-0.5-1.8-0.9s-0.9-1-1.2-1.6
		c-0.3-0.7-0.4-1.4-0.4-2.4c0-0.9,0.1-1.6,0.4-2.3c0.3-0.7,0.6-1.2,1.1-1.6c0.5-0.4,1-0.8,1.7-1s1.3-0.3,2.1-0.3
		c0.7,0,1.5,0.1,2.3,0.3v-1.5c0-1.2-0.2-2.1-0.7-2.6s-1.2-0.7-2.1-0.7c-0.5,0-1,0-1.4,0.1s-0.9,0.3-1.4,0.5L622.6,55.6z M623.9,67.1
		c0,1,0.3,1.7,0.8,2.2s1.2,0.7,2.2,0.7c0.6,0,1.2-0.1,1.9-0.2v-5.3c-0.6-0.2-1.3-0.3-1.9-0.3c-0.4,0-0.8,0-1.2,0.1s-0.7,0.3-0.9,0.5
		c-0.3,0.2-0.5,0.5-0.6,0.9C624,66.1,623.9,66.5,623.9,67.1z"/>
	<path class="st4" d="M636.2,55.7c0.8-0.2,1.6-0.4,2.6-0.6c0.9-0.2,1.8-0.2,2.5-0.2c0.8,0,1.6,0.1,2.3,0.3s1.3,0.6,1.7,1.1
		c0.5,0.5,0.9,1.3,1.1,2.2c0.3,0.9,0.4,2,0.4,3.4V72H644v-9.9c0-1.7-0.2-2.9-0.6-3.6c-0.4-0.8-1.2-1.2-2.4-1.2
		c-0.6,0-1.3,0.1-2.1,0.3V72h-2.8L636.2,55.7L636.2,55.7z"/>
	<path class="st4" d="M658.9,47.7l2.8-0.5v24.4c-0.6,0.3-1.3,0.5-2,0.6c-0.8,0.2-1.5,0.2-2.3,0.2c-2.3,0-4-0.7-5-2.2
		s-1.6-3.7-1.6-6.7c0-1.3,0.1-2.6,0.3-3.6c0.2-1.1,0.6-2,1.1-2.8s1.1-1.3,1.8-1.8c0.7-0.4,1.6-0.6,2.7-0.6c0.5,0,0.9,0,1.3,0.1
		c0.4,0.1,0.7,0.2,1,0.4L658.9,47.7L658.9,47.7z M658.9,57.7c-0.6-0.3-1.3-0.5-2-0.5c-0.5,0-1,0.1-1.4,0.3s-0.8,0.6-1,1.1
		c-0.3,0.5-0.5,1.1-0.7,2c-0.1,0.8-0.2,1.8-0.2,3c0,2.3,0.3,4,0.9,4.9c0.6,1,1.5,1.5,2.8,1.5c0.2,0,0.5,0,0.8,0s0.6-0.1,0.9-0.2
		L658.9,57.7L658.9,57.7z"/>
	<path class="st4" d="M675.4,55.2h4.2v2.4h-4.2v9.2c0,1.2,0.2,2,0.6,2.4c0.4,0.5,1,0.7,1.7,0.7c0.4,0,0.7-0.1,1-0.2s0.6-0.2,0.8-0.4
		l0.5,2.2c-0.9,0.5-1.8,0.8-2.8,0.8c-1.6,0-2.8-0.4-3.5-1.3c-0.8-0.9-1.2-2.4-1.2-4.4V50.7l2.8-0.5v5H675.4z"/>
	<path class="st4" d="M683.1,72V47.7l2.8-0.5v8.1c0.4-0.1,0.8-0.2,1.3-0.3s1-0.1,1.5-0.1c0.7,0,1.4,0.1,2,0.3s1.2,0.6,1.6,1.1
		c0.5,0.5,0.8,1.3,1.1,2.2s0.4,2,0.4,3.4V72H691v-9.9c0-1.7-0.2-2.9-0.6-3.6c-0.4-0.8-1.2-1.2-2.4-1.2c-0.6,0-1.3,0.1-2.1,0.3V72
		H683.1z"/>
	<path class="st4" d="M700.4,64.4c0,0.8,0.1,1.6,0.2,2.2c0.1,0.7,0.3,1.3,0.6,1.8s0.7,0.9,1.2,1.2c0.5,0.3,1.1,0.4,1.8,0.4
		c0.6,0,1.2-0.1,1.7-0.3c0.5-0.2,0.9-0.3,1.1-0.5l0.5,2.2c-0.3,0.2-0.7,0.4-1.4,0.6s-1.4,0.3-2.3,0.3c-1.2,0-2.2-0.2-3-0.6
		s-1.5-1-2-1.8s-0.9-1.7-1.1-2.8c-0.2-1.1-0.3-2.2-0.3-3.5c0-3.1,0.5-5.4,1.5-6.8s2.4-2.1,4.1-2.1c1.9,0,3.2,0.7,4,2.1
		s1.2,3.4,1.2,6c0,0.2,0,0.5,0,0.7s0,0.5,0,0.8h-7.8V64.4z M703.2,57.1c-0.9,0-1.6,0.5-2,1.4s-0.7,2.1-0.8,3.7h5.1
		c0-1.6-0.2-2.8-0.5-3.7S704.1,57.1,703.2,57.1z"/>
	<path class="st4" d="M718.7,55.7c0.8-0.2,1.6-0.4,2.6-0.6c0.9-0.2,1.8-0.2,2.5-0.2c0.8,0,1.6,0.1,2.3,0.3s1.3,0.6,1.7,1.1
		c0.5,0.5,0.9,1.3,1.1,2.2c0.3,0.9,0.4,2,0.4,3.4V72h-2.8v-9.9c0-1.7-0.2-2.9-0.6-3.6c-0.4-0.8-1.2-1.2-2.4-1.2
		c-0.6,0-1.3,0.1-2.1,0.3V72h-2.8L718.7,55.7L718.7,55.7z"/>
	<path class="st4" d="M744.6,71.5c-0.3,0.1-0.6,0.2-1,0.3c-0.4,0.1-0.8,0.2-1.2,0.3c-0.4,0.1-0.9,0.1-1.3,0.2
		c-0.4,0.1-0.8,0.1-1.2,0.1c-0.9,0-1.7-0.1-2.4-0.3c-0.7-0.2-1.3-0.6-1.9-1.1c-0.5-0.5-0.9-1.2-1.2-2.1s-0.4-2-0.4-3.3V55.2h2.8
		v10.2c0,1.6,0.3,2.8,0.8,3.5s1.3,1,2.3,1c0.3,0,0.7,0,1,0s0.7-0.1,1.1-0.2V55.2h2.8v16.3H744.6z"/>
	<path class="st4" d="M749.8,55.6c0.6-0.2,1.1-0.4,1.8-0.6s1.3-0.2,2-0.2c1.5,0,2.7,0.5,3.6,1.4c0.9,0.9,1.4,2.4,1.4,4.3v11.1
		c-0.8,0.2-1.6,0.4-2.4,0.5c-0.8,0.1-1.6,0.2-2.4,0.2c-0.8,0-1.5-0.1-2.2-0.3s-1.3-0.5-1.8-0.9s-0.9-1-1.2-1.6
		c-0.3-0.7-0.4-1.4-0.4-2.4c0-0.9,0.1-1.6,0.4-2.3s0.6-1.2,1.1-1.6c0.5-0.4,1-0.8,1.7-1c0.6-0.2,1.3-0.3,2.1-0.3
		c0.7,0,1.5,0.1,2.3,0.3v-1.5c0-1.2-0.2-2.1-0.7-2.6s-1.2-0.7-2.1-0.7c-0.5,0-1,0-1.4,0.1s-0.9,0.3-1.4,0.5L749.8,55.6z M751.1,67.1
		c0,1,0.3,1.7,0.8,2.2s1.2,0.7,2.2,0.7c0.6,0,1.2-0.1,1.9-0.2v-5.3c-0.6-0.2-1.3-0.3-1.9-0.3c-0.4,0-0.8,0-1.2,0.1s-0.7,0.3-0.9,0.5
		c-0.3,0.2-0.5,0.5-0.6,0.9C751.2,66.1,751.1,66.5,751.1,67.1z"/>
	<path class="st4" d="M763.4,55.7c0.8-0.2,1.6-0.4,2.6-0.6c0.9-0.2,1.8-0.2,2.5-0.2c0.8,0,1.6,0.1,2.3,0.3s1.3,0.6,1.7,1.1
		c0.5,0.5,0.9,1.3,1.1,2.2c0.3,0.9,0.4,2,0.4,3.4V72h-2.8v-9.9c0-1.7-0.2-2.9-0.6-3.6s-1.2-1.2-2.4-1.2c-0.6,0-1.3,0.1-2.1,0.3V72
		h-2.8L763.4,55.7L763.4,55.7z"/>
	<path class="st4" d="M783.9,72.4c-1.2,0-2.1-0.2-2.9-0.7c-0.8-0.4-1.4-1.1-1.9-1.8c-0.5-0.8-0.8-1.7-1-2.8s-0.3-2.2-0.3-3.5
		c0-2.8,0.5-4.9,1.5-6.5s2.5-2.4,4.6-2.4c0.6,0,1.2,0.1,1.7,0.2c0.5,0.1,0.9,0.3,1.4,0.6l-0.7,2.3c-0.7-0.4-1.4-0.6-2.2-0.6
		c-1.2,0-2,0.5-2.5,1.6s-0.8,2.7-0.8,4.9c0,0.9,0.1,1.8,0.2,2.5c0.1,0.8,0.3,1.4,0.6,2s0.6,1,1.1,1.3c0.4,0.3,1,0.5,1.7,0.5
		c0.5,0,0.9-0.1,1.3-0.2s0.7-0.3,1.1-0.5l0.6,2.1c-0.3,0.2-0.8,0.4-1.4,0.6S784.6,72.4,783.9,72.4z"/>
	<path class="st4" d="M791.8,64.4c0,0.8,0.1,1.6,0.2,2.2c0.1,0.7,0.3,1.3,0.6,1.8s0.7,0.9,1.2,1.2c0.5,0.3,1.1,0.4,1.8,0.4
		c0.6,0,1.2-0.1,1.7-0.3c0.5-0.2,0.9-0.3,1.1-0.5l0.5,2.2c-0.3,0.2-0.7,0.4-1.4,0.6s-1.4,0.3-2.3,0.3c-1.2,0-2.2-0.2-3-0.6
		s-1.5-1-2-1.8s-0.9-1.7-1.1-2.8c-0.2-1.1-0.3-2.2-0.3-3.5c0-3.1,0.5-5.4,1.5-6.8c1-1.4,2.4-2.1,4.1-2.1c1.9,0,3.2,0.7,4,2.1
		c0.8,1.4,1.2,3.4,1.2,6c0,0.2,0,0.5,0,0.7s0,0.5,0,0.8h-7.8V64.4z M794.6,57.1c-0.9,0-1.6,0.5-2,1.4s-0.7,2.1-0.8,3.7h5.1
		c0-1.6-0.2-2.8-0.5-3.7C796.2,57.6,795.5,57.1,794.6,57.1z"/>
	<path class="st4" d="M806.2,70.1c0.8,0,1.4-0.2,1.8-0.7c0.4-0.5,0.6-1.1,0.6-1.8c0-0.5-0.1-0.9-0.3-1.2c-0.2-0.3-0.4-0.6-0.7-0.9
		s-0.6-0.5-1-0.7s-0.7-0.4-1.1-0.7c-0.4-0.2-0.7-0.5-1.1-0.8c-0.3-0.3-0.6-0.6-0.9-1c-0.3-0.4-0.5-0.8-0.6-1.3s-0.2-1-0.2-1.7
		c0-1.4,0.4-2.5,1.3-3.4c0.9-0.9,2-1.3,3.5-1.3c0.6,0,1.2,0.1,1.8,0.2c0.6,0.2,1,0.3,1.4,0.5l-0.6,2.2c-0.4-0.2-0.8-0.4-1.2-0.5
		s-0.8-0.2-1.2-0.2c-0.7,0-1.2,0.2-1.6,0.6c-0.4,0.4-0.6,1-0.6,1.7c0,0.4,0.1,0.8,0.2,1.1c0.1,0.3,0.3,0.6,0.6,0.8
		c0.2,0.2,0.5,0.5,0.8,0.7s0.6,0.4,1,0.6c0.4,0.2,0.8,0.5,1.2,0.8s0.7,0.6,1.1,1c0.3,0.4,0.6,0.8,0.8,1.3s0.3,1.1,0.3,1.8
		c0,1.5-0.4,2.7-1.3,3.6s-2.1,1.3-3.8,1.3c-0.9,0-1.6-0.1-2.3-0.4c-0.7-0.2-1.2-0.4-1.5-0.6l0.6-2.3c0.3,0.2,0.8,0.4,1.3,0.6
		C805,70,805.6,70.1,806.2,70.1z"/>
	<path class="st4" d="M831.8,63.6c0,1.3-0.1,2.5-0.4,3.6c-0.2,1.1-0.6,2-1.1,2.8s-1.1,1.4-1.8,1.8s-1.6,0.6-2.6,0.6
		s-1.9-0.2-2.6-0.6c-0.7-0.4-1.4-1-1.8-1.8c-0.5-0.8-0.8-1.7-1.1-2.8c-0.2-1.1-0.4-2.3-0.4-3.6c0-1.3,0.1-2.5,0.4-3.6
		c0.2-1.1,0.6-2,1.1-2.8s1.1-1.4,1.8-1.8c0.7-0.4,1.6-0.6,2.6-0.6s1.9,0.2,2.6,0.6c0.7,0.4,1.3,1,1.8,1.8s0.8,1.7,1.1,2.8
		C831.7,61.1,831.8,62.3,831.8,63.6z M829,63.6c0-0.9-0.1-1.8-0.2-2.6c-0.1-0.8-0.3-1.5-0.5-2c-0.2-0.6-0.5-1-0.9-1.3
		s-0.8-0.5-1.4-0.5c-0.6,0-1,0.2-1.4,0.5s-0.7,0.7-0.9,1.3s-0.4,1.2-0.5,2s-0.2,1.6-0.2,2.6c0,0.9,0.1,1.8,0.2,2.6
		c0.1,0.8,0.3,1.4,0.5,2s0.6,1,0.9,1.3c0.4,0.3,0.8,0.5,1.4,0.5c0.5,0,1-0.2,1.4-0.5s0.7-0.7,0.9-1.3c0.2-0.6,0.4-1.2,0.5-2
		C828.9,65.4,829,64.6,829,63.6z"/>
	<path class="st4" d="M840.8,47.2c0.6,0,1.2,0.1,1.6,0.2c0.5,0.1,0.9,0.3,1.2,0.4L843,50c-0.3-0.1-0.6-0.3-0.9-0.3s-0.7-0.1-1-0.1
		c-0.5,0-0.9,0.1-1.2,0.3s-0.6,0.4-0.7,0.7c-0.2,0.3-0.3,0.7-0.4,1.1c-0.1,0.4-0.1,0.9-0.1,1.3v2.3h4.3v2.4h-4.3V72h-2.8V52.9
		c0-1.8,0.4-3.2,1.2-4.2C837.9,47.7,839.1,47.2,840.8,47.2z"/>
	<path class="st4" d="M859,49.8c0.5,1.6,1,3.2,1.5,4.8s1,3.3,1.5,5.1s1,3.7,1.4,5.7c0.4,2,1,4.2,1.4,6.5H862c-0.2-1-0.3-1.9-0.5-2.8
		s-0.4-1.9-0.6-2.8h-7c-0.2,0.9-0.4,1.9-0.6,2.8S853,71,852.8,72H850c0.5-2.3,1-4.5,1.4-6.5c0.5-2,1-3.9,1.5-5.7s1-3.5,1.5-5.1
		s1-3.2,1.5-4.9H859z M857.4,53.1c-0.5,1.8-1,3.6-1.5,5.4s-1,3.6-1.4,5.5h5.8c-0.4-1.9-0.9-3.7-1.4-5.5S857.9,54.9,857.4,53.1z"/>
	<path class="st4" d="M873.1,72.4c-1.2,0-2.1-0.2-2.9-0.7c-0.8-0.4-1.4-1.1-1.9-1.8c-0.5-0.8-0.8-1.7-1-2.8s-0.3-2.2-0.3-3.5
		c0-2.8,0.5-4.9,1.5-6.5s2.5-2.4,4.6-2.4c0.6,0,1.2,0.1,1.7,0.2c0.5,0.1,0.9,0.3,1.4,0.6l-0.7,2.3c-0.7-0.4-1.4-0.6-2.2-0.6
		c-1.2,0-2,0.5-2.5,1.6s-0.8,2.7-0.8,4.9c0,0.9,0.1,1.8,0.2,2.5c0.1,0.8,0.3,1.4,0.6,2s0.6,1,1.1,1.3c0.4,0.3,1,0.5,1.7,0.5
		c0.5,0,0.9-0.1,1.3-0.2s0.7-0.3,1.1-0.5l0.6,2.1c-0.3,0.2-0.8,0.4-1.4,0.6S873.8,72.4,873.1,72.4z"/>
	<path class="st4" d="M884.3,72.4c-1.2,0-2.1-0.2-2.9-0.7c-0.8-0.4-1.4-1.1-1.9-1.8c-0.5-0.8-0.8-1.7-1-2.8s-0.3-2.2-0.3-3.5
		c0-2.8,0.5-4.9,1.5-6.5s2.5-2.4,4.6-2.4c0.6,0,1.2,0.1,1.7,0.2c0.5,0.1,0.9,0.3,1.4,0.6l-0.7,2.3c-0.7-0.4-1.4-0.6-2.2-0.6
		c-1.2,0-2,0.5-2.5,1.6s-0.8,2.7-0.8,4.9c0,0.9,0.1,1.8,0.2,2.5c0.1,0.8,0.3,1.4,0.6,2s0.6,1,1.1,1.3c0.4,0.3,1,0.5,1.7,0.5
		c0.5,0,0.9-0.1,1.3-0.2s0.7-0.3,1.1-0.5l0.6,2.1c-0.3,0.2-0.8,0.4-1.4,0.6S884.9,72.4,884.3,72.4z"/>
	<path class="st4" d="M901.1,63.6c0,1.3-0.1,2.5-0.4,3.6c-0.2,1.1-0.6,2-1.1,2.8s-1.1,1.4-1.8,1.8s-1.6,0.6-2.6,0.6
		s-1.9-0.2-2.6-0.6c-0.7-0.4-1.4-1-1.8-1.8c-0.5-0.8-0.8-1.7-1.1-2.8c-0.2-1.1-0.4-2.3-0.4-3.6c0-1.3,0.1-2.5,0.4-3.6
		c0.2-1.1,0.6-2,1.1-2.8s1.1-1.4,1.8-1.8c0.7-0.4,1.6-0.6,2.6-0.6s1.9,0.2,2.6,0.6c0.7,0.4,1.3,1,1.8,1.8s0.8,1.7,1.1,2.8
		C900.9,61.1,901.1,62.3,901.1,63.6z M898.2,63.6c0-0.9-0.1-1.8-0.2-2.6c-0.1-0.8-0.3-1.5-0.5-2c-0.2-0.6-0.5-1-0.9-1.3
		s-0.8-0.5-1.4-0.5c-0.6,0-1,0.2-1.4,0.5s-0.7,0.7-0.9,1.3s-0.4,1.2-0.5,2s-0.2,1.6-0.2,2.6c0,0.9,0.1,1.8,0.2,2.6
		c0.1,0.8,0.3,1.4,0.5,2s0.6,1,0.9,1.3c0.4,0.3,0.8,0.5,1.4,0.5c0.5,0,1-0.2,1.4-0.5s0.7-0.7,0.9-1.3c0.2-0.6,0.4-1.2,0.5-2
		C898.1,65.4,898.2,64.6,898.2,63.6z"/>
	<path class="st4" d="M915.5,71.5c-0.3,0.1-0.6,0.2-1,0.3c-0.4,0.1-0.8,0.2-1.2,0.3c-0.4,0.1-0.9,0.1-1.3,0.2
		c-0.4,0.1-0.8,0.1-1.2,0.1c-0.9,0-1.7-0.1-2.4-0.3c-0.7-0.2-1.3-0.6-1.9-1.1c-0.5-0.5-0.9-1.2-1.2-2.1s-0.4-2-0.4-3.3V55.2h2.8
		v10.2c0,1.6,0.3,2.8,0.8,3.5s1.3,1,2.3,1c0.3,0,0.7,0,1,0s0.7-0.1,1.1-0.2V55.2h2.8v16.3H915.5z"/>
	<path class="st4" d="M920.5,55.7c0.8-0.2,1.6-0.4,2.6-0.6c0.9-0.2,1.8-0.2,2.5-0.2c0.8,0,1.6,0.1,2.3,0.3s1.3,0.6,1.7,1.1
		c0.5,0.5,0.9,1.3,1.1,2.2c0.3,0.9,0.4,2,0.4,3.4V72h-2.8v-9.9c0-1.7-0.2-2.9-0.6-3.6s-1.2-1.2-2.4-1.2c-0.6,0-1.3,0.1-2.1,0.3V72
		h-2.8L920.5,55.7L920.5,55.7z"/>
	<path class="st4" d="M938.4,55.2h4.2v2.4h-4.2v9.2c0,1.2,0.2,2,0.6,2.4c0.4,0.5,1,0.7,1.7,0.7c0.4,0,0.7-0.1,1-0.2s0.6-0.2,0.8-0.4
		l0.5,2.2c-0.9,0.5-1.8,0.8-2.8,0.8c-1.6,0-2.8-0.4-3.5-1.3c-0.8-0.9-1.2-2.4-1.2-4.4V50.7l2.8-0.5v5H938.4z"/>
	<path class="st4" d="M947.5,52.2c-0.5,0-0.9-0.2-1.3-0.5c-0.4-0.3-0.5-0.8-0.5-1.3c0-0.6,0.2-1,0.5-1.3c0.4-0.3,0.8-0.5,1.3-0.5
		s0.9,0.2,1.3,0.5c0.4,0.3,0.5,0.8,0.5,1.3c0,0.6-0.2,1-0.5,1.3C948.4,52.1,948,52.2,947.5,52.2z M948.9,72h-2.8V55.2h2.8V72z"/>
	<path class="st4" d="M953.9,55.7c0.8-0.2,1.6-0.4,2.6-0.6c0.9-0.2,1.8-0.2,2.5-0.2c0.8,0,1.6,0.1,2.3,0.3s1.3,0.6,1.7,1.1
		c0.5,0.5,0.9,1.3,1.1,2.2c0.3,0.9,0.4,2,0.4,3.4V72h-2.8v-9.9c0-1.7-0.2-2.9-0.6-3.6s-1.2-1.2-2.4-1.2c-0.6,0-1.3,0.1-2.1,0.3V72
		h-2.8L953.9,55.7L953.9,55.7z"/>
	<path class="st4" d="M979.3,71.5c0,1.2-0.2,2.2-0.5,3s-0.7,1.5-1.3,2c-0.5,0.5-1.2,0.9-1.9,1.1s-1.5,0.4-2.3,0.4
		c-0.7,0-1.4-0.1-2-0.2c-0.7-0.1-1.3-0.4-1.9-0.7l0.6-2.3c0.4,0.2,0.9,0.4,1.4,0.6c0.6,0.2,1.1,0.3,1.7,0.3c1,0,1.9-0.3,2.5-0.9
		s0.9-1.6,0.9-3.1v-0.8c-0.3,0.1-0.7,0.3-1.1,0.4c-0.4,0.1-0.8,0.1-1.3,0.1c-2,0-3.5-0.7-4.4-2.1s-1.4-3.3-1.4-5.8
		c0-1.3,0.1-2.6,0.4-3.6c0.2-1.1,0.6-2,1.2-2.8c0.5-0.8,1.2-1.3,2-1.7s1.8-0.6,3-0.6c0.8,0,1.6,0.1,2.3,0.2c0.8,0.2,1.4,0.4,2,0.6
		L979.3,71.5L979.3,71.5z M976.6,57.4c-0.3-0.1-0.6-0.1-0.9-0.2c-0.3,0-0.5,0-0.8,0c-1.3,0-2.2,0.5-2.8,1.5s-0.9,2.6-0.9,4.8
		c0,2,0.3,3.4,0.9,4.2c0.6,0.8,1.4,1.2,2.5,1.2c0.4,0,0.7,0,1-0.1s0.6-0.2,0.9-0.4L976.6,57.4L976.6,57.4z"/>
	<path class="st4" d="M987.4,70.5c0,0.5-0.2,0.9-0.5,1.3c-0.4,0.4-0.8,0.6-1.4,0.6s-1-0.2-1.4-0.6c-0.3-0.4-0.5-0.8-0.5-1.3
		s0.2-1,0.5-1.3c0.3-0.4,0.8-0.6,1.4-0.6s1,0.2,1.4,0.6C987.2,69.6,987.4,70,987.4,70.5z"/>
	<path class="st4" d="M998.1,49.8h2.9V72h-2.9V49.8z"/>
	<path class="st4" d="M1008.7,55.2h4.2v2.4h-4.2v9.2c0,1.2,0.2,2,0.6,2.4c0.4,0.5,1,0.7,1.7,0.7c0.4,0,0.7-0.1,1-0.2
		s0.6-0.2,0.8-0.4l0.5,2.2c-0.9,0.5-1.8,0.8-2.8,0.8c-1.6,0-2.8-0.4-3.5-1.3c-0.8-0.9-1.2-2.4-1.2-4.4V50.7l2.8-0.5v5H1008.7z"/>
	<path class="st4" d="M1019.3,48c0,0.2,0,0.3,0,0.4c0,0.1,0,0.3,0,0.4c0,1.2-0.2,2.4-0.6,3.5c-0.4,1.1-0.9,2.2-1.6,3.2l-2-0.6
		c0.5-1,0.9-1.9,1.1-2.9c0.2-1,0.3-1.9,0.3-2.8c0-0.2,0-0.5,0-0.7s0-0.4,0-0.7h2.8V48z"/>
	<path class="st4" d="M1025.3,70.1c0.8,0,1.4-0.2,1.8-0.7s0.6-1.1,0.6-1.8c0-0.5-0.1-0.9-0.3-1.2c-0.2-0.3-0.4-0.6-0.7-0.9
		c-0.3-0.3-0.6-0.5-1-0.7s-0.7-0.4-1.1-0.7c-0.4-0.2-0.7-0.5-1.1-0.8c-0.3-0.3-0.6-0.6-0.9-1c-0.3-0.4-0.5-0.8-0.6-1.3
		s-0.2-1-0.2-1.7c0-1.4,0.4-2.5,1.3-3.4c0.9-0.9,2-1.3,3.5-1.3c0.6,0,1.2,0.1,1.8,0.2c0.6,0.2,1,0.3,1.4,0.5l-0.6,2.2
		c-0.4-0.2-0.8-0.4-1.2-0.5c-0.4-0.1-0.8-0.2-1.2-0.2c-0.7,0-1.2,0.2-1.6,0.6c-0.4,0.4-0.6,1-0.6,1.7c0,0.4,0.1,0.8,0.2,1.1
		s0.3,0.6,0.6,0.8c0.2,0.2,0.5,0.5,0.8,0.7s0.6,0.4,1,0.6c0.4,0.2,0.8,0.5,1.2,0.8c0.4,0.3,0.7,0.6,1.1,1c0.3,0.4,0.6,0.8,0.8,1.3
		c0.2,0.5,0.3,1.1,0.3,1.8c0,1.5-0.4,2.7-1.3,3.6s-2.1,1.3-3.8,1.3c-0.9,0-1.6-0.1-2.3-0.4c-0.7-0.2-1.2-0.4-1.5-0.6l0.6-2.3
		c0.3,0.2,0.8,0.4,1.3,0.6C1024,70,1024.6,70.1,1025.3,70.1z"/>
	<path class="st4" d="M1042.7,55.2h4.2v2.4h-4.2v9.2c0,1.2,0.2,2,0.6,2.4c0.4,0.5,1,0.7,1.7,0.7c0.4,0,0.7-0.1,1-0.2
		s0.6-0.2,0.8-0.4l0.5,2.2c-0.9,0.5-1.8,0.8-2.8,0.8c-1.6,0-2.8-0.4-3.5-1.3c-0.8-0.9-1.2-2.4-1.2-4.4V50.7l2.8-0.5L1042.7,55.2
		L1042.7,55.2z"/>
	<path class="st4" d="M1050.4,72V47.7l2.8-0.5v8.1c0.4-0.1,0.8-0.2,1.3-0.3s1-0.1,1.5-0.1c0.7,0,1.4,0.1,2,0.3s1.2,0.6,1.6,1.1
		c0.5,0.5,0.8,1.3,1.1,2.2c0.3,0.9,0.4,2,0.4,3.4V72h-2.8v-9.9c0-1.7-0.2-2.9-0.6-3.6s-1.2-1.2-2.4-1.2c-0.6,0-1.3,0.1-2.1,0.3V72
		H1050.4z"/>
	<path class="st4" d="M1067.7,64.4c0,0.8,0.1,1.6,0.2,2.2c0.1,0.7,0.3,1.3,0.6,1.8c0.3,0.5,0.7,0.9,1.2,1.2c0.5,0.3,1.1,0.4,1.8,0.4
		c0.6,0,1.2-0.1,1.7-0.3c0.5-0.2,0.9-0.3,1.1-0.5l0.5,2.2c-0.3,0.2-0.7,0.4-1.4,0.6c-0.7,0.2-1.4,0.3-2.3,0.3c-1.2,0-2.2-0.2-3-0.6
		s-1.5-1-2-1.8s-0.9-1.7-1.1-2.8c-0.2-1.1-0.3-2.2-0.3-3.5c0-3.1,0.5-5.4,1.5-6.8c1-1.4,2.4-2.1,4.1-2.1c1.9,0,3.2,0.7,4,2.1
		c0.8,1.4,1.2,3.4,1.2,6c0,0.2,0,0.5,0,0.7s0,0.5,0,0.8h-7.8L1067.7,64.4L1067.7,64.4z M1070.5,57.1c-0.9,0-1.6,0.5-2,1.4
		s-0.7,2.1-0.8,3.7h5.1c0-1.6-0.2-2.8-0.5-3.7C1072,57.6,1071.4,57.1,1070.5,57.1z"/>
	<path class="st4" d="M1090.3,72.3c-1.6,0-2.7-0.4-3.4-1.2c-0.7-0.7-1-1.9-1-3.5v-20l2.8-0.5v20.5c0,0.7,0.1,1.3,0.4,1.6
		c0.3,0.3,0.8,0.6,1.6,0.7L1090.3,72.3z"/>
	<path class="st4" d="M1094,55.6c0.6-0.2,1.1-0.4,1.8-0.6s1.3-0.2,2-0.2c1.5,0,2.7,0.5,3.6,1.4s1.4,2.4,1.4,4.3v11.1
		c-0.8,0.2-1.6,0.4-2.4,0.5s-1.6,0.2-2.4,0.2s-1.5-0.1-2.2-0.3s-1.3-0.5-1.8-0.9s-0.9-1-1.2-1.6c-0.3-0.7-0.4-1.4-0.4-2.4
		c0-0.9,0.1-1.6,0.4-2.3s0.6-1.2,1.1-1.6c0.5-0.4,1-0.8,1.7-1c0.6-0.2,1.3-0.3,2.1-0.3c0.7,0,1.5,0.1,2.3,0.3v-1.5
		c0-1.2-0.2-2.1-0.7-2.6s-1.2-0.7-2.1-0.7c-0.5,0-1,0-1.4,0.1s-0.9,0.3-1.4,0.5L1094,55.6z M1095.3,67.1c0,1,0.3,1.7,0.8,2.2
		s1.2,0.7,2.2,0.7c0.6,0,1.2-0.1,1.9-0.2v-5.3c-0.6-0.2-1.3-0.3-1.9-0.3c-0.4,0-0.8,0-1.2,0.1c-0.4,0.1-0.7,0.3-0.9,0.5
		c-0.3,0.2-0.5,0.5-0.6,0.9C1095.4,66.1,1095.3,66.5,1095.3,67.1z"/>
	<path class="st4" d="M1107.7,55.7c0.8-0.2,1.6-0.4,2.6-0.6c0.9-0.2,1.8-0.2,2.5-0.2c0.8,0,1.6,0.1,2.3,0.3c0.7,0.2,1.3,0.6,1.7,1.1
		c0.5,0.5,0.9,1.3,1.1,2.2c0.3,0.9,0.4,2,0.4,3.4V72h-2.8v-9.9c0-1.7-0.2-2.9-0.6-3.6s-1.2-1.2-2.4-1.2c-0.6,0-1.3,0.1-2.1,0.3V72
		h-2.8V55.7H1107.7z"/>
	<path class="st4" d="M1133.1,71.5c0,1.2-0.2,2.2-0.5,3s-0.7,1.5-1.3,2c-0.5,0.5-1.2,0.9-1.9,1.1c-0.7,0.2-1.5,0.4-2.3,0.4
		c-0.7,0-1.4-0.1-2-0.2c-0.7-0.1-1.3-0.4-1.9-0.7l0.6-2.3c0.4,0.2,0.9,0.4,1.4,0.6c0.6,0.2,1.1,0.3,1.7,0.3c1,0,1.9-0.3,2.5-0.9
		s0.9-1.6,0.9-3.1v-0.8c-0.3,0.1-0.7,0.3-1.1,0.4s-0.8,0.1-1.3,0.1c-2,0-3.5-0.7-4.4-2.1s-1.4-3.3-1.4-5.8c0-1.3,0.1-2.6,0.4-3.6
		c0.2-1.1,0.6-2,1.2-2.8c0.5-0.8,1.2-1.3,2-1.7s1.8-0.6,3-0.6c0.8,0,1.6,0.1,2.3,0.2c0.8,0.2,1.4,0.4,2,0.6v15.9
		C1133,71.5,1133.1,71.5,1133.1,71.5z M1130.3,57.4c-0.3-0.1-0.6-0.1-0.9-0.2c-0.3,0-0.5,0-0.8,0c-1.3,0-2.2,0.5-2.8,1.5
		c-0.6,1-0.9,2.6-0.9,4.8c0,2,0.3,3.4,0.9,4.2c0.6,0.8,1.4,1.2,2.5,1.2c0.4,0,0.7,0,1-0.1s0.6-0.2,0.9-0.4v-11
		C1130.2,57.4,1130.3,57.4,1130.3,57.4z"/>
	<path class="st4" d="M1148.4,71.5c-0.3,0.1-0.6,0.2-1,0.3c-0.4,0.1-0.8,0.2-1.2,0.3c-0.4,0.1-0.9,0.1-1.3,0.2s-0.8,0.1-1.2,0.1
		c-0.9,0-1.7-0.1-2.4-0.3c-0.7-0.2-1.3-0.6-1.9-1.1c-0.5-0.5-0.9-1.2-1.2-2.1c-0.3-0.9-0.4-2-0.4-3.3V55.2h2.8v10.2
		c0,1.6,0.3,2.8,0.8,3.5s1.3,1,2.3,1c0.3,0,0.7,0,1,0s0.7-0.1,1.1-0.2V55.2h2.8v16.3H1148.4z"/>
	<path class="st4" d="M1153.6,55.6c0.6-0.2,1.1-0.4,1.8-0.6s1.3-0.2,2-0.2c1.5,0,2.7,0.5,3.6,1.4s1.4,2.4,1.4,4.3v11.1
		c-0.8,0.2-1.6,0.4-2.4,0.5s-1.6,0.2-2.4,0.2s-1.5-0.1-2.2-0.3s-1.3-0.5-1.8-0.9s-0.9-1-1.2-1.6c-0.3-0.7-0.4-1.4-0.4-2.4
		c0-0.9,0.1-1.6,0.4-2.3s0.6-1.2,1.1-1.6c0.5-0.4,1-0.8,1.7-1c0.6-0.2,1.3-0.3,2.1-0.3c0.7,0,1.5,0.1,2.3,0.3v-1.5
		c0-1.2-0.2-2.1-0.7-2.6s-1.2-0.7-2.1-0.7c-0.5,0-1,0-1.4,0.1s-0.9,0.3-1.4,0.5L1153.6,55.6z M1154.9,67.1c0,1,0.3,1.7,0.8,2.2
		s1.2,0.7,2.2,0.7c0.6,0,1.2-0.1,1.9-0.2v-5.3c-0.6-0.2-1.3-0.3-1.9-0.3c-0.4,0-0.8,0-1.2,0.1c-0.4,0.1-0.7,0.3-0.9,0.5
		c-0.3,0.2-0.5,0.5-0.6,0.9C1155,66.1,1154.9,66.5,1154.9,67.1z"/>
	<path class="st4" d="M1177.3,71.5c0,1.2-0.2,2.2-0.5,3s-0.7,1.5-1.3,2c-0.5,0.5-1.2,0.9-1.9,1.1c-0.7,0.2-1.5,0.4-2.3,0.4
		c-0.7,0-1.4-0.1-2-0.2c-0.7-0.1-1.3-0.4-1.9-0.7l0.6-2.3c0.4,0.2,0.9,0.4,1.4,0.6c0.6,0.2,1.1,0.3,1.7,0.3c1,0,1.9-0.3,2.5-0.9
		s0.9-1.6,0.9-3.1v-0.8c-0.3,0.1-0.7,0.3-1.1,0.4s-0.8,0.1-1.3,0.1c-2,0-3.5-0.7-4.4-2.1s-1.4-3.3-1.4-5.8c0-1.3,0.1-2.6,0.4-3.6
		c0.2-1.1,0.6-2,1.2-2.8c0.5-0.8,1.2-1.3,2-1.7s1.8-0.6,3-0.6c0.8,0,1.6,0.1,2.3,0.2c0.8,0.2,1.4,0.4,2,0.6v15.9
		C1177.2,71.5,1177.3,71.5,1177.3,71.5z M1174.5,57.4c-0.3-0.1-0.6-0.1-0.9-0.2c-0.3,0-0.5,0-0.8,0c-1.3,0-2.2,0.5-2.8,1.5
		c-0.6,1-0.9,2.6-0.9,4.8c0,2,0.3,3.4,0.9,4.2c0.6,0.8,1.4,1.2,2.5,1.2c0.4,0,0.7,0,1-0.1s0.6-0.2,0.9-0.4v-11
		C1174.4,57.4,1174.5,57.4,1174.5,57.4z"/>
	<path class="st4" d="M1184.1,64.4c0,0.8,0.1,1.6,0.2,2.2c0.1,0.7,0.3,1.3,0.6,1.8c0.3,0.5,0.7,0.9,1.2,1.2c0.5,0.3,1.1,0.4,1.8,0.4
		c0.6,0,1.2-0.1,1.7-0.3c0.5-0.2,0.9-0.3,1.1-0.5l0.5,2.2c-0.3,0.2-0.7,0.4-1.4,0.6c-0.7,0.2-1.4,0.3-2.3,0.3c-1.2,0-2.2-0.2-3-0.6
		s-1.5-1-2-1.8s-0.9-1.7-1.1-2.8c-0.2-1.1-0.3-2.2-0.3-3.5c0-3.1,0.5-5.4,1.5-6.8c1-1.4,2.4-2.1,4.1-2.1c1.9,0,3.2,0.7,4,2.1
		c0.8,1.4,1.2,3.4,1.2,6c0,0.2,0,0.5,0,0.7s0,0.5,0,0.8h-7.8L1184.1,64.4L1184.1,64.4z M1186.9,57.1c-0.9,0-1.6,0.5-2,1.4
		s-0.7,2.1-0.8,3.7h5.1c0-1.6-0.2-2.8-0.5-3.7C1188.4,57.6,1187.8,57.1,1186.9,57.1z"/>
	<path class="st4" d="M210.5,102c0,1.3-0.1,2.5-0.4,3.6c-0.2,1.1-0.6,2-1.1,2.8s-1.1,1.4-1.8,1.8s-1.6,0.6-2.6,0.6s-1.9-0.2-2.6-0.6
		s-1.4-1-1.8-1.8c-0.5-0.8-0.8-1.7-1.1-2.8c-0.2-1.1-0.4-2.3-0.4-3.6c0-1.3,0.1-2.5,0.4-3.6c0.2-1.1,0.6-2,1.1-2.8s1.1-1.4,1.8-1.8
		s1.6-0.6,2.6-0.6s1.9,0.2,2.6,0.6c0.7,0.4,1.3,1,1.8,1.8s0.8,1.7,1.1,2.8C210.4,99.5,210.5,100.7,210.5,102z M207.7,102
		c0-0.9-0.1-1.8-0.2-2.6c-0.1-0.8-0.3-1.5-0.5-2c-0.2-0.6-0.5-1-0.9-1.3s-0.8-0.5-1.4-0.5c-0.6,0-1,0.2-1.4,0.5s-0.7,0.7-0.9,1.3
		c-0.2,0.6-0.4,1.2-0.5,2s-0.2,1.6-0.2,2.6c0,0.9,0.1,1.8,0.2,2.6c0.1,0.8,0.3,1.4,0.5,2s0.6,1,0.9,1.3c0.4,0.3,0.8,0.5,1.4,0.5
		c0.5,0,1-0.2,1.4-0.5s0.7-0.7,0.9-1.3c0.2-0.6,0.4-1.2,0.5-2C207.6,103.8,207.7,103,207.7,102z"/>
	<path class="st4" d="M219.5,85.6c0.6,0,1.2,0.1,1.6,0.2s0.9,0.3,1.2,0.4l-0.6,2.2c-0.3-0.1-0.6-0.3-0.9-0.3c-0.3-0.1-0.7-0.1-1-0.1
		c-0.5,0-0.9,0.1-1.2,0.3c-0.3,0.2-0.6,0.4-0.7,0.7c-0.2,0.3-0.3,0.7-0.4,1.1c-0.1,0.4-0.1,0.9-0.1,1.3v2.3h4.3V96h-4.3v14.4h-2.8
		V91.3c0-1.8,0.4-3.2,1.2-4.2C216.6,86.1,217.8,85.6,219.5,85.6z"/>
	<path class="st4" d="M233.3,93.7c0.3-0.2,0.7-0.3,1-0.4c0.4-0.1,0.8-0.1,1.3-0.1c1,0,1.9,0.2,2.7,0.6c0.7,0.4,1.4,1,1.8,1.8
		c0.5,0.8,0.8,1.7,1,2.8c0.2,1.1,0.3,2.3,0.3,3.6c0,3-0.5,5.2-1.6,6.7s-2.7,2.2-5,2.2c-0.8,0-1.6-0.1-2.3-0.2
		c-0.8-0.2-1.5-0.4-2-0.6v-24l2.8-0.5V93.7z M233.3,108.2c0.3,0.1,0.6,0.1,0.9,0.2c0.3,0,0.5,0,0.8,0c1.2,0,2.2-0.5,2.8-1.5
		s0.9-2.6,0.9-4.9c0-1.2-0.1-2.2-0.2-3c-0.1-0.8-0.4-1.5-0.7-2s-0.6-0.8-1-1.1c-0.4-0.2-0.9-0.3-1.4-0.3c-0.7,0-1.4,0.2-2,0.5v12.1
		C233.4,108.2,233.3,108.2,233.3,108.2z"/>
	<path class="st4" d="M256,109.9c-0.3,0.1-0.6,0.2-1,0.3c-0.4,0.1-0.8,0.2-1.2,0.3c-0.4,0.1-0.9,0.1-1.3,0.2
		c-0.4,0.1-0.8,0.1-1.2,0.1c-0.9,0-1.7-0.1-2.4-0.3c-0.7-0.2-1.3-0.6-1.9-1.1c-0.5-0.5-0.9-1.2-1.2-2.1s-0.4-2-0.4-3.3V93.6h2.8
		v10.2c0,1.6,0.3,2.8,0.8,3.5s1.3,1,2.3,1c0.3,0,0.7,0,1,0s0.7-0.1,1.1-0.2V93.6h2.8v16.3C256.2,109.9,256,109.9,256,109.9z"/>
	<path class="st4" d="M263.2,108.5c0.8,0,1.4-0.2,1.8-0.7s0.6-1.1,0.6-1.8c0-0.5-0.1-0.9-0.3-1.2c-0.2-0.3-0.4-0.6-0.7-0.9
		c-0.3-0.3-0.6-0.5-1-0.7s-0.7-0.4-1.1-0.7c-0.4-0.2-0.7-0.5-1.1-0.8c-0.3-0.3-0.6-0.6-0.9-1s-0.5-0.8-0.6-1.3
		c-0.2-0.5-0.2-1-0.2-1.7c0-1.4,0.4-2.5,1.3-3.4s2-1.3,3.5-1.3c0.6,0,1.2,0.1,1.8,0.2c0.6,0.2,1,0.3,1.4,0.5l-0.6,2.2
		c-0.4-0.2-0.8-0.4-1.2-0.5c-0.4-0.1-0.8-0.2-1.2-0.2c-0.7,0-1.2,0.2-1.6,0.6s-0.6,1-0.6,1.7c0,0.4,0.1,0.8,0.2,1.1
		c0.1,0.3,0.3,0.6,0.6,0.8c0.2,0.2,0.5,0.5,0.8,0.7s0.6,0.4,1,0.6s0.8,0.5,1.2,0.8c0.4,0.3,0.7,0.6,1.1,1c0.3,0.4,0.6,0.8,0.8,1.3
		c0.2,0.5,0.3,1.1,0.3,1.8c0,1.5-0.4,2.7-1.3,3.6s-2.1,1.3-3.8,1.3c-0.9,0-1.6-0.1-2.3-0.4c-0.7-0.2-1.2-0.4-1.5-0.6l0.6-2.3
		c0.3,0.2,0.8,0.4,1.3,0.6S262.6,108.5,263.2,108.5z"/>
	<path class="st4" d="M273.2,90.6c-0.5,0-0.9-0.2-1.3-0.5s-0.5-0.8-0.5-1.3s0.2-1,0.5-1.3c0.4-0.3,0.8-0.5,1.3-0.5s0.9,0.2,1.3,0.5
		s0.5,0.8,0.5,1.3s-0.2,1-0.5,1.3C274.1,90.5,273.7,90.6,273.2,90.6z M274.6,110.4h-2.8V93.6h2.8V110.4z"/>
	<path class="st4" d="M279.6,94.1c0.8-0.2,1.6-0.4,2.6-0.6c0.9-0.2,1.8-0.2,2.5-0.2c0.8,0,1.6,0.1,2.3,0.3c0.7,0.2,1.3,0.6,1.7,1.1
		s0.9,1.3,1.1,2.2c0.3,0.9,0.4,2,0.4,3.4v10.1h-2.8v-9.9c0-1.7-0.2-2.9-0.6-3.6c-0.4-0.8-1.2-1.2-2.4-1.2c-0.6,0-1.3,0.1-2.1,0.3
		v14.4h-2.8L279.6,94.1L279.6,94.1z"/>
	<path class="st4" d="M296.9,102.8c0,0.8,0.1,1.6,0.2,2.2c0.1,0.7,0.3,1.3,0.6,1.8s0.7,0.9,1.2,1.2s1.1,0.4,1.8,0.4
		c0.6,0,1.2-0.1,1.7-0.3c0.5-0.2,0.9-0.3,1.1-0.5l0.5,2.2c-0.3,0.2-0.7,0.4-1.4,0.6c-0.7,0.2-1.4,0.3-2.3,0.3c-1.2,0-2.2-0.2-3-0.6
		s-1.5-1-2-1.8s-0.9-1.7-1.1-2.8c-0.2-1.1-0.3-2.2-0.3-3.5c0-3.1,0.5-5.4,1.5-6.8s2.4-2.1,4.1-2.1c1.9,0,3.2,0.7,4,2.1
		s1.2,3.4,1.2,6c0,0.2,0,0.5,0,0.7s0,0.5,0,0.8h-7.8L296.9,102.8L296.9,102.8z M299.7,95.5c-0.9,0-1.6,0.5-2,1.4s-0.7,2.1-0.8,3.7
		h5.1c0-1.6-0.2-2.8-0.5-3.7C301.2,96,300.6,95.5,299.7,95.5z"/>
	<path class="st4" d="M311.3,108.5c0.8,0,1.4-0.2,1.8-0.7s0.6-1.1,0.6-1.8c0-0.5-0.1-0.9-0.3-1.2c-0.2-0.3-0.4-0.6-0.7-0.9
		c-0.3-0.3-0.6-0.5-1-0.7s-0.7-0.4-1.1-0.7c-0.4-0.2-0.7-0.5-1.1-0.8c-0.3-0.3-0.6-0.6-0.9-1s-0.5-0.8-0.6-1.3
		c-0.2-0.5-0.2-1-0.2-1.7c0-1.4,0.4-2.5,1.3-3.4s2-1.3,3.5-1.3c0.6,0,1.2,0.1,1.8,0.2c0.6,0.2,1,0.3,1.4,0.5l-0.6,2.2
		c-0.4-0.2-0.8-0.4-1.2-0.5c-0.4-0.1-0.8-0.2-1.2-0.2c-0.7,0-1.2,0.2-1.6,0.6s-0.6,1-0.6,1.7c0,0.4,0.1,0.8,0.2,1.1
		c0.1,0.3,0.3,0.6,0.6,0.8c0.2,0.2,0.5,0.5,0.8,0.7s0.6,0.4,1,0.6s0.8,0.5,1.2,0.8c0.4,0.3,0.7,0.6,1.1,1c0.3,0.4,0.6,0.8,0.8,1.3
		c0.2,0.5,0.3,1.1,0.3,1.8c0,1.5-0.4,2.7-1.3,3.6s-2.1,1.3-3.8,1.3c-0.9,0-1.6-0.1-2.3-0.4c-0.7-0.2-1.2-0.4-1.5-0.6l0.6-2.3
		c0.3,0.2,0.8,0.4,1.3,0.6S310.6,108.5,311.3,108.5z"/>
	<path class="st4" d="M322.2,108.5c0.8,0,1.4-0.2,1.8-0.7s0.6-1.1,0.6-1.8c0-0.5-0.1-0.9-0.3-1.2c-0.2-0.3-0.4-0.6-0.7-0.9
		c-0.3-0.3-0.6-0.5-1-0.7s-0.7-0.4-1.1-0.7c-0.4-0.2-0.7-0.5-1.1-0.8c-0.3-0.3-0.6-0.6-0.9-1s-0.5-0.8-0.6-1.3
		c-0.2-0.5-0.2-1-0.2-1.7c0-1.4,0.4-2.5,1.3-3.4s2-1.3,3.5-1.3c0.6,0,1.2,0.1,1.8,0.2c0.6,0.2,1,0.3,1.4,0.5l-0.6,2.2
		c-0.4-0.2-0.8-0.4-1.2-0.5c-0.4-0.1-0.8-0.2-1.2-0.2c-0.7,0-1.2,0.2-1.6,0.6s-0.6,1-0.6,1.7c0,0.4,0.1,0.8,0.2,1.1
		c0.1,0.3,0.3,0.6,0.6,0.8c0.2,0.2,0.5,0.5,0.8,0.7s0.6,0.4,1,0.6s0.8,0.5,1.2,0.8c0.4,0.3,0.7,0.6,1.1,1c0.3,0.4,0.6,0.8,0.8,1.3
		c0.2,0.5,0.3,1.1,0.3,1.8c0,1.5-0.4,2.7-1.3,3.6s-2.1,1.3-3.8,1.3c-0.9,0-1.6-0.1-2.3-0.4c-0.7-0.2-1.2-0.4-1.5-0.6l0.6-2.3
		c0.3,0.2,0.8,0.4,1.3,0.6S321.5,108.5,322.2,108.5z"/>
	<path class="st4" d="M333.9,108.9c0,0.5-0.2,0.9-0.5,1.3c-0.4,0.4-0.8,0.6-1.4,0.6s-1-0.2-1.4-0.6c-0.3-0.4-0.5-0.8-0.5-1.3
		s0.2-1,0.5-1.3c0.3-0.4,0.8-0.6,1.4-0.6s1,0.2,1.4,0.6C333.7,108,333.9,108.4,333.9,108.9z"/>
</g>
<g class="st5">
	<path class="st6" d="M744.5,123.7c0.1,0.6,0.3,1.3,0.5,2c0.2,0.8,0.4,1.5,0.5,2.3c0.2,0.8,0.4,1.6,0.6,2.4c0.2,0.8,0.4,1.6,0.6,2.2
		c0.2-0.7,0.3-1.6,0.5-2.4c0.2-0.9,0.3-1.8,0.5-2.7c0.1-0.9,0.3-1.9,0.4-2.8c0.1-0.9,0.3-1.8,0.4-2.7h2.9c-0.4,2.6-0.9,5.1-1.4,7.8
		c-0.5,2.6-1.1,5.1-1.7,7.5h-2.5c-0.4-1.4-0.8-2.9-1.2-4.4c-0.4-1.5-0.8-3.1-1.1-4.7c-0.4,1.6-0.8,3.1-1.1,4.7
		c-0.4,1.5-0.8,3-1.2,4.4h-2.5c-0.6-2.4-1.2-4.9-1.7-7.5c-0.5-2.6-1-5.2-1.4-7.8h3c0.1,0.9,0.2,1.8,0.4,2.7c0.1,0.9,0.3,1.9,0.4,2.8
		c0.2,0.9,0.3,1.8,0.5,2.7c0.2,0.9,0.3,1.7,0.5,2.4c0.2-0.7,0.4-1.5,0.6-2.3c0.2-0.8,0.4-1.6,0.6-2.4c0.2-0.8,0.4-1.6,0.5-2.3
		c0.2-0.7,0.3-1.4,0.4-2H744.5z"/>
	<path class="st6" d="M760.5,137.4c-0.1-0.5-0.3-1.1-0.4-1.6c-0.2-0.6-0.3-1.1-0.5-1.7h-4.8c-0.2,0.6-0.3,1.1-0.5,1.7
		c-0.2,0.6-0.3,1.1-0.4,1.6h-2.9c0.5-1.6,0.9-3.2,1.3-4.6c0.4-1.4,0.8-2.7,1.2-3.9c0.4-1.2,0.8-2.4,1.2-3.5c0.4-1.1,0.8-2.2,1.2-3.2
		h2.6c0.4,1.1,0.8,2.1,1.2,3.2c0.4,1.1,0.8,2.3,1.2,3.5c0.4,1.2,0.8,2.5,1.2,3.9c0.4,1.4,0.8,2.9,1.3,4.6H760.5z M757.2,125.6
		c-0.1,0.2-0.2,0.5-0.3,0.9c-0.1,0.4-0.3,0.8-0.4,1.3c-0.2,0.5-0.3,1-0.5,1.7c-0.2,0.6-0.4,1.2-0.6,1.9h3.5
		c-0.2-0.7-0.4-1.3-0.5-1.9c-0.2-0.6-0.3-1.2-0.5-1.7c-0.2-0.5-0.3-0.9-0.4-1.3C757.4,126.1,757.3,125.8,757.2,125.6z"/>
	<path class="st6" d="M768.6,121.9c1.8,0,3.2,0.4,4.2,1.2c1,0.8,1.5,2.1,1.5,3.8c0,1.1-0.2,1.9-0.6,2.6c-0.4,0.7-1,1.2-1.7,1.6
		c0.2,0.4,0.5,0.8,0.8,1.3c0.3,0.5,0.5,1,0.8,1.5c0.3,0.5,0.5,1.1,0.8,1.7c0.2,0.6,0.5,1.1,0.7,1.7h-3.1c-0.2-0.5-0.5-1-0.7-1.5
		c-0.2-0.5-0.5-1-0.7-1.5c-0.2-0.5-0.5-0.9-0.7-1.4c-0.2-0.4-0.5-0.8-0.7-1.2h-1.4v5.6H765v-15c0.6-0.1,1.2-0.2,1.9-0.3
		C767.5,122,768.1,121.9,768.6,121.9z M768.8,124.9c-0.2,0-0.4,0-0.5,0c-0.2,0-0.3,0-0.4,0v4.1h0.8c1,0,1.8-0.2,2.2-0.5
		c0.4-0.3,0.7-0.9,0.7-1.6c0-0.7-0.2-1.3-0.7-1.6C770.3,125,769.6,124.9,768.8,124.9z"/>
	<path class="st6" d="M780.3,121.9c1.8,0,3.2,0.4,4.2,1.2c1,0.8,1.5,2.1,1.5,3.8c0,1.1-0.2,1.9-0.6,2.6c-0.4,0.7-1,1.2-1.7,1.6
		c0.2,0.4,0.5,0.8,0.8,1.3c0.3,0.5,0.5,1,0.8,1.5s0.5,1.1,0.8,1.7c0.2,0.6,0.5,1.1,0.7,1.7h-3.1c-0.2-0.5-0.5-1-0.7-1.5
		c-0.2-0.5-0.5-1-0.7-1.5c-0.2-0.5-0.5-0.9-0.7-1.4c-0.2-0.4-0.5-0.8-0.7-1.2h-1.4v5.6h-2.7v-15c0.6-0.1,1.2-0.2,1.9-0.3
		C779.3,122,779.8,121.9,780.3,121.9z M780.5,124.9c-0.2,0-0.4,0-0.5,0c-0.2,0-0.3,0-0.4,0v4.1h0.8c1,0,1.8-0.2,2.2-0.5
		c0.4-0.3,0.7-0.9,0.7-1.6c0-0.7-0.2-1.3-0.7-1.6C782,125,781.4,124.9,780.5,124.9z"/>
	<path class="st6" d="M788.5,137.4v-15.2h8.2v2.9h-5.5v3h4.9v2.8h-4.9v3.7h5.9v2.9H788.5z"/>
	<path class="st6" d="M807.3,137.4c-0.8-1.7-1.6-3.5-2.6-5.2c-0.9-1.7-1.9-3.3-2.9-4.8v10h-2.7v-15.2h2.2c0.4,0.5,0.8,1.1,1.3,1.8
		c0.5,0.7,0.9,1.5,1.4,2.3c0.5,0.8,1,1.6,1.5,2.5c0.5,0.9,0.9,1.7,1.4,2.5v-9h2.7v15.2H807.3z"/>
	<path class="st6" d="M820.8,137.6c-0.7,0-1.3,0-2-0.1c-0.7-0.1-1.4-0.2-2.1-0.4v-14.8c0.6-0.1,1.2-0.2,1.8-0.3
		c0.7-0.1,1.3-0.1,1.9-0.1c0.8,0,1.5,0.1,2.1,0.2c0.7,0.1,1.2,0.4,1.7,0.7c0.5,0.3,0.8,0.8,1.1,1.3s0.4,1.2,0.4,2
		c0,1.2-0.5,2.2-1.4,2.9c0.8,0.4,1.3,0.9,1.6,1.5c0.3,0.6,0.4,1.3,0.4,2.1c0,1.6-0.5,2.8-1.4,3.6C824,137.2,822.6,137.6,820.8,137.6
		z M819.4,128.1h1.3c0.8,0,1.5-0.1,1.8-0.4s0.5-0.7,0.5-1.3c0-0.6-0.2-1-0.6-1.3c-0.4-0.2-0.9-0.4-1.7-0.4c-0.2,0-0.5,0-0.8,0
		c-0.3,0-0.5,0-0.7,0.1V128.1z M819.4,130.7v3.9c0.2,0,0.4,0.1,0.7,0.1s0.5,0,0.8,0c0.8,0,1.5-0.1,2-0.4c0.5-0.3,0.8-0.8,0.8-1.6
		c0-0.7-0.2-1.2-0.6-1.5c-0.4-0.3-1-0.5-1.8-0.5H819.4z"/>
	<path class="st6" d="M833.3,137.7c-0.9,0-1.6-0.2-2.2-0.5c-0.6-0.3-1.1-0.7-1.5-1.3c-0.4-0.5-0.7-1.2-0.9-1.9
		c-0.2-0.7-0.3-1.6-0.3-2.5v-9.5h2.7v9.2c0,0.6,0.1,1.1,0.2,1.6c0.1,0.4,0.3,0.8,0.5,1.1c0.2,0.3,0.4,0.5,0.7,0.6
		c0.3,0.1,0.6,0.2,0.9,0.2c0.7,0,1.2-0.3,1.6-0.8c0.4-0.5,0.6-1.4,0.6-2.6v-9.2h2.7v9.5c0,0.9-0.1,1.7-0.3,2.5
		c-0.2,0.7-0.5,1.4-0.9,1.9c-0.4,0.5-0.9,1-1.6,1.2C834.9,137.5,834.2,137.7,833.3,137.7z"/>
	<path class="st6" d="M841,137.4v-15.2h8.2v2.9h-5.4v3.2h4.8v2.9h-4.8v6.3H841z"/>
	<path class="st6" d="M851.1,137.4v-15.2h8.2v2.9h-5.4v3.2h4.8v2.9h-4.8v6.3H851.1z"/>
	<path class="st6" d="M861.2,137.4v-15.2h8.2v2.9h-5.5v3h4.9v2.8h-4.9v3.7h5.9v2.9H861.2z"/>
	<path class="st6" d="M880.9,122.1v2.9h-3.7v12.3h-2.7V125h-3.7v-2.9H880.9z"/>
	<path class="st6" d="M885.9,129.3h5.1v3h-5.1V129.3z"/>
</g>
<g class="st5">
	<path class="st6" d="M904.8,137.7c-1.8,0-3.2-0.7-4.1-2c-1-1.3-1.4-3.4-1.4-6.2c0-1.4,0.1-2.6,0.4-3.6s0.6-1.8,1.1-2.4
		c0.5-0.6,1.1-1.1,1.7-1.3c0.7-0.3,1.4-0.4,2.2-0.4c0.6,0,1.2,0.1,1.8,0.3c0.6,0.2,1,0.4,1.4,0.6l-0.6,1.6c-0.4-0.2-0.7-0.4-1.1-0.6
		s-0.9-0.2-1.4-0.2c-1.2,0-2,0.5-2.6,1.5c-0.5,1-0.8,2.5-0.8,4.5c0,2.1,0.3,3.7,0.8,4.8c0.6,1.1,1.5,1.7,2.7,1.7
		c0.6,0,1.1-0.1,1.5-0.2s0.7-0.3,1.1-0.6l0.5,1.6c-0.3,0.3-0.8,0.5-1.3,0.7S905.5,137.7,904.8,137.7z"/>
	<path class="st6" d="M910.1,137.4v-16.7l1.9-0.3v5.6c0.3-0.1,0.6-0.2,0.9-0.2s0.7-0.1,1-0.1c0.5,0,0.9,0.1,1.4,0.2
		c0.4,0.2,0.8,0.4,1.1,0.8c0.3,0.4,0.6,0.9,0.7,1.5c0.2,0.6,0.3,1.4,0.3,2.3v7h-1.9v-6.8c0-1.1-0.1-2-0.4-2.5
		c-0.3-0.5-0.8-0.8-1.6-0.8c-0.4,0-0.9,0.1-1.4,0.2v9.9H910.1z"/>
	<path class="st6" d="M920.9,126.1c0.4-0.2,0.8-0.3,1.2-0.4c0.4-0.1,0.9-0.1,1.4-0.1c1,0,1.9,0.3,2.5,1s1,1.6,1,3v7.7
		c-0.5,0.1-1.1,0.3-1.6,0.4c-0.6,0.1-1.1,0.1-1.6,0.1c-0.5,0-1-0.1-1.5-0.2s-0.9-0.3-1.2-0.6c-0.3-0.3-0.6-0.7-0.8-1.1
		s-0.3-1-0.3-1.6c0-0.6,0.1-1.1,0.3-1.6c0.2-0.4,0.4-0.8,0.8-1.1c0.3-0.3,0.7-0.5,1.1-0.7c0.4-0.2,0.9-0.2,1.4-0.2
		c0.5,0,1,0.1,1.6,0.2v-1.1c0-0.9-0.2-1.4-0.5-1.8c-0.3-0.3-0.8-0.5-1.4-0.5c-0.3,0-0.7,0-1,0.1c-0.3,0.1-0.6,0.2-1,0.3L920.9,126.1
		z M921.8,134c0,0.7,0.2,1.2,0.5,1.5c0.4,0.3,0.9,0.5,1.5,0.5c0.4,0,0.8-0.1,1.3-0.2v-3.7c-0.4-0.1-0.9-0.2-1.3-0.2
		c-0.3,0-0.5,0-0.8,0.1c-0.3,0.1-0.5,0.2-0.6,0.3s-0.3,0.4-0.4,0.6S921.8,133.6,921.8,134z"/>
	<path class="st6" d="M931.2,123.8c-0.3,0-0.6-0.1-0.9-0.3s-0.4-0.5-0.4-0.9c0-0.4,0.1-0.7,0.4-0.9s0.5-0.3,0.9-0.3
		c0.3,0,0.6,0.1,0.9,0.3s0.4,0.5,0.4,0.9c0,0.4-0.1,0.7-0.4,0.9S931.5,123.8,931.2,123.8z M932.1,137.4h-1.9v-11.5h1.9V137.4z"/>
	<path class="st6" d="M940.5,127.5c-0.5-0.2-1-0.3-1.6-0.3c-0.5,0-1,0.1-1.5,0.3v9.9h-1.9v-11c0.4-0.2,0.9-0.4,1.5-0.5
		c0.5-0.1,1.2-0.2,1.8-0.2c0.4,0,0.7,0,1.1,0.1s0.7,0.1,1,0.2L940.5,127.5z"/>
	<path class="st6" d="M942.8,126.1c0.5-0.2,1.1-0.3,1.7-0.4c0.6-0.1,1.2-0.2,1.6-0.2c0.5,0,1,0.1,1.4,0.2s0.8,0.4,1.1,0.7
		c0.4-0.3,0.8-0.5,1.2-0.6c0.4-0.2,0.9-0.2,1.5-0.2c0.5,0,1,0.1,1.4,0.2c0.4,0.2,0.8,0.4,1.1,0.8c0.3,0.4,0.5,0.9,0.7,1.5
		c0.2,0.6,0.3,1.4,0.3,2.3v7h-1.9v-6.8c0-1.1-0.1-2-0.4-2.5c-0.3-0.5-0.8-0.8-1.5-0.8c-0.3,0-0.6,0.1-0.8,0.2
		c-0.3,0.1-0.6,0.2-0.8,0.4c0.1,0.3,0.2,0.7,0.3,1.1c0.1,0.4,0.1,0.9,0.1,1.4v7h-1.9v-6.8c0-1.1-0.1-2-0.4-2.5
		c-0.3-0.5-0.8-0.8-1.5-0.8c-0.4,0-0.8,0.1-1.3,0.2v9.9h-1.9V126.1z"/>
	<path class="st6" d="M958.3,126.1c0.4-0.2,0.8-0.3,1.2-0.4c0.4-0.1,0.9-0.1,1.4-0.1c1,0,1.9,0.3,2.5,1s1,1.6,1,3v7.7
		c-0.5,0.1-1.1,0.3-1.6,0.4c-0.6,0.1-1.1,0.1-1.6,0.1c-0.5,0-1-0.1-1.5-0.2s-0.9-0.3-1.2-0.6c-0.3-0.3-0.6-0.7-0.8-1.1
		s-0.3-1-0.3-1.6c0-0.6,0.1-1.1,0.3-1.6c0.2-0.4,0.4-0.8,0.8-1.1c0.3-0.3,0.7-0.5,1.1-0.7c0.4-0.2,0.9-0.2,1.4-0.2
		c0.5,0,1,0.1,1.6,0.2v-1.1c0-0.9-0.2-1.4-0.5-1.8c-0.3-0.3-0.8-0.5-1.4-0.5c-0.3,0-0.7,0-1,0.1c-0.3,0.1-0.6,0.2-1,0.3L958.3,126.1
		z M959.2,134c0,0.7,0.2,1.2,0.5,1.5c0.4,0.3,0.9,0.5,1.5,0.5c0.4,0,0.8-0.1,1.3-0.2v-3.7c-0.4-0.1-0.9-0.2-1.3-0.2
		c-0.3,0-0.5,0-0.8,0.1c-0.3,0.1-0.5,0.2-0.6,0.3s-0.3,0.4-0.4,0.6S959.2,133.6,959.2,134z"/>
	<path class="st6" d="M967.7,126.1c0.5-0.2,1.1-0.3,1.8-0.4s1.2-0.2,1.7-0.2c0.6,0,1.1,0.1,1.6,0.2c0.5,0.2,0.9,0.4,1.2,0.8
		c0.3,0.4,0.6,0.9,0.8,1.5c0.2,0.6,0.3,1.4,0.3,2.3v7h-1.9v-6.8c0-1.1-0.1-2-0.4-2.5c-0.3-0.5-0.8-0.8-1.6-0.8
		c-0.4,0-0.9,0.1-1.4,0.2v9.9h-1.9V126.1z"/>
	<path class="st6" d="M991.5,129.6c-0.1,0.9-0.2,1.8-0.4,2.6c-0.2,0.8-0.5,1.5-0.8,2.1c0.3,0.5,0.6,1,0.9,1.6c0.3,0.5,0.5,1,0.7,1.5
		H990c-0.2-0.5-0.4-1-0.7-1.5c-0.5,0.6-1,1-1.6,1.3s-1.2,0.5-1.7,0.5c-0.7,0-1.4-0.1-1.9-0.4s-0.9-0.5-1.3-0.9
		c-0.3-0.4-0.6-0.8-0.7-1.3c-0.2-0.5-0.2-0.9-0.2-1.4c0-0.6,0.1-1.1,0.2-1.6c0.1-0.5,0.3-0.9,0.6-1.2c0.2-0.4,0.5-0.7,0.8-1
		c0.3-0.3,0.6-0.6,1-0.9c-0.4-0.6-0.7-1.1-1-1.8c-0.3-0.6-0.4-1.3-0.4-2c0-1,0.3-1.9,0.9-2.5c0.6-0.6,1.3-0.9,2.3-0.9
		c0.5,0,1,0.1,1.4,0.3c0.4,0.2,0.7,0.4,0.9,0.7c0.2,0.3,0.4,0.6,0.5,1c0.1,0.4,0.2,0.8,0.2,1.2c0,0.5-0.1,0.9-0.2,1.4
		s-0.3,0.8-0.5,1.1s-0.5,0.6-0.8,0.9s-0.6,0.5-0.9,0.8l2.6,3.7c0.2-0.5,0.3-1,0.4-1.6s0.2-1.2,0.3-1.9L991.5,129.6z M986,136
		c0.4,0,0.8-0.1,1.2-0.4c0.4-0.2,0.8-0.6,1.1-1.1l-3.1-4.3c-0.4,0.4-0.8,0.9-1.1,1.4c-0.3,0.5-0.4,1.2-0.4,1.9
		c0,0.7,0.2,1.3,0.6,1.8C984.7,135.7,985.2,136,986,136z M984.6,125.2c0,0.5,0.1,1,0.3,1.4c0.2,0.4,0.5,0.9,0.8,1.3
		c0.5-0.4,0.8-0.8,1.2-1.3c0.3-0.5,0.5-1,0.5-1.7c0-0.6-0.1-1-0.4-1.3c-0.2-0.3-0.6-0.4-1-0.4c-0.5,0-0.8,0.2-1.1,0.5
		C984.7,124.1,984.6,124.6,984.6,125.2z"/>
	<path class="st6" d="M1003.1,137.7c-1.8,0-3.2-0.7-4.1-2c-1-1.3-1.4-3.4-1.4-6.2c0-1.4,0.1-2.6,0.4-3.6s0.6-1.8,1.1-2.4
		c0.5-0.6,1.1-1.1,1.7-1.3c0.7-0.3,1.4-0.4,2.2-0.4c0.6,0,1.2,0.1,1.8,0.3c0.6,0.2,1,0.4,1.4,0.6l-0.6,1.6c-0.4-0.2-0.7-0.4-1.1-0.6
		s-0.9-0.2-1.4-0.2c-1.2,0-2,0.5-2.6,1.5c-0.5,1-0.8,2.5-0.8,4.5c0,2.1,0.3,3.7,0.8,4.8c0.6,1.1,1.5,1.7,2.7,1.7
		c0.6,0,1.1-0.1,1.5-0.2s0.7-0.3,1.1-0.6l0.5,1.6c-0.3,0.3-0.8,0.5-1.3,0.7S1003.8,137.7,1003.1,137.7z"/>
	<path class="st6" d="M1008.5,137.4v-15.2h6.8v1.7h-4.9v4.7h4.4v1.7h-4.4v5.5h5.2v1.7H1008.5z"/>
	<path class="st6" d="M1028.5,129.8c0,1.2-0.1,2.3-0.3,3.2c-0.2,1-0.5,1.8-1,2.5c-0.4,0.7-1,1.2-1.7,1.6c-0.7,0.4-1.5,0.6-2.4,0.6
		s-1.7-0.2-2.4-0.6c-0.7-0.4-1.2-0.9-1.7-1.6c-0.4-0.7-0.8-1.5-1-2.5c-0.2-1-0.3-2.1-0.3-3.2c0-1.2,0.1-2.3,0.3-3.3
		c0.2-1,0.6-1.8,1-2.5c0.4-0.7,1-1.2,1.7-1.6c0.7-0.4,1.5-0.6,2.4-0.6s1.7,0.2,2.4,0.6s1.2,0.9,1.7,1.6c0.4,0.7,0.8,1.5,1,2.5
		C1028.3,127.5,1028.5,128.6,1028.5,129.8z M1026.3,129.8c0-0.9-0.1-1.8-0.2-2.5s-0.3-1.4-0.6-2c-0.3-0.5-0.6-1-1-1.3
		c-0.4-0.3-0.9-0.5-1.5-0.5s-1.1,0.2-1.5,0.5c-0.4,0.3-0.8,0.7-1,1.3c-0.3,0.6-0.5,1.2-0.6,2c-0.1,0.8-0.2,1.6-0.2,2.5
		s0.1,1.8,0.2,2.5c0.1,0.8,0.3,1.4,0.6,2c0.3,0.5,0.6,1,1,1.3c0.4,0.3,0.9,0.5,1.5,0.5s1.1-0.2,1.5-0.5c0.4-0.3,0.8-0.7,1-1.3
		c0.3-0.5,0.5-1.2,0.6-2S1026.3,130.7,1026.3,129.8z"/>
	<path class="st6" d="M1032.5,134.9c0,0.1,0,0.2,0,0.3s0,0.2,0,0.3c0,0.9-0.1,1.8-0.4,2.7c-0.3,0.9-0.6,1.7-1.1,2.5l-1.3-0.4
		c0.4-0.7,0.6-1.5,0.7-2.3c0.1-0.8,0.2-1.5,0.2-2.2c0-0.2,0-0.4,0-0.5c0-0.2,0-0.3,0-0.5H1032.5z"/>
	<path class="st6" d="M1040.2,122.3c0.5-0.1,1-0.2,1.6-0.3c0.5-0.1,1.1-0.1,1.6-0.1c0.7,0,1.3,0.1,1.9,0.2c0.6,0.1,1.1,0.3,1.6,0.6
		c0.5,0.3,0.8,0.7,1.1,1.2s0.4,1.1,0.4,1.8c0,0.9-0.2,1.7-0.6,2.2c-0.4,0.6-0.9,1-1.5,1.3c0.7,0.3,1.4,0.7,1.8,1.3
		c0.5,0.6,0.7,1.4,0.7,2.5c0,0.8-0.1,1.5-0.4,2c-0.3,0.5-0.6,1-1.1,1.3s-1,0.6-1.7,0.7c-0.7,0.2-1.4,0.2-2.1,0.2c-0.5,0-1,0-1.6-0.1
		c-0.6-0.1-1.1-0.1-1.7-0.3V122.3z M1042.1,128.6h1.4c1.8,0,2.7-0.8,2.7-2.5c0-0.5-0.1-0.9-0.2-1.3c-0.2-0.3-0.4-0.6-0.6-0.8
		c-0.3-0.2-0.5-0.3-0.9-0.4s-0.7-0.1-1-0.1c-0.2,0-0.4,0-0.7,0c-0.2,0-0.5,0-0.7,0.1V128.6z M1042.1,130.2v5.5
		c0.3,0,0.6,0.1,0.8,0.1s0.5,0,0.8,0c0.4,0,0.8,0,1.2-0.1c0.4-0.1,0.7-0.2,1-0.4c0.3-0.2,0.5-0.5,0.6-0.8s0.2-0.8,0.2-1.3
		c0-0.9-0.2-1.6-0.7-2.1c-0.5-0.5-1.3-0.8-2.3-0.8H1042.1z"/>
	<path class="st6" d="M1052.8,132.2c0,0.6,0.1,1.1,0.2,1.5c0.1,0.5,0.2,0.9,0.4,1.2s0.5,0.6,0.8,0.8s0.8,0.3,1.3,0.3
		c0.4,0,0.8-0.1,1.2-0.2c0.4-0.1,0.6-0.2,0.8-0.3l0.4,1.5c-0.2,0.1-0.5,0.3-1,0.4c-0.4,0.2-1,0.2-1.6,0.2c-0.8,0-1.5-0.1-2-0.4
		c-0.5-0.3-1-0.7-1.3-1.2c-0.3-0.5-0.6-1.2-0.7-1.9c-0.1-0.7-0.2-1.5-0.2-2.4c0-2.1,0.4-3.7,1.1-4.7c0.7-1,1.6-1.5,2.8-1.5
		c1.3,0,2.2,0.5,2.8,1.5c0.5,1,0.8,2.4,0.8,4.1c0,0.2,0,0.3,0,0.5c0,0.2,0,0.3,0,0.5H1052.8z M1054.7,127.1c-0.6,0-1.1,0.3-1.4,0.9
		c-0.3,0.6-0.5,1.5-0.5,2.5h3.5c0-1.1-0.1-1.9-0.3-2.5C1055.8,127.4,1055.3,127.1,1054.7,127.1z"/>
	<path class="st6" d="M1066.1,127.5c-0.5-0.2-1-0.3-1.6-0.3c-0.5,0-1,0.1-1.5,0.3v9.9h-1.9v-11c0.4-0.2,0.9-0.4,1.5-0.5
		c0.5-0.1,1.2-0.2,1.8-0.2c0.4,0,0.7,0,1.1,0.1c0.4,0,0.7,0.1,1,0.2L1066.1,127.5z"/>
	<path class="st6" d="M1075.4,125.8c-0.6,1.1-1.2,2-1.8,2.9c-0.6,0.9-1.1,1.7-1.7,2.5c0.4,0.4,0.7,0.9,1.1,1.4
		c0.4,0.5,0.7,1,1.1,1.6c0.3,0.6,0.7,1.1,0.9,1.7c0.3,0.6,0.5,1.1,0.7,1.6h-2.1c-0.2-0.5-0.5-1-0.8-1.5c-0.3-0.5-0.6-1-0.9-1.6
		c-0.3-0.5-0.6-1-1-1.4c-0.3-0.5-0.6-0.8-0.9-1.1v5.7h-1.9v-16.7l1.9-0.3v10.5c0.3-0.4,0.5-0.7,0.8-1.2c0.3-0.4,0.6-0.9,0.9-1.3
		c0.3-0.4,0.6-0.9,0.8-1.3c0.3-0.4,0.5-0.8,0.7-1.1H1075.4z"/>
	<path class="st6" d="M1079.3,136c0.6,0,1-0.2,1.3-0.5c0.3-0.3,0.4-0.7,0.4-1.2c0-0.3-0.1-0.6-0.2-0.8s-0.3-0.4-0.5-0.6
		c-0.2-0.2-0.4-0.3-0.7-0.5c-0.3-0.1-0.5-0.3-0.7-0.5c-0.3-0.1-0.5-0.3-0.7-0.5c-0.2-0.2-0.4-0.4-0.6-0.7c-0.2-0.3-0.3-0.5-0.4-0.9
		s-0.2-0.7-0.2-1.2c0-1,0.3-1.7,0.9-2.3c0.6-0.6,1.4-0.9,2.4-0.9c0.4,0,0.8,0.1,1.2,0.2c0.4,0.1,0.7,0.2,0.9,0.4l-0.4,1.5
		c-0.3-0.1-0.5-0.3-0.8-0.3s-0.5-0.1-0.9-0.1c-0.5,0-0.8,0.1-1.1,0.4c-0.3,0.3-0.4,0.7-0.4,1.2c0,0.3,0.1,0.5,0.2,0.8
		s0.2,0.4,0.4,0.6c0.2,0.2,0.4,0.3,0.6,0.5c0.2,0.1,0.4,0.3,0.7,0.4c0.3,0.2,0.6,0.3,0.8,0.5c0.3,0.2,0.5,0.4,0.7,0.7
		c0.2,0.3,0.4,0.6,0.5,0.9c0.1,0.3,0.2,0.8,0.2,1.2c0,1-0.3,1.8-0.9,2.4c-0.6,0.6-1.5,0.9-2.6,0.9c-0.6,0-1.1-0.1-1.6-0.2
		s-0.8-0.3-1.1-0.4l0.4-1.6c0.2,0.1,0.5,0.3,0.9,0.4S1078.8,136,1079.3,136z"/>
	<path class="st6" d="M1085.2,137.4v-16.7l1.9-0.3v5.6c0.3-0.1,0.6-0.2,0.9-0.2s0.7-0.1,1-0.1c0.5,0,0.9,0.1,1.4,0.2
		c0.4,0.2,0.8,0.4,1.1,0.8c0.3,0.4,0.6,0.9,0.7,1.5c0.2,0.6,0.3,1.4,0.3,2.3v7h-1.9v-6.8c0-1.1-0.1-2-0.4-2.5
		c-0.3-0.5-0.8-0.8-1.7-0.8c-0.4,0-0.9,0.1-1.4,0.2v9.9H1085.2z"/>
	<path class="st6" d="M1096.7,123.8c-0.3,0-0.6-0.1-0.9-0.3s-0.4-0.5-0.4-0.9c0-0.4,0.1-0.7,0.4-0.9s0.5-0.3,0.9-0.3
		c0.3,0,0.6,0.1,0.9,0.3c0.2,0.2,0.4,0.5,0.4,0.9c0,0.4-0.1,0.7-0.4,0.9C1097.4,123.7,1097.1,123.8,1096.7,123.8z M1097.7,137.4
		h-1.9v-11.5h1.9V137.4z"/>
	<path class="st6" d="M1106.1,127.5c-0.5-0.2-1-0.3-1.6-0.3c-0.5,0-1,0.1-1.5,0.3v9.9h-1.9v-11c0.4-0.2,0.9-0.4,1.5-0.5
		c0.5-0.1,1.2-0.2,1.8-0.2c0.4,0,0.7,0,1.1,0.1c0.4,0,0.7,0.1,1,0.2L1106.1,127.5z"/>
	<path class="st6" d="M1109.4,132.2c0,0.6,0.1,1.1,0.2,1.5c0.1,0.5,0.2,0.9,0.4,1.2c0.2,0.3,0.5,0.6,0.8,0.8s0.8,0.3,1.3,0.3
		c0.4,0,0.8-0.1,1.2-0.2c0.4-0.1,0.6-0.2,0.8-0.3l0.4,1.5c-0.2,0.1-0.5,0.3-1,0.4c-0.4,0.2-1,0.2-1.6,0.2c-0.8,0-1.5-0.1-2-0.4
		c-0.5-0.3-1-0.7-1.3-1.2c-0.3-0.5-0.6-1.2-0.7-1.9c-0.1-0.7-0.2-1.5-0.2-2.4c0-2.1,0.4-3.7,1.1-4.7c0.7-1,1.6-1.5,2.8-1.5
		c1.3,0,2.2,0.5,2.8,1.5c0.5,1,0.8,2.4,0.8,4.1c0,0.2,0,0.3,0,0.5c0,0.2,0,0.3,0,0.5H1109.4z M1111.3,127.1c-0.6,0-1.1,0.3-1.4,0.9
		c-0.3,0.6-0.5,1.5-0.5,2.5h3.5c0-1.1-0.1-1.9-0.3-2.5C1112.4,127.4,1112,127.1,1111.3,127.1z"/>
	<path class="st6" d="M1129.1,122.1h2v15.2h-2v-7.1h-5v7.1h-2v-15.2h2v6.4h5V122.1z"/>
	<path class="st6" d="M1134.8,126.1c0.4-0.2,0.8-0.3,1.2-0.4c0.4-0.1,0.9-0.1,1.4-0.1c1,0,1.9,0.3,2.5,1c0.6,0.6,1,1.6,1,3v7.7
		c-0.5,0.1-1.1,0.3-1.6,0.4s-1.1,0.1-1.6,0.1c-0.5,0-1-0.1-1.5-0.2s-0.9-0.3-1.2-0.6c-0.3-0.3-0.6-0.7-0.8-1.1
		c-0.2-0.4-0.3-1-0.3-1.6c0-0.6,0.1-1.1,0.3-1.6s0.4-0.8,0.8-1.1s0.7-0.5,1.1-0.7c0.4-0.2,0.9-0.2,1.4-0.2c0.5,0,1,0.1,1.6,0.2v-1.1
		c0-0.9-0.2-1.4-0.5-1.8c-0.3-0.3-0.8-0.5-1.4-0.5c-0.3,0-0.7,0-1,0.1c-0.3,0.1-0.6,0.2-1,0.3L1134.8,126.1z M1135.7,134
		c0,0.7,0.2,1.2,0.5,1.5c0.4,0.3,0.9,0.5,1.5,0.5c0.4,0,0.8-0.1,1.3-0.2v-3.7c-0.4-0.1-0.9-0.2-1.3-0.2c-0.3,0-0.5,0-0.8,0.1
		c-0.2,0.1-0.5,0.2-0.6,0.3c-0.2,0.2-0.3,0.4-0.4,0.6C1135.8,133.3,1135.7,133.6,1135.7,134z"/>
	<path class="st6" d="M1146,125.8h2.9v1.6h-2.9v6.4c0,0.8,0.1,1.3,0.4,1.7c0.3,0.3,0.7,0.5,1.2,0.5c0.2,0,0.5,0,0.7-0.1
		s0.4-0.2,0.6-0.3l0.4,1.5c-0.6,0.4-1.2,0.5-1.9,0.5c-1.1,0-1.9-0.3-2.4-0.9s-0.8-1.6-0.8-3v-11l1.9-0.3V125.8z"/>
	<path class="st6" d="M1151.3,137.4v-16.7l1.9-0.3v5.6c0.3-0.1,0.6-0.2,0.9-0.2s0.7-0.1,1-0.1c0.5,0,0.9,0.1,1.4,0.2
		c0.4,0.2,0.8,0.4,1.1,0.8c0.3,0.4,0.6,0.9,0.7,1.5c0.2,0.6,0.3,1.4,0.3,2.3v7h-1.9v-6.8c0-1.1-0.1-2-0.4-2.5
		c-0.3-0.5-0.8-0.8-1.7-0.8c-0.4,0-0.9,0.1-1.4,0.2v9.9H1151.3z"/>
	<path class="st6" d="M1164.8,137.4h-1.9c-0.5-1.5-0.9-3.2-1.3-5.2s-0.8-4.1-1.1-6.3h1.9c0.1,0.6,0.1,1.4,0.3,2.2
		c0.1,0.8,0.2,1.7,0.4,2.6c0.1,0.9,0.3,1.7,0.4,2.6c0.1,0.8,0.3,1.5,0.4,2.1c0.1-0.6,0.3-1.3,0.5-2.2c0.2-0.9,0.3-1.7,0.5-2.6
		c0.2-0.9,0.3-1.8,0.5-2.6c0.1-0.8,0.3-1.6,0.4-2.1h1.8c0.1,0.6,0.1,1.3,0.3,2.1c0.1,0.8,0.3,1.7,0.4,2.6s0.3,1.8,0.4,2.6
		c0.1,0.9,0.3,1.6,0.4,2.2c0.1-0.6,0.3-1.3,0.4-2.1s0.3-1.7,0.4-2.6c0.1-0.9,0.3-1.7,0.4-2.6c0.1-0.8,0.2-1.6,0.3-2.2h1.8
		c-0.3,2.3-0.7,4.4-1.1,6.3c-0.4,2-0.8,3.7-1.3,5.2h-1.8c-0.1-0.5-0.2-1-0.4-1.7c-0.1-0.7-0.3-1.5-0.4-2.3c-0.1-0.8-0.3-1.6-0.4-2.4
		c-0.1-0.8-0.2-1.6-0.3-2.2c-0.1,0.7-0.2,1.4-0.4,2.2c-0.1,0.8-0.3,1.6-0.5,2.4c-0.2,0.8-0.3,1.6-0.5,2.3
		C1165,136.3,1164.9,136.9,1164.8,137.4z"/>
	<path class="st6" d="M1174.4,126.1c0.4-0.2,0.8-0.3,1.2-0.4c0.4-0.1,0.9-0.1,1.4-0.1c1,0,1.9,0.3,2.5,1s1,1.6,1,3v7.7
		c-0.5,0.1-1.1,0.3-1.6,0.4c-0.6,0.1-1.1,0.1-1.6,0.1c-0.5,0-1-0.1-1.5-0.2s-0.9-0.3-1.2-0.6c-0.3-0.3-0.6-0.7-0.8-1.1
		s-0.3-1-0.3-1.6c0-0.6,0.1-1.1,0.3-1.6c0.2-0.4,0.4-0.8,0.8-1.1c0.3-0.3,0.7-0.5,1.1-0.7c0.4-0.2,0.9-0.2,1.4-0.2
		c0.5,0,1,0.1,1.6,0.2v-1.1c0-0.9-0.2-1.4-0.5-1.8c-0.3-0.3-0.8-0.5-1.4-0.5c-0.3,0-0.7,0-1,0.1c-0.3,0.1-0.6,0.2-1,0.3
		L1174.4,126.1z M1175.3,134c0,0.7,0.2,1.2,0.5,1.5c0.4,0.3,0.9,0.5,1.5,0.5c0.4,0,0.8-0.1,1.3-0.2v-3.7c-0.4-0.1-0.9-0.2-1.3-0.2
		c-0.3,0-0.5,0-0.8,0.1c-0.3,0.1-0.5,0.2-0.6,0.3s-0.3,0.4-0.4,0.6S1175.3,133.6,1175.3,134z"/>
	<path class="st6" d="M1186.2,135c0.4-1.5,0.8-2.9,1.2-4.4c0.4-1.5,0.7-3.1,1-4.7h1.9c-0.2,1.1-0.5,2.1-0.7,3.2c-0.3,1-0.5,2-0.8,3
		c-0.3,1-0.5,1.9-0.8,2.7c-0.3,0.9-0.5,1.6-0.8,2.3c-0.3,0.8-0.5,1.5-0.8,2.1c-0.3,0.6-0.5,1-0.8,1.4c-0.3,0.3-0.6,0.6-1,0.7
		c-0.4,0.2-0.8,0.2-1.3,0.2c-0.3,0-0.5,0-0.8-0.1c-0.3-0.1-0.5-0.1-0.7-0.2l0.4-1.5c0.4,0.2,0.7,0.2,1.1,0.2c0.4,0,0.8-0.2,1-0.5
		c0.3-0.3,0.5-0.8,0.8-1.4l0.2-0.5c-0.3-0.8-0.6-1.6-0.8-2.5c-0.3-0.9-0.6-1.9-0.8-2.9c-0.3-1-0.5-2-0.8-3.1
		c-0.2-1.1-0.5-2.1-0.7-3.1h2c0.1,0.7,0.3,1.4,0.4,2.3c0.2,0.8,0.3,1.6,0.5,2.5c0.2,0.8,0.4,1.6,0.6,2.4
		C1185.8,133.7,1186,134.4,1186.2,135z"/>
</g>
</svg>
