<svg xmlns="http://www.w3.org/2000/svg" xmlns:xlink="http://www.w3.org/1999/xlink" viewBox="0 0 695.74 156.16"><defs><style>.a,.b,.c{fill:none;}.b{clip-rule:evenodd;}.c,.d,.f{fill-rule:evenodd;}.d{fill:#f8ccad;}.e{clip-path:url(#a);}.f{fill:#fff;}.g{clip-path:url(#i);}.h{fill:#c45c28;}.i{fill:#b7b7b7;}.j{fill:#57451a;}.k{clip-path:url(#n);}.l,.n{fill:#595959;}.l{stroke:#595959;stroke-miterlimit:10;stroke-width:0.42px;}.m{clip-path:url(#o);}</style><clipPath id="a" transform="translate(0 0)"><polyline class="a" points="716.81 163.9 716.81 0 -21.08 0 -21.08 163.9 -21.08 163.9"/></clipPath><clipPath id="i" transform="translate(0 0)"><polyline class="a" points="-21.08 163.9 -21.08 0 716.81 0 716.81 163.9"/></clipPath><clipPath id="n" transform="translate(0 0)"><rect class="a" x="314.08" y="132.35" width="331" height="31.65"/></clipPath><clipPath id="o" transform="translate(0 0)"><polygon class="b" points="314.08 164 645.08 164 645.08 132.35 314.08 132.35 314.08 164 314.08 164"/></clipPath></defs><title>quote</title><polygon class="d" points="23.89 0.7 20.38 0.7 20.38 156.16 23.89 156.16 23.89 0.7 23.89 0.7"/><g class="e"><g class="e"><g class="e"><g class="e"><g class="e"><g class="e"><g class="e"><path class="f" d="M0,77.37A22.49,22.49,0,1,1,22.49,99.88,22.49,22.49,0,0,1,0,77.37Z" transform="translate(0 0)"/><g class="e"><g class="g"><path class="h" d="M18.07,67.65l.8,1.53a13.89,13.89,0,0,0-4.24,3.33,5.23,5.23,0,0,0-1.37,2.91.69.69,0,0,0,.58.79.61.61,0,0,0,.19,0h.64l.77,0a4.22,4.22,0,1,1-.1,8.43,5,5,0,0,1-3.85-1.78,6.58,6.58,0,0,1-1.58-4.57A9.61,9.61,0,0,1,12,72.54,16.36,16.36,0,0,1,18.07,67.65Zm12.9,0,.84,1.53a13.92,13.92,0,0,0-4.24,3.34,5.21,5.21,0,0,0-1.35,2.9.69.69,0,0,0,.58.79.61.61,0,0,0,.19,0h.64l.74,0a4.13,4.13,0,0,1,4.2,4.06v.14a4.07,4.07,0,0,1-1.21,3,4.19,4.19,0,0,1-3.09,1.2,5,5,0,0,1-3.88-1.78,6.63,6.63,0,0,1-1.58-4.57,9.78,9.78,0,0,1,2-5.69A16.19,16.19,0,0,1,31,67.65Z" transform="translate(0 0)"/></g><g class="e"><polygon class="d" points="674.65 0 671.13 0 671.13 155.45 674.65 155.45 674.65 0 674.65 0"/><g class="e"><path class="f" d="M651.46,76.32a22.14,22.14,0,1,1,22.13,22.16A22.14,22.14,0,0,1,651.46,76.32Z" transform="translate(0 0)"/><g class="e"><g class="g"><path class="h" d="M664.42,84.54,663.58,83a13.73,13.73,0,0,0,4.29-3.35,5.19,5.19,0,0,0,1.34-2.9c0-.53-.25-.79-.76-.79h-.64l-.74.05a4.13,4.13,0,0,1-4.2-4.06v-.14a4.07,4.07,0,0,1,1.21-3,4.17,4.17,0,0,1,3.08-1.2A5,5,0,0,1,671,69.39,6.59,6.59,0,0,1,672.63,74a9.75,9.75,0,0,1-2.11,5.69A16.05,16.05,0,0,1,664.42,84.54Zm12.9,0L676.48,83a13.74,13.74,0,0,0,4.24-3.33,5.23,5.23,0,0,0,1.37-2.91.69.69,0,0,0-.58-.79.61.61,0,0,0-.19,0h-.64l-.77,0a4.22,4.22,0,1,1,.1-8.43,5,5,0,0,1,3.86,1.86A6.63,6.63,0,0,1,685.45,74a9.61,9.61,0,0,1-2.05,5.7,16.36,16.36,0,0,1-6.08,4.86Z" transform="translate(0 0)"/></g></g></g></g></g></g></g></g></g></g></g></g><path class="i" d="M71.68,50.67c-.35.94-.72,1.94-1.13,3s-.84,2.14-1.3,3.23-.93,2.17-1.41,3.25-1,2.11-1.44,3.09v8.22H63.7v-8Q63,62,62.23,60.3T60.79,57q-.69-1.65-1.32-3.27t-1.14-3.06h2.91Q62,53,63,55.67t2,4.91q1-2.27,2-4.91t1.77-5Z" transform="translate(0 0)"/><path class="i" d="M82.87,63.6A16.63,16.63,0,0,1,82.54,67a8.34,8.34,0,0,1-1,2.59,4.9,4.9,0,0,1-1.71,1.68,4.91,4.91,0,0,1-6.63-1.68,7.87,7.87,0,0,1-1-2.59,16.87,16.87,0,0,1,0-6.74,8,8,0,0,1,1-2.62,4.77,4.77,0,0,1,1.73-1.7,5.3,5.3,0,0,1,4.9,0,4.88,4.88,0,0,1,1.71,1.7,8.53,8.53,0,0,1,1,2.62A16.64,16.64,0,0,1,82.87,63.6Zm-2.7,0A19.58,19.58,0,0,0,80,61.19a8.66,8.66,0,0,0-.48-1.89,3.23,3.23,0,0,0-.87-1.23,2,2,0,0,0-1.29-.44,2,2,0,0,0-1.31.44,3.23,3.23,0,0,0-.87,1.23,6.85,6.85,0,0,0-.49,1.89,19.52,19.52,0,0,0,0,4.83,6.61,6.61,0,0,0,.49,1.87,3.27,3.27,0,0,0,.87,1.22,2,2,0,0,0,1.31.43,2,2,0,0,0,1.29-.43,3.27,3.27,0,0,0,.87-1.22A8.32,8.32,0,0,0,80,66,19.75,19.75,0,0,0,80.17,63.6Z" transform="translate(0 0)"/><path class="i" d="M96.4,71a7.85,7.85,0,0,1-1,.29q-.56.14-1.17.24t-1.23.18a9.2,9.2,0,0,1-1.12.07,8.25,8.25,0,0,1-2.25-.28,3.91,3.91,0,0,1-1.74-1,4.59,4.59,0,0,1-1.11-2,10.37,10.37,0,0,1-.39-3.14V55.71H89v9.6a5.65,5.65,0,0,0,.7,3.26,2.51,2.51,0,0,0,2.15.94c.32,0,.63,0,1,0a5,5,0,0,0,1-.2V55.71H96.4Z" transform="translate(0 0)"/><path class="i" d="M106.89,71.46V48.63l2.58-.45V55.8a10,10,0,0,1,1.25-.3,7.73,7.73,0,0,1,1.36-.12,5.42,5.42,0,0,1,1.86.32,3.6,3.6,0,0,1,1.52,1.06,5.44,5.44,0,0,1,1,2,11.37,11.37,0,0,1,.37,3.16v9.51h-2.58v-9.3a7.36,7.36,0,0,0-.6-3.42,2.34,2.34,0,0,0-2.25-1.08,7.36,7.36,0,0,0-2,.3v13.5Z" transform="translate(0 0)"/><path class="i" d="M121.59,56a9.62,9.62,0,0,1,1.65-.52,8.63,8.63,0,0,1,1.89-.2,4.66,4.66,0,0,1,3.42,1.31,5.49,5.49,0,0,1,1.32,4.06V71.13a20,20,0,0,1-2.2.48,14,14,0,0,1-2.21.18,7.31,7.31,0,0,1-2-.27,4.27,4.27,0,0,1-2.78-2.38,5.36,5.36,0,0,1-.42-2.24,5.6,5.6,0,0,1,.38-2.14,4.26,4.26,0,0,1,1-1.53,4.38,4.38,0,0,1,1.56-.93,5.86,5.86,0,0,1,2-.32,11.25,11.25,0,0,1,2.19.24V60.78a3.45,3.45,0,0,0-.67-2.43,2.6,2.6,0,0,0-1.94-.69,6,6,0,0,0-1.3.14,7.13,7.13,0,0,0-1.31.43Zm1.23,10.83a2.64,2.64,0,0,0,.72,2,2.91,2.91,0,0,0,2,.66,8.33,8.33,0,0,0,1.77-.21v-5a6.85,6.85,0,0,0-1.77-.24,4.2,4.2,0,0,0-1.08.14,2.23,2.23,0,0,0-.88.45,2.09,2.09,0,0,0-.59.84A3.6,3.6,0,0,0,122.82,66.87Z" transform="translate(0 0)"/><path class="i" d="M137.73,68.43c.24-.8.5-1.74.77-2.82s.53-2.19.79-3.34.51-2.3.74-3.44.42-2.18.58-3.12h2.58c-.26,1.32-.56,2.71-.91,4.17s-.72,2.9-1.09,4.31-.74,2.74-1.12,4-.74,2.35-1.06,3.27h-2.66q-.48-1.38-1-3.27c-.38-1.26-.75-2.59-1.12-4s-.73-2.85-1.08-4.31-.66-2.85-.92-4.17h2.73c.16.94.36,2,.59,3.12s.47,2.29.72,3.44.5,2.26.76,3.34S137.49,67.63,137.73,68.43Z" transform="translate(0 0)"/><path class="i" d="M147.45,64.35a13.07,13.07,0,0,0,.21,2.09,5.27,5.27,0,0,0,.59,1.65,2.9,2.9,0,0,0,1.08,1.09,3.39,3.39,0,0,0,1.72.39,4.9,4.9,0,0,0,1.61-.25,7.43,7.43,0,0,0,1.06-.44L154.2,71a5.64,5.64,0,0,1-1.3.59,6.74,6.74,0,0,1-2.18.31,5.82,5.82,0,0,1-2.77-.6,4.92,4.92,0,0,1-1.83-1.68,7.29,7.29,0,0,1-1-2.58,16.86,16.86,0,0,1-.3-3.3q0-4.35,1.44-6.36a4.47,4.47,0,0,1,3.81-2,4,4,0,0,1,3.78,2A11.8,11.8,0,0,1,155,63v.68c0,.23,0,.46,0,.7Zm2.61-6.84a2,2,0,0,0-1.87,1.29,9.8,9.8,0,0,0-.71,3.45h4.77a10.7,10.7,0,0,0-.45-3.46A1.72,1.72,0,0,0,150.06,57.51Z" transform="translate(0 0)"/><path class="i" d="M167,55.71h4v2.22h-4V66.6a3.4,3.4,0,0,0,.59,2.27,2,2,0,0,0,1.57.64,3.19,3.19,0,0,0,1-.15,3.41,3.41,0,0,0,.79-.36l.51,2.07a5.09,5.09,0,0,1-2.61.72,4.17,4.17,0,0,1-3.31-1.24,6.23,6.23,0,0,1-1.1-4.13V51.48L167,51Z" transform="translate(0 0)"/><path class="i" d="M184.2,63.6a15.94,15.94,0,0,1-.33,3.38,8.09,8.09,0,0,1-1,2.59,4.9,4.9,0,0,1-1.71,1.68,4.81,4.81,0,0,1-2.45.6,4.67,4.67,0,0,1-4.18-2.28,8.1,8.1,0,0,1-1-2.59,17.37,17.37,0,0,1,0-6.74,8.28,8.28,0,0,1,1-2.62,5.06,5.06,0,0,1,6.63-1.7,4.88,4.88,0,0,1,1.71,1.7,8.28,8.28,0,0,1,1,2.62A16,16,0,0,1,184.2,63.6Zm-2.7,0a17.8,17.8,0,0,0-.15-2.41,7.66,7.66,0,0,0-.48-1.89,3,3,0,0,0-.87-1.23,2,2,0,0,0-1.29-.44,2,2,0,0,0-1.3.44,3.23,3.23,0,0,0-.87,1.23,7.21,7.21,0,0,0-.5,1.89A19.52,19.52,0,0,0,176,66a7,7,0,0,0,.5,1.87,3.27,3.27,0,0,0,.87,1.22,2,2,0,0,0,1.3.43,2,2,0,0,0,1.29-.43,3.06,3.06,0,0,0,.87-1.22,7.37,7.37,0,0,0,.48-1.87A18,18,0,0,0,181.5,63.6Z" transform="translate(0 0)"/><path class="i" d="M203.58,71a7.64,7.64,0,0,1-.94.29q-.55.14-1.17.24t-1.23.18a9.36,9.36,0,0,1-1.13.07,8.35,8.35,0,0,1-2.25-.28,3.91,3.91,0,0,1-1.74-1,4.7,4.7,0,0,1-1.11-2,10.7,10.7,0,0,1-.39-3.14V55.71h2.58v9.6a5.63,5.63,0,0,0,.71,3.26,2.49,2.49,0,0,0,2.14.94c.32,0,.64,0,1,0a5.27,5.27,0,0,0,1-.2V55.71h2.58Z" transform="translate(0 0)"/><path class="i" d="M208.23,56.16a21.26,21.26,0,0,1,2.4-.55,13.91,13.91,0,0,1,2.37-.23,6.8,6.8,0,0,1,2.13.32,3.73,3.73,0,0,1,1.64,1.06,5.18,5.18,0,0,1,1,2,11.37,11.37,0,0,1,.37,3.16v9.51h-2.58v-9.3a7.36,7.36,0,0,0-.6-3.42,2.34,2.34,0,0,0-2.25-1.08,7.36,7.36,0,0,0-1.95.3v13.5h-2.58Z" transform="translate(0 0)"/><path class="i" d="M229.47,48.63l2.58-.45V71a10.11,10.11,0,0,1-1.92.59,10.71,10.71,0,0,1-2.19.22,5.33,5.33,0,0,1-4.69-2.07q-1.45-2.07-1.46-6.24a16.72,16.72,0,0,1,.32-3.4,7.72,7.72,0,0,1,1-2.58,4.76,4.76,0,0,1,1.72-1.65,5,5,0,0,1,2.49-.59,4.57,4.57,0,0,1,1.19.14,5.22,5.22,0,0,1,1,.37Zm0,9.45a3.79,3.79,0,0,0-1.86-.48,2.79,2.79,0,0,0-1.32.3,2.5,2.5,0,0,0-1,1,5.66,5.66,0,0,0-.62,1.83,15.92,15.92,0,0,0-.21,2.82,9.33,9.33,0,0,0,.86,4.64,2.83,2.83,0,0,0,2.59,1.39,6.24,6.24,0,0,0,.72,0,5.1,5.1,0,0,0,.81-.17Z" transform="translate(0 0)"/><path class="i" d="M238.47,64.35a13.07,13.07,0,0,0,.21,2.09,5.27,5.27,0,0,0,.59,1.65,2.9,2.9,0,0,0,1.08,1.09,3.39,3.39,0,0,0,1.72.39,4.9,4.9,0,0,0,1.61-.25,7.43,7.43,0,0,0,1.06-.44l.48,2.07a5.64,5.64,0,0,1-1.3.59,6.74,6.74,0,0,1-2.18.31,5.82,5.82,0,0,1-2.77-.6,4.92,4.92,0,0,1-1.83-1.68,7.29,7.29,0,0,1-1-2.58,16.86,16.86,0,0,1-.3-3.3q0-4.35,1.44-6.36a4.47,4.47,0,0,1,3.81-2,4,4,0,0,1,3.78,2A11.8,11.8,0,0,1,246,63v.68c0,.23,0,.46,0,.7Zm2.61-6.84a2,2,0,0,0-1.87,1.29,9.8,9.8,0,0,0-.71,3.45h4.77a10.7,10.7,0,0,0-.45-3.46A1.72,1.72,0,0,0,241.08,57.51Z" transform="translate(0 0)"/><path class="i" d="M256.59,58.05a5.34,5.34,0,0,0-2.16-.42,5.45,5.45,0,0,0-2.07.39V71.46h-2.58V56.4a10.61,10.61,0,0,1,2-.7,10,10,0,0,1,2.47-.29,11.6,11.6,0,0,1,1.44.09,5.8,5.8,0,0,1,1.35.33Z" transform="translate(0 0)"/><path class="i" d="M261.81,69.63a2.22,2.22,0,0,0,1.73-.64,2.44,2.44,0,0,0,.58-1.7,2.41,2.41,0,0,0-.24-1.12,3,3,0,0,0-.63-.83,4.68,4.68,0,0,0-.9-.64c-.34-.19-.68-.4-1-.62a7.14,7.14,0,0,1-1-.7,5,5,0,0,1-.85-.93,4.49,4.49,0,0,1-.6-1.2,5,5,0,0,1-.23-1.58,4.23,4.23,0,0,1,1.22-3.15,4.46,4.46,0,0,1,3.28-1.2,5.93,5.93,0,0,1,1.65.23,6.87,6.87,0,0,1,1.29.49l-.57,2.07a5,5,0,0,0-1.08-.45,4.36,4.36,0,0,0-1.17-.15,2.1,2.1,0,0,0-1.53.56,2.13,2.13,0,0,0-.57,1.6,2.38,2.38,0,0,0,.21,1,2.86,2.86,0,0,0,.56.78,5.55,5.55,0,0,0,.78.64c.29.2.59.39.91.57s.76.46,1.13.72a5.08,5.08,0,0,1,1,.92,4.33,4.33,0,0,1,.7,1.23,4.72,4.72,0,0,1,.27,1.69,4.59,4.59,0,0,1-1.21,3.33A4.73,4.73,0,0,1,262,71.85a6.62,6.62,0,0,1-2.16-.33,9.22,9.22,0,0,1-1.44-.6l.54-2.13a12.1,12.1,0,0,0,1.22.54A4.58,4.58,0,0,0,261.81,69.63Z" transform="translate(0 0)"/><path class="i" d="M272.25,55.71h4v2.22h-4V66.6a3.4,3.4,0,0,0,.59,2.27,2,2,0,0,0,1.57.64,3.19,3.19,0,0,0,1-.15,3.41,3.41,0,0,0,.79-.36l.51,2.07a5.09,5.09,0,0,1-2.61.72,4.17,4.17,0,0,1-3.31-1.24,6.23,6.23,0,0,1-1.1-4.13V51.48l2.58-.45Z" transform="translate(0 0)"/><path class="i" d="M279.72,56a9.62,9.62,0,0,1,1.65-.52,8.63,8.63,0,0,1,1.89-.2,4.66,4.66,0,0,1,3.42,1.31A5.49,5.49,0,0,1,288,60.69V71.13a20,20,0,0,1-2.2.48,14,14,0,0,1-2.21.18,7.31,7.31,0,0,1-2-.27,4.27,4.27,0,0,1-2.78-2.38,5.36,5.36,0,0,1-.42-2.24,5.6,5.6,0,0,1,.38-2.14,4.26,4.26,0,0,1,1-1.53,4.38,4.38,0,0,1,1.56-.93,5.86,5.86,0,0,1,2-.32,11.25,11.25,0,0,1,2.19.24V60.78a3.45,3.45,0,0,0-.67-2.43,2.6,2.6,0,0,0-1.94-.69,6,6,0,0,0-1.3.14,7.13,7.13,0,0,0-1.31.43ZM281,66.87a2.64,2.64,0,0,0,.72,2,2.91,2.91,0,0,0,2,.66,8.33,8.33,0,0,0,1.77-.21v-5a6.85,6.85,0,0,0-1.77-.24,4.2,4.2,0,0,0-1.08.14,2.23,2.23,0,0,0-.88.45,2.09,2.09,0,0,0-.59.84A3.6,3.6,0,0,0,281,66.87Z" transform="translate(0 0)"/><path class="i" d="M292.5,56.16a21.26,21.26,0,0,1,2.4-.55,13.91,13.91,0,0,1,2.37-.23,6.8,6.8,0,0,1,2.13.32A3.73,3.73,0,0,1,301,56.76a5.18,5.18,0,0,1,1,2,11.37,11.37,0,0,1,.37,3.16v9.51h-2.58v-9.3a7.36,7.36,0,0,0-.6-3.42A2.34,2.34,0,0,0,297,57.66a7.36,7.36,0,0,0-1.95.3v13.5H292.5Z" transform="translate(0 0)"/><path class="i" d="M313.74,48.63l2.58-.45V71a10.11,10.11,0,0,1-1.92.59,10.71,10.71,0,0,1-2.19.22,5.33,5.33,0,0,1-4.69-2.07q-1.45-2.07-1.46-6.24a16.72,16.72,0,0,1,.32-3.4,7.72,7.72,0,0,1,1-2.58,4.76,4.76,0,0,1,1.72-1.65,5,5,0,0,1,2.49-.59,4.57,4.57,0,0,1,1.19.14,5.22,5.22,0,0,1,1,.37Zm0,9.45a3.79,3.79,0,0,0-1.86-.48,2.79,2.79,0,0,0-1.32.3,2.5,2.5,0,0,0-1,1,5.66,5.66,0,0,0-.62,1.83,15.92,15.92,0,0,0-.21,2.82,9.33,9.33,0,0,0,.86,4.64,2.83,2.83,0,0,0,2.59,1.39,6.24,6.24,0,0,0,.72,0,5.1,5.1,0,0,0,.81-.17Z" transform="translate(0 0)"/><path class="i" d="M333.46,50.67c.48,1.5,1,3,1.43,4.55s.93,3.13,1.38,4.81.9,3.46,1.35,5.34.9,3.91,1.35,6.09h-2.7c-.15-.9-.32-1.79-.48-2.67s-.35-1.76-.52-2.64h-6.56q-.3,1.32-.54,2.64t-.48,2.67h-2.61q.66-3.27,1.36-6.08c.46-1.88.91-3.66,1.37-5.34s.91-3.29,1.38-4.82.95-3,1.43-4.55ZM332,53.73c-.49,1.67-1,3.34-1.43,5s-.9,3.4-1.32,5.15h5.44q-.58-2.64-1.28-5.15T332,53.73Z" transform="translate(0 0)"/><path class="i" d="M346.71,71.85a5.29,5.29,0,0,1-2.7-.63,5,5,0,0,1-1.75-1.72,7.64,7.64,0,0,1-1-2.6,17.52,17.52,0,0,1-.29-3.27,11.17,11.17,0,0,1,1.43-6.1,4.78,4.78,0,0,1,4.3-2.21,5.35,5.35,0,0,1,1.56.21,6.74,6.74,0,0,1,1.29.54l-.66,2.13a3.74,3.74,0,0,0-2.07-.6,2.51,2.51,0,0,0-2.38,1.47,10.31,10.31,0,0,0-.77,4.56,17.7,17.7,0,0,0,.15,2.39,6.26,6.26,0,0,0,.53,1.87,3.21,3.21,0,0,0,1,1.23,2.58,2.58,0,0,0,1.57.45,4,4,0,0,0,1.19-.16,5.24,5.24,0,0,0,1-.44l.57,2a5.53,5.53,0,0,1-3,.87Z" transform="translate(0 0)"/><path class="i" d="M357.15,71.85a5.29,5.29,0,0,1-2.7-.63,5,5,0,0,1-1.75-1.72,7.64,7.64,0,0,1-1-2.6,17.52,17.52,0,0,1-.29-3.27,11.17,11.17,0,0,1,1.43-6.1,4.78,4.78,0,0,1,4.3-2.21,5.35,5.35,0,0,1,1.56.21,6.74,6.74,0,0,1,1.29.54l-.66,2.13a3.74,3.74,0,0,0-2.07-.6,2.51,2.51,0,0,0-2.38,1.47,10.31,10.31,0,0,0-.77,4.56A17.7,17.7,0,0,0,354.3,66a6.26,6.26,0,0,0,.53,1.87,3.21,3.21,0,0,0,1,1.23,2.58,2.58,0,0,0,1.57.45,4,4,0,0,0,1.19-.16,5.24,5.24,0,0,0,1-.44l.57,2a5.2,5.2,0,0,1-1.27.6A5.36,5.36,0,0,1,357.15,71.85Z" transform="translate(0 0)"/><path class="i" d="M372.9,63.6a15.94,15.94,0,0,1-.33,3.38,8.09,8.09,0,0,1-1,2.59,4.9,4.9,0,0,1-1.71,1.68,4.81,4.81,0,0,1-2.45.6,4.67,4.67,0,0,1-4.18-2.28,8.1,8.1,0,0,1-1-2.59,17.37,17.37,0,0,1,0-6.74,8.28,8.28,0,0,1,1-2.62,5.06,5.06,0,0,1,6.63-1.7,4.88,4.88,0,0,1,1.71,1.7,8.28,8.28,0,0,1,1,2.62A16,16,0,0,1,372.9,63.6Zm-2.7,0a17.8,17.8,0,0,0-.15-2.41,7.66,7.66,0,0,0-.48-1.89,3,3,0,0,0-.87-1.23,2,2,0,0,0-1.29-.44,2,2,0,0,0-1.3.44,3.23,3.23,0,0,0-.87,1.23,7.21,7.21,0,0,0-.5,1.89,19.52,19.52,0,0,0,0,4.83,7,7,0,0,0,.5,1.87,3.27,3.27,0,0,0,.87,1.22,2,2,0,0,0,1.3.43,2,2,0,0,0,1.29-.43,3.06,3.06,0,0,0,.87-1.22,7.37,7.37,0,0,0,.48-1.87A18,18,0,0,0,370.2,63.6Z" transform="translate(0 0)"/><path class="i" d="M386.43,71a7.64,7.64,0,0,1-.94.29q-.56.14-1.17.24t-1.23.18a9.36,9.36,0,0,1-1.13.07,8.35,8.35,0,0,1-2.25-.28,3.91,3.91,0,0,1-1.74-1,4.7,4.7,0,0,1-1.11-2,10.7,10.7,0,0,1-.39-3.14V55.71h2.58v9.6a5.63,5.63,0,0,0,.71,3.26,2.49,2.49,0,0,0,2.14.94c.32,0,.64,0,1,0a5.27,5.27,0,0,0,1-.2V55.71h2.58Z" transform="translate(0 0)"/><path class="i" d="M391.08,56.16a21.26,21.26,0,0,1,2.4-.55,13.91,13.91,0,0,1,2.37-.23,6.8,6.8,0,0,1,2.13.32,3.73,3.73,0,0,1,1.64,1.06,5.18,5.18,0,0,1,1.05,2A11.37,11.37,0,0,1,401,62v9.51h-2.58v-9.3a7.36,7.36,0,0,0-.6-3.42,2.34,2.34,0,0,0-2.25-1.08,7.36,7.36,0,0,0-1.95.3v13.5h-2.58Z" transform="translate(0 0)"/><path class="i" d="M407.94,55.71h4v2.22h-4V66.6a3.34,3.34,0,0,0,.59,2.27,2,2,0,0,0,1.57.64,3.24,3.24,0,0,0,1-.15,3.62,3.62,0,0,0,.79-.36l.51,2.07a5.09,5.09,0,0,1-2.61.72,4.16,4.16,0,0,1-3.31-1.24,6.17,6.17,0,0,1-1.1-4.13V51.48l2.58-.45Z" transform="translate(0 0)"/><path class="i" d="M416.46,52.92a1.64,1.64,0,0,1-1.68-1.71,1.62,1.62,0,0,1,.5-1.24,1.66,1.66,0,0,1,1.18-.47,1.69,1.69,0,0,1,1.19.47,1.65,1.65,0,0,1,.49,1.24,1.63,1.63,0,0,1-1.68,1.71Zm1.29,18.54h-2.58V55.71h2.58Z" transform="translate(0 0)"/><path class="i" d="M422.43,56.16a21.26,21.26,0,0,1,2.4-.55,13.91,13.91,0,0,1,2.37-.23,6.8,6.8,0,0,1,2.13.32A3.7,3.7,0,0,1,431,56.76a5.05,5.05,0,0,1,1.05,2,11.33,11.33,0,0,1,.38,3.16v9.51h-2.58v-9.3a7.36,7.36,0,0,0-.6-3.42A2.34,2.34,0,0,0,427,57.66,7.36,7.36,0,0,0,425,58v13.5h-2.58Z" transform="translate(0 0)"/><path class="i" d="M446.25,71a8.11,8.11,0,0,1-.44,2.84,5,5,0,0,1-1.18,1.87,4.61,4.61,0,0,1-1.75,1,6.91,6.91,0,0,1-2.15.33,9,9,0,0,1-1.92-.21,7.14,7.14,0,0,1-1.77-.63l.54-2.16a6.93,6.93,0,0,0,1.32.54,5.48,5.48,0,0,0,1.62.24,3.12,3.12,0,0,0,2.31-.84,4,4,0,0,0,.84-2.88v-.75a6.44,6.44,0,0,1-1,.35,5.1,5.1,0,0,1-1.23.13A4.64,4.64,0,0,1,437.29,69a9.76,9.76,0,0,1-1.3-5.48,15.35,15.35,0,0,1,.34-3.4,7.21,7.21,0,0,1,1.09-2.58,4.67,4.67,0,0,1,1.9-1.62,6.61,6.61,0,0,1,2.85-.56,10.45,10.45,0,0,1,2.17.23,10.24,10.24,0,0,1,1.91.58Zm-2.58-13.2a5,5,0,0,0-.81-.16,6.39,6.39,0,0,0-.72,0A2.84,2.84,0,0,0,439.51,59a9.19,9.19,0,0,0-.82,4.5,7.24,7.24,0,0,0,.81,4,2.65,2.65,0,0,0,2.31,1.15,4,4,0,0,0,1-.12,4.67,4.67,0,0,0,.88-.33Z" transform="translate(0 0)"/><path class="i" d="M457,56a9.62,9.62,0,0,1,1.65-.52,8.63,8.63,0,0,1,1.89-.2A4.66,4.66,0,0,1,464,56.63a5.49,5.49,0,0,1,1.32,4.06V71.13a20.18,20.18,0,0,1-2.21.48,13.88,13.88,0,0,1-2.2.18,7.38,7.38,0,0,1-2-.27,4.36,4.36,0,0,1-1.65-.87,4.29,4.29,0,0,1-1.12-1.51,5.36,5.36,0,0,1-.42-2.24,5.61,5.61,0,0,1,.37-2.14,4.28,4.28,0,0,1,1-1.53,4.38,4.38,0,0,1,1.56-.93,5.86,5.86,0,0,1,1.95-.32,11.25,11.25,0,0,1,2.19.24V60.78a3.44,3.44,0,0,0-.68-2.43,2.57,2.57,0,0,0-1.93-.69,6.12,6.12,0,0,0-1.31.14,7,7,0,0,0-1.3.43Zm1.23,10.83a2.64,2.64,0,0,0,.72,2,2.91,2.91,0,0,0,2,.66,8.33,8.33,0,0,0,1.77-.21v-5a6.85,6.85,0,0,0-1.77-.24,4.2,4.2,0,0,0-1.08.14,2.27,2.27,0,0,0-.89.45,2.07,2.07,0,0,0-.58.84A3.6,3.6,0,0,0,458.22,66.87Z" transform="translate(0 0)"/><path class="i" d="M469.77,56.16a21.26,21.26,0,0,1,2.4-.55,13.91,13.91,0,0,1,2.37-.23,6.8,6.8,0,0,1,2.13.32,3.7,3.7,0,0,1,1.63,1.06,5.18,5.18,0,0,1,1.05,2,11.33,11.33,0,0,1,.38,3.16v9.51h-2.58v-9.3a7.36,7.36,0,0,0-.6-3.42,2.34,2.34,0,0,0-2.25-1.08,7.36,7.36,0,0,0-1.95.3v13.5h-2.58Z" transform="translate(0 0)"/><path class="i" d="M491,48.63l2.58-.45V71a10.11,10.11,0,0,1-1.92.59,10.71,10.71,0,0,1-2.19.22,5.35,5.35,0,0,1-4.7-2.07q-1.45-2.07-1.45-6.24a16.76,16.76,0,0,1,.31-3.4,7.72,7.72,0,0,1,1-2.58,4.79,4.79,0,0,1,1.73-1.65,5,5,0,0,1,2.49-.59,4.49,4.49,0,0,1,1.18.14,5.31,5.31,0,0,1,1,.37Zm0,9.45a3.79,3.79,0,0,0-1.86-.48,2.79,2.79,0,0,0-1.32.3,2.52,2.52,0,0,0-1,1,5.68,5.68,0,0,0-.61,1.83,15.92,15.92,0,0,0-.21,2.82,9.34,9.34,0,0,0,.85,4.64,2.84,2.84,0,0,0,2.6,1.39,6.24,6.24,0,0,0,.72,0,5.1,5.1,0,0,0,.81-.17Z" transform="translate(0 0)"/><path class="i" d="M506.49,55.71h4v2.22h-4V66.6a3.4,3.4,0,0,0,.58,2.27,2,2,0,0,0,1.58.64,3.12,3.12,0,0,0,1-.15,3.5,3.5,0,0,0,.8-.36l.51,2.07a5.09,5.09,0,0,1-2.61.72A4.19,4.19,0,0,1,505,70.55a6.23,6.23,0,0,1-1.09-4.13V51.48l2.58-.45Z" transform="translate(0 0)"/><path class="i" d="M513.72,71.46V48.63l2.58-.45V55.8a9.8,9.8,0,0,1,1.24-.3,7.84,7.84,0,0,1,1.37-.12,5.42,5.42,0,0,1,1.86.32,3.57,3.57,0,0,1,1.51,1.06,5.44,5.44,0,0,1,1,2,11.33,11.33,0,0,1,.38,3.16v9.51H521.1v-9.3a7.36,7.36,0,0,0-.6-3.42,2.34,2.34,0,0,0-2.25-1.08,7.36,7.36,0,0,0-2,.3v13.5Z" transform="translate(0 0)"/><path class="i" d="M530,64.35a13.07,13.07,0,0,0,.21,2.09,5.27,5.27,0,0,0,.58,1.65,2.9,2.9,0,0,0,1.08,1.09,3.43,3.43,0,0,0,1.73.39,4.84,4.84,0,0,0,1.6-.25,7.68,7.68,0,0,0,1.07-.44L536.7,71a5.76,5.76,0,0,1-1.31.59,6.68,6.68,0,0,1-2.17.31,5.86,5.86,0,0,1-2.78-.6,4.92,4.92,0,0,1-1.83-1.68,7.28,7.28,0,0,1-1-2.58,16.86,16.86,0,0,1-.3-3.3q0-4.35,1.44-6.36a4.47,4.47,0,0,1,3.81-2,4,4,0,0,1,3.78,2A11.8,11.8,0,0,1,537.45,63v.68c0,.23,0,.46,0,.7Zm2.61-6.84a2,2,0,0,0-1.88,1.29,9.82,9.82,0,0,0-.7,3.45h4.77a10.7,10.7,0,0,0-.45-3.46A1.72,1.72,0,0,0,532.56,57.51Z" transform="translate(0 0)"/><path class="i" d="M547.11,56.16a21.26,21.26,0,0,1,2.4-.55,13.91,13.91,0,0,1,2.37-.23,6.8,6.8,0,0,1,2.13.32,3.7,3.7,0,0,1,1.63,1.06,5.18,5.18,0,0,1,1.05,2,11.33,11.33,0,0,1,.38,3.16v9.51h-2.58v-9.3a7.36,7.36,0,0,0-.6-3.42,2.34,2.34,0,0,0-2.25-1.08,7.36,7.36,0,0,0-1.95.3v13.5h-2.58Z" transform="translate(0 0)"/><path class="i" d="M571.32,71a7.85,7.85,0,0,1-1,.29q-.55.14-1.17.24l-1.23.18a9.2,9.2,0,0,1-1.12.07,8.35,8.35,0,0,1-2.25-.28,3.91,3.91,0,0,1-1.74-1,4.7,4.7,0,0,1-1.11-2,10.7,10.7,0,0,1-.39-3.14V55.71h2.58v9.6a5.65,5.65,0,0,0,.7,3.26,2.51,2.51,0,0,0,2.15.94c.32,0,.64,0,1,0a5.27,5.27,0,0,0,1-.2V55.71h2.58Z" transform="translate(0 0)"/><path class="i" d="M576.21,56a9.62,9.62,0,0,1,1.65-.52,8.63,8.63,0,0,1,1.89-.2,4.66,4.66,0,0,1,3.42,1.31,5.49,5.49,0,0,1,1.32,4.06V71.13a20.18,20.18,0,0,1-2.21.48,13.88,13.88,0,0,1-2.2.18,7.38,7.38,0,0,1-2-.27,4.36,4.36,0,0,1-1.65-.87,4.29,4.29,0,0,1-1.12-1.51,5.36,5.36,0,0,1-.42-2.24,5.61,5.61,0,0,1,.37-2.14,4.28,4.28,0,0,1,1-1.53,4.38,4.38,0,0,1,1.56-.93,5.86,5.86,0,0,1,1.95-.32,11.25,11.25,0,0,1,2.19.24V60.78a3.44,3.44,0,0,0-.68-2.43,2.57,2.57,0,0,0-1.93-.69,6.12,6.12,0,0,0-1.31.14,7,7,0,0,0-1.3.43Zm1.23,10.83a2.64,2.64,0,0,0,.72,2,2.91,2.91,0,0,0,2,.66,8.33,8.33,0,0,0,1.77-.21v-5a6.85,6.85,0,0,0-1.77-.24,4.2,4.2,0,0,0-1.08.14,2.27,2.27,0,0,0-.89.45,2.07,2.07,0,0,0-.58.84A3.6,3.6,0,0,0,577.44,66.87Z" transform="translate(0 0)"/><path class="i" d="M589,56.16a21.26,21.26,0,0,1,2.4-.55,13.91,13.91,0,0,1,2.37-.23,6.8,6.8,0,0,1,2.13.32,3.7,3.7,0,0,1,1.63,1.06,5.18,5.18,0,0,1,1.05,2A11.33,11.33,0,0,1,599,62v9.51h-2.58v-9.3a7.36,7.36,0,0,0-.6-3.42,2.34,2.34,0,0,0-2.25-1.08,7.36,7.36,0,0,0-1.95.3v13.5H589Z" transform="translate(0 0)"/><path class="i" d="M608.25,71.85a5.29,5.29,0,0,1-2.7-.63,5,5,0,0,1-1.76-1.72,7.64,7.64,0,0,1-1-2.6,17.56,17.56,0,0,1-.28-3.27,11.17,11.17,0,0,1,1.42-6.1,4.79,4.79,0,0,1,4.31-2.21,5.35,5.35,0,0,1,1.56.21,6.74,6.74,0,0,1,1.29.54l-.66,2.13a3.74,3.74,0,0,0-2.07-.6A2.53,2.53,0,0,0,606,59.07a10.34,10.34,0,0,0-.76,4.56A17.7,17.7,0,0,0,605.4,66a6.27,6.27,0,0,0,.52,1.87,3.21,3.21,0,0,0,1,1.23,2.62,2.62,0,0,0,1.58.45,3.92,3.92,0,0,0,1.18-.16,5.33,5.33,0,0,0,1-.44l.57,2a5.6,5.6,0,0,1-3,.87Z" transform="translate(0 0)"/><path class="i" d="M615.66,64.35a13.07,13.07,0,0,0,.21,2.09,5.27,5.27,0,0,0,.58,1.65,2.9,2.9,0,0,0,1.08,1.09,3.43,3.43,0,0,0,1.73.39,4.84,4.84,0,0,0,1.6-.25,7.68,7.68,0,0,0,1.07-.44l.48,2.07a5.76,5.76,0,0,1-1.31.59,6.68,6.68,0,0,1-2.17.31,5.86,5.86,0,0,1-2.78-.6,4.92,4.92,0,0,1-1.83-1.68,7.28,7.28,0,0,1-1-2.58,16.86,16.86,0,0,1-.3-3.3q0-4.35,1.44-6.36a4.47,4.47,0,0,1,3.81-2,4,4,0,0,1,3.78,2A11.8,11.8,0,0,1,623.16,63v.68c0,.23,0,.46,0,.7Zm2.61-6.84a2,2,0,0,0-1.88,1.29,9.82,9.82,0,0,0-.7,3.45h4.77a10.7,10.7,0,0,0-.45-3.46A1.72,1.72,0,0,0,618.27,57.51Z" transform="translate(0 0)"/><path class="i" d="M629.16,69.63a2.2,2.2,0,0,0,1.72-.64,2.44,2.44,0,0,0,.59-1.7,2.41,2.41,0,0,0-.24-1.12,3,3,0,0,0-.63-.83,4.68,4.68,0,0,0-.9-.64c-.34-.19-.68-.4-1-.62a7.14,7.14,0,0,1-1-.7,5.08,5.08,0,0,1-.86-.93,4.49,4.49,0,0,1-.6-1.2,5,5,0,0,1-.22-1.58,4.23,4.23,0,0,1,1.21-3.15,4.48,4.48,0,0,1,3.29-1.2,5.93,5.93,0,0,1,1.65.23,6.87,6.87,0,0,1,1.29.49l-.57,2.07a5,5,0,0,0-1.08-.45,4.36,4.36,0,0,0-1.17-.15,2.1,2.1,0,0,0-1.53.56,2.13,2.13,0,0,0-.57,1.6,2.38,2.38,0,0,0,.21,1,2.83,2.83,0,0,0,.55.78,5.55,5.55,0,0,0,.78.64c.29.2.6.39.92.57s.75.46,1.12.72a5.08,5.08,0,0,1,1,.92,4.36,4.36,0,0,1,.71,1.23,4.72,4.72,0,0,1,.27,1.69,4.6,4.6,0,0,1-1.22,3.33,4.7,4.7,0,0,1-3.55,1.26,6.62,6.62,0,0,1-2.16-.33,9.22,9.22,0,0,1-1.44-.6l.54-2.13a11.77,11.77,0,0,0,1.21.54A4.63,4.63,0,0,0,629.16,69.63Z" transform="translate(0 0)"/><path class="i" d="M70.69,99.6a15.94,15.94,0,0,1-.33,3.38,8.1,8.1,0,0,1-1,2.59,4.9,4.9,0,0,1-1.71,1.68,4.77,4.77,0,0,1-2.44.6A4.71,4.71,0,0,1,61,105.57,8.09,8.09,0,0,1,60,103a17.37,17.37,0,0,1,0-6.74,8.28,8.28,0,0,1,1-2.62,4.67,4.67,0,0,1,4.19-2.3,4.77,4.77,0,0,1,2.44.6,4.88,4.88,0,0,1,1.71,1.7,8.28,8.28,0,0,1,1,2.62A16,16,0,0,1,70.69,99.6Zm-2.7,0a17.8,17.8,0,0,0-.15-2.41,8.13,8.13,0,0,0-.48-1.89,3,3,0,0,0-.87-1.23,2,2,0,0,0-1.29-.44,2,2,0,0,0-1.31.44A3.23,3.23,0,0,0,63,95.3a7.22,7.22,0,0,0-.49,1.89,19.52,19.52,0,0,0,0,4.83,7,7,0,0,0,.49,1.87,3.27,3.27,0,0,0,.87,1.22,2,2,0,0,0,1.31.43,2,2,0,0,0,1.29-.43,3.06,3.06,0,0,0,.87-1.22,7.82,7.82,0,0,0,.48-1.87A18,18,0,0,0,68,99.6Z" transform="translate(0 0)"/><path class="i" d="M79.06,84.18a5.84,5.84,0,0,1,1.53.18,6,6,0,0,1,1.08.39l-.54,2a3.93,3.93,0,0,0-.87-.31,4.21,4.21,0,0,0-1-.11,2.38,2.38,0,0,0-1.14.24,1.69,1.69,0,0,0-.69.66,2.93,2.93,0,0,0-.33,1,8.12,8.12,0,0,0-.09,1.24v2.19h4v2.22h-4v13.53H74.47V89.52a6.06,6.06,0,0,1,1.14-3.94A4.2,4.2,0,0,1,79.06,84.18Z" transform="translate(0 0)"/><path class="i" d="M96.14,86.67c.48,1.5,1,3,1.42,4.55s.93,3.13,1.38,4.81.9,3.46,1.35,5.34.9,3.91,1.36,6.09H99c-.16-.9-.32-1.79-.49-2.67s-.34-1.76-.52-2.64H91.38q-.3,1.32-.54,2.64c-.16.88-.32,1.77-.47,2.67H87.76q.66-3.27,1.35-6.08T90.48,96q.67-2.52,1.38-4.82c.48-1.53,1-3,1.44-4.55Zm-1.47,3.06q-.73,2.51-1.42,5c-.46,1.68-.91,3.4-1.33,5.15h5.45q-.6-2.64-1.29-5.15T94.67,89.73Z" transform="translate(0 0)"/><path class="i" d="M109.39,107.85a5.29,5.29,0,0,1-2.7-.63,5,5,0,0,1-1.76-1.72,7.64,7.64,0,0,1-1-2.6,17.56,17.56,0,0,1-.28-3.27,11.17,11.17,0,0,1,1.42-6.1,4.79,4.79,0,0,1,4.31-2.21,5.4,5.4,0,0,1,1.56.21,7,7,0,0,1,1.29.54l-.67,2.13a3.73,3.73,0,0,0-2.06-.6,2.53,2.53,0,0,0-2.39,1.47,10.34,10.34,0,0,0-.76,4.56,16.21,16.21,0,0,0,.15,2.39,6,6,0,0,0,.52,1.87,3.21,3.21,0,0,0,1,1.23,2.59,2.59,0,0,0,1.58.45,4,4,0,0,0,1.18-.16,5,5,0,0,0,1-.44l.58,2a5.48,5.48,0,0,1-1.28.6A5.34,5.34,0,0,1,109.39,107.85Z" transform="translate(0 0)"/><path class="i" d="M119.83,107.85a5.29,5.29,0,0,1-2.7-.63,5,5,0,0,1-1.76-1.72,7.64,7.64,0,0,1-1-2.6,17.56,17.56,0,0,1-.28-3.27,11.17,11.17,0,0,1,1.42-6.1,4.79,4.79,0,0,1,4.3-2.21,5.42,5.42,0,0,1,1.57.21,7,7,0,0,1,1.29.54L122,94.2a3.73,3.73,0,0,0-2.06-.6,2.53,2.53,0,0,0-2.39,1.47,10.34,10.34,0,0,0-.76,4.56A16.21,16.21,0,0,0,117,102a6,6,0,0,0,.52,1.87,3.21,3.21,0,0,0,1,1.23,2.58,2.58,0,0,0,1.57.45,4,4,0,0,0,1.19-.16,5,5,0,0,0,1-.44l.58,2a5.48,5.48,0,0,1-1.28.6A5.34,5.34,0,0,1,119.83,107.85Z" transform="translate(0 0)"/><path class="i" d="M135.58,99.6a15.94,15.94,0,0,1-.33,3.38,8.1,8.1,0,0,1-1,2.59,4.9,4.9,0,0,1-1.71,1.68,4.77,4.77,0,0,1-2.44.6,4.71,4.71,0,0,1-4.19-2.28,8.09,8.09,0,0,1-1-2.59,17.37,17.37,0,0,1,0-6.74,8.28,8.28,0,0,1,1-2.62,4.67,4.67,0,0,1,4.19-2.3,4.77,4.77,0,0,1,2.44.6,4.88,4.88,0,0,1,1.71,1.7,8.28,8.28,0,0,1,1,2.62A16,16,0,0,1,135.58,99.6Zm-2.7,0a17.8,17.8,0,0,0-.15-2.41,7.66,7.66,0,0,0-.48-1.89,3,3,0,0,0-.87-1.23,2,2,0,0,0-1.29-.44,2,2,0,0,0-1.31.44,3.23,3.23,0,0,0-.87,1.23,7.22,7.22,0,0,0-.49,1.89,19.52,19.52,0,0,0,0,4.83,7,7,0,0,0,.49,1.87,3.27,3.27,0,0,0,.87,1.22,2,2,0,0,0,1.31.43,2,2,0,0,0,1.29-.43,3.06,3.06,0,0,0,.87-1.22,7.37,7.37,0,0,0,.48-1.87A18,18,0,0,0,132.88,99.6Z" transform="translate(0 0)"/><path class="i" d="M149.11,107a7.85,7.85,0,0,1-1,.29q-.56.14-1.17.24t-1.23.18a9.2,9.2,0,0,1-1.12.07,8.35,8.35,0,0,1-2.25-.28,3.91,3.91,0,0,1-1.74-1,4.7,4.7,0,0,1-1.11-2,10.7,10.7,0,0,1-.39-3.14V91.71h2.58v9.6a5.65,5.65,0,0,0,.7,3.26,2.51,2.51,0,0,0,2.15.94c.32,0,.64,0,1,0a5.27,5.27,0,0,0,1-.2V91.71h2.58Z" transform="translate(0 0)"/><path class="i" d="M153.76,92.16a21.26,21.26,0,0,1,2.4-.55,13.91,13.91,0,0,1,2.37-.23,6.8,6.8,0,0,1,2.13.32,3.7,3.7,0,0,1,1.63,1.06,5.18,5.18,0,0,1,1.05,2,11.33,11.33,0,0,1,.38,3.16v9.51h-2.58v-9.3a7.36,7.36,0,0,0-.6-3.42,2.34,2.34,0,0,0-2.25-1.08,7.36,7.36,0,0,0-1.95.3v13.5h-2.58Z" transform="translate(0 0)"/><path class="i" d="M170.62,91.71h4v2.22h-4v8.67a3.4,3.4,0,0,0,.58,2.27,2,2,0,0,0,1.58.64,3.12,3.12,0,0,0,1-.15,3.5,3.5,0,0,0,.8-.36l.51,2.07a5.09,5.09,0,0,1-2.61.72,4.19,4.19,0,0,1-3.32-1.24,6.23,6.23,0,0,1-1.09-4.13V87.48l2.58-.45Z" transform="translate(0 0)"/><path class="i" d="M179.14,88.92a1.68,1.68,0,0,1-1.19-.46,1.63,1.63,0,0,1-.49-1.25A1.61,1.61,0,0,1,178,86a1.69,1.69,0,0,1,1.19-.47,1.66,1.66,0,0,1,1.18.47,1.62,1.62,0,0,1,.5,1.24,1.64,1.64,0,0,1-1.68,1.71Zm1.29,18.54h-2.58V91.71h2.58Z" transform="translate(0 0)"/><path class="i" d="M185.1,92.16a21.45,21.45,0,0,1,2.41-.55,13.82,13.82,0,0,1,2.37-.23,6.85,6.85,0,0,1,2.13.32,3.7,3.7,0,0,1,1.63,1.06,5.18,5.18,0,0,1,1.05,2,11.37,11.37,0,0,1,.37,3.16v9.51h-2.57v-9.3a7.36,7.36,0,0,0-.6-3.42,2.36,2.36,0,0,0-2.25-1.08,7.3,7.3,0,0,0-1.95.3v13.5H185.1Z" transform="translate(0 0)"/><path class="i" d="M208.93,107a8.11,8.11,0,0,1-.44,2.84,5.08,5.08,0,0,1-1.18,1.87,4.57,4.57,0,0,1-1.76,1,6.8,6.8,0,0,1-2.14.33,9.05,9.05,0,0,1-1.93-.21,6.93,6.93,0,0,1-1.76-.63l.53-2.16a7,7,0,0,0,1.33.54,5.38,5.38,0,0,0,1.62.24,3.11,3.11,0,0,0,2.3-.84,4,4,0,0,0,.85-2.88v-.75a6.81,6.81,0,0,1-1,.35,5.1,5.1,0,0,1-1.23.13A4.61,4.61,0,0,1,200,105a9.76,9.76,0,0,1-1.3-5.48,15.35,15.35,0,0,1,.34-3.4,7.38,7.38,0,0,1,1.08-2.58A4.76,4.76,0,0,1,202,91.88a6.55,6.55,0,0,1,2.85-.56,11.06,11.06,0,0,1,4.08.81Zm-2.58-13.2a5.5,5.5,0,0,0-.81-.16,6.56,6.56,0,0,0-.73-.05A2.83,2.83,0,0,0,202.19,95a9.19,9.19,0,0,0-.82,4.5,7.24,7.24,0,0,0,.81,4,2.63,2.63,0,0,0,2.3,1.15,3.93,3.93,0,0,0,1-.12,4.76,4.76,0,0,0,.89-.33Z" transform="translate(0 0)"/><path class="i" d="M216.51,106.08a1.76,1.76,0,0,1-.49,1.23,1.7,1.7,0,0,1-1.31.54,1.64,1.64,0,0,1-1.29-.54,1.8,1.8,0,0,1-.48-1.23,1.84,1.84,0,0,1,.48-1.26,1.64,1.64,0,0,1,1.29-.54,1.7,1.7,0,0,1,1.31.54A1.8,1.8,0,0,1,216.51,106.08Z" transform="translate(0 0)"/><path class="i" d="M226.56,86.67h2.7v20.79h-2.7Z" transform="translate(0 0)"/><path class="i" d="M236.52,91.71h4v2.22h-4v8.67a3.4,3.4,0,0,0,.59,2.27,2,2,0,0,0,1.57.64,3.19,3.19,0,0,0,1-.15,3.41,3.41,0,0,0,.79-.36l.51,2.07a5.09,5.09,0,0,1-2.61.72,4.17,4.17,0,0,1-3.31-1.24,6.23,6.23,0,0,1-1.1-4.13V87.48l2.58-.45Z" transform="translate(0 0)"/><path class="i" d="M246.39,85a3.44,3.44,0,0,1,0,.42v.42a9.93,9.93,0,0,1-.54,3.27,14.58,14.58,0,0,1-1.47,3l-1.83-.54a8.67,8.67,0,0,0,1-2.73,15.26,15.26,0,0,0,.24-2.61c0-.22,0-.43,0-.64s0-.42-.05-.62Z" transform="translate(0 0)"/><path class="i" d="M252,105.63a2.22,2.22,0,0,0,1.73-.64,2.44,2.44,0,0,0,.58-1.7,2.41,2.41,0,0,0-.24-1.12,3,3,0,0,0-.63-.83,4.68,4.68,0,0,0-.9-.64c-.34-.19-.68-.4-1-.62a7.14,7.14,0,0,1-1-.7,5,5,0,0,1-.85-.93,4.49,4.49,0,0,1-.6-1.2,5,5,0,0,1-.23-1.58,4.23,4.23,0,0,1,1.22-3.15,4.46,4.46,0,0,1,3.28-1.2,5.93,5.93,0,0,1,1.65.23,6.87,6.87,0,0,1,1.29.49l-.57,2.07a5,5,0,0,0-1.08-.45,4.36,4.36,0,0,0-1.17-.15,2.1,2.1,0,0,0-1.53.56,2.13,2.13,0,0,0-.57,1.6,2.38,2.38,0,0,0,.21,1,2.86,2.86,0,0,0,.56.78,5.55,5.55,0,0,0,.78.64c.29.2.59.39.91.57s.76.46,1.13.72a5.08,5.08,0,0,1,1,.92,4.33,4.33,0,0,1,.7,1.23,4.72,4.72,0,0,1,.27,1.69,4.59,4.59,0,0,1-1.21,3.33,4.73,4.73,0,0,1-3.56,1.26,6.62,6.62,0,0,1-2.16-.33,9.22,9.22,0,0,1-1.44-.6l.54-2.13a12.1,12.1,0,0,0,1.22.54A4.58,4.58,0,0,0,252,105.63Z" transform="translate(0 0)"/><path class="i" d="M268.32,91.71h4v2.22h-4v8.67a3.4,3.4,0,0,0,.59,2.27,2,2,0,0,0,1.57.64,3.19,3.19,0,0,0,1-.15,3.41,3.41,0,0,0,.79-.36l.51,2.07a5.09,5.09,0,0,1-2.61.72,4.17,4.17,0,0,1-3.31-1.24,6.23,6.23,0,0,1-1.1-4.13V87.48l2.58-.45Z" transform="translate(0 0)"/><path class="i" d="M275.55,107.46V84.63l2.58-.45V91.8a10,10,0,0,1,1.25-.3,7.73,7.73,0,0,1,1.36-.12,5.42,5.42,0,0,1,1.86.32,3.6,3.6,0,0,1,1.52,1.06,5.44,5.44,0,0,1,1,2,11.37,11.37,0,0,1,.37,3.16v9.51h-2.58v-9.3a7.36,7.36,0,0,0-.6-3.42,2.34,2.34,0,0,0-2.25-1.08,7.36,7.36,0,0,0-1.95.3v13.5Z" transform="translate(0 0)"/><path class="i" d="M291.78,100.35a13.07,13.07,0,0,0,.21,2.09,5.27,5.27,0,0,0,.59,1.65,2.9,2.9,0,0,0,1.08,1.09,3.39,3.39,0,0,0,1.72.39,4.9,4.9,0,0,0,1.61-.25,7.43,7.43,0,0,0,1.06-.44l.48,2.07a5.64,5.64,0,0,1-1.3.59,6.74,6.74,0,0,1-2.18.31,5.82,5.82,0,0,1-2.77-.6,4.92,4.92,0,0,1-1.83-1.68,7.29,7.29,0,0,1-1-2.58,16.86,16.86,0,0,1-.3-3.3q0-4.35,1.44-6.36a4.47,4.47,0,0,1,3.81-2,4,4,0,0,1,3.78,2A11.8,11.8,0,0,1,299.28,99v.68c0,.23,0,.46,0,.7Zm2.61-6.84a2,2,0,0,0-1.87,1.29,9.8,9.8,0,0,0-.71,3.45h4.77a10.7,10.7,0,0,0-.45-3.46A1.72,1.72,0,0,0,294.39,93.51Z" transform="translate(0 0)"/><path class="i" d="M313,107.76a4.35,4.35,0,0,1-3.18-1.09,4.74,4.74,0,0,1-1-3.29V84.63l2.58-.45v19.26a2.25,2.25,0,0,0,.42,1.52,2.52,2.52,0,0,0,1.47.64Z" transform="translate(0 0)"/><path class="i" d="M316.47,92a9.62,9.62,0,0,1,1.65-.52,8.63,8.63,0,0,1,1.89-.2,4.66,4.66,0,0,1,3.42,1.31,5.49,5.49,0,0,1,1.32,4.06v10.44a20,20,0,0,1-2.2.48,14,14,0,0,1-2.21.18,7.31,7.31,0,0,1-2-.27,4.27,4.27,0,0,1-2.78-2.38,5.36,5.36,0,0,1-.42-2.24,5.6,5.6,0,0,1,.38-2.14,4.26,4.26,0,0,1,1-1.53,4.38,4.38,0,0,1,1.56-.93,5.86,5.86,0,0,1,2-.32,11.25,11.25,0,0,1,2.19.24V96.78a3.45,3.45,0,0,0-.67-2.43,2.6,2.6,0,0,0-1.94-.69,6,6,0,0,0-1.3.14,7.13,7.13,0,0,0-1.31.43Zm1.23,10.83a2.64,2.64,0,0,0,.72,2,2.91,2.91,0,0,0,2,.66,8.33,8.33,0,0,0,1.77-.21v-5a6.85,6.85,0,0,0-1.77-.24,4.2,4.2,0,0,0-1.08.14,2.23,2.23,0,0,0-.88.45,2.09,2.09,0,0,0-.59.84A3.6,3.6,0,0,0,317.7,102.87Z" transform="translate(0 0)"/><path class="i" d="M329.25,92.16a21.26,21.26,0,0,1,2.4-.55,13.91,13.91,0,0,1,2.37-.23,6.8,6.8,0,0,1,2.13.32,3.73,3.73,0,0,1,1.64,1.06,5.18,5.18,0,0,1,1,2,11.37,11.37,0,0,1,.37,3.16v9.51h-2.58v-9.3a7.36,7.36,0,0,0-.6-3.42,2.34,2.34,0,0,0-2.25-1.08,7.36,7.36,0,0,0-1.95.3v13.5h-2.58Z" transform="translate(0 0)"/><path class="i" d="M353.07,107a8.12,8.12,0,0,1-.43,2.84,5,5,0,0,1-1.19,1.87,4.53,4.53,0,0,1-1.75,1,6.87,6.87,0,0,1-2.15.33,9,9,0,0,1-1.92-.21,7.14,7.14,0,0,1-1.77-.63l.54-2.16a6.93,6.93,0,0,0,1.32.54,5.48,5.48,0,0,0,1.62.24,3.12,3.12,0,0,0,2.31-.84,4,4,0,0,0,.84-2.88v-.75a6.44,6.44,0,0,1-1,.35,5.1,5.1,0,0,1-1.23.13,4.61,4.61,0,0,1-4.12-1.93,9.75,9.75,0,0,1-1.31-5.48,15.32,15.32,0,0,1,.35-3.4,7.38,7.38,0,0,1,1.08-2.58,4.73,4.73,0,0,1,1.9-1.62,6.61,6.61,0,0,1,2.85-.56,10.54,10.54,0,0,1,2.18.23,10.13,10.13,0,0,1,1.9.58Zm-2.58-13.2a5,5,0,0,0-.81-.16,6.39,6.39,0,0,0-.72-.05A2.82,2.82,0,0,0,346.34,95a9.17,9.17,0,0,0-.83,4.5,7.24,7.24,0,0,0,.81,4,2.65,2.65,0,0,0,2.31,1.15,3.93,3.93,0,0,0,1-.12,4.43,4.43,0,0,0,.88-.33Z" transform="translate(0 0)"/><path class="i" d="M367.47,107a7.64,7.64,0,0,1-.94.29q-.55.14-1.17.24t-1.23.18a9.36,9.36,0,0,1-1.13.07,8.35,8.35,0,0,1-2.25-.28,3.91,3.91,0,0,1-1.74-1,4.7,4.7,0,0,1-1.11-2,10.7,10.7,0,0,1-.39-3.14V91.71h2.58v9.6a5.63,5.63,0,0,0,.71,3.26,2.49,2.49,0,0,0,2.14.94c.32,0,.64,0,1,0a5.27,5.27,0,0,0,1-.2V91.71h2.58Z" transform="translate(0 0)"/><path class="i" d="M372.36,92a9.62,9.62,0,0,1,1.65-.52,8.63,8.63,0,0,1,1.89-.2,4.66,4.66,0,0,1,3.42,1.31,5.49,5.49,0,0,1,1.32,4.06v10.44a20,20,0,0,1-2.2.48,14,14,0,0,1-2.21.18,7.31,7.31,0,0,1-2-.27,4.27,4.27,0,0,1-2.78-2.38,5.36,5.36,0,0,1-.42-2.24,5.6,5.6,0,0,1,.38-2.14,4.26,4.26,0,0,1,1-1.53A4.38,4.38,0,0,1,374,98.3a5.86,5.86,0,0,1,1.95-.32,11.25,11.25,0,0,1,2.19.24V96.78a3.45,3.45,0,0,0-.67-2.43,2.6,2.6,0,0,0-1.94-.69,6,6,0,0,0-1.3.14,7.13,7.13,0,0,0-1.31.43Zm1.23,10.83a2.64,2.64,0,0,0,.72,2,2.91,2.91,0,0,0,2,.66,8.33,8.33,0,0,0,1.77-.21v-5a6.85,6.85,0,0,0-1.77-.24,4.2,4.2,0,0,0-1.08.14,2.23,2.23,0,0,0-.88.45,2.09,2.09,0,0,0-.59.84A3.6,3.6,0,0,0,373.59,102.87Z" transform="translate(0 0)"/><path class="i" d="M394.5,107a8.12,8.12,0,0,1-.43,2.84,5,5,0,0,1-1.19,1.87,4.53,4.53,0,0,1-1.75,1,6.87,6.87,0,0,1-2.15.33,9,9,0,0,1-1.92-.21,7.14,7.14,0,0,1-1.77-.63l.54-2.16a6.93,6.93,0,0,0,1.32.54,5.48,5.48,0,0,0,1.62.24,3.12,3.12,0,0,0,2.31-.84,4,4,0,0,0,.84-2.88v-.75a6.44,6.44,0,0,1-1,.35,5.1,5.1,0,0,1-1.23.13,4.61,4.61,0,0,1-4.12-1.93,9.75,9.75,0,0,1-1.31-5.48,15.32,15.32,0,0,1,.35-3.4,7.38,7.38,0,0,1,1.08-2.58,4.73,4.73,0,0,1,1.9-1.62,6.61,6.61,0,0,1,2.85-.56,10.54,10.54,0,0,1,2.18.23,10.13,10.13,0,0,1,1.9.58Zm-2.58-13.2a5,5,0,0,0-.81-.16,6.39,6.39,0,0,0-.72-.05A2.82,2.82,0,0,0,387.77,95a9.17,9.17,0,0,0-.83,4.5,7.24,7.24,0,0,0,.81,4,2.65,2.65,0,0,0,2.31,1.15,3.93,3.93,0,0,0,1-.12,4.43,4.43,0,0,0,.88-.33Z" transform="translate(0 0)"/><path class="i" d="M400.92,100.35a13.07,13.07,0,0,0,.21,2.09,5.27,5.27,0,0,0,.59,1.65,2.9,2.9,0,0,0,1.08,1.09,3.39,3.39,0,0,0,1.72.39,4.94,4.94,0,0,0,1.61-.25,7.43,7.43,0,0,0,1.06-.44l.48,2.07a5.64,5.64,0,0,1-1.3.59,6.78,6.78,0,0,1-2.18.31,5.82,5.82,0,0,1-2.77-.6,4.92,4.92,0,0,1-1.83-1.68,7.29,7.29,0,0,1-1-2.58,16.86,16.86,0,0,1-.3-3.3q0-4.35,1.44-6.36a4.47,4.47,0,0,1,3.81-2,4,4,0,0,1,3.78,2A11.8,11.8,0,0,1,408.42,99v.68c0,.23,0,.46,0,.7Zm2.61-6.84a2,2,0,0,0-1.87,1.29,9.8,9.8,0,0,0-.71,3.45h4.77a10.7,10.7,0,0,0-.45-3.46A1.72,1.72,0,0,0,403.53,93.51Z" transform="translate(0 0)"/><path class="i" d="M428.19,99.6a15.94,15.94,0,0,1-.33,3.38,8.09,8.09,0,0,1-1,2.59,5,5,0,0,1-1.71,1.68,4.81,4.81,0,0,1-2.45.6,4.87,4.87,0,0,1-2.46-.6,4.77,4.77,0,0,1-1.72-1.68,8.1,8.1,0,0,1-1-2.59,17.37,17.37,0,0,1,0-6.74,8.28,8.28,0,0,1,1-2.62,4.75,4.75,0,0,1,1.72-1.7,4.87,4.87,0,0,1,2.46-.6,4.81,4.81,0,0,1,2.45.6,5,5,0,0,1,1.71,1.7,8.28,8.28,0,0,1,1,2.62A16,16,0,0,1,428.19,99.6Zm-2.7,0a17.8,17.8,0,0,0-.15-2.41,7.66,7.66,0,0,0-.48-1.89,3,3,0,0,0-.87-1.23,2,2,0,0,0-1.29-.44,2,2,0,0,0-1.3.44,3,3,0,0,0-.87,1.23,6.84,6.84,0,0,0-.5,1.89,19.52,19.52,0,0,0,0,4.83,6.6,6.6,0,0,0,.5,1.87,3.06,3.06,0,0,0,.87,1.22,2,2,0,0,0,1.3.43,2,2,0,0,0,1.29-.43,3.06,3.06,0,0,0,.87-1.22,7.37,7.37,0,0,0,.48-1.87A18,18,0,0,0,425.49,99.6Z" transform="translate(0 0)"/><path class="i" d="M436.56,84.18a5.84,5.84,0,0,1,1.53.18,6,6,0,0,1,1.08.39l-.54,2a3.93,3.93,0,0,0-.87-.31,4.21,4.21,0,0,0-1-.11,2.41,2.41,0,0,0-1.14.24,1.69,1.69,0,0,0-.69.66,2.93,2.93,0,0,0-.33,1,8.12,8.12,0,0,0-.09,1.24v2.19h4.05v2.22h-4.05v13.53H432V89.52a6.06,6.06,0,0,1,1.14-3.94A4.2,4.2,0,0,1,436.56,84.18Z" transform="translate(0 0)"/><path class="i" d="M449.55,91.83a5.22,5.22,0,0,1,1-.37,4.57,4.57,0,0,1,1.19-.14,5.1,5.1,0,0,1,2.52.59,4.66,4.66,0,0,1,1.71,1.65,7.93,7.93,0,0,1,1,2.58,16.72,16.72,0,0,1,.32,3.4q0,4.17-1.49,6.24a5.34,5.34,0,0,1-4.66,2.07,10.71,10.71,0,0,1-2.19-.22A10.11,10.11,0,0,1,447,107V84.63l2.58-.45Zm0,13.53a5.1,5.1,0,0,0,.81.17,6.24,6.24,0,0,0,.72,0,2.83,2.83,0,0,0,2.59-1.39,9.33,9.33,0,0,0,.86-4.64,15.92,15.92,0,0,0-.21-2.82,5.66,5.66,0,0,0-.62-1.83,2.5,2.5,0,0,0-1-1,2.79,2.79,0,0,0-1.32-.3,3.79,3.79,0,0,0-1.86.48Z" transform="translate(0 0)"/><path class="i" d="M470.76,107a7.85,7.85,0,0,1-.95.29q-.56.14-1.17.24t-1.23.18a9.2,9.2,0,0,1-1.12.07,8.35,8.35,0,0,1-2.25-.28,3.91,3.91,0,0,1-1.74-1,4.7,4.7,0,0,1-1.11-2,10.7,10.7,0,0,1-.39-3.14V91.71h2.58v9.6a5.65,5.65,0,0,0,.7,3.26,2.51,2.51,0,0,0,2.15.94c.32,0,.64,0,1,0a5.27,5.27,0,0,0,1-.2V91.71h2.58Z" transform="translate(0 0)"/><path class="i" d="M477.6,105.63a2.2,2.2,0,0,0,1.72-.64,2.44,2.44,0,0,0,.59-1.7,2.41,2.41,0,0,0-.24-1.12,3,3,0,0,0-.63-.83,4.68,4.68,0,0,0-.9-.64c-.34-.19-.68-.4-1-.62a7.14,7.14,0,0,1-1-.7,5.08,5.08,0,0,1-.86-.93,4.49,4.49,0,0,1-.6-1.2,5,5,0,0,1-.22-1.58,4.23,4.23,0,0,1,1.21-3.15,4.48,4.48,0,0,1,3.29-1.2,5.93,5.93,0,0,1,1.65.23,6.87,6.87,0,0,1,1.29.49l-.57,2.07a5,5,0,0,0-1.08-.45,4.36,4.36,0,0,0-1.17-.15,2.1,2.1,0,0,0-1.53.56,2.13,2.13,0,0,0-.57,1.6,2.38,2.38,0,0,0,.21,1,2.83,2.83,0,0,0,.55.78,5.55,5.55,0,0,0,.78.64c.29.2.6.39.92.57s.75.46,1.12.72a5.08,5.08,0,0,1,1,.92,4.36,4.36,0,0,1,.71,1.23,4.72,4.72,0,0,1,.27,1.69,4.6,4.6,0,0,1-1.22,3.33,4.7,4.7,0,0,1-3.55,1.26,6.62,6.62,0,0,1-2.16-.33,9.22,9.22,0,0,1-1.44-.6l.54-2.13a11.77,11.77,0,0,0,1.21.54A4.63,4.63,0,0,0,477.6,105.63Z" transform="translate(0 0)"/><path class="i" d="M486.93,88.92a1.68,1.68,0,0,1-1.19-.46,1.63,1.63,0,0,1-.49-1.25,1.61,1.61,0,0,1,.49-1.24,1.69,1.69,0,0,1,1.19-.47,1.66,1.66,0,0,1,1.18.47,1.62,1.62,0,0,1,.5,1.24,1.64,1.64,0,0,1-1.68,1.71Zm1.29,18.54h-2.58V91.71h2.58Z" transform="translate(0 0)"/><path class="i" d="M492.9,92.16a21.26,21.26,0,0,1,2.4-.55,13.91,13.91,0,0,1,2.37-.23,6.8,6.8,0,0,1,2.13.32,3.7,3.7,0,0,1,1.63,1.06,5.18,5.18,0,0,1,1.05,2,11.33,11.33,0,0,1,.38,3.16v9.51h-2.58v-9.3a7.36,7.36,0,0,0-.6-3.42,2.34,2.34,0,0,0-2.25-1.08,7.36,7.36,0,0,0-1.95.3v13.5H492.9Z" transform="translate(0 0)"/><path class="i" d="M509.13,100.35a13.07,13.07,0,0,0,.21,2.09,5.27,5.27,0,0,0,.58,1.65,2.9,2.9,0,0,0,1.08,1.09,3.43,3.43,0,0,0,1.73.39,4.84,4.84,0,0,0,1.6-.25,7.68,7.68,0,0,0,1.07-.44l.48,2.07a5.76,5.76,0,0,1-1.31.59,6.68,6.68,0,0,1-2.17.31,5.86,5.86,0,0,1-2.78-.6,4.92,4.92,0,0,1-1.83-1.68,7.28,7.28,0,0,1-1-2.58,16.86,16.86,0,0,1-.3-3.3q0-4.35,1.44-6.36a4.47,4.47,0,0,1,3.81-2,4,4,0,0,1,3.78,2A11.8,11.8,0,0,1,516.63,99v.68c0,.23,0,.46,0,.7Zm2.61-6.84a2,2,0,0,0-1.88,1.29,9.82,9.82,0,0,0-.7,3.45h4.77a10.7,10.7,0,0,0-.45-3.46A1.72,1.72,0,0,0,511.74,93.51Z" transform="translate(0 0)"/><path class="i" d="M522.63,105.63a2.2,2.2,0,0,0,1.72-.64,2.44,2.44,0,0,0,.59-1.7,2.41,2.41,0,0,0-.24-1.12,3,3,0,0,0-.63-.83,4.68,4.68,0,0,0-.9-.64c-.34-.19-.68-.4-1-.62a7.14,7.14,0,0,1-1-.7,5.08,5.08,0,0,1-.86-.93,4.49,4.49,0,0,1-.6-1.2,5,5,0,0,1-.22-1.58,4.23,4.23,0,0,1,1.21-3.15,4.48,4.48,0,0,1,3.29-1.2,5.93,5.93,0,0,1,1.65.23,6.87,6.87,0,0,1,1.29.49l-.57,2.07a5,5,0,0,0-1.08-.45,4.36,4.36,0,0,0-1.17-.15,2.1,2.1,0,0,0-1.53.56,2.13,2.13,0,0,0-.57,1.6,2.38,2.38,0,0,0,.21,1,2.83,2.83,0,0,0,.55.78,5.55,5.55,0,0,0,.78.64c.29.2.6.39.92.57s.75.46,1.12.72a5.08,5.08,0,0,1,1,.92,4.36,4.36,0,0,1,.71,1.23,4.72,4.72,0,0,1,.27,1.69,4.6,4.6,0,0,1-1.22,3.33,4.7,4.7,0,0,1-3.55,1.26,6.62,6.62,0,0,1-2.16-.33,9.22,9.22,0,0,1-1.44-.6l.54-2.13a11.77,11.77,0,0,0,1.21.54A4.63,4.63,0,0,0,522.63,105.63Z" transform="translate(0 0)"/><path class="i" d="M532.86,105.63a2.2,2.2,0,0,0,1.72-.64,2.44,2.44,0,0,0,.59-1.7,2.41,2.41,0,0,0-.24-1.12,3,3,0,0,0-.63-.83,4.68,4.68,0,0,0-.9-.64c-.34-.19-.68-.4-1-.62a7.14,7.14,0,0,1-1-.7,5.08,5.08,0,0,1-.86-.93,4.49,4.49,0,0,1-.6-1.2,5,5,0,0,1-.22-1.58,4.23,4.23,0,0,1,1.21-3.15,4.48,4.48,0,0,1,3.29-1.2,5.93,5.93,0,0,1,1.65.23,6.87,6.87,0,0,1,1.29.49l-.57,2.07a5,5,0,0,0-1.08-.45,4.36,4.36,0,0,0-1.17-.15,2.1,2.1,0,0,0-1.53.56,2.13,2.13,0,0,0-.57,1.6,2.38,2.38,0,0,0,.21,1,2.83,2.83,0,0,0,.55.78,5.55,5.55,0,0,0,.78.64c.29.2.6.39.92.57s.75.46,1.12.72a5.08,5.08,0,0,1,1,.92,4.36,4.36,0,0,1,.71,1.23,4.72,4.72,0,0,1,.27,1.69,4.6,4.6,0,0,1-1.22,3.33,4.7,4.7,0,0,1-3.55,1.26,6.62,6.62,0,0,1-2.16-.33,9.22,9.22,0,0,1-1.44-.6l.54-2.13a11.77,11.77,0,0,0,1.21.54A4.63,4.63,0,0,0,532.86,105.63Z" transform="translate(0 0)"/><path class="i" d="M543.84,106.08a1.78,1.78,0,0,1-.5,1.23,1.68,1.68,0,0,1-1.3.54,1.64,1.64,0,0,1-1.29-.54,1.8,1.8,0,0,1-.48-1.23,1.84,1.84,0,0,1,.48-1.26,1.64,1.64,0,0,1,1.29-.54,1.68,1.68,0,0,1,1.3.54A1.81,1.81,0,0,1,543.84,106.08Z" transform="translate(0 0)"/><path class="j" d="M70.62,49.5c-.34.94-.72,1.94-1.13,3s-.84,2.13-1.3,3.22S67.26,57.9,66.78,59s-1,2.11-1.44,3.09v8.22h-2.7v-8q-.72-1.47-1.47-3.12t-1.44-3.3q-.69-1.65-1.32-3.27T57.27,49.5h2.91q.78,2.36,1.77,5t2,4.91q1-2.28,2-4.91t1.77-5Z" transform="translate(0 0)"/><path class="j" d="M81.81,62.43a15.85,15.85,0,0,1-.33,3.37,8.16,8.16,0,0,1-1,2.6,4.9,4.9,0,0,1-1.71,1.68,4.77,4.77,0,0,1-2.44.6,4.71,4.71,0,0,1-4.19-2.28,8.15,8.15,0,0,1-1-2.6,17.32,17.32,0,0,1,0-6.73,8.34,8.34,0,0,1,1-2.63,4.82,4.82,0,0,1,1.73-1.69,4.87,4.87,0,0,1,2.46-.6,4.77,4.77,0,0,1,2.44.6,4.85,4.85,0,0,1,1.71,1.69,8.34,8.34,0,0,1,1,2.63A16,16,0,0,1,81.81,62.43Zm-2.7,0A18,18,0,0,0,79,60a7.66,7.66,0,0,0-.48-1.89,3,3,0,0,0-.87-1.23,2.18,2.18,0,0,0-2.6,0,3.23,3.23,0,0,0-.87,1.23A7.22,7.22,0,0,0,73.65,60a19.52,19.52,0,0,0,0,4.83,7,7,0,0,0,.49,1.88A3.23,3.23,0,0,0,75,67.93a2.14,2.14,0,0,0,2.6,0,3,3,0,0,0,.87-1.21A7.46,7.46,0,0,0,79,64.84,17.8,17.8,0,0,0,79.11,62.43Z" transform="translate(0 0)"/><path class="j" d="M95.34,69.84a8,8,0,0,1-1,.28q-.56.13-1.17.24T92,70.54a9.35,9.35,0,0,1-1.12.08,8.34,8.34,0,0,1-2.25-.29,3.89,3.89,0,0,1-1.74-1,4.74,4.74,0,0,1-1.11-2,10.62,10.62,0,0,1-.39-3.13V54.54H88v9.6a5.61,5.61,0,0,0,.7,3.25,2.52,2.52,0,0,0,2.15,1c.32,0,.64,0,1,0a5.22,5.22,0,0,0,1-.19V54.54h2.58Z" transform="translate(0 0)"/><path class="j" d="M105.84,70.29V47.46l2.58-.45v7.62a9.8,9.8,0,0,1,1.24-.3,7.84,7.84,0,0,1,1.37-.12,5.42,5.42,0,0,1,1.86.31,3.59,3.59,0,0,1,1.51,1.07,5.39,5.39,0,0,1,1,2,11.41,11.41,0,0,1,.38,3.17v9.51h-2.58V61a7.36,7.36,0,0,0-.6-3.42,2.34,2.34,0,0,0-2.25-1.08,7.36,7.36,0,0,0-2,.3v13.5Z" transform="translate(0 0)"/><path class="j" d="M120.54,54.87a9.64,9.64,0,0,1,1.65-.53,8.65,8.65,0,0,1,1.89-.19,4.65,4.65,0,0,1,3.42,1.3,5.52,5.52,0,0,1,1.32,4.07V70a20.18,20.18,0,0,1-2.21.48,13.88,13.88,0,0,1-2.2.18,7.38,7.38,0,0,1-2-.27A4.2,4.2,0,0,1,119.61,68a5.31,5.31,0,0,1-.42-2.23,5.66,5.66,0,0,1,.37-2.15,4.28,4.28,0,0,1,1-1.53,4.38,4.38,0,0,1,1.56-.93,5.86,5.86,0,0,1,2-.31,11.25,11.25,0,0,1,2.19.24V59.61a3.44,3.44,0,0,0-.68-2.43,2.57,2.57,0,0,0-1.93-.69,6.13,6.13,0,0,0-1.31.13,7.12,7.12,0,0,0-1.3.44Zm1.23,10.83a2.64,2.64,0,0,0,.72,2,2.91,2.91,0,0,0,2,.66,8.33,8.33,0,0,0,1.77-.21v-5a6.85,6.85,0,0,0-1.77-.24,4.21,4.21,0,0,0-1.08.13,2.27,2.27,0,0,0-.89.45,2.07,2.07,0,0,0-.58.84A3.66,3.66,0,0,0,121.77,65.7Z" transform="translate(0 0)"/><path class="j" d="M136.68,67.26c.24-.8.49-1.74.76-2.82s.54-2.2.8-3.35.5-2.29.73-3.43.43-2.18.59-3.12h2.58c-.26,1.32-.57,2.71-.92,4.17s-.71,2.89-1.08,4.3-.75,2.75-1.13,4-.73,2.35-1.06,3.27h-2.66q-.48-1.38-1-3.27c-.38-1.26-.75-2.6-1.12-4s-.73-2.84-1.08-4.3-.65-2.85-.91-4.17h2.73c.16.94.35,2,.58,3.12s.47,2.28.72,3.43.51,2.27.77,3.35S136.44,66.46,136.68,67.26Z" transform="translate(0 0)"/><path class="j" d="M146.4,63.18a12.94,12.94,0,0,0,.21,2.08,5.27,5.27,0,0,0,.58,1.65,2.93,2.93,0,0,0,1.08,1.1,3.43,3.43,0,0,0,1.73.39,4.84,4.84,0,0,0,1.6-.26,7.93,7.93,0,0,0,1.07-.43l.48,2.07a5.83,5.83,0,0,1-1.31.58,6.66,6.66,0,0,1-2.17.32,5.86,5.86,0,0,1-2.78-.6,4.92,4.92,0,0,1-1.83-1.68,7.28,7.28,0,0,1-1-2.58,16.86,16.86,0,0,1-.3-3.3q0-4.35,1.44-6.36a4.47,4.47,0,0,1,3.81-2,4,4,0,0,1,3.78,2,11.8,11.8,0,0,1,1.11,5.64v.67c0,.23,0,.47,0,.71ZM149,56.34a2,2,0,0,0-1.88,1.29,9.82,9.82,0,0,0-.7,3.45h4.77a10.77,10.77,0,0,0-.45-3.47A1.71,1.71,0,0,0,149,56.34Z" transform="translate(0 0)"/><path class="j" d="M166,54.54h4v2.22h-4v8.67a3.37,3.37,0,0,0,.58,2.26,2,2,0,0,0,1.57.65,3.19,3.19,0,0,0,1-.15,3.41,3.41,0,0,0,.79-.36l.52,2.07a5.15,5.15,0,0,1-2.62.72,4.17,4.17,0,0,1-3.31-1.25,6.2,6.2,0,0,1-1.09-4.12V50.31l2.58-.45Z" transform="translate(0 0)"/><path class="j" d="M183.15,62.43a15.85,15.85,0,0,1-.33,3.37,8.16,8.16,0,0,1-1,2.6,4.9,4.9,0,0,1-1.71,1.68,4.77,4.77,0,0,1-2.44.6,4.71,4.71,0,0,1-4.19-2.28,8.15,8.15,0,0,1-1-2.6,17.32,17.32,0,0,1,0-6.73,8.34,8.34,0,0,1,1-2.63,4.69,4.69,0,0,1,4.19-2.29,4.77,4.77,0,0,1,2.44.6,4.85,4.85,0,0,1,1.71,1.69,8.34,8.34,0,0,1,1,2.63A16,16,0,0,1,183.15,62.43Zm-2.7,0A18,18,0,0,0,180.3,60a8.13,8.13,0,0,0-.48-1.89,3,3,0,0,0-.87-1.23,2,2,0,0,0-1.29-.43,2,2,0,0,0-1.31.43,3.23,3.23,0,0,0-.87,1.23A6.85,6.85,0,0,0,175,60a19.52,19.52,0,0,0,0,4.83,6.68,6.68,0,0,0,.49,1.88,3.23,3.23,0,0,0,.87,1.21,2,2,0,0,0,1.31.44,2,2,0,0,0,1.29-.44,3,3,0,0,0,.87-1.21,7.91,7.91,0,0,0,.48-1.88A17.8,17.8,0,0,0,180.45,62.43Z" transform="translate(0 0)"/><path class="j" d="M202.52,69.84a7.27,7.27,0,0,1-.94.28q-.56.13-1.17.24t-1.23.18a9.35,9.35,0,0,1-1.12.08,8.24,8.24,0,0,1-2.25-.29,3.92,3.92,0,0,1-1.75-1,4.62,4.62,0,0,1-1.1-2,10.27,10.27,0,0,1-.4-3.13V54.54h2.59v9.6a5.61,5.61,0,0,0,.7,3.25,2.52,2.52,0,0,0,2.15,1c.31,0,.63,0,1,0a5.28,5.28,0,0,0,1-.19V54.54h2.58Z" transform="translate(0 0)"/><path class="j" d="M207.17,55a20.9,20.9,0,0,1,2.41-.56,13.73,13.73,0,0,1,2.36-.22,6.87,6.87,0,0,1,2.14.31,3.78,3.78,0,0,1,1.63,1.07,5.14,5.14,0,0,1,1,2,11.44,11.44,0,0,1,.37,3.17v9.51h-2.57V61a7.49,7.49,0,0,0-.6-3.42,2.36,2.36,0,0,0-2.25-1.08,7.43,7.43,0,0,0-2,.3v13.5h-2.58Z" transform="translate(0 0)"/><path class="j" d="M228.42,47.46,231,47V69.87a10.47,10.47,0,0,1-1.93.58,10.71,10.71,0,0,1-2.19.23,5.34,5.34,0,0,1-4.69-2.07q-1.45-2.07-1.46-6.24a16.82,16.82,0,0,1,.32-3.41,7.72,7.72,0,0,1,1-2.58,4.71,4.71,0,0,1,1.73-1.65,5,5,0,0,1,2.48-.58,4.61,4.61,0,0,1,1.19.13,5.65,5.65,0,0,1,1,.38Zm0,9.45a3.86,3.86,0,0,0-1.87-.48,2.79,2.79,0,0,0-1.32.3,2.5,2.5,0,0,0-1,1,5.44,5.44,0,0,0-.61,1.83,15,15,0,0,0-.21,2.82,9.3,9.3,0,0,0,.85,4.63,2.83,2.83,0,0,0,2.59,1.4,6.39,6.39,0,0,0,.72-.05,5.37,5.37,0,0,0,.82-.16Z" transform="translate(0 0)"/><path class="j" d="M237.41,63.18a12.94,12.94,0,0,0,.21,2.08,5.27,5.27,0,0,0,.59,1.65,2.93,2.93,0,0,0,1.08,1.1,3.39,3.39,0,0,0,1.72.39,4.9,4.9,0,0,0,1.61-.26,7.67,7.67,0,0,0,1.06-.43l.48,2.07a5.71,5.71,0,0,1-1.3.58,6.73,6.73,0,0,1-2.18.32,5.82,5.82,0,0,1-2.77-.6,4.92,4.92,0,0,1-1.83-1.68,7.29,7.29,0,0,1-1-2.58,16.86,16.86,0,0,1-.3-3.3q0-4.35,1.44-6.36a4.47,4.47,0,0,1,3.81-2,4,4,0,0,1,3.78,2,11.8,11.8,0,0,1,1.11,5.64v.67c0,.23,0,.47,0,.71ZM240,56.34a2,2,0,0,0-1.87,1.29,9.8,9.8,0,0,0-.71,3.45h4.77a10.77,10.77,0,0,0-.45-3.47A1.71,1.71,0,0,0,240,56.34Z" transform="translate(0 0)"/><path class="j" d="M255.53,56.88a5.34,5.34,0,0,0-2.16-.42,5.45,5.45,0,0,0-2.07.39V70.29h-2.58V55.23a10.6,10.6,0,0,1,2-.71,10,10,0,0,1,2.47-.28,11.6,11.6,0,0,1,1.44.09,5.8,5.8,0,0,1,1.35.33Z" transform="translate(0 0)"/><path class="j" d="M260.75,68.46a2.22,2.22,0,0,0,1.73-.65,2.41,2.41,0,0,0,.58-1.69,2.45,2.45,0,0,0-.24-1.13,3,3,0,0,0-.63-.82,4.72,4.72,0,0,0-.9-.65c-.34-.19-.68-.39-1-.61a7.23,7.23,0,0,1-1-.71,5,5,0,0,1-.85-.93,4.49,4.49,0,0,1-.6-1.2,5,5,0,0,1-.23-1.57,4.23,4.23,0,0,1,1.22-3.15,4.46,4.46,0,0,1,3.28-1.2,5.93,5.93,0,0,1,1.65.22,6.83,6.83,0,0,1,1.29.5l-.57,2.07a5,5,0,0,0-1.08-.45,4.36,4.36,0,0,0-1.17-.15,2.1,2.1,0,0,0-1.53.55,2.15,2.15,0,0,0-.57,1.61,2.34,2.34,0,0,0,.21,1,2.86,2.86,0,0,0,.56.78,5.6,5.6,0,0,0,.78.65c.29.2.59.39.91.57s.76.46,1.13.72a5,5,0,0,1,1,.91,4.33,4.33,0,0,1,.7,1.23,4.77,4.77,0,0,1,.27,1.7,4.59,4.59,0,0,1-1.21,3.33,4.73,4.73,0,0,1-3.56,1.26,6.62,6.62,0,0,1-2.16-.33,9.22,9.22,0,0,1-1.44-.6l.54-2.13a12.1,12.1,0,0,0,1.22.54A4.58,4.58,0,0,0,260.75,68.46Z" transform="translate(0 0)"/><path class="j" d="M271.19,54.54h4v2.22h-4v8.67a3.37,3.37,0,0,0,.59,2.26,2,2,0,0,0,1.57.65,3.19,3.19,0,0,0,1-.15,3.41,3.41,0,0,0,.79-.36l.51,2.07a5.09,5.09,0,0,1-2.61.72,4.17,4.17,0,0,1-3.31-1.25,6.2,6.2,0,0,1-1.1-4.12V50.31l2.58-.45Z" transform="translate(0 0)"/><path class="j" d="M278.66,54.87a9.64,9.64,0,0,1,1.65-.53,8.65,8.65,0,0,1,1.89-.19,4.65,4.65,0,0,1,3.42,1.3,5.52,5.52,0,0,1,1.32,4.07V70a20,20,0,0,1-2.2.48,14,14,0,0,1-2.21.18,7.31,7.31,0,0,1-2-.27A4.25,4.25,0,0,1,277.73,68a5.31,5.31,0,0,1-.42-2.23,5.66,5.66,0,0,1,.38-2.15,4.26,4.26,0,0,1,1-1.53,4.38,4.38,0,0,1,1.56-.93,5.86,5.86,0,0,1,2-.31,11.25,11.25,0,0,1,2.19.24V59.61a3.45,3.45,0,0,0-.67-2.43,2.6,2.6,0,0,0-1.94-.69,6,6,0,0,0-1.3.13,7.21,7.21,0,0,0-1.31.44Zm1.23,10.83a2.64,2.64,0,0,0,.72,2,2.91,2.91,0,0,0,2,.66,8.33,8.33,0,0,0,1.77-.21v-5a6.85,6.85,0,0,0-1.77-.24,4.21,4.21,0,0,0-1.08.13,2.23,2.23,0,0,0-.88.45,2.09,2.09,0,0,0-.59.84A3.66,3.66,0,0,0,279.89,65.7Z" transform="translate(0 0)"/><path class="j" d="M291.44,55a21.21,21.21,0,0,1,2.4-.56,13.84,13.84,0,0,1,2.37-.22,6.81,6.81,0,0,1,2.13.31A3.75,3.75,0,0,1,300,55.59a5.14,5.14,0,0,1,1,2,11.44,11.44,0,0,1,.37,3.17v9.51h-2.58V61a7.36,7.36,0,0,0-.6-3.42A2.34,2.34,0,0,0,296,56.49a7.36,7.36,0,0,0-2,.3v13.5h-2.58Z" transform="translate(0 0)"/><path class="j" d="M312.68,47.46l2.58-.45V69.87a10.13,10.13,0,0,1-1.92.58,10.71,10.71,0,0,1-2.19.23,5.33,5.33,0,0,1-4.69-2.07Q305,66.54,305,62.37a16.82,16.82,0,0,1,.32-3.41,7.72,7.72,0,0,1,1-2.58A4.76,4.76,0,0,1,308,54.73a5,5,0,0,1,2.49-.58,4.61,4.61,0,0,1,1.19.13,5.27,5.27,0,0,1,1,.38Zm0,9.45a3.79,3.79,0,0,0-1.86-.48,2.79,2.79,0,0,0-1.32.3,2.5,2.5,0,0,0-1,1,5.66,5.66,0,0,0-.62,1.83,15.92,15.92,0,0,0-.21,2.82,9.28,9.28,0,0,0,.86,4.63,2.83,2.83,0,0,0,2.59,1.4,6.39,6.39,0,0,0,.72-.05,5,5,0,0,0,.81-.16Z" transform="translate(0 0)"/><path class="j" d="M332.41,49.5c.48,1.49.95,3,1.42,4.54s.93,3.13,1.38,4.81.9,3.46,1.35,5.34.9,3.92,1.35,6.1h-2.7q-.22-1.35-.48-2.67c-.17-.88-.34-1.76-.52-2.64h-6.56q-.3,1.32-.54,2.64t-.48,2.67H324c.44-2.18.9-4.21,1.36-6.09s.91-3.66,1.37-5.34.91-3.28,1.38-4.81.95-3,1.43-4.55Zm-1.47,3.06q-.74,2.49-1.42,5t-1.33,5.16h5.45q-.6-2.64-1.29-5.16T330.94,52.56Z" transform="translate(0 0)"/><path class="j" d="M345.65,70.68a5.29,5.29,0,0,1-2.7-.63,5,5,0,0,1-1.75-1.73,7.58,7.58,0,0,1-1-2.59,17.52,17.52,0,0,1-.29-3.27,11.2,11.2,0,0,1,1.43-6.11,4.77,4.77,0,0,1,4.3-2.2,5.35,5.35,0,0,1,1.56.21,6.74,6.74,0,0,1,1.29.54L347.87,57a3.74,3.74,0,0,0-2.07-.6,2.51,2.51,0,0,0-2.38,1.47,10.31,10.31,0,0,0-.77,4.56,17.55,17.55,0,0,0,.15,2.38,6.33,6.33,0,0,0,.53,1.88,3.21,3.21,0,0,0,1,1.23,2.58,2.58,0,0,0,1.57.45,4,4,0,0,0,1.19-.17,5.2,5.2,0,0,0,1-.43l.57,2a5.2,5.2,0,0,1-1.27.6A5.36,5.36,0,0,1,345.65,70.68Z" transform="translate(0 0)"/><path class="j" d="M356.09,70.68a5.29,5.29,0,0,1-2.7-.63,5,5,0,0,1-1.75-1.73,7.58,7.58,0,0,1-1-2.59,17.52,17.52,0,0,1-.29-3.27,11.2,11.2,0,0,1,1.43-6.11,4.77,4.77,0,0,1,4.3-2.2,5.35,5.35,0,0,1,1.56.21,6.74,6.74,0,0,1,1.29.54L358.31,57a3.74,3.74,0,0,0-2.07-.6,2.51,2.51,0,0,0-2.38,1.47,10.31,10.31,0,0,0-.77,4.56,17.55,17.55,0,0,0,.15,2.38,6.33,6.33,0,0,0,.53,1.88,3.21,3.21,0,0,0,1,1.23,2.58,2.58,0,0,0,1.57.45,4,4,0,0,0,1.19-.17,5.2,5.2,0,0,0,1-.43l.57,2a5.2,5.2,0,0,1-1.27.6A5.36,5.36,0,0,1,356.09,70.68Z" transform="translate(0 0)"/><path class="j" d="M371.84,62.43a15.85,15.85,0,0,1-.33,3.37,8.15,8.15,0,0,1-1,2.6,4.9,4.9,0,0,1-1.71,1.68,4.81,4.81,0,0,1-2.45.6,4.67,4.67,0,0,1-4.18-2.28,8.16,8.16,0,0,1-1-2.6,17.32,17.32,0,0,1,0-6.73,8.34,8.34,0,0,1,1-2.63,4.8,4.8,0,0,1,1.72-1.69,4.87,4.87,0,0,1,2.46-.6,4.62,4.62,0,0,1,4.16,2.29,8.34,8.34,0,0,1,1,2.63A16,16,0,0,1,371.84,62.43Zm-2.7,0A18,18,0,0,0,369,60a7.66,7.66,0,0,0-.48-1.89,3,3,0,0,0-.87-1.23,2,2,0,0,0-1.29-.43,2,2,0,0,0-1.3.43,3.23,3.23,0,0,0-.87,1.23,7.21,7.21,0,0,0-.5,1.89,19.52,19.52,0,0,0,0,4.83,7,7,0,0,0,.5,1.88,3.23,3.23,0,0,0,.87,1.21,2,2,0,0,0,1.3.44,2,2,0,0,0,1.29-.44,3,3,0,0,0,.87-1.21,7.46,7.46,0,0,0,.48-1.88A17.8,17.8,0,0,0,369.14,62.43Z" transform="translate(0 0)"/><path class="j" d="M385.37,69.84a7.78,7.78,0,0,1-.94.28q-.56.13-1.17.24t-1.23.18a9.51,9.51,0,0,1-1.13.08,8.34,8.34,0,0,1-2.25-.29,3.89,3.89,0,0,1-1.74-1,4.74,4.74,0,0,1-1.11-2,10.62,10.62,0,0,1-.39-3.13V54.54H378v9.6a5.6,5.6,0,0,0,.71,3.25,2.5,2.5,0,0,0,2.14,1c.32,0,.64,0,1,0a5.22,5.22,0,0,0,1-.19V54.54h2.58Z" transform="translate(0 0)"/><path class="j" d="M390,55a21.21,21.21,0,0,1,2.4-.56,13.84,13.84,0,0,1,2.37-.22,6.81,6.81,0,0,1,2.13.31,3.75,3.75,0,0,1,1.64,1.07,5.14,5.14,0,0,1,1.05,2,11.44,11.44,0,0,1,.37,3.17v9.51H397.4V61a7.36,7.36,0,0,0-.6-3.42,2.34,2.34,0,0,0-2.25-1.08,7.36,7.36,0,0,0-1.95.3v13.5H390Z" transform="translate(0 0)"/><path class="j" d="M406.88,54.54h4v2.22h-4v8.67a3.37,3.37,0,0,0,.59,2.26,2,2,0,0,0,1.57.65,3.19,3.19,0,0,0,1-.15,3.41,3.41,0,0,0,.79-.36l.51,2.07a5.09,5.09,0,0,1-2.61.72,4.17,4.17,0,0,1-3.31-1.25,6.2,6.2,0,0,1-1.1-4.12V50.31l2.58-.45Z" transform="translate(0 0)"/><path class="j" d="M415.4,51.75a1.66,1.66,0,0,1-1.18-.47,1.62,1.62,0,0,1-.5-1.24,1.64,1.64,0,0,1,1.68-1.71,1.68,1.68,0,0,1,1.19.46,1.63,1.63,0,0,1,.49,1.25,1.61,1.61,0,0,1-.49,1.24A1.69,1.69,0,0,1,415.4,51.75Zm1.29,18.54h-2.58V54.54h2.58Z" transform="translate(0 0)"/><path class="j" d="M421.37,55a21.21,21.21,0,0,1,2.4-.56,13.84,13.84,0,0,1,2.37-.22,6.81,6.81,0,0,1,2.13.31,3.75,3.75,0,0,1,1.64,1.07,5.14,5.14,0,0,1,1,2,11.44,11.44,0,0,1,.37,3.17v9.51h-2.58V61a7.36,7.36,0,0,0-.6-3.42,2.34,2.34,0,0,0-2.25-1.08,7.36,7.36,0,0,0-1.95.3v13.5h-2.58Z" transform="translate(0 0)"/><path class="j" d="M445.19,69.84a8.06,8.06,0,0,1-.43,2.83,5,5,0,0,1-1.19,1.88,4.53,4.53,0,0,1-1.75,1,6.87,6.87,0,0,1-2.15.33,9,9,0,0,1-1.92-.21,7.14,7.14,0,0,1-1.77-.63l.54-2.16a6.93,6.93,0,0,0,1.32.54,5.48,5.48,0,0,0,1.62.24,3.12,3.12,0,0,0,2.31-.84,4,4,0,0,0,.84-2.88v-.75a6.42,6.42,0,0,1-1,.34,5.08,5.08,0,0,1-1.23.14,4.61,4.61,0,0,1-4.12-1.94,9.72,9.72,0,0,1-1.31-5.47,15.41,15.41,0,0,1,.35-3.41,7.38,7.38,0,0,1,1.08-2.58,4.73,4.73,0,0,1,1.9-1.62,6.62,6.62,0,0,1,2.85-.55,10.54,10.54,0,0,1,2.18.22,10.12,10.12,0,0,1,1.9.59Zm-2.58-13.2a5.1,5.1,0,0,0-.81-.17,6.24,6.24,0,0,0-.72,0,2.82,2.82,0,0,0-2.62,1.38,9.17,9.17,0,0,0-.83,4.5,7.2,7.2,0,0,0,.81,4,2.66,2.66,0,0,0,2.31,1.16,3.93,3.93,0,0,0,1-.12,4.43,4.43,0,0,0,.88-.33Z" transform="translate(0 0)"/><path class="j" d="M455.93,54.87a9.64,9.64,0,0,1,1.65-.53,8.65,8.65,0,0,1,1.89-.19,4.65,4.65,0,0,1,3.42,1.3,5.52,5.52,0,0,1,1.32,4.07V70a20,20,0,0,1-2.2.48,14,14,0,0,1-2.21.18,7.31,7.31,0,0,1-2-.27A4.25,4.25,0,0,1,455,68a5.31,5.31,0,0,1-.42-2.23,5.66,5.66,0,0,1,.38-2.15,4.26,4.26,0,0,1,1-1.53,4.38,4.38,0,0,1,1.56-.93,5.86,5.86,0,0,1,1.95-.31,11.25,11.25,0,0,1,2.19.24V59.61a3.45,3.45,0,0,0-.67-2.43,2.6,2.6,0,0,0-1.94-.69,6,6,0,0,0-1.3.13,7.21,7.21,0,0,0-1.31.44Zm1.23,10.83a2.64,2.64,0,0,0,.72,2,2.91,2.91,0,0,0,2,.66,8.33,8.33,0,0,0,1.77-.21v-5a6.85,6.85,0,0,0-1.77-.24,4.21,4.21,0,0,0-1.08.13,2.23,2.23,0,0,0-.88.45,2.09,2.09,0,0,0-.59.84A3.66,3.66,0,0,0,457.16,65.7Z" transform="translate(0 0)"/><path class="j" d="M468.71,55a21.21,21.21,0,0,1,2.4-.56,13.84,13.84,0,0,1,2.37-.22,6.81,6.81,0,0,1,2.13.31,3.81,3.81,0,0,1,1.64,1.07,5.13,5.13,0,0,1,1,2,11.41,11.41,0,0,1,.38,3.17v9.51h-2.58V61a7.36,7.36,0,0,0-.6-3.42,2.34,2.34,0,0,0-2.25-1.08,7.36,7.36,0,0,0-1.95.3v13.5h-2.58Z" transform="translate(0 0)"/><path class="j" d="M490,47.46l2.58-.45V69.87a10.13,10.13,0,0,1-1.92.58,10.71,10.71,0,0,1-2.19.23,5.36,5.36,0,0,1-4.7-2.07q-1.46-2.07-1.45-6.24a17.62,17.62,0,0,1,.31-3.41,7.72,7.72,0,0,1,1-2.58,4.76,4.76,0,0,1,1.72-1.65,5,5,0,0,1,2.49-.58,4.47,4.47,0,0,1,1.18.13,5.36,5.36,0,0,1,1,.38Zm0,9.45a3.79,3.79,0,0,0-1.86-.48,2.79,2.79,0,0,0-1.32.3,2.59,2.59,0,0,0-1,1,5.93,5.93,0,0,0-.61,1.83,15.92,15.92,0,0,0-.21,2.82,9.17,9.17,0,0,0,.86,4.63,2.83,2.83,0,0,0,2.59,1.4,6.39,6.39,0,0,0,.72-.05,5,5,0,0,0,.81-.16Z" transform="translate(0 0)"/><path class="j" d="M505.43,54.54h4v2.22h-4v8.67a3.37,3.37,0,0,0,.58,2.26,2,2,0,0,0,1.58.65,3.12,3.12,0,0,0,1-.15,3.5,3.5,0,0,0,.8-.36l.51,2.07a5.09,5.09,0,0,1-2.61.72,4.2,4.2,0,0,1-3.32-1.25,6.2,6.2,0,0,1-1.09-4.12V50.31l2.58-.45Z" transform="translate(0 0)"/><path class="j" d="M512.66,70.29V47.46l2.58-.45v7.62a9.8,9.8,0,0,1,1.24-.3,7.84,7.84,0,0,1,1.37-.12,5.42,5.42,0,0,1,1.86.31,3.59,3.59,0,0,1,1.51,1.07,5.39,5.39,0,0,1,1,2,11.41,11.41,0,0,1,.38,3.17v9.51H520V61a7.36,7.36,0,0,0-.6-3.42,2.34,2.34,0,0,0-2.25-1.08,7.36,7.36,0,0,0-2,.3v13.5Z" transform="translate(0 0)"/><path class="j" d="M528.89,63.18a12.94,12.94,0,0,0,.21,2.08,5.27,5.27,0,0,0,.58,1.65,2.93,2.93,0,0,0,1.08,1.1,3.43,3.43,0,0,0,1.73.39,4.84,4.84,0,0,0,1.6-.26,7.93,7.93,0,0,0,1.07-.43l.48,2.07a5.83,5.83,0,0,1-1.31.58,6.66,6.66,0,0,1-2.17.32,5.86,5.86,0,0,1-2.78-.6,4.92,4.92,0,0,1-1.83-1.68,7.28,7.28,0,0,1-1-2.58,16.86,16.86,0,0,1-.3-3.3q0-4.35,1.44-6.36a4.47,4.47,0,0,1,3.81-2,4,4,0,0,1,3.78,2,11.8,11.8,0,0,1,1.11,5.64v.67c0,.23,0,.47,0,.71Zm2.61-6.84a2,2,0,0,0-1.88,1.29,9.82,9.82,0,0,0-.7,3.45h4.77a10.77,10.77,0,0,0-.45-3.47A1.71,1.71,0,0,0,531.5,56.34Z" transform="translate(0 0)"/><path class="j" d="M546.05,55a21.21,21.21,0,0,1,2.4-.56,13.84,13.84,0,0,1,2.37-.22,6.81,6.81,0,0,1,2.13.31,3.72,3.72,0,0,1,1.63,1.07,5.14,5.14,0,0,1,1,2,11.41,11.41,0,0,1,.38,3.17v9.51h-2.58V61a7.36,7.36,0,0,0-.6-3.42,2.34,2.34,0,0,0-2.25-1.08,7.36,7.36,0,0,0-2,.3v13.5h-2.58Z" transform="translate(0 0)"/><path class="j" d="M570.26,69.84a8,8,0,0,1-1,.28q-.55.13-1.17.24t-1.23.18a9.35,9.35,0,0,1-1.12.08,8.34,8.34,0,0,1-2.25-.29,3.89,3.89,0,0,1-1.74-1,4.74,4.74,0,0,1-1.11-2,10.62,10.62,0,0,1-.39-3.13V54.54h2.58v9.6a5.61,5.61,0,0,0,.7,3.25,2.52,2.52,0,0,0,2.15,1c.32,0,.64,0,1,0a5.22,5.22,0,0,0,1-.19V54.54h2.58Z" transform="translate(0 0)"/><path class="j" d="M575.15,54.87a9.64,9.64,0,0,1,1.65-.53,8.65,8.65,0,0,1,1.89-.19,4.65,4.65,0,0,1,3.42,1.3,5.52,5.52,0,0,1,1.32,4.07V70a20.18,20.18,0,0,1-2.21.48,13.88,13.88,0,0,1-2.2.18,7.38,7.38,0,0,1-2-.27A4.2,4.2,0,0,1,574.22,68a5.31,5.31,0,0,1-.42-2.23,5.66,5.66,0,0,1,.37-2.15,4.28,4.28,0,0,1,1-1.53,4.38,4.38,0,0,1,1.56-.93,5.86,5.86,0,0,1,2-.31,11.25,11.25,0,0,1,2.19.24V59.61a3.44,3.44,0,0,0-.68-2.43,2.57,2.57,0,0,0-1.93-.69,6.13,6.13,0,0,0-1.31.13,7.12,7.12,0,0,0-1.3.44Zm1.23,10.83a2.64,2.64,0,0,0,.72,2,2.91,2.91,0,0,0,2,.66,8.33,8.33,0,0,0,1.77-.21v-5a6.85,6.85,0,0,0-1.77-.24,4.21,4.21,0,0,0-1.08.13,2.27,2.27,0,0,0-.89.45,2.07,2.07,0,0,0-.58.84A3.66,3.66,0,0,0,576.38,65.7Z" transform="translate(0 0)"/><path class="j" d="M587.93,55a21.21,21.21,0,0,1,2.4-.56,13.84,13.84,0,0,1,2.37-.22,6.81,6.81,0,0,1,2.13.31,3.72,3.72,0,0,1,1.63,1.07,5.14,5.14,0,0,1,1,2,11.41,11.41,0,0,1,.38,3.17v9.51h-2.58V61a7.36,7.36,0,0,0-.6-3.42,2.34,2.34,0,0,0-2.25-1.08,7.36,7.36,0,0,0-2,.3v13.5h-2.58Z" transform="translate(0 0)"/><path class="j" d="M607.19,70.68a5.29,5.29,0,0,1-2.7-.63,5,5,0,0,1-1.76-1.73,7.58,7.58,0,0,1-1-2.59,17.56,17.56,0,0,1-.28-3.27,11.21,11.21,0,0,1,1.42-6.11,4.78,4.78,0,0,1,4.31-2.2,5.35,5.35,0,0,1,1.56.21,6.74,6.74,0,0,1,1.29.54L609.41,57a3.74,3.74,0,0,0-2.07-.6A2.53,2.53,0,0,0,605,57.9a10.34,10.34,0,0,0-.76,4.56,17.55,17.55,0,0,0,.15,2.38,6.34,6.34,0,0,0,.52,1.88,3.21,3.21,0,0,0,1,1.23,2.62,2.62,0,0,0,1.58.45,3.91,3.91,0,0,0,1.18-.17,5.29,5.29,0,0,0,1-.43l.57,2a5.6,5.6,0,0,1-3,.87Z" transform="translate(0 0)"/><path class="j" d="M614.6,63.18a12.94,12.94,0,0,0,.21,2.08,5.27,5.27,0,0,0,.58,1.65,2.93,2.93,0,0,0,1.08,1.1,3.43,3.43,0,0,0,1.73.39,4.84,4.84,0,0,0,1.6-.26,7.93,7.93,0,0,0,1.07-.43l.48,2.07a5.83,5.83,0,0,1-1.31.58,6.66,6.66,0,0,1-2.17.32,5.86,5.86,0,0,1-2.78-.6,4.92,4.92,0,0,1-1.83-1.68,7.28,7.28,0,0,1-1-2.58,16.86,16.86,0,0,1-.3-3.3q0-4.35,1.44-6.36a4.47,4.47,0,0,1,3.81-2,4,4,0,0,1,3.78,2,11.8,11.8,0,0,1,1.11,5.64v.67c0,.23,0,.47,0,.71Zm2.61-6.84a2,2,0,0,0-1.88,1.29,9.82,9.82,0,0,0-.7,3.45h4.77a10.77,10.77,0,0,0-.45-3.47A1.71,1.71,0,0,0,617.21,56.34Z" transform="translate(0 0)"/><path class="j" d="M628.1,68.46a2.2,2.2,0,0,0,1.72-.65,2.42,2.42,0,0,0,.59-1.69,2.45,2.45,0,0,0-.24-1.13,3,3,0,0,0-.63-.82,4.72,4.72,0,0,0-.9-.65c-.34-.19-.68-.39-1-.61a7.23,7.23,0,0,1-1-.71,5.08,5.08,0,0,1-.86-.93,4.49,4.49,0,0,1-.6-1.2A5,5,0,0,1,625,58.5a4.23,4.23,0,0,1,1.21-3.15,4.48,4.48,0,0,1,3.29-1.2,5.93,5.93,0,0,1,1.65.22,6.83,6.83,0,0,1,1.29.5l-.57,2.07a5,5,0,0,0-1.08-.45,4.36,4.36,0,0,0-1.17-.15,2.1,2.1,0,0,0-1.53.55,2.15,2.15,0,0,0-.57,1.61,2.34,2.34,0,0,0,.21,1,2.83,2.83,0,0,0,.55.78A5.6,5.6,0,0,0,629,61c.29.2.6.39.92.57s.75.46,1.12.72a5,5,0,0,1,1,.91,4.36,4.36,0,0,1,.71,1.23,4.77,4.77,0,0,1,.27,1.7,4.6,4.6,0,0,1-1.22,3.33,4.7,4.7,0,0,1-3.55,1.26,6.62,6.62,0,0,1-2.16-.33,9.22,9.22,0,0,1-1.44-.6l.54-2.13a11.77,11.77,0,0,0,1.21.54A4.63,4.63,0,0,0,628.1,68.46Z" transform="translate(0 0)"/><path class="j" d="M69.63,98.43a15.85,15.85,0,0,1-.33,3.37,8.16,8.16,0,0,1-1,2.6,4.9,4.9,0,0,1-1.71,1.68,4.77,4.77,0,0,1-2.44.6A4.71,4.71,0,0,1,60,104.4a8.15,8.15,0,0,1-1-2.6,17.32,17.32,0,0,1,0-6.73,8.34,8.34,0,0,1,1-2.63,4.82,4.82,0,0,1,1.73-1.69,4.87,4.87,0,0,1,2.46-.6,4.77,4.77,0,0,1,2.44.6,4.85,4.85,0,0,1,1.71,1.69,8.34,8.34,0,0,1,1,2.63A16,16,0,0,1,69.63,98.43Zm-2.7,0A18,18,0,0,0,66.78,96a7.66,7.66,0,0,0-.48-1.89,3,3,0,0,0-.87-1.23,2.18,2.18,0,0,0-2.6,0A3.23,3.23,0,0,0,62,94.12,7.22,7.22,0,0,0,61.47,96a19.52,19.52,0,0,0,0,4.83,7,7,0,0,0,.49,1.88,3.23,3.23,0,0,0,.87,1.21,2.14,2.14,0,0,0,2.6,0,3,3,0,0,0,.87-1.21,7.46,7.46,0,0,0,.48-1.88A17.8,17.8,0,0,0,66.93,98.43Z" transform="translate(0 0)"/><path class="j" d="M78,83a5.84,5.84,0,0,1,1.53.18,6,6,0,0,1,1.08.39l-.54,2a4,4,0,0,0-.87-.32,4.22,4.22,0,0,0-1-.1,2.41,2.41,0,0,0-1.14.24,1.69,1.69,0,0,0-.69.66,2.87,2.87,0,0,0-.33,1A8.26,8.26,0,0,0,76,88.35v2.19H80v2.22H76v13.53H73.41V88.35a6.09,6.09,0,0,1,1.14-3.95A4.19,4.19,0,0,1,78,83Z" transform="translate(0 0)"/><path class="j" d="M95.08,85.5c.48,1.49,1,3,1.42,4.54s.93,3.13,1.38,4.81.9,3.46,1.35,5.34.9,3.92,1.36,6.1h-2.7c-.16-.9-.32-1.79-.49-2.67s-.34-1.76-.52-2.64H90.32q-.3,1.32-.54,2.64c-.16.88-.32,1.77-.47,2.67H86.7q.66-3.27,1.35-6.09t1.37-5.34q.67-2.52,1.39-4.81c.47-1.53.94-3,1.43-4.55Zm-1.47,3.06c-.48,1.66-1,3.33-1.42,5s-.9,3.4-1.33,5.16h5.45q-.6-2.64-1.29-5.16C94.57,91.89,94.09,90.22,93.61,88.56Z" transform="translate(0 0)"/><path class="j" d="M108.33,106.68a5.29,5.29,0,0,1-2.7-.63,5,5,0,0,1-1.76-1.73,7.58,7.58,0,0,1-1-2.59,17.56,17.56,0,0,1-.28-3.27,11.21,11.21,0,0,1,1.42-6.11,4.78,4.78,0,0,1,4.31-2.2,5.35,5.35,0,0,1,1.56.21,6.74,6.74,0,0,1,1.29.54L110.55,93a3.74,3.74,0,0,0-2.07-.6,2.53,2.53,0,0,0-2.39,1.47,10.34,10.34,0,0,0-.76,4.56,17.55,17.55,0,0,0,.15,2.38,6.34,6.34,0,0,0,.52,1.88,3.21,3.21,0,0,0,1,1.23,2.62,2.62,0,0,0,1.58.45,3.91,3.91,0,0,0,1.18-.17,5.29,5.29,0,0,0,1-.43l.57,2a5.6,5.6,0,0,1-3,.87Z" transform="translate(0 0)"/><path class="j" d="M118.77,106.68a5.29,5.29,0,0,1-2.7-.63,5,5,0,0,1-1.76-1.73,7.58,7.58,0,0,1-1-2.59,17.56,17.56,0,0,1-.28-3.27,11.21,11.21,0,0,1,1.42-6.11,4.78,4.78,0,0,1,4.31-2.2,5.35,5.35,0,0,1,1.56.21,6.74,6.74,0,0,1,1.29.54L121,93a3.74,3.74,0,0,0-2.07-.6,2.53,2.53,0,0,0-2.39,1.47,10.34,10.34,0,0,0-.76,4.56,17.55,17.55,0,0,0,.15,2.38,6.34,6.34,0,0,0,.52,1.88,3.21,3.21,0,0,0,1,1.23,2.62,2.62,0,0,0,1.58.45,3.91,3.91,0,0,0,1.18-.17,5.29,5.29,0,0,0,1-.43l.57,2a5.6,5.6,0,0,1-3,.87Z" transform="translate(0 0)"/><path class="j" d="M134.52,98.43a15.85,15.85,0,0,1-.33,3.37,8.16,8.16,0,0,1-1,2.6,4.9,4.9,0,0,1-1.71,1.68,4.77,4.77,0,0,1-2.44.6,4.71,4.71,0,0,1-4.19-2.28,8.15,8.15,0,0,1-1-2.6,17.32,17.32,0,0,1,0-6.73,8.34,8.34,0,0,1,1-2.63,4.82,4.82,0,0,1,1.73-1.69,4.87,4.87,0,0,1,2.46-.6,4.77,4.77,0,0,1,2.44.6,4.85,4.85,0,0,1,1.71,1.69,8.34,8.34,0,0,1,1,2.63A16,16,0,0,1,134.52,98.43Zm-2.7,0a18,18,0,0,0-.15-2.42,7.66,7.66,0,0,0-.48-1.89,3,3,0,0,0-.87-1.23,2.18,2.18,0,0,0-2.6,0,3.23,3.23,0,0,0-.87,1.23,7.22,7.22,0,0,0-.49,1.89,19.52,19.52,0,0,0,0,4.83,7,7,0,0,0,.49,1.88,3.23,3.23,0,0,0,.87,1.21,2.14,2.14,0,0,0,2.6,0,3,3,0,0,0,.87-1.21,7.46,7.46,0,0,0,.48-1.88A17.8,17.8,0,0,0,131.82,98.43Z" transform="translate(0 0)"/><path class="j" d="M148.05,105.84a8,8,0,0,1-1,.28q-.56.13-1.17.24t-1.23.18a9.35,9.35,0,0,1-1.12.08,8.34,8.34,0,0,1-2.25-.29,3.89,3.89,0,0,1-1.74-1,4.74,4.74,0,0,1-1.11-2,10.62,10.62,0,0,1-.39-3.13V90.54h2.58v9.6a5.61,5.61,0,0,0,.7,3.25,2.52,2.52,0,0,0,2.15,1c.32,0,.64,0,1,0a5.22,5.22,0,0,0,1-.19V90.54h2.58Z" transform="translate(0 0)"/><path class="j" d="M152.7,91a21.21,21.21,0,0,1,2.4-.56,13.84,13.84,0,0,1,2.37-.22,6.81,6.81,0,0,1,2.13.31,3.72,3.72,0,0,1,1.63,1.07,5.14,5.14,0,0,1,1.05,2,11.41,11.41,0,0,1,.38,3.17v9.51h-2.58V97a7.36,7.36,0,0,0-.6-3.42,2.34,2.34,0,0,0-2.25-1.08,7.36,7.36,0,0,0-1.95.3v13.5H152.7Z" transform="translate(0 0)"/><path class="j" d="M169.56,90.54h4v2.22h-4v8.67a3.37,3.37,0,0,0,.58,2.26,2,2,0,0,0,1.58.65,3.12,3.12,0,0,0,1-.15,3.5,3.5,0,0,0,.8-.36l.51,2.07a5.09,5.09,0,0,1-2.61.72,4.2,4.2,0,0,1-3.32-1.25,6.2,6.2,0,0,1-1.09-4.12V86.31l2.58-.45Z" transform="translate(0 0)"/><path class="j" d="M178.08,87.75a1.69,1.69,0,0,1-1.19-.47A1.61,1.61,0,0,1,176.4,86a1.63,1.63,0,0,1,.49-1.25,1.68,1.68,0,0,1,1.19-.46A1.64,1.64,0,0,1,179.76,86a1.62,1.62,0,0,1-.5,1.24A1.66,1.66,0,0,1,178.08,87.75Zm1.29,18.54h-2.58V90.54h2.58Z" transform="translate(0 0)"/><path class="j" d="M184.05,91a21.21,21.21,0,0,1,2.4-.56,13.84,13.84,0,0,1,2.37-.22,6.81,6.81,0,0,1,2.13.31,3.72,3.72,0,0,1,1.63,1.07,5.14,5.14,0,0,1,1,2,11.41,11.41,0,0,1,.38,3.17v9.51h-2.58V97a7.36,7.36,0,0,0-.6-3.42,2.34,2.34,0,0,0-2.25-1.08,7.36,7.36,0,0,0-2,.3v13.5h-2.58Z" transform="translate(0 0)"/><path class="j" d="M207.87,105.84a8,8,0,0,1-.44,2.83,5,5,0,0,1-1.18,1.88,4.57,4.57,0,0,1-1.76,1,6.8,6.8,0,0,1-2.14.33,9,9,0,0,1-1.92-.21,7.14,7.14,0,0,1-1.77-.63l.54-2.16a6.93,6.93,0,0,0,1.32.54,5.48,5.48,0,0,0,1.62.24,3.12,3.12,0,0,0,2.31-.84,4,4,0,0,0,.84-2.88v-.75a6.42,6.42,0,0,1-1,.34,5.08,5.08,0,0,1-1.23.14,4.63,4.63,0,0,1-4.13-1.94,9.72,9.72,0,0,1-1.3-5.47A15.44,15.44,0,0,1,198,94.9,7.38,7.38,0,0,1,199,92.32a4.76,4.76,0,0,1,1.91-1.62,6.62,6.62,0,0,1,2.85-.55,10.44,10.44,0,0,1,2.17.22,10.23,10.23,0,0,1,1.91.59Zm-2.58-13.2a5.1,5.1,0,0,0-.81-.17,6.24,6.24,0,0,0-.72,0,2.84,2.84,0,0,0-2.63,1.38,9.19,9.19,0,0,0-.82,4.5,7.2,7.2,0,0,0,.81,4,2.66,2.66,0,0,0,2.31,1.16,3.85,3.85,0,0,0,1-.12,4.52,4.52,0,0,0,.89-.33Z" transform="translate(0 0)"/><path class="j" d="M215.46,104.91a1.78,1.78,0,0,1-.5,1.23,1.68,1.68,0,0,1-1.3.54,1.64,1.64,0,0,1-1.29-.54,1.8,1.8,0,0,1-.48-1.23,1.84,1.84,0,0,1,.48-1.26,1.64,1.64,0,0,1,1.29-.54,1.68,1.68,0,0,1,1.3.54A1.81,1.81,0,0,1,215.46,104.91Z" transform="translate(0 0)"/><path class="j" d="M225.51,85.5h2.7v20.79h-2.7Z" transform="translate(0 0)"/><path class="j" d="M235.47,90.54h4v2.22h-4v8.67a3.37,3.37,0,0,0,.58,2.26,2,2,0,0,0,1.58.65,3.12,3.12,0,0,0,1-.15,3.5,3.5,0,0,0,.8-.36l.51,2.07a5.09,5.09,0,0,1-2.61.72,4.2,4.2,0,0,1-3.32-1.25,6.2,6.2,0,0,1-1.09-4.12V86.31l2.58-.45Z" transform="translate(0 0)"/><path class="j" d="M245.34,83.79c0,.16,0,.3,0,.42v.42a9.93,9.93,0,0,1-.54,3.27,14.58,14.58,0,0,1-1.47,3l-1.83-.54a8.92,8.92,0,0,0,1-2.73,15.26,15.26,0,0,0,.24-2.61c0-.22,0-.44,0-.65s0-.41,0-.61Z" transform="translate(0 0)"/><path class="j" d="M251,104.46a2.2,2.2,0,0,0,1.72-.65,2.42,2.42,0,0,0,.59-1.69,2.45,2.45,0,0,0-.24-1.13,3,3,0,0,0-.63-.82,4.72,4.72,0,0,0-.9-.65c-.34-.19-.68-.39-1-.61a7.23,7.23,0,0,1-1-.71,5.08,5.08,0,0,1-.86-.93,4.49,4.49,0,0,1-.6-1.2,5,5,0,0,1-.22-1.57A4.23,4.23,0,0,1,249,91.35a4.48,4.48,0,0,1,3.29-1.2,5.93,5.93,0,0,1,1.65.22,6.83,6.83,0,0,1,1.29.5l-.57,2.07a5,5,0,0,0-1.08-.45,4.36,4.36,0,0,0-1.17-.15,2.1,2.1,0,0,0-1.53.55,2.15,2.15,0,0,0-.57,1.61,2.34,2.34,0,0,0,.21,1,2.83,2.83,0,0,0,.55.78,5.6,5.6,0,0,0,.78.65c.29.2.6.39.92.57s.75.46,1.12.72a5,5,0,0,1,1,.91,4.36,4.36,0,0,1,.71,1.23,4.77,4.77,0,0,1,.27,1.7,4.6,4.6,0,0,1-1.22,3.33,4.7,4.7,0,0,1-3.55,1.26,6.62,6.62,0,0,1-2.16-.33,9.22,9.22,0,0,1-1.44-.6l.54-2.13a11.77,11.77,0,0,0,1.21.54A4.63,4.63,0,0,0,251,104.46Z" transform="translate(0 0)"/><path class="j" d="M267.27,90.54h4v2.22h-4v8.67a3.37,3.37,0,0,0,.58,2.26,2,2,0,0,0,1.57.65,3.19,3.19,0,0,0,1-.15,3.41,3.41,0,0,0,.79-.36l.52,2.07a5.15,5.15,0,0,1-2.62.72,4.17,4.17,0,0,1-3.31-1.25,6.2,6.2,0,0,1-1.09-4.12V86.31l2.58-.45Z" transform="translate(0 0)"/><path class="j" d="M274.49,106.29V83.46l2.58-.45v7.62a10,10,0,0,1,1.25-.3,7.73,7.73,0,0,1,1.36-.12,5.42,5.42,0,0,1,1.86.31,3.62,3.62,0,0,1,1.52,1.07,5.39,5.39,0,0,1,1,2,11.44,11.44,0,0,1,.37,3.17v9.51h-2.57V97a7.34,7.34,0,0,0-.61-3.42A2.34,2.34,0,0,0,279,92.49a7.36,7.36,0,0,0-1.95.3v13.5Z" transform="translate(0 0)"/><path class="j" d="M290.72,99.18a12.94,12.94,0,0,0,.21,2.08,5.27,5.27,0,0,0,.59,1.65,2.93,2.93,0,0,0,1.08,1.1,3.39,3.39,0,0,0,1.72.39,4.9,4.9,0,0,0,1.61-.26,7.67,7.67,0,0,0,1.06-.43l.48,2.07a5.71,5.71,0,0,1-1.3.58,6.73,6.73,0,0,1-2.18.32,5.82,5.82,0,0,1-2.77-.6,4.92,4.92,0,0,1-1.83-1.68,7.29,7.29,0,0,1-1-2.58,16.86,16.86,0,0,1-.3-3.3q0-4.35,1.44-6.36a4.47,4.47,0,0,1,3.81-2,4,4,0,0,1,3.78,2,11.8,11.8,0,0,1,1.11,5.64v.67c0,.23,0,.47,0,.71Zm2.61-6.84a2,2,0,0,0-1.87,1.29,9.8,9.8,0,0,0-.71,3.45h4.77a10.77,10.77,0,0,0-.45-3.47A1.71,1.71,0,0,0,293.33,92.34Z" transform="translate(0 0)"/><path class="j" d="M312,106.59a4.35,4.35,0,0,1-3.18-1.1,4.71,4.71,0,0,1-1-3.28V83.46L310.4,83v19.26a2.22,2.22,0,0,0,.42,1.51,2.52,2.52,0,0,0,1.47.65Z" transform="translate(0 0)"/><path class="j" d="M315.41,90.87a9.64,9.64,0,0,1,1.65-.53,8.65,8.65,0,0,1,1.89-.19,4.65,4.65,0,0,1,3.42,1.3,5.52,5.52,0,0,1,1.32,4.07V106a20,20,0,0,1-2.2.48,14,14,0,0,1-2.21.18,7.31,7.31,0,0,1-2-.27,4.25,4.25,0,0,1-2.78-2.39,5.31,5.31,0,0,1-.42-2.23,5.66,5.66,0,0,1,.38-2.15,4.26,4.26,0,0,1,1-1.53,4.38,4.38,0,0,1,1.56-.93,5.86,5.86,0,0,1,2-.31,11.25,11.25,0,0,1,2.19.24V95.61a3.45,3.45,0,0,0-.67-2.43,2.6,2.6,0,0,0-1.94-.69,6,6,0,0,0-1.3.13,7.21,7.21,0,0,0-1.31.44Zm1.23,10.83a2.64,2.64,0,0,0,.72,2,2.91,2.91,0,0,0,2,.66,8.33,8.33,0,0,0,1.77-.21v-5a6.85,6.85,0,0,0-1.77-.24,4.21,4.21,0,0,0-1.08.13,2.23,2.23,0,0,0-.88.45,2.09,2.09,0,0,0-.59.84A3.66,3.66,0,0,0,316.64,101.7Z" transform="translate(0 0)"/><path class="j" d="M328.19,91a21.21,21.21,0,0,1,2.4-.56,13.84,13.84,0,0,1,2.37-.22,6.81,6.81,0,0,1,2.13.31,3.75,3.75,0,0,1,1.64,1.07,5.14,5.14,0,0,1,1,2,11.44,11.44,0,0,1,.37,3.17v9.51h-2.58V97a7.36,7.36,0,0,0-.6-3.42,2.34,2.34,0,0,0-2.25-1.08,7.36,7.36,0,0,0-2,.3v13.5h-2.58Z" transform="translate(0 0)"/><path class="j" d="M352,105.84a8.06,8.06,0,0,1-.43,2.83,5,5,0,0,1-1.19,1.88,4.53,4.53,0,0,1-1.75,1,6.87,6.87,0,0,1-2.15.33,9,9,0,0,1-1.92-.21,7.14,7.14,0,0,1-1.77-.63l.54-2.16a6.93,6.93,0,0,0,1.32.54,5.48,5.48,0,0,0,1.62.24,3.12,3.12,0,0,0,2.31-.84,4,4,0,0,0,.84-2.88v-.75a6.42,6.42,0,0,1-1,.34,5.08,5.08,0,0,1-1.23.14,4.61,4.61,0,0,1-4.12-1.94,9.72,9.72,0,0,1-1.31-5.47,15.41,15.41,0,0,1,.35-3.41,7.38,7.38,0,0,1,1.08-2.58,4.73,4.73,0,0,1,1.9-1.62,6.62,6.62,0,0,1,2.85-.55,10.54,10.54,0,0,1,2.18.22A10.12,10.12,0,0,1,352,91Zm-2.58-13.2a5.1,5.1,0,0,0-.81-.17,6.24,6.24,0,0,0-.72,0,2.82,2.82,0,0,0-2.62,1.38,9.17,9.17,0,0,0-.83,4.5,7.2,7.2,0,0,0,.81,4,2.66,2.66,0,0,0,2.31,1.16,3.93,3.93,0,0,0,1-.12,4.43,4.43,0,0,0,.88-.33Z" transform="translate(0 0)"/><path class="j" d="M366.41,105.84a7.78,7.78,0,0,1-.94.28q-.56.13-1.17.24t-1.23.18a9.51,9.51,0,0,1-1.13.08,8.34,8.34,0,0,1-2.25-.29,3.89,3.89,0,0,1-1.74-1,4.74,4.74,0,0,1-1.11-2,10.62,10.62,0,0,1-.39-3.13V90.54H359v9.6a5.6,5.6,0,0,0,.71,3.25,2.5,2.5,0,0,0,2.14,1c.32,0,.64,0,1,0a5.22,5.22,0,0,0,1-.19V90.54h2.58Z" transform="translate(0 0)"/><path class="j" d="M371.3,90.87a9.64,9.64,0,0,1,1.65-.53,8.65,8.65,0,0,1,1.89-.19,4.65,4.65,0,0,1,3.42,1.3,5.52,5.52,0,0,1,1.32,4.07V106a20,20,0,0,1-2.2.48,14,14,0,0,1-2.21.18,7.31,7.31,0,0,1-2-.27,4.25,4.25,0,0,1-2.78-2.39,5.31,5.31,0,0,1-.42-2.23,5.66,5.66,0,0,1,.38-2.15,4.26,4.26,0,0,1,1-1.53,4.38,4.38,0,0,1,1.56-.93,5.86,5.86,0,0,1,1.95-.31,11.25,11.25,0,0,1,2.19.24V95.61a3.45,3.45,0,0,0-.67-2.43,2.6,2.6,0,0,0-1.94-.69,6,6,0,0,0-1.3.13,7.21,7.21,0,0,0-1.31.44Zm1.23,10.83a2.64,2.64,0,0,0,.72,2,2.91,2.91,0,0,0,2,.66,8.33,8.33,0,0,0,1.77-.21v-5a6.85,6.85,0,0,0-1.77-.24,4.21,4.21,0,0,0-1.08.13,2.23,2.23,0,0,0-.88.45,2.09,2.09,0,0,0-.59.84A3.66,3.66,0,0,0,372.53,101.7Z" transform="translate(0 0)"/><path class="j" d="M393.44,105.84a8.06,8.06,0,0,1-.43,2.83,5,5,0,0,1-1.19,1.88,4.53,4.53,0,0,1-1.75,1,6.87,6.87,0,0,1-2.15.33,9,9,0,0,1-1.92-.21,7.14,7.14,0,0,1-1.77-.63l.54-2.16a6.93,6.93,0,0,0,1.32.54,5.48,5.48,0,0,0,1.62.24,3.12,3.12,0,0,0,2.31-.84,4,4,0,0,0,.84-2.88v-.75a6.42,6.42,0,0,1-1,.34,5.08,5.08,0,0,1-1.23.14,4.61,4.61,0,0,1-4.12-1.94,9.72,9.72,0,0,1-1.31-5.47,15.41,15.41,0,0,1,.35-3.41,7.38,7.38,0,0,1,1.08-2.58,4.73,4.73,0,0,1,1.9-1.62,6.62,6.62,0,0,1,2.85-.55,10.54,10.54,0,0,1,2.18.22,10.12,10.12,0,0,1,1.9.59Zm-2.58-13.2a5.1,5.1,0,0,0-.81-.17,6.24,6.24,0,0,0-.72,0,2.82,2.82,0,0,0-2.62,1.38,9.17,9.17,0,0,0-.83,4.5,7.2,7.2,0,0,0,.81,4,2.66,2.66,0,0,0,2.31,1.16,3.93,3.93,0,0,0,1-.12,4.43,4.43,0,0,0,.88-.33Z" transform="translate(0 0)"/><path class="j" d="M399.86,99.18a12.94,12.94,0,0,0,.21,2.08,5.27,5.27,0,0,0,.59,1.65,2.93,2.93,0,0,0,1.08,1.1,3.39,3.39,0,0,0,1.72.39,4.9,4.9,0,0,0,1.61-.26,7.67,7.67,0,0,0,1.06-.43l.48,2.07a5.71,5.71,0,0,1-1.3.58,6.73,6.73,0,0,1-2.18.32,5.82,5.82,0,0,1-2.77-.6,4.92,4.92,0,0,1-1.83-1.68,7.29,7.29,0,0,1-1-2.58,16.86,16.86,0,0,1-.3-3.3q0-4.35,1.44-6.36a4.47,4.47,0,0,1,3.81-2,4,4,0,0,1,3.78,2,11.8,11.8,0,0,1,1.11,5.64v.67c0,.23,0,.47,0,.71Zm2.61-6.84a2,2,0,0,0-1.87,1.29,9.8,9.8,0,0,0-.71,3.45h4.77a10.77,10.77,0,0,0-.45-3.47A1.71,1.71,0,0,0,402.47,92.34Z" transform="translate(0 0)"/><path class="j" d="M427.13,98.43a15.85,15.85,0,0,1-.33,3.37,8.15,8.15,0,0,1-1,2.6,4.9,4.9,0,0,1-1.71,1.68,4.81,4.81,0,0,1-2.45.6,4.67,4.67,0,0,1-4.18-2.28,8.16,8.16,0,0,1-1-2.6,17.32,17.32,0,0,1,0-6.73,8.34,8.34,0,0,1,1-2.63,4.8,4.8,0,0,1,1.72-1.69,4.87,4.87,0,0,1,2.46-.6,4.62,4.62,0,0,1,4.16,2.29,8.34,8.34,0,0,1,1,2.63A16,16,0,0,1,427.13,98.43Zm-2.7,0a18,18,0,0,0-.15-2.42,7.66,7.66,0,0,0-.48-1.89,3,3,0,0,0-.87-1.23,2,2,0,0,0-1.29-.43,2,2,0,0,0-1.3.43,3.23,3.23,0,0,0-.87,1.23A7.21,7.21,0,0,0,419,96a19.52,19.52,0,0,0,0,4.83,7,7,0,0,0,.5,1.88,3.23,3.23,0,0,0,.87,1.21,2,2,0,0,0,1.3.44,2,2,0,0,0,1.29-.44,3,3,0,0,0,.87-1.21,7.46,7.46,0,0,0,.48-1.88A17.8,17.8,0,0,0,424.43,98.43Z" transform="translate(0 0)"/><path class="j" d="M435.5,83a5.84,5.84,0,0,1,1.53.18,6,6,0,0,1,1.08.39l-.54,2a4,4,0,0,0-.87-.32,4.22,4.22,0,0,0-1-.1,2.41,2.41,0,0,0-1.14.24,1.69,1.69,0,0,0-.69.66,2.87,2.87,0,0,0-.33,1,8.26,8.26,0,0,0-.09,1.25v2.19h4.05v2.22h-4.05v13.53h-2.58V88.35a6.09,6.09,0,0,1,1.14-3.95A4.19,4.19,0,0,1,435.5,83Z" transform="translate(0 0)"/><path class="j" d="M448.49,90.66a5.36,5.36,0,0,1,1-.38,4.52,4.52,0,0,1,1.18-.13,5.1,5.1,0,0,1,2.52.58,4.66,4.66,0,0,1,1.71,1.65,7.93,7.93,0,0,1,1,2.58,16.86,16.86,0,0,1,.31,3.41q0,4.17-1.48,6.24a5.36,5.36,0,0,1-4.67,2.07,10.71,10.71,0,0,1-2.19-.23,10.13,10.13,0,0,1-1.92-.58V83.46l2.58-.45Zm0,13.53a5,5,0,0,0,.81.16,6.39,6.39,0,0,0,.72.05,2.85,2.85,0,0,0,2.6-1.4,9.3,9.3,0,0,0,.85-4.63,15.92,15.92,0,0,0-.21-2.82,5.68,5.68,0,0,0-.61-1.83,2.52,2.52,0,0,0-1-1,2.79,2.79,0,0,0-1.32-.3,3.79,3.79,0,0,0-1.86.48Z" transform="translate(0 0)"/><path class="j" d="M469.7,105.84a7.47,7.47,0,0,1-.95.28c-.37.09-.75.17-1.17.24l-1.22.18a9.51,9.51,0,0,1-1.13.08,8.34,8.34,0,0,1-2.25-.29,3.89,3.89,0,0,1-1.74-1,4.74,4.74,0,0,1-1.11-2,10.62,10.62,0,0,1-.39-3.13V90.54h2.58v9.6a5.6,5.6,0,0,0,.71,3.25,2.5,2.5,0,0,0,2.14,1c.32,0,.64,0,1,0a5.22,5.22,0,0,0,1-.19V90.54h2.58Z" transform="translate(0 0)"/><path class="j" d="M476.54,104.46a2.19,2.19,0,0,0,1.72-.65,2.42,2.42,0,0,0,.59-1.69,2.45,2.45,0,0,0-.24-1.13,3,3,0,0,0-.63-.82,4.72,4.72,0,0,0-.9-.65c-.34-.19-.68-.39-1-.61a7.23,7.23,0,0,1-1-.71,5.08,5.08,0,0,1-.86-.93,4.2,4.2,0,0,1-.59-1.2,4.68,4.68,0,0,1-.23-1.57,4.23,4.23,0,0,1,1.21-3.15,4.5,4.5,0,0,1,3.29-1.2,5.93,5.93,0,0,1,1.65.22,6.83,6.83,0,0,1,1.29.5l-.57,2.07a5,5,0,0,0-1.08-.45,4.36,4.36,0,0,0-1.17-.15,2.1,2.1,0,0,0-1.53.55,2.15,2.15,0,0,0-.57,1.61,2.34,2.34,0,0,0,.21,1,2.83,2.83,0,0,0,.55.78,5.7,5.7,0,0,0,.79.65,10.07,10.07,0,0,0,.91.57c.38.22.75.46,1.13.72a5.27,5.27,0,0,1,1,.91,4.36,4.36,0,0,1,.71,1.23,4.77,4.77,0,0,1,.27,1.7,4.63,4.63,0,0,1-1.21,3.33,4.74,4.74,0,0,1-3.56,1.26,6.62,6.62,0,0,1-2.16-.33,9.22,9.22,0,0,1-1.44-.6l.54-2.13a11.77,11.77,0,0,0,1.21.54A4.63,4.63,0,0,0,476.54,104.46Z" transform="translate(0 0)"/><path class="j" d="M485.87,87.75a1.69,1.69,0,0,1-1.19-.47,1.61,1.61,0,0,1-.49-1.24,1.63,1.63,0,0,1,.49-1.25,1.68,1.68,0,0,1,1.19-.46A1.64,1.64,0,0,1,487.55,86a1.62,1.62,0,0,1-.5,1.24A1.66,1.66,0,0,1,485.87,87.75Zm1.29,18.54h-2.58V90.54h2.58Z" transform="translate(0 0)"/><path class="j" d="M491.84,91a21.21,21.21,0,0,1,2.4-.56,13.84,13.84,0,0,1,2.37-.22,6.81,6.81,0,0,1,2.13.31,3.72,3.72,0,0,1,1.63,1.07,5.14,5.14,0,0,1,1.05,2,11.41,11.41,0,0,1,.38,3.17v9.51h-2.58V97a7.36,7.36,0,0,0-.6-3.42,2.34,2.34,0,0,0-2.25-1.08,7.36,7.36,0,0,0-1.95.3v13.5h-2.58Z" transform="translate(0 0)"/><path class="j" d="M508.07,99.18a12.94,12.94,0,0,0,.21,2.08,5.27,5.27,0,0,0,.58,1.65,2.93,2.93,0,0,0,1.08,1.1,3.43,3.43,0,0,0,1.73.39,4.84,4.84,0,0,0,1.6-.26,7.93,7.93,0,0,0,1.07-.43l.48,2.07a5.83,5.83,0,0,1-1.31.58,6.66,6.66,0,0,1-2.17.32,5.86,5.86,0,0,1-2.78-.6,4.92,4.92,0,0,1-1.83-1.68,7.28,7.28,0,0,1-1-2.58,16.86,16.86,0,0,1-.3-3.3q0-4.35,1.44-6.36a4.47,4.47,0,0,1,3.81-2,4,4,0,0,1,3.78,2,11.8,11.8,0,0,1,1.11,5.64v.67c0,.23,0,.47,0,.71Zm2.61-6.84a2,2,0,0,0-1.88,1.29,9.82,9.82,0,0,0-.7,3.45h4.77a10.77,10.77,0,0,0-.45-3.47A1.71,1.71,0,0,0,510.68,92.34Z" transform="translate(0 0)"/><path class="j" d="M521.57,104.46a2.2,2.2,0,0,0,1.72-.65,2.42,2.42,0,0,0,.59-1.69,2.45,2.45,0,0,0-.24-1.13,3,3,0,0,0-.63-.82,4.72,4.72,0,0,0-.9-.65c-.34-.19-.68-.39-1-.61a7.23,7.23,0,0,1-1-.71,5.08,5.08,0,0,1-.86-.93,4.49,4.49,0,0,1-.6-1.2,5,5,0,0,1-.22-1.57,4.23,4.23,0,0,1,1.21-3.15,4.48,4.48,0,0,1,3.29-1.2,5.93,5.93,0,0,1,1.65.22,6.83,6.83,0,0,1,1.29.5l-.57,2.07a5,5,0,0,0-1.08-.45,4.36,4.36,0,0,0-1.17-.15,2.1,2.1,0,0,0-1.53.55,2.15,2.15,0,0,0-.57,1.61,2.34,2.34,0,0,0,.21,1,2.83,2.83,0,0,0,.55.78,5.6,5.6,0,0,0,.78.65c.29.2.6.39.92.57s.75.46,1.12.72a5,5,0,0,1,1,.91,4.36,4.36,0,0,1,.71,1.23,4.77,4.77,0,0,1,.27,1.7,4.6,4.6,0,0,1-1.22,3.33,4.7,4.7,0,0,1-3.55,1.26,6.62,6.62,0,0,1-2.16-.33,9.22,9.22,0,0,1-1.44-.6l.54-2.13a11.77,11.77,0,0,0,1.21.54A4.63,4.63,0,0,0,521.57,104.46Z" transform="translate(0 0)"/><path class="j" d="M531.8,104.46a2.2,2.2,0,0,0,1.72-.65,2.42,2.42,0,0,0,.59-1.69,2.45,2.45,0,0,0-.24-1.13,3,3,0,0,0-.63-.82,4.72,4.72,0,0,0-.9-.65c-.34-.19-.68-.39-1-.61a7.23,7.23,0,0,1-1-.71,5.08,5.08,0,0,1-.86-.93,4.49,4.49,0,0,1-.6-1.2,5,5,0,0,1-.22-1.57,4.23,4.23,0,0,1,1.21-3.15,4.48,4.48,0,0,1,3.29-1.2,5.93,5.93,0,0,1,1.65.22,6.83,6.83,0,0,1,1.29.5l-.57,2.07a5,5,0,0,0-1.08-.45,4.36,4.36,0,0,0-1.17-.15,2.1,2.1,0,0,0-1.53.55,2.15,2.15,0,0,0-.57,1.61,2.34,2.34,0,0,0,.21,1,2.83,2.83,0,0,0,.55.78,5.6,5.6,0,0,0,.78.65c.29.2.6.39.92.57s.75.46,1.12.72a5,5,0,0,1,1,.91,4.36,4.36,0,0,1,.71,1.23,4.77,4.77,0,0,1,.27,1.7,4.6,4.6,0,0,1-1.22,3.33,4.7,4.7,0,0,1-3.55,1.26,6.62,6.62,0,0,1-2.16-.33,9.22,9.22,0,0,1-1.44-.6l.54-2.13a11.77,11.77,0,0,0,1.21.54A4.63,4.63,0,0,0,531.8,104.46Z" transform="translate(0 0)"/><path class="j" d="M542.78,104.91a1.78,1.78,0,0,1-.5,1.23,1.68,1.68,0,0,1-1.3.54,1.64,1.64,0,0,1-1.29-.54,1.8,1.8,0,0,1-.48-1.23,1.84,1.84,0,0,1,.48-1.26,1.64,1.64,0,0,1,1.29-.54,1.68,1.68,0,0,1,1.3.54A1.81,1.81,0,0,1,542.78,104.91Z" transform="translate(0 0)"/><g class="k"><path class="l" d="M329.18,142.71c.13.59.27,1.21.42,1.87s.3,1.32.46,2,.33,1.28.49,1.89.33,1.17.48,1.67c.11-.55.23-1.17.33-1.84s.22-1.38.32-2.12.2-1.5.28-2.29.17-1.58.22-2.36h1.3q-.33,3-.75,5.46c-.28,1.67-.61,3.26-1,4.77H330.4c-.14-.48-.3-1-.48-1.61s-.34-1.2-.5-1.84-.33-1.27-.49-1.92-.3-1.28-.43-1.89c-.13.61-.27,1.24-.43,1.89s-.32,1.29-.48,1.92-.34,1.25-.51,1.84-.33,1.13-.48,1.61h-1.34q-.57-2.26-1-4.77c-.28-1.66-.54-3.48-.76-5.46h1.34c.06.78.13,1.57.22,2.35s.19,1.55.29,2.29.21,1.45.32,2.13.22,1.29.34,1.84c.15-.5.31-1.06.48-1.67s.33-1.24.49-1.89.32-1.31.47-2,.28-1.28.41-1.87Z" transform="translate(0 0)"/><path class="l" d="M339.27,141.5c.24.73.47,1.48.71,2.23s.45,1.55.67,2.37.45,1.71.67,2.63.44,1.93.66,3h-1.32l-.24-1.31c-.09-.43-.17-.87-.26-1.3h-3.22c-.1.43-.19.87-.27,1.3l-.24,1.31h-1.28c.22-1.07.44-2.07.67-3s.45-1.81.67-2.63.45-1.62.68-2.37.47-1.5.71-2.24Zm-.72,1.5c-.24.82-.47,1.65-.7,2.47s-.44,1.68-.65,2.54h2.68c-.2-.87-.41-1.71-.63-2.54S338.79,143.82,338.55,143Z" transform="translate(0 0)"/><path class="l" d="M344.52,141.64a8.81,8.81,0,0,1,2-.25,4.93,4.93,0,0,1,1.39.18,2.83,2.83,0,0,1,1.06.56,2.53,2.53,0,0,1,.69,1,4,4,0,0,1,.24,1.46,3.22,3.22,0,0,1-.4,1.72,2.59,2.59,0,0,1-1.1,1q.18.3.45.81c.18.34.37.71.56,1.12s.38.83.56,1.26.34.85.46,1.24h-1.33c-.11-.29-.25-.63-.41-1s-.33-.75-.5-1.12-.36-.72-.53-1.06-.33-.63-.47-.86l-.49,0-.5,0h-.37v4h-1.3Zm1.3,5h.56a2.37,2.37,0,0,0,1.57-.46,2,2,0,0,0,.54-1.61,3,3,0,0,0-.14-1,1.36,1.36,0,0,0-.4-.62,1.5,1.5,0,0,0-.62-.34,2.87,2.87,0,0,0-.8-.1c-.26,0-.49,0-.71,0Z" transform="translate(0 0)"/><path class="l" d="M353,141.64a8.81,8.81,0,0,1,2-.25,5,5,0,0,1,1.39.18,2.83,2.83,0,0,1,1.06.56,2.63,2.63,0,0,1,.69,1,4,4,0,0,1,.24,1.46,3.22,3.22,0,0,1-.41,1.72,2.56,2.56,0,0,1-1.09,1l.44.81c.19.34.37.71.57,1.12s.37.83.56,1.26.33.85.46,1.24h-1.34c-.1-.29-.24-.63-.4-1s-.33-.75-.51-1.12-.35-.72-.53-1.06-.33-.63-.47-.86l-.48,0-.5,0h-.37v4H353Zm1.3,5h.56a2.32,2.32,0,0,0,1.56-.46,2,2,0,0,0,.55-1.61,3,3,0,0,0-.14-1,1.55,1.55,0,0,0-.4-.62,1.5,1.5,0,0,0-.62-.34,2.87,2.87,0,0,0-.8-.1c-.26,0-.5,0-.71,0Z" transform="translate(0 0)"/><path class="l" d="M360.67,151.73V141.5h4.59v1.13H362v3.18H365v1.11H362v3.68h3.49v1.13Z" transform="translate(0 0)"/><path class="l" d="M372.71,151.73c-.24-.58-.51-1.21-.81-1.88s-.61-1.35-.94-2-.67-1.36-1-2-.69-1.3-1-1.88v7.84h-1.24V141.5h1.11c.37.61.73,1.23,1.08,1.87s.68,1.28,1,1.9.61,1.24.89,1.85.54,1.18.78,1.72V141.5h1.24v10.23Z" transform="translate(0 0)"/><path class="l" d="M378.24,141.64c.35-.07.7-.14,1.06-.18a9.61,9.61,0,0,1,1.07-.07,5.73,5.73,0,0,1,1.26.13,2.91,2.91,0,0,1,1.05.43,2.33,2.33,0,0,1,.74.79,2.58,2.58,0,0,1,.27,1.24,2.65,2.65,0,0,1-.39,1.5,2.32,2.32,0,0,1-1,.86,3,3,0,0,1,1.24.9,2.63,2.63,0,0,1,.48,1.67,3.07,3.07,0,0,1-.26,1.35,2.26,2.26,0,0,1-.73.89,3,3,0,0,1-1.13.5,5.8,5.8,0,0,1-1.43.16,10,10,0,0,1-1.08-.06q-.56-.06-1.17-.18Zm1.33,4.21h.92q1.83,0,1.83-1.65a2.08,2.08,0,0,0-.16-.85,1.34,1.34,0,0,0-.41-.52,1.38,1.38,0,0,0-.58-.25,3.13,3.13,0,0,0-.7-.08l-.45,0-.45,0Zm0,1.07v3.69a5.52,5.52,0,0,0,.55.07l.54,0a4,4,0,0,0,.79-.08,1.72,1.72,0,0,0,.64-.3,1.48,1.48,0,0,0,.43-.57,2.33,2.33,0,0,0,.15-.89,2.06,2.06,0,0,0-.49-1.44,2.08,2.08,0,0,0-1.55-.51Z" transform="translate(0 0)"/><path class="l" d="M389.44,152a2.7,2.7,0,0,1-2.14-.82,3.81,3.81,0,0,1-.72-2.57V141.5h1.33v6.95a3.49,3.49,0,0,0,.34,1.75,1.28,1.28,0,0,0,1.22.59,1.3,1.3,0,0,0,1.25-.6,3.68,3.68,0,0,0,.33-1.74V141.5h1.33v7.07a3.78,3.78,0,0,1-.74,2.56A2.79,2.79,0,0,1,389.44,152Z" transform="translate(0 0)"/><path class="l" d="M395.1,151.73V141.5h4.59v1.13h-3.27v3.22h2.9V147h-2.9v4.77Z" transform="translate(0 0)"/><path class="l" d="M401.41,151.73V141.5H406v1.13h-3.26v3.22h2.89V147h-2.89v4.77Z" transform="translate(0 0)"/><path class="l" d="M407.73,151.73V141.5h4.59v1.13h-3.26v3.18H412v1.11h-2.95v3.68h3.49v1.13Z" transform="translate(0 0)"/><path class="l" d="M419.59,141.5v1.13h-2.27v9.1H416v-9.1h-2.27V141.5Z" transform="translate(0 0)"/></g><g class="m"><g class="k"><path class="l" d="M422.36,146.71h2.73v1.2h-2.73Z" transform="translate(0 0)"/></g><g class="m"><g class="k"><path class="n" d="M432.85,152a3.18,3.18,0,0,1-2.76-1.35,7.2,7.2,0,0,1-1-4.15,8.84,8.84,0,0,1,.28-2.42,4.38,4.38,0,0,1,.76-1.61,2.83,2.83,0,0,1,1.15-.9,3.77,3.77,0,0,1,1.44-.27,4.21,4.21,0,0,1,1.21.17,3,3,0,0,1,.92.42l-.4,1.11a3.18,3.18,0,0,0-.76-.38,2.69,2.69,0,0,0-.94-.15,1.8,1.8,0,0,0-1.71,1,6.72,6.72,0,0,0-.53,3.05,7.42,7.42,0,0,0,.56,3.21,1.92,1.92,0,0,0,1.83,1.12,2.69,2.69,0,0,0,1-.15,4.22,4.22,0,0,0,.73-.38l.37,1a3,3,0,0,1-.89.46A3.86,3.86,0,0,1,432.85,152Z" transform="translate(0 0)"/><path class="n" d="M436.5,151.73V140.49l1.27-.22V144a3.42,3.42,0,0,1,.61-.14,3.79,3.79,0,0,1,.67-.06,2.77,2.77,0,0,1,.92.15,1.73,1.73,0,0,1,.74.53,2.55,2.55,0,0,1,.5,1,5.36,5.36,0,0,1,.19,1.56v4.68h-1.27v-4.58a3.57,3.57,0,0,0-.3-1.68,1.14,1.14,0,0,0-1.1-.53,3.52,3.52,0,0,0-1,.15v6.64Z" transform="translate(0 0)"/><path class="n" d="M443.66,144.14a4.8,4.8,0,0,1,.81-.26,4.45,4.45,0,0,1,.93-.09,2.27,2.27,0,0,1,1.68.64,2.72,2.72,0,0,1,.65,2v5.14a9.58,9.58,0,0,1-1.09.24,6.65,6.65,0,0,1-1.08.09,3.61,3.61,0,0,1-1-.14,2,2,0,0,1-1.36-1.17,2.6,2.6,0,0,1-.21-1.1,2.68,2.68,0,0,1,.19-1.06,2,2,0,0,1,.51-.75,2.1,2.1,0,0,1,.76-.46,3,3,0,0,1,1-.15,5.35,5.35,0,0,1,1.08.11v-.71a1.68,1.68,0,0,0-.33-1.19,1.26,1.26,0,0,0-1-.34,3.34,3.34,0,0,0-.65.06,4.06,4.06,0,0,0-.64.22Zm.6,5.33a1.3,1.3,0,0,0,.36,1,1.45,1.45,0,0,0,1,.32,4.08,4.08,0,0,0,.87-.1v-2.47a3.37,3.37,0,0,0-.87-.12,2.19,2.19,0,0,0-.53.07,1.07,1.07,0,0,0-.44.22,1.09,1.09,0,0,0-.29.42A1.74,1.74,0,0,0,444.26,149.47Z" transform="translate(0 0)"/><path class="n" d="M450.5,142.6a.79.79,0,0,1-.82-.84.81.81,0,0,1,.24-.61.83.83,0,0,1,.58-.23.86.86,0,0,1,.59.23.81.81,0,0,1,.24.61.83.83,0,0,1-.24.62A.85.85,0,0,1,450.5,142.6Zm.64,9.13h-1.27V144h1.27Z" transform="translate(0 0)"/><path class="n" d="M456.75,145.13a2.74,2.74,0,0,0-2.08,0v6.61H453.4v-7.41a4.67,4.67,0,0,1,1-.35,5.09,5.09,0,0,1,1.21-.14,4.17,4.17,0,0,1,.71,0,2.43,2.43,0,0,1,.67.16Z" transform="translate(0 0)"/><path class="n" d="M458.31,144.2a8.36,8.36,0,0,1,1.12-.27,5.63,5.63,0,0,1,1.11-.11,3.1,3.1,0,0,1,.94.13,1.87,1.87,0,0,1,.74.44,4,4,0,0,1,.83-.41,2.74,2.74,0,0,1,1-.16,3,3,0,0,1,1,.15,1.62,1.62,0,0,1,.74.53,2.55,2.55,0,0,1,.49,1,5.77,5.77,0,0,1,.18,1.56v4.68h-1.27v-4.58a3.91,3.91,0,0,0-.27-1.68,1,1,0,0,0-1-.53,1.63,1.63,0,0,0-.57.1,2.31,2.31,0,0,0-.54.28,4,4,0,0,1,.18.77,7.06,7.06,0,0,1,.06,1v4.68h-1.27v-4.58a3.91,3.91,0,0,0-.27-1.68,1,1,0,0,0-1-.53,2.94,2.94,0,0,0-.87.15v6.64h-1.27Z" transform="translate(0 0)"/><path class="n" d="M469,144.14a5.23,5.23,0,0,1,.82-.26,4.45,4.45,0,0,1,.93-.09,2.27,2.27,0,0,1,1.68.64,2.72,2.72,0,0,1,.65,2v5.14a10.08,10.08,0,0,1-1.09.24,6.74,6.74,0,0,1-1.08.09,3.55,3.55,0,0,1-1-.14,2,2,0,0,1-1.36-1.17,2.6,2.6,0,0,1-.21-1.1,2.68,2.68,0,0,1,.19-1.06,2,2,0,0,1,.51-.75,2.1,2.1,0,0,1,.76-.46,3,3,0,0,1,1-.15,5.35,5.35,0,0,1,1.08.11v-.71a1.68,1.68,0,0,0-.33-1.19,1.26,1.26,0,0,0-1-.34,3.31,3.31,0,0,0-.64.06,4.06,4.06,0,0,0-.64.22Zm.61,5.33a1.33,1.33,0,0,0,.35,1,1.49,1.49,0,0,0,1,.32,4.08,4.08,0,0,0,.87-.1v-2.47a3.37,3.37,0,0,0-.87-.12,2.19,2.19,0,0,0-.53.07,1.07,1.07,0,0,0-.44.22,1.09,1.09,0,0,0-.29.42A1.74,1.74,0,0,0,469.57,149.47Z" transform="translate(0 0)"/><path class="n" d="M475.18,144.2a9.33,9.33,0,0,1,1.18-.27,6.2,6.2,0,0,1,1.16-.11,3.41,3.41,0,0,1,1.05.15,1.77,1.77,0,0,1,.81.53,2.43,2.43,0,0,1,.51,1,5.36,5.36,0,0,1,.19,1.56v4.68h-1.27v-4.58a3.57,3.57,0,0,0-.3-1.68,1.14,1.14,0,0,0-1.1-.53,3.52,3.52,0,0,0-1,.15v6.64h-1.27Z" transform="translate(0 0)"/><path class="n" d="M491,146.52a9.81,9.81,0,0,1-.28,1.72,7.08,7.08,0,0,1-.53,1.43,9.84,9.84,0,0,1,.62,1,9,9,0,0,1,.47,1H490c-.13-.31-.3-.66-.5-1a3.65,3.65,0,0,1-1.05.86,2.38,2.38,0,0,1-1.17.31,3,3,0,0,1-1.26-.24,2.47,2.47,0,0,1-.85-.61,2.42,2.42,0,0,1-.49-.85,3.13,3.13,0,0,1-.16-.93,3.69,3.69,0,0,1,.14-1,3.81,3.81,0,0,1,.37-.84,4.42,4.42,0,0,1,.53-.68,5.77,5.77,0,0,1,.65-.57,8.72,8.72,0,0,1-.68-1.19,3.29,3.29,0,0,1-.28-1.37,2.37,2.37,0,0,1,.57-1.66,2,2,0,0,1,1.55-.63,2.32,2.32,0,0,1,.92.17,1.62,1.62,0,0,1,.62.47,1.65,1.65,0,0,1,.36.68,3,3,0,0,1,.11.81,2.94,2.94,0,0,1-.14.91,3,3,0,0,1-.37.74,3.48,3.48,0,0,1-.53.62c-.2.19-.41.37-.61.53l1.75,2.49a8.85,8.85,0,0,0,.28-1.05,11.23,11.23,0,0,0,.18-1.26Zm-3.67,4.27a1.54,1.54,0,0,0,.83-.25,2.46,2.46,0,0,0,.75-.73l-2.1-2.88a3.58,3.58,0,0,0-.72.92,2.61,2.61,0,0,0-.28,1.28,1.86,1.86,0,0,0,.38,1.19A1.41,1.41,0,0,0,487.34,150.79Zm-.93-7.25a2.11,2.11,0,0,0,.21.93,5.87,5.87,0,0,0,.53.88,4.07,4.07,0,0,0,.77-.84,1.92,1.92,0,0,0,.32-1.12,1.24,1.24,0,0,0-.24-.84.89.89,0,0,0-1.36,0A1.65,1.65,0,0,0,486.41,143.54Z" transform="translate(0 0)"/><path class="n" d="M499,152a3.18,3.18,0,0,1-2.76-1.35,7.2,7.2,0,0,1-1-4.15,8.84,8.84,0,0,1,.28-2.42,4.38,4.38,0,0,1,.76-1.61,2.77,2.77,0,0,1,1.15-.9,3.77,3.77,0,0,1,1.44-.27,4.21,4.21,0,0,1,1.21.17,3,3,0,0,1,.92.42l-.4,1.11a3.18,3.18,0,0,0-.76-.38,2.69,2.69,0,0,0-.94-.15,1.8,1.8,0,0,0-1.71,1,6.72,6.72,0,0,0-.53,3.05,7.42,7.42,0,0,0,.56,3.21,1.91,1.91,0,0,0,1.83,1.12,2.69,2.69,0,0,0,1-.15,4.22,4.22,0,0,0,.73-.38l.37,1a3,3,0,0,1-.89.46A3.86,3.86,0,0,1,499,152Z" transform="translate(0 0)"/><path class="n" d="M502.69,151.73V141.5h4.59v1.13H504v3.18h3v1.11h-3v3.68h3.5v1.13Z" transform="translate(0 0)"/><path class="n" d="M516.57,146.62a10.41,10.41,0,0,1-.21,2.18,4.86,4.86,0,0,1-.67,1.69,3.15,3.15,0,0,1-1.13,1.08,3.24,3.24,0,0,1-1.62.39,3.13,3.13,0,0,1-2.75-1.47,5.29,5.29,0,0,1-.67-1.69,10.91,10.91,0,0,1,0-4.36,5.35,5.35,0,0,1,.67-1.7,3.3,3.3,0,0,1,1.14-1.09,3.17,3.17,0,0,1,1.61-.39,3.08,3.08,0,0,1,2.75,1.48,4.92,4.92,0,0,1,.67,1.7A10.47,10.47,0,0,1,516.57,146.62Zm-1.41,0a11.15,11.15,0,0,0-.12-1.7,4.67,4.67,0,0,0-.39-1.32,2.12,2.12,0,0,0-.68-.86,1.85,1.85,0,0,0-2.05,0,2.23,2.23,0,0,0-.69.86,4.67,4.67,0,0,0-.39,1.32,11.18,11.18,0,0,0,0,3.4,4.67,4.67,0,0,0,.39,1.32,2.35,2.35,0,0,0,.69.85,1.9,1.9,0,0,0,2.05,0,2.23,2.23,0,0,0,.68-.85,4.67,4.67,0,0,0,.39-1.32A11.05,11.05,0,0,0,515.16,146.62Z" transform="translate(0 0)"/><path class="n" d="M520,150.05a1.79,1.79,0,0,1,0,.23v.23a6.06,6.06,0,0,1-.27,1.81,8.68,8.68,0,0,1-.72,1.69l-.9-.27a5.13,5.13,0,0,0,.48-1.53,9.44,9.44,0,0,0,.12-1.45c0-.13,0-.25,0-.37s0-.23,0-.34Z" transform="translate(0 0)"/><path class="n" d="M525.18,141.64c.34-.07.69-.14,1.05-.18a9.77,9.77,0,0,1,1.07-.07,5.66,5.66,0,0,1,1.26.13,3,3,0,0,1,1.06.43,2.31,2.31,0,0,1,.73.79,2.58,2.58,0,0,1,.27,1.24,2.73,2.73,0,0,1-.38,1.5,2.41,2.41,0,0,1-1,.86,3,3,0,0,1,1.24.9,2.63,2.63,0,0,1,.49,1.67,3.22,3.22,0,0,1-.26,1.35,2.35,2.35,0,0,1-.73.89,3.07,3.07,0,0,1-1.13.5,5.94,5.94,0,0,1-1.44.16,10.34,10.34,0,0,1-1.08-.06c-.37,0-.76-.1-1.16-.18Zm1.32,4.21h.92q1.83,0,1.83-1.65a1.92,1.92,0,0,0-.16-.85,1.32,1.32,0,0,0-.4-.52,1.44,1.44,0,0,0-.58-.25,3.29,3.29,0,0,0-.71-.08l-.45,0-.45,0Zm0,1.07v3.69c.19,0,.38.06.56.07l.54,0a4,4,0,0,0,.78-.08,1.72,1.72,0,0,0,.64-.3,1.39,1.39,0,0,0,.43-.57,2.33,2.33,0,0,0,.15-.89,2,2,0,0,0-.49-1.44,2.06,2.06,0,0,0-1.54-.51Z" transform="translate(0 0)"/><path class="n" d="M533.68,148.23a6.31,6.31,0,0,0,.1,1,2.67,2.67,0,0,0,.29.81,1.45,1.45,0,0,0,.53.54,1.65,1.65,0,0,0,.85.19,2.52,2.52,0,0,0,.79-.12,4.48,4.48,0,0,0,.52-.22l.24,1a2.63,2.63,0,0,1-.64.29,3.4,3.4,0,0,1-1.07.16,2.83,2.83,0,0,1-1.37-.3,2.39,2.39,0,0,1-.9-.83,3.37,3.37,0,0,1-.49-1.27,8.12,8.12,0,0,1-.15-1.62,5.38,5.38,0,0,1,.71-3.13,2.19,2.19,0,0,1,1.87-1,1.94,1.94,0,0,1,1.86,1,5.83,5.83,0,0,1,.55,2.77v.33c0,.12,0,.23,0,.35Zm1.28-3.37a1,1,0,0,0-.92.64,4.87,4.87,0,0,0-.35,1.7H536a5.55,5.55,0,0,0-.22-1.71A.85.85,0,0,0,535,144.86Z" transform="translate(0 0)"/><path class="n" d="M542.49,145.13a2.74,2.74,0,0,0-2.08,0v6.61h-1.27v-7.41a4.67,4.67,0,0,1,1-.35,5.11,5.11,0,0,1,1.22-.14,4.12,4.12,0,0,1,.7,0,2.43,2.43,0,0,1,.67.16Z" transform="translate(0 0)"/><path class="n" d="M548.85,144c-.42.71-.81,1.35-1.19,1.94s-.76,1.13-1.13,1.64a11,11,0,0,1,.72.94c.25.34.49.7.71,1.07s.44.74.64,1.11.36.72.5,1h-1.39q-.23-.48-.51-1c-.2-.35-.41-.7-.62-1s-.44-.67-.65-1a8.3,8.3,0,0,0-.61-.77v3.8h-1.27V140.49l1.27-.22v7c.18-.24.36-.5.56-.8l.6-.89.56-.88c.17-.28.32-.54.43-.76Z" transform="translate(0 0)"/><path class="n" d="M551.45,150.83a1,1,0,0,0,.84-.32,1.33,1.33,0,0,0,.17-1.38,1.39,1.39,0,0,0-.31-.41,2.17,2.17,0,0,0-.44-.32c-.17-.09-.33-.19-.5-.3a4,4,0,0,1-.49-.35,2.06,2.06,0,0,1-.42-.46,2.16,2.16,0,0,1-.29-.59,2.27,2.27,0,0,1-.11-.77,2.06,2.06,0,0,1,.59-1.55,2.18,2.18,0,0,1,1.62-.59,2.69,2.69,0,0,1,.81.11,3.08,3.08,0,0,1,.64.24l-.28,1a2.45,2.45,0,0,0-.54-.22,2,2,0,0,0-.57-.08,1,1,0,0,0-.75.28,1,1,0,0,0-.28.79,1.13,1.13,0,0,0,.1.51,1.46,1.46,0,0,0,.27.38,3.17,3.17,0,0,0,.39.32,4.92,4.92,0,0,0,.45.28l.55.35a3,3,0,0,1,.49.45,2.4,2.4,0,0,1,.34.61,2.3,2.3,0,0,1,.14.84,2.24,2.24,0,0,1-.6,1.63,2.3,2.3,0,0,1-1.75.63,3.18,3.18,0,0,1-1.06-.17,4.57,4.57,0,0,1-.71-.29l.26-1.05a4.61,4.61,0,0,0,.6.26A2.24,2.24,0,0,0,551.45,150.83Z" transform="translate(0 0)"/><path class="n" d="M555.3,151.73V140.49l1.27-.22V144a3.42,3.42,0,0,1,.61-.14,3.71,3.71,0,0,1,.67-.06,2.71,2.71,0,0,1,.91.15,1.7,1.7,0,0,1,.75.53,2.55,2.55,0,0,1,.5,1,5.73,5.73,0,0,1,.19,1.56v4.68h-1.27v-4.58a3.57,3.57,0,0,0-.3-1.68,1.15,1.15,0,0,0-1.1-.53,3.52,3.52,0,0,0-1,.15v6.64Z" transform="translate(0 0)"/><path class="n" d="M563,142.6a.81.81,0,0,1-.58-.22.8.8,0,0,1-.25-.62.78.78,0,0,1,.25-.61.85.85,0,0,1,1.16,0,.78.78,0,0,1,.25.61.8.8,0,0,1-.25.62A.81.81,0,0,1,563,142.6Zm.63,9.13h-1.26V144h1.26Z" transform="translate(0 0)"/><path class="n" d="M569.21,145.13a2.57,2.57,0,0,0-1.06-.21,2.69,2.69,0,0,0-1,.2v6.61h-1.27v-7.41a5.12,5.12,0,0,1,1-.35,5.17,5.17,0,0,1,1.22-.14,4.24,4.24,0,0,1,.71,0,2.28,2.28,0,0,1,.66.16Z" transform="translate(0 0)"/><path class="n" d="M571.65,148.23a6.31,6.31,0,0,0,.1,1,2.67,2.67,0,0,0,.29.81,1.45,1.45,0,0,0,.53.54,1.65,1.65,0,0,0,.85.19,2.52,2.52,0,0,0,.79-.12,4.48,4.48,0,0,0,.52-.22l.24,1a2.63,2.63,0,0,1-.64.29,3.4,3.4,0,0,1-1.07.16,2.83,2.83,0,0,1-1.37-.3,2.39,2.39,0,0,1-.9-.83,3.37,3.37,0,0,1-.49-1.27,8.12,8.12,0,0,1-.15-1.62,5.38,5.38,0,0,1,.71-3.13,2.19,2.19,0,0,1,1.87-1,1.94,1.94,0,0,1,1.86,1,5.71,5.71,0,0,1,.55,2.77v.33c0,.12,0,.23,0,.35Zm1.28-3.37a1,1,0,0,0-.92.64,4.87,4.87,0,0,0-.35,1.7H574a5.26,5.26,0,0,0-.22-1.71A.85.85,0,0,0,572.93,144.86Z" transform="translate(0 0)"/><path class="n" d="M586.1,141.5h1.32v10.23H586.1V147h-3.37v4.75H581.4V141.5h1.33v4.32h3.37Z" transform="translate(0 0)"/><path class="n" d="M589.87,144.14a5.23,5.23,0,0,1,.82-.26,4.45,4.45,0,0,1,.93-.09,2.3,2.3,0,0,1,1.68.64,2.72,2.72,0,0,1,.65,2v5.14a10.08,10.08,0,0,1-1.09.24,6.74,6.74,0,0,1-1.08.09,3.55,3.55,0,0,1-1-.14,2.23,2.23,0,0,1-.81-.42,2.09,2.09,0,0,1-.55-.75,2.6,2.6,0,0,1-.21-1.1,2.87,2.87,0,0,1,.18-1.06,2.26,2.26,0,0,1,.51-.75,2.23,2.23,0,0,1,.77-.46,3,3,0,0,1,1-.15,5.49,5.49,0,0,1,1.08.11v-.71a1.68,1.68,0,0,0-.33-1.19,1.28,1.28,0,0,0-1-.34,3.31,3.31,0,0,0-.64.06,4.06,4.06,0,0,0-.64.22Zm.61,5.33a1.33,1.33,0,0,0,.35,1,1.47,1.47,0,0,0,1,.32,4.08,4.08,0,0,0,.87-.1v-2.47a3.37,3.37,0,0,0-.87-.12,2.19,2.19,0,0,0-.53.07,1.07,1.07,0,0,0-.44.22,1.09,1.09,0,0,0-.29.42A1.74,1.74,0,0,0,590.48,149.47Z" transform="translate(0 0)"/><path class="n" d="M597.27,144h2v1.09h-2v4.27a1.72,1.72,0,0,0,.28,1.12,1,1,0,0,0,.78.31,1.51,1.51,0,0,0,.48-.07,1.76,1.76,0,0,0,.39-.18l.25,1a2.46,2.46,0,0,1-1.28.36,2.05,2.05,0,0,1-1.63-.62,3,3,0,0,1-.54-2V141.9l1.27-.23Z" transform="translate(0 0)"/><path class="n" d="M601,151.73V140.49l1.27-.22V144a3.64,3.64,0,0,1,.61-.14,3.79,3.79,0,0,1,.67-.06,2.77,2.77,0,0,1,.92.15,1.73,1.73,0,0,1,.74.53,2.56,2.56,0,0,1,.51,1,5.77,5.77,0,0,1,.18,1.56v4.68h-1.27v-4.58a3.72,3.72,0,0,0-.29-1.68,1.17,1.17,0,0,0-1.11-.53,3.52,3.52,0,0,0-1,.15v6.64Z" transform="translate(0 0)"/><path class="n" d="M608.16,144.14a5.11,5.11,0,0,1,.81-.26,4.59,4.59,0,0,1,.93-.09,2.27,2.27,0,0,1,1.68.64,2.68,2.68,0,0,1,.65,2v5.14a9.41,9.41,0,0,1-1.08.24,6.77,6.77,0,0,1-1.09.09,3.53,3.53,0,0,1-1-.14,2.36,2.36,0,0,1-.82-.42,2.21,2.21,0,0,1-.55-.75,2.61,2.61,0,0,1-.2-1.1,2.87,2.87,0,0,1,.18-1.06,2,2,0,0,1,.51-.75,2.06,2.06,0,0,1,.77-.46,2.93,2.93,0,0,1,1-.15,5.32,5.32,0,0,1,1.07.11v-.71a1.68,1.68,0,0,0-.33-1.19,1.26,1.26,0,0,0-.95-.34,3.24,3.24,0,0,0-.64.06,3.84,3.84,0,0,0-.65.22Zm.6,5.33a1.3,1.3,0,0,0,.36,1,1.45,1.45,0,0,0,1,.32,3.94,3.94,0,0,0,.87-.1v-2.47a3.26,3.26,0,0,0-.87-.12,2.26,2.26,0,0,0-.53.07,1,1,0,0,0-.43.22,1,1,0,0,0-.29.42A1.73,1.73,0,0,0,608.76,149.47Z" transform="translate(0 0)"/><path class="n" d="M616.41,151.73h-1.28c-.3-1-.59-2.18-.87-3.5s-.52-2.73-.74-4.25h1.25c0,.42.1.92.18,1.48s.16,1.15.26,1.75.19,1.17.29,1.72.19,1,.28,1.43c.09-.39.19-.88.3-1.45s.23-1.16.34-1.76.22-1.18.32-1.75.18-1,.24-1.42h1.19c0,.38.1.86.19,1.42s.17,1.14.26,1.75.19,1.19.29,1.76.19,1.06.27,1.45c.08-.39.18-.87.27-1.43s.2-1.14.29-1.73.18-1.17.26-1.74.13-1.06.17-1.48h1.21c-.22,1.52-.47,2.93-.74,4.25s-.55,2.49-.86,3.5h-1.24c-.08-.3-.16-.69-.26-1.17s-.18-1-.28-1.53-.18-1.09-.26-1.63-.14-1.05-.2-1.5q-.09.67-.24,1.5c-.1.54-.2,1.09-.31,1.63s-.21,1.05-.32,1.53S616.48,151.43,616.41,151.73Z" transform="translate(0 0)"/><path class="n" d="M622.93,144.14a5.47,5.47,0,0,1,.81-.26,4.59,4.59,0,0,1,.93-.09,2.31,2.31,0,0,1,1.69.64,2.72,2.72,0,0,1,.64,2v5.14a9.41,9.41,0,0,1-1.08.24,6.77,6.77,0,0,1-1.09.09,3.53,3.53,0,0,1-1-.14,2.07,2.07,0,0,1-1.37-1.17,2.77,2.77,0,0,1-.2-1.1,2.87,2.87,0,0,1,.18-1.06,2,2,0,0,1,.51-.75,2.14,2.14,0,0,1,.77-.46,2.93,2.93,0,0,1,1-.15,5.32,5.32,0,0,1,1.07.11v-.71a1.68,1.68,0,0,0-.33-1.19,1.26,1.26,0,0,0-.95-.34,3.24,3.24,0,0,0-.64.06,3.75,3.75,0,0,0-.64.22Zm.61,5.33a1.29,1.29,0,0,0,.35,1,1.46,1.46,0,0,0,1,.32,3.94,3.94,0,0,0,.87-.1v-2.47a3.26,3.26,0,0,0-.87-.12,2.33,2.33,0,0,0-.53.07,1.1,1.1,0,0,0-.43.22,1,1,0,0,0-.29.42A1.74,1.74,0,0,0,623.54,149.47Z" transform="translate(0 0)"/><path class="n" d="M630.93,150.12c.28-1,.55-2,.78-3s.46-2.05.68-3.17h1.26q-.23,1.08-.48,2.13c-.17.69-.35,1.37-.53,2s-.36,1.26-.54,1.84-.35,1.1-.51,1.57-.37,1-.54,1.4a3.65,3.65,0,0,1-.56.91,2.06,2.06,0,0,1-.66.51,2.19,2.19,0,0,1-.85.15,2,2,0,0,1-.53-.07,2.55,2.55,0,0,1-.44-.14l.23-1a1.86,1.86,0,0,0,.73.16.85.85,0,0,0,.69-.31,3.37,3.37,0,0,0,.52-.93l.15-.37c-.19-.51-.38-1.08-.57-1.7s-.38-1.28-.56-2-.36-1.38-.53-2.09-.32-1.41-.46-2.09h1.35c.08.46.17,1,.28,1.52s.22,1.1.34,1.65.25,1.09.38,1.61S630.81,149.73,630.93,150.12Z" transform="translate(0 0)"/></g></g></g></svg>