<?xml version="1.0" encoding="utf-8"?>
<!-- Generator: Adobe Illustrator 23.0.6, SVG Export Plug-In . SVG Version: 6.00 Build 0)  -->
<svg version="1.1" id="Layer_1" xmlns="http://www.w3.org/2000/svg" xmlns:xlink="http://www.w3.org/1999/xlink" x="0px" y="0px"
	 viewBox="0 0 919.9 261.9" style="enable-background:new 0 0 919.9 261.9;" xml:space="preserve">
<style type="text/css">
	.st0{fill:#CE6A3E;}
	.st1{fill:#FA8551;}
	.st2{fill:#255BA8;}
	.st3{fill:#FFFFFF;}
	.st4{fill:#545454;}
	.st5{font-family:'OpenSans-Bold';}
	.st6{font-size:24px;}
	.st7{fill:#E7E7E7;}
	.st8{fill:none;stroke:#545454;stroke-miterlimit:10;}
	.st9{font-size:28.8px;}
	.st10{fill:#FFFFFF;stroke:#AFAFAF;stroke-miterlimit:10;}
</style>
<path class="st0" d="M559.6,54.3H423.5c-1.6,0-2.8-1.3-2.8-2.8v-30c0-1.6,1.3-2.8,2.8-2.8h136.1c1.6,0,2.8,1.3,2.8,2.8v30
	C562.4,53,561.2,54.3,559.6,54.3z"/>
<path class="st1" d="M376.9,54.3h-75.3c-1.6,0-2.8-1.3-2.8-2.8v-30c0-1.6,1.3-2.8,2.8-2.8h75.3c1.6,0,2.8,1.3,2.8,2.8v30
	C379.7,53,378.4,54.3,376.9,54.3z"/>
<path class="st2" d="M249.2,54.3h-59.3c-1.6,0-2.8-1.3-2.8-2.8v-30c0-1.6,1.3-2.8,2.8-2.8h59.3c1.6,0,2.8,1.3,2.8,2.8v30
	C252,53,250.8,54.3,249.2,54.3z"/>
<g>
	<path class="st3" d="M207.9,40l-0.5-1.8h-2.7l-0.5,1.8h-1.7l2.6-7.5h1.9l2.6,7.5H207.9z M207,36.9c-0.5-1.6-0.8-2.5-0.8-2.7
		c-0.1-0.2-0.1-0.4-0.1-0.5c-0.1,0.4-0.4,1.5-1,3.2H207z"/>
	<path class="st3" d="M214.4,38.3c0,0.6-0.2,1-0.6,1.3c-0.4,0.3-1,0.5-1.8,0.5c-0.4,0-0.8,0-1.1-0.1c-0.3-0.1-0.6-0.1-0.8-0.2v-1.3
		c0.3,0.1,0.6,0.2,1,0.3c0.4,0.1,0.7,0.1,1,0.1c0.6,0,0.8-0.2,0.8-0.5c0-0.1,0-0.2-0.1-0.3c-0.1-0.1-0.2-0.2-0.4-0.3
		c-0.2-0.1-0.4-0.2-0.7-0.3c-0.4-0.2-0.8-0.4-1-0.5c-0.2-0.2-0.4-0.3-0.4-0.5c-0.1-0.2-0.1-0.4-0.1-0.7c0-0.5,0.2-0.9,0.6-1.2
		s0.9-0.4,1.7-0.4c0.7,0,1.3,0.1,2,0.4l-0.5,1.1c-0.3-0.1-0.5-0.2-0.8-0.3c-0.2-0.1-0.5-0.1-0.8-0.1c-0.5,0-0.7,0.1-0.7,0.4
		c0,0.1,0.1,0.3,0.2,0.4c0.1,0.1,0.5,0.3,1,0.5c0.4,0.2,0.8,0.3,1,0.5s0.4,0.3,0.5,0.5S214.4,38,214.4,38.3z"/>
	<path class="st3" d="M219.6,38.3c0,0.6-0.2,1-0.6,1.3c-0.4,0.3-1,0.5-1.8,0.5c-0.4,0-0.8,0-1.1-0.1c-0.3-0.1-0.6-0.1-0.8-0.2v-1.3
		c0.3,0.1,0.6,0.2,1,0.3c0.4,0.1,0.7,0.1,1,0.1c0.6,0,0.8-0.2,0.8-0.5c0-0.1,0-0.2-0.1-0.3c-0.1-0.1-0.2-0.2-0.4-0.3
		c-0.2-0.1-0.4-0.2-0.7-0.3c-0.4-0.2-0.8-0.4-1-0.5c-0.2-0.2-0.4-0.3-0.4-0.5c-0.1-0.2-0.1-0.4-0.1-0.7c0-0.5,0.2-0.9,0.6-1.2
		s0.9-0.4,1.7-0.4c0.7,0,1.3,0.1,2,0.4l-0.5,1.1c-0.3-0.1-0.5-0.2-0.8-0.3c-0.2-0.1-0.5-0.1-0.8-0.1c-0.5,0-0.7,0.1-0.7,0.4
		c0,0.1,0.1,0.3,0.2,0.4c0.1,0.1,0.5,0.3,1,0.5c0.4,0.2,0.8,0.3,1,0.5s0.4,0.3,0.5,0.5S219.6,38,219.6,38.3z"/>
	<path class="st3" d="M223.4,40.1c-0.9,0-1.6-0.3-2.1-0.8c-0.5-0.5-0.8-1.2-0.8-2.1c0-1,0.2-1.7,0.7-2.2s1.1-0.8,2-0.8
		c0.8,0,1.4,0.2,1.9,0.7s0.7,1.1,0.7,1.9v0.8H222c0,0.4,0.1,0.8,0.4,1s0.6,0.4,1,0.4c0.3,0,0.7,0,1-0.1c0.3-0.1,0.6-0.2,1-0.3v1.2
		c-0.3,0.1-0.6,0.2-0.9,0.3S223.8,40.1,223.4,40.1z M223.1,35.3c-0.3,0-0.6,0.1-0.8,0.3c-0.2,0.2-0.3,0.5-0.3,0.9h2.2
		c0-0.4-0.1-0.7-0.3-0.9C223.7,35.4,223.5,35.3,223.1,35.3z"/>
	<path class="st3" d="M229.3,38.9c0.3,0,0.6-0.1,1-0.2v1.2c-0.4,0.2-0.9,0.3-1.4,0.3c-0.6,0-1.1-0.2-1.4-0.5
		c-0.3-0.3-0.4-0.8-0.4-1.4v-2.7h-0.7v-0.7l0.9-0.5l0.4-1.2h1v1.2h1.6v1.2h-1.6v2.7c0,0.2,0.1,0.4,0.2,0.5
		C229,38.8,229.1,38.9,229.3,38.9z"/>
	<path class="st3" d="M235.4,38.3c0,0.6-0.2,1-0.6,1.3c-0.4,0.3-1,0.5-1.8,0.5c-0.4,0-0.8,0-1.1-0.1c-0.3-0.1-0.6-0.1-0.8-0.2v-1.3
		c0.3,0.1,0.6,0.2,1,0.3c0.4,0.1,0.7,0.1,1,0.1c0.6,0,0.8-0.2,0.8-0.5c0-0.1,0-0.2-0.1-0.3c-0.1-0.1-0.2-0.2-0.4-0.3
		c-0.2-0.1-0.4-0.2-0.7-0.3c-0.4-0.2-0.8-0.4-1-0.5c-0.2-0.2-0.4-0.3-0.4-0.5c-0.1-0.2-0.1-0.4-0.1-0.7c0-0.5,0.2-0.9,0.6-1.2
		s0.9-0.4,1.7-0.4c0.7,0,1.3,0.1,2,0.4l-0.5,1.1c-0.3-0.1-0.5-0.2-0.8-0.3c-0.2-0.1-0.5-0.1-0.8-0.1c-0.5,0-0.7,0.1-0.7,0.4
		c0,0.1,0.1,0.3,0.2,0.4c0.1,0.1,0.5,0.3,1,0.5c0.4,0.2,0.8,0.3,1,0.5s0.4,0.3,0.5,0.5S235.4,38,235.4,38.3z"/>
</g>
<g>
	<path class="st3" d="M314.9,40v-7.4h1.6v6.1h3V40H314.9z"/>
	<path class="st3" d="M320.6,32.9c0-0.5,0.3-0.8,0.8-0.8s0.8,0.3,0.8,0.8c0,0.2-0.1,0.4-0.2,0.6c-0.1,0.1-0.4,0.2-0.6,0.2
		C320.9,33.6,320.6,33.4,320.6,32.9z M322.2,40h-1.5v-5.7h1.5V40z"/>
	<path class="st3" d="M327.5,40l-0.3-0.8h0c-0.3,0.3-0.5,0.6-0.8,0.7s-0.6,0.2-1.1,0.2c-0.5,0-1-0.2-1.3-0.5
		c-0.3-0.3-0.5-0.8-0.5-1.3c0-0.6,0.2-1,0.6-1.3c0.4-0.3,1.1-0.4,1.9-0.5l1,0v-0.2c0-0.6-0.3-0.9-0.9-0.9c-0.5,0-1,0.1-1.6,0.4
		l-0.5-1c0.7-0.3,1.4-0.5,2.2-0.5c0.8,0,1.3,0.2,1.8,0.5c0.4,0.3,0.6,0.8,0.6,1.5V40H327.5z M327,37.4l-0.6,0c-0.5,0-0.8,0.1-1,0.2
		c-0.2,0.1-0.3,0.4-0.3,0.7c0,0.4,0.3,0.7,0.8,0.7c0.4,0,0.6-0.1,0.9-0.3c0.2-0.2,0.3-0.5,0.3-0.8V37.4z"/>
	<path class="st3" d="M333.3,34.2c0.7,0,1.2,0.3,1.6,0.8c0.4,0.5,0.6,1.2,0.6,2.2c0,0.9-0.2,1.7-0.6,2.2c-0.4,0.5-0.9,0.8-1.6,0.8
		c-0.7,0-1.2-0.2-1.6-0.7h-0.1l-0.3,0.6h-1.2v-7.9h1.5v1.8c0,0.2,0,0.6-0.1,1.1h0.1C332.1,34.5,332.6,34.2,333.3,34.2z M332.8,35.5
		c-0.4,0-0.7,0.1-0.8,0.4c-0.2,0.2-0.3,0.6-0.3,1.2v0.2c0,0.6,0.1,1,0.3,1.3s0.5,0.4,0.9,0.4c0.3,0,0.6-0.1,0.8-0.4
		c0.2-0.3,0.3-0.7,0.3-1.3s-0.1-1-0.3-1.3C333.4,35.6,333.1,35.5,332.8,35.5z"/>
	<path class="st3" d="M336.7,32.9c0-0.5,0.3-0.8,0.8-0.8s0.8,0.3,0.8,0.8c0,0.2-0.1,0.4-0.2,0.6c-0.1,0.1-0.4,0.2-0.6,0.2
		C336.9,33.6,336.7,33.4,336.7,32.9z M338.3,40h-1.5v-5.7h1.5V40z"/>
	<path class="st3" d="M341.5,40h-1.5v-7.9h1.5V40z"/>
	<path class="st3" d="M343,32.9c0-0.5,0.3-0.8,0.8-0.8s0.8,0.3,0.8,0.8c0,0.2-0.1,0.4-0.2,0.6c-0.1,0.1-0.4,0.2-0.6,0.2
		C343.3,33.6,343,33.4,343,32.9z M344.6,40h-1.5v-5.7h1.5V40z"/>
	<path class="st3" d="M348.6,38.9c0.3,0,0.6-0.1,1-0.2v1.2c-0.4,0.2-0.9,0.3-1.4,0.3c-0.6,0-1.1-0.2-1.4-0.5
		c-0.3-0.3-0.4-0.8-0.4-1.4v-2.7h-0.7v-0.7l0.9-0.5l0.4-1.2h1v1.2h1.6v1.2H348v2.7c0,0.2,0.1,0.4,0.2,0.5
		C348.3,38.8,348.4,38.9,348.6,38.9z"/>
	<path class="st3" d="M350.7,32.9c0-0.5,0.3-0.8,0.8-0.8s0.8,0.3,0.8,0.8c0,0.2-0.1,0.4-0.2,0.6c-0.1,0.1-0.4,0.2-0.6,0.2
		C351,33.6,350.7,33.4,350.7,32.9z M352.3,40h-1.5v-5.7h1.5V40z"/>
	<path class="st3" d="M356.5,40.1c-0.9,0-1.6-0.3-2.1-0.8c-0.5-0.5-0.8-1.2-0.8-2.1c0-1,0.2-1.7,0.7-2.2s1.1-0.8,2-0.8
		c0.8,0,1.4,0.2,1.9,0.7s0.7,1.1,0.7,1.9v0.8h-3.7c0,0.4,0.1,0.8,0.4,1s0.6,0.4,1,0.4c0.3,0,0.7,0,1-0.1c0.3-0.1,0.6-0.2,1-0.3v1.2
		c-0.3,0.1-0.6,0.2-0.9,0.3S357,40.1,356.5,40.1z M356.3,35.3c-0.3,0-0.6,0.1-0.8,0.3c-0.2,0.2-0.3,0.5-0.3,0.9h2.2
		c0-0.4-0.1-0.7-0.3-0.9C356.9,35.4,356.6,35.3,356.3,35.3z"/>
	<path class="st3" d="M364,38.3c0,0.6-0.2,1-0.6,1.3c-0.4,0.3-1,0.5-1.8,0.5c-0.4,0-0.8,0-1.1-0.1c-0.3-0.1-0.6-0.1-0.8-0.2v-1.3
		c0.3,0.1,0.6,0.2,1,0.3c0.4,0.1,0.7,0.1,1,0.1c0.6,0,0.8-0.2,0.8-0.5c0-0.1,0-0.2-0.1-0.3c-0.1-0.1-0.2-0.2-0.4-0.3
		c-0.2-0.1-0.4-0.2-0.7-0.3c-0.4-0.2-0.8-0.4-1-0.5c-0.2-0.2-0.4-0.3-0.4-0.5c-0.1-0.2-0.1-0.4-0.1-0.7c0-0.5,0.2-0.9,0.6-1.2
		s0.9-0.4,1.7-0.4c0.7,0,1.3,0.1,2,0.4l-0.5,1.1c-0.3-0.1-0.5-0.2-0.8-0.3c-0.2-0.1-0.5-0.1-0.8-0.1c-0.5,0-0.7,0.1-0.7,0.4
		c0,0.1,0.1,0.3,0.2,0.4c0.1,0.1,0.5,0.3,1,0.5c0.4,0.2,0.8,0.3,1,0.5s0.4,0.3,0.5,0.5S364,38,364,38.3z"/>
</g>
<g>
	<path class="st3" d="M444.6,37.9c0,0.7-0.2,1.2-0.7,1.6c-0.5,0.4-1.2,0.6-2,0.6c-0.8,0-1.5-0.1-2.1-0.4v-1.5
		c0.5,0.2,0.9,0.4,1.3,0.5c0.3,0.1,0.7,0.1,1,0.1c0.3,0,0.6-0.1,0.8-0.2s0.3-0.3,0.3-0.6c0-0.1,0-0.3-0.1-0.4s-0.2-0.2-0.4-0.3
		s-0.5-0.3-1-0.5c-0.5-0.2-0.8-0.4-1-0.6c-0.2-0.2-0.4-0.4-0.5-0.7c-0.1-0.3-0.2-0.6-0.2-0.9c0-0.7,0.2-1.2,0.7-1.5
		c0.4-0.4,1.1-0.6,1.8-0.6c0.4,0,0.8,0,1.1,0.1c0.4,0.1,0.7,0.2,1.1,0.4l-0.5,1.2c-0.4-0.2-0.7-0.3-1-0.3c-0.3-0.1-0.5-0.1-0.8-0.1
		c-0.3,0-0.5,0.1-0.7,0.2c-0.2,0.1-0.2,0.3-0.2,0.5c0,0.1,0,0.3,0.1,0.4c0.1,0.1,0.2,0.2,0.3,0.3c0.1,0.1,0.5,0.3,1,0.5
		c0.7,0.3,1.2,0.7,1.4,1C444.4,37.1,444.6,37.5,444.6,37.9z"/>
	<path class="st3" d="M448.2,38.9c0.3,0,0.6-0.1,1-0.2v1.2c-0.4,0.2-0.9,0.3-1.4,0.3c-0.6,0-1.1-0.2-1.4-0.5
		c-0.3-0.3-0.4-0.8-0.4-1.4v-2.7h-0.7v-0.7l0.9-0.5l0.4-1.2h1v1.2h1.6v1.2h-1.6v2.7c0,0.2,0.1,0.4,0.2,0.5
		C447.8,38.8,448,38.9,448.2,38.9z"/>
	<path class="st3" d="M455.5,37.2c0,0.9-0.2,1.6-0.7,2.2c-0.5,0.5-1.2,0.8-2,0.8c-0.5,0-1-0.1-1.4-0.4c-0.4-0.2-0.7-0.6-1-1
		c-0.2-0.4-0.3-1-0.3-1.6c0-0.9,0.2-1.6,0.7-2.2s1.2-0.8,2-0.8c0.5,0,1,0.1,1.4,0.4c0.4,0.2,0.7,0.6,1,1S455.5,36.6,455.5,37.2z
		 M451.5,37.2c0,0.6,0.1,1,0.3,1.3s0.5,0.4,0.9,0.4c0.4,0,0.7-0.1,0.9-0.4c0.2-0.3,0.3-0.7,0.3-1.3c0-0.6-0.1-1-0.3-1.3
		c-0.2-0.3-0.5-0.4-0.9-0.4c-0.4,0-0.7,0.1-0.9,0.4C451.6,36.2,451.5,36.6,451.5,37.2z"/>
	<path class="st3" d="M459.1,40.1c-1.8,0-2.7-1-2.7-2.9c0-1,0.2-1.7,0.7-2.2c0.5-0.5,1.2-0.8,2.1-0.8c0.7,0,1.2,0.1,1.8,0.4
		l-0.5,1.2c-0.2-0.1-0.5-0.2-0.7-0.2c-0.2-0.1-0.4-0.1-0.6-0.1c-0.8,0-1.2,0.6-1.2,1.7c0,1.1,0.4,1.7,1.2,1.7c0.3,0,0.6,0,0.8-0.1
		c0.3-0.1,0.5-0.2,0.8-0.4v1.3c-0.3,0.2-0.5,0.3-0.8,0.3C459.8,40.1,459.4,40.1,459.1,40.1z"/>
	<path class="st3" d="M463.6,36.9l0.7-0.9l1.6-1.7h1.7l-2.3,2.5l2.4,3.2h-1.8l-1.6-2.3l-0.7,0.5V40h-1.5v-7.9h1.5v3.5L463.6,36.9
		L463.6,36.9z"/>
	<path class="st3" d="M473.8,40h-1.5v-3.3c0-0.8-0.3-1.2-0.9-1.2c-0.4,0-0.7,0.1-0.9,0.4c-0.2,0.3-0.3,0.8-0.3,1.4V40h-1.5v-7.9h1.5
		v1.6c0,0.1,0,0.4,0,0.9l0,0.5h0.1c0.3-0.6,0.9-0.8,1.6-0.8c0.7,0,1.2,0.2,1.5,0.5s0.5,0.9,0.5,1.5V40z"/>
	<path class="st3" d="M480.5,37.2c0,0.9-0.2,1.6-0.7,2.2c-0.5,0.5-1.2,0.8-2,0.8c-0.5,0-1-0.1-1.4-0.4c-0.4-0.2-0.7-0.6-1-1
		c-0.2-0.4-0.3-1-0.3-1.6c0-0.9,0.2-1.6,0.7-2.2s1.2-0.8,2-0.8c0.5,0,1,0.1,1.4,0.4c0.4,0.2,0.7,0.6,1,1S480.5,36.6,480.5,37.2z
		 M476.6,37.2c0,0.6,0.1,1,0.3,1.3s0.5,0.4,0.9,0.4c0.4,0,0.7-0.1,0.9-0.4c0.2-0.3,0.3-0.7,0.3-1.3c0-0.6-0.1-1-0.3-1.3
		c-0.2-0.3-0.5-0.4-0.9-0.4c-0.4,0-0.7,0.1-0.9,0.4C476.7,36.2,476.6,36.6,476.6,37.2z"/>
	<path class="st3" d="M483.4,40h-1.5v-7.9h1.5V40z"/>
	<path class="st3" d="M486.8,40.1c-0.7,0-1.2-0.3-1.6-0.8s-0.6-1.2-0.6-2.2c0-0.9,0.2-1.7,0.6-2.2s0.9-0.8,1.6-0.8
		c0.7,0,1.3,0.3,1.6,0.8h0.1c-0.1-0.4-0.1-0.8-0.1-1.1v-1.8h1.6V40h-1.2l-0.3-0.7h-0.1C488.1,39.8,487.5,40.1,486.8,40.1z
		 M487.3,38.9c0.4,0,0.7-0.1,0.9-0.3c0.2-0.2,0.3-0.6,0.3-1.2v-0.2c0-0.6-0.1-1-0.3-1.3c-0.2-0.3-0.5-0.4-0.9-0.4
		c-0.3,0-0.6,0.1-0.8,0.4c-0.2,0.3-0.3,0.7-0.3,1.3s0.1,1,0.3,1.3C486.7,38.7,487,38.9,487.3,38.9z"/>
	<path class="st3" d="M494.1,40.1c-0.9,0-1.6-0.3-2.1-0.8c-0.5-0.5-0.8-1.2-0.8-2.1c0-1,0.2-1.7,0.7-2.2s1.1-0.8,2-0.8
		c0.8,0,1.4,0.2,1.9,0.7s0.7,1.1,0.7,1.9v0.8h-3.7c0,0.4,0.1,0.8,0.4,1c0.2,0.2,0.6,0.4,1,0.4c0.3,0,0.7,0,1-0.1
		c0.3-0.1,0.6-0.2,1-0.3v1.2c-0.3,0.1-0.6,0.2-0.9,0.3C495,40.1,494.6,40.1,494.1,40.1z M493.9,35.3c-0.3,0-0.6,0.1-0.8,0.3
		c-0.2,0.2-0.3,0.5-0.3,0.9h2.2c0-0.4-0.1-0.7-0.3-0.9C494.5,35.4,494.3,35.3,493.9,35.3z"/>
	<path class="st3" d="M500.9,34.2c0.2,0,0.4,0,0.5,0l-0.1,1.5c-0.1,0-0.3-0.1-0.5-0.1c-0.5,0-0.9,0.1-1.2,0.4
		c-0.3,0.3-0.4,0.6-0.4,1.1V40h-1.5v-5.7h1.2l0.2,1h0.1c0.2-0.3,0.4-0.6,0.7-0.8C500.2,34.3,500.5,34.2,500.9,34.2z"/>
	<path class="st3" d="M506.4,38.3c0,0.6-0.2,1-0.6,1.3c-0.4,0.3-1,0.5-1.8,0.5c-0.4,0-0.8,0-1.1-0.1c-0.3-0.1-0.6-0.1-0.8-0.2v-1.3
		c0.3,0.1,0.6,0.2,1,0.3c0.4,0.1,0.7,0.1,1,0.1c0.6,0,0.8-0.2,0.8-0.5c0-0.1,0-0.2-0.1-0.3c-0.1-0.1-0.2-0.2-0.4-0.3
		c-0.2-0.1-0.4-0.2-0.7-0.3c-0.4-0.2-0.8-0.4-1-0.5s-0.4-0.3-0.4-0.5c-0.1-0.2-0.1-0.4-0.1-0.7c0-0.5,0.2-0.9,0.6-1.2
		s0.9-0.4,1.7-0.4c0.7,0,1.3,0.1,2,0.4l-0.5,1.1c-0.3-0.1-0.5-0.2-0.8-0.3c-0.2-0.1-0.5-0.1-0.8-0.1c-0.5,0-0.7,0.1-0.7,0.4
		c0,0.1,0.1,0.3,0.2,0.4s0.5,0.3,1,0.5c0.4,0.2,0.8,0.3,1,0.5c0.2,0.2,0.4,0.3,0.5,0.5C506.4,37.8,506.4,38,506.4,38.3z"/>
	<path class="st3" d="M508.9,32.6l0.1,0.1c-0.2,0.7-0.5,1.5-0.9,2.4h-1.1c0.2-1,0.4-1.9,0.5-2.5H508.9z"/>
	<path class="st3" d="M517,40h-4.3v-7.4h4.3v1.3h-2.7v1.6h2.5v1.3h-2.5v1.9h2.7V40z"/>
	<path class="st3" d="M520.2,40.1c-0.7,0-1.2-0.3-1.6-0.8s-0.6-1.2-0.6-2.2c0-0.9,0.2-1.7,0.6-2.2s0.9-0.8,1.6-0.8
		c0.4,0,0.7,0.1,0.9,0.2c0.3,0.1,0.5,0.3,0.7,0.6h0l0.1-0.7h1.3v8.2h-1.6v-2.4c0-0.2,0-0.5,0.1-0.9h-0.1c-0.2,0.3-0.4,0.5-0.7,0.6
		S520.6,40.1,520.2,40.1z M520.7,38.9c0.4,0,0.7-0.1,0.9-0.3c0.2-0.2,0.3-0.6,0.3-1.2v-0.2c0-0.6-0.1-1-0.3-1.3
		c-0.2-0.3-0.5-0.4-0.9-0.4c-0.7,0-1.1,0.6-1.1,1.7c0,0.6,0.1,1,0.3,1.3C520.1,38.8,520.4,38.9,520.7,38.9z"/>
	<path class="st3" d="M529,40l-0.2-0.7h-0.1c-0.2,0.3-0.4,0.5-0.7,0.6s-0.7,0.2-1,0.2c-0.7,0-1.2-0.2-1.5-0.5
		c-0.3-0.4-0.5-0.9-0.5-1.5v-3.7h1.5v3.3c0,0.4,0.1,0.7,0.2,0.9c0.1,0.2,0.4,0.3,0.7,0.3c0.4,0,0.7-0.1,0.9-0.4
		c0.2-0.3,0.3-0.8,0.3-1.4v-2.7h1.5V40H529z"/>
	<path class="st3" d="M531.7,32.9c0-0.5,0.3-0.8,0.8-0.8c0.6,0,0.8,0.3,0.8,0.8c0,0.2-0.1,0.4-0.2,0.6c-0.1,0.1-0.4,0.2-0.6,0.2
		C532,33.6,531.7,33.4,531.7,32.9z M533.4,40h-1.5v-5.7h1.5V40z"/>
	<path class="st3" d="M537.4,38.9c0.3,0,0.6-0.1,1-0.2v1.2c-0.4,0.2-0.9,0.3-1.4,0.3c-0.6,0-1.1-0.2-1.4-0.5
		c-0.3-0.3-0.4-0.8-0.4-1.4v-2.7h-0.7v-0.7l0.9-0.5l0.4-1.2h1v1.2h1.6v1.2h-1.6v2.7c0,0.2,0.1,0.4,0.2,0.5
		C537,38.8,537.2,38.9,537.4,38.9z"/>
	<path class="st3" d="M538.7,34.3h1.7l1.1,3.2c0.1,0.3,0.2,0.6,0.2,1h0c0-0.3,0.1-0.7,0.2-1l1.1-3.2h1.7l-2.4,6.4
		c-0.2,0.6-0.5,1-0.9,1.3s-0.9,0.4-1.4,0.4c-0.3,0-0.5,0-0.8-0.1v-1.2c0.2,0,0.4,0.1,0.6,0.1c0.3,0,0.5-0.1,0.7-0.3
		c0.2-0.2,0.4-0.4,0.5-0.8l0.1-0.3L538.7,34.3z"/>
</g>
<text transform="matrix(1 0 0 1 391.7633 45.3443)" class="st4 st5 st6">+</text>
<text transform="matrix(1 0 0 1 266.9635 45.3443)" class="st4 st5 st6">=</text>
<path class="st7" d="M484,114.3c0,15.5-11.6,28-39.7,28s-37.3-12.5-37.3-28s9.2-28,37.3-28S484,98.9,484,114.3z"/>
<g>
	<path class="st4" d="M429.3,106.7c-0.5,0-0.9,0.2-1.2,0.6c-0.3,0.4-0.4,0.9-0.4,1.6c0,1.4,0.5,2.1,1.6,2.1c0.4,0,1-0.1,1.6-0.3v1.1
		c-0.5,0.2-1.1,0.3-1.7,0.3c-0.9,0-1.6-0.3-2.1-0.8s-0.7-1.3-0.7-2.4c0-0.7,0.1-1.2,0.4-1.7c0.2-0.5,0.6-0.9,1-1.1s1-0.4,1.6-0.4
		c0.6,0,1.2,0.1,1.8,0.4l-0.4,1.1c-0.2-0.1-0.5-0.2-0.7-0.3C429.8,106.8,429.6,106.7,429.3,106.7z"/>
	<path class="st4" d="M436.5,109.6c0,0.8-0.2,1.4-0.6,1.8c-0.4,0.4-1,0.7-1.7,0.7c-0.5,0-0.9-0.1-1.2-0.3c-0.4-0.2-0.6-0.5-0.8-0.9
		c-0.2-0.4-0.3-0.8-0.3-1.3c0-0.8,0.2-1.4,0.6-1.8c0.4-0.4,1-0.7,1.7-0.7c0.5,0,0.9,0.1,1.2,0.3c0.4,0.2,0.6,0.5,0.8,0.9
		C436.4,108.7,436.5,109.1,436.5,109.6z M433.2,109.6c0,0.5,0.1,0.8,0.2,1.1s0.4,0.4,0.8,0.4c0.3,0,0.6-0.1,0.8-0.4
		c0.2-0.2,0.2-0.6,0.2-1.1c0-0.5-0.1-0.8-0.2-1.1s-0.4-0.4-0.8-0.4c-0.3,0-0.6,0.1-0.8,0.4C433.3,108.8,433.2,109.1,433.2,109.6z"/>
	<path class="st4" d="M441.9,112h-1.3v-2.8c0-0.3-0.1-0.6-0.2-0.8c-0.1-0.2-0.3-0.3-0.5-0.3c-0.3,0-0.6,0.1-0.7,0.4
		c-0.2,0.2-0.2,0.7-0.2,1.2v2.3h-1.3v-4.8h1l0.2,0.6h0.1c0.1-0.2,0.3-0.4,0.6-0.5c0.2-0.1,0.5-0.2,0.8-0.2c0.7,0,1.2,0.2,1.5,0.7
		h0.1c0.1-0.2,0.3-0.4,0.6-0.5c0.3-0.1,0.5-0.2,0.8-0.2c0.5,0,1,0.1,1.2,0.4s0.4,0.7,0.4,1.3v3.1h-1.3v-2.8c0-0.3-0.1-0.6-0.2-0.8
		c-0.1-0.2-0.3-0.3-0.5-0.3c-0.3,0-0.6,0.1-0.7,0.3c-0.2,0.2-0.2,0.6-0.2,1.1V112z"/>
	<path class="st4" d="M450.6,112h-1.3v-2.8c0-0.3-0.1-0.6-0.2-0.8c-0.1-0.2-0.3-0.3-0.5-0.3c-0.3,0-0.6,0.1-0.7,0.4
		c-0.2,0.2-0.2,0.7-0.2,1.2v2.3h-1.3v-4.8h1l0.2,0.6h0.1c0.1-0.2,0.3-0.4,0.6-0.5c0.2-0.1,0.5-0.2,0.8-0.2c0.7,0,1.2,0.2,1.5,0.7
		h0.1c0.1-0.2,0.3-0.4,0.6-0.5c0.3-0.1,0.5-0.2,0.8-0.2c0.5,0,1,0.1,1.2,0.4s0.4,0.7,0.4,1.3v3.1h-1.3v-2.8c0-0.3-0.1-0.6-0.2-0.8
		c-0.1-0.2-0.3-0.3-0.5-0.3c-0.3,0-0.6,0.1-0.7,0.3c-0.2,0.2-0.2,0.6-0.2,1.1V112z"/>
	<path class="st4" d="M459.3,109.6c0,0.8-0.2,1.4-0.6,1.8c-0.4,0.4-1,0.7-1.7,0.7c-0.5,0-0.9-0.1-1.2-0.3c-0.4-0.2-0.6-0.5-0.8-0.9
		c-0.2-0.4-0.3-0.8-0.3-1.3c0-0.8,0.2-1.4,0.6-1.8c0.4-0.4,1-0.7,1.7-0.7c0.5,0,0.9,0.1,1.2,0.3c0.4,0.2,0.6,0.5,0.8,0.9
		C459.2,108.7,459.3,109.1,459.3,109.6z M455.9,109.6c0,0.5,0.1,0.8,0.2,1.1s0.4,0.4,0.8,0.4c0.3,0,0.6-0.1,0.8-0.4
		c0.2-0.2,0.2-0.6,0.2-1.1c0-0.5-0.1-0.8-0.2-1.1s-0.4-0.4-0.8-0.4c-0.3,0-0.6,0.1-0.8,0.4C456,108.8,455.9,109.1,455.9,109.6z"/>
	<path class="st4" d="M464.8,112h-1.3v-2.8c0-0.3-0.1-0.6-0.2-0.8c-0.1-0.2-0.3-0.3-0.6-0.3c-0.4,0-0.6,0.1-0.8,0.4
		c-0.2,0.2-0.2,0.7-0.2,1.2v2.3h-1.3v-4.8h1l0.2,0.6h0.1c0.1-0.2,0.3-0.4,0.6-0.5c0.3-0.1,0.5-0.2,0.9-0.2c0.6,0,1,0.2,1.3,0.5
		c0.3,0.3,0.4,0.7,0.4,1.3V112z"/>
	<path class="st4" d="M438.1,120.8c0,0.6-0.2,1-0.6,1.3s-1,0.5-1.7,0.5c-0.7,0-1.3-0.1-1.8-0.4V121c0.4,0.2,0.8,0.3,1.1,0.4
		c0.3,0.1,0.6,0.1,0.8,0.1c0.3,0,0.5-0.1,0.7-0.2s0.2-0.3,0.2-0.5c0-0.1,0-0.2-0.1-0.3c-0.1-0.1-0.2-0.2-0.3-0.3
		c-0.1-0.1-0.4-0.2-0.8-0.4c-0.4-0.2-0.7-0.4-0.9-0.5c-0.2-0.2-0.3-0.4-0.5-0.6c-0.1-0.2-0.2-0.5-0.2-0.8c0-0.6,0.2-1,0.6-1.3
		c0.4-0.3,0.9-0.5,1.6-0.5c0.3,0,0.6,0,0.9,0.1c0.3,0.1,0.6,0.2,0.9,0.3l-0.4,1c-0.3-0.1-0.6-0.2-0.8-0.3c-0.2-0.1-0.4-0.1-0.6-0.1
		c-0.3,0-0.4,0.1-0.6,0.2c-0.1,0.1-0.2,0.3-0.2,0.5c0,0.1,0,0.2,0.1,0.3s0.1,0.2,0.3,0.3c0.1,0.1,0.4,0.2,0.8,0.4
		c0.6,0.3,1,0.6,1.2,0.8S438.1,120.4,438.1,120.8z"/>
	<path class="st4" d="M441.2,121.6c0.2,0,0.5-0.1,0.8-0.2v1c-0.3,0.1-0.7,0.2-1.2,0.2c-0.5,0-0.9-0.1-1.1-0.4
		c-0.2-0.3-0.4-0.7-0.4-1.2v-2.3h-0.6v-0.6l0.7-0.4l0.4-1h0.8v1h1.3v1h-1.3v2.3c0,0.2,0.1,0.3,0.2,0.4S441,121.6,441.2,121.6z"/>
	<path class="st4" d="M447.3,120.2c0,0.8-0.2,1.4-0.6,1.8c-0.4,0.4-1,0.7-1.7,0.7c-0.5,0-0.9-0.1-1.2-0.3c-0.4-0.2-0.6-0.5-0.8-0.9
		c-0.2-0.4-0.3-0.8-0.3-1.3c0-0.8,0.2-1.4,0.6-1.8c0.4-0.4,1-0.7,1.7-0.7c0.5,0,0.9,0.1,1.2,0.3c0.4,0.2,0.6,0.5,0.8,0.9
		C447.2,119.2,447.3,119.7,447.3,120.2z M444,120.2c0,0.5,0.1,0.8,0.2,1.1s0.4,0.4,0.8,0.4c0.3,0,0.6-0.1,0.8-0.4
		c0.2-0.2,0.2-0.6,0.2-1.1c0-0.5-0.1-0.8-0.2-1.1s-0.4-0.4-0.8-0.4c-0.3,0-0.6,0.1-0.8,0.4C444.1,119.3,444,119.7,444,120.2z"/>
	<path class="st4" d="M450.4,122.7c-1.5,0-2.2-0.8-2.2-2.5c0-0.8,0.2-1.4,0.6-1.9c0.4-0.4,1-0.6,1.7-0.6c0.6,0,1.1,0.1,1.5,0.3
		l-0.4,1c-0.2-0.1-0.4-0.2-0.6-0.2c-0.2-0.1-0.4-0.1-0.5-0.1c-0.7,0-1,0.5-1,1.5c0,0.9,0.3,1.4,1,1.4c0.3,0,0.5,0,0.7-0.1
		s0.4-0.2,0.6-0.3v1.1c-0.2,0.1-0.4,0.2-0.6,0.3C451,122.6,450.7,122.7,450.4,122.7z"/>
	<path class="st4" d="M454.2,120l0.6-0.7l1.3-1.5h1.5l-1.9,2.1l2,2.7h-1.5l-1.4-1.9l-0.6,0.5v1.5h-1.3v-6.7h1.3v3L454.2,120
		L454.2,120z"/>
</g>
<g>
	<line class="st8" x1="539.9" y1="55.1" x2="539.9" y2="81.5"/>
	<polygon class="st4" points="537.5,73.9 542.3,73.9 539.9,82.7 	"/>
</g>
<g>
	<line class="st8" x1="444.7" y1="55.1" x2="444.7" y2="81.5"/>
	<polygon class="st4" points="442.3,73.9 447.1,73.9 444.7,82.7 	"/>
</g>
<path class="st7" d="M579.2,114.3c0,15.5-11.6,28-39.7,28s-37.3-12.5-37.3-28s9.2-28,37.3-28S579.2,98.9,579.2,114.3z"/>
<g>
	<path class="st4" d="M523.3,109.6v2.4H522v-6.3h1.8c0.9,0,1.5,0.2,1.9,0.5c0.4,0.3,0.6,0.8,0.6,1.4c0,0.4-0.1,0.7-0.3,1
		c-0.2,0.3-0.5,0.5-0.9,0.7c0.9,1.4,1.6,2.3,1.8,2.7h-1.5l-1.5-2.4H523.3z M523.3,108.5h0.4c0.4,0,0.7-0.1,0.9-0.2
		c0.2-0.1,0.3-0.4,0.3-0.7c0-0.3-0.1-0.5-0.3-0.6c-0.2-0.1-0.5-0.2-1-0.2h-0.4V108.5z"/>
	<path class="st4" d="M529.8,112.1c-0.8,0-1.4-0.2-1.8-0.6c-0.4-0.4-0.7-1-0.7-1.8c0-0.8,0.2-1.4,0.6-1.9c0.4-0.4,1-0.7,1.7-0.7
		c0.7,0,1.2,0.2,1.6,0.6s0.6,0.9,0.6,1.6v0.6h-3.1c0,0.4,0.1,0.7,0.3,0.9s0.5,0.3,0.9,0.3c0.3,0,0.6,0,0.8-0.1
		c0.3-0.1,0.5-0.2,0.8-0.3v1c-0.2,0.1-0.5,0.2-0.7,0.3C530.5,112.1,530.2,112.1,529.8,112.1z M529.7,108c-0.3,0-0.5,0.1-0.7,0.3
		c-0.2,0.2-0.2,0.4-0.3,0.7h1.8c0-0.3-0.1-0.6-0.3-0.7C530.2,108.1,529.9,108,529.7,108z"/>
	<path class="st4" d="M534.9,111c0.2,0,0.5-0.1,0.8-0.2v1c-0.3,0.1-0.7,0.2-1.2,0.2c-0.5,0-0.9-0.1-1.1-0.4
		c-0.2-0.3-0.4-0.7-0.4-1.2v-2.3h-0.6v-0.6l0.7-0.4l0.4-1h0.8v1h1.3v1h-1.3v2.3c0,0.2,0.1,0.3,0.2,0.4S534.7,111,534.9,111z"/>
	<path class="st4" d="M539.7,112l-0.3-0.7h0c-0.2,0.3-0.4,0.5-0.7,0.6s-0.5,0.2-0.9,0.2c-0.5,0-0.8-0.1-1.1-0.4
		c-0.3-0.3-0.4-0.6-0.4-1.1c0-0.5,0.2-0.9,0.5-1.1s0.9-0.4,1.6-0.4l0.8,0v-0.2c0-0.5-0.2-0.7-0.7-0.7c-0.4,0-0.8,0.1-1.4,0.3
		l-0.4-0.9c0.6-0.3,1.2-0.4,1.8-0.4c0.6,0,1.1,0.1,1.5,0.4s0.5,0.7,0.5,1.3v3.2H539.7z M539.3,109.8l-0.5,0c-0.4,0-0.7,0.1-0.9,0.2
		c-0.2,0.1-0.3,0.3-0.3,0.6c0,0.4,0.2,0.6,0.6,0.6c0.3,0,0.5-0.1,0.7-0.3c0.2-0.2,0.3-0.4,0.3-0.7V109.8z"/>
	<path class="st4" d="M541.9,106c0-0.4,0.2-0.6,0.7-0.6s0.7,0.2,0.7,0.6c0,0.2-0.1,0.4-0.2,0.5s-0.3,0.2-0.5,0.2
		C542.2,106.6,541.9,106.4,541.9,106z M543.3,112H542v-4.8h1.3V112z"/>
	<path class="st4" d="M549.1,112h-1.3v-2.8c0-0.3-0.1-0.6-0.2-0.8c-0.1-0.2-0.3-0.3-0.6-0.3c-0.4,0-0.6,0.1-0.8,0.4
		c-0.2,0.2-0.2,0.7-0.2,1.2v2.3h-1.3v-4.8h1l0.2,0.6h0.1c0.1-0.2,0.3-0.4,0.6-0.5c0.3-0.1,0.5-0.2,0.9-0.2c0.6,0,1,0.2,1.3,0.5
		c0.3,0.3,0.4,0.7,0.4,1.3V112z"/>
	<path class="st4" d="M552.6,112.1c-0.8,0-1.4-0.2-1.8-0.6c-0.4-0.4-0.7-1-0.7-1.8c0-0.8,0.2-1.4,0.6-1.9c0.4-0.4,1-0.7,1.7-0.7
		c0.7,0,1.2,0.2,1.6,0.6s0.6,0.9,0.6,1.6v0.6h-3.1c0,0.4,0.1,0.7,0.3,0.9s0.5,0.3,0.9,0.3c0.3,0,0.6,0,0.8-0.1
		c0.3-0.1,0.5-0.2,0.8-0.3v1c-0.2,0.1-0.5,0.2-0.7,0.3C553.3,112.1,553,112.1,552.6,112.1z M552.5,108c-0.3,0-0.5,0.1-0.7,0.3
		c-0.2,0.2-0.2,0.4-0.3,0.7h1.8c0-0.3-0.1-0.6-0.3-0.7C553,108.1,552.7,108,552.5,108z"/>
	<path class="st4" d="M557.2,112.1c-0.6,0-1-0.2-1.3-0.7c-0.3-0.4-0.5-1-0.5-1.8c0-0.8,0.2-1.4,0.5-1.8c0.3-0.4,0.8-0.7,1.4-0.7
		c0.6,0,1.1,0.2,1.4,0.7h0c-0.1-0.4-0.1-0.7-0.1-1v-1.5h1.3v6.7h-1l-0.3-0.6h-0.1C558.3,111.9,557.8,112.1,557.2,112.1z M557.6,111
		c0.3,0,0.6-0.1,0.7-0.3s0.2-0.5,0.3-1v-0.1c0-0.5-0.1-0.9-0.2-1.1c-0.2-0.2-0.4-0.3-0.8-0.3c-0.3,0-0.5,0.1-0.7,0.4
		c-0.2,0.2-0.2,0.6-0.2,1.1s0.1,0.8,0.2,1.1S557.3,111,557.6,111z"/>
	<path class="st4" d="M526.3,122.6h-3.6v-6.3h3.6v1.1h-2.3v1.4h2.1v1.1h-2.1v1.6h2.3V122.6z"/>
	<path class="st4" d="M530.6,122.6l-0.3-0.7h0c-0.2,0.3-0.4,0.5-0.7,0.6s-0.5,0.2-0.9,0.2c-0.5,0-0.8-0.1-1.1-0.4
		c-0.3-0.3-0.4-0.6-0.4-1.1c0-0.5,0.2-0.9,0.5-1.1s0.9-0.4,1.6-0.4l0.8,0v-0.2c0-0.5-0.2-0.7-0.7-0.7c-0.4,0-0.8,0.1-1.4,0.3
		l-0.4-0.9c0.6-0.3,1.2-0.4,1.8-0.4c0.6,0,1.1,0.1,1.5,0.4s0.5,0.7,0.5,1.3v3.2H530.6z M530.2,120.3l-0.5,0c-0.4,0-0.7,0.1-0.9,0.2
		c-0.2,0.1-0.3,0.3-0.3,0.6c0,0.4,0.2,0.6,0.6,0.6c0.3,0,0.5-0.1,0.7-0.3c0.2-0.2,0.3-0.4,0.3-0.7V120.3z"/>
	<path class="st4" d="M535.6,117.7c0.2,0,0.3,0,0.4,0l-0.1,1.2c-0.1,0-0.2,0-0.4,0c-0.4,0-0.7,0.1-1,0.3c-0.2,0.2-0.4,0.5-0.4,0.9
		v2.4h-1.3v-4.8h1l0.2,0.8h0.1c0.1-0.3,0.4-0.5,0.6-0.7C535,117.8,535.3,117.7,535.6,117.7z"/>
	<path class="st4" d="M541.3,122.6H540v-2.8c0-0.3-0.1-0.6-0.2-0.8c-0.1-0.2-0.3-0.3-0.6-0.3c-0.4,0-0.6,0.1-0.8,0.4
		c-0.2,0.2-0.2,0.7-0.2,1.2v2.3h-1.3v-4.8h1l0.2,0.6h0.1c0.1-0.2,0.3-0.4,0.6-0.5c0.3-0.1,0.5-0.2,0.9-0.2c0.6,0,1,0.2,1.3,0.5
		c0.3,0.3,0.4,0.7,0.4,1.3V122.6z"/>
	<path class="st4" d="M542.6,116.5c0-0.4,0.2-0.6,0.7-0.6s0.7,0.2,0.7,0.6c0,0.2-0.1,0.4-0.2,0.5s-0.3,0.2-0.5,0.2
		C542.8,117.2,542.6,117,542.6,116.5z M544,122.6h-1.3v-4.8h1.3V122.6z"/>
	<path class="st4" d="M549.8,122.6h-1.3v-2.8c0-0.3-0.1-0.6-0.2-0.8c-0.1-0.2-0.3-0.3-0.6-0.3c-0.4,0-0.6,0.1-0.8,0.4
		c-0.2,0.2-0.2,0.7-0.2,1.2v2.3h-1.3v-4.8h1l0.2,0.6h0.1c0.1-0.2,0.3-0.4,0.6-0.5c0.3-0.1,0.5-0.2,0.9-0.2c0.6,0,1,0.2,1.3,0.5
		c0.3,0.3,0.4,0.7,0.4,1.3V122.6z"/>
	<path class="st4" d="M555.3,117.8v0.7l-0.8,0.2c0.1,0.2,0.2,0.5,0.2,0.7c0,0.5-0.2,0.9-0.5,1.2c-0.4,0.3-0.9,0.4-1.5,0.4l-0.2,0
		l-0.2,0c-0.1,0.1-0.2,0.2-0.2,0.3c0,0.2,0.2,0.3,0.7,0.3h0.8c0.5,0,0.9,0.1,1.2,0.3c0.3,0.2,0.4,0.6,0.4,1c0,0.6-0.2,1-0.7,1.3
		c-0.5,0.3-1.1,0.5-2,0.5c-0.7,0-1.2-0.1-1.5-0.4c-0.4-0.2-0.5-0.6-0.5-1c0-0.3,0.1-0.5,0.3-0.7c0.2-0.2,0.4-0.3,0.8-0.4
		c-0.1-0.1-0.3-0.2-0.4-0.3c-0.1-0.1-0.2-0.3-0.2-0.4c0-0.2,0.1-0.3,0.2-0.5c0.1-0.1,0.3-0.2,0.5-0.4c-0.3-0.1-0.5-0.3-0.6-0.5
		c-0.1-0.2-0.2-0.5-0.2-0.9c0-0.5,0.2-0.9,0.5-1.2c0.3-0.3,0.8-0.4,1.5-0.4c0.1,0,0.3,0,0.5,0s0.3,0,0.4,0.1H555.3z M551.6,123.2
		c0,0.2,0.1,0.3,0.3,0.4c0.2,0.1,0.4,0.2,0.7,0.2c0.5,0,0.8-0.1,1.1-0.2s0.4-0.3,0.4-0.5c0-0.2-0.1-0.3-0.2-0.4
		c-0.2-0.1-0.4-0.1-0.7-0.1h-0.7c-0.2,0-0.4,0.1-0.6,0.2C551.7,122.9,551.6,123.1,551.6,123.2z M552.1,119.3c0,0.3,0.1,0.5,0.2,0.6
		s0.3,0.2,0.5,0.2c0.2,0,0.4-0.1,0.5-0.2s0.2-0.4,0.2-0.6c0-0.6-0.2-0.9-0.7-0.9C552.3,118.5,552.1,118.8,552.1,119.3z"/>
	<path class="st4" d="M559.4,121.1c0,0.5-0.2,0.9-0.5,1.1c-0.3,0.3-0.9,0.4-1.5,0.4c-0.3,0-0.6,0-0.9-0.1s-0.5-0.1-0.7-0.2v-1.1
		c0.2,0.1,0.5,0.2,0.8,0.3c0.3,0.1,0.6,0.1,0.8,0.1c0.5,0,0.7-0.1,0.7-0.4c0-0.1,0-0.2-0.1-0.3c-0.1-0.1-0.2-0.1-0.3-0.2
		c-0.2-0.1-0.4-0.2-0.6-0.3c-0.4-0.2-0.6-0.3-0.8-0.4c-0.2-0.1-0.3-0.3-0.4-0.5c-0.1-0.2-0.1-0.4-0.1-0.6c0-0.4,0.2-0.8,0.5-1
		s0.8-0.4,1.4-0.4c0.6,0,1.1,0.1,1.7,0.4L559,119c-0.2-0.1-0.5-0.2-0.7-0.3c-0.2-0.1-0.4-0.1-0.6-0.1c-0.4,0-0.6,0.1-0.6,0.3
		c0,0.1,0.1,0.2,0.2,0.3c0.1,0.1,0.4,0.2,0.8,0.4c0.4,0.2,0.6,0.3,0.8,0.4s0.3,0.3,0.4,0.5S559.4,120.9,559.4,121.1z"/>
</g>
<g>
	<g>
		<line class="st8" x1="591.1" y1="156.7" x2="591.1" y2="183.1"/>
		<polygon class="st4" points="588.7,175.5 593.5,175.5 591.1,184.3 		"/>
	</g>
	<g>
		<line class="st8" x1="495.9" y1="156.7" x2="495.9" y2="183.1"/>
		<polygon class="st4" points="493.5,175.5 498.3,175.5 495.9,184.3 		"/>
	</g>
	<line class="st8" x1="495.9" y1="156.7" x2="591.1" y2="156.7"/>
	<line class="st8" x1="543.5" y1="155.5" x2="543.5" y2="142.7"/>
</g>
<path class="st7" d="M535.2,215.9c0,15.5-11.6,28-39.7,28s-37.3-12.5-37.3-28s9.2-28,37.3-28S535.2,200.5,535.2,215.9z"/>
<g>
	<path class="st4" d="M480,216v2.4h-1.3v-6.3h1.8c0.9,0,1.5,0.2,1.9,0.5c0.4,0.3,0.6,0.8,0.6,1.4c0,0.4-0.1,0.7-0.3,1
		s-0.5,0.5-0.9,0.7c0.9,1.4,1.6,2.3,1.8,2.7h-1.5l-1.5-2.4H480z M480,214.9h0.4c0.4,0,0.7-0.1,0.9-0.2c0.2-0.1,0.3-0.4,0.3-0.7
		c0-0.3-0.1-0.5-0.3-0.6c-0.2-0.1-0.5-0.2-1-0.2H480V214.9z"/>
	<path class="st4" d="M486.5,218.5c-0.8,0-1.4-0.2-1.8-0.6c-0.4-0.4-0.7-1-0.7-1.8c0-0.8,0.2-1.4,0.6-1.9c0.4-0.4,1-0.7,1.7-0.7
		c0.7,0,1.2,0.2,1.6,0.6s0.6,0.9,0.6,1.6v0.6h-3.1c0,0.4,0.1,0.7,0.3,0.9s0.5,0.3,0.9,0.3c0.3,0,0.6,0,0.8-0.1
		c0.3-0.1,0.5-0.2,0.8-0.3v1c-0.2,0.1-0.5,0.2-0.7,0.3S486.9,218.5,486.5,218.5z M486.4,214.4c-0.3,0-0.5,0.1-0.7,0.3
		c-0.2,0.2-0.2,0.4-0.3,0.7h1.8c0-0.3-0.1-0.6-0.3-0.7C486.9,214.5,486.6,214.4,486.4,214.4z"/>
	<path class="st4" d="M490.7,218.4l-1.8-4.8h1.4l0.9,2.7c0.1,0.3,0.2,0.7,0.2,1h0c0-0.3,0.1-0.6,0.2-1l0.9-2.7h1.4l-1.8,4.8H490.7z"
		/>
	<path class="st4" d="M496.7,218.5c-0.8,0-1.4-0.2-1.8-0.6c-0.4-0.4-0.7-1-0.7-1.8c0-0.8,0.2-1.4,0.6-1.9c0.4-0.4,1-0.7,1.7-0.7
		c0.7,0,1.2,0.2,1.6,0.6s0.6,0.9,0.6,1.6v0.6h-3.1c0,0.4,0.1,0.7,0.3,0.9s0.5,0.3,0.9,0.3c0.3,0,0.6,0,0.8-0.1
		c0.3-0.1,0.5-0.2,0.8-0.3v1c-0.2,0.1-0.5,0.2-0.7,0.3S497.1,218.5,496.7,218.5z M496.6,214.4c-0.3,0-0.5,0.1-0.7,0.3
		c-0.2,0.2-0.2,0.4-0.3,0.7h1.8c0-0.3-0.1-0.6-0.3-0.7C497.1,214.5,496.8,214.4,496.6,214.4z"/>
	<path class="st4" d="M504.2,218.4h-1.3v-2.8c0-0.3-0.1-0.6-0.2-0.8c-0.1-0.2-0.3-0.3-0.6-0.3c-0.4,0-0.6,0.1-0.8,0.4
		s-0.2,0.7-0.2,1.2v2.3h-1.3v-4.8h1l0.2,0.6h0.1c0.1-0.2,0.3-0.4,0.6-0.5c0.3-0.1,0.5-0.2,0.9-0.2c0.6,0,1,0.2,1.3,0.5
		c0.3,0.3,0.4,0.7,0.4,1.3V218.4z"/>
	<path class="st4" d="M509,218.4l-0.2-0.6h-0.1c-0.1,0.2-0.3,0.4-0.6,0.5c-0.3,0.1-0.6,0.2-0.9,0.2c-0.6,0-1-0.2-1.3-0.5
		c-0.3-0.3-0.4-0.7-0.4-1.3v-3.1h1.3v2.8c0,0.3,0.1,0.6,0.2,0.8c0.1,0.2,0.3,0.3,0.6,0.3c0.4,0,0.6-0.1,0.8-0.4
		c0.2-0.2,0.2-0.7,0.2-1.2v-2.3h1.3v4.8H509z"/>
	<path class="st4" d="M513.5,218.5c-0.8,0-1.4-0.2-1.8-0.6c-0.4-0.4-0.7-1-0.7-1.8c0-0.8,0.2-1.4,0.6-1.9c0.4-0.4,1-0.7,1.7-0.7
		c0.7,0,1.2,0.2,1.6,0.6s0.6,0.9,0.6,1.6v0.6h-3.1c0,0.4,0.1,0.7,0.3,0.9s0.5,0.3,0.9,0.3c0.3,0,0.6,0,0.8-0.1
		c0.3-0.1,0.5-0.2,0.8-0.3v1c-0.2,0.1-0.5,0.2-0.7,0.3S513.9,218.5,513.5,218.5z M513.3,214.4c-0.3,0-0.5,0.1-0.7,0.3
		c-0.2,0.2-0.2,0.4-0.3,0.7h1.8c0-0.3-0.1-0.6-0.3-0.7C513.8,214.5,513.6,214.4,513.3,214.4z"/>
</g>
<path class="st7" d="M632,215.9c0,15.5-11.6,28-39.7,28s-37.3-12.5-37.3-28s9.2-28,37.3-28S632,200.5,632,215.9z"/>
<g>
	<path class="st4" d="M577.8,218.4h-3.6v-6.3h3.6v1.1h-2.3v1.4h2.1v1.1h-2.1v1.6h2.3V218.4z"/>
	<path class="st4" d="M580,216l-1.5-2.3h1.5l0.9,1.5l0.9-1.5h1.5l-1.6,2.3l1.6,2.5h-1.5l-1-1.6l-1,1.6h-1.5L580,216z"/>
	<path class="st4" d="M586.7,218.5c-0.6,0-1-0.2-1.3-0.6h-0.1c0,0.4,0.1,0.6,0.1,0.7v1.9h-1.3v-6.9h1.1l0.2,0.6h0.1
		c0.3-0.5,0.8-0.7,1.4-0.7c0.6,0,1,0.2,1.3,0.7c0.3,0.4,0.5,1,0.5,1.8c0,0.5-0.1,1-0.2,1.3s-0.4,0.7-0.6,0.9
		C587.4,218.4,587.1,218.5,586.7,218.5z M586.4,214.6c-0.3,0-0.6,0.1-0.7,0.3c-0.1,0.2-0.2,0.5-0.2,1v0.1c0,0.5,0.1,0.9,0.2,1.1
		s0.4,0.3,0.7,0.3c0.6,0,0.9-0.5,0.9-1.5c0-0.5-0.1-0.8-0.2-1.1S586.7,214.6,586.4,214.6z"/>
	<path class="st4" d="M591.8,218.5c-0.8,0-1.4-0.2-1.8-0.6c-0.4-0.4-0.7-1-0.7-1.8c0-0.8,0.2-1.4,0.6-1.9c0.4-0.4,1-0.7,1.7-0.7
		c0.7,0,1.2,0.2,1.6,0.6s0.6,0.9,0.6,1.6v0.6h-3.1c0,0.4,0.1,0.7,0.3,0.9s0.5,0.3,0.9,0.3c0.3,0,0.6,0,0.8-0.1
		c0.3-0.1,0.5-0.2,0.8-0.3v1c-0.2,0.1-0.5,0.2-0.7,0.3S592.2,218.5,591.8,218.5z M591.7,214.4c-0.3,0-0.5,0.1-0.7,0.3
		c-0.2,0.2-0.2,0.4-0.3,0.7h1.8c0-0.3-0.1-0.6-0.3-0.7C592.2,214.5,591.9,214.4,591.7,214.4z"/>
	<path class="st4" d="M599.3,218.4H598v-2.8c0-0.3-0.1-0.6-0.2-0.8c-0.1-0.2-0.3-0.3-0.6-0.3c-0.4,0-0.6,0.1-0.8,0.4
		s-0.2,0.7-0.2,1.2v2.3h-1.3v-4.8h1l0.2,0.6h0.1c0.1-0.2,0.3-0.4,0.6-0.5c0.3-0.1,0.5-0.2,0.9-0.2c0.6,0,1,0.2,1.3,0.5
		c0.3,0.3,0.4,0.7,0.4,1.3V218.4z"/>
	<path class="st4" d="M604,217c0,0.5-0.2,0.9-0.5,1.1c-0.3,0.3-0.9,0.4-1.5,0.4c-0.3,0-0.6,0-0.9-0.1c-0.2,0-0.5-0.1-0.7-0.2v-1.1
		c0.2,0.1,0.5,0.2,0.8,0.3c0.3,0.1,0.6,0.1,0.8,0.1c0.5,0,0.7-0.1,0.7-0.4c0-0.1,0-0.2-0.1-0.3c-0.1-0.1-0.2-0.1-0.3-0.2
		c-0.2-0.1-0.4-0.2-0.6-0.3c-0.4-0.2-0.6-0.3-0.8-0.4c-0.2-0.1-0.3-0.3-0.4-0.5c-0.1-0.2-0.1-0.4-0.1-0.6c0-0.4,0.2-0.8,0.5-1
		s0.8-0.4,1.4-0.4c0.6,0,1.1,0.1,1.7,0.4l-0.4,0.9c-0.2-0.1-0.5-0.2-0.7-0.3c-0.2-0.1-0.4-0.1-0.6-0.1c-0.4,0-0.6,0.1-0.6,0.3
		c0,0.1,0.1,0.2,0.2,0.3c0.1,0.1,0.4,0.2,0.8,0.4c0.4,0.2,0.6,0.3,0.8,0.4s0.3,0.3,0.4,0.5S604,216.7,604,217z"/>
	<path class="st4" d="M607.2,218.5c-0.8,0-1.4-0.2-1.8-0.6c-0.4-0.4-0.7-1-0.7-1.8c0-0.8,0.2-1.4,0.6-1.9c0.4-0.4,1-0.7,1.7-0.7
		c0.7,0,1.2,0.2,1.6,0.6s0.6,0.9,0.6,1.6v0.6h-3.1c0,0.4,0.1,0.7,0.3,0.9s0.5,0.3,0.9,0.3c0.3,0,0.6,0,0.8-0.1
		c0.3-0.1,0.5-0.2,0.8-0.3v1c-0.2,0.1-0.5,0.2-0.7,0.3S607.6,218.5,607.2,218.5z M607,214.4c-0.3,0-0.5,0.1-0.7,0.3
		c-0.2,0.2-0.2,0.4-0.3,0.7h1.8c0-0.3-0.1-0.6-0.3-0.7C607.5,214.5,607.3,214.4,607,214.4z"/>
	<path class="st4" d="M613.6,217c0,0.5-0.2,0.9-0.5,1.1c-0.3,0.3-0.9,0.4-1.5,0.4c-0.3,0-0.6,0-0.9-0.1c-0.2,0-0.5-0.1-0.7-0.2v-1.1
		c0.2,0.1,0.5,0.2,0.8,0.3c0.3,0.1,0.6,0.1,0.8,0.1c0.5,0,0.7-0.1,0.7-0.4c0-0.1,0-0.2-0.1-0.3c-0.1-0.1-0.2-0.1-0.3-0.2
		c-0.2-0.1-0.4-0.2-0.6-0.3c-0.4-0.2-0.6-0.3-0.8-0.4c-0.2-0.1-0.3-0.3-0.4-0.5c-0.1-0.2-0.1-0.4-0.1-0.6c0-0.4,0.2-0.8,0.5-1
		s0.8-0.4,1.4-0.4c0.6,0,1.1,0.1,1.7,0.4l-0.4,0.9c-0.2-0.1-0.5-0.2-0.7-0.3c-0.2-0.1-0.4-0.1-0.6-0.1c-0.4,0-0.6,0.1-0.6,0.3
		c0,0.1,0.1,0.2,0.2,0.3c0.1,0.1,0.4,0.2,0.8,0.4c0.4,0.2,0.6,0.3,0.8,0.4s0.3,0.3,0.4,0.5S613.6,216.7,613.6,217z"/>
</g>
<text transform="matrix(1 0 0 1 540.5631 224.5445)" class="st4 st5 st9">-</text>
<text transform="matrix(1 0 0 1 634.9635 223.7442)" class="st4 st5 st6">=</text>
<path class="st10" d="M730.4,215.9c0,15.5-11.6,28-39.7,28s-37.3-12.5-37.3-28s9.2-28,37.3-28S730.4,200.5,730.4,215.9z"/>
<g>
	<path class="st4" d="M690.3,213.6h-1.7l-2.7-4.8h0c0.1,0.8,0.1,1.4,0.1,1.8v3h-1.2v-6.3h1.7l2.7,4.7h0c0-0.8-0.1-1.4-0.1-1.7v-3
		h1.2V213.6z"/>
	<path class="st4" d="M694,213.7c-0.8,0-1.4-0.2-1.8-0.6c-0.4-0.4-0.7-1-0.7-1.8c0-0.8,0.2-1.4,0.6-1.9s1-0.7,1.7-0.7
		c0.7,0,1.2,0.2,1.6,0.6s0.6,0.9,0.6,1.6v0.6h-3.1c0,0.4,0.1,0.7,0.3,0.9s0.5,0.3,0.9,0.3c0.3,0,0.6,0,0.8-0.1s0.5-0.2,0.8-0.3v1
		c-0.2,0.1-0.5,0.2-0.7,0.3C694.7,213.7,694.4,213.7,694,213.7z M693.8,209.6c-0.3,0-0.5,0.1-0.7,0.3c-0.2,0.2-0.2,0.4-0.3,0.8h1.8
		c0-0.3-0.1-0.6-0.3-0.8S694.1,209.6,693.8,209.6z"/>
	<path class="st4" d="M699,212.6c0.2,0,0.5,0,0.8-0.2v1c-0.3,0.1-0.7,0.2-1.2,0.2c-0.5,0-0.9-0.1-1.1-0.4c-0.2-0.3-0.4-0.7-0.4-1.2
		v-2.3h-0.6v-0.6l0.7-0.4l0.4-1h0.8v1h1.3v1h-1.3v2.3c0,0.2,0.1,0.3,0.2,0.4S698.9,212.6,699,212.6z"/>
	<path class="st4" d="M676.6,224.2v-6.3h1.3v6.3H676.6z"/>
	<path class="st4" d="M683.8,224.2h-1.3v-2.8c0-0.3-0.1-0.6-0.2-0.8c-0.1-0.2-0.3-0.3-0.6-0.3c-0.4,0-0.6,0.1-0.8,0.4
		s-0.2,0.7-0.2,1.2v2.3h-1.3v-4.8h1l0.2,0.6h0.1c0.1-0.2,0.3-0.4,0.6-0.5c0.3-0.1,0.5-0.2,0.9-0.2c0.6,0,1,0.2,1.3,0.5
		c0.3,0.3,0.4,0.7,0.4,1.3V224.2z"/>
	<path class="st4" d="M687.1,224.3c-1.5,0-2.2-0.8-2.2-2.5c0-0.8,0.2-1.4,0.6-1.9c0.4-0.4,1-0.6,1.7-0.6c0.6,0,1.1,0.1,1.5,0.3
		l-0.4,1c-0.2-0.1-0.4-0.2-0.6-0.2s-0.4-0.1-0.5-0.1c-0.7,0-1,0.5-1,1.5c0,0.9,0.3,1.4,1,1.4c0.3,0,0.5,0,0.7-0.1s0.4-0.2,0.6-0.3
		v1.1c-0.2,0.1-0.4,0.2-0.6,0.3C687.7,224.2,687.5,224.3,687.1,224.3z"/>
	<path class="st4" d="M694.1,221.8c0,0.8-0.2,1.4-0.6,1.8c-0.4,0.4-1,0.7-1.7,0.7c-0.5,0-0.9-0.1-1.2-0.3c-0.4-0.2-0.6-0.5-0.8-0.9
		c-0.2-0.4-0.3-0.8-0.3-1.3c0-0.8,0.2-1.4,0.6-1.8c0.4-0.4,1-0.7,1.7-0.7c0.5,0,0.9,0.1,1.2,0.3c0.4,0.2,0.6,0.5,0.8,0.9
		C694,220.8,694.1,221.3,694.1,221.8z M690.8,221.8c0,0.5,0.1,0.8,0.2,1.1c0.2,0.2,0.4,0.4,0.8,0.4c0.3,0,0.6-0.1,0.8-0.4
		s0.2-0.6,0.2-1.1c0-0.5-0.1-0.8-0.2-1.1c-0.2-0.2-0.4-0.4-0.8-0.4c-0.3,0-0.6,0.1-0.8,0.4C690.8,220.9,690.8,221.3,690.8,221.8z"/>
	<path class="st4" d="M699.5,224.2h-1.3v-2.8c0-0.3-0.1-0.6-0.2-0.8s-0.3-0.3-0.5-0.3c-0.3,0-0.6,0.1-0.7,0.4
		c-0.2,0.2-0.2,0.7-0.2,1.2v2.3h-1.3v-4.8h1l0.2,0.6h0.1c0.1-0.2,0.3-0.4,0.6-0.5c0.2-0.1,0.5-0.2,0.8-0.2c0.7,0,1.2,0.2,1.5,0.7
		h0.1c0.1-0.2,0.3-0.4,0.6-0.5c0.3-0.1,0.5-0.2,0.8-0.2c0.5,0,1,0.1,1.2,0.4s0.4,0.7,0.4,1.3v3.1h-1.3v-2.8c0-0.3-0.1-0.6-0.2-0.8
		c-0.1-0.2-0.3-0.3-0.5-0.3c-0.3,0-0.6,0.1-0.7,0.3c-0.2,0.2-0.2,0.6-0.2,1.1V224.2z"/>
	<path class="st4" d="M706,224.3c-0.8,0-1.4-0.2-1.8-0.6c-0.4-0.4-0.7-1-0.7-1.8c0-0.8,0.2-1.4,0.6-1.9c0.4-0.4,1-0.7,1.7-0.7
		c0.7,0,1.2,0.2,1.6,0.6s0.6,0.9,0.6,1.6v0.6h-3.1c0,0.4,0.1,0.7,0.3,0.9s0.5,0.3,0.9,0.3c0.3,0,0.6,0,0.8-0.1
		c0.3-0.1,0.5-0.2,0.8-0.3v1c-0.2,0.1-0.5,0.2-0.7,0.3S706.4,224.3,706,224.3z M705.8,220.2c-0.3,0-0.5,0.1-0.7,0.3
		c-0.2,0.2-0.2,0.4-0.3,0.7h1.8c0-0.3-0.1-0.6-0.3-0.7C706.3,220.3,706.1,220.2,705.8,220.2z"/>
</g>
</svg>
