<?xml version="1.0" encoding="utf-8"?>
<!-- Generator: Adobe Illustrator 23.0.3, SVG Export Plug-In . SVG Version: 6.00 Build 0)  -->
<svg version="1.1" id="Layer_1" xmlns="http://www.w3.org/2000/svg" xmlns:xlink="http://www.w3.org/1999/xlink" x="0px" y="0px"
	 viewBox="0 0 919.9 178.2" style="enable-background:new 0 0 919.9 178.2;" xml:space="preserve">
<style type="text/css">
	.st0{fill:#CF6B3E;}
	.st1{fill:#F58553;}
	.st2{fill:#2A5CA8;}
	.st3{fill:#FFFFFF;}
	.st4{fill:#555554;}
	.st5{fill:#C1D1EC;}
	.st6{fill:#FDDFD3;}
	.st7{fill:#E8E7E7;}
	.st8{fill:none;stroke:#555554;stroke-miterlimit:10;}
</style>
<title>Accounting_Equation</title>
<path class="st0" d="M522.6,12.9h171.5c1.6,0,2.8,1.3,2.8,2.8v39c0,1.6-1.3,2.8-2.8,2.8H522.6c-1.6,0-2.8-1.3-2.8-2.8v-39
	C519.8,14.1,521.1,12.9,522.6,12.9z"/>
<path class="st1" d="M370.2,12.9h95.5c1.6,0,2.8,1.3,2.8,2.8v39c0,1.6-1.3,2.8-2.8,2.8h-95.5c-1.6,0-2.8-1.3-2.8-2.8v-39
	C367.4,14.1,368.6,12.9,370.2,12.9z"/>
<path class="st2" d="M230.6,12.9h75.5c1.6,0,2.8,1.3,2.8,2.8v39c0,1.6-1.3,2.8-2.8,2.8h-75.5c-1.6,0-2.8-1.3-2.8-2.8v-39
	C227.8,14.1,229.1,12.9,230.6,12.9z"/>
<path class="st3" d="M253.8,39.7l-0.7-2.2h-3.4l-0.7,2.2h-2.1l3.3-9.3h2.4l3.3,9.3H253.8z M252.7,35.8c-0.6-2-1-3.1-1.1-3.4
	s-0.1-0.5-0.2-0.6c-0.1,0.5-0.5,1.9-1.2,4C250.2,35.8,252.7,35.8,252.7,35.8z"/>
<path class="st3" d="M261.9,37.6c0,0.6-0.3,1.3-0.8,1.7c-0.7,0.4-1.5,0.6-2.3,0.6c-0.4,0-0.9,0-1.3-0.1c-0.3-0.1-0.7-0.2-1-0.3v-1.6
	c0.4,0.2,0.8,0.3,1.2,0.4s0.8,0.2,1.2,0.2c0.7,0,1.1-0.2,1.1-0.6c0-0.1,0-0.3-0.1-0.4c-0.1-0.1-0.3-0.2-0.5-0.3s-0.5-0.3-0.9-0.4
	c-0.4-0.2-0.8-0.4-1.2-0.6c-0.2-0.2-0.4-0.4-0.6-0.7c-0.1-0.3-0.2-0.6-0.2-0.9c0-0.6,0.3-1.1,0.7-1.5c0.6-0.4,1.4-0.6,2.1-0.5
	c0.9,0,1.7,0.2,2.5,0.6l-0.6,1.4c-0.4-0.1-0.7-0.3-1-0.4s-0.7-0.1-1-0.1c-0.6,0-0.8,0.1-0.8,0.5c0,0.2,0.1,0.4,0.3,0.5
	c0.4,0.2,0.8,0.4,1.2,0.6c0.4,0.2,0.8,0.4,1.2,0.6c0.2,0.2,0.4,0.4,0.6,0.7C261.8,36.9,261.9,37.2,261.9,37.6z"/>
<path class="st3" d="M268.4,37.6c0,0.6-0.3,1.3-0.8,1.7c-0.7,0.4-1.5,0.6-2.3,0.6c-0.4,0-0.9,0-1.3-0.1c-0.3-0.1-0.7-0.2-1-0.3v-1.6
	c0.4,0.2,0.8,0.3,1.2,0.4s0.8,0.2,1.2,0.2c0.7,0,1.1-0.2,1.1-0.6c0-0.1,0-0.3-0.1-0.4c-0.1-0.1-0.3-0.2-0.5-0.3s-0.5-0.3-0.9-0.4
	c-0.4-0.2-0.8-0.4-1.2-0.6c-0.2-0.2-0.4-0.4-0.6-0.7c-0.1-0.3-0.2-0.6-0.2-0.9c0-0.6,0.3-1.1,0.7-1.5c0.6-0.4,1.4-0.6,2.1-0.5
	c0.9,0,1.7,0.2,2.5,0.6l-0.6,1.4c-0.4-0.1-0.7-0.3-1-0.4s-0.6-0.1-0.9-0.1c-0.6,0-0.9,0.1-0.9,0.5c0,0.2,0.1,0.4,0.3,0.5
	c0.4,0.2,0.8,0.4,1.2,0.6c0.4,0.2,0.8,0.4,1.2,0.6c0.2,0.2,0.4,0.4,0.6,0.7C268.3,36.9,268.4,37.2,268.4,37.6z"/>
<path class="st3" d="M273.1,39.8c-1,0.1-1.9-0.3-2.7-0.9c-0.7-0.7-1-1.7-1-2.7c-0.1-1,0.3-2,0.9-2.8c0.6-0.7,1.5-1,2.5-1
	c0.9,0,1.7,0.3,2.3,0.9s0.9,1.5,0.8,2.4v0.9h-4.6c0,0.5,0.2,0.9,0.5,1.3c0.3,0.3,0.8,0.5,1.3,0.5c0.4,0,0.8,0,1.2-0.1
	c0.4-0.1,0.8-0.2,1.2-0.4v1.5c-0.3,0.2-0.7,0.3-1.1,0.4C274,39.7,273.6,39.8,273.1,39.8z M272.8,33.8c-0.4,0-0.7,0.1-1,0.4
	c-0.3,0.3-0.4,0.7-0.4,1.1h2.7c0-0.4-0.1-0.8-0.4-1.1C273.5,33.9,273.2,33.8,272.8,33.8L272.8,33.8z"/>
<path class="st3" d="M280.6,38.2c0.4,0,0.8-0.1,1.2-0.2v1.4c-0.6,0.2-1.2,0.3-1.8,0.3c-0.6,0.1-1.2-0.2-1.7-0.6
	c-0.4-0.5-0.6-1.1-0.5-1.8v-3.4h-0.9v-0.8l1.1-0.6l0.6-1.5h1.2v1.5h2V34h-2v3.4c0,0.2,0.1,0.5,0.2,0.6
	C280.1,38.2,280.3,38.3,280.6,38.2z"/>
<path class="st3" d="M288.2,37.6c0,0.6-0.2,1.3-0.8,1.7c-0.7,0.4-1.5,0.6-2.3,0.6c-0.4,0-0.9,0-1.3-0.1c-0.3-0.1-0.7-0.2-1-0.3v-1.6
	c0.4,0.2,0.8,0.3,1.2,0.4s0.8,0.2,1.2,0.2c0.7,0,1-0.2,1-0.6c0-0.1,0-0.3-0.1-0.4c-0.1-0.1-0.3-0.2-0.5-0.3s-0.5-0.3-0.9-0.4
	c-0.4-0.2-0.8-0.4-1.2-0.6c-0.2-0.2-0.4-0.4-0.6-0.7c-0.1-0.3-0.2-0.6-0.2-0.9c0-0.6,0.3-1.1,0.7-1.5c0.6-0.4,1.4-0.6,2.1-0.5
	c0.9,0,1.7,0.2,2.5,0.6l-0.6,1.4c-0.3-0.1-0.7-0.3-1-0.4c-0.3-0.1-0.7-0.1-1-0.1c-0.6,0-0.9,0.1-0.9,0.5c0,0.2,0.1,0.4,0.3,0.5
	c0.4,0.2,0.8,0.4,1.2,0.6s0.8,0.4,1.2,0.6c0.2,0.2,0.4,0.4,0.6,0.7C288.1,36.9,288.1,37.2,288.2,37.6z"/>
<path class="st3" d="M387.6,39.7v-9.3h2v7.7h3.8v1.6H387.6z"/>
<path class="st3" d="M394.7,30.7c0-0.6,0.4-0.9,1.1-0.9s1,0.3,1,0.9c0,0.3-0.1,0.5-0.3,0.7c-0.2,0.2-0.5,0.3-0.8,0.3
	C395.1,31.7,394.7,31.4,394.7,30.7z M396.7,39.7h-1.9v-7.1h1.9V39.7z"/>
<path class="st3" d="M403.3,39.7l-0.4-1h-0.1c-0.3,0.4-0.6,0.6-1,0.9c-0.4,0.2-0.9,0.3-1.4,0.2c-0.6,0-1.2-0.2-1.6-0.6
	c-0.4-0.5-0.6-1.1-0.6-1.7c0-0.7,0.3-1.3,0.8-1.7c0.7-0.4,1.5-0.6,2.4-0.6h1.2v-0.3c0-0.6-0.4-1-0.9-1.1c-0.1,0-0.1,0-0.2,0
	c-0.7,0-1.4,0.2-2,0.5l-0.6-1.3c0.8-0.4,1.8-0.6,2.7-0.6c0.8-0.1,1.6,0.2,2.2,0.6c0.5,0.5,0.8,1.2,0.8,1.9v4.7L403.3,39.7
	L403.3,39.7z M402.7,36.4h-0.8c-0.4,0-0.9,0.1-1.3,0.3c-0.3,0.2-0.4,0.5-0.4,0.9c0,0.5,0.3,0.8,0.9,0.8c0.4,0,0.8-0.1,1.1-0.4
	c0.3-0.3,0.4-0.6,0.4-1L402.7,36.4L402.7,36.4z"/>
<path class="st3" d="M410.6,32.4c0.8,0,1.6,0.3,2,1c1,1.7,1,3.7,0,5.4c-0.9,1.1-2.5,1.3-3.6,0.4c-0.2-0.1-0.3-0.3-0.4-0.4h-0.1
	l-0.3,0.8h-1.5v-9.9h1.9V32c0,0.3,0,0.8-0.1,1.4h0.1C409,32.8,409.7,32.4,410.6,32.4z M409.9,34c-0.4,0-0.8,0.1-1,0.4
	c-0.3,0.4-0.4,0.9-0.4,1.5v0.2c0,0.6,0.1,1.1,0.3,1.6c0.3,0.3,0.7,0.5,1.1,0.5s0.8-0.2,0.9-0.5c0.3-0.5,0.4-1,0.4-1.6
	c0-0.5-0.1-1.1-0.4-1.6C410.7,34.2,410.3,34,409.9,34L409.9,34z"/>
<path class="st3" d="M414.7,30.7c0-0.6,0.4-0.9,1.1-0.9s1,0.3,1,0.9c0,0.3-0.1,0.5-0.3,0.7c-0.2,0.2-0.5,0.3-0.8,0.3
	C415.1,31.7,414.7,31.4,414.7,30.7z M416.7,39.7h-1.9v-7.1h1.9V39.7z"/>
<path class="st3" d="M420.7,39.7h-1.9v-9.9h1.9V39.7z"/>
<path class="st3" d="M422.7,30.7c0-0.6,0.4-0.9,1-0.9s1,0.3,1,0.9c0,0.3-0.1,0.5-0.3,0.7c-0.2,0.2-0.5,0.3-0.8,0.3
	C423,31.7,422.7,31.4,422.7,30.7z M424.7,39.7h-1.9v-7.1h1.9V39.7z"/>
<path class="st3" d="M429.7,38.2c0.4,0,0.8-0.1,1.2-0.2v1.4c-0.6,0.2-1.2,0.3-1.8,0.3c-0.6,0.1-1.2-0.2-1.7-0.6
	c-0.4-0.5-0.6-1.1-0.5-1.8v-3.4H426v-0.8l1.1-0.6l0.5-1.5h1.2v1.5h2V34h-2v3.4c0,0.2,0.1,0.5,0.2,0.6
	C429.3,38.2,429.5,38.3,429.7,38.2z"/>
<path class="st3" d="M432.3,30.7c0-0.6,0.4-0.9,1-0.9s1,0.3,1,0.9c0,0.3-0.1,0.5-0.3,0.7c-0.2,0.2-0.5,0.3-0.8,0.3
	C432.6,31.7,432.3,31.4,432.3,30.7z M434.3,39.7h-1.9v-7.1h1.9V39.7z"/>
<path class="st3" d="M439.6,39.8c-1,0.1-1.9-0.3-2.7-0.9c-0.7-0.7-1-1.7-1-2.7c-0.1-1,0.3-2,0.9-2.8c1.3-1.3,3.4-1.3,4.8-0.1
	c0.6,0.6,0.9,1.5,0.8,2.4v0.9h-4.6c0,0.5,0.2,0.9,0.5,1.3c0.3,0.3,0.8,0.5,1.3,0.5c0.4,0,0.8,0,1.2-0.1s0.8-0.2,1.2-0.4v1.5
	c-0.3,0.2-0.7,0.3-1.1,0.4C440.5,39.7,440,39.8,439.6,39.8z M439.3,33.8c-0.4,0-0.7,0.1-1,0.4c-0.3,0.3-0.4,0.7-0.4,1.1h2.7
	c0-0.4-0.1-0.8-0.4-1.1C440,33.9,439.6,33.8,439.3,33.8L439.3,33.8z"/>
<path class="st3" d="M449,37.6c0,0.6-0.3,1.3-0.8,1.7c-0.7,0.4-1.5,0.6-2.3,0.6c-0.4,0-0.9,0-1.3-0.1c-0.3-0.1-0.7-0.2-1-0.3v-1.6
	c0.4,0.2,0.8,0.3,1.2,0.4s0.8,0.2,1.2,0.2c0.7,0,1.1-0.2,1.1-0.6c0-0.1,0-0.3-0.1-0.4s-0.3-0.2-0.5-0.3s-0.5-0.3-0.9-0.4
	c-0.4-0.2-0.8-0.4-1.2-0.6c-0.2-0.2-0.4-0.4-0.6-0.7c-0.1-0.3-0.2-0.6-0.2-0.9c0-0.6,0.3-1.1,0.7-1.5c0.6-0.4,1.4-0.6,2.1-0.5
	c0.9,0,1.7,0.2,2.5,0.6l-0.6,1.4c-0.4-0.1-0.7-0.3-1-0.4c-0.3-0.1-0.6-0.1-0.9-0.1c-0.6,0-0.9,0.1-0.9,0.5c0,0.2,0.1,0.4,0.3,0.5
	c0.4,0.2,0.8,0.4,1.2,0.6s0.8,0.4,1.2,0.6c0.2,0.2,0.4,0.4,0.6,0.7C448.9,36.9,449,37.2,449,37.6z"/>
<path class="st3" d="M549.6,37.1c0,0.8-0.3,1.5-0.9,2c-0.7,0.5-1.6,0.8-2.5,0.7c-0.9,0-1.8-0.2-2.6-0.6v-1.8c0.5,0.2,1,0.4,1.6,0.6
	c0.4,0.1,0.8,0.2,1.2,0.2s0.7-0.1,1-0.3c0.2-0.2,0.4-0.5,0.4-0.7s-0.1-0.3-0.2-0.5c-0.1-0.2-0.3-0.3-0.4-0.4
	c-0.4-0.2-0.8-0.4-1.2-0.6c-0.5-0.2-0.9-0.5-1.3-0.8c-0.3-0.2-0.5-0.5-0.7-0.9c-0.5-1-0.3-2.3,0.6-3.1c0.7-0.5,1.5-0.7,2.3-0.7
	c0.5,0,0.9,0.1,1.4,0.2s0.9,0.3,1.4,0.5l-0.6,1.5c-0.4-0.2-0.8-0.3-1.2-0.4c-0.3-0.1-0.7-0.1-1-0.1s-0.6,0.1-0.9,0.3
	c-0.2,0.2-0.3,0.4-0.3,0.7c0,0.2,0,0.3,0.1,0.5c0.1,0.1,0.2,0.3,0.4,0.4c0.4,0.2,0.8,0.5,1.3,0.6c0.7,0.3,1.3,0.7,1.8,1.2
	C549.5,36,549.6,36.5,549.6,37.1z"/>
<path class="st3" d="M554.2,38.2c0.4,0,0.8-0.1,1.2-0.2v1.4c-0.6,0.2-1.2,0.3-1.8,0.3c-0.6,0.1-1.2-0.2-1.7-0.6
	c-0.4-0.5-0.6-1.1-0.5-1.8v-3.4h-0.9v-0.8l1.1-0.6l0.5-1.5h1.2v1.5h2V34h-2v3.4c0,0.2,0.1,0.5,0.2,0.6
	C553.7,38.2,553.9,38.3,554.2,38.2z"/>
<path class="st3" d="M563.3,36.1c0.1,1-0.3,2-0.9,2.7c-0.7,0.7-1.6,1.1-2.5,1c-0.6,0-1.3-0.1-1.8-0.5c-0.5-0.3-0.9-0.7-1.2-1.3
	s-0.4-1.3-0.4-2c-0.1-1,0.3-2,0.9-2.7c0.7-0.7,1.6-1,2.5-1c0.6,0,1.3,0.1,1.8,0.5c0.5,0.3,0.9,0.7,1.2,1.3
	C563.1,34.7,563.3,35.4,563.3,36.1z M558.4,36.1c0,0.6,0.1,1.1,0.4,1.6c0.5,0.6,1.4,0.7,2,0.2c0.1-0.1,0.2-0.1,0.2-0.2
	c0.3-0.5,0.4-1,0.3-1.6c0-0.5-0.1-1.1-0.3-1.6c-0.5-0.6-1.5-0.7-2.1-0.2c-0.1,0.1-0.1,0.1-0.2,0.2C558.4,35,558.3,35.5,558.4,36.1
	L558.4,36.1z"/>
<path class="st3" d="M567.7,39.8c-2.2,0-3.3-1.2-3.3-3.6c-0.1-1,0.3-2,0.9-2.8c0.7-0.7,1.6-1.1,2.6-1c0.8,0,1.5,0.2,2.2,0.5
	l-0.6,1.5c-0.3-0.1-0.6-0.2-0.9-0.3c-0.3-0.1-0.5-0.1-0.8-0.1c-1,0-1.5,0.7-1.5,2.1s0.5,2.1,1.5,2.1c0.3,0,0.7-0.1,1-0.1
	c0.3-0.1,0.7-0.3,1-0.5v1.6c-0.3,0.2-0.6,0.3-1,0.4C568.5,39.7,568.1,39.8,567.7,39.8z"/>
<path class="st3" d="M573.4,35.8l0.9-1.1l2-2.2h2.2l-2.8,3.1l3,4h-2.2l-2-2.9l-1,0.8v2.2h-1.9v-9.9h1.9v4.4L573.4,35.8L573.4,35.8z"
	/>
<path class="st3" d="M586.1,39.7h-1.9v-4.2c0-1-0.4-1.5-1.1-1.5c-0.5,0-0.9,0.2-1.2,0.5c-0.3,0.6-0.4,1.2-0.4,1.8v3.3h-1.9v-9.9h1.9
	v2c0,0.2,0,0.5,0,1.1v0.6h0.1c0.5-0.7,1.2-1.1,2.1-1c0.7,0,1.4,0.2,1.9,0.7s0.7,1.2,0.6,1.9L586.1,39.7z"/>
<path class="st3" d="M594.6,36.1c0.1,1-0.3,2-0.9,2.7c-0.7,0.7-1.6,1.1-2.5,1c-0.6,0-1.3-0.1-1.8-0.5c-0.5-0.3-0.9-0.7-1.2-1.3
	s-0.4-1.3-0.4-2c-0.1-1,0.3-2,0.9-2.7c0.7-0.7,1.6-1,2.6-1c0.6,0,1.3,0.1,1.8,0.5c0.5,0.3,0.9,0.7,1.2,1.3
	C594.5,34.7,594.6,35.4,594.6,36.1z M589.7,36.1c0,0.6,0.1,1.1,0.4,1.6c0.5,0.6,1.4,0.7,2,0.2c0.1-0.1,0.2-0.1,0.2-0.2
	c0.3-0.5,0.4-1,0.3-1.6c0-0.5-0.1-1.1-0.4-1.6c-0.5-0.6-1.5-0.7-2.1-0.2c-0.1,0.1-0.1,0.1-0.2,0.2C589.8,35,589.6,35.5,589.7,36.1
	L589.7,36.1z"/>
<path class="st3" d="M598.1,39.7h-1.9v-9.9h1.9V39.7z"/>
<path class="st3" d="M602.4,39.8c-0.8,0-1.6-0.3-2-1c-1-1.7-1-3.7,0-5.4c0.9-1.1,2.5-1.3,3.6-0.4c0.2,0.1,0.3,0.3,0.5,0.5h0.1
	c-0.1-0.5-0.1-0.9-0.1-1.4v-2.3h2v9.9H605l-0.4-0.9h-0.1C604,39.4,603.2,39.8,602.4,39.8z M603.1,38.2c0.4,0,0.8-0.1,1.1-0.4
	c0.3-0.4,0.4-1,0.4-1.5v-0.2c0-0.6-0.1-1.1-0.4-1.6c-0.3-0.3-0.7-0.5-1.1-0.5c-0.4,0-0.8,0.2-1,0.5c-0.3,0.5-0.4,1-0.4,1.6
	c0,0.5,0.1,1.1,0.4,1.6C602.3,38.1,602.7,38.3,603.1,38.2L603.1,38.2z"/>
<path class="st3" d="M611.6,39.8c-1,0.1-1.9-0.3-2.7-0.9c-0.7-0.7-1-1.7-1-2.7c-0.1-1,0.3-2,0.9-2.8c0.6-0.7,1.5-1,2.5-1
	c0.9,0,1.7,0.3,2.3,0.9c0.6,0.6,0.9,1.5,0.8,2.4v0.9h-4.6c0,0.5,0.2,0.9,0.5,1.3c0.3,0.3,0.8,0.5,1.3,0.5c0.4,0,0.8,0,1.2-0.1
	s0.8-0.2,1.2-0.4v1.5c-0.3,0.2-0.7,0.3-1.1,0.4C612.5,39.7,612.1,39.8,611.6,39.8z M611.3,33.8c-0.4,0-0.7,0.1-1,0.4
	s-0.4,0.7-0.4,1.1h2.7c0-0.4-0.1-0.8-0.4-1.1C612,33.9,611.7,33.8,611.3,33.8L611.3,33.8z"/>
<path class="st3" d="M620,32.4c0.2,0,0.4,0,0.7,0.1l-0.1,1.8c-0.2-0.1-0.4-0.1-0.6-0.1c-0.5,0-1,0.1-1.5,0.5
	c-0.4,0.3-0.5,0.8-0.5,1.3v3.6h-1.9v-7.1h1.5l0.3,1.2h0.1c0.2-0.4,0.5-0.7,0.9-1C619.2,32.5,619.6,32.4,620,32.4z"/>
<path class="st3" d="M623.5,30.4l0.1,0.1c-0.3,1-0.7,2-1.1,3h-1.4c0.3-1.2,0.5-2.3,0.6-3.2L623.5,30.4z"/>
<path class="st3" d="M629.7,37.6c0,0.6-0.3,1.3-0.8,1.7c-0.7,0.4-1.5,0.6-2.3,0.6c-0.4,0-0.9,0-1.3-0.1c-0.3-0.1-0.7-0.2-1-0.3v-1.6
	c0.4,0.2,0.8,0.3,1.2,0.4s0.8,0.2,1.2,0.2c0.7,0,1-0.2,1-0.6c0-0.1,0-0.3-0.1-0.4c-0.1-0.1-0.3-0.2-0.5-0.3s-0.5-0.3-0.9-0.4
	c-0.4-0.2-0.8-0.4-1.2-0.6c-0.2-0.2-0.4-0.4-0.5-0.7s-0.2-0.6-0.2-0.9c0-0.6,0.3-1.1,0.7-1.5c0.6-0.4,1.4-0.6,2.1-0.5
	c0.9,0,1.7,0.2,2.5,0.6l-0.6,1.4c-0.4-0.1-0.7-0.3-1-0.4s-0.6-0.1-1-0.1c-0.6,0-0.9,0.1-0.9,0.5c0,0.2,0.1,0.4,0.3,0.5
	c0.4,0.2,0.8,0.4,1.2,0.6c0.4,0.2,0.8,0.4,1.2,0.6c0.2,0.2,0.4,0.4,0.6,0.7C629.7,36.9,629.7,37.2,629.7,37.6z"/>
<path class="st3" d="M640.1,39.7h-5.4v-9.3h5.4V32h-3.4v2h3.1v1.7h-3.1v2.4h3.4V39.7z"/>
<path class="st3" d="M644.2,39.8c-0.8,0-1.6-0.3-2-1c-1-1.7-1-3.7,0-5.4c0.5-0.7,1.2-1,2-1c0.4,0,0.8,0.1,1.2,0.3s0.7,0.5,0.9,0.8
	h0.1l0.2-0.9h1.6v10.2h-1.9v-3c0-0.3,0-0.6,0.1-1.1h-0.1c-0.2,0.3-0.5,0.6-0.8,0.8C645,39.7,644.6,39.8,644.2,39.8z M644.8,38.3
	c0.4,0,0.8-0.1,1.1-0.4c0.3-0.4,0.4-1,0.4-1.5v-0.2c0-0.6-0.1-1.1-0.4-1.6c-0.3-0.3-0.7-0.5-1.1-0.5c-0.9,0-1.4,0.7-1.4,2.1
	c0,0.6,0.1,1.1,0.3,1.6C644,38.1,644.4,38.3,644.8,38.3L644.8,38.3z"/>
<path class="st3" d="M655.2,39.7l-0.3-0.9h-0.1c-0.2,0.3-0.5,0.6-0.9,0.8s-0.9,0.3-1.3,0.3c-0.7,0.1-1.4-0.2-1.9-0.7
	s-0.7-1.2-0.6-1.9v-4.6h1.9v4.1c0,0.4,0.1,0.8,0.3,1.1s0.5,0.4,0.9,0.4c0.5,0,0.9-0.2,1.2-0.5c0.3-0.6,0.4-1.2,0.4-1.8v-3.5h1.9v7.1
	L655.2,39.7L655.2,39.7z"/>
<path class="st3" d="M658.6,30.7c0-0.6,0.4-0.9,1-0.9s1.1,0.3,1.1,0.9c0,0.3-0.1,0.5-0.3,0.7s-0.5,0.3-0.8,0.3
	C658.9,31.7,658.6,31.4,658.6,30.7z M660.6,39.7h-1.9v-7.1h1.9V39.7z"/>
<path class="st3" d="M665.6,38.2c0.4,0,0.8-0.1,1.2-0.2v1.4c-0.6,0.2-1.2,0.3-1.8,0.3c-0.6,0.1-1.2-0.2-1.7-0.6
	c-0.4-0.5-0.6-1.1-0.5-1.8v-3.4h-0.9v-0.8l1.1-0.6l0.6-1.5h1.2v1.5h2V34h-2v3.4c0,0.2,0.1,0.5,0.2,0.6
	C665.2,38.2,665.4,38.3,665.6,38.2z"/>
<path class="st3" d="M667.3,32.6h2.1l1.3,4c0.1,0.4,0.2,0.8,0.2,1.2l0,0c0-0.4,0.1-0.8,0.3-1.2l1.3-4h2.1l-3,8
	c-0.2,0.7-0.6,1.2-1.2,1.7c-0.5,0.4-1.1,0.6-1.8,0.6c-0.3,0-0.7,0-1-0.1v-1.5c0.2,0.1,0.5,0.1,0.8,0.1s0.6-0.1,0.9-0.3
	c0.3-0.3,0.5-0.6,0.6-1l0.1-0.4L667.3,32.6z"/>
<path class="st4" d="M490.6,37.4h-5.7v-3.2h5.7v-5.7h3.2v5.7h5.7v3.2h-5.7V43h-3.2V37.4z"/>
<path class="st4" d="M328.9,34.5v-3.2h14.6v3.2H328.9z M328.9,40.2V37h14.6v3.2H328.9z"/>
<ellipse class="st5" cx="269.3" cy="132.6" rx="51" ry="35"/>
<path class="st4" d="M249.1,129.7h-1.7v-6.5h-2.2v-1.4h6v1.4H249v6.5H249.1z"/>
<path class="st4" d="M257.9,129.7h-1.6v-3.5c0-0.9-0.3-1.3-1-1.3c-0.4,0-0.8,0.1-1,0.5c-0.2,0.5-0.4,1-0.3,1.5v2.8h-1.6v-8.4h1.6
	v1.7c0,0.1,0,0.4,0,0.9v0.5h0.1c0.4-0.6,1-0.9,1.7-0.9c0.6,0,1.2,0.2,1.6,0.6c0.4,0.4,0.6,1,0.6,1.6L257.9,129.7z"/>
<path class="st4" d="M259.5,122.1c0-0.5,0.3-0.8,0.9-0.8s0.9,0.3,0.9,0.8c0,0.2-0.1,0.4-0.2,0.6c-0.2,0.2-0.4,0.2-0.7,0.2
	C259.8,122.9,259.5,122.7,259.5,122.1z M261.2,129.7h-1.7v-6h1.6v6H261.2z"/>
<path class="st4" d="M268.4,129.7h-1.6v-3.5c0-0.3,0-0.7-0.2-1c-0.2-0.2-0.4-0.3-0.7-0.3c-0.4,0-0.8,0.1-1,0.5
	c-0.2,0.5-0.3,1-0.3,1.5v2.8H263v-6h1.3l0.2,0.8l0,0c0.2-0.3,0.4-0.5,0.8-0.7c0.3-0.2,0.7-0.2,1.1-0.2c0.6,0,1.2,0.2,1.6,0.6
	c0.4,0.5,0.6,1,0.5,1.6L268.4,129.7z"/>
<path class="st4" d="M275.4,123.7v0.8l-0.9,0.2c0.2,0.3,0.3,0.6,0.3,0.9c0,0.6-0.2,1.1-0.7,1.5s-1.2,0.6-1.9,0.5h-0.3h-0.2
	c-0.1,0.1-0.2,0.3-0.3,0.4c0,0.2,0.3,0.4,0.9,0.4h1c0.5,0,1.1,0.1,1.5,0.4c0.4,0.3,0.5,0.8,0.5,1.2c0,0.7-0.3,1.3-0.9,1.6
	c-0.8,0.4-1.6,0.6-2.5,0.6c-0.7,0-1.3-0.1-1.9-0.4c-0.4-0.3-0.7-0.7-0.7-1.2c0-0.3,0.1-0.7,0.3-0.9c0.3-0.3,0.6-0.4,1-0.5
	c-0.2-0.1-0.3-0.2-0.4-0.4c-0.1-0.1-0.2-0.3-0.2-0.5s0.1-0.4,0.2-0.6c0.2-0.2,0.4-0.3,0.6-0.5c-0.3-0.1-0.6-0.4-0.8-0.6
	c-0.2-0.3-0.3-0.7-0.3-1.1c0-0.6,0.2-1.1,0.6-1.5c0.5-0.4,1.2-0.6,1.8-0.5c0.2,0,0.4,0,0.6,0c0.1,0,0.3,0,0.4,0.1L275.4,123.7z
	 M270.7,130.5c0,0.2,0.1,0.4,0.3,0.5c0.3,0.1,0.6,0.2,0.9,0.2c0.5,0,0.9-0.1,1.4-0.2c0.3-0.1,0.5-0.4,0.5-0.7c0-0.2-0.1-0.4-0.3-0.5
	c-0.3-0.1-0.6-0.1-0.9-0.1h-0.8c-0.3,0-0.5,0.1-0.8,0.2C270.8,130.1,270.7,130.3,270.7,130.5L270.7,130.5z M271.3,125.6
	c0,0.3,0.1,0.6,0.2,0.8c0.2,0.2,0.4,0.3,0.7,0.3c0.3,0,0.5-0.1,0.7-0.3c0.2-0.2,0.2-0.5,0.2-0.8c0-0.7-0.3-1.1-0.9-1.1
	S271.3,124.9,271.3,125.6L271.3,125.6z"/>
<path class="st4" d="M280.5,127.9c0,0.5-0.2,1.1-0.6,1.4c-0.6,0.4-1.2,0.5-1.9,0.5c-0.4,0-0.8,0-1.1-0.1c-0.3-0.1-0.6-0.1-0.9-0.3
	V128c0.3,0.1,0.7,0.3,1,0.4c0.3,0.1,0.7,0.1,1,0.1c0.6,0,0.9-0.2,0.9-0.5c0-0.1,0-0.2-0.1-0.3c-0.1-0.1-0.3-0.2-0.4-0.3
	c-0.2-0.1-0.4-0.2-0.8-0.4c-0.4-0.1-0.7-0.3-1-0.5c-0.2-0.1-0.4-0.3-0.5-0.6s-0.1-0.5-0.1-0.8c0-0.5,0.2-1,0.6-1.2
	c0.5-0.3,1.1-0.5,1.8-0.4c0.7,0,1.4,0.2,2.1,0.5l-0.5,1.2c-0.3-0.1-0.6-0.2-0.8-0.3c-0.3-0.1-0.5-0.1-0.8-0.1
	c-0.5,0-0.7,0.1-0.7,0.4c0,0.2,0.1,0.3,0.2,0.4c0.3,0.2,0.7,0.4,1,0.5c0.4,0.1,0.7,0.3,1,0.5c0.2,0.2,0.4,0.3,0.5,0.6
	C280.5,127.3,280.5,127.6,280.5,127.9z"/>
<path class="st4" d="M290.1,126.7c0.1,0.8-0.2,1.7-0.8,2.3c-0.6,0.6-1.3,0.9-2.2,0.8c-0.5,0-1.1-0.1-1.5-0.4c-0.4-0.2-0.8-0.6-1-1.1
	c-0.3-0.5-0.4-1.1-0.4-1.7c0-0.8,0.2-1.7,0.8-2.3s1.4-0.9,2.2-0.8c0.5,0,1.1,0.1,1.5,0.4s0.8,0.6,1,1.1
	C290,125.5,290.1,126.1,290.1,126.7z M286,126.7c0,0.5,0.1,0.9,0.3,1.4c0.2,0.3,0.6,0.5,0.9,0.5c0.4,0,0.7-0.1,0.9-0.5
	c0.4-0.9,0.4-1.8,0-2.7c-0.2-0.3-0.6-0.5-1-0.4c-0.4-0.1-0.8,0.1-1,0.4C286,125.8,285.9,126.2,286,126.7z"/>
<path class="st4" d="M294.8,124.9h-1.4v4.8h-1.6v-4.8h-0.9v-0.8l0.9-0.4v-0.4c-0.1-0.6,0.1-1.1,0.5-1.6c0.5-0.4,1-0.5,1.6-0.5
	c0.5,0,1,0.1,1.5,0.3l-0.4,1.2c-0.3-0.1-0.6-0.1-0.9-0.1c-0.2,0-0.4,0.1-0.5,0.2c-0.1,0.2-0.2,0.3-0.2,0.5v0.4h1.4V124.9z"/>
<path class="st4" d="M257.3,142.9l-2.3-6h1.7l1.2,3.4c0.1,0.4,0.2,0.8,0.2,1.2l0,0c0-0.4,0.1-0.8,0.3-1.2l1.2-3.4h1.8l-2.3,6H257.3z
	"/>
<path class="st4" d="M265.9,142.9l-0.3-0.8l0,0c-0.2,0.3-0.5,0.5-0.8,0.7c-0.4,0.1-0.8,0.2-1.2,0.2c-0.5,0-1-0.1-1.4-0.5
	c-0.3-0.4-0.5-0.9-0.5-1.4c0-0.6,0.2-1.1,0.7-1.4c0.6-0.3,1.3-0.5,2-0.5h1v-0.3c0.1-0.4-0.2-0.9-0.7-0.9c-0.1,0-0.2,0-0.2,0
	c-0.6,0-1.2,0.2-1.7,0.4l-0.6-1.1c0.7-0.4,1.5-0.5,2.3-0.5c0.7,0,1.3,0.1,1.9,0.5c0.4,0.4,0.7,1,0.6,1.6v4H265.9z M265.4,140.1h-0.6
	c-0.4,0-0.7,0.1-1.1,0.3c-0.2,0.2-0.4,0.4-0.3,0.7c0,0.5,0.3,0.7,0.8,0.7c0.3,0,0.7-0.1,0.9-0.3c0.2-0.2,0.4-0.5,0.3-0.9
	L265.4,140.1z"/>
<path class="st4" d="M270.4,142.9h-1.6v-8.4h1.6V142.9z"/>
<path class="st4" d="M276.4,142.9l-0.2-0.8h-0.1c-0.2,0.3-0.4,0.5-0.7,0.6c-0.3,0.2-0.7,0.2-1.1,0.2c-0.6,0-1.2-0.2-1.6-0.6
	c-0.4-0.5-0.6-1-0.5-1.6v-3.9h1.6v3.5c0,0.3,0.1,0.7,0.2,1c0.2,0.2,0.5,0.4,0.7,0.3c0.4,0,0.8-0.1,1-0.5c0.2-0.5,0.4-1,0.3-1.5v-2.8
	h1.6v6L276.4,142.9z"/>
<path class="st4" d="M282.1,143c-0.8,0-1.6-0.2-2.3-0.8c-0.6-0.6-0.9-1.4-0.8-2.3c-0.1-0.8,0.2-1.7,0.8-2.3c0.5-0.6,1.3-0.9,2.1-0.8
	c0.7-0.1,1.5,0.2,2,0.7s0.8,1.3,0.7,2v0.8h-3.9c0,0.4,0.1,0.8,0.4,1.1s0.7,0.4,1.1,0.4c0.3,0,0.7,0,1-0.1s0.7-0.2,1-0.4v1.3
	c-0.3,0.1-0.6,0.3-0.9,0.3C282.8,142.9,282.5,143,282.1,143z M281.8,137.9c-0.3,0-0.6,0.1-0.8,0.3c-0.2,0.3-0.3,0.6-0.3,0.9h2.3
	c0-0.3-0.1-0.7-0.3-0.9C282.4,138,282.1,137.9,281.8,137.9z"/>
<ellipse class="st6" cx="417.3" cy="132.6" rx="63.6" ry="35"/>
<path class="st4" d="M376.3,129.7l-0.6-1.9h-2.9l-0.6,1.9h-1.7l2.8-7.9h2l2.8,7.9H376.3z M375.3,126.4c-0.5-1.7-0.8-2.6-0.9-2.9
	s-0.1-0.4-0.1-0.5c-0.1,0.5-0.4,1.6-1,3.4H375.3z"/>
<path class="st4" d="M384.4,129.7h-1.6v-3.5c0-0.3,0-0.7-0.2-1c-0.2-0.2-0.4-0.3-0.7-0.3c-0.4,0-0.7,0.2-0.9,0.5
	c-0.2,0.5-0.3,1-0.3,1.5v2.8h-1.6v-6h1.3l0.2,0.8h0.1c0.2-0.3,0.4-0.5,0.7-0.6c0.3-0.2,0.7-0.2,1-0.2c0.7-0.1,1.4,0.3,1.8,0.9h0.2
	c0.2-0.3,0.4-0.5,0.7-0.6c0.3-0.2,0.7-0.2,1.1-0.2c0.6,0,1.1,0.1,1.5,0.5c0.4,0.5,0.6,1.1,0.5,1.7v3.9h-1.7v-3.5c0-0.3,0-0.7-0.2-1
	c-0.2-0.2-0.4-0.3-0.7-0.3c-0.4,0-0.7,0.1-0.9,0.4c-0.2,0.4-0.3,0.9-0.3,1.4V129.7L384.4,129.7z"/>
<path class="st4" d="M395.3,126.7c0.1,0.8-0.2,1.7-0.8,2.3s-1.3,0.9-2.1,0.8c-0.5,0-1.1-0.1-1.5-0.4c-0.4-0.2-0.8-0.6-1-1.1
	s-0.4-1.1-0.4-1.7c0-0.8,0.2-1.7,0.8-2.3s1.4-0.9,2.2-0.8c0.5,0,1.1,0.1,1.5,0.4s0.8,0.6,1,1.1C395.1,125.5,395.3,126.1,395.3,126.7
	z M391.1,126.7c0,0.5,0.1,0.9,0.3,1.4c0.2,0.3,0.6,0.5,1,0.5s0.7-0.1,0.9-0.5c0.4-0.9,0.4-1.8,0-2.7c-0.2-0.3-0.6-0.5-1-0.4
	c-0.4,0-0.7,0.1-0.9,0.4S391.1,126.2,391.1,126.7L391.1,126.7z"/>
<path class="st4" d="M400.9,129.7l-0.2-0.8h-0.2c-0.2,0.3-0.4,0.5-0.7,0.6c-0.3,0.2-0.7,0.2-1.1,0.2c-0.6,0-1.2-0.2-1.6-0.6
	c-0.4-0.5-0.6-1-0.5-1.6v-3.9h1.6v3.5c0,0.3,0.1,0.7,0.2,1c0.2,0.2,0.5,0.4,0.7,0.3c0.4,0,0.8-0.1,1-0.5c0.2-0.5,0.4-1,0.3-1.5v-2.9
	h1.6v6h-1.1L400.9,129.7L400.9,129.7z"/>
<path class="st4" d="M409.4,129.7h-1.6v-3.5c0-0.3-0.1-0.7-0.2-1c-0.2-0.2-0.5-0.3-0.7-0.3c-0.4,0-0.8,0.1-1,0.5
	c-0.2,0.5-0.3,1-0.3,1.5v2.8H404v-6h1.3l0.2,0.8h0.1c0.2-0.3,0.4-0.5,0.8-0.7c0.3-0.2,0.7-0.2,1.1-0.2c0.6,0,1.2,0.2,1.6,0.6
	c0.4,0.5,0.6,1,0.5,1.6L409.4,129.7z"/>
<path class="st4" d="M413.6,128.5c0.3,0,0.7-0.1,1-0.2v1.2c-0.5,0.2-1,0.3-1.5,0.3s-1-0.1-1.4-0.5c-0.3-0.4-0.5-1-0.4-1.5v-2.9h-0.8
	v-0.7l0.9-0.5l0.5-1.3h1.1v1.3h1.7v1.2H413v2.9c0,0.2,0.1,0.4,0.2,0.5C413.2,128.4,413.4,128.5,413.6,128.5z"/>
<path class="st4" d="M420,127.9c0,0.5-0.2,1.1-0.6,1.4c-0.6,0.4-1.2,0.5-1.9,0.5c-0.4,0-0.8,0-1.1-0.1c-0.3-0.1-0.6-0.1-0.9-0.3V128
	c0.3,0.1,0.7,0.3,1,0.4c0.3,0.1,0.7,0.1,1,0.1c0.6,0,0.9-0.2,0.9-0.5c0-0.1,0-0.2-0.1-0.3s-0.3-0.2-0.4-0.3
	c-0.2-0.1-0.5-0.2-0.8-0.4c-0.4-0.1-0.7-0.3-1-0.5c-0.2-0.1-0.4-0.3-0.5-0.6s-0.2-0.5-0.1-0.8c0-0.5,0.2-1,0.6-1.2
	c0.5-0.3,1.1-0.5,1.8-0.4c0.7,0,1.5,0.2,2.1,0.5l-0.5,1.2c-0.3-0.1-0.6-0.2-0.8-0.3c-0.3-0.1-0.5-0.1-0.8-0.1
	c-0.5,0-0.7,0.1-0.7,0.4c0,0.2,0.1,0.3,0.2,0.4c0.3,0.2,0.7,0.4,1,0.5c0.4,0.1,0.7,0.3,1,0.5c0.2,0.1,0.4,0.3,0.5,0.6
	C419.9,127.3,420,127.6,420,127.9z"/>
<path class="st4" d="M429.6,126.7c0,0.8-0.2,1.7-0.8,2.3s-1.3,0.9-2.1,0.8c-0.5,0-1.1-0.1-1.5-0.4c-0.4-0.3-0.8-0.6-1-1.1
	s-0.4-1.1-0.4-1.7c0-0.8,0.2-1.7,0.8-2.3s1.4-0.9,2.2-0.8c0.5,0,1.1,0.1,1.5,0.4s0.8,0.6,1,1.1C429.5,125.5,429.6,126.1,429.6,126.7
	z M425.5,126.7c0,0.5,0.1,0.9,0.3,1.4c0.2,0.3,0.6,0.5,1,0.5s0.7-0.1,0.9-0.5c0.4-0.9,0.4-1.8,0-2.7c-0.2-0.3-0.6-0.5-1-0.4
	c-0.4,0-0.7,0.1-1,0.4C425.6,125.7,425.4,126.2,425.5,126.7z"/>
<path class="st4" d="M435.9,129.7l-0.5-2.1l-0.6-2.6l0,0l-1.1,4.8h-1.8l-1.7-6h1.6l0.7,2.7c0.1,0.5,0.2,1.1,0.3,2l0,0
	c0-0.4,0.1-0.9,0.2-1.3l0.1-0.5l0.8-2.9h1.8l0.7,2.9c0,0.1,0,0.2,0.1,0.4s0.1,0.3,0.1,0.5s0,0.3,0.1,0.5c0.1,0.2,0,0.3,0,0.4l0,0
	c0-0.3,0.1-0.6,0.2-1.1s0.1-0.8,0.2-0.9l0.7-2.7h1.6l-1.7,6L435.9,129.7z"/>
<path class="st4" d="M443.1,129.8c-0.8,0-1.7-0.2-2.3-0.8s-0.9-1.4-0.8-2.3c-0.1-0.8,0.2-1.7,0.8-2.3c0.5-0.6,1.3-0.9,2.1-0.8
	c0.7-0.1,1.5,0.2,2,0.7s0.8,1.3,0.7,2v0.8h-3.9c0,0.4,0.1,0.8,0.4,1.1s0.7,0.4,1.1,0.4c0.3,0,0.7,0,1-0.1s0.7-0.2,1-0.4v1.3
	c-0.3,0.1-0.6,0.3-0.9,0.3C443.9,129.7,443.5,129.8,443.1,129.8z M442.9,124.7c-0.3,0-0.6,0.1-0.8,0.3c-0.2,0.3-0.3,0.6-0.3,0.9h2.3
	c0-0.3-0.1-0.7-0.3-0.9C443.5,124.8,443.2,124.7,442.9,124.7L442.9,124.7z"/>
<path class="st4" d="M448.8,129.8c-0.7,0-1.3-0.3-1.7-0.8c-0.8-1.4-0.8-3.2,0-4.6c0.4-0.5,1-0.8,1.7-0.8s1.4,0.3,1.7,0.9h0.1
	c-0.1-0.4-0.1-0.8-0.1-1.2v-1.9h1.6v8.4h-1.3l-0.3-0.8l0,0C450.1,129.5,449.5,129.8,448.8,129.8z M449.4,128.5
	c0.3,0,0.7-0.1,0.9-0.4c0.2-0.4,0.3-0.8,0.3-1.2v-0.2c0-0.5-0.1-1-0.3-1.4c-0.2-0.3-0.6-0.5-1-0.4c-0.3,0-0.7,0.2-0.9,0.5
	c-0.2,0.4-0.3,0.9-0.3,1.4s0.1,0.9,0.3,1.3C448.7,128.3,449,128.5,449.4,128.5L449.4,128.5z"/>
<path class="st4" d="M459.3,128.5c0.3,0,0.7-0.1,1-0.2v1.2c-0.5,0.2-1,0.3-1.5,0.3c-0.5,0.1-1.1-0.1-1.4-0.5s-0.5-1-0.4-1.5v-2.9
	h-0.8v-0.7l0.9-0.5l0.5-1.3h1v1.3h1.7v1.2h-1.8v2.9c0,0.2,0.1,0.4,0.2,0.5C458.8,128.4,459.1,128.5,459.3,128.5z"/>
<path class="st4" d="M466.9,126.7c0,0.8-0.2,1.7-0.8,2.3c-0.6,0.6-1.4,0.9-2.2,0.8c-0.5,0-1.1-0.1-1.5-0.4c-0.4-0.3-0.8-0.6-1-1.1
	s-0.4-1.1-0.4-1.7c-0.1-0.8,0.2-1.7,0.8-2.3s1.4-0.9,2.2-0.8c0.5,0,1.1,0.1,1.5,0.4s0.8,0.6,1,1.1
	C466.8,125.5,466.9,126.1,466.9,126.7z M462.8,126.7c0,0.5,0.1,0.9,0.3,1.4c0.2,0.3,0.6,0.5,1,0.5s0.7-0.1,0.9-0.5
	c0.4-0.9,0.4-1.8,0-2.7c-0.2-0.3-0.6-0.5-1-0.4c-0.4,0-0.7,0.1-0.9,0.4S462.8,126.2,462.8,126.7L462.8,126.7z"/>
<path class="st4" d="M387.9,141.7c0.3,0,0.7-0.1,1-0.2v1.2c-0.5,0.2-1,0.3-1.5,0.3c-0.5,0.1-1.1-0.1-1.4-0.5s-0.5-1-0.4-1.5v-2.9
	h-0.8v-0.7l0.9-0.5l0.5-1.3h1.1v1.3h1.7v1.2h-1.7v2.9c0,0.2,0.1,0.4,0.2,0.5C387.6,141.6,387.8,141.7,387.9,141.7z"/>
<path class="st4" d="M395.7,142.9h-1.6v-3.5c0-0.9-0.3-1.3-1-1.3c-0.4,0-0.8,0.1-1,0.5c-0.2,0.5-0.3,1-0.3,1.5v2.8h-1.6v-8.4h1.6
	v1.7c0,0.1,0,0.4,0,0.9v0.5h0.1c0.4-0.6,1-0.9,1.7-0.9c0.6,0,1.2,0.2,1.6,0.6c0.4,0.4,0.6,1,0.6,1.6L395.7,142.9z"/>
<path class="st4" d="M397.3,135.3c0-0.5,0.3-0.8,0.9-0.8s0.9,0.3,0.9,0.8c0,0.2-0.1,0.4-0.2,0.6c-0.2,0.2-0.4,0.2-0.7,0.2
	C397.6,136.1,397.3,135.8,397.3,135.3z M399.1,142.9h-1.6v-6h1.6V142.9z"/>
<path class="st4" d="M404.1,136.7c0.2,0,0.4,0,0.6,0l-0.1,1.5c-0.2,0-0.3,0-0.5,0c-0.4,0-0.9,0.1-1.2,0.4c-0.3,0.3-0.5,0.7-0.4,1.1
	v3h-1.6v-6h1.3l0.2,1h0.1c0.2-0.3,0.4-0.6,0.8-0.8C403.4,136.8,403.8,136.7,404.1,136.7z"/>
<path class="st4" d="M407.7,143c-0.7,0-1.3-0.3-1.7-0.8c-0.8-1.4-0.8-3.2,0-4.6c0.4-0.5,1-0.8,1.7-0.8s1.4,0.3,1.7,0.9h0.1
	c-0.1-0.4-0.1-0.8-0.1-1.2v-2h1.6v8.4h-1.3l-0.3-0.8h-0.1C409,142.7,408.3,143,407.7,143z M408.3,141.7c0.3,0,0.7-0.1,0.9-0.4
	c0.2-0.4,0.3-0.8,0.3-1.2v-0.2c0-0.5-0.1-1-0.3-1.4c-0.2-0.3-0.6-0.5-1-0.4c-0.3,0-0.7,0.2-0.9,0.5c-0.2,0.4-0.3,0.9-0.3,1.4
	s0.1,0.9,0.3,1.3C407.6,141.5,407.9,141.7,408.3,141.7z"/>
<path class="st4" d="M418.9,143c-0.6,0-1.3-0.3-1.7-0.8h-0.1c0.1,0.5,0.1,0.8,0.1,0.9v2.4h-1.6v-8.6h1.3l0.2,0.8h0.1
	c0.4-0.6,1-0.9,1.7-0.9s1.3,0.3,1.7,0.8c0.4,0.7,0.7,1.5,0.6,2.3c0,0.6-0.1,1.1-0.3,1.7c-0.2,0.4-0.4,0.8-0.8,1.1
	C419.8,142.9,419.3,143,418.9,143z M418.4,138.1c-0.3,0-0.7,0.1-0.9,0.4c-0.2,0.4-0.3,0.8-0.3,1.3v0.2c0,0.5,0.1,1,0.3,1.4
	c0.2,0.3,0.6,0.4,0.9,0.4c0.7,0,1.1-0.6,1.1-1.8c0-0.5-0.1-0.9-0.3-1.3C419.1,138.2,418.8,138,418.4,138.1z"/>
<path class="st4" d="M426.4,142.9l-0.3-0.8l0,0c-0.2,0.3-0.5,0.5-0.9,0.7c-0.4,0.1-0.8,0.2-1.1,0.2c-0.5,0-1-0.1-1.4-0.5
	s-0.5-0.9-0.5-1.4c0-0.6,0.2-1.1,0.7-1.4c0.6-0.3,1.3-0.5,2-0.5h1v-0.3c0-0.6-0.3-0.9-0.9-0.9s-1.2,0.2-1.7,0.4l-0.5-1.1
	c0.7-0.4,1.5-0.5,2.3-0.5c0.7,0,1.3,0.1,1.9,0.5c0.4,0.4,0.7,1,0.6,1.6v4H426.4z M425.9,140.1h-0.6c-0.4,0-0.7,0.1-1.1,0.3
	c-0.2,0.2-0.4,0.4-0.4,0.7c0,0.5,0.3,0.7,0.8,0.7c0.3,0,0.7-0.1,0.9-0.3c0.2-0.2,0.4-0.5,0.3-0.9L425.9,140.1z"/>
<path class="st4" d="M432.5,136.7c0.2,0,0.4,0,0.6,0l-0.1,1.5c-0.2,0-0.3,0-0.5,0c-0.4,0-0.9,0.1-1.2,0.4c-0.3,0.3-0.5,0.7-0.4,1.1
	v3h-1.6v-6h1.2l0.3,1h0.1c0.2-0.3,0.4-0.6,0.8-0.8C431.8,136.8,432.2,136.7,432.5,136.7z"/>
<path class="st4" d="M436.7,141.7c0.3,0,0.7-0.1,1-0.2v1.2c-0.5,0.2-1,0.3-1.5,0.3c-0.5,0.1-1.1-0.1-1.4-0.5s-0.5-1-0.4-1.5v-2.9
	h-0.9v-0.7l0.9-0.5l0.5-1.3h1v1.3h1.7v1.2h-1.7v2.9c0,0.2,0.1,0.4,0.2,0.5C436.3,141.6,436.5,141.7,436.7,141.7z"/>
<path class="st4" d="M438.9,135.3c0-0.5,0.3-0.8,0.9-0.8s0.9,0.3,0.9,0.8c0,0.2-0.1,0.4-0.2,0.6c-0.2,0.2-0.4,0.2-0.7,0.2
	C439.2,136.1,438.9,135.8,438.9,135.3z M440.6,142.9H439v-6h1.6V142.9z"/>
<path class="st4" d="M445,143c-0.8,0-1.7-0.2-2.3-0.8s-0.9-1.4-0.8-2.3c-0.1-0.8,0.2-1.7,0.8-2.3c1.1-1.1,2.9-1.1,4.1-0.1
	c0.5,0.5,0.8,1.3,0.7,2v0.8h-3.9c0,0.4,0.1,0.8,0.4,1.1s0.7,0.4,1.1,0.4c0.3,0,0.7,0,1-0.1s0.7-0.2,1-0.4v1.3
	c-0.3,0.1-0.6,0.3-0.9,0.3C445.8,142.9,445.4,143,445,143z M444.8,137.9c-0.3,0-0.6,0.1-0.8,0.3c-0.2,0.3-0.3,0.6-0.3,0.9h2.3
	c0-0.3-0.1-0.7-0.3-0.9C445.4,138,445.1,137.9,444.8,137.9L444.8,137.9z"/>
<path class="st4" d="M453,141.1c0,0.5-0.2,1.1-0.6,1.4c-0.6,0.4-1.2,0.5-1.9,0.5c-0.4,0-0.8,0-1.1-0.1c-0.3-0.1-0.6-0.1-0.9-0.3
	v-1.4c0.3,0.1,0.7,0.3,1,0.4c0.3,0.1,0.7,0.1,1,0.1c0.6,0,0.9-0.2,0.9-0.5c0-0.1,0-0.2-0.1-0.3s-0.3-0.2-0.4-0.3l-0.8-0.4
	c-0.4-0.1-0.7-0.3-1-0.5c-0.2-0.2-0.4-0.3-0.5-0.6c-0.1-0.2-0.2-0.5-0.1-0.8c0-0.5,0.2-1,0.6-1.2c0.5-0.3,1.1-0.5,1.8-0.4
	c0.7,0,1.5,0.2,2.1,0.5l-0.5,1.2c-0.3-0.1-0.6-0.2-0.8-0.3c-0.3-0.1-0.5-0.1-0.8-0.1c-0.5,0-0.7,0.1-0.7,0.4c0,0.2,0.1,0.3,0.2,0.4
	c0.3,0.2,0.7,0.4,1,0.5c0.4,0.1,0.7,0.3,1,0.5c0.2,0.1,0.4,0.3,0.5,0.6C452.9,140.5,453,140.8,453,141.1z"/>
<ellipse class="st7" cx="607.3" cy="132.6" rx="63.6" ry="35"/>
<path class="st4" d="M569.3,129.7l-0.6-1.9h-2.9l-0.6,1.9h-1.7l2.8-7.9h2l2.8,7.9H569.3z M568.3,126.4c-0.5-1.7-0.8-2.6-0.9-2.9
	c-0.1-0.3-0.1-0.4-0.1-0.5c-0.1,0.5-0.5,1.6-1,3.4H568.3z"/>
<path class="st4" d="M576.1,127.9c0,0.5-0.2,1.1-0.6,1.4c-0.6,0.4-1.2,0.5-1.9,0.5c-0.4,0-0.8,0-1.1-0.1s-0.6-0.1-0.9-0.3V128
	c0.3,0.1,0.7,0.3,1,0.4c0.3,0.1,0.7,0.1,1,0.1c0.6,0,0.9-0.2,0.9-0.5c0-0.1,0-0.2-0.1-0.3c-0.1-0.1-0.3-0.2-0.4-0.3
	c-0.2-0.1-0.5-0.2-0.8-0.4c-0.4-0.1-0.7-0.3-1-0.5c-0.2-0.1-0.4-0.3-0.5-0.6c-0.1-0.3-0.1-0.5-0.1-0.8c0-0.5,0.2-1,0.6-1.2
	c0.5-0.3,1.1-0.5,1.8-0.4c0.7,0,1.4,0.2,2.1,0.5l-0.5,1.2c-0.3-0.1-0.6-0.2-0.8-0.3c-0.3-0.1-0.5-0.1-0.8-0.1
	c-0.5,0-0.7,0.1-0.7,0.4c0,0.2,0.1,0.3,0.2,0.4c0.3,0.2,0.7,0.4,1,0.5c0.4,0.1,0.7,0.3,1,0.5c0.2,0.2,0.4,0.3,0.5,0.6
	C576,127.3,576,127.6,576.1,127.9z"/>
<path class="st4" d="M581.5,127.9c0,0.5-0.2,1.1-0.6,1.4c-0.6,0.4-1.2,0.5-1.9,0.5c-0.4,0-0.8,0-1.1-0.1s-0.6-0.1-0.9-0.3V128
	c0.3,0.1,0.7,0.3,1,0.4c0.3,0.1,0.7,0.1,1,0.1c0.6,0,0.9-0.2,0.9-0.5c0-0.1,0-0.2-0.1-0.3c-0.1-0.1-0.3-0.2-0.4-0.3l-0.8-0.4
	c-0.4-0.1-0.7-0.3-1-0.5c-0.2-0.2-0.4-0.3-0.5-0.6c-0.1-0.2-0.2-0.5-0.1-0.8c0-0.5,0.2-1,0.6-1.2c0.5-0.3,1.1-0.5,1.8-0.4
	c0.7,0,1.5,0.2,2.1,0.5l-0.5,1.2c-0.3-0.1-0.6-0.2-0.8-0.3c-0.3-0.1-0.5-0.1-0.8-0.1c-0.5,0-0.7,0.1-0.7,0.4c0,0.2,0.1,0.3,0.2,0.4
	c0.3,0.2,0.7,0.4,1,0.5c0.4,0.1,0.7,0.3,1,0.5c0.2,0.1,0.4,0.3,0.5,0.6C581.4,127.3,581.5,127.6,581.5,127.9z"/>
<path class="st4" d="M585.5,129.8c-0.8,0-1.6-0.2-2.3-0.8c-0.6-0.6-0.9-1.4-0.8-2.3c-0.1-0.8,0.2-1.7,0.8-2.3
	c1.1-1.1,2.9-1.1,4.1-0.1c0.5,0.5,0.8,1.3,0.7,2v0.8h-3.9c0,0.4,0.1,0.8,0.4,1.1c0.3,0.3,0.7,0.4,1.1,0.4c0.3,0,0.7,0,1-0.1
	s0.7-0.2,1-0.4v1.3c-0.3,0.1-0.6,0.2-0.9,0.3C586.3,129.7,585.9,129.8,585.5,129.8z M585.3,124.7c-0.3,0-0.6,0.1-0.8,0.3
	c-0.2,0.3-0.3,0.6-0.3,0.9h2.3c0-0.3-0.1-0.7-0.3-0.9C585.9,124.8,585.6,124.7,585.3,124.7z"/>
<path class="st4" d="M591.8,128.5c0.3,0,0.7-0.1,1-0.2v1.2c-0.5,0.2-1,0.3-1.5,0.3s-1-0.1-1.4-0.5c-0.3-0.4-0.5-1-0.5-1.5v-2.9h-0.8
	v-0.7l0.9-0.5l0.5-1.3h1v1.3h1.7v1.2H591v2.9c0,0.2,0.1,0.4,0.2,0.5C591.5,128.4,591.6,128.5,591.8,128.5z"/>
<path class="st4" d="M598.3,127.9c0,0.5-0.2,1.1-0.6,1.4c-0.6,0.4-1.2,0.5-1.9,0.5c-0.4,0-0.8,0-1.1-0.1s-0.6-0.1-0.9-0.3V128
	c0.3,0.1,0.7,0.3,1,0.4c0.3,0.1,0.7,0.1,1,0.1c0.6,0,0.9-0.2,0.9-0.5c0-0.1,0-0.2-0.1-0.3c-0.1-0.1-0.3-0.2-0.4-0.3
	c-0.2-0.1-0.5-0.2-0.8-0.4c-0.4-0.1-0.7-0.3-1-0.5c-0.2-0.1-0.4-0.3-0.5-0.6c-0.1-0.3-0.2-0.5-0.1-0.8c0-0.5,0.2-1,0.6-1.2
	c0.5-0.3,1.1-0.5,1.8-0.4c0.7,0,1.5,0.2,2.1,0.5l-0.5,1.2c-0.3-0.1-0.6-0.2-0.8-0.3c-0.3-0.1-0.5-0.1-0.8-0.1
	c-0.5,0-0.7,0.1-0.7,0.4c0,0.2,0.1,0.3,0.2,0.4c0.3,0.2,0.7,0.4,1,0.5c0.4,0.1,0.7,0.3,1,0.5c0.2,0.1,0.4,0.3,0.5,0.6
	C598.2,127.3,598.3,127.6,598.3,127.9z"/>
<path class="st4" d="M607.9,126.7c0.1,0.8-0.2,1.7-0.8,2.3s-1.3,0.9-2.1,0.8c-0.5,0-1.1-0.1-1.5-0.4c-0.4-0.2-0.8-0.6-1-1.1
	s-0.4-1.1-0.4-1.7c0-0.8,0.2-1.7,0.8-2.3s1.4-0.9,2.2-0.8c0.5,0,1.1,0.1,1.5,0.4s0.8,0.6,1,1.1C607.8,125.5,607.9,126.1,607.9,126.7
	z M603.7,126.7c0,0.5,0.1,0.9,0.3,1.4c0.2,0.3,0.6,0.5,1,0.5s0.7-0.1,0.9-0.5c0.4-0.9,0.4-1.8,0-2.7c-0.2-0.3-0.6-0.5-1-0.4
	c-0.4,0-0.7,0.1-1,0.4C603.8,125.7,603.7,126.2,603.7,126.7z"/>
<path class="st4" d="M614.2,129.7l-0.5-2.1l-0.6-2.6l0,0l-1.1,4.8h-1.8l-1.7-6h1.6l0.7,2.7c0.1,0.5,0.2,1.1,0.3,2l0,0
	c0-0.3,0.1-0.7,0.2-1.3l0.1-0.5l0.8-2.9h1.8l0.7,2.9c0,0.1,0,0.2,0.1,0.4c0.1,0.2,0.1,0.3,0.1,0.5s0,0.3,0.1,0.5
	c0.1,0.2,0,0.3,0,0.4l0,0c0-0.3,0.1-0.6,0.2-1.1c0.1-0.5,0.1-0.8,0.2-0.9l0.7-2.7h1.6l-1.7,6L614.2,129.7z"/>
<path class="st4" d="M624.2,129.7h-1.7v-3.5c0-0.3-0.1-0.7-0.2-1c-0.2-0.2-0.5-0.3-0.7-0.3c-0.4,0-0.8,0.1-1,0.5
	c-0.2,0.5-0.4,1-0.3,1.5v2.8h-1.6v-6h1.3l0.2,0.8h0.1c0.2-0.3,0.4-0.5,0.8-0.7c0.3-0.2,0.7-0.2,1.1-0.2c0.6,0,1.2,0.2,1.6,0.6
	c0.4,0.5,0.6,1,0.5,1.6L624.2,129.7z"/>
<path class="st4" d="M628.6,129.8c-0.8,0-1.7-0.2-2.3-0.8s-0.9-1.4-0.8-2.3c-0.1-0.8,0.2-1.7,0.8-2.3c0.5-0.6,1.3-0.9,2.1-0.8
	c0.7-0.1,1.5,0.2,2,0.7s0.8,1.3,0.7,2v0.8h-3.9c0,0.4,0.1,0.8,0.4,1.1c0.3,0.3,0.7,0.4,1.1,0.4c0.3,0,0.7,0,1-0.1s0.7-0.2,1-0.4v1.3
	c-0.3,0.1-0.6,0.3-0.9,0.3C629.4,129.7,629,129.8,628.6,129.8z M628.4,124.7c-0.3,0-0.6,0.1-0.8,0.3c-0.2,0.3-0.3,0.6-0.3,0.9h2.3
	c0-0.3-0.1-0.7-0.3-0.9C629,124.8,628.7,124.7,628.4,124.7L628.4,124.7z"/>
<path class="st4" d="M634.3,129.8c-0.7,0-1.3-0.3-1.7-0.8c-0.8-1.4-0.8-3.2,0-4.6c0.4-0.5,1-0.8,1.7-0.8s1.4,0.3,1.7,0.9h0.1
	c-0.1-0.4-0.1-0.8-0.1-1.2v-1.9h1.6v8.4h-1.3L636,129h-0.1C635.6,129.5,634.9,129.8,634.3,129.8z M634.8,128.5
	c0.3,0,0.7-0.1,0.9-0.4c0.2-0.4,0.3-0.8,0.3-1.2v-0.2c0-0.5-0.1-1-0.3-1.4c-0.2-0.3-0.6-0.5-1-0.4c-0.3,0-0.7,0.2-0.9,0.5
	c-0.2,0.4-0.3,0.9-0.3,1.4s0.1,0.9,0.3,1.3C634.1,128.3,634.5,128.5,634.8,128.5z"/>
<path class="st4" d="M645.5,123.5c0.7,0,1.3,0.3,1.7,0.8c0.8,1.4,0.8,3.2,0,4.6c-0.7,0.9-2.1,1.1-3,0.4c-0.1-0.1-0.2-0.2-0.3-0.3
	h-0.1l-0.3,0.7h-1.3v-8.4h1.6v1.9c0,0.3,0,0.6-0.1,1.2h0.1C644.2,123.9,644.8,123.5,645.5,123.5z M645,124.9c-0.3,0-0.7,0.1-0.9,0.4
	c-0.2,0.4-0.3,0.8-0.3,1.2v0.2c0,0.5,0.1,1,0.3,1.4c0.2,0.3,0.6,0.4,0.9,0.4s0.6-0.2,0.8-0.5c0.2-0.4,0.3-0.9,0.3-1.4
	s-0.1-0.9-0.3-1.3C645.6,125,645.3,124.9,645,124.9z"/>
<path class="st4" d="M648.3,123.7h1.8l1.1,3.4c0.1,0.3,0.2,0.7,0.2,1l0,0c0-0.3,0.1-0.7,0.2-1l1.1-3.4h1.8l-2.5,6.8
	c-0.2,0.6-0.5,1-1,1.4c-0.4,0.3-1,0.5-1.5,0.5c-0.3,0-0.6,0-0.8-0.1V131c0.2,0,0.4,0.1,0.6,0.1c0.3,0,0.5-0.1,0.8-0.3
	c0.2-0.2,0.4-0.5,0.5-0.8l0.1-0.3L648.3,123.7z"/>
<path class="st4" d="M578.6,141.1c0,0.5-0.2,1.1-0.6,1.4c-0.6,0.4-1.2,0.5-1.9,0.5c-0.4,0-0.7,0-1.1-0.1c-0.3-0.1-0.6-0.1-0.9-0.3
	v-1.4c0.3,0.1,0.7,0.3,1,0.4c0.3,0.1,0.7,0.1,1,0.1c0.6,0,0.9-0.2,0.9-0.5c0-0.1,0-0.2-0.1-0.3s-0.3-0.2-0.4-0.3
	c-0.2-0.1-0.5-0.2-0.8-0.4c-0.4-0.1-0.7-0.3-1-0.5c-0.2-0.1-0.4-0.3-0.5-0.6c-0.1-0.2-0.2-0.5-0.1-0.8c0-0.5,0.2-1,0.6-1.2
	c0.5-0.3,1.1-0.5,1.8-0.4c0.7,0,1.5,0.2,2.1,0.5l-0.5,1.2c-0.3-0.1-0.6-0.2-0.9-0.3s-0.5-0.1-0.8-0.1c-0.5,0-0.7,0.1-0.7,0.4
	c0,0.2,0.1,0.3,0.2,0.4c0.3,0.2,0.7,0.3,1,0.5c0.4,0.1,0.7,0.3,1,0.5C578.3,140,578.6,140.5,578.6,141.1L578.6,141.1z"/>
<path class="st4" d="M582.4,141.7c0.3,0,0.7-0.1,1-0.2v1.2c-0.5,0.2-1,0.3-1.5,0.3c-0.5,0.1-1.1-0.1-1.4-0.5s-0.5-1-0.5-1.5v-2.9
	h-0.8v-0.7l0.9-0.5l0.5-1.3h1v1.3h1.7v1.2h-1.7v2.9c0,0.2,0.1,0.4,0.2,0.5C582,141.6,582.2,141.7,582.4,141.7z"/>
<path class="st4" d="M590.1,139.8c0.1,0.8-0.2,1.7-0.8,2.3s-1.3,0.9-2.1,0.8c-0.5,0-1.1-0.1-1.5-0.4c-0.4-0.2-0.8-0.6-1-1.1
	s-0.4-1.1-0.4-1.7c0-0.8,0.2-1.7,0.8-2.3s1.4-0.9,2.2-0.8c0.5,0,1.1,0.1,1.5,0.4c0.4,0.3,0.8,0.6,1,1.1
	C590,138.7,590.1,139.3,590.1,139.8z M586,139.8c0,0.5,0.1,0.9,0.3,1.4c0.2,0.3,0.6,0.5,1,0.5s0.7-0.1,0.9-0.5
	c0.4-0.9,0.4-1.8,0-2.7c-0.2-0.3-0.6-0.5-1-0.4c-0.4,0-0.7,0.1-1,0.4C586,138.9,585.9,139.4,586,139.8z"/>
<path class="st4" d="M593.9,143c-1.9,0-2.8-1-2.8-3.1c-0.1-0.9,0.2-1.7,0.8-2.3s1.4-0.9,2.2-0.8c0.6,0,1.3,0.1,1.9,0.4l-0.5,1.3
	c-0.3-0.1-0.5-0.2-0.7-0.3s-0.4-0.1-0.7-0.1c-0.9,0-1.3,0.6-1.3,1.8s0.4,1.8,1.3,1.8c0.3,0,0.6,0,0.9-0.1s0.6-0.2,0.8-0.4v1.4
	c-0.2,0.2-0.5,0.3-0.8,0.3C594.6,142.9,594.3,143,593.9,143z"/>
<path class="st4" d="M598.7,139.6l0.7-0.9l1.7-1.8h1.9l-2.4,2.6l2.5,3.4h-1.9l-1.7-2.4l-0.7,0.6v1.9h-1.6v-8.5h1.6v3.7L598.7,139.6
	L598.7,139.6z"/>
<path class="st4" d="M609.5,142.9h-1.6v-3.5c0-0.9-0.3-1.3-1-1.3c-0.4,0-0.8,0.1-1,0.5c-0.2,0.5-0.3,1-0.3,1.5v2.8H604v-8.4h1.6v1.7
	c0,0.1,0,0.4,0,0.9v0.5h0.1c0.4-0.6,1-0.9,1.7-0.9c0.6,0,1.2,0.2,1.6,0.6c0.4,0.4,0.6,1,0.5,1.6L609.5,142.9z"/>
<path class="st4" d="M616.6,139.8c0,0.8-0.2,1.7-0.8,2.3s-1.4,0.9-2.2,0.8c-0.5,0-1.1-0.1-1.5-0.4c-0.4-0.3-0.8-0.6-1-1.1
	s-0.4-1.1-0.4-1.7c0-0.8,0.2-1.7,0.8-2.3s1.4-0.9,2.2-0.8c0.5,0,1.1,0.1,1.5,0.4c0.4,0.3,0.8,0.6,1,1.1
	C616.5,138.7,616.6,139.3,616.6,139.8z M612.5,139.8c0,0.5,0.1,0.9,0.3,1.4c0.2,0.3,0.6,0.5,1,0.5s0.7-0.1,0.9-0.5
	c0.4-0.9,0.4-1.8,0-2.7c-0.2-0.3-0.6-0.5-1-0.4c-0.4,0-0.7,0.1-1,0.4C612.5,138.9,612.5,139.4,612.5,139.8z"/>
<path class="st4" d="M619.6,142.9H618v-8.4h1.6V142.9z"/>
<path class="st4" d="M623.3,143c-0.7,0-1.3-0.3-1.7-0.8c-0.8-1.4-0.8-3.2,0-4.6c0.4-0.5,1-0.8,1.7-0.8s1.3,0.3,1.7,0.9l0,0
	c-0.1-0.4-0.1-0.8-0.1-1.2v-2h1.6v8.4h-1.3l-0.3-0.8h-0.1C624.6,142.7,623.9,143,623.3,143z M623.8,141.7c0.3,0,0.7-0.1,0.9-0.4
	c0.2-0.4,0.3-0.8,0.3-1.2v-0.2c0-0.5-0.1-1-0.3-1.4c-0.2-0.3-0.6-0.5-1-0.4c-0.3,0-0.7,0.2-0.9,0.5c-0.2,0.4-0.3,0.9-0.3,1.4
	s0.1,0.9,0.3,1.3C623.1,141.5,623.5,141.7,623.8,141.7L623.8,141.7z"/>
<path class="st4" d="M631,143c-0.8,0-1.7-0.2-2.3-0.8s-0.9-1.4-0.8-2.3c-0.1-0.8,0.2-1.7,0.8-2.3c0.5-0.6,1.3-0.9,2.1-0.8
	c0.7-0.1,1.5,0.2,2,0.7s0.8,1.3,0.7,2v0.8h-3.9c0,0.4,0.1,0.8,0.4,1.1s0.7,0.4,1.1,0.4c0.3,0,0.7,0,1-0.1s0.7-0.2,1-0.4v1.3
	c-0.3,0.1-0.6,0.3-0.9,0.3C631.8,142.9,631.4,143,631,143z M630.8,137.9c-0.3,0-0.6,0.1-0.8,0.3c-0.2,0.3-0.3,0.6-0.3,0.9h2.3
	c0-0.3-0.1-0.7-0.3-0.9C631.4,138,631.1,137.9,630.8,137.9z"/>
<path class="st4" d="M638.2,136.7c0.2,0,0.4,0,0.6,0l-0.1,1.5c-0.2,0-0.3,0-0.5,0c-0.4,0-0.9,0.1-1.2,0.4c-0.3,0.3-0.5,0.7-0.4,1.1
	v3H635v-6h1.2l0.2,1h0.1c0.2-0.3,0.4-0.6,0.8-0.8C637.4,136.8,637.8,136.7,638.2,136.7z"/>
<path class="st4" d="M644,141.1c0,0.5-0.2,1.1-0.6,1.4c-0.6,0.4-1.2,0.5-1.9,0.5c-0.4,0-0.8,0-1.1-0.1s-0.6-0.1-0.9-0.3v-1.4
	c0.3,0.1,0.7,0.3,1,0.4c0.3,0.1,0.7,0.1,1,0.1c0.6,0,0.9-0.2,0.9-0.5c0-0.1,0-0.2-0.1-0.3s-0.3-0.2-0.4-0.3
	c-0.2-0.1-0.5-0.2-0.8-0.4c-0.4-0.1-0.7-0.3-1-0.5c-0.2-0.2-0.4-0.3-0.5-0.6c-0.1-0.2-0.2-0.5-0.1-0.8c0-0.5,0.2-1,0.6-1.2
	c0.5-0.3,1.1-0.5,1.8-0.4c0.7,0,1.5,0.2,2.1,0.5l-0.5,1.2c-0.3-0.1-0.6-0.2-0.8-0.3c-0.3-0.1-0.5-0.1-0.8-0.1
	c-0.5,0-0.7,0.1-0.7,0.4c0,0.2,0.1,0.3,0.2,0.4c0.3,0.2,0.7,0.4,1,0.5c0.4,0.1,0.7,0.3,1,0.5c0.2,0.1,0.4,0.3,0.5,0.6
	C643.9,140.5,644,140.8,644,141.1z"/>
<line class="st8" x1="268.8" y1="58.6" x2="268.8" y2="91.6"/>
<polygon class="st4" points="265.8,82.1 271.8,82.1 268.8,93.1 "/>
<line class="st8" x1="416.8" y1="58.6" x2="416.8" y2="91.6"/>
<polygon class="st4" points="413.8,82.1 419.8,82.1 416.8,93.1 "/>
<line class="st8" x1="607.8" y1="58.6" x2="607.8" y2="91.6"/>
<polygon class="st4" points="604.8,82.1 610.8,82.1 607.8,93.1 "/>
</svg>
