<?xml version="1.0" encoding="utf-8"?>
<!-- Generator: Adobe Illustrator 23.0.3, SVG Export Plug-In . SVG Version: 6.00 Build 0)  -->
<svg version="1.1" id="Layer_1" xmlns="http://www.w3.org/2000/svg" xmlns:xlink="http://www.w3.org/1999/xlink" x="0px" y="0px"
	 viewBox="0 0 1183.3 318.9" style="enable-background:new 0 0 1183.3 318.9;" xml:space="preserve">
<style type="text/css">
	.st0{fill:#CF6B3E;}
	.st1{fill:#F58553;}
	.st2{fill:#2A5CA8;}
	.st3{fill:#FFFFFF;}
	.st4{fill:#555554;}
	.st5{fill:#E8E7E7;}
	.st6{fill:none;stroke:#555554;stroke-miterlimit:10;}
	.st7{fill:#FFFFFF;stroke:#B0B0B0;stroke-miterlimit:10;}
</style>
<path class="st0" d="M726.9,63.8H555.4c-1.6,0-2.8-1.3-2.8-2.8V22c0-1.6,1.3-2.8,2.8-2.8h171.5c1.6,0,2.8,1.3,2.8,2.8v39
	C729.7,62.6,728.4,63.8,726.9,63.8z"/>
<path class="st1" d="M498.4,63.8h-95.5c-1.6,0-2.8-1.3-2.8-2.8V22c0-1.6,1.3-2.8,2.8-2.8h95.5c1.6,0,2.8,1.3,2.8,2.8v39
	C501.3,62.6,500,63.8,498.4,63.8z"/>
<path class="st2" d="M338.9,63.8h-75.5c-1.6,0-2.8-1.3-2.8-2.8V22c0-1.6,1.3-2.8,2.8-2.8h75.5c1.6,0,2.8,1.3,2.8,2.8v39
	C341.7,62.6,340.4,63.8,338.9,63.8z"/>
<g>
	<path class="st3" d="M286.6,46l-0.7-2.2h-3.4l-0.7,2.2h-2.1l3.3-9.3h2.4l3.3,9.3H286.6z M285.4,42.1c-0.6-2-1-3.1-1.1-3.4
		c-0.1-0.3-0.1-0.5-0.2-0.6c-0.1,0.5-0.5,1.9-1.2,4H285.4z"/>
	<path class="st3" d="M294.7,43.9c0,0.7-0.3,1.3-0.8,1.7c-0.5,0.4-1.3,0.6-2.3,0.6c-0.5,0-1,0-1.3-0.1c-0.4-0.1-0.7-0.2-1-0.3v-1.6
		c0.4,0.2,0.8,0.3,1.2,0.4c0.5,0.1,0.8,0.2,1.2,0.2c0.7,0,1.1-0.2,1.1-0.6c0-0.2,0-0.3-0.1-0.4c-0.1-0.1-0.3-0.2-0.5-0.3
		c-0.2-0.1-0.5-0.3-0.9-0.4c-0.5-0.2-0.9-0.4-1.2-0.6c-0.3-0.2-0.4-0.4-0.6-0.7c-0.1-0.3-0.2-0.6-0.2-0.9c0-0.6,0.2-1.1,0.7-1.5
		c0.5-0.3,1.2-0.5,2.1-0.5s1.7,0.2,2.5,0.6l-0.6,1.2c-0.4-0.2-0.7-0.3-1-0.4s-0.6-0.1-0.9-0.1c-0.6,0-0.9,0.2-0.9,0.5
		c0,0.2,0.1,0.3,0.3,0.5c0.2,0.1,0.6,0.3,1.2,0.6c0.6,0.2,1,0.4,1.2,0.6c0.2,0.2,0.4,0.4,0.6,0.7S294.7,43.5,294.7,43.9z"/>
	<path class="st3" d="M301.1,43.9c0,0.7-0.3,1.3-0.8,1.7c-0.5,0.4-1.3,0.6-2.3,0.6c-0.5,0-1,0-1.3-0.1c-0.4-0.1-0.7-0.2-1-0.3v-1.6
		c0.4,0.2,0.8,0.3,1.2,0.4c0.5,0.1,0.8,0.2,1.2,0.2c0.7,0,1.1-0.2,1.1-0.6c0-0.2,0-0.3-0.1-0.4s-0.3-0.2-0.5-0.3
		c-0.2-0.1-0.5-0.3-0.9-0.4c-0.5-0.2-0.9-0.4-1.2-0.6s-0.4-0.4-0.6-0.7c-0.1-0.3-0.2-0.6-0.2-0.9c0-0.6,0.2-1.1,0.7-1.5
		c0.5-0.3,1.2-0.5,2.1-0.5s1.7,0.2,2.5,0.6l-0.6,1.4c-0.4-0.2-0.7-0.3-1-0.4c-0.3-0.1-0.6-0.1-0.9-0.1c-0.6,0-0.9,0.2-0.9,0.5
		c0,0.2,0.1,0.3,0.3,0.5c0.2,0.1,0.6,0.3,1.2,0.6c0.6,0.2,1,0.4,1.2,0.6c0.2,0.2,0.4,0.4,0.6,0.7C301.1,43.6,301.1,43.5,301.1,43.9z
		"/>
	<path class="st3" d="M305.8,46.1c-1.1,0-2-0.3-2.7-0.9c-0.7-0.6-1-1.5-1-2.7s0.3-2.1,0.9-2.8c0.6-0.6,1.4-1,2.5-1
		c1,0,1.8,0.3,2.3,0.9s0.8,1.4,0.8,2.4v0.9H304c0,0.6,0.2,1,0.5,1.3s0.7,0.5,1.3,0.5c0.4,0,0.8,0,1.2-0.1s0.8-0.2,1.2-0.4v1.5
		c-0.3,0.2-0.7,0.3-1.1,0.4C306.9,46.1,306.4,46.1,305.8,46.1z M305.6,40.1c-0.4,0-0.7,0.1-1,0.4c-0.2,0.3-0.4,0.6-0.4,1.1h2.7
		c0-0.5-0.1-0.8-0.4-1.1C306.3,40.3,306,40.1,305.6,40.1z"/>
	<path class="st3" d="M313.3,44.6c0.3,0,0.7-0.1,1.2-0.2v1.4c-0.5,0.2-1.1,0.3-1.8,0.3c-0.8,0-1.3-0.2-1.7-0.6s-0.5-1-0.5-1.8v-3.4
		h-0.9v-0.8l1.1-0.6l0.6-1.5h1.2v1.5h2v1.5h-2v3.4c0,0.3,0.1,0.5,0.2,0.6C312.8,44.5,313,44.6,313.3,44.6z"/>
	<path class="st3" d="M320.9,43.9c0,0.7-0.3,1.3-0.8,1.7c-0.5,0.4-1.3,0.6-2.3,0.6c-0.5,0-1,0-1.3-0.1c-0.4-0.1-0.7-0.2-1-0.3v-1.6
		c0.4,0.2,0.8,0.3,1.2,0.4c0.5,0.1,0.8,0.2,1.2,0.2c0.7,0,1.1-0.2,1.1-0.6c0-0.2,0-0.3-0.1-0.4s-0.3-0.2-0.5-0.3
		c-0.2-0.1-0.5-0.3-0.9-0.4c-0.5-0.2-0.9-0.4-1.2-0.6s-0.4-0.4-0.6-0.7c-0.1-0.3-0.2-0.6-0.2-0.9c0-0.6,0.2-1.1,0.7-1.5
		c0.5-0.3,1.2-0.5,2.1-0.5s1.7,0.2,2.5,0.6l-0.6,1.4c-0.4-0.2-0.7-0.3-1-0.4c-0.3-0.1-0.6-0.1-0.9-0.1c-0.6,0-0.9,0.2-0.9,0.5
		c0,0.2,0.1,0.3,0.3,0.5c0.2,0.1,0.6,0.3,1.2,0.6c0.6,0.2,1,0.4,1.2,0.6c0.2,0.2,0.4,0.4,0.6,0.7S320.9,43.5,320.9,43.9z"/>
</g>
<g>
	<path class="st3" d="M420.3,46v-9.3h2v7.7h3.8V46C426.1,46,420.3,46,420.3,46z"/>
	<path class="st3" d="M427.4,37.1c0-0.6,0.4-0.9,1.1-0.9s1.1,0.3,1.1,0.9c0,0.3-0.1,0.5-0.3,0.7c-0.2,0.2-0.4,0.3-0.8,0.3
		C427.8,38,427.4,37.7,427.4,37.1z M429.5,46h-1.9v-7.1h1.9V46z"/>
	<path class="st3" d="M436,46l-0.4-1h-0.1c-0.3,0.4-0.7,0.7-1,0.9c-0.3,0.2-0.8,0.2-1.3,0.2c-0.7,0-1.2-0.2-1.6-0.6
		c-0.4-0.4-0.6-0.9-0.6-1.7c0-0.8,0.3-1.3,0.8-1.7c0.5-0.4,1.3-0.6,2.4-0.6h1.2v-0.3c0-0.7-0.4-1.1-1.1-1.1c-0.6,0-1.2,0.2-2,0.5
		l-0.6-1.3c0.8-0.4,1.7-0.6,2.7-0.6s1.7,0.2,2.2,0.6s0.8,1,0.8,1.9V46C437.4,46,436,46,436,46z M435.4,42.7h-0.7
		c-0.6,0-1,0.1-1.3,0.3s-0.4,0.5-0.4,0.9c0,0.5,0.3,0.8,0.9,0.8c0.4,0,0.8-0.1,1.1-0.4s0.4-0.6,0.4-1V42.7z"/>
	<path class="st3" d="M443.3,38.8c0.8,0,1.5,0.3,2,1s0.7,1.5,0.7,2.7s-0.2,2.1-0.7,2.7s-1.2,1-2,1c-0.8,0-1.5-0.3-2-0.9h-0.1
		l-0.3,0.8h-1.5v-9.9h1.9v2.3c0,0.3,0,0.8-0.1,1.4h0.1C441.7,39.1,442.4,38.8,443.3,38.8z M442.7,40.3c-0.5,0-0.8,0.1-1,0.4
		c-0.2,0.3-0.3,0.8-0.3,1.5v0.2c0,0.8,0.1,1.3,0.3,1.6c0.2,0.3,0.6,0.5,1.1,0.5c0.4,0,0.7-0.2,0.9-0.5c0.2-0.4,0.4-0.9,0.4-1.6
		s-0.1-1.2-0.4-1.6C443.4,40.5,443.1,40.3,442.7,40.3z"/>
	<path class="st3" d="M447.5,37.1c0-0.6,0.4-0.9,1.1-0.9s1.1,0.3,1.1,0.9c0,0.3-0.1,0.5-0.3,0.7c-0.2,0.2-0.4,0.3-0.8,0.3
		C447.8,38,447.5,37.7,447.5,37.1z M449.5,46h-1.9v-7.1h1.9V46z"/>
	<path class="st3" d="M453.5,46h-1.9v-9.9h1.9V46z"/>
	<path class="st3" d="M455.4,37.1c0-0.6,0.4-0.9,1.1-0.9s1.1,0.3,1.1,0.9c0,0.3-0.1,0.5-0.3,0.7c-0.2,0.2-0.4,0.3-0.8,0.3
		C455.8,38,455.4,37.7,455.4,37.1z M457.4,46h-1.9v-7.1h1.9V46z"/>
	<path class="st3" d="M462.5,44.6c0.3,0,0.7-0.1,1.2-0.2v1.4c-0.5,0.2-1.1,0.3-1.8,0.3c-0.8,0-1.3-0.2-1.7-0.6
		c-0.4-0.4-0.5-1-0.5-1.8v-3.4h-0.9v-0.8l1.1-0.6l0.6-1.5h1.2v1.5h2v1.5h-2v3.4c0,0.3,0.1,0.5,0.2,0.6
		C462,44.5,462.2,44.6,462.5,44.6z"/>
	<path class="st3" d="M465,37.1c0-0.6,0.4-0.9,1.1-0.9s1.1,0.3,1.1,0.9c0,0.3-0.1,0.5-0.3,0.7c-0.2,0.2-0.4,0.3-0.8,0.3
		C465.4,38,465,37.7,465,37.1z M467,46h-1.9v-7.1h1.9V46z"/>
	<path class="st3" d="M472.3,46.1c-1.1,0-2-0.3-2.7-0.9s-1-1.5-1-2.7s0.3-2.1,0.9-2.8c0.6-0.6,1.4-1,2.5-1c1,0,1.8,0.3,2.3,0.9
		s0.8,1.4,0.8,2.4v0.9h-4.6c0,0.6,0.2,1,0.5,1.3s0.7,0.5,1.3,0.5c0.4,0,0.8,0,1.2-0.1s0.8-0.2,1.2-0.4v1.5c-0.3,0.2-0.7,0.3-1.1,0.4
		C473.3,46.1,472.8,46.1,472.3,46.1z M472,40.1c-0.4,0-0.7,0.1-1,0.4c-0.2,0.3-0.4,0.6-0.4,1.1h2.7c0-0.5-0.1-0.8-0.4-1.1
		C472.8,40.3,472.4,40.1,472,40.1z"/>
	<path class="st3" d="M481.7,43.9c0,0.7-0.3,1.3-0.8,1.7c-0.5,0.4-1.3,0.6-2.3,0.6c-0.5,0-1,0-1.3-0.1c-0.4-0.1-0.7-0.2-1-0.3v-1.6
		c0.4,0.2,0.8,0.3,1.2,0.4c0.5,0.1,0.8,0.2,1.2,0.2c0.7,0,1.1-0.2,1.1-0.6c0-0.2,0-0.3-0.1-0.4s-0.3-0.2-0.5-0.3
		c-0.2-0.1-0.5-0.3-0.9-0.4c-0.5-0.2-0.9-0.4-1.2-0.6c-0.3-0.2-0.4-0.4-0.6-0.7c-0.1-0.3-0.2-0.6-0.2-0.9c0-0.6,0.2-1.1,0.7-1.5
		c0.5-0.3,1.2-0.5,2.1-0.5c0.9,0,1.7,0.2,2.5,0.6l-0.6,1.4c-0.4-0.2-0.7-0.3-1-0.4c-0.3-0.1-0.6-0.1-0.9-0.1c-0.6,0-0.9,0.2-0.9,0.5
		c0,0.2,0.1,0.3,0.3,0.5c0.2,0.1,0.6,0.3,1.2,0.6c0.6,0.2,1,0.4,1.2,0.6s0.4,0.4,0.6,0.7S481.7,43.5,481.7,43.9z"/>
</g>
<g>
	<path class="st3" d="M582.4,43.4c0,0.8-0.3,1.5-0.9,2s-1.4,0.7-2.5,0.7c-1,0-1.9-0.2-2.6-0.6v-1.8c0.6,0.3,1.2,0.5,1.6,0.6
		s0.8,0.2,1.2,0.2c0.4,0,0.8-0.1,1-0.2s0.3-0.4,0.3-0.7c0-0.2-0.1-0.3-0.2-0.5c-0.1-0.1-0.3-0.3-0.4-0.4c-0.2-0.1-0.6-0.3-1.2-0.6
		c-0.6-0.3-1-0.5-1.3-0.8c-0.3-0.2-0.5-0.5-0.7-0.9c-0.2-0.3-0.3-0.7-0.3-1.1c0-0.8,0.3-1.5,0.8-1.9s1.3-0.7,2.3-0.7
		c0.5,0,0.9,0.1,1.4,0.2c0.4,0.1,0.9,0.3,1.4,0.5l-0.6,1.5c-0.5-0.2-0.9-0.3-1.2-0.4s-0.6-0.1-1-0.1s-0.7,0.1-0.9,0.3
		c-0.2,0.2-0.3,0.4-0.3,0.7c0,0.2,0,0.3,0.1,0.5c0.1,0.1,0.2,0.3,0.4,0.4c0.2,0.1,0.6,0.3,1.2,0.7c0.9,0.4,1.5,0.8,1.8,1.2
		C582.2,42.3,582.4,42.8,582.4,43.4z"/>
	<path class="st3" d="M586.9,44.6c0.3,0,0.7-0.1,1.2-0.2v1.4c-0.5,0.2-1.1,0.3-1.8,0.3c-0.8,0-1.3-0.2-1.7-0.6
		c-0.4-0.4-0.5-1-0.5-1.8v-3.4h-0.9v-0.8l1.1-0.6l0.6-1.5h1.2v1.5h2v1.5h-2v3.4c0,0.3,0.1,0.5,0.2,0.6S586.6,44.6,586.9,44.6z"/>
	<path class="st3" d="M596,42.4c0,1.2-0.3,2.1-0.9,2.7c-0.6,0.6-1.5,1-2.5,1c-0.7,0-1.3-0.1-1.8-0.4s-0.9-0.7-1.2-1.3
		c-0.3-0.6-0.4-1.2-0.4-2c0-1.2,0.3-2.1,0.9-2.7c0.6-0.6,1.5-1,2.6-1c0.7,0,1.3,0.1,1.8,0.4s0.9,0.7,1.2,1.3S596,41.7,596,42.4z
		 M591.1,42.4c0,0.7,0.1,1.2,0.3,1.6c0.2,0.4,0.6,0.5,1.1,0.5s0.9-0.2,1.1-0.5c0.2-0.4,0.3-0.9,0.3-1.6s-0.1-1.2-0.3-1.6
		c-0.2-0.4-0.6-0.5-1.1-0.5s-0.9,0.2-1.1,0.5C591.2,41.2,591.1,41.7,591.1,42.4z"/>
	<path class="st3" d="M600.5,46.1c-2.2,0-3.3-1.2-3.3-3.6c0-1.2,0.3-2.1,0.9-2.8c0.6-0.6,1.5-1,2.6-1c0.8,0,1.6,0.2,2.2,0.5
		l-0.6,1.5c-0.3-0.1-0.6-0.2-0.9-0.3c-0.3-0.1-0.5-0.1-0.8-0.1c-1,0-1.5,0.7-1.5,2.1s0.5,2.1,1.5,2.1c0.4,0,0.7,0,1-0.1
		s0.6-0.3,1-0.5v1.7c-0.3,0.2-0.6,0.3-0.9,0.4C601.4,46.1,601,46.1,600.5,46.1z"/>
	<path class="st3" d="M606.1,42.1L607,41l2-2.2h2.2l-2.8,3.1l3,4h-2.2l-2-2.9l-0.8,0.7V46h-1.9v-9.9h1.9v4.4L606.1,42.1L606.1,42.1z
		"/>
	<path class="st3" d="M618.9,46H617v-4.1c0-1-0.4-1.5-1.1-1.5c-0.5,0-0.9,0.2-1.2,0.6c-0.3,0.4-0.4,1-0.4,1.8V46h-1.9v-9.9h1.9v2
		c0,0.2,0,0.5,0,1.1v0.6h0.1c0.4-0.7,1.1-1,2.1-1c0.8,0,1.5,0.2,1.9,0.7c0.4,0.5,0.6,1.1,0.6,1.9L618.9,46C619,46,618.9,46,618.9,46
		z"/>
	<path class="st3" d="M627.3,42.4c0,1.2-0.3,2.1-0.9,2.7c-0.6,0.6-1.5,1-2.5,1c-0.7,0-1.3-0.1-1.8-0.4s-0.9-0.7-1.2-1.3
		c-0.3-0.6-0.4-1.2-0.4-2c0-1.2,0.3-2.1,0.9-2.7c0.6-0.6,1.5-1,2.6-1c0.7,0,1.3,0.1,1.8,0.4s0.9,0.7,1.2,1.3S627.3,41.7,627.3,42.4z
		 M622.4,42.4c0,0.7,0.1,1.2,0.3,1.6c0.2,0.4,0.6,0.5,1.1,0.5s0.9-0.2,1.1-0.5c0.2-0.4,0.3-0.9,0.3-1.6s-0.1-1.2-0.3-1.6
		c-0.2-0.4-0.6-0.5-1.1-0.5s-0.9,0.2-1.1,0.5C622.5,41.2,622.4,41.7,622.4,42.4z"/>
	<path class="st3" d="M630.9,46H629v-9.9h1.9V46z"/>
	<path class="st3" d="M635.1,46.1c-0.8,0-1.5-0.3-2-1c-0.5-0.6-0.7-1.5-0.7-2.7s0.2-2.1,0.7-2.7s1.2-1,2-1c0.9,0,1.6,0.3,2,1h0.1
		c-0.1-0.5-0.1-1-0.1-1.4V36h1.9v10h-1.5l-0.4-0.9H637C636.7,45.8,636,46.1,635.1,46.1z M635.8,44.6c0.5,0,0.9-0.1,1.1-0.4
		c0.2-0.3,0.4-0.8,0.4-1.5v-0.2c0-0.8-0.1-1.3-0.4-1.6c-0.2-0.3-0.6-0.5-1.1-0.5c-0.4,0-0.8,0.2-1,0.5c-0.2,0.4-0.4,0.9-0.4,1.6
		s0.1,1.2,0.4,1.6C635,44.4,635.4,44.6,635.8,44.6z"/>
	<path class="st3" d="M644.3,46.1c-1.1,0-2-0.3-2.7-0.9c-0.6-0.6-1-1.5-1-2.7s0.3-2.1,0.9-2.8c0.6-0.6,1.4-1,2.5-1
		c1,0,1.8,0.3,2.3,0.9s0.8,1.4,0.8,2.4v0.9h-4.6c0,0.6,0.2,1,0.5,1.3s0.7,0.5,1.3,0.5c0.4,0,0.8,0,1.2-0.1s0.8-0.2,1.2-0.4v1.5
		c-0.3,0.2-0.7,0.3-1.1,0.4C645.4,46.1,644.9,46.1,644.3,46.1z M644.1,40.1c-0.4,0-0.7,0.1-1,0.4c-0.2,0.3-0.4,0.6-0.4,1.1h2.7
		c0-0.5-0.1-0.8-0.4-1.1C644.8,40.3,644.5,40.1,644.1,40.1z"/>
	<path class="st3" d="M652.8,38.8c0.3,0,0.5,0,0.7,0.1l-0.1,1.8c-0.2,0-0.3-0.1-0.6-0.1c-0.6,0-1.1,0.2-1.4,0.5
		c-0.3,0.3-0.5,0.8-0.5,1.3V46H649v-7.1h1.5l0.3,1.2h0.1c0.2-0.4,0.5-0.7,0.9-1C651.9,38.9,652.3,38.8,652.8,38.8z"/>
	<path class="st3" d="M656.3,36.7l0.1,0.1c-0.2,0.8-0.6,1.8-1.1,3h-1.4c0.3-1.3,0.5-2.3,0.6-3.2L656.3,36.7L656.3,36.7z"/>
	<path class="st3" d="M662.5,43.9c0,0.7-0.3,1.3-0.8,1.7c-0.5,0.4-1.3,0.6-2.3,0.6c-0.5,0-1,0-1.3-0.1c-0.4-0.1-0.7-0.2-1-0.3v-1.6
		c0.4,0.2,0.8,0.3,1.2,0.4c0.5,0.1,0.8,0.2,1.2,0.2c0.7,0,1.1-0.2,1.1-0.6c0-0.2,0-0.3-0.1-0.4s-0.3-0.2-0.5-0.3
		c-0.2-0.1-0.5-0.3-0.9-0.4c-0.5-0.2-0.9-0.4-1.2-0.6c-0.3-0.2-0.4-0.4-0.6-0.7c-0.1-0.3-0.2-0.6-0.2-0.9c0-0.6,0.2-1.1,0.7-1.5
		c0.5-0.3,1.2-0.5,2.1-0.5c0.9,0,1.7,0.2,2.5,0.6l-0.6,1.4c-0.4-0.2-0.7-0.3-1-0.4s-0.6-0.1-0.9-0.1c-0.6,0-0.9,0.2-0.9,0.5
		c0,0.2,0.1,0.3,0.3,0.5c0.2,0.1,0.6,0.3,1.2,0.6c0.6,0.2,1,0.4,1.2,0.6c0.3,0.2,0.4,0.4,0.6,0.7C662.4,43.2,662.5,43.5,662.5,43.9z
		"/>
	<path class="st3" d="M672.9,46h-5.3v-9.3h5.3v1.6h-3.4v2h3.1V42h-3.1v2.4h3.4V46z"/>
	<path class="st3" d="M676.9,46.1c-0.8,0-1.5-0.3-2-1c-0.5-0.6-0.7-1.5-0.7-2.7s0.2-2.1,0.7-2.7s1.1-1,2-1c0.4,0,0.8,0.1,1.2,0.3
		c0.3,0.2,0.6,0.4,0.9,0.8h0.1l0.2-0.9h1.6v10.2H679v-3c0-0.3,0-0.6,0.1-1.1H679c-0.2,0.3-0.5,0.6-0.8,0.8S677.3,46.1,676.9,46.1z
		 M677.6,44.6c0.5,0,0.9-0.1,1.1-0.4s0.4-0.8,0.4-1.5v-0.2c0-0.8-0.1-1.3-0.4-1.6c-0.2-0.3-0.6-0.5-1.1-0.5c-0.9,0-1.4,0.7-1.4,2.1
		c0,0.7,0.1,1.2,0.3,1.6S677.1,44.6,677.6,44.6z"/>
	<path class="st3" d="M687.9,46l-0.3-0.9h-0.1c-0.2,0.3-0.5,0.6-0.9,0.8c-0.4,0.2-0.8,0.3-1.3,0.3c-0.8,0-1.5-0.2-1.9-0.7
		c-0.4-0.4-0.6-1.1-0.6-1.9V39h1.9v4c0,0.5,0.1,0.9,0.3,1.2c0.2,0.3,0.5,0.4,0.9,0.4c0.5,0,0.9-0.2,1.2-0.5c0.2-0.4,0.4-1,0.4-1.8
		V39h1.9v7H687.9z"/>
	<path class="st3" d="M691.3,37.1c0-0.6,0.4-0.9,1.1-0.9c0.7,0,1.1,0.3,1.1,0.9c0,0.3-0.1,0.5-0.3,0.7s-0.4,0.3-0.8,0.3
		C691.7,38,691.3,37.7,691.3,37.1z M693.3,46h-1.9v-7.1h1.9V46z"/>
	<path class="st3" d="M698.4,44.6c0.3,0,0.7-0.1,1.2-0.2v1.4c-0.5,0.2-1.1,0.3-1.8,0.3c-0.8,0-1.3-0.2-1.7-0.6
		c-0.4-0.4-0.5-1-0.5-1.8v-3.4h-0.9v-0.8l1.1-0.6l0.6-1.5h1.2v1.5h2v1.5h-2v3.4c0,0.3,0.1,0.5,0.2,0.6S698.1,44.6,698.4,44.6z"/>
	<path class="st3" d="M700,38.9h2.1l1.3,4c0.1,0.3,0.2,0.8,0.2,1.2l0,0c0-0.4,0.1-0.8,0.3-1.2l1.3-4h2.1l-3,8
		c-0.3,0.7-0.7,1.3-1.2,1.7s-1.1,0.6-1.8,0.6c-0.3,0-0.7,0-1-0.1v-1.5c0.2,0.1,0.5,0.1,0.8,0.1s0.6-0.1,0.9-0.3
		c0.3-0.2,0.5-0.5,0.6-0.9l0.1-0.3L700,38.9z"/>
</g>
<g>
	<path class="st4" d="M523.3,43.7h-5.7v-3.2h5.7v-5.7h3.2v5.7h5.7v3.2h-5.7v5.6h-3.2V43.7z"/>
</g>
<g>
	<path class="st4" d="M361.6,40.9v-3.2h14.5v3.2H361.6z M361.6,46.5v-3.2h14.5v3.2H361.6z"/>
</g>
<path class="st5" d="M631.6,138.9c0,19.3-14.5,35-49.6,35s-46.6-15.7-46.6-35s11.5-35,46.6-35S631.6,119.6,631.6,138.9z"/>
<g>
	<path class="st4" d="M563.3,129.4c-0.6,0-1.1,0.2-1.5,0.7c-0.3,0.5-0.5,1.1-0.5,2c0,1.8,0.7,2.6,2,2.6c0.6,0,1.2-0.1,2-0.4v1.4
		c-0.6,0.3-1.4,0.4-2.2,0.4c-1.1,0-2-0.3-2.6-1c-0.6-0.7-0.9-1.7-0.9-3c0-0.8,0.1-1.5,0.4-2.1c0.3-0.6,0.7-1.1,1.3-1.4
		c0.6-0.3,1.2-0.5,2-0.5c0.8,0,1.5,0.2,2.3,0.6l-0.5,1.4c-0.3-0.1-0.6-0.3-0.9-0.4C563.9,129.5,563.6,129.4,563.3,129.4z"/>
	<path class="st4" d="M572.3,133c0,1-0.3,1.7-0.8,2.3s-1.2,0.8-2.2,0.8c-0.6,0-1.1-0.1-1.5-0.4c-0.4-0.3-0.8-0.6-1-1.1
		s-0.4-1-0.4-1.7c0-1,0.3-1.7,0.8-2.3c0.5-0.5,1.2-0.8,2.2-0.8c0.6,0,1.1,0.1,1.5,0.4c0.4,0.3,0.8,0.6,1,1.1
		C572.1,131.8,572.3,132.3,572.3,133z M568.2,133c0,0.6,0.1,1,0.3,1.3c0.2,0.3,0.5,0.5,1,0.5c0.4,0,0.8-0.2,0.9-0.5
		c0.2-0.3,0.3-0.8,0.3-1.4c0-0.6-0.1-1-0.3-1.3c-0.2-0.3-0.5-0.4-1-0.4c-0.4,0-0.8,0.1-0.9,0.4C568.3,131.9,568.2,132.4,568.2,133z"
		/>
	<path class="st4" d="M579,136h-1.6v-3.5c0-0.4-0.1-0.8-0.2-1c-0.1-0.2-0.4-0.3-0.7-0.3c-0.4,0-0.7,0.2-0.9,0.5
		c-0.2,0.3-0.3,0.8-0.3,1.5v2.8h-1.6v-6h1.3l0.2,0.8h0.1c0.2-0.3,0.4-0.5,0.7-0.6c0.3-0.2,0.7-0.2,1-0.2c0.9,0,1.5,0.3,1.8,0.9h0.1
		c0.2-0.3,0.4-0.5,0.7-0.6c0.3-0.2,0.7-0.2,1.1-0.2c0.7,0,1.2,0.2,1.5,0.5s0.5,0.9,0.5,1.7v3.9h-1.6v-3.5c0-0.4-0.1-0.8-0.2-1
		c-0.1-0.2-0.4-0.3-0.7-0.3c-0.4,0-0.7,0.1-0.9,0.4c-0.2,0.3-0.3,0.7-0.3,1.4V136z"/>
	<path class="st4" d="M589.8,136h-1.6v-3.5c0-0.4-0.1-0.8-0.2-1c-0.1-0.2-0.4-0.3-0.7-0.3c-0.4,0-0.7,0.2-0.9,0.5s-0.3,0.8-0.3,1.5
		v2.8h-1.6v-6h1.3l0.2,0.8h0.1c0.2-0.3,0.4-0.5,0.7-0.6c0.3-0.2,0.7-0.2,1-0.2c0.9,0,1.5,0.3,1.8,0.9h0.1c0.2-0.3,0.4-0.5,0.7-0.6
		c0.3-0.1,0.7-0.2,1.1-0.2c0.7,0,1.2,0.2,1.5,0.5s0.5,0.9,0.5,1.7v3.9h-1.6v-3.5c0-0.4-0.1-0.8-0.2-1c-0.1-0.2-0.4-0.3-0.7-0.3
		c-0.4,0-0.7,0.1-0.9,0.4c-0.2,0.3-0.3,0.7-0.3,1.4V136z"/>
	<path class="st4" d="M600.7,133c0,1-0.3,1.7-0.8,2.3s-1.2,0.8-2.2,0.8c-0.6,0-1.1-0.1-1.5-0.4c-0.4-0.3-0.8-0.6-1-1.1
		s-0.4-1-0.4-1.7c0-1,0.3-1.7,0.8-2.3c0.5-0.5,1.2-0.8,2.2-0.8c0.6,0,1.1,0.1,1.5,0.4c0.4,0.3,0.8,0.6,1,1.1
		C600.5,131.8,600.7,132.3,600.7,133z M596.6,133c0,0.6,0.1,1,0.3,1.3c0.2,0.3,0.5,0.5,1,0.5c0.4,0,0.8-0.2,0.9-0.5
		c0.2-0.3,0.3-0.8,0.3-1.4c0-0.6-0.1-1-0.3-1.3s-0.5-0.4-1-0.4c-0.4,0-0.8,0.1-0.9,0.4C596.7,131.9,596.6,132.4,596.6,133z"/>
	<path class="st4" d="M607.6,136H606v-3.5c0-0.4-0.1-0.8-0.2-1c-0.2-0.2-0.4-0.3-0.7-0.3c-0.5,0-0.8,0.2-1,0.5s-0.3,0.8-0.3,1.5v2.8
		h-1.6v-6h1.3l0.2,0.8h0.1c0.2-0.3,0.4-0.5,0.8-0.7c0.3-0.1,0.7-0.2,1.1-0.2c0.7,0,1.2,0.2,1.6,0.6c0.4,0.4,0.5,0.9,0.5,1.6v3.9
		L607.6,136L607.6,136z"/>
	<path class="st4" d="M574.3,147c0,0.7-0.3,1.3-0.8,1.7s-1.2,0.6-2.1,0.6c-0.8,0-1.6-0.2-2.2-0.5v-1.5c0.5,0.2,1,0.4,1.3,0.5
		c0.4,0.1,0.7,0.1,1,0.1c0.4,0,0.6-0.1,0.8-0.2c0.2-0.1,0.3-0.3,0.3-0.6c0-0.2,0-0.3-0.1-0.4c-0.1-0.1-0.2-0.2-0.4-0.3
		c-0.2-0.1-0.5-0.3-1-0.5s-0.8-0.4-1.1-0.6c-0.2-0.2-0.4-0.4-0.6-0.7c-0.1-0.3-0.2-0.6-0.2-1c0-0.7,0.2-1.2,0.7-1.6
		c0.5-0.4,1.1-0.6,2-0.6c0.4,0,0.8,0,1.2,0.1c0.4,0.1,0.8,0.2,1.2,0.4l-0.5,1.3c-0.4-0.2-0.8-0.3-1-0.4c-0.3-0.1-0.5-0.1-0.8-0.1
		c-0.3,0-0.6,0.1-0.7,0.2c-0.2,0.1-0.3,0.3-0.3,0.6c0,0.1,0,0.3,0.1,0.4c0.1,0.1,0.2,0.2,0.3,0.3c0.1,0.1,0.5,0.3,1.1,0.6
		c0.7,0.4,1.2,0.7,1.5,1.1C574.1,146.1,574.3,146.5,574.3,147z"/>
	<path class="st4" d="M578.1,148c0.3,0,0.6-0.1,1-0.2v1.2c-0.4,0.2-0.9,0.3-1.5,0.3c-0.7,0-1.1-0.2-1.4-0.5s-0.4-0.8-0.4-1.5v-2.9
		H575v-0.7l0.9-0.5l0.5-1.3h1v1.3h1.7v1.2h-1.7v2.9c0,0.2,0.1,0.4,0.2,0.5C577.7,147.9,577.9,148,578.1,148z"/>
	<path class="st4" d="M585.8,146.2c0,1-0.3,1.7-0.8,2.3s-1.2,0.8-2.2,0.8c-0.6,0-1.1-0.1-1.5-0.4c-0.4-0.3-0.8-0.6-1-1.1
		s-0.4-1-0.4-1.7c0-1,0.3-1.7,0.8-2.3c0.5-0.5,1.2-0.8,2.2-0.8c0.6,0,1.1,0.1,1.5,0.4c0.4,0.3,0.8,0.6,1,1.1
		C585.6,145,585.8,145.5,585.8,146.2z M581.7,146.2c0,0.6,0.1,1,0.3,1.3c0.2,0.3,0.5,0.5,1,0.5c0.4,0,0.8-0.2,0.9-0.5
		c0.2-0.3,0.3-0.8,0.3-1.4c0-0.6-0.1-1-0.3-1.3c-0.2-0.3-0.5-0.4-1-0.4c-0.4,0-0.8,0.1-0.9,0.4C581.8,145.1,581.7,145.6,581.7,146.2
		z"/>
	<path class="st4" d="M589.6,149.3c-1.9,0-2.8-1-2.8-3.1c0-1,0.3-1.8,0.8-2.3s1.2-0.8,2.2-0.8c0.7,0,1.3,0.1,1.9,0.4l-0.5,1.3
		c-0.3-0.1-0.5-0.2-0.7-0.3s-0.4-0.1-0.7-0.1c-0.9,0-1.3,0.6-1.3,1.8s0.4,1.8,1.3,1.8c0.3,0,0.6,0,0.9-0.1c0.3-0.1,0.5-0.2,0.8-0.4
		v1.4c-0.3,0.2-0.5,0.3-0.8,0.3C590.4,149.2,590,149.3,589.6,149.3z"/>
	<path class="st4" d="M594.4,145.9l0.7-0.9l1.7-1.8h1.8l-2.4,2.6l2.5,3.4h-1.9l-1.7-2.4l-0.7,0.6v1.9h-1.6v-8.4h1.6v3.7V145.9
		L594.4,145.9z"/>
</g>
<g>
	<line class="st6" x1="701.5" y1="64.9" x2="701.5" y2="97.9"/>
	<polygon class="st4" points="698.5,88.4 704.5,88.4 701.5,99.4 	"/>
</g>
<g>
	<line class="st6" x1="582.5" y1="64.9" x2="582.5" y2="97.9"/>
	<polygon class="st4" points="579.5,88.4 585.5,88.4 582.5,99.4 	"/>
</g>
<path class="st5" d="M750.6,138.9c0,19.3-14.5,35-49.6,35s-46.6-15.7-46.6-35s11.5-35,46.6-35S750.6,119.6,750.6,138.9z"/>
<g>
	<path class="st4" d="M680.8,133v3h-1.7v-7.9h2.3c1.1,0,1.9,0.2,2.4,0.6c0.5,0.4,0.8,1,0.8,1.8c0,0.5-0.1,0.9-0.4,1.2
		c-0.3,0.4-0.6,0.6-1.1,0.8c1.2,1.8,2,2.9,2.3,3.4h-1.8l-1.9-3L680.8,133L680.8,133z M680.8,131.6h0.5c0.5,0,0.9-0.1,1.2-0.3
		c0.3-0.2,0.4-0.5,0.4-0.8c0-0.4-0.1-0.6-0.4-0.8s-0.7-0.2-1.2-0.2h-0.5V131.6z"/>
	<path class="st4" d="M688.9,136.1c-1,0-1.7-0.3-2.3-0.8c-0.5-0.5-0.8-1.3-0.8-2.3s0.3-1.8,0.8-2.3s1.2-0.8,2.1-0.8
		c0.8,0,1.5,0.2,2,0.7s0.7,1.2,0.7,2v0.8h-3.9c0,0.5,0.2,0.8,0.4,1.1s0.6,0.4,1.1,0.4c0.4,0,0.7,0,1-0.1c0.3-0.1,0.7-0.2,1-0.4v1.3
		c-0.3,0.1-0.6,0.2-0.9,0.3C689.8,136.1,689.4,136.1,688.9,136.1z M688.7,131c-0.3,0-0.6,0.1-0.8,0.3c-0.2,0.2-0.3,0.5-0.3,0.9h2.3
		c0-0.4-0.1-0.7-0.3-0.9C689.3,131.1,689.1,131,688.7,131z"/>
	<path class="st4" d="M695.3,134.8c0.3,0,0.6-0.1,1-0.2v1.2c-0.4,0.2-0.9,0.3-1.5,0.3c-0.7,0-1.1-0.2-1.4-0.5
		c-0.3-0.3-0.4-0.8-0.4-1.5v-2.9h-0.8v-0.7l0.9-0.5l0.5-1.3h1v1.3h1.7v1.2h-1.7v2.9c0,0.2,0.1,0.4,0.2,0.5
		C694.9,134.7,695,134.8,695.3,134.8z"/>
	<path class="st4" d="M701.3,136l-0.3-0.8l0,0c-0.3,0.3-0.6,0.6-0.9,0.7c-0.3,0.1-0.7,0.2-1.1,0.2c-0.6,0-1-0.2-1.4-0.5
		c-0.4-0.3-0.5-0.8-0.5-1.4c0-0.6,0.2-1.1,0.7-1.4c0.4-0.3,1.1-0.5,2-0.5h1V132c0-0.6-0.3-0.9-0.9-0.9c-0.5,0-1,0.1-1.7,0.4
		l-0.5-1.1c0.7-0.4,1.5-0.5,2.3-0.5s1.4,0.2,1.9,0.5s0.6,0.9,0.6,1.6v4H701.3z M700.8,133.2h-0.6c-0.5,0-0.8,0.1-1.1,0.3
		c-0.2,0.2-0.3,0.4-0.3,0.7c0,0.5,0.3,0.7,0.8,0.7c0.4,0,0.7-0.1,0.9-0.3c0.2-0.2,0.3-0.5,0.3-0.9L700.8,133.2L700.8,133.2z"/>
	<path class="st4" d="M704.1,128.4c0-0.5,0.3-0.8,0.9-0.8s0.9,0.3,0.9,0.8c0,0.3-0.1,0.5-0.2,0.6c-0.1,0.1-0.4,0.2-0.7,0.2
		C704.4,129.2,704.1,129,704.1,128.4z M705.8,136h-1.6v-6h1.6V136z"/>
	<path class="st4" d="M713,136h-1.6v-3.5c0-0.4-0.1-0.8-0.2-1c-0.2-0.2-0.4-0.3-0.7-0.3c-0.5,0-0.8,0.2-1,0.5
		c-0.2,0.3-0.3,0.8-0.3,1.5v2.8h-1.6v-6h1.3l0.2,0.8h0.1c0.2-0.3,0.4-0.5,0.8-0.7c0.3-0.1,0.7-0.2,1.1-0.2c0.7,0,1.2,0.2,1.6,0.6
		c0.4,0.4,0.5,0.9,0.5,1.6v3.9L713,136L713,136z"/>
	<path class="st4" d="M717.5,136.1c-1,0-1.7-0.3-2.3-0.8c-0.5-0.5-0.8-1.3-0.8-2.3s0.3-1.8,0.8-2.3s1.2-0.8,2.1-0.8
		c0.8,0,1.5,0.2,2,0.7s0.7,1.2,0.7,2v0.8h-4c0,0.5,0.2,0.8,0.4,1.1s0.6,0.4,1.1,0.4c0.4,0,0.7,0,1-0.1c0.3-0.1,0.7-0.2,1-0.4v1.3
		c-0.3,0.1-0.6,0.2-0.9,0.3C718.3,136.1,717.9,136.1,717.5,136.1z M717.2,131c-0.3,0-0.6,0.1-0.8,0.3c-0.2,0.2-0.3,0.5-0.3,0.9h2.3
		c0-0.4-0.1-0.7-0.3-0.9C717.8,131.1,717.6,131,717.2,131z"/>
	<path class="st4" d="M723.1,136.1c-0.7,0-1.3-0.3-1.7-0.8s-0.6-1.3-0.6-2.3s0.2-1.8,0.6-2.3c0.4-0.5,1-0.8,1.7-0.8
		c0.8,0,1.3,0.3,1.7,0.9h0.1c-0.1-0.4-0.1-0.8-0.1-1.2v-1.9h1.6v8.4h-1.3l-0.3-0.8h-0.1C724.5,135.8,723.9,136.1,723.1,136.1z
		 M723.7,134.8c0.4,0,0.7-0.1,0.9-0.4c0.2-0.3,0.3-0.7,0.3-1.2V133c0-0.6-0.1-1.1-0.3-1.4c-0.2-0.3-0.5-0.4-1-0.4
		c-0.4,0-0.6,0.2-0.9,0.5c-0.2,0.3-0.3,0.8-0.3,1.4s0.1,1,0.3,1.3C723,134.6,723.3,134.8,723.7,134.8z"/>
	<path class="st4" d="M684.6,149.2h-4.5v-7.9h4.5v1.4h-2.9v1.7h2.7v1.4h-2.7v2h2.9V149.2z"/>
	<path class="st4" d="M689.9,149.2l-0.3-0.8l0,0c-0.3,0.3-0.6,0.6-0.9,0.7c-0.3,0.1-0.7,0.2-1.1,0.2c-0.6,0-1-0.2-1.4-0.5
		c-0.3-0.3-0.5-0.8-0.5-1.4c0-0.6,0.2-1.1,0.7-1.4c0.4-0.3,1.1-0.5,2-0.5h1v-0.3c0-0.6-0.3-0.9-0.9-0.9c-0.5,0-1,0.1-1.7,0.4
		l-0.5-1.1c0.7-0.4,1.5-0.5,2.3-0.5c0.8,0,1.4,0.2,1.9,0.5s0.6,0.9,0.6,1.6v4H689.9z M689.4,146.4h-0.6c-0.5,0-0.8,0.1-1.1,0.3
		c-0.2,0.2-0.3,0.4-0.3,0.7c0,0.5,0.3,0.7,0.8,0.7c0.4,0,0.7-0.1,0.9-0.3c0.2-0.2,0.3-0.5,0.3-0.9L689.4,146.4L689.4,146.4z"/>
	<path class="st4" d="M696.1,143.1c0.2,0,0.4,0,0.6,0l-0.1,1.5c-0.1,0-0.3-0.1-0.5-0.1c-0.5,0-0.9,0.1-1.2,0.4
		c-0.3,0.3-0.4,0.6-0.4,1.1v3.1h-1.6v-6h1.2l0.2,1h0.1c0.2-0.3,0.4-0.6,0.8-0.8C695.4,143.2,695.7,143.1,696.1,143.1z"/>
	<path class="st4" d="M703.3,149.2h-1.6v-3.5c0-0.4-0.1-0.8-0.2-1c-0.2-0.2-0.4-0.3-0.7-0.3c-0.5,0-0.8,0.2-1,0.5
		c-0.2,0.3-0.3,0.8-0.3,1.5v2.8h-1.6v-6h1.3l0.2,0.8h0.1c0.2-0.3,0.4-0.5,0.8-0.7c0.3-0.1,0.7-0.2,1.1-0.2c0.7,0,1.2,0.2,1.6,0.6
		c0.4,0.4,0.5,0.9,0.5,1.6v3.9L703.3,149.2L703.3,149.2z"/>
	<path class="st4" d="M704.9,141.6c0-0.5,0.3-0.8,0.9-0.8s0.9,0.3,0.9,0.8c0,0.3-0.1,0.5-0.2,0.6c-0.1,0.1-0.4,0.2-0.7,0.2
		C705.2,142.4,704.9,142.2,704.9,141.6z M706.6,149.2H705v-6h1.6V149.2z"/>
	<path class="st4" d="M713.9,149.2h-1.6v-3.5c0-0.4-0.1-0.8-0.2-1c-0.2-0.2-0.4-0.3-0.7-0.3c-0.5,0-0.8,0.2-1,0.5s-0.3,0.8-0.3,1.5
		v2.8h-1.6v-6h1.3l0.2,0.8h0.1c0.2-0.3,0.4-0.5,0.8-0.7c0.3-0.1,0.7-0.2,1.1-0.2c0.7,0,1.2,0.2,1.6,0.6c0.4,0.4,0.5,0.9,0.5,1.6v3.9
		L713.9,149.2L713.9,149.2z"/>
	<path class="st4" d="M720.8,143.2v0.8l-0.9,0.2c0.2,0.3,0.3,0.6,0.3,0.9c0,0.6-0.2,1.1-0.7,1.5s-1.1,0.5-1.9,0.5h-0.3h-0.2
		c-0.2,0.1-0.3,0.3-0.3,0.4c0,0.2,0.3,0.4,0.9,0.4h1c0.7,0,1.2,0.1,1.5,0.4c0.3,0.3,0.5,0.7,0.5,1.2c0,0.7-0.3,1.2-0.9,1.6
		c-0.6,0.4-1.4,0.6-2.5,0.6c-0.8,0-1.5-0.1-1.9-0.4c-0.4-0.3-0.7-0.7-0.7-1.2c0-0.4,0.1-0.7,0.3-0.9c0.2-0.2,0.6-0.4,1-0.5
		c-0.2-0.1-0.3-0.2-0.4-0.4s-0.2-0.3-0.2-0.5s0.1-0.4,0.2-0.6c0.1-0.2,0.3-0.3,0.6-0.4c-0.3-0.1-0.6-0.4-0.7-0.7
		c-0.1-0.3-0.3-0.7-0.3-1.1c0-0.7,0.2-1.2,0.6-1.5c0.4-0.4,1-0.5,1.8-0.5c0.2,0,0.4,0,0.6,0c0.2,0,0.4,0.1,0.4,0.1L720.8,143.2
		L720.8,143.2z M716.1,150c0,0.2,0.1,0.4,0.3,0.5c0.2,0.1,0.5,0.2,0.9,0.2c0.6,0,1-0.1,1.4-0.2c0.4-0.1,0.5-0.4,0.5-0.7
		c0-0.2-0.1-0.4-0.3-0.5c-0.2-0.1-0.5-0.1-0.9-0.1h-0.8c-0.3,0-0.6,0.1-0.8,0.2C716.2,149.6,716.1,149.8,716.1,150z M716.7,145.1
		c0,0.3,0.1,0.6,0.2,0.8s0.4,0.3,0.7,0.3s0.5-0.1,0.7-0.3c0.1-0.2,0.2-0.4,0.2-0.8c0-0.7-0.3-1.1-0.9-1.1
		C717,144.1,716.7,144.4,716.7,145.1z"/>
	<path class="st4" d="M726,147.4c0,0.6-0.2,1.1-0.6,1.4c-0.4,0.3-1.1,0.5-1.9,0.5c-0.4,0-0.8,0-1.1-0.1c-0.3-0.1-0.6-0.1-0.9-0.3
		v-1.4c0.3,0.1,0.6,0.3,1,0.4c0.4,0.1,0.7,0.1,1,0.1c0.6,0,0.9-0.2,0.9-0.5c0-0.1,0-0.2-0.1-0.3s-0.2-0.2-0.4-0.3
		c-0.2-0.1-0.5-0.2-0.8-0.4c-0.5-0.2-0.8-0.4-1-0.5c-0.2-0.2-0.4-0.4-0.5-0.6c-0.1-0.2-0.1-0.5-0.1-0.8c0-0.5,0.2-0.9,0.6-1.2
		c0.4-0.3,1-0.4,1.8-0.4c0.7,0,1.4,0.2,2.1,0.5l-0.5,1.2c-0.3-0.1-0.6-0.2-0.8-0.3c-0.3-0.1-0.5-0.1-0.8-0.1c-0.5,0-0.7,0.1-0.7,0.4
		c0,0.1,0.1,0.3,0.2,0.4c0.2,0.1,0.5,0.3,1,0.5s0.8,0.4,1,0.5c0.2,0.2,0.4,0.4,0.5,0.6C725.9,146.8,726,147.1,726,147.4z"/>
</g>
<g>
	<g>
		<line class="st6" x1="765.5" y1="191.9" x2="765.5" y2="224.9"/>
		<polygon class="st4" points="762.5,215.4 768.5,215.4 765.5,226.4 		"/>
	</g>
	<g>
		<line class="st6" x1="646.5" y1="191.9" x2="646.5" y2="224.9"/>
		<polygon class="st4" points="643.5,215.4 649.5,215.4 646.5,226.4 		"/>
	</g>
	<line class="st6" x1="646.5" y1="191.9" x2="765.5" y2="191.9"/>
	<line class="st6" x1="706" y1="190.4" x2="706" y2="174.4"/>
</g>
<path class="st5" d="M695.6,265.9c0,19.3-14.5,35-49.6,35s-46.6-15.7-46.6-35s11.5-35,46.6-35S695.6,246.6,695.6,265.9z"/>
<g>
	<path class="st4" d="M626.6,266v3H625v-7.9h2.3c1.1,0,1.9,0.2,2.4,0.6s0.8,1,0.8,1.8c0,0.5-0.1,0.9-0.4,1.2
		c-0.3,0.4-0.6,0.6-1.1,0.8c1.2,1.8,2,2.9,2.3,3.4h-1.8l-1.9-3h-1V266L626.6,266z M626.6,264.6h0.5c0.5,0,0.9-0.1,1.2-0.3
		c0.3-0.2,0.4-0.5,0.4-0.8c0-0.4-0.1-0.6-0.4-0.8c-0.3-0.2-0.7-0.2-1.2-0.2h-0.5V264.6z"/>
	<path class="st4" d="M634.8,269.1c-1,0-1.7-0.3-2.3-0.8c-0.5-0.5-0.8-1.3-0.8-2.3s0.3-1.8,0.8-2.3s1.2-0.8,2.1-0.8
		c0.8,0,1.5,0.2,2,0.7s0.7,1.2,0.7,2v0.8h-3.9c0,0.5,0.2,0.8,0.4,1.1c0.2,0.3,0.6,0.4,1.1,0.4c0.4,0,0.7,0,1-0.1s0.7-0.2,1-0.4v1.3
		c-0.3,0.1-0.6,0.2-0.9,0.3C635.7,269.1,635.3,269.1,634.8,269.1z M634.6,264c-0.3,0-0.6,0.1-0.8,0.3c-0.2,0.2-0.3,0.5-0.3,0.9h2.3
		c0-0.4-0.1-0.7-0.3-0.9C635.2,264.1,634.9,264,634.6,264z"/>
	<path class="st4" d="M640,269l-2.3-6h1.7l1.2,3.4c0.1,0.4,0.2,0.8,0.2,1.2l0,0c0-0.3,0.1-0.8,0.2-1.2l1.2-3.4h1.7l-2.3,6H640z"/>
	<path class="st4" d="M647.6,269.1c-1,0-1.7-0.3-2.3-0.8c-0.5-0.5-0.8-1.3-0.8-2.3s0.3-1.8,0.8-2.3s1.2-0.8,2.1-0.8
		c0.8,0,1.5,0.2,2,0.7s0.7,1.2,0.7,2v0.8h-3.9c0,0.5,0.2,0.8,0.4,1.1s0.6,0.4,1.1,0.4c0.4,0,0.7,0,1-0.1c0.3-0.1,0.7-0.2,1-0.4v1.3
		c-0.3,0.1-0.6,0.2-0.9,0.3C648.4,269.1,648,269.1,647.6,269.1z M647.3,264c-0.3,0-0.6,0.1-0.8,0.3c-0.2,0.2-0.3,0.5-0.3,0.9h2.3
		c0-0.4-0.1-0.7-0.3-0.9S647.7,264,647.3,264z"/>
	<path class="st4" d="M656.9,269h-1.6v-3.5c0-0.4-0.1-0.8-0.2-1c-0.2-0.2-0.4-0.3-0.7-0.3c-0.5,0-0.8,0.2-1,0.5s-0.3,0.8-0.3,1.5
		v2.8h-1.6v-6h1.3l0.2,0.8h0.1c0.2-0.3,0.4-0.5,0.8-0.7c0.3-0.1,0.7-0.2,1.1-0.2c0.7,0,1.2,0.2,1.6,0.6s0.5,0.9,0.5,1.6v3.9
		L656.9,269L656.9,269z"/>
	<path class="st4" d="M662.8,269l-0.2-0.8h-0.1c-0.2,0.3-0.4,0.5-0.7,0.6c-0.3,0.2-0.7,0.2-1.1,0.2c-0.7,0-1.2-0.2-1.6-0.6
		c-0.4-0.4-0.5-0.9-0.5-1.6V263h1.6v3.5c0,0.4,0.1,0.8,0.2,1c0.2,0.2,0.4,0.3,0.7,0.3c0.5,0,0.8-0.2,1-0.5s0.3-0.8,0.3-1.5V263h1.6
		v6H662.8z"/>
	<path class="st4" d="M668.5,269.1c-1,0-1.7-0.3-2.3-0.8c-0.5-0.5-0.8-1.3-0.8-2.3s0.3-1.8,0.8-2.3s1.2-0.8,2.1-0.8
		c0.8,0,1.5,0.2,2,0.7s0.7,1.2,0.7,2v0.8h-3.9c0,0.5,0.2,0.8,0.4,1.1c0.2,0.3,0.6,0.4,1.1,0.4c0.4,0,0.7,0,1-0.1s0.7-0.2,1-0.4v1.3
		c-0.3,0.1-0.6,0.2-0.9,0.3C669.4,269.1,669,269.1,668.5,269.1z M668.3,264c-0.3,0-0.6,0.1-0.8,0.3c-0.2,0.2-0.3,0.5-0.3,0.9h2.3
		c0-0.4-0.1-0.7-0.3-0.9C668.9,264.1,668.7,264,668.3,264z"/>
</g>
<path class="st5" d="M816.6,265.9c0,19.3-14.5,35-49.6,35s-46.6-15.7-46.6-35s11.5-35,46.6-35S816.6,246.6,816.6,265.9z"/>
<g>
	<path class="st4" d="M748.9,269h-4.5v-7.9h4.5v1.4H746v1.7h2.7v1.4H746v2h2.9V269z"/>
	<path class="st4" d="M751.6,265.9l-1.9-2.9h1.9l1.2,1.9l1.2-1.9h1.9l-2,2.9l2,3.1H754l-1.3-2.1l-1.3,2.1h-1.9L751.6,265.9z"/>
	<path class="st4" d="M760.1,269.1c-0.7,0-1.3-0.3-1.7-0.8h-0.1c0.1,0.5,0.1,0.8,0.1,0.9v2.4h-1.6V263h1.3l0.2,0.8h0.1
		c0.4-0.6,1-0.9,1.7-0.9c0.7,0,1.3,0.3,1.7,0.8c0.4,0.5,0.6,1.3,0.6,2.3c0,0.6-0.1,1.2-0.3,1.7s-0.5,0.8-0.8,1.1
		C761,269,760.5,269.1,760.1,269.1z M759.6,264.2c-0.4,0-0.7,0.1-0.9,0.4c-0.2,0.2-0.3,0.7-0.3,1.2v0.2c0,0.6,0.1,1.1,0.3,1.4
		s0.5,0.4,0.9,0.4c0.7,0,1.1-0.6,1.1-1.8c0-0.6-0.1-1-0.3-1.3C760.3,264.3,760,264.2,759.6,264.2z"/>
	<path class="st4" d="M766.5,269.1c-1,0-1.7-0.3-2.3-0.8c-0.5-0.5-0.8-1.3-0.8-2.3s0.3-1.8,0.8-2.3s1.2-0.8,2.1-0.8
		c0.8,0,1.5,0.2,2,0.7s0.7,1.2,0.7,2v0.8h-4c0,0.5,0.2,0.8,0.4,1.1c0.2,0.3,0.6,0.4,1.1,0.4c0.4,0,0.7,0,1-0.1s0.7-0.2,1-0.4v1.3
		c-0.3,0.1-0.6,0.2-0.9,0.3C767.3,269.1,766.9,269.1,766.5,269.1z M766.2,264c-0.3,0-0.6,0.1-0.8,0.3c-0.2,0.2-0.3,0.5-0.3,0.9h2.3
		c0-0.4-0.1-0.7-0.3-0.9C766.8,264.1,766.6,264,766.2,264z"/>
	<path class="st4" d="M775.8,269h-1.6v-3.5c0-0.4-0.1-0.8-0.2-1c-0.2-0.2-0.4-0.3-0.7-0.3c-0.5,0-0.8,0.2-1,0.5s-0.3,0.8-0.3,1.5
		v2.8h-1.6v-6h1.3l0.2,0.8h0.1c0.2-0.3,0.4-0.5,0.8-0.7c0.3-0.1,0.7-0.2,1.1-0.2c0.7,0,1.2,0.2,1.6,0.6c0.4,0.4,0.5,0.9,0.5,1.6v3.9
		L775.8,269L775.8,269z"/>
	<path class="st4" d="M781.7,267.2c0,0.6-0.2,1.1-0.6,1.4s-1.1,0.5-1.9,0.5c-0.4,0-0.8,0-1.1-0.1s-0.6-0.1-0.9-0.3v-1.4
		c0.3,0.1,0.6,0.3,1,0.4s0.7,0.1,1,0.1c0.6,0,0.9-0.2,0.9-0.5c0-0.1,0-0.2-0.1-0.3c-0.1-0.1-0.2-0.2-0.4-0.3
		c-0.2-0.1-0.5-0.2-0.8-0.4c-0.5-0.2-0.8-0.4-1-0.5c-0.2-0.2-0.4-0.4-0.5-0.6s-0.1-0.5-0.1-0.8c0-0.5,0.2-0.9,0.6-1.2
		c0.4-0.3,1-0.4,1.8-0.4c0.7,0,1.4,0.2,2.1,0.5l-0.5,1.2c-0.3-0.1-0.6-0.2-0.8-0.3c-0.3-0.1-0.5-0.1-0.8-0.1c-0.5,0-0.7,0.1-0.7,0.4
		c0,0.1,0.1,0.3,0.2,0.4c0.2,0.1,0.5,0.3,1,0.5s0.8,0.4,1,0.5c0.2,0.2,0.4,0.4,0.5,0.6C781.6,266.6,781.7,266.9,781.7,267.2z"/>
	<path class="st4" d="M785.7,269.1c-1,0-1.7-0.3-2.3-0.8c-0.5-0.5-0.8-1.3-0.8-2.3s0.3-1.8,0.8-2.3s1.2-0.8,2.1-0.8
		c0.8,0,1.5,0.2,2,0.7s0.7,1.2,0.7,2v0.8h-3.9c0,0.5,0.2,0.8,0.4,1.1s0.6,0.4,1.1,0.4c0.4,0,0.7,0,1-0.1s0.7-0.2,1-0.4v1.3
		c-0.3,0.1-0.6,0.2-0.9,0.3C786.5,269.1,786.1,269.1,785.7,269.1z M785.4,264c-0.3,0-0.6,0.1-0.8,0.3c-0.2,0.2-0.3,0.5-0.3,0.9h2.3
		c0-0.4-0.1-0.7-0.3-0.9C786,264.1,785.8,264,785.4,264z"/>
	<path class="st4" d="M793.6,267.2c0,0.6-0.2,1.1-0.6,1.4s-1.1,0.5-1.9,0.5c-0.4,0-0.8,0-1.1-0.1s-0.6-0.1-0.9-0.3v-1.4
		c0.3,0.1,0.6,0.3,1,0.4s0.7,0.1,1,0.1c0.6,0,0.9-0.2,0.9-0.5c0-0.1,0-0.2-0.1-0.3c-0.1-0.1-0.2-0.2-0.4-0.3
		c-0.2-0.1-0.5-0.2-0.8-0.4c-0.5-0.2-0.8-0.4-1-0.5c-0.2-0.2-0.4-0.4-0.5-0.6s-0.1-0.5-0.1-0.8c0-0.5,0.2-0.9,0.6-1.2
		c0.4-0.3,1-0.4,1.8-0.4c0.7,0,1.4,0.2,2.1,0.5l-0.5,1.2c-0.3-0.1-0.6-0.2-0.8-0.3c-0.3-0.1-0.5-0.1-0.8-0.1c-0.5,0-0.7,0.1-0.7,0.4
		c0,0.1,0.1,0.3,0.2,0.4c0.2,0.1,0.5,0.3,1,0.5s0.8,0.4,1,0.5c0.2,0.2,0.4,0.4,0.5,0.6C793.6,266.6,793.6,266.9,793.6,267.2z"/>
</g>
<g>
	<path class="st4" d="M703.4,269.2v-4.4h9.4v4.4H703.4z"/>
</g>
<g>
	<path class="st4" d="M821.6,263.9v-3.2h14.5v3.2H821.6z M821.6,269.5v-3.2h14.5v3.2H821.6z"/>
</g>
<path class="st7" d="M939.6,265.9c0,19.3-14.5,35-49.6,35s-46.6-15.7-46.6-35s11.5-35,46.6-35S939.6,246.6,939.6,265.9z"/>
<g>
	<path class="st4" d="M889.6,263h-2.1l-3.5-6l0,0c0.1,1,0.1,1.8,0.1,2.2v3.7h-1.5V255h2.1l3.4,5.9l0,0c-0.1-1-0.1-1.7-0.1-2.2V255
		h1.5L889.6,263L889.6,263z"/>
	<path class="st4" d="M894.1,263.1c-1,0-1.7-0.3-2.3-0.8c-0.5-0.5-0.8-1.3-0.8-2.3s0.3-1.8,0.8-2.3s1.2-0.8,2.1-0.8
		c0.8,0,1.5,0.2,2,0.7s0.7,1.2,0.7,2v0.8h-3.9c0,0.5,0.2,0.8,0.4,1.1s0.6,0.4,1.1,0.4c0.4,0,0.7,0,1-0.1s0.7-0.2,1-0.4v1.3
		c-0.3,0.1-0.6,0.2-0.9,0.3C895,263.1,894.6,263.1,894.1,263.1z M893.9,258c-0.3,0-0.6,0.1-0.8,0.3c-0.2,0.2-0.3,0.5-0.3,0.9h2.3
		c0-0.4-0.1-0.7-0.3-0.9C894.5,258.1,894.2,258,893.9,258z"/>
	<path class="st4" d="M900.4,261.8c0.3,0,0.6-0.1,1-0.2v1.2c-0.4,0.2-0.9,0.3-1.5,0.3c-0.7,0-1.1-0.2-1.4-0.5
		c-0.3-0.3-0.4-0.8-0.4-1.5v-2.9h-0.8v-0.7l0.9-0.5l0.5-1.3h1v1.3h1.7v1.2h-1.7v2.9c0,0.2,0.1,0.4,0.2,0.5S900.2,261.8,900.4,261.8z
		"/>
	<path class="st4" d="M872.4,276.2v-7.9h1.7v7.9H872.4z"/>
	<path class="st4" d="M881.4,276.2h-1.6v-3.5c0-0.4-0.1-0.8-0.2-1c-0.2-0.2-0.4-0.3-0.7-0.3c-0.5,0-0.8,0.2-1,0.5s-0.3,0.8-0.3,1.5
		v2.8H876v-6h1.3l0.2,0.8h0.1c0.2-0.3,0.4-0.5,0.8-0.7c0.3-0.1,0.7-0.2,1.1-0.2c0.7,0,1.2,0.2,1.6,0.6c0.4,0.4,0.5,0.9,0.5,1.6v3.9
		L881.4,276.2L881.4,276.2z"/>
	<path class="st4" d="M885.6,276.3c-1.9,0-2.8-1-2.8-3.1c0-1,0.3-1.8,0.8-2.3s1.2-0.8,2.2-0.8c0.7,0,1.3,0.1,1.9,0.4l-0.5,1.3
		c-0.3-0.1-0.5-0.2-0.7-0.3c-0.2-0.1-0.4-0.1-0.7-0.1c-0.9,0-1.3,0.6-1.3,1.8c0,1.2,0.4,1.8,1.3,1.8c0.3,0,0.6,0,0.9-0.1
		c0.3-0.1,0.5-0.2,0.8-0.4v1.4c-0.3,0.2-0.5,0.3-0.8,0.3S886,276.3,885.6,276.3z"/>
	<path class="st4" d="M894.2,273.2c0,1-0.3,1.7-0.8,2.3s-1.2,0.8-2.2,0.8c-0.6,0-1.1-0.1-1.5-0.4s-0.8-0.6-1-1.1s-0.4-1-0.4-1.7
		c0-1,0.3-1.7,0.8-2.3c0.5-0.5,1.2-0.8,2.2-0.8c0.6,0,1.1,0.1,1.5,0.4s0.8,0.6,1,1.1S894.2,272.5,894.2,273.2z M890.1,273.2
		c0,0.6,0.1,1,0.3,1.3s0.5,0.5,1,0.5c0.4,0,0.8-0.2,0.9-0.5c0.2-0.3,0.3-0.8,0.3-1.4s-0.1-1-0.3-1.3s-0.5-0.4-1-0.4
		c-0.4,0-0.8,0.1-0.9,0.4C890.2,272.1,890.1,272.6,890.1,273.2z"/>
	<path class="st4" d="M901,276.2h-1.6v-3.5c0-0.4-0.1-0.8-0.2-1c-0.1-0.2-0.4-0.3-0.7-0.3c-0.4,0-0.7,0.2-0.9,0.5s-0.3,0.8-0.3,1.5
		v2.8h-1.6v-6h1.3l0.2,0.8h0.1c0.2-0.3,0.4-0.5,0.7-0.6c0.3-0.2,0.7-0.2,1-0.2c0.9,0,1.5,0.3,1.8,0.9h0.1c0.2-0.3,0.4-0.5,0.7-0.6
		s0.7-0.2,1.1-0.2c0.7,0,1.2,0.2,1.5,0.5s0.5,0.9,0.5,1.7v3.9h-1.6v-3.5c0-0.4-0.1-0.8-0.2-1c-0.1-0.2-0.4-0.3-0.7-0.3
		c-0.4,0-0.7,0.1-0.9,0.4s-0.3,0.7-0.3,1.4L901,276.2L901,276.2z"/>
	<path class="st4" d="M909.1,276.3c-1,0-1.7-0.3-2.3-0.8c-0.5-0.5-0.8-1.3-0.8-2.3s0.3-1.8,0.8-2.3s1.2-0.8,2.1-0.8
		c0.8,0,1.5,0.2,2,0.7s0.7,1.2,0.7,2v0.8h-3.9c0,0.5,0.2,0.8,0.4,1.1s0.6,0.4,1.1,0.4c0.4,0,0.7,0,1-0.1s0.7-0.2,1-0.4v1.3
		c-0.3,0.1-0.6,0.2-0.9,0.3C910,276.3,909.6,276.3,909.1,276.3z M908.9,271.2c-0.3,0-0.6,0.1-0.8,0.3c-0.2,0.2-0.3,0.5-0.3,0.9h2.3
		c0-0.4-0.1-0.7-0.3-0.9C909.5,271.3,909.2,271.2,908.9,271.2z"/>
</g>
</svg>
