<?xml version="1.0" encoding="utf-8"?>
<!-- Generator: Adobe Illustrator 23.0.3, SVG Export Plug-In . SVG Version: 6.00 Build 0)  -->
<svg version="1.1" id="Layer_1" xmlns="http://www.w3.org/2000/svg" xmlns:xlink="http://www.w3.org/1999/xlink" x="0px" y="0px"
	 viewBox="0 0 707.3 381.9" style="enable-background:new 0 0 707.3 381.9;" xml:space="preserve">
<style type="text/css">
	.st0{fill:#CF6B3E;}
	.st1{fill:#F58553;}
	.st2{fill:#DCDBDB;}
	.st3{fill:#010101;}
	.st4{fill:#2A5CA8;}
	.st5{fill:#FFFFFF;}
	.st6{fill:#555554;}
	.st7{fill:#E8E7E7;}
	.st8{fill:none;stroke:#555554;stroke-miterlimit:10;}
	.st9{fill:#FFFFFF;stroke:#B0B0B0;stroke-miterlimit:10;}
</style>
<path class="st0" d="M474.9,126.8H303.4c-1.6,0-2.8-1.3-2.8-2.8V85c0-1.6,1.3-2.8,2.8-2.8h171.5c1.6,0,2.8,1.3,2.8,2.8v39
	C477.7,125.6,476.4,126.8,474.9,126.8z"/>
<path class="st1" d="M246.4,126.8h-95.5c-1.6,0-2.8-1.3-2.8-2.8V85c0-1.6,1.3-2.8,2.8-2.8h95.5c1.6,0,2.8,1.3,2.8,2.8v39
	C249.3,125.6,248,126.8,246.4,126.8z"/>
<path class="st2" d="M443.2,43.8H271.7c-1.6,0-2.8-1.3-2.8-2.8V10c0-1.6,1.3-2.8,2.8-2.8h171.5c1.6,0,2.8,1.3,2.8,2.8v31
	C446,42.6,444.7,43.8,443.2,43.8z"/>
<g>
	<path class="st3" d="M292.9,31l-0.7-2.4h-3.6l-0.8,2.4h-2.3l3.5-10h2.6l3.5,10H292.9z M291.7,26.8c-0.7-2.2-1-3.4-1.1-3.7
		s-0.1-0.5-0.2-0.7c-0.2,0.6-0.6,2-1.3,4.3h2.6V26.8z"/>
	<path class="st3" d="M299.4,31.1c-2.4,0-3.6-1.3-3.6-3.9c0-1.3,0.3-2.3,1-3c0.7-0.7,1.6-1,2.8-1c0.9,0,1.7,0.2,2.4,0.5l-0.6,1.6
		c-0.3-0.1-0.6-0.2-0.9-0.3s-0.6-0.1-0.8-0.1c-1.1,0-1.6,0.8-1.6,2.3s0.5,2.2,1.6,2.2c0.4,0,0.8-0.1,1.1-0.2c0.3-0.1,0.7-0.3,1-0.5
		v1.8c-0.3,0.2-0.7,0.4-1,0.4C300.5,30.9,299.9,31.1,299.4,31.1z"/>
	<path class="st3" d="M306.6,31.1c-2.4,0-3.6-1.3-3.6-3.9c0-1.3,0.3-2.3,1-3c0.7-0.7,1.6-1,2.8-1c0.9,0,1.7,0.2,2.4,0.5l-0.6,1.6
		c-0.3-0.1-0.6-0.2-0.9-0.3s-0.6-0.1-0.8-0.1c-1.1,0-1.6,0.8-1.6,2.3s0.5,2.2,1.6,2.2c0.4,0,0.8-0.1,1.1-0.2c0.3-0.1,0.7-0.3,1-0.5
		v1.8c-0.3,0.2-0.7,0.4-1,0.4C307.7,30.9,307.1,31.1,306.6,31.1z"/>
	<path class="st3" d="M317.6,27.1c0,1.2-0.3,2.2-1,2.9c-0.7,0.7-1.6,1.1-2.7,1.1c-0.7,0-1.4-0.2-1.9-0.5s-1-0.8-1.3-1.4
		c-0.3-0.6-0.5-1.3-0.5-2.1c0-1.2,0.3-2.2,1-2.9c0.7-0.7,1.6-1,2.7-1c0.7,0,1.4,0.2,1.9,0.5s1,0.8,1.3,1.4
		C317.4,25.7,317.6,26.3,317.6,27.1z M312.3,27.1c0,0.8,0.1,1.3,0.4,1.7s0.7,0.6,1.2,0.6c0.6,0,1-0.2,1.2-0.6c0.2-0.4,0.4-1,0.4-1.7
		c0-0.8-0.1-1.3-0.4-1.7s-0.6-0.6-1.2-0.6s-1,0.2-1.2,0.6C312.5,25.8,312.3,26.4,312.3,27.1z"/>
	<path class="st3" d="M324.8,31l-0.3-1h-0.1c-0.2,0.4-0.5,0.6-1,0.8s-0.9,0.3-1.4,0.3c-0.9,0-1.6-0.2-2-0.7s-0.7-1.2-0.7-2.1v-5h2.1
		v4.5c0,0.6,0.1,1,0.3,1.2c0.2,0.2,0.5,0.4,0.9,0.4c0.6,0,1-0.2,1.3-0.6c0.3-0.4,0.4-1,0.4-1.9v-3.6h2.1V31H324.8z"/>
	<path class="st3" d="M335.6,31h-2.1v-4.5c0-0.6-0.1-1-0.3-1.2c-0.2-0.2-0.5-0.4-0.9-0.4c-0.6,0-1,0.2-1.3,0.6
		c-0.3,0.4-0.4,1-0.4,1.9V31h-2.1v-7.6h1.6l0.3,1h0.1c0.2-0.4,0.6-0.6,1-0.8s0.9-0.3,1.4-0.3c0.9,0,1.6,0.2,2,0.7s0.7,1.2,0.7,2.1
		V31z"/>
	<path class="st3" d="M341,29.5c0.4,0,0.8-0.1,1.3-0.2v1.6c-0.5,0.2-1.2,0.3-1.9,0.3c-0.8,0-1.4-0.2-1.8-0.6
		c-0.4-0.4-0.6-1.1-0.6-1.9V25h-1v-1l1.1-0.7l0.6-1.6h1.3v1.6h2.1v1.6H340v3.7c0,0.3,0.1,0.5,0.2,0.7
		C340.3,29.5,340.7,29.5,341,29.5z"/>
	<path class="st3" d="M343.7,21.4c0-0.7,0.4-1,1.1-1s1.1,0.3,1.1,1c0,0.3-0.1,0.6-0.3,0.8c-0.2,0.2-0.5,0.3-0.9,0.3
		C344.1,22.4,343.7,22,343.7,21.4z M345.9,31h-2.1v-7.6h2.1V31z"/>
	<path class="st3" d="M355.1,31H353v-4.5c0-0.6-0.1-1-0.3-1.2c-0.2-0.2-0.5-0.4-0.9-0.4c-0.6,0-1,0.2-1.3,0.6
		c-0.3,0.4-0.4,1-0.4,1.9V31H348v-7.6h1.6l0.3,1h0.1c0.2-0.4,0.6-0.6,1-0.8s0.9-0.3,1.4-0.3c0.9,0,1.6,0.2,2,0.7s0.7,1.2,0.7,2.1V31
		z"/>
	<path class="st3" d="M363.9,23.3v1.1l-1.2,0.3c0.2,0.3,0.3,0.7,0.3,1.1c0,0.8-0.3,1.5-0.9,1.9c-0.6,0.4-1.4,0.7-2.4,0.7h-0.4H359
		c-0.2,0.2-0.3,0.3-0.3,0.5c0,0.3,0.4,0.5,1.1,0.5h1.3c0.8,0,1.5,0.2,1.9,0.5s0.7,0.9,0.7,1.6c0,0.9-0.4,1.6-1.1,2.1
		c-0.7,0.5-1.8,0.7-3.2,0.7c-1.1,0-1.9-0.2-2.4-0.6c-0.5-0.4-0.8-0.9-0.8-1.6c0-0.5,0.1-0.8,0.4-1.2s0.7-0.5,1.3-0.7
		c-0.2-0.1-0.4-0.2-0.6-0.4s-0.2-0.4-0.2-0.7c0-0.3,0.1-0.5,0.3-0.7c0.2-0.2,0.4-0.4,0.7-0.6c-0.4-0.2-0.7-0.5-1-0.8
		c-0.3-0.3-0.4-0.8-0.4-1.4c0-0.8,0.3-1.5,0.8-1.9s1.3-0.7,2.3-0.7c0.2,0,0.5,0,0.8,0.1c0.3,0.1,0.5,0.1,0.6,0.1h2.7V23.3z
		 M358,32.1c0,0.3,0.1,0.5,0.4,0.7s0.7,0.2,1.2,0.2c0.7,0,1.3-0.1,1.8-0.3c0.5-0.2,0.6-0.5,0.6-0.8s-0.1-0.5-0.4-0.6
		s-0.6-0.2-1.2-0.2h-1.1c-0.4,0-0.7,0.1-1,0.3C358,31.6,358,31.8,358,32.1z M358.8,25.8c0,0.4,0.1,0.7,0.3,1
		c0.2,0.3,0.5,0.4,0.9,0.4s0.7-0.1,0.9-0.4c0.2-0.3,0.3-0.6,0.3-1c0-0.9-0.4-1.4-1.1-1.4C359.2,24.5,358.8,24.9,358.8,25.8z"/>
	<path class="st3" d="M374.8,31H369V21h5.8v1.7h-3.6v2.2h3.4v1.7h-3.4v2.6h3.6V31z"/>
	<path class="st3" d="M379.1,31.1c-0.9,0-1.6-0.3-2.1-1s-0.8-1.7-0.8-2.9c0-1.2,0.3-2.2,0.8-2.9s1.2-1.1,2.1-1.1
		c0.5,0,0.9,0.1,1.3,0.3s0.7,0.5,1,0.8h0.1l0.2-1h1.8v11h-2.1v-3.2c0-0.3,0-0.7,0.1-1.1h-0.1c-0.2,0.4-0.5,0.6-0.9,0.8
		S379.6,31.1,379.1,31.1z M379.8,29.5c0.5,0,0.9-0.2,1.2-0.5s0.4-0.8,0.4-1.6v-0.3c0-0.8-0.1-1.4-0.4-1.8s-0.7-0.5-1.2-0.5
		c-1,0-1.5,0.8-1.5,2.3c0,0.8,0.1,1.3,0.4,1.7S379.3,29.5,379.8,29.5z"/>
	<path class="st3" d="M391,31l-0.3-1h-0.1c-0.2,0.4-0.5,0.6-1,0.8s-0.9,0.3-1.4,0.3c-0.9,0-1.6-0.2-2-0.7s-0.7-1.2-0.7-2.1v-5h2.1
		v4.5c0,0.6,0.1,1,0.3,1.2s0.5,0.4,0.9,0.4c0.6,0,1-0.2,1.3-0.6s0.4-1,0.4-1.9v-3.6h2.1V31H391z"/>
	<path class="st3" d="M399.6,31l-0.4-1h-0.1c-0.4,0.4-0.7,0.7-1.1,0.9s-0.9,0.3-1.5,0.3c-0.7,0-1.3-0.2-1.7-0.6s-0.6-1-0.6-1.8
		s0.3-1.4,0.9-1.8s1.4-0.6,2.6-0.6h1.3v-0.3c0-0.8-0.4-1.2-1.2-1.2c-0.6,0-1.3,0.2-2.2,0.6l-0.7-1.4c0.9-0.5,1.9-0.7,2.9-0.7
		s1.8,0.2,2.4,0.7s0.8,1.1,0.8,2V31H399.6z M399,27.4h-0.8c-0.6,0-1.1,0.1-1.4,0.3s-0.4,0.5-0.4,0.9c0,0.6,0.3,0.9,1,0.9
		c0.5,0,0.9-0.1,1.2-0.4s0.4-0.6,0.4-1.1L399,27.4L399,27.4z"/>
	<path class="st3" d="M406.4,29.5c0.4,0,0.8-0.1,1.3-0.2v1.6c-0.5,0.2-1.2,0.3-1.9,0.3c-0.8,0-1.4-0.2-1.8-0.6s-0.6-1.1-0.6-1.9V25
		h-1v-1l1.1-0.7l0.6-1.6h1.3v1.6h2.1v1.6h-2.1v3.7c0,0.3,0.1,0.5,0.2,0.7S406.1,29.5,406.4,29.5z"/>
	<path class="st3" d="M409.2,21.4c0-0.7,0.4-1,1.1-1s1.1,0.3,1.1,1c0,0.3-0.1,0.6-0.3,0.8s-0.5,0.3-0.9,0.3
		C409.6,22.4,409.2,22,409.2,21.4z M411.4,31h-2.1v-7.6h2.1V31z"/>
	<path class="st3" d="M420.5,27.1c0,1.2-0.3,2.2-1,2.9s-1.6,1.1-2.7,1.1c-0.7,0-1.4-0.2-1.9-0.5s-1-0.8-1.3-1.4s-0.5-1.3-0.5-2.1
		c0-1.2,0.3-2.2,1-2.9s1.6-1,2.7-1c0.7,0,1.4,0.2,1.9,0.5s1,0.8,1.3,1.4S420.5,26.3,420.5,27.1z M415.2,27.1c0,0.8,0.1,1.3,0.4,1.7
		s0.7,0.6,1.2,0.6c0.6,0,1-0.2,1.2-0.6s0.4-1,0.4-1.7c0-0.8-0.1-1.3-0.4-1.7s-0.6-0.6-1.2-0.6s-1,0.2-1.2,0.6S415.2,26.4,415.2,27.1
		z"/>
	<path class="st3" d="M429.3,31h-2.1v-4.5c0-0.6-0.1-1-0.3-1.2s-0.5-0.4-0.9-0.4c-0.6,0-1,0.2-1.3,0.6s-0.4,1-0.4,1.9V31h-2.1v-7.6
		h1.6l0.3,1h0.1c0.2-0.4,0.6-0.6,1-0.8c0.4-0.2,0.9-0.3,1.4-0.3c0.9,0,1.6,0.2,2,0.7s0.7,1.2,0.7,2.1L429.3,31L429.3,31z"/>
</g>
<path class="st4" d="M86.9,126.8H11.4c-1.6,0-2.8-1.3-2.8-2.8V85c0-1.6,1.3-2.8,2.8-2.8h75.5c1.6,0,2.8,1.3,2.8,2.8v39
	C89.7,125.6,88.4,126.8,86.9,126.8z"/>
<g>
	<path class="st5" d="M34.6,109l-0.7-2.2h-3.4l-0.7,2.2h-2.1l3.3-9.3h2.4l3.3,9.3H34.6z M33.4,105.1c-0.6-2-1-3.1-1.1-3.4
		s-0.1-0.5-0.2-0.6c-0.1,0.5-0.5,1.9-1.2,4H33.4z"/>
	<path class="st5" d="M42.7,106.9c0,0.7-0.3,1.3-0.8,1.7c-0.5,0.4-1.3,0.6-2.3,0.6c-0.5,0-1,0-1.3-0.1c-0.4-0.1-0.7-0.2-1-0.3v-1.6
		c0.4,0.2,0.8,0.3,1.2,0.4c0.5,0.1,0.8,0.2,1.2,0.2c0.7,0,1.1-0.2,1.1-0.6c0-0.2,0-0.3-0.1-0.4s-0.3-0.2-0.5-0.3
		c-0.2-0.1-0.5-0.3-0.9-0.4c-0.5-0.2-0.9-0.4-1.2-0.6s-0.4-0.4-0.6-0.7c-0.1-0.3-0.2-0.6-0.2-0.9c0-0.6,0.2-1.1,0.7-1.5
		c0.5-0.3,1.2-0.5,2.1-0.5c0.9,0,1.7,0.2,2.5,0.6l-0.6,1.2c-0.4-0.2-0.7-0.3-1-0.4s-0.6-0.1-0.9-0.1c-0.6,0-0.9,0.2-0.9,0.5
		c0,0.2,0.1,0.3,0.3,0.5c0.2,0.1,0.6,0.3,1.2,0.6c0.6,0.2,1,0.4,1.2,0.6s0.4,0.4,0.6,0.7S42.7,106.5,42.7,106.9z"/>
	<path class="st5" d="M49.1,106.9c0,0.7-0.3,1.3-0.8,1.7c-0.5,0.4-1.3,0.6-2.3,0.6c-0.5,0-1,0-1.3-0.1c-0.4-0.1-0.7-0.2-1-0.3v-1.6
		c0.4,0.2,0.8,0.3,1.2,0.4c0.5,0.1,0.8,0.2,1.2,0.2c0.7,0,1.1-0.2,1.1-0.6c0-0.2,0-0.3-0.1-0.4s-0.3-0.2-0.5-0.3
		c-0.2-0.1-0.5-0.3-0.9-0.4c-0.5-0.2-0.9-0.4-1.2-0.6s-0.4-0.4-0.6-0.7c-0.1-0.3-0.2-0.6-0.2-0.9c0-0.6,0.2-1.1,0.7-1.5
		c0.5-0.3,1.2-0.5,2.1-0.5c0.9,0,1.7,0.2,2.5,0.6l-0.6,1.4c-0.4-0.2-0.7-0.3-1-0.4s-0.6-0.1-0.9-0.1c-0.6,0-0.9,0.2-0.9,0.5
		c0,0.2,0.1,0.3,0.3,0.5c0.2,0.1,0.6,0.3,1.2,0.6c0.6,0.2,1,0.4,1.2,0.6s0.4,0.4,0.6,0.7S49.1,106.5,49.1,106.9z"/>
	<path class="st5" d="M53.8,109.1c-1.1,0-2-0.3-2.7-0.9s-1-1.5-1-2.7s0.3-2.1,0.9-2.8c0.6-0.6,1.4-1,2.5-1c1,0,1.8,0.3,2.3,0.9
		s0.8,1.4,0.8,2.4v0.9H52c0,0.6,0.2,1,0.5,1.3s0.7,0.5,1.3,0.5c0.4,0,0.8,0,1.2-0.1s0.8-0.2,1.2-0.4v1.5c-0.3,0.2-0.7,0.3-1.1,0.4
		C54.9,109.1,54.4,109.1,53.8,109.1z M53.6,103.1c-0.4,0-0.7,0.1-1,0.4c-0.2,0.3-0.4,0.6-0.4,1.1h2.7c0-0.5-0.1-0.8-0.4-1.1
		C54.3,103.3,54,103.1,53.6,103.1z"/>
	<path class="st5" d="M61.3,107.6c0.3,0,0.7-0.1,1.2-0.2v1.4c-0.5,0.2-1.1,0.3-1.8,0.3c-0.8,0-1.3-0.2-1.7-0.6s-0.5-1-0.5-1.8v-3.4
		h-0.9v-0.8l1.1-0.6l0.6-1.5h1.2v1.5h2v1.5h-2v3.4c0,0.3,0.1,0.5,0.2,0.6S61,107.6,61.3,107.6z"/>
	<path class="st5" d="M68.9,106.9c0,0.7-0.3,1.3-0.8,1.7c-0.5,0.4-1.3,0.6-2.3,0.6c-0.5,0-1,0-1.3-0.1c-0.4-0.1-0.7-0.2-1-0.3v-1.6
		c0.4,0.2,0.8,0.3,1.2,0.4c0.5,0.1,0.8,0.2,1.2,0.2c0.7,0,1.1-0.2,1.1-0.6c0-0.2,0-0.3-0.1-0.4c-0.1-0.1-0.3-0.2-0.5-0.3
		c-0.2-0.1-0.5-0.3-0.9-0.4c-0.5-0.2-0.9-0.4-1.2-0.6s-0.4-0.4-0.6-0.7c-0.1-0.3-0.2-0.6-0.2-0.9c0-0.6,0.2-1.1,0.7-1.5
		c0.5-0.3,1.2-0.5,2.1-0.5c0.9,0,1.7,0.2,2.5,0.6l-0.6,1.4c-0.4-0.2-0.7-0.3-1-0.4s-0.6-0.1-0.9-0.1c-0.6,0-0.9,0.2-0.9,0.5
		c0,0.2,0.1,0.3,0.3,0.5c0.2,0.1,0.6,0.3,1.2,0.6c0.6,0.2,1,0.4,1.2,0.6c0.2,0.2,0.4,0.4,0.6,0.7S68.9,106.5,68.9,106.9z"/>
</g>
<g>
	<path class="st5" d="M168.3,109v-9.3h2v7.7h3.8v1.6H168.3z"/>
	<path class="st5" d="M175.4,100.1c0-0.6,0.4-0.9,1.1-0.9s1.1,0.3,1.1,0.9c0,0.3-0.1,0.5-0.3,0.7s-0.4,0.3-0.8,0.3
		C175.8,101,175.4,100.7,175.4,100.1z M177.5,109h-1.9v-7.1h1.9V109z"/>
	<path class="st5" d="M184,109l-0.4-1h-0.1c-0.3,0.4-0.7,0.7-1,0.9c-0.3,0.2-0.8,0.2-1.3,0.2c-0.7,0-1.2-0.2-1.6-0.6
		c-0.4-0.4-0.6-0.9-0.6-1.7c0-0.8,0.3-1.3,0.8-1.7c0.5-0.4,1.3-0.6,2.4-0.6h1.2v-0.3c0-0.7-0.4-1.1-1.1-1.1c-0.6,0-1.2,0.2-2,0.5
		l-0.6-1.3c0.8-0.4,1.7-0.6,2.7-0.6s1.7,0.2,2.2,0.6s0.8,1,0.8,1.9v4.8H184z M183.4,105.7h-0.7c-0.6,0-1,0.1-1.3,0.3
		s-0.4,0.5-0.4,0.9c0,0.5,0.3,0.8,0.9,0.8c0.4,0,0.8-0.1,1.1-0.4s0.4-0.6,0.4-1V105.7z"/>
	<path class="st5" d="M191.3,101.8c0.8,0,1.5,0.3,2,1s0.7,1.5,0.7,2.7s-0.2,2.1-0.7,2.7s-1.2,1-2,1s-1.5-0.3-2-0.9h-0.1l-0.3,0.8
		h-1.5v-9.9h1.9v2.3c0,0.3,0,0.8-0.1,1.4h0.1C189.7,102.1,190.4,101.8,191.3,101.8z M190.7,103.3c-0.5,0-0.8,0.1-1,0.4
		s-0.3,0.8-0.3,1.5v0.2c0,0.8,0.1,1.3,0.3,1.6c0.2,0.3,0.6,0.5,1.1,0.5c0.4,0,0.7-0.2,0.9-0.5c0.2-0.4,0.4-0.9,0.4-1.6
		s-0.1-1.2-0.4-1.6C191.4,103.5,191.1,103.3,190.7,103.3z"/>
	<path class="st5" d="M195.5,100.1c0-0.6,0.4-0.9,1.1-0.9s1.1,0.3,1.1,0.9c0,0.3-0.1,0.5-0.3,0.7s-0.4,0.3-0.8,0.3
		C195.8,101,195.5,100.7,195.5,100.1z M197.5,109h-1.9v-7.1h1.9V109z"/>
	<path class="st5" d="M201.5,109h-1.9v-9.9h1.9V109z"/>
	<path class="st5" d="M203.4,100.1c0-0.6,0.4-0.9,1.1-0.9s1.1,0.3,1.1,0.9c0,0.3-0.1,0.5-0.3,0.7s-0.4,0.3-0.8,0.3
		C203.8,101,203.4,100.7,203.4,100.1z M205.4,109h-1.9v-7.1h1.9V109z"/>
	<path class="st5" d="M210.5,107.6c0.3,0,0.7-0.1,1.2-0.2v1.4c-0.5,0.2-1.1,0.3-1.8,0.3c-0.8,0-1.3-0.2-1.7-0.6s-0.5-1-0.5-1.8v-3.4
		h-0.9v-0.8l1.1-0.6l0.6-1.5h1.2v1.5h2v1.5h-2v3.4c0,0.3,0.1,0.5,0.2,0.6S210.2,107.6,210.5,107.6z"/>
	<path class="st5" d="M213,100.1c0-0.6,0.4-0.9,1.1-0.9s1.1,0.3,1.1,0.9c0,0.3-0.1,0.5-0.3,0.7s-0.4,0.3-0.8,0.3
		C213.4,101,213,100.7,213,100.1z M215,109h-1.9v-7.1h1.9V109z"/>
	<path class="st5" d="M220.3,109.1c-1.1,0-2-0.3-2.7-0.9s-1-1.5-1-2.7s0.3-2.1,0.9-2.8c0.6-0.6,1.4-1,2.5-1c1,0,1.8,0.3,2.3,0.9
		s0.8,1.4,0.8,2.4v0.9h-4.6c0,0.6,0.2,1,0.5,1.3s0.7,0.5,1.3,0.5c0.4,0,0.8,0,1.2-0.1s0.8-0.2,1.2-0.4v1.5c-0.3,0.2-0.7,0.3-1.1,0.4
		C221.3,109.1,220.8,109.1,220.3,109.1z M220,103.1c-0.4,0-0.7,0.1-1,0.4c-0.2,0.3-0.4,0.6-0.4,1.1h2.7c0-0.5-0.1-0.8-0.4-1.1
		C220.8,103.3,220.4,103.1,220,103.1z"/>
	<path class="st5" d="M229.7,106.9c0,0.7-0.3,1.3-0.8,1.7c-0.5,0.4-1.3,0.6-2.3,0.6c-0.5,0-1,0-1.3-0.1c-0.4-0.1-0.7-0.2-1-0.3v-1.6
		c0.4,0.2,0.8,0.3,1.2,0.4c0.5,0.1,0.8,0.2,1.2,0.2c0.7,0,1.1-0.2,1.1-0.6c0-0.2,0-0.3-0.1-0.4s-0.3-0.2-0.5-0.3
		c-0.2-0.1-0.5-0.3-0.9-0.4c-0.5-0.2-0.9-0.4-1.2-0.6s-0.4-0.4-0.6-0.7c-0.1-0.3-0.2-0.6-0.2-0.9c0-0.6,0.2-1.1,0.7-1.5
		c0.5-0.3,1.2-0.5,2.1-0.5c0.9,0,1.7,0.2,2.5,0.6l-0.6,1.4c-0.4-0.2-0.7-0.3-1-0.4s-0.6-0.1-0.9-0.1c-0.6,0-0.9,0.2-0.9,0.5
		c0,0.2,0.1,0.3,0.3,0.5c0.2,0.1,0.6,0.3,1.2,0.6c0.6,0.2,1,0.4,1.2,0.6s0.4,0.4,0.6,0.7S229.7,106.5,229.7,106.9z"/>
</g>
<g>
	<path class="st5" d="M330.4,106.4c0,0.8-0.3,1.5-0.9,2s-1.4,0.7-2.5,0.7c-1,0-1.9-0.2-2.6-0.6v-1.8c0.6,0.3,1.2,0.5,1.6,0.6
		s0.8,0.2,1.2,0.2c0.4,0,0.8-0.1,1-0.2s0.3-0.4,0.3-0.7c0-0.2-0.1-0.3-0.2-0.5c-0.1-0.1-0.3-0.3-0.4-0.4c-0.2-0.1-0.6-0.3-1.2-0.6
		c-0.6-0.3-1-0.5-1.3-0.8c-0.3-0.2-0.5-0.5-0.7-0.9c-0.2-0.3-0.3-0.7-0.3-1.1c0-0.8,0.3-1.5,0.8-1.9s1.3-0.7,2.3-0.7
		c0.5,0,0.9,0.1,1.4,0.2c0.4,0.1,0.9,0.3,1.4,0.5l-0.6,1.5c-0.5-0.2-0.9-0.3-1.2-0.4c-0.3-0.1-0.6-0.1-1-0.1s-0.7,0.1-0.9,0.3
		c-0.2,0.2-0.3,0.4-0.3,0.7c0,0.2,0,0.3,0.1,0.5c0.1,0.1,0.2,0.3,0.4,0.4c0.2,0.1,0.6,0.3,1.2,0.7c0.9,0.4,1.5,0.8,1.8,1.2
		C330.2,105.3,330.4,105.8,330.4,106.4z"/>
	<path class="st5" d="M334.9,107.6c0.3,0,0.7-0.1,1.2-0.2v1.4c-0.5,0.2-1.1,0.3-1.8,0.3c-0.8,0-1.3-0.2-1.7-0.6
		c-0.4-0.4-0.5-1-0.5-1.8v-3.4h-0.9v-0.8l1.1-0.6l0.6-1.5h1.2v1.5h2v1.5h-2v3.4c0,0.3,0.1,0.5,0.2,0.6S334.6,107.6,334.9,107.6z"/>
	<path class="st5" d="M344,105.4c0,1.2-0.3,2.1-0.9,2.7s-1.5,1-2.5,1c-0.7,0-1.3-0.1-1.8-0.4s-0.9-0.7-1.2-1.3s-0.4-1.2-0.4-2
		c0-1.2,0.3-2.1,0.9-2.7s1.5-1,2.6-1c0.7,0,1.3,0.1,1.8,0.4s0.9,0.7,1.2,1.3S344,104.7,344,105.4z M339.1,105.4
		c0,0.7,0.1,1.2,0.3,1.6s0.6,0.5,1.1,0.5s0.9-0.2,1.1-0.5c0.2-0.4,0.3-0.9,0.3-1.6s-0.1-1.2-0.3-1.6s-0.6-0.5-1.1-0.5
		s-0.9,0.2-1.1,0.5C339.2,104.2,339.1,104.7,339.1,105.4z"/>
	<path class="st5" d="M348.5,109.1c-2.2,0-3.3-1.2-3.3-3.6c0-1.2,0.3-2.1,0.9-2.8c0.6-0.6,1.5-1,2.6-1c0.8,0,1.6,0.2,2.2,0.5
		l-0.6,1.5c-0.3-0.1-0.6-0.2-0.9-0.3c-0.3-0.1-0.5-0.1-0.8-0.1c-1,0-1.5,0.7-1.5,2.1s0.5,2.1,1.5,2.1c0.4,0,0.7,0,1-0.1
		s0.6-0.3,1-0.5v1.7c-0.3,0.2-0.6,0.3-0.9,0.4C349.4,109.1,349,109.1,348.5,109.1z"/>
	<path class="st5" d="M354.1,105.1l0.9-1.1l2-2.2h2.2l-2.8,3.1l3,4h-2.2l-2-2.9l-0.8,0.7v2.3h-1.9v-9.9h1.9v4.4L354.1,105.1
		L354.1,105.1z"/>
	<path class="st5" d="M366.9,109H365v-4.1c0-1-0.4-1.5-1.1-1.5c-0.5,0-0.9,0.2-1.2,0.6s-0.4,1-0.4,1.8v3.2h-1.9v-9.9h1.9v2
		c0,0.2,0,0.5,0,1.1v0.6h0.1c0.4-0.7,1.1-1,2.1-1c0.8,0,1.5,0.2,1.9,0.7s0.6,1.1,0.6,1.9v4.6H366.9z"/>
	<path class="st5" d="M375.3,105.4c0,1.2-0.3,2.1-0.9,2.7s-1.5,1-2.5,1c-0.7,0-1.3-0.1-1.8-0.4s-0.9-0.7-1.2-1.3s-0.4-1.2-0.4-2
		c0-1.2,0.3-2.1,0.9-2.7s1.5-1,2.6-1c0.7,0,1.3,0.1,1.8,0.4s0.9,0.7,1.2,1.3S375.3,104.7,375.3,105.4z M370.4,105.4
		c0,0.7,0.1,1.2,0.3,1.6c0.2,0.4,0.6,0.5,1.1,0.5s0.9-0.2,1.1-0.5c0.2-0.4,0.3-0.9,0.3-1.6s-0.1-1.2-0.3-1.6s-0.6-0.5-1.1-0.5
		s-0.9,0.2-1.1,0.5C370.5,104.2,370.4,104.7,370.4,105.4z"/>
	<path class="st5" d="M378.9,109H377v-9.9h1.9V109z"/>
	<path class="st5" d="M383.1,109.1c-0.8,0-1.5-0.3-2-1c-0.5-0.6-0.7-1.5-0.7-2.7s0.2-2.1,0.7-2.7s1.2-1,2-1c0.9,0,1.6,0.3,2,1h0.1
		c-0.1-0.5-0.1-1-0.1-1.4V99h1.9v10h-1.5l-0.4-0.9H385C384.7,108.8,384,109.1,383.1,109.1z M383.8,107.6c0.5,0,0.9-0.1,1.1-0.4
		s0.4-0.8,0.4-1.5v-0.2c0-0.8-0.1-1.3-0.4-1.6c-0.2-0.3-0.6-0.5-1.1-0.5c-0.4,0-0.8,0.2-1,0.5c-0.2,0.4-0.4,0.9-0.4,1.6
		s0.1,1.2,0.4,1.6C383,107.4,383.4,107.6,383.8,107.6z"/>
	<path class="st5" d="M392.3,109.1c-1.1,0-2-0.3-2.7-0.9c-0.6-0.6-1-1.5-1-2.7s0.3-2.1,0.9-2.8c0.6-0.6,1.4-1,2.5-1
		c1,0,1.8,0.3,2.3,0.9s0.8,1.4,0.8,2.4v0.9h-4.6c0,0.6,0.2,1,0.5,1.3s0.7,0.5,1.3,0.5c0.4,0,0.8,0,1.2-0.1s0.8-0.2,1.2-0.4v1.5
		c-0.3,0.2-0.7,0.3-1.1,0.4C393.4,109.1,392.9,109.1,392.3,109.1z M392.1,103.1c-0.4,0-0.7,0.1-1,0.4c-0.2,0.3-0.4,0.6-0.4,1.1h2.7
		c0-0.5-0.1-0.8-0.4-1.1C392.8,103.3,392.5,103.1,392.1,103.1z"/>
	<path class="st5" d="M400.8,101.8c0.3,0,0.5,0,0.7,0.1l-0.1,1.8c-0.2,0-0.3-0.1-0.6-0.1c-0.6,0-1.1,0.2-1.4,0.5s-0.5,0.8-0.5,1.3
		v3.6H397v-7.1h1.5l0.3,1.2h0.1c0.2-0.4,0.5-0.7,0.9-1C399.9,101.9,400.3,101.8,400.8,101.8z"/>
	<path class="st5" d="M404.3,99.7l0.1,0.1c-0.2,0.8-0.6,1.8-1.1,3h-1.4c0.3-1.3,0.5-2.3,0.6-3.2L404.3,99.7L404.3,99.7z"/>
	<path class="st5" d="M410.5,106.9c0,0.7-0.3,1.3-0.8,1.7c-0.5,0.4-1.3,0.6-2.3,0.6c-0.5,0-1,0-1.3-0.1c-0.4-0.1-0.7-0.2-1-0.3v-1.6
		c0.4,0.2,0.8,0.3,1.2,0.4c0.5,0.1,0.8,0.2,1.2,0.2c0.7,0,1.1-0.2,1.1-0.6c0-0.2,0-0.3-0.1-0.4s-0.3-0.2-0.5-0.3
		c-0.2-0.1-0.5-0.3-0.9-0.4c-0.5-0.2-0.9-0.4-1.2-0.6s-0.4-0.4-0.6-0.7c-0.1-0.3-0.2-0.6-0.2-0.9c0-0.6,0.2-1.1,0.7-1.5
		c0.5-0.3,1.2-0.5,2.1-0.5s1.7,0.2,2.5,0.6l-0.6,1.4c-0.4-0.2-0.7-0.3-1-0.4s-0.6-0.1-0.9-0.1c-0.6,0-0.9,0.2-0.9,0.5
		c0,0.2,0.1,0.3,0.3,0.5c0.2,0.1,0.6,0.3,1.2,0.6c0.6,0.2,1,0.4,1.2,0.6c0.3,0.2,0.4,0.4,0.6,0.7
		C410.4,106.2,410.5,106.5,410.5,106.9z"/>
	<path class="st5" d="M420.9,109h-5.3v-9.3h5.3v1.6h-3.4v2h3.1v1.7h-3.1v2.4h3.4V109z"/>
	<path class="st5" d="M424.9,109.1c-0.8,0-1.5-0.3-2-1c-0.5-0.6-0.7-1.5-0.7-2.7s0.2-2.1,0.7-2.7s1.1-1,2-1c0.4,0,0.8,0.1,1.2,0.3
		c0.3,0.2,0.6,0.4,0.9,0.8h0.1l0.2-0.9h1.6v10.2H427v-3c0-0.3,0-0.6,0.1-1.1H427c-0.2,0.3-0.5,0.6-0.8,0.8S425.3,109.1,424.9,109.1z
		 M425.6,107.6c0.5,0,0.9-0.1,1.1-0.4s0.4-0.8,0.4-1.5v-0.2c0-0.8-0.1-1.3-0.4-1.6c-0.2-0.3-0.6-0.5-1.1-0.5c-0.9,0-1.4,0.7-1.4,2.1
		c0,0.7,0.1,1.2,0.3,1.6S425.1,107.6,425.6,107.6z"/>
	<path class="st5" d="M435.9,109l-0.3-0.9h-0.1c-0.2,0.3-0.5,0.6-0.9,0.8c-0.4,0.2-0.8,0.3-1.3,0.3c-0.8,0-1.5-0.2-1.9-0.7
		c-0.4-0.4-0.6-1.1-0.6-1.9V102h1.9v4c0,0.5,0.1,0.9,0.3,1.2c0.2,0.3,0.5,0.4,0.9,0.4c0.5,0,0.9-0.2,1.2-0.5c0.2-0.4,0.4-1,0.4-1.8
		V102h1.9v7H435.9z"/>
	<path class="st5" d="M439.3,100.1c0-0.6,0.4-0.9,1.1-0.9s1.1,0.3,1.1,0.9c0,0.3-0.1,0.5-0.3,0.7c-0.2,0.2-0.4,0.3-0.8,0.3
		C439.7,101,439.3,100.7,439.3,100.1z M441.3,109h-1.9v-7.1h1.9V109z"/>
	<path class="st5" d="M446.4,107.6c0.3,0,0.7-0.1,1.2-0.2v1.4c-0.5,0.2-1.1,0.3-1.8,0.3c-0.8,0-1.3-0.2-1.7-0.6
		c-0.4-0.4-0.5-1-0.5-1.8v-3.4h-0.9v-0.8l1.1-0.6l0.6-1.5h1.2v1.5h2v1.5h-2v3.4c0,0.3,0.1,0.5,0.2,0.6
		C445.9,107.5,446.1,107.6,446.4,107.6z"/>
	<path class="st5" d="M448,101.9h2.1l1.3,4c0.1,0.3,0.2,0.8,0.2,1.2l0,0c0-0.4,0.1-0.8,0.3-1.2l1.3-4h2.1l-3,8
		c-0.3,0.7-0.7,1.3-1.2,1.7s-1.1,0.6-1.8,0.6c-0.3,0-0.7,0-1-0.1v-1.5c0.2,0.1,0.5,0.1,0.8,0.1s0.6-0.1,0.9-0.3
		c0.3-0.2,0.5-0.5,0.6-0.9l0.1-0.3L448,101.9z"/>
</g>
<g>
	<path class="st6" d="M271.3,106.7h-5.7v-3.2h5.7v-5.7h3.2v5.7h5.7v3.2h-5.7v5.6h-3.2V106.7z"/>
</g>
<g>
	<path class="st6" d="M109.6,103.9v-3.2h14.5v3.2H109.6z M109.6,109.5v-3.2h14.5v3.2H109.6z"/>
</g>
<path class="st7" d="M379.6,201.9c0,19.3-14.5,35-49.6,35s-46.6-15.7-46.6-35s11.5-35,46.6-35S379.6,182.6,379.6,201.9z"/>
<g>
	<path class="st6" d="M311.3,192.4c-0.6,0-1.1,0.2-1.5,0.7c-0.3,0.5-0.5,1.1-0.5,2c0,1.8,0.7,2.6,2,2.6c0.6,0,1.2-0.1,2-0.4v1.4
		c-0.6,0.3-1.4,0.4-2.2,0.4c-1.1,0-2-0.3-2.6-1s-0.9-1.7-0.9-3c0-0.8,0.1-1.5,0.4-2.1s0.7-1.1,1.3-1.4c0.6-0.3,1.2-0.5,2-0.5
		s1.5,0.2,2.3,0.6l-0.5,1.4c-0.3-0.1-0.6-0.3-0.9-0.4C311.9,192.5,311.6,192.4,311.3,192.4z"/>
	<path class="st6" d="M320.3,196c0,1-0.3,1.7-0.8,2.3s-1.2,0.8-2.2,0.8c-0.6,0-1.1-0.1-1.5-0.4c-0.4-0.3-0.8-0.6-1-1.1
		s-0.4-1-0.4-1.7c0-1,0.3-1.7,0.8-2.3c0.5-0.5,1.2-0.8,2.2-0.8c0.6,0,1.1,0.1,1.5,0.4s0.8,0.6,1,1.1S320.3,195.3,320.3,196z
		 M316.2,196c0,0.6,0.1,1,0.3,1.3c0.2,0.3,0.5,0.5,1,0.5c0.4,0,0.8-0.2,0.9-0.5c0.2-0.3,0.3-0.8,0.3-1.4c0-0.6-0.1-1-0.3-1.3
		s-0.5-0.4-1-0.4c-0.4,0-0.8,0.1-0.9,0.4C316.3,194.9,316.2,195.4,316.2,196z"/>
	<path class="st6" d="M327,199h-1.6v-3.5c0-0.4-0.1-0.8-0.2-1s-0.4-0.3-0.7-0.3c-0.4,0-0.7,0.2-0.9,0.5c-0.2,0.3-0.3,0.8-0.3,1.5
		v2.8h-1.6v-6h1.3l0.2,0.8h0.1c0.2-0.3,0.4-0.5,0.7-0.6c0.3-0.2,0.7-0.2,1-0.2c0.9,0,1.5,0.3,1.8,0.9h0.1c0.2-0.3,0.4-0.5,0.7-0.6
		c0.3-0.2,0.7-0.2,1.1-0.2c0.7,0,1.2,0.2,1.5,0.5s0.5,0.9,0.5,1.7v3.9h-1.6v-3.5c0-0.4-0.1-0.8-0.2-1s-0.4-0.3-0.7-0.3
		c-0.4,0-0.7,0.1-0.9,0.4c-0.2,0.3-0.3,0.7-0.3,1.4V199z"/>
	<path class="st6" d="M337.8,199h-1.6v-3.5c0-0.4-0.1-0.8-0.2-1s-0.4-0.3-0.7-0.3c-0.4,0-0.7,0.2-0.9,0.5c-0.2,0.3-0.3,0.8-0.3,1.5
		v2.8h-1.6v-6h1.3l0.2,0.8h0.1c0.2-0.3,0.4-0.5,0.7-0.6c0.3-0.2,0.7-0.2,1-0.2c0.9,0,1.5,0.3,1.8,0.9h0.1c0.2-0.3,0.4-0.5,0.7-0.6
		s0.7-0.2,1.1-0.2c0.7,0,1.2,0.2,1.5,0.5s0.5,0.9,0.5,1.7v3.9h-1.6v-3.5c0-0.4-0.1-0.8-0.2-1s-0.4-0.3-0.7-0.3
		c-0.4,0-0.7,0.1-0.9,0.4c-0.2,0.3-0.3,0.7-0.3,1.4V199z"/>
	<path class="st6" d="M348.7,196c0,1-0.3,1.7-0.8,2.3s-1.2,0.8-2.2,0.8c-0.6,0-1.1-0.1-1.5-0.4c-0.4-0.3-0.8-0.6-1-1.1
		s-0.4-1-0.4-1.7c0-1,0.3-1.7,0.8-2.3c0.5-0.5,1.2-0.8,2.2-0.8c0.6,0,1.1,0.1,1.5,0.4s0.8,0.6,1,1.1S348.7,195.3,348.7,196z
		 M344.6,196c0,0.6,0.1,1,0.3,1.3c0.2,0.3,0.5,0.5,1,0.5c0.4,0,0.8-0.2,0.9-0.5c0.2-0.3,0.3-0.8,0.3-1.4c0-0.6-0.1-1-0.3-1.3
		s-0.5-0.4-1-0.4c-0.4,0-0.8,0.1-0.9,0.4C344.7,194.9,344.6,195.4,344.6,196z"/>
	<path class="st6" d="M355.6,199H354v-3.5c0-0.4-0.1-0.8-0.2-1c-0.2-0.2-0.4-0.3-0.7-0.3c-0.5,0-0.8,0.2-1,0.5s-0.3,0.8-0.3,1.5v2.8
		h-1.6v-6h1.3l0.2,0.8h0.1c0.2-0.3,0.4-0.5,0.8-0.7c0.3-0.1,0.7-0.2,1.1-0.2c0.7,0,1.2,0.2,1.6,0.6c0.4,0.4,0.5,0.9,0.5,1.6v3.9
		H355.6z"/>
	<path class="st6" d="M322.3,210c0,0.7-0.3,1.3-0.8,1.7s-1.2,0.6-2.1,0.6c-0.8,0-1.6-0.2-2.2-0.5v-1.5c0.5,0.2,1,0.4,1.3,0.5
		c0.4,0.1,0.7,0.1,1,0.1c0.4,0,0.6-0.1,0.8-0.2c0.2-0.1,0.3-0.3,0.3-0.6c0-0.2,0-0.3-0.1-0.4c-0.1-0.1-0.2-0.2-0.4-0.3
		c-0.2-0.1-0.5-0.3-1-0.5s-0.8-0.4-1.1-0.6c-0.2-0.2-0.4-0.4-0.6-0.7c-0.1-0.3-0.2-0.6-0.2-1c0-0.7,0.2-1.2,0.7-1.6
		c0.5-0.4,1.1-0.6,2-0.6c0.4,0,0.8,0,1.2,0.1c0.4,0.1,0.8,0.2,1.2,0.4l-0.5,1.3c-0.4-0.2-0.8-0.3-1-0.4c-0.3-0.1-0.5-0.1-0.8-0.1
		s-0.6,0.1-0.7,0.2c-0.2,0.1-0.3,0.3-0.3,0.6c0,0.1,0,0.3,0.1,0.4c0.1,0.1,0.2,0.2,0.3,0.3c0.1,0.1,0.5,0.3,1.1,0.6
		c0.7,0.4,1.2,0.7,1.5,1.1C322.1,209.1,322.3,209.5,322.3,210z"/>
	<path class="st6" d="M326.1,211c0.3,0,0.6-0.1,1-0.2v1.2c-0.4,0.2-0.9,0.3-1.5,0.3c-0.7,0-1.1-0.2-1.4-0.5s-0.4-0.8-0.4-1.5v-2.9
		H323v-0.7l0.9-0.5l0.5-1.3h1v1.3h1.7v1.2h-1.7v2.9c0,0.2,0.1,0.4,0.2,0.5C325.7,210.9,325.9,211,326.1,211z"/>
	<path class="st6" d="M333.8,209.2c0,1-0.3,1.7-0.8,2.3s-1.2,0.8-2.2,0.8c-0.6,0-1.1-0.1-1.5-0.4c-0.4-0.3-0.8-0.6-1-1.1
		s-0.4-1-0.4-1.7c0-1,0.3-1.7,0.8-2.3c0.5-0.5,1.2-0.8,2.2-0.8c0.6,0,1.1,0.1,1.5,0.4s0.8,0.6,1,1.1S333.8,208.5,333.8,209.2z
		 M329.7,209.2c0,0.6,0.1,1,0.3,1.3c0.2,0.3,0.5,0.5,1,0.5c0.4,0,0.8-0.2,0.9-0.5c0.2-0.3,0.3-0.8,0.3-1.4c0-0.6-0.1-1-0.3-1.3
		s-0.5-0.4-1-0.4c-0.4,0-0.8,0.1-0.9,0.4C329.8,208.1,329.7,208.6,329.7,209.2z"/>
	<path class="st6" d="M337.6,212.3c-1.9,0-2.8-1-2.8-3.1c0-1,0.3-1.8,0.8-2.3s1.2-0.8,2.2-0.8c0.7,0,1.3,0.1,1.9,0.4l-0.5,1.3
		c-0.3-0.1-0.5-0.2-0.7-0.3s-0.4-0.1-0.7-0.1c-0.9,0-1.3,0.6-1.3,1.8s0.4,1.8,1.3,1.8c0.3,0,0.6,0,0.9-0.1s0.5-0.2,0.8-0.4v1.4
		c-0.3,0.2-0.5,0.3-0.8,0.3S338,212.3,337.6,212.3z"/>
	<path class="st6" d="M342.4,208.9l0.7-0.9l1.7-1.8h1.8l-2.4,2.6l2.5,3.4h-1.9l-1.7-2.4l-0.7,0.6v1.9h-1.6v-8.4h1.6v3.7V208.9
		L342.4,208.9z"/>
</g>
<g>
	<line class="st8" x1="449.5" y1="127.9" x2="449.5" y2="160.9"/>
	<polygon class="st6" points="446.5,151.4 452.5,151.4 449.5,162.4 	"/>
</g>
<g>
	<line class="st8" x1="330.5" y1="127.9" x2="330.5" y2="160.9"/>
	<polygon class="st6" points="327.5,151.4 333.5,151.4 330.5,162.4 	"/>
</g>
<path class="st7" d="M498.6,201.9c0,19.3-14.5,35-49.6,35s-46.6-15.7-46.6-35s11.5-35,46.6-35S498.6,182.6,498.6,201.9z"/>
<g>
	<path class="st6" d="M428.8,196v3h-1.7v-7.9h2.3c1.1,0,1.9,0.2,2.4,0.6c0.5,0.4,0.8,1,0.8,1.8c0,0.5-0.1,0.9-0.4,1.2
		c-0.3,0.4-0.6,0.6-1.1,0.8c1.2,1.8,2,2.9,2.3,3.4h-1.8l-1.9-3L428.8,196L428.8,196z M428.8,194.6h0.5c0.5,0,0.9-0.1,1.2-0.3
		c0.3-0.2,0.4-0.5,0.4-0.8c0-0.4-0.1-0.6-0.4-0.8s-0.7-0.2-1.2-0.2h-0.5V194.6z"/>
	<path class="st6" d="M436.9,199.1c-1,0-1.7-0.3-2.3-0.8c-0.5-0.5-0.8-1.3-0.8-2.3s0.3-1.8,0.8-2.3s1.2-0.8,2.1-0.8
		c0.8,0,1.5,0.2,2,0.7s0.7,1.2,0.7,2v0.8h-3.9c0,0.5,0.2,0.8,0.4,1.1s0.6,0.4,1.1,0.4c0.4,0,0.7,0,1-0.1s0.7-0.2,1-0.4v1.3
		c-0.3,0.1-0.6,0.2-0.9,0.3C437.8,199.1,437.4,199.1,436.9,199.1z M436.7,194c-0.3,0-0.6,0.1-0.8,0.3c-0.2,0.2-0.3,0.5-0.3,0.9h2.3
		c0-0.4-0.1-0.7-0.3-0.9C437.3,194.1,437.1,194,436.7,194z"/>
	<path class="st6" d="M443.3,197.8c0.3,0,0.6-0.1,1-0.2v1.2c-0.4,0.2-0.9,0.3-1.5,0.3c-0.7,0-1.1-0.2-1.4-0.5s-0.4-0.8-0.4-1.5v-2.9
		h-0.8v-0.7l0.9-0.5l0.5-1.3h1v1.3h1.7v1.2h-1.7v2.9c0,0.2,0.1,0.4,0.2,0.5C442.9,197.7,443,197.8,443.3,197.8z"/>
	<path class="st6" d="M449.3,199l-0.3-0.8l0,0c-0.3,0.3-0.6,0.6-0.9,0.7c-0.3,0.1-0.7,0.2-1.1,0.2c-0.6,0-1-0.2-1.4-0.5
		s-0.5-0.8-0.5-1.4c0-0.6,0.2-1.1,0.7-1.4c0.4-0.3,1.1-0.5,2-0.5h1V195c0-0.6-0.3-0.9-0.9-0.9c-0.5,0-1,0.1-1.7,0.4l-0.5-1.1
		c0.7-0.4,1.5-0.5,2.3-0.5s1.4,0.2,1.9,0.5s0.6,0.9,0.6,1.6v4H449.3z M448.8,196.2h-0.6c-0.5,0-0.8,0.1-1.1,0.3
		c-0.2,0.2-0.3,0.4-0.3,0.7c0,0.5,0.3,0.7,0.8,0.7c0.4,0,0.7-0.1,0.9-0.3s0.3-0.5,0.3-0.9L448.8,196.2L448.8,196.2z"/>
	<path class="st6" d="M452.1,191.4c0-0.5,0.3-0.8,0.9-0.8s0.9,0.3,0.9,0.8c0,0.3-0.1,0.5-0.2,0.6s-0.4,0.2-0.7,0.2
		C452.4,192.2,452.1,192,452.1,191.4z M453.8,199h-1.6v-6h1.6V199z"/>
	<path class="st6" d="M461,199h-1.6v-3.5c0-0.4-0.1-0.8-0.2-1c-0.2-0.2-0.4-0.3-0.7-0.3c-0.5,0-0.8,0.2-1,0.5s-0.3,0.8-0.3,1.5v2.8
		h-1.6v-6h1.3l0.2,0.8h0.1c0.2-0.3,0.4-0.5,0.8-0.7c0.3-0.1,0.7-0.2,1.1-0.2c0.7,0,1.2,0.2,1.6,0.6c0.4,0.4,0.5,0.9,0.5,1.6v3.9H461
		z"/>
	<path class="st6" d="M465.5,199.1c-1,0-1.7-0.3-2.3-0.8c-0.5-0.5-0.8-1.3-0.8-2.3s0.3-1.8,0.8-2.3s1.2-0.8,2.1-0.8
		c0.8,0,1.5,0.2,2,0.7s0.7,1.2,0.7,2v0.8h-4c0,0.5,0.2,0.8,0.4,1.1s0.6,0.4,1.1,0.4c0.4,0,0.7,0,1-0.1s0.7-0.2,1-0.4v1.3
		c-0.3,0.1-0.6,0.2-0.9,0.3C466.3,199.1,465.9,199.1,465.5,199.1z M465.2,194c-0.3,0-0.6,0.1-0.8,0.3c-0.2,0.2-0.3,0.5-0.3,0.9h2.3
		c0-0.4-0.1-0.7-0.3-0.9C465.8,194.1,465.6,194,465.2,194z"/>
	<path class="st6" d="M471.1,199.1c-0.7,0-1.3-0.3-1.7-0.8c-0.4-0.5-0.6-1.3-0.6-2.3s0.2-1.8,0.6-2.3s1-0.8,1.7-0.8
		c0.8,0,1.3,0.3,1.7,0.9h0.1c-0.1-0.4-0.1-0.8-0.1-1.2v-1.9h1.6v8.4h-1.3l-0.3-0.8h-0.1C472.5,198.8,471.9,199.1,471.1,199.1z
		 M471.7,197.8c0.4,0,0.7-0.1,0.9-0.4s0.3-0.7,0.3-1.2V196c0-0.6-0.1-1.1-0.3-1.4c-0.2-0.3-0.5-0.4-1-0.4c-0.4,0-0.6,0.2-0.9,0.5
		c-0.2,0.3-0.3,0.8-0.3,1.4s0.1,1,0.3,1.3C471,197.6,471.3,197.8,471.7,197.8z"/>
	<path class="st6" d="M432.6,212.2h-4.5v-7.9h4.5v1.4h-2.9v1.7h2.7v1.4h-2.7v2h2.9V212.2z"/>
	<path class="st6" d="M437.9,212.2l-0.3-0.8l0,0c-0.3,0.3-0.6,0.6-0.9,0.7c-0.3,0.1-0.7,0.2-1.1,0.2c-0.6,0-1-0.2-1.4-0.5
		c-0.3-0.3-0.5-0.8-0.5-1.4c0-0.6,0.2-1.1,0.7-1.4c0.4-0.3,1.1-0.5,2-0.5h1v-0.3c0-0.6-0.3-0.9-0.9-0.9c-0.5,0-1,0.1-1.7,0.4
		l-0.5-1.1c0.7-0.4,1.5-0.5,2.3-0.5s1.4,0.2,1.9,0.5s0.6,0.9,0.6,1.6v4H437.9z M437.4,209.4h-0.6c-0.5,0-0.8,0.1-1.1,0.3
		c-0.2,0.2-0.3,0.4-0.3,0.7c0,0.5,0.3,0.7,0.8,0.7c0.4,0,0.7-0.1,0.9-0.3c0.2-0.2,0.3-0.5,0.3-0.9L437.4,209.4L437.4,209.4z"/>
	<path class="st6" d="M444.1,206.1c0.2,0,0.4,0,0.6,0l-0.1,1.5c-0.1,0-0.3-0.1-0.5-0.1c-0.5,0-0.9,0.1-1.2,0.4s-0.4,0.6-0.4,1.1v3.1
		h-1.6v-6h1.2l0.2,1h0.1c0.2-0.3,0.4-0.6,0.8-0.8C443.4,206.2,443.7,206.1,444.1,206.1z"/>
	<path class="st6" d="M451.3,212.2h-1.6v-3.5c0-0.4-0.1-0.8-0.2-1c-0.2-0.2-0.4-0.3-0.7-0.3c-0.5,0-0.8,0.2-1,0.5s-0.3,0.8-0.3,1.5
		v2.8h-1.6v-6h1.3l0.2,0.8h0.1c0.2-0.3,0.4-0.5,0.8-0.7c0.3-0.1,0.7-0.2,1.1-0.2c0.7,0,1.2,0.2,1.6,0.6c0.4,0.4,0.5,0.9,0.5,1.6v3.9
		H451.3z"/>
	<path class="st6" d="M452.9,204.6c0-0.5,0.3-0.8,0.9-0.8s0.9,0.3,0.9,0.8c0,0.3-0.1,0.5-0.2,0.6s-0.4,0.2-0.7,0.2
		C453.2,205.4,452.9,205.2,452.9,204.6z M454.6,212.2H453v-6h1.6V212.2z"/>
	<path class="st6" d="M461.9,212.2h-1.6v-3.5c0-0.4-0.1-0.8-0.2-1c-0.2-0.2-0.4-0.3-0.7-0.3c-0.5,0-0.8,0.2-1,0.5s-0.3,0.8-0.3,1.5
		v2.8h-1.6v-6h1.3l0.2,0.8h0.1c0.2-0.3,0.4-0.5,0.8-0.7c0.3-0.1,0.7-0.2,1.1-0.2c0.7,0,1.2,0.2,1.6,0.6c0.4,0.4,0.5,0.9,0.5,1.6v3.9
		H461.9z"/>
	<path class="st6" d="M468.8,206.2v0.8l-0.9,0.2c0.2,0.3,0.3,0.6,0.3,0.9c0,0.6-0.2,1.1-0.7,1.5s-1.1,0.5-1.9,0.5h-0.3h-0.2
		c-0.2,0.1-0.3,0.3-0.3,0.4c0,0.2,0.3,0.4,0.9,0.4h1c0.7,0,1.2,0.1,1.5,0.4s0.5,0.7,0.5,1.2c0,0.7-0.3,1.2-0.9,1.6
		c-0.6,0.4-1.4,0.6-2.5,0.6c-0.8,0-1.5-0.1-1.9-0.4c-0.4-0.3-0.7-0.7-0.7-1.2c0-0.4,0.1-0.7,0.3-0.9s0.6-0.4,1-0.5
		c-0.2-0.1-0.3-0.2-0.4-0.4s-0.2-0.3-0.2-0.5s0.1-0.4,0.2-0.6c0.1-0.2,0.3-0.3,0.6-0.4c-0.3-0.1-0.6-0.4-0.7-0.7s-0.3-0.7-0.3-1.1
		c0-0.7,0.2-1.2,0.6-1.5c0.4-0.4,1-0.5,1.8-0.5c0.2,0,0.4,0,0.6,0s0.4,0.1,0.4,0.1L468.8,206.2L468.8,206.2z M464.1,213
		c0,0.2,0.1,0.4,0.3,0.5c0.2,0.1,0.5,0.2,0.9,0.2c0.6,0,1-0.1,1.4-0.2s0.5-0.4,0.5-0.7c0-0.2-0.1-0.4-0.3-0.5
		c-0.2-0.1-0.5-0.1-0.9-0.1h-0.8c-0.3,0-0.6,0.1-0.8,0.2C464.2,212.6,464.1,212.8,464.1,213z M464.7,208.1c0,0.3,0.1,0.6,0.2,0.8
		s0.4,0.3,0.7,0.3c0.3,0,0.5-0.1,0.7-0.3c0.1-0.2,0.2-0.4,0.2-0.8c0-0.7-0.3-1.1-0.9-1.1C465,207.1,464.7,207.4,464.7,208.1z"/>
	<path class="st6" d="M474,210.4c0,0.6-0.2,1.1-0.6,1.4s-1.1,0.5-1.9,0.5c-0.4,0-0.8,0-1.1-0.1c-0.3-0.1-0.6-0.1-0.9-0.3v-1.4
		c0.3,0.1,0.6,0.3,1,0.4c0.4,0.1,0.7,0.1,1,0.1c0.6,0,0.9-0.2,0.9-0.5c0-0.1,0-0.2-0.1-0.3s-0.2-0.2-0.4-0.3
		c-0.2-0.1-0.5-0.2-0.8-0.4c-0.5-0.2-0.8-0.4-1-0.5c-0.2-0.2-0.4-0.4-0.5-0.6c-0.1-0.2-0.1-0.5-0.1-0.8c0-0.5,0.2-0.9,0.6-1.2
		s1-0.4,1.8-0.4c0.7,0,1.4,0.2,2.1,0.5l-0.5,1.2c-0.3-0.1-0.6-0.2-0.8-0.3c-0.3-0.1-0.5-0.1-0.8-0.1c-0.5,0-0.7,0.1-0.7,0.4
		c0,0.1,0.1,0.3,0.2,0.4c0.2,0.1,0.5,0.3,1,0.5s0.8,0.4,1,0.5c0.2,0.2,0.4,0.4,0.5,0.6C473.9,209.8,474,210.1,474,210.4z"/>
</g>
<g>
	<g>
		<line class="st8" x1="513.5" y1="254.9" x2="513.5" y2="287.9"/>
		<polygon class="st6" points="510.5,278.4 516.5,278.4 513.5,289.4 		"/>
	</g>
	<g>
		<line class="st8" x1="394.5" y1="254.9" x2="394.5" y2="287.9"/>
		<polygon class="st6" points="391.5,278.4 397.5,278.4 394.5,289.4 		"/>
	</g>
	<line class="st8" x1="394.5" y1="254.9" x2="513.5" y2="254.9"/>
	<line class="st8" x1="454" y1="253.4" x2="454" y2="237.4"/>
</g>
<path class="st7" d="M443.6,328.9c0,19.3-14.5,35-49.6,35s-46.6-15.7-46.6-35s11.5-35,46.6-35S443.6,309.6,443.6,328.9z"/>
<g>
	<path class="st6" d="M374.6,329v3H373v-7.9h2.3c1.1,0,1.9,0.2,2.4,0.6s0.8,1,0.8,1.8c0,0.5-0.1,0.9-0.4,1.2
		c-0.3,0.4-0.6,0.6-1.1,0.8c1.2,1.8,2,2.9,2.3,3.4h-1.8l-1.9-3h-1V329z M374.6,327.6h0.5c0.5,0,0.9-0.1,1.2-0.3
		c0.3-0.2,0.4-0.5,0.4-0.8c0-0.4-0.1-0.6-0.4-0.8s-0.7-0.2-1.2-0.2h-0.5V327.6z"/>
	<path class="st6" d="M382.8,332.1c-1,0-1.7-0.3-2.3-0.8c-0.5-0.5-0.8-1.3-0.8-2.3s0.3-1.8,0.8-2.3s1.2-0.8,2.1-0.8
		c0.8,0,1.5,0.2,2,0.7s0.7,1.2,0.7,2v0.8h-3.9c0,0.5,0.2,0.8,0.4,1.1s0.6,0.4,1.1,0.4c0.4,0,0.7,0,1-0.1s0.7-0.2,1-0.4v1.3
		c-0.3,0.1-0.6,0.2-0.9,0.3C383.7,332.1,383.3,332.1,382.8,332.1z M382.6,327c-0.3,0-0.6,0.1-0.8,0.3c-0.2,0.2-0.3,0.5-0.3,0.9h2.3
		c0-0.4-0.1-0.7-0.3-0.9C383.2,327.1,382.9,327,382.6,327z"/>
	<path class="st6" d="M388,332l-2.3-6h1.7l1.2,3.4c0.1,0.4,0.2,0.8,0.2,1.2l0,0c0-0.3,0.1-0.8,0.2-1.2l1.2-3.4h1.7l-2.3,6H388z"/>
	<path class="st6" d="M395.6,332.1c-1,0-1.7-0.3-2.3-0.8c-0.5-0.5-0.8-1.3-0.8-2.3s0.3-1.8,0.8-2.3s1.2-0.8,2.1-0.8
		c0.8,0,1.5,0.2,2,0.7s0.7,1.2,0.7,2v0.8h-3.9c0,0.5,0.2,0.8,0.4,1.1s0.6,0.4,1.1,0.4c0.4,0,0.7,0,1-0.1s0.7-0.2,1-0.4v1.3
		c-0.3,0.1-0.6,0.2-0.9,0.3C396.4,332.1,396,332.1,395.6,332.1z M395.3,327c-0.3,0-0.6,0.1-0.8,0.3c-0.2,0.2-0.3,0.5-0.3,0.9h2.3
		c0-0.4-0.1-0.7-0.3-0.9C396,327.1,395.7,327,395.3,327z"/>
	<path class="st6" d="M404.9,332h-1.6v-3.5c0-0.4-0.1-0.8-0.2-1c-0.2-0.2-0.4-0.3-0.7-0.3c-0.5,0-0.8,0.2-1,0.5s-0.3,0.8-0.3,1.5
		v2.8h-1.6v-6h1.3l0.2,0.8h0.1c0.2-0.3,0.4-0.5,0.8-0.7c0.3-0.1,0.7-0.2,1.1-0.2c0.7,0,1.2,0.2,1.6,0.6s0.5,0.9,0.5,1.6v3.9H404.9z"
		/>
	<path class="st6" d="M410.8,332l-0.2-0.8h-0.1c-0.2,0.3-0.4,0.5-0.7,0.6c-0.3,0.2-0.7,0.2-1.1,0.2c-0.7,0-1.2-0.2-1.6-0.6
		s-0.5-0.9-0.5-1.6V326h1.6v3.5c0,0.4,0.1,0.8,0.2,1c0.2,0.2,0.4,0.3,0.7,0.3c0.5,0,0.8-0.2,1-0.5s0.3-0.8,0.3-1.5V326h1.6v6H410.8z
		"/>
	<path class="st6" d="M416.5,332.1c-1,0-1.7-0.3-2.3-0.8c-0.5-0.5-0.8-1.3-0.8-2.3s0.3-1.8,0.8-2.3s1.2-0.8,2.1-0.8
		c0.8,0,1.5,0.2,2,0.7s0.7,1.2,0.7,2v0.8h-3.9c0,0.5,0.2,0.8,0.4,1.1s0.6,0.4,1.1,0.4c0.4,0,0.7,0,1-0.1s0.7-0.2,1-0.4v1.3
		c-0.3,0.1-0.6,0.2-0.9,0.3C417.4,332.1,417,332.1,416.5,332.1z M416.3,327c-0.3,0-0.6,0.1-0.8,0.3c-0.2,0.2-0.3,0.5-0.3,0.9h2.3
		c0-0.4-0.1-0.7-0.3-0.9C416.9,327.1,416.7,327,416.3,327z"/>
</g>
<path class="st7" d="M564.6,328.9c0,19.3-14.5,35-49.6,35c-35.1,0-46.6-15.7-46.6-35s11.5-35,46.6-35
	C550.1,293.9,564.6,309.6,564.6,328.9z"/>
<g>
	<path class="st6" d="M496.9,332h-4.5v-7.9h4.5v1.4H494v1.7h2.7v1.4H494v2h2.9V332z"/>
	<path class="st6" d="M499.6,328.9l-1.9-2.9h1.9l1.2,1.9l1.2-1.9h1.9l-2,2.9l2,3.1H502l-1.3-2.1l-1.3,2.1h-1.9L499.6,328.9z"/>
	<path class="st6" d="M508.1,332.1c-0.7,0-1.3-0.3-1.7-0.8h-0.1c0.1,0.5,0.1,0.8,0.1,0.9v2.4h-1.6V326h1.3l0.2,0.8h0.1
		c0.4-0.6,1-0.9,1.7-0.9s1.3,0.3,1.7,0.8c0.4,0.5,0.6,1.3,0.6,2.3c0,0.6-0.1,1.2-0.3,1.7c-0.2,0.5-0.5,0.8-0.8,1.1
		C509,332,508.5,332.1,508.1,332.1z M507.6,327.2c-0.4,0-0.7,0.1-0.9,0.4c-0.2,0.2-0.3,0.7-0.3,1.2v0.2c0,0.6,0.1,1.1,0.3,1.4
		s0.5,0.4,0.9,0.4c0.7,0,1.1-0.6,1.1-1.8c0-0.6-0.1-1-0.3-1.3C508.3,327.3,508,327.2,507.6,327.2z"/>
	<path class="st6" d="M514.5,332.1c-1,0-1.7-0.3-2.3-0.8c-0.5-0.5-0.8-1.3-0.8-2.3s0.3-1.8,0.8-2.3s1.2-0.8,2.1-0.8
		c0.8,0,1.5,0.2,2,0.7s0.7,1.2,0.7,2v0.8h-4c0,0.5,0.2,0.8,0.4,1.1c0.2,0.3,0.6,0.4,1.1,0.4c0.4,0,0.7,0,1-0.1s0.7-0.2,1-0.4v1.3
		c-0.3,0.1-0.6,0.2-0.9,0.3C515.3,332.1,514.9,332.1,514.5,332.1z M514.2,327c-0.3,0-0.6,0.1-0.8,0.3c-0.2,0.2-0.3,0.5-0.3,0.9h2.3
		c0-0.4-0.1-0.7-0.3-0.9C514.8,327.1,514.6,327,514.2,327z"/>
	<path class="st6" d="M523.8,332h-1.6v-3.5c0-0.4-0.1-0.8-0.2-1c-0.2-0.2-0.4-0.3-0.7-0.3c-0.5,0-0.8,0.2-1,0.5s-0.3,0.8-0.3,1.5
		v2.8h-1.6v-6h1.3l0.2,0.8h0.1c0.2-0.3,0.4-0.5,0.8-0.7c0.3-0.1,0.7-0.2,1.1-0.2c0.7,0,1.2,0.2,1.6,0.6c0.4,0.4,0.5,0.9,0.5,1.6v3.9
		H523.8z"/>
	<path class="st6" d="M529.7,330.2c0,0.6-0.2,1.1-0.6,1.4s-1.1,0.5-1.9,0.5c-0.4,0-0.8,0-1.1-0.1s-0.6-0.1-0.9-0.3v-1.4
		c0.3,0.1,0.6,0.3,1,0.4s0.7,0.1,1,0.1c0.6,0,0.9-0.2,0.9-0.5c0-0.1,0-0.2-0.1-0.3c-0.1-0.1-0.2-0.2-0.4-0.3
		c-0.2-0.1-0.5-0.2-0.8-0.4c-0.5-0.2-0.8-0.4-1-0.5c-0.2-0.2-0.4-0.4-0.5-0.6s-0.1-0.5-0.1-0.8c0-0.5,0.2-0.9,0.6-1.2
		c0.4-0.3,1-0.4,1.8-0.4c0.7,0,1.4,0.2,2.1,0.5l-0.5,1.2c-0.3-0.1-0.6-0.2-0.8-0.3c-0.3-0.1-0.5-0.1-0.8-0.1c-0.5,0-0.7,0.1-0.7,0.4
		c0,0.1,0.1,0.3,0.2,0.4c0.2,0.1,0.5,0.3,1,0.5s0.8,0.4,1,0.5c0.2,0.2,0.4,0.4,0.5,0.6C529.6,329.6,529.7,329.9,529.7,330.2z"/>
	<path class="st6" d="M533.7,332.1c-1,0-1.7-0.3-2.3-0.8c-0.5-0.5-0.8-1.3-0.8-2.3s0.3-1.8,0.8-2.3s1.2-0.8,2.1-0.8
		c0.8,0,1.5,0.2,2,0.7s0.7,1.2,0.7,2v0.8h-3.9c0,0.5,0.2,0.8,0.4,1.1s0.6,0.4,1.1,0.4c0.4,0,0.7,0,1-0.1s0.7-0.2,1-0.4v1.3
		c-0.3,0.1-0.6,0.2-0.9,0.3C534.5,332.1,534.1,332.1,533.7,332.1z M533.4,327c-0.3,0-0.6,0.1-0.8,0.3c-0.2,0.2-0.3,0.5-0.3,0.9h2.3
		c0-0.4-0.1-0.7-0.3-0.9C534,327.1,533.8,327,533.4,327z"/>
	<path class="st6" d="M541.6,330.2c0,0.6-0.2,1.1-0.6,1.4s-1.1,0.5-1.9,0.5c-0.4,0-0.8,0-1.1-0.1s-0.6-0.1-0.9-0.3v-1.4
		c0.3,0.1,0.6,0.3,1,0.4s0.7,0.1,1,0.1c0.6,0,0.9-0.2,0.9-0.5c0-0.1,0-0.2-0.1-0.3c-0.1-0.1-0.2-0.2-0.4-0.3
		c-0.2-0.1-0.5-0.2-0.8-0.4c-0.5-0.2-0.8-0.4-1-0.5c-0.2-0.2-0.4-0.4-0.5-0.6s-0.1-0.5-0.1-0.8c0-0.5,0.2-0.9,0.6-1.2
		c0.4-0.3,1-0.4,1.8-0.4c0.7,0,1.4,0.2,2.1,0.5l-0.5,1.2c-0.3-0.1-0.6-0.2-0.8-0.3c-0.3-0.1-0.5-0.1-0.8-0.1c-0.5,0-0.7,0.1-0.7,0.4
		c0,0.1,0.1,0.3,0.2,0.4c0.2,0.1,0.5,0.3,1,0.5s0.8,0.4,1,0.5c0.2,0.2,0.4,0.4,0.5,0.6C541.6,329.6,541.6,329.9,541.6,330.2z"/>
</g>
<g>
	<path class="st6" d="M451.4,332.2v-4.4h9.4v4.4H451.4z"/>
</g>
<g>
	<path class="st6" d="M569.6,326.9v-3.2h14.5v3.2H569.6z M569.6,332.5v-3.2h14.5v3.2H569.6z"/>
</g>
<path class="st9" d="M687.6,328.9c0,19.3-14.5,35-49.6,35s-46.6-15.7-46.6-35s11.5-35,46.6-35S687.6,309.6,687.6,328.9z"/>
<g>
	<path class="st6" d="M637.6,326h-2.1l-3.5-6l0,0c0.1,1,0.1,1.8,0.1,2.2v3.7h-1.5V318h2.1l3.4,5.9l0,0c-0.1-1-0.1-1.7-0.1-2.2V318
		h1.5L637.6,326L637.6,326z"/>
	<path class="st6" d="M642.1,326.1c-1,0-1.7-0.3-2.3-0.8c-0.5-0.5-0.8-1.3-0.8-2.3s0.3-1.8,0.8-2.3s1.2-0.8,2.1-0.8
		c0.8,0,1.5,0.2,2,0.7s0.7,1.2,0.7,2v0.8h-3.9c0,0.5,0.2,0.8,0.4,1.1s0.6,0.4,1.1,0.4c0.4,0,0.7,0,1-0.1s0.7-0.2,1-0.4v1.3
		c-0.3,0.1-0.6,0.2-0.9,0.3C643,326.1,642.6,326.1,642.1,326.1z M641.9,321c-0.3,0-0.6,0.1-0.8,0.3c-0.2,0.2-0.3,0.5-0.3,0.9h2.3
		c0-0.4-0.1-0.7-0.3-0.9C642.5,321.1,642.2,321,641.9,321z"/>
	<path class="st6" d="M648.4,324.8c0.3,0,0.6-0.1,1-0.2v1.2c-0.4,0.2-0.9,0.3-1.5,0.3c-0.7,0-1.1-0.2-1.4-0.5
		c-0.3-0.3-0.4-0.8-0.4-1.5v-2.9h-0.8v-0.7l0.9-0.5l0.5-1.3h1v1.3h1.7v1.2h-1.7v2.9c0,0.2,0.1,0.4,0.2,0.5S648.2,324.8,648.4,324.8z
		"/>
	<path class="st6" d="M620.4,339.2v-7.9h1.7v7.9H620.4z"/>
	<path class="st6" d="M629.4,339.2h-1.6v-3.5c0-0.4-0.1-0.8-0.2-1c-0.2-0.2-0.4-0.3-0.7-0.3c-0.5,0-0.8,0.2-1,0.5s-0.3,0.8-0.3,1.5
		v2.8H624v-6h1.3l0.2,0.8h0.1c0.2-0.3,0.4-0.5,0.8-0.7c0.3-0.1,0.7-0.2,1.1-0.2c0.7,0,1.2,0.2,1.6,0.6c0.4,0.4,0.5,0.9,0.5,1.6v3.9
		H629.4z"/>
	<path class="st6" d="M633.6,339.3c-1.9,0-2.8-1-2.8-3.1c0-1,0.3-1.8,0.8-2.3s1.2-0.8,2.2-0.8c0.7,0,1.3,0.1,1.9,0.4l-0.5,1.3
		c-0.3-0.1-0.5-0.2-0.7-0.3c-0.2-0.1-0.4-0.1-0.7-0.1c-0.9,0-1.3,0.6-1.3,1.8c0,1.2,0.4,1.8,1.3,1.8c0.3,0,0.6,0,0.9-0.1
		c0.3-0.1,0.5-0.2,0.8-0.4v1.4c-0.3,0.2-0.5,0.3-0.8,0.3S634,339.3,633.6,339.3z"/>
	<path class="st6" d="M642.2,336.2c0,1-0.3,1.7-0.8,2.3s-1.2,0.8-2.2,0.8c-0.6,0-1.1-0.1-1.5-0.4s-0.8-0.6-1-1.1s-0.4-1-0.4-1.7
		c0-1,0.3-1.7,0.8-2.3c0.5-0.5,1.2-0.8,2.2-0.8c0.6,0,1.1,0.1,1.5,0.4s0.8,0.6,1,1.1S642.2,335.5,642.2,336.2z M638.1,336.2
		c0,0.6,0.1,1,0.3,1.3s0.5,0.5,1,0.5c0.4,0,0.8-0.2,0.9-0.5c0.2-0.3,0.3-0.8,0.3-1.4s-0.1-1-0.3-1.3s-0.5-0.4-1-0.4
		c-0.4,0-0.8,0.1-0.9,0.4C638.2,335.1,638.1,335.6,638.1,336.2z"/>
	<path class="st6" d="M649,339.2h-1.6v-3.5c0-0.4-0.1-0.8-0.2-1c-0.1-0.2-0.4-0.3-0.7-0.3c-0.4,0-0.7,0.2-0.9,0.5s-0.3,0.8-0.3,1.5
		v2.8h-1.6v-6h1.3l0.2,0.8h0.1c0.2-0.3,0.4-0.5,0.7-0.6c0.3-0.2,0.7-0.2,1-0.2c0.9,0,1.5,0.3,1.8,0.9h0.1c0.2-0.3,0.4-0.5,0.7-0.6
		s0.7-0.2,1.1-0.2c0.7,0,1.2,0.2,1.5,0.5s0.5,0.9,0.5,1.7v3.9h-1.6v-3.5c0-0.4-0.1-0.8-0.2-1c-0.1-0.2-0.4-0.3-0.7-0.3
		c-0.4,0-0.7,0.1-0.9,0.4s-0.3,0.7-0.3,1.4L649,339.2L649,339.2z"/>
	<path class="st6" d="M657.1,339.3c-1,0-1.7-0.3-2.3-0.8c-0.5-0.5-0.8-1.3-0.8-2.3s0.3-1.8,0.8-2.3s1.2-0.8,2.1-0.8
		c0.8,0,1.5,0.2,2,0.7s0.7,1.2,0.7,2v0.8h-3.9c0,0.5,0.2,0.8,0.4,1.1s0.6,0.4,1.1,0.4c0.4,0,0.7,0,1-0.1s0.7-0.2,1-0.4v1.3
		c-0.3,0.1-0.6,0.2-0.9,0.3C658,339.3,657.6,339.3,657.1,339.3z M656.9,334.2c-0.3,0-0.6,0.1-0.8,0.3c-0.2,0.2-0.3,0.5-0.3,0.9h2.3
		c0-0.4-0.1-0.7-0.3-0.9C657.5,334.3,657.2,334.2,656.9,334.2z"/>
</g>
</svg>
