<?xml version="1.0" encoding="utf-8"?>
<!-- Generator: Adobe Illustrator 23.0.3, SVG Export Plug-In . SVG Version: 6.00 Build 0)  -->
<svg version="1.1" id="Layer_1" xmlns="http://www.w3.org/2000/svg" xmlns:xlink="http://www.w3.org/1999/xlink" x="0px" y="0px"
	 viewBox="0 0 499.2 246.7" style="enable-background:new 0 0 499.2 246.7;" xml:space="preserve">
<style type="text/css">
	.st0{fill:#CF6B3E;}
	.st1{fill:#F58553;}
	.st2{fill:#DCDBDB;}
	.st3{fill:#010101;}
	.st4{fill:#2A5CA8;}
	.st5{fill:#FFFFFF;}
	.st6{fill:#555554;}
	.st7{fill:#C1D1EC;}
	.st8{fill:#FDDFD3;}
	.st9{fill:#E8E7E7;}
	.st10{fill:none;stroke:#555554;stroke-miterlimit:10;}
</style>
<title>Accounting_Equation</title>
<path class="st0" d="M312.1,81.4h171.5c1.6,0,2.8,1.3,2.8,2.8v39c0,1.6-1.3,2.8-2.8,2.8H312.1c-1.6,0-2.8-1.3-2.8-2.8v-39
	C309.3,82.6,310.6,81.4,312.1,81.4z"/>
<path class="st1" d="M159.7,81.4h95.5c1.6,0,2.8,1.3,2.8,2.8v39c0,1.6-1.3,2.8-2.8,2.8h-95.5c-1.6,0-2.8-1.3-2.8-2.8v-39
	C156.9,82.6,158.1,81.4,159.7,81.4z"/>
<g>
	<path class="st2" d="M164.4,10.4h171.5c1.6,0,2.8,1.3,2.8,2.8v31c0,1.6-1.3,2.8-2.8,2.8H164.4c-1.6,0-2.8-1.3-2.8-2.8v-31
		C161.5,11.6,162.8,10.4,164.4,10.4z"/>
	<path class="st3" d="M185.1,34.2l-0.7-2.4h-3.6l-0.7,2.4h-2.3l3.5-10h2.6l3.5,10H185.1z M183.9,30l-1.1-3.7
		c-0.1-0.3-0.1-0.5-0.2-0.7c-0.1,0.6-0.6,2-1.3,4.3L183.9,30z"/>
	<path class="st3" d="M191.6,34.3c-2.4,0-3.6-1.3-3.6-3.9c-0.1-1.1,0.3-2.2,1-3c0.7-0.7,1.8-1.1,2.8-1c0.8,0,1.6,0.2,2.4,0.5
		l-0.6,1.6c-0.3-0.1-0.6-0.2-0.9-0.3c-0.3-0.1-0.6-0.1-0.9-0.1c-1.1,0-1.6,0.8-1.6,2.3s0.6,2.2,1.6,2.2c0.4,0,0.8,0,1.1-0.2
		c0.4-0.1,0.7-0.3,1-0.5v1.8c-0.3,0.2-0.6,0.4-1,0.5C192.5,34.3,192,34.3,191.6,34.3z"/>
	<path class="st3" d="M198.8,34.3c-2.4,0-3.6-1.3-3.6-3.9c-0.1-1.1,0.3-2.2,1-3c0.7-0.7,1.8-1.1,2.8-1c0.8,0,1.6,0.2,2.4,0.5
		l-0.6,1.6c-0.3-0.1-0.6-0.2-0.9-0.3c-0.3-0.1-0.6-0.1-0.9-0.1c-1.1,0-1.6,0.8-1.6,2.3s0.6,2.2,1.6,2.2c0.4,0,0.8,0,1.1-0.2
		c0.4-0.1,0.7-0.3,1-0.5v1.8c-0.3,0.2-0.6,0.4-1,0.5C199.7,34.3,199.2,34.3,198.8,34.3z"/>
	<path class="st3" d="M209.8,30.3c0.1,1.1-0.3,2.1-1,2.9c-0.7,0.7-1.7,1.1-2.7,1c-0.7,0-1.3-0.2-1.9-0.5c-0.6-0.3-1-0.8-1.3-1.4
		c-0.3-0.7-0.5-1.4-0.5-2.1c-0.1-1.1,0.3-2.1,1-2.9c0.7-0.7,1.7-1.1,2.8-1c0.7,0,1.3,0.2,1.9,0.5c0.6,0.3,1,0.8,1.3,1.4
		C209.7,28.9,209.8,29.6,209.8,30.3z M204.5,30.3c0,0.6,0.1,1.2,0.4,1.7c0.5,0.7,1.5,0.8,2.2,0.3c0.1-0.1,0.2-0.2,0.3-0.3
		c0.3-0.5,0.4-1.1,0.4-1.7c0-0.6-0.1-1.2-0.4-1.7c-0.3-0.4-0.7-0.6-1.2-0.6c-0.5,0-0.9,0.2-1.2,0.6
		C204.6,29.1,204.5,29.7,204.5,30.3z"/>
	<path class="st3" d="M217,34.2l-0.3-1h-0.1c-0.2,0.4-0.6,0.6-1,0.8c-0.4,0.2-0.9,0.3-1.4,0.3c-0.7,0-1.5-0.2-2-0.7
		c-0.5-0.6-0.7-1.3-0.7-2.1v-5h2.1V31c0,0.4,0.1,0.9,0.3,1.2c0.2,0.3,0.6,0.4,0.9,0.4c0.5,0,1-0.2,1.3-0.6c0.3-0.6,0.4-1.3,0.4-1.9
		v-3.6h2.1v7.7H217z"/>
	<path class="st3" d="M227.8,34.2h-2.1v-4.5c0-0.4-0.1-0.9-0.3-1.2c-0.2-0.3-0.6-0.5-0.9-0.4c-0.5,0-1,0.2-1.3,0.6
		c-0.3,0.6-0.4,1.3-0.4,1.9v3.6h-2.1v-7.6h1.6l0.3,1h0.1c0.2-0.4,0.6-0.7,1-0.8c0.4-0.2,0.9-0.3,1.4-0.3c0.7,0,1.5,0.2,2,0.7
		c0.5,0.6,0.7,1.3,0.7,2.1L227.8,34.2z"/>
	<path class="st3" d="M233.2,32.6c0.4,0,0.9-0.1,1.3-0.2v1.5c-0.6,0.2-1.3,0.4-1.9,0.4c-0.7,0.1-1.3-0.2-1.8-0.6
		c-0.4-0.5-0.6-1.2-0.6-1.9v-3.7h-1v-0.9l1.1-0.7l0.6-1.6h1.3v1.6h2.1v1.6h-2.1v3.7c0,0.2,0.1,0.5,0.3,0.7
		C232.7,32.6,232.9,32.6,233.2,32.6z"/>
	<path class="st3" d="M235.9,24.5c0-0.7,0.4-1,1.1-1s1.1,0.3,1.1,1c0,0.3-0.1,0.6-0.3,0.8c-0.2,0.2-0.5,0.3-0.9,0.3
		C236.3,25.6,235.9,25.2,235.9,24.5z M238.1,34.2H236v-7.6h2.1L238.1,34.2z"/>
	<path class="st3" d="M247.3,34.2h-2.1v-4.5c0-0.4-0.1-0.9-0.3-1.2c-0.2-0.3-0.6-0.4-0.9-0.4c-0.5,0-1,0.2-1.3,0.6
		c-0.3,0.6-0.4,1.3-0.4,1.9v3.6h-2.1v-7.6h1.6l0.3,1h0.1c0.2-0.4,0.6-0.7,1-0.8c0.4-0.2,0.9-0.3,1.4-0.3c0.7,0,1.5,0.2,2,0.7
		c0.5,0.6,0.7,1.3,0.7,2.1L247.3,34.2z"/>
	<path class="st3" d="M256.1,26.5v1.1l-1.2,0.3c0.2,0.3,0.3,0.7,0.3,1.1c0,0.7-0.3,1.4-0.9,1.9c-0.7,0.5-1.5,0.7-2.4,0.7h-0.4h-0.3
		c-0.2,0.1-0.3,0.3-0.3,0.5c0,0.3,0.4,0.5,1.1,0.5h1.3c0.7,0,1.4,0.1,1.9,0.5c0.5,0.4,0.7,1,0.7,1.6c0,0.8-0.4,1.6-1.1,2.1
		c-1,0.5-2.1,0.8-3.2,0.7c-0.9,0.1-1.7-0.1-2.5-0.6c-0.5-0.3-0.9-0.9-0.8-1.6c0-0.4,0.1-0.8,0.4-1.2c0.3-0.3,0.8-0.6,1.3-0.7
		c-0.2-0.1-0.4-0.3-0.6-0.5c-0.2-0.2-0.2-0.4-0.2-0.7c0-0.3,0.1-0.5,0.3-0.7c0.2-0.2,0.5-0.4,0.7-0.6c-0.4-0.2-0.8-0.5-1-0.8
		c-0.2-0.4-0.4-0.9-0.4-1.4c0-0.7,0.3-1.5,0.8-1.9c0.7-0.5,1.5-0.7,2.3-0.7c0.3,0,0.5,0,0.8,0.1c0.2,0,0.4,0,0.6,0.1L256.1,26.5z
		 M250.2,35.2c0,0.3,0.2,0.6,0.4,0.7c0.4,0.2,0.8,0.3,1.2,0.3c0.6,0,1.2-0.1,1.8-0.3c0.4-0.1,0.6-0.5,0.6-0.8c0-0.3-0.1-0.5-0.4-0.6
		c-0.4-0.1-0.8-0.2-1.2-0.2h-1.1c-0.4,0-0.7,0.1-1,0.3C250.4,34.7,250.2,35,250.2,35.2L250.2,35.2z M251,29c0,0.4,0.1,0.7,0.3,1
		c0.5,0.5,1.2,0.5,1.7,0c0,0,0,0,0,0c0.2-0.3,0.3-0.6,0.3-1c0-0.9-0.4-1.4-1.1-1.4C251.4,27.6,251,28.1,251,29L251,29z"/>
	<path class="st3" d="M267,34.2h-5.8v-10h5.8v1.7h-3.6v2.2h3.4v1.7h-3.4v2.6h3.6V34.2z"/>
	<path class="st3" d="M271.3,34.3c-0.8,0-1.6-0.3-2.1-1c-0.6-0.9-0.8-1.9-0.8-2.9c-0.1-1,0.2-2.1,0.8-2.9c0.5-0.7,1.3-1.1,2.1-1
		c0.4,0,0.9,0.1,1.3,0.3c0.4,0.2,0.7,0.5,1,0.9h0.1l0.2-1h1.8v11h-2.1v-3.2c0-0.4,0-0.8,0.1-1.1h-0.1c-0.2,0.4-0.5,0.7-0.9,0.8
		C272.2,34.2,271.7,34.3,271.3,34.3z M272,32.7c0.4,0,0.9-0.1,1.2-0.5c0.3-0.5,0.4-1,0.4-1.6v-0.3c0-0.6-0.1-1.2-0.4-1.8
		c-0.3-0.4-0.7-0.6-1.2-0.5c-1,0-1.5,0.8-1.5,2.3c0,0.6,0.1,1.2,0.4,1.7C271.1,32.5,271.6,32.7,272,32.7L272,32.7z"/>
	<path class="st3" d="M283.1,34.2l-0.3-1h-0.1c-0.2,0.4-0.6,0.6-1,0.8c-0.4,0.2-0.9,0.3-1.4,0.3c-0.7,0-1.5-0.2-2-0.7
		c-0.5-0.6-0.7-1.3-0.7-2.1v-5h2.1V31c0,0.4,0.1,0.9,0.3,1.2c0.2,0.3,0.6,0.4,0.9,0.4c0.5,0,1-0.2,1.3-0.6c0.3-0.6,0.4-1.3,0.4-1.9
		v-3.6h2.1v7.7H283.1z"/>
	<path class="st3" d="M291.8,34.2l-0.4-1h-0.1c-0.3,0.4-0.7,0.7-1.1,0.9c-0.5,0.2-1,0.3-1.5,0.3c-0.6,0-1.3-0.2-1.7-0.6
		c-0.4-0.5-0.7-1.1-0.6-1.8c-0.1-0.7,0.3-1.4,0.9-1.8c0.8-0.4,1.7-0.7,2.6-0.6h1.3v-0.3c0.1-0.5-0.3-1.1-0.8-1.2c-0.1,0-0.3,0-0.4,0
		c-0.8,0-1.5,0.2-2.2,0.5l-0.7-1.4c0.9-0.5,1.9-0.7,2.9-0.7c0.8-0.1,1.7,0.2,2.4,0.7c0.6,0.5,0.9,1.2,0.8,2v5.1H291.8z M291.2,30.6
		h-0.8c-0.5,0-0.9,0.1-1.4,0.3c-0.3,0.2-0.5,0.5-0.5,0.9c0,0.6,0.3,0.9,1,0.9c0.4,0,0.8-0.1,1.2-0.4c0.3-0.3,0.5-0.7,0.4-1.1
		L291.2,30.6z"/>
	<path class="st3" d="M298.6,32.6c0.4,0,0.9-0.1,1.3-0.2v1.5c-0.6,0.2-1.3,0.4-1.9,0.4c-0.7,0.1-1.3-0.2-1.8-0.6
		c-0.4-0.5-0.6-1.2-0.6-1.9v-3.7h-1v-0.9l1.1-0.7l0.6-1.6h1.3v1.6h2.1v1.6h-2.1v3.7c0,0.2,0.1,0.5,0.2,0.7
		C298.1,32.6,298.4,32.6,298.6,32.6z"/>
	<path class="st3" d="M301.4,24.5c0-0.7,0.4-1,1.1-1c0.8,0,1.1,0.3,1.1,1c0,0.3-0.1,0.5-0.3,0.8c-0.2,0.2-0.5,0.3-0.9,0.3
		C301.8,25.6,301.4,25.2,301.4,24.5z M303.6,34.2h-2.1v-7.6h2.1V34.2z"/>
	<path class="st3" d="M312.7,30.3c0.1,1.1-0.3,2.1-1,2.9c-0.7,0.7-1.7,1.1-2.8,1c-0.7,0-1.3-0.2-1.9-0.5c-0.6-0.3-1-0.8-1.3-1.4
		c-0.3-0.7-0.5-1.4-0.5-2.1c-0.1-1.1,0.3-2.1,1-2.9c0.7-0.7,1.7-1.1,2.7-1c0.7,0,1.4,0.2,2,0.5c0.6,0.3,1,0.8,1.3,1.4
		C312.5,28.9,312.7,29.6,312.7,30.3z M307.4,30.3c0,0.6,0.1,1.2,0.4,1.7c0.3,0.4,0.7,0.6,1.2,0.6c0.5,0,0.9-0.2,1.2-0.6
		c0.3-0.5,0.4-1.1,0.4-1.7c0-0.6-0.1-1.2-0.4-1.7c-0.3-0.4-0.7-0.6-1.2-0.6c-0.5,0-0.9,0.2-1.2,0.6
		C307.5,29.1,307.4,29.7,307.4,30.3z"/>
	<path class="st3" d="M321.5,34.2h-2.1v-4.5c0-0.4-0.1-0.9-0.3-1.2c-0.2-0.3-0.6-0.4-0.9-0.4c-0.5,0-1,0.2-1.3,0.6
		c-0.3,0.6-0.4,1.3-0.4,1.9v3.6h-2.1v-7.6h1.6l0.3,1h0.1c0.2-0.4,0.6-0.7,1-0.8c0.4-0.2,0.9-0.3,1.4-0.3c0.7,0,1.5,0.2,2,0.7
		c0.5,0.6,0.7,1.3,0.7,2.1L321.5,34.2z"/>
</g>
<path class="st4" d="M20.1,81.4h75.5c1.6,0,2.8,1.3,2.8,2.8v39c0,1.6-1.3,2.8-2.8,2.8H20.1c-1.6,0-2.8-1.3-2.8-2.8v-39
	C17.3,82.6,18.6,81.4,20.1,81.4z"/>
<path class="st5" d="M43.3,108.2l-0.7-2.2h-3.4l-0.7,2.2h-2.1l3.3-9.3h2.4l3.3,9.3H43.3z M42.2,104.3c-0.6-2-1-3.1-1.1-3.4
	c-0.1-0.3-0.1-0.5-0.2-0.6c-0.1,0.5-0.5,1.9-1.2,4L42.2,104.3z"/>
<path class="st5" d="M51.4,106.1c0,0.6-0.3,1.3-0.8,1.7c-0.7,0.4-1.5,0.6-2.3,0.6c-0.4,0-0.9,0-1.3-0.1c-0.3-0.1-0.7-0.2-1-0.3v-1.6
	c0.4,0.2,0.8,0.3,1.2,0.4c0.4,0.1,0.8,0.2,1.2,0.2c0.7,0,1.1-0.2,1.1-0.6c0-0.1,0-0.3-0.1-0.4c-0.1-0.1-0.3-0.2-0.5-0.3
	c-0.2-0.1-0.5-0.3-0.9-0.4c-0.4-0.2-0.8-0.4-1.2-0.6c-0.2-0.2-0.4-0.4-0.6-0.7c-0.1-0.3-0.2-0.6-0.2-0.9c0-0.6,0.3-1.1,0.7-1.5
	c0.6-0.4,1.4-0.6,2.1-0.5c0.9,0,1.7,0.2,2.5,0.6l-0.6,1.4c-0.4-0.1-0.7-0.3-1-0.4c-0.3-0.1-0.7-0.1-1-0.1c-0.6,0-0.8,0.1-0.8,0.5
	c0,0.2,0.1,0.4,0.3,0.5c0.4,0.2,0.8,0.4,1.2,0.6c0.4,0.2,0.8,0.4,1.2,0.6c0.2,0.2,0.4,0.4,0.6,0.7C51.3,105.4,51.4,105.7,51.4,106.1
	z"/>
<path class="st5" d="M57.9,106.1c0,0.6-0.3,1.3-0.8,1.7c-0.7,0.4-1.5,0.6-2.3,0.6c-0.4,0-0.9,0-1.3-0.1c-0.3-0.1-0.7-0.2-1-0.3v-1.6
	c0.4,0.2,0.8,0.3,1.2,0.4c0.4,0.1,0.8,0.2,1.2,0.2c0.7,0,1.1-0.2,1.1-0.6c0-0.1,0-0.3-0.1-0.4c-0.1-0.1-0.3-0.2-0.5-0.3
	c-0.2-0.1-0.5-0.3-0.9-0.4c-0.4-0.2-0.8-0.4-1.2-0.6c-0.2-0.2-0.4-0.4-0.6-0.7c-0.1-0.3-0.2-0.6-0.2-0.9c0-0.6,0.3-1.1,0.7-1.5
	c0.6-0.4,1.4-0.6,2.1-0.5c0.9,0,1.7,0.2,2.5,0.6l-0.6,1.4c-0.4-0.1-0.7-0.3-1-0.4c-0.3-0.1-0.6-0.1-0.9-0.1c-0.6,0-0.9,0.1-0.9,0.5
	c0,0.2,0.1,0.4,0.3,0.5c0.4,0.2,0.8,0.4,1.2,0.6c0.4,0.2,0.8,0.4,1.2,0.6c0.2,0.2,0.4,0.4,0.6,0.7C57.8,105.4,57.9,105.7,57.9,106.1
	z"/>
<path class="st5" d="M62.6,108.3c-1,0.1-1.9-0.3-2.7-0.9c-0.7-0.7-1-1.7-1-2.7c-0.1-1,0.3-2,0.9-2.8c0.6-0.7,1.5-1,2.5-1
	c0.9,0,1.7,0.3,2.3,0.9c0.6,0.6,0.9,1.5,0.8,2.4v0.9h-4.6c0,0.5,0.2,0.9,0.5,1.3c0.3,0.3,0.8,0.5,1.3,0.5c0.4,0,0.8,0,1.2-0.1
	c0.4-0.1,0.8-0.2,1.2-0.4v1.5c-0.3,0.2-0.7,0.3-1.1,0.4C63.5,108.2,63.1,108.3,62.6,108.3z M62.3,102.3c-0.4,0-0.7,0.1-1,0.4
	c-0.3,0.3-0.4,0.7-0.4,1.1h2.7c0-0.4-0.1-0.8-0.4-1.1C63,102.4,62.7,102.3,62.3,102.3L62.3,102.3z"/>
<path class="st5" d="M70.1,106.7c0.4,0,0.8-0.1,1.2-0.2v1.4c-0.6,0.2-1.2,0.3-1.8,0.3c-0.6,0.1-1.2-0.2-1.7-0.6
	c-0.4-0.5-0.6-1.1-0.5-1.8v-3.4h-0.9v-0.8l1.1-0.6l0.6-1.5h1.2v1.5h2v1.5h-2v3.4c0,0.2,0.1,0.5,0.2,0.6
	C69.6,106.7,69.8,106.8,70.1,106.7z"/>
<path class="st5" d="M77.7,106.1c0,0.6-0.2,1.3-0.8,1.7c-0.7,0.4-1.5,0.6-2.3,0.6c-0.4,0-0.9,0-1.3-0.1c-0.3-0.1-0.7-0.2-1-0.3v-1.6
	c0.4,0.2,0.8,0.3,1.2,0.4c0.4,0.1,0.8,0.2,1.2,0.2c0.7,0,1-0.2,1-0.6c0-0.1,0-0.3-0.1-0.4c-0.1-0.1-0.3-0.2-0.5-0.3
	c-0.2-0.1-0.5-0.3-0.9-0.4c-0.4-0.2-0.8-0.4-1.2-0.6c-0.2-0.2-0.4-0.4-0.6-0.7c-0.1-0.3-0.2-0.6-0.2-0.9c0-0.6,0.3-1.1,0.7-1.5
	c0.6-0.4,1.4-0.6,2.1-0.5c0.9,0,1.7,0.2,2.5,0.6l-0.6,1.4c-0.3-0.1-0.7-0.3-1-0.4c-0.3-0.1-0.7-0.1-1-0.1c-0.6,0-0.9,0.1-0.9,0.5
	c0,0.2,0.1,0.4,0.3,0.5c0.4,0.2,0.8,0.4,1.2,0.6c0.4,0.2,0.8,0.4,1.2,0.6c0.2,0.2,0.4,0.4,0.6,0.7C77.6,105.4,77.6,105.7,77.7,106.1
	z"/>
<path class="st5" d="M177.1,108.2v-9.3h2v7.7h3.8v1.6H177.1z"/>
<path class="st5" d="M184.2,99.2c0-0.6,0.4-0.9,1.1-0.9s1,0.3,1,0.9c0,0.3-0.1,0.5-0.3,0.7c-0.2,0.2-0.5,0.3-0.8,0.3
	C184.6,100.2,184.2,99.9,184.2,99.2z M186.2,108.2h-1.9v-7.1h1.9V108.2z"/>
<path class="st5" d="M192.8,108.2l-0.4-1h-0.1c-0.3,0.4-0.6,0.6-1,0.9c-0.4,0.2-0.9,0.3-1.4,0.2c-0.6,0-1.2-0.2-1.6-0.6
	c-0.4-0.5-0.6-1.1-0.6-1.7c0-0.7,0.3-1.3,0.8-1.7c0.7-0.4,1.5-0.6,2.4-0.6h1.2v-0.3c0-0.6-0.4-1-0.9-1.1c-0.1,0-0.1,0-0.2,0
	c-0.7,0-1.4,0.2-2,0.5l-0.6-1.3c0.8-0.4,1.8-0.6,2.7-0.6c0.8-0.1,1.6,0.2,2.2,0.6c0.5,0.5,0.8,1.2,0.8,1.9v4.7H192.8z M192.2,104.9
	h-0.8c-0.4,0-0.9,0.1-1.3,0.3c-0.3,0.2-0.4,0.5-0.4,0.9c0,0.5,0.3,0.8,0.9,0.8c0.4,0,0.8-0.1,1.1-0.4c0.3-0.3,0.4-0.6,0.4-1V104.9z"
	/>
<path class="st5" d="M200.1,100.9c0.8,0,1.6,0.3,2,1c1,1.7,1,3.7,0,5.4c-0.9,1.1-2.5,1.3-3.6,0.4c-0.2-0.1-0.3-0.3-0.4-0.4h-0.1
	l-0.3,0.8h-1.5v-9.9h1.9v2.3c0,0.3,0,0.8-0.1,1.4h0.1C198.5,101.3,199.2,100.9,200.1,100.9z M199.4,102.5c-0.4,0-0.8,0.1-1,0.4
	c-0.3,0.4-0.4,0.9-0.4,1.5v0.2c0,0.6,0.1,1.1,0.3,1.6c0.3,0.3,0.7,0.5,1.1,0.5c0.4,0,0.8-0.2,0.9-0.5c0.3-0.5,0.4-1,0.4-1.6
	c0-0.5-0.1-1.1-0.4-1.6C200.2,102.7,199.8,102.5,199.4,102.5L199.4,102.5z"/>
<path class="st5" d="M204.2,99.2c0-0.6,0.4-0.9,1.1-0.9c0.7,0,1,0.3,1,0.9c0,0.3-0.1,0.5-0.3,0.7c-0.2,0.2-0.5,0.3-0.8,0.3
	C204.6,100.2,204.2,99.9,204.2,99.2z M206.2,108.2h-1.9v-7.1h1.9V108.2z"/>
<path class="st5" d="M210.2,108.2h-1.9v-9.9h1.9V108.2z"/>
<path class="st5" d="M212.2,99.2c0-0.6,0.4-0.9,1-0.9s1,0.3,1,0.9c0,0.3-0.1,0.5-0.3,0.7c-0.2,0.2-0.5,0.3-0.8,0.3
	C212.5,100.2,212.2,99.9,212.2,99.2z M214.2,108.2h-1.9v-7.1h1.9L214.2,108.2z"/>
<path class="st5" d="M219.2,106.7c0.4,0,0.8-0.1,1.2-0.2v1.4c-0.6,0.2-1.2,0.3-1.8,0.3c-0.6,0.1-1.2-0.2-1.7-0.6
	c-0.4-0.5-0.6-1.1-0.5-1.8v-3.4h-0.9v-0.8l1.1-0.6l0.5-1.5h1.2v1.5h2v1.5h-2v3.4c0,0.2,0.1,0.5,0.2,0.6
	C218.8,106.7,219,106.8,219.2,106.7z"/>
<path class="st5" d="M221.8,99.2c0-0.6,0.4-0.9,1-0.9s1,0.3,1,0.9c0,0.3-0.1,0.5-0.3,0.7c-0.2,0.2-0.5,0.3-0.8,0.3
	C222.1,100.2,221.8,99.9,221.8,99.2z M223.8,108.2h-1.9v-7.1h1.9V108.2z"/>
<path class="st5" d="M229.1,108.3c-1,0.1-1.9-0.3-2.7-0.9c-0.7-0.7-1-1.7-1-2.7c-0.1-1,0.3-2,0.9-2.8c1.3-1.3,3.4-1.3,4.8-0.1
	c0.6,0.6,0.9,1.5,0.8,2.4v0.9h-4.6c0,0.5,0.2,0.9,0.5,1.3c0.3,0.3,0.8,0.5,1.3,0.5c0.4,0,0.8,0,1.2-0.1c0.4-0.1,0.8-0.2,1.2-0.4v1.5
	c-0.3,0.2-0.7,0.3-1.1,0.4C230,108.2,229.5,108.3,229.1,108.3z M228.8,102.3c-0.4,0-0.7,0.1-1,0.4c-0.3,0.3-0.4,0.7-0.4,1.1h2.7
	c0-0.4-0.1-0.8-0.4-1.1C229.5,102.4,229.1,102.3,228.8,102.3L228.8,102.3z"/>
<path class="st5" d="M238.5,106.1c0,0.6-0.3,1.3-0.8,1.7c-0.7,0.4-1.5,0.6-2.3,0.6c-0.4,0-0.9,0-1.3-0.1c-0.3-0.1-0.7-0.2-1-0.3
	v-1.6c0.4,0.2,0.8,0.3,1.2,0.4c0.4,0.1,0.8,0.2,1.2,0.2c0.7,0,1.1-0.2,1.1-0.6c0-0.1,0-0.3-0.1-0.4c-0.1-0.1-0.3-0.2-0.5-0.3
	c-0.2-0.1-0.5-0.3-0.9-0.4c-0.4-0.2-0.8-0.4-1.2-0.6c-0.2-0.2-0.4-0.4-0.6-0.7c-0.1-0.3-0.2-0.6-0.2-0.9c0-0.6,0.3-1.1,0.7-1.5
	c0.6-0.4,1.4-0.6,2.1-0.5c0.9,0,1.7,0.2,2.5,0.6l-0.6,1.4c-0.4-0.1-0.7-0.3-1-0.4c-0.3-0.1-0.6-0.1-0.9-0.1c-0.6,0-0.9,0.1-0.9,0.5
	c0,0.2,0.1,0.4,0.3,0.5c0.4,0.2,0.8,0.4,1.2,0.6c0.4,0.2,0.8,0.4,1.2,0.6c0.2,0.2,0.4,0.4,0.6,0.7
	C238.4,105.4,238.5,105.7,238.5,106.1z"/>
<path class="st5" d="M339.1,105.6c0,0.8-0.3,1.5-0.9,2c-0.7,0.5-1.6,0.8-2.5,0.7c-0.9,0-1.8-0.2-2.6-0.6v-1.8c0.5,0.2,1,0.4,1.6,0.6
	c0.4,0.1,0.8,0.2,1.2,0.2c0.4,0,0.7-0.1,1-0.3c0.2-0.2,0.4-0.5,0.4-0.7c0-0.2-0.1-0.3-0.2-0.5c-0.1-0.2-0.3-0.3-0.4-0.4
	c-0.4-0.2-0.8-0.4-1.2-0.6c-0.5-0.2-0.9-0.5-1.3-0.8c-0.3-0.2-0.5-0.5-0.7-0.9c-0.5-1-0.3-2.3,0.6-3.1c0.7-0.5,1.5-0.7,2.3-0.7
	c0.5,0,0.9,0.1,1.4,0.2c0.5,0.1,0.9,0.3,1.4,0.5l-0.6,1.5c-0.4-0.2-0.8-0.3-1.2-0.4c-0.3-0.1-0.7-0.1-1-0.1c-0.3,0-0.6,0.1-0.9,0.3
	c-0.2,0.2-0.3,0.4-0.3,0.7c0,0.2,0,0.3,0.1,0.5c0.1,0.1,0.2,0.3,0.4,0.4c0.4,0.2,0.8,0.5,1.3,0.6c0.7,0.3,1.3,0.7,1.8,1.2
	C339,104.5,339.1,105,339.1,105.6z"/>
<path class="st5" d="M343.7,106.7c0.4,0,0.8-0.1,1.2-0.2v1.4c-0.6,0.2-1.2,0.3-1.8,0.3c-0.6,0.1-1.2-0.2-1.7-0.6
	c-0.4-0.5-0.6-1.1-0.5-1.8v-3.4h-0.9v-0.8l1.1-0.6l0.5-1.5h1.2v1.5h2v1.5h-2v3.4c0,0.2,0.1,0.5,0.2,0.6
	C343.2,106.7,343.4,106.8,343.7,106.7z"/>
<path class="st5" d="M352.8,104.6c0.1,1-0.3,2-0.9,2.7c-0.7,0.7-1.6,1.1-2.5,1c-0.6,0-1.3-0.1-1.8-0.5c-0.5-0.3-0.9-0.7-1.2-1.3
	c-0.3-0.6-0.4-1.3-0.4-2c-0.1-1,0.3-2,0.9-2.7c0.7-0.7,1.6-1,2.5-1c0.6,0,1.3,0.1,1.8,0.5c0.5,0.3,0.9,0.7,1.2,1.3
	C352.6,103.2,352.8,103.9,352.8,104.6z M347.9,104.6c0,0.6,0.1,1.1,0.4,1.6c0.5,0.6,1.4,0.7,2,0.2c0.1-0.1,0.2-0.1,0.2-0.2
	c0.3-0.5,0.4-1,0.3-1.6c0-0.5-0.1-1.1-0.3-1.6c-0.5-0.6-1.5-0.7-2.1-0.2c-0.1,0.1-0.1,0.1-0.2,0.2
	C347.9,103.5,347.8,104,347.9,104.6L347.9,104.6z"/>
<path class="st5" d="M357.2,108.3c-2.2,0-3.3-1.2-3.3-3.6c-0.1-1,0.3-2,0.9-2.8c0.7-0.7,1.6-1.1,2.6-1c0.8,0,1.5,0.2,2.2,0.5
	l-0.6,1.5c-0.3-0.1-0.6-0.2-0.9-0.3c-0.3-0.1-0.5-0.1-0.8-0.1c-1,0-1.5,0.7-1.5,2.1s0.5,2.1,1.5,2.1c0.3,0,0.7-0.1,1-0.1
	c0.3-0.1,0.7-0.3,1-0.5v1.6c-0.3,0.2-0.6,0.3-1,0.4C358,108.2,357.6,108.3,357.2,108.3z"/>
<path class="st5" d="M362.9,104.3l0.9-1.1l2-2.2h2.2l-2.8,3.1l3,4h-2.2l-2-2.9L363,106v2.2h-1.9v-9.9h1.9v4.4L362.9,104.3
	L362.9,104.3z"/>
<path class="st5" d="M375.6,108.2h-1.9V104c0-1-0.4-1.5-1.1-1.5c-0.5,0-0.9,0.2-1.2,0.5c-0.3,0.6-0.4,1.2-0.4,1.8v3.3h-1.9v-9.9h1.9
	v2c0,0.2,0,0.5,0,1.1l0,0.6h0.1c0.5-0.7,1.2-1.1,2.1-1c0.7,0,1.4,0.2,1.9,0.7c0.5,0.5,0.7,1.2,0.6,1.9L375.6,108.2z"/>
<path class="st5" d="M384.1,104.6c0.1,1-0.3,2-0.9,2.7c-0.7,0.7-1.6,1.1-2.5,1c-0.6,0-1.3-0.1-1.8-0.5c-0.5-0.3-0.9-0.7-1.2-1.3
	c-0.3-0.6-0.4-1.3-0.4-2c-0.1-1,0.3-2,0.9-2.7c0.7-0.7,1.6-1,2.6-1c0.6,0,1.3,0.1,1.8,0.5c0.5,0.3,0.9,0.7,1.2,1.3
	C384,103.2,384.1,103.9,384.1,104.6z M379.2,104.6c0,0.6,0.1,1.1,0.4,1.6c0.5,0.6,1.4,0.7,2,0.2c0.1-0.1,0.2-0.1,0.2-0.2
	c0.3-0.5,0.4-1,0.3-1.6c0-0.5-0.1-1.1-0.4-1.6c-0.5-0.6-1.5-0.7-2.1-0.2c-0.1,0.1-0.1,0.1-0.2,0.2
	C379.3,103.5,379.1,104,379.2,104.6L379.2,104.6z"/>
<path class="st5" d="M387.6,108.2h-1.9v-9.9h1.9V108.2z"/>
<path class="st5" d="M391.9,108.3c-0.8,0-1.6-0.3-2-1c-1-1.7-1-3.7,0-5.4c0.9-1.1,2.5-1.3,3.6-0.4c0.2,0.1,0.3,0.3,0.5,0.5h0.1
	c-0.1-0.5-0.1-0.9-0.1-1.4v-2.3h2v9.9h-1.5l-0.4-0.9h-0.1C393.5,107.9,392.7,108.3,391.9,108.3z M392.6,106.7c0.4,0,0.8-0.1,1.1-0.4
	c0.3-0.4,0.4-1,0.4-1.5v-0.2c0-0.6-0.1-1.1-0.4-1.6c-0.3-0.3-0.7-0.5-1.1-0.5c-0.4,0-0.8,0.2-1,0.5c-0.3,0.5-0.4,1-0.4,1.6
	c0,0.5,0.1,1.1,0.4,1.6C391.8,106.6,392.2,106.8,392.6,106.7L392.6,106.7z"/>
<path class="st5" d="M401.1,108.3c-1,0.1-1.9-0.3-2.7-0.9c-0.7-0.7-1-1.7-1-2.7c-0.1-1,0.3-2,0.9-2.8c0.6-0.7,1.5-1,2.5-1
	c0.9,0,1.7,0.3,2.3,0.9c0.6,0.6,0.9,1.5,0.8,2.4v0.9h-4.6c0,0.5,0.2,0.9,0.5,1.3c0.3,0.3,0.8,0.5,1.3,0.5c0.4,0,0.8,0,1.2-0.1
	c0.4-0.1,0.8-0.2,1.2-0.4v1.5c-0.3,0.2-0.7,0.3-1.1,0.4C402,108.2,401.6,108.3,401.1,108.3z M400.8,102.3c-0.4,0-0.7,0.1-1,0.4
	c-0.3,0.3-0.4,0.7-0.4,1.1h2.7c0-0.4-0.1-0.8-0.4-1.1C401.5,102.4,401.2,102.3,400.8,102.3L400.8,102.3z"/>
<path class="st5" d="M409.5,100.9c0.2,0,0.4,0,0.7,0.1l-0.1,1.8c-0.2-0.1-0.4-0.1-0.6-0.1c-0.5,0-1,0.1-1.5,0.5
	c-0.4,0.3-0.5,0.8-0.5,1.3v3.6h-1.9v-7.1h1.5l0.3,1.2h0.1c0.2-0.4,0.5-0.7,0.9-1C408.7,101,409.1,100.9,409.5,100.9z"/>
<path class="st5" d="M413,98.9l0.1,0.1c-0.3,1-0.7,2-1.1,3h-1.4c0.3-1.2,0.5-2.3,0.6-3.2L413,98.9z"/>
<path class="st5" d="M419.2,106.1c0,0.6-0.3,1.3-0.8,1.7c-0.7,0.4-1.5,0.6-2.3,0.6c-0.4,0-0.9,0-1.3-0.1c-0.3-0.1-0.7-0.2-1-0.3
	v-1.6c0.4,0.2,0.8,0.3,1.2,0.4c0.4,0.1,0.8,0.2,1.2,0.2c0.7,0,1-0.2,1-0.6c0-0.1,0-0.3-0.1-0.4c-0.1-0.1-0.3-0.2-0.5-0.3
	c-0.2-0.1-0.5-0.3-0.9-0.4c-0.4-0.2-0.8-0.4-1.2-0.6c-0.2-0.2-0.4-0.4-0.5-0.7c-0.1-0.3-0.2-0.6-0.2-0.9c0-0.6,0.3-1.1,0.7-1.5
	c0.6-0.4,1.4-0.6,2.1-0.5c0.9,0,1.7,0.2,2.5,0.6l-0.6,1.4c-0.4-0.1-0.7-0.3-1-0.4c-0.3-0.1-0.6-0.1-1-0.1c-0.6,0-0.9,0.1-0.9,0.5
	c0,0.2,0.1,0.4,0.3,0.5c0.4,0.2,0.8,0.4,1.2,0.6c0.4,0.2,0.8,0.4,1.2,0.6c0.2,0.2,0.4,0.4,0.6,0.7
	C419.2,105.4,419.2,105.7,419.2,106.1z"/>
<path class="st5" d="M429.6,108.2h-5.4v-9.3h5.4v1.6h-3.4v2h3.1v1.7h-3.1v2.4h3.4V108.2z"/>
<path class="st5" d="M433.7,108.3c-0.8,0-1.6-0.3-2-1c-1-1.7-1-3.7,0-5.4c0.5-0.7,1.2-1,2-1c0.4,0,0.8,0.1,1.2,0.3
	c0.4,0.2,0.7,0.5,0.9,0.8h0.1l0.2-0.9h1.6v10.2h-1.9v-3c0-0.3,0-0.6,0.1-1.1h-0.1c-0.2,0.3-0.5,0.6-0.8,0.8
	C434.5,108.2,434.1,108.3,433.7,108.3z M434.3,106.8c0.4,0,0.8-0.1,1.1-0.4c0.3-0.4,0.4-1,0.4-1.5v-0.2c0-0.6-0.1-1.1-0.4-1.6
	c-0.3-0.3-0.7-0.5-1.1-0.5c-0.9,0-1.4,0.7-1.4,2.1c0,0.6,0.1,1.1,0.3,1.6C433.5,106.6,433.9,106.8,434.3,106.8L434.3,106.8z"/>
<path class="st5" d="M444.7,108.2l-0.3-0.9h-0.1c-0.2,0.3-0.5,0.6-0.9,0.8c-0.4,0.2-0.9,0.3-1.3,0.3c-0.7,0.1-1.4-0.2-1.9-0.7
	c-0.5-0.5-0.7-1.2-0.6-1.9v-4.6h1.9v4.1c0,0.4,0.1,0.8,0.3,1.1c0.2,0.3,0.5,0.4,0.9,0.4c0.5,0,0.9-0.2,1.2-0.5
	c0.3-0.6,0.4-1.2,0.4-1.8V101h1.9v7.1H444.7z"/>
<path class="st5" d="M448.1,99.2c0-0.6,0.4-0.9,1-0.9s1.1,0.3,1.1,0.9c0,0.3-0.1,0.5-0.3,0.7c-0.2,0.2-0.5,0.3-0.8,0.3
	C448.4,100.2,448.1,99.9,448.1,99.2z M450.1,108.2h-1.9v-7.1h1.9V108.2z"/>
<path class="st5" d="M455.1,106.7c0.4,0,0.8-0.1,1.2-0.2v1.4c-0.6,0.2-1.2,0.3-1.8,0.3c-0.6,0.1-1.2-0.2-1.7-0.6
	c-0.4-0.5-0.6-1.1-0.5-1.8v-3.4h-0.9v-0.8l1.1-0.6l0.6-1.5h1.2v1.5h2v1.5h-2v3.4c0,0.2,0.1,0.5,0.2,0.6
	C454.7,106.7,454.9,106.8,455.1,106.7z"/>
<path class="st5" d="M456.8,101.1h2.1l1.3,4c0.1,0.4,0.2,0.8,0.2,1.2l0,0c0-0.4,0.1-0.8,0.3-1.2l1.3-4h2.1l-3,8
	c-0.2,0.7-0.6,1.2-1.2,1.7c-0.5,0.4-1.1,0.6-1.8,0.6c-0.3,0-0.7,0-1-0.1v-1.5c0.2,0.1,0.5,0.1,0.8,0.1c0.3,0,0.6-0.1,0.9-0.3
	c0.3-0.3,0.5-0.6,0.6-1l0.1-0.4L456.8,101.1z"/>
<path class="st6" d="M280.1,105.9h-5.7v-3.2h5.7v-5.7h3.2v5.7h5.7v3.2h-5.7v5.6h-3.2V105.9z"/>
<path class="st6" d="M118.4,103v-3.2H133v3.2H118.4z M118.4,108.7v-3.2H133v3.2H118.4z"/>
<ellipse class="st7" cx="58.8" cy="201.1" rx="51" ry="35"/>
<path class="st6" d="M38.6,198.2h-1.7v-6.5h-2.2v-1.4h6v1.4h-2.2V198.2z"/>
<path class="st6" d="M47.4,198.2h-1.6v-3.5c0-0.9-0.3-1.3-1-1.3c-0.4,0-0.8,0.1-1,0.5c-0.2,0.5-0.4,1-0.3,1.5v2.8h-1.6v-8.4h1.6v1.7
	c0,0.1,0,0.4,0,0.9v0.5h0.1c0.4-0.6,1-0.9,1.7-0.9c0.6,0,1.2,0.2,1.6,0.6c0.4,0.4,0.6,1,0.6,1.6L47.4,198.2z"/>
<path class="st6" d="M49,190.6c0-0.5,0.3-0.8,0.9-0.8s0.9,0.3,0.9,0.8c0,0.2-0.1,0.4-0.2,0.6c-0.2,0.2-0.4,0.2-0.7,0.2
	C49.3,191.4,49,191.2,49,190.6z M50.7,198.2H49v-6h1.6V198.2z"/>
<path class="st6" d="M57.9,198.2h-1.6v-3.5c0-0.3,0-0.7-0.2-1c-0.2-0.2-0.4-0.3-0.7-0.3c-0.4,0-0.8,0.1-1,0.5
	c-0.2,0.5-0.3,1-0.3,1.5v2.8h-1.6v-6h1.3l0.2,0.8H54c0.2-0.3,0.4-0.5,0.8-0.7c0.3-0.2,0.7-0.2,1.1-0.2c0.6,0,1.2,0.2,1.6,0.6
	c0.4,0.5,0.6,1,0.5,1.6L57.9,198.2z"/>
<path class="st6" d="M64.9,192.2v0.8l-0.9,0.2c0.2,0.3,0.3,0.6,0.3,0.9c0,0.6-0.2,1.1-0.7,1.5c-0.5,0.4-1.2,0.6-1.9,0.5h-0.3h-0.2
	c-0.1,0.1-0.2,0.3-0.3,0.4c0,0.2,0.3,0.4,0.9,0.4h1c0.5,0,1.1,0.1,1.5,0.4c0.4,0.3,0.5,0.8,0.5,1.2c0,0.7-0.3,1.3-0.9,1.6
	c-0.8,0.4-1.6,0.6-2.5,0.6c-0.7,0-1.3-0.1-1.9-0.4c-0.4-0.3-0.7-0.7-0.7-1.2c0-0.3,0.1-0.7,0.3-0.9c0.3-0.3,0.6-0.4,1-0.5
	c-0.2-0.1-0.3-0.2-0.4-0.4c-0.1-0.1-0.2-0.3-0.2-0.5c0-0.2,0.1-0.4,0.2-0.6c0.2-0.2,0.4-0.3,0.6-0.5c-0.3-0.1-0.6-0.4-0.8-0.6
	c-0.2-0.3-0.3-0.7-0.3-1.1c0-0.6,0.2-1.1,0.6-1.5c0.5-0.4,1.2-0.6,1.8-0.5c0.2,0,0.4,0,0.6,0c0.1,0,0.3,0,0.4,0.1L64.9,192.2z
	 M60.2,199c0,0.2,0.1,0.4,0.3,0.5c0.3,0.1,0.6,0.2,0.9,0.2c0.5,0,0.9-0.1,1.4-0.2c0.3-0.1,0.5-0.4,0.5-0.7c0-0.2-0.1-0.4-0.3-0.5
	c-0.3-0.1-0.6-0.1-0.9-0.1h-0.8c-0.3,0-0.5,0.1-0.8,0.2C60.3,198.6,60.2,198.8,60.2,199L60.2,199z M60.8,194.1
	c0,0.3,0.1,0.6,0.2,0.8c0.2,0.2,0.4,0.3,0.7,0.3c0.3,0,0.5-0.1,0.7-0.3c0.2-0.2,0.2-0.5,0.2-0.8c0-0.7-0.3-1.1-0.9-1.1
	S60.8,193.4,60.8,194.1L60.8,194.1z"/>
<path class="st6" d="M70,196.4c0,0.5-0.2,1.1-0.6,1.4c-0.6,0.4-1.2,0.5-1.9,0.5c-0.4,0-0.8,0-1.1-0.1c-0.3-0.1-0.6-0.1-0.9-0.3v-1.4
	c0.3,0.1,0.7,0.3,1,0.4c0.3,0.1,0.7,0.1,1,0.1c0.6,0,0.9-0.2,0.9-0.5c0-0.1,0-0.2-0.1-0.3c-0.1-0.1-0.3-0.2-0.4-0.3
	c-0.2-0.1-0.4-0.2-0.8-0.4c-0.4-0.1-0.7-0.3-1-0.5c-0.2-0.1-0.4-0.3-0.5-0.6c-0.1-0.3-0.1-0.5-0.1-0.8c0-0.5,0.2-1,0.6-1.2
	c0.5-0.3,1.1-0.5,1.8-0.4c0.7,0,1.4,0.2,2.1,0.5l-0.5,1.2c-0.3-0.1-0.6-0.2-0.8-0.3c-0.3-0.1-0.5-0.1-0.8-0.1
	c-0.5,0-0.7,0.1-0.7,0.4c0,0.2,0.1,0.3,0.2,0.4c0.3,0.2,0.7,0.4,1,0.5c0.4,0.1,0.7,0.3,1,0.5c0.2,0.2,0.4,0.3,0.5,0.6
	C70,195.8,70,196.1,70,196.4z"/>
<path class="st6" d="M79.6,195.2c0.1,0.8-0.2,1.7-0.8,2.3c-0.6,0.6-1.3,0.9-2.2,0.8c-0.5,0-1.1-0.1-1.5-0.4c-0.4-0.2-0.8-0.6-1-1.1
	c-0.3-0.5-0.4-1.1-0.4-1.7c0-0.8,0.2-1.7,0.8-2.3c0.6-0.6,1.4-0.9,2.2-0.8c0.5,0,1.1,0.1,1.5,0.4c0.4,0.3,0.8,0.6,1,1.1
	C79.5,194,79.6,194.6,79.6,195.2z M75.5,195.2c0,0.5,0.1,0.9,0.3,1.4c0.2,0.3,0.6,0.5,0.9,0.5c0.4,0,0.7-0.1,0.9-0.5
	c0.4-0.9,0.4-1.8,0-2.7c-0.2-0.3-0.6-0.5-1-0.4c-0.4-0.1-0.8,0.1-1,0.4C75.5,194.3,75.4,194.7,75.5,195.2z"/>
<path class="st6" d="M84.3,193.4h-1.4v4.8h-1.6v-4.8h-0.9v-0.8l0.9-0.4v-0.4c-0.1-0.6,0.1-1.1,0.5-1.6c0.5-0.4,1-0.5,1.6-0.5
	c0.5,0,1,0.1,1.5,0.3l-0.4,1.2c-0.3-0.1-0.6-0.1-0.9-0.1c-0.2,0-0.4,0.1-0.5,0.2c-0.1,0.2-0.2,0.3-0.2,0.5v0.4h1.4L84.3,193.4z"/>
<path class="st6" d="M46.8,211.4l-2.3-6h1.7l1.2,3.4c0.1,0.4,0.2,0.8,0.2,1.2l0,0c0-0.4,0.1-0.8,0.3-1.2l1.2-3.4h1.8l-2.3,6H46.8z"
	/>
<path class="st6" d="M55.4,211.4l-0.3-0.8l0,0c-0.2,0.3-0.5,0.5-0.8,0.7c-0.4,0.1-0.8,0.2-1.2,0.2c-0.5,0-1-0.1-1.4-0.5
	c-0.3-0.4-0.5-0.9-0.5-1.4c0-0.6,0.2-1.1,0.7-1.4c0.6-0.3,1.3-0.5,2-0.5h1v-0.3c0.1-0.4-0.2-0.9-0.7-0.9c-0.1,0-0.2,0-0.2,0
	c-0.6,0-1.2,0.2-1.7,0.4l-0.6-1.1c0.7-0.4,1.5-0.5,2.3-0.5c0.7,0,1.3,0.1,1.9,0.5c0.4,0.4,0.7,1,0.6,1.6v4L55.4,211.4z M54.9,208.6
	h-0.6c-0.4,0-0.7,0.1-1.1,0.3c-0.2,0.2-0.4,0.4-0.3,0.7c0,0.5,0.3,0.7,0.8,0.7c0.3,0,0.7-0.1,0.9-0.3c0.2-0.2,0.4-0.5,0.3-0.9
	L54.9,208.6z"/>
<path class="st6" d="M59.9,211.4h-1.6V203h1.6V211.4z"/>
<path class="st6" d="M65.9,211.4l-0.2-0.8h-0.1c-0.2,0.3-0.4,0.5-0.7,0.6c-0.3,0.2-0.7,0.2-1.1,0.2c-0.6,0-1.2-0.2-1.6-0.6
	c-0.4-0.5-0.6-1-0.5-1.6v-3.9h1.6v3.5c0,0.3,0.1,0.7,0.2,1c0.2,0.2,0.5,0.4,0.7,0.3c0.4,0,0.8-0.1,1-0.5c0.2-0.5,0.4-1,0.3-1.5v-2.8
	h1.6v6L65.9,211.4z"/>
<path class="st6" d="M71.6,211.5c-0.8,0-1.6-0.2-2.3-0.8c-0.6-0.6-0.9-1.4-0.8-2.3c-0.1-0.8,0.2-1.7,0.8-2.3
	c0.5-0.6,1.3-0.9,2.1-0.8c0.7-0.1,1.5,0.2,2,0.7c0.5,0.5,0.8,1.3,0.7,2v0.8h-3.9c0,0.4,0.1,0.8,0.4,1.1c0.3,0.3,0.7,0.4,1.1,0.4
	c0.3,0,0.7,0,1-0.1c0.3-0.1,0.7-0.2,1-0.4v1.3c-0.3,0.1-0.6,0.3-0.9,0.3C72.3,211.4,72,211.5,71.6,211.5z M71.3,206.4
	c-0.3,0-0.6,0.1-0.8,0.3c-0.2,0.3-0.3,0.6-0.3,0.9h2.3c0-0.3-0.1-0.7-0.3-0.9C71.9,206.5,71.6,206.4,71.3,206.4z"/>
<ellipse class="st8" cx="206.8" cy="201.1" rx="63.6" ry="35"/>
<path class="st6" d="M165.8,198.2l-0.6-1.9h-2.9l-0.6,1.9H160l2.8-7.9h2l2.8,7.9H165.8z M164.8,194.9c-0.5-1.7-0.8-2.6-0.9-2.9
	s-0.1-0.4-0.1-0.5c-0.1,0.5-0.4,1.6-1,3.4H164.8z"/>
<path class="st6" d="M173.9,198.2h-1.6v-3.5c0-0.3,0-0.7-0.2-1c-0.2-0.2-0.4-0.3-0.7-0.3c-0.4,0-0.7,0.2-0.9,0.5
	c-0.2,0.5-0.3,1-0.3,1.5v2.8h-1.6v-6h1.3l0.2,0.8h0.1c0.2-0.3,0.4-0.5,0.7-0.6c0.3-0.2,0.7-0.2,1-0.2c0.7-0.1,1.4,0.3,1.8,0.9h0.2
	c0.2-0.3,0.4-0.5,0.7-0.6c0.3-0.2,0.7-0.2,1.1-0.2c0.6,0,1.1,0.1,1.5,0.5c0.4,0.5,0.6,1.1,0.5,1.7v3.9H176v-3.5c0-0.3,0-0.7-0.2-1
	c-0.2-0.2-0.4-0.3-0.7-0.3c-0.4,0-0.7,0.1-0.9,0.4c-0.2,0.4-0.3,0.9-0.3,1.4V198.2z"/>
<path class="st6" d="M184.8,195.2c0.1,0.8-0.2,1.7-0.8,2.3c-0.6,0.6-1.3,0.9-2.1,0.8c-0.5,0-1.1-0.1-1.5-0.4c-0.4-0.2-0.8-0.6-1-1.1
	c-0.2-0.5-0.4-1.1-0.4-1.7c0-0.8,0.2-1.7,0.8-2.3c0.6-0.6,1.4-0.9,2.2-0.8c0.5,0,1.1,0.1,1.5,0.4c0.4,0.3,0.8,0.6,1,1.1
	C184.6,194,184.8,194.6,184.8,195.2z M180.6,195.2c0,0.5,0.1,0.9,0.3,1.4c0.2,0.3,0.6,0.5,1,0.5c0.4,0,0.7-0.1,0.9-0.5
	c0.4-0.9,0.4-1.8,0-2.7c-0.2-0.3-0.6-0.5-1-0.4c-0.4,0-0.7,0.1-0.9,0.4C180.7,194.2,180.6,194.7,180.6,195.2L180.6,195.2z"/>
<path class="st6" d="M190.4,198.2l-0.2-0.8H190c-0.2,0.3-0.4,0.5-0.7,0.6c-0.3,0.2-0.7,0.2-1.1,0.2c-0.6,0-1.2-0.2-1.6-0.6
	c-0.4-0.5-0.6-1-0.5-1.6v-3.9h1.6v3.5c0,0.3,0.1,0.7,0.2,1c0.2,0.2,0.5,0.4,0.7,0.3c0.4,0,0.8-0.1,1-0.5c0.2-0.5,0.4-1,0.3-1.5v-2.9
	h1.6v6H190.4z"/>
<path class="st6" d="M198.9,198.2h-1.6v-3.5c0-0.3-0.1-0.7-0.2-1c-0.2-0.2-0.5-0.3-0.7-0.3c-0.4,0-0.8,0.1-1,0.5
	c-0.2,0.5-0.3,1-0.3,1.5v2.8h-1.6v-6h1.3l0.2,0.8h0.1c0.2-0.3,0.4-0.5,0.8-0.7c0.3-0.2,0.7-0.2,1.1-0.2c0.6,0,1.2,0.2,1.6,0.6
	c0.4,0.5,0.6,1,0.5,1.6L198.9,198.2z"/>
<path class="st6" d="M203.1,197c0.3,0,0.7-0.1,1-0.2v1.2c-0.5,0.2-1,0.3-1.5,0.3c-0.5,0-1-0.1-1.4-0.5c-0.3-0.4-0.5-1-0.4-1.5v-2.9
	h-0.8v-0.7l0.9-0.5l0.5-1.3h1.1v1.3h1.7v1.2h-1.7v2.9c0,0.2,0.1,0.4,0.2,0.5C202.7,196.9,202.9,197,203.1,197z"/>
<path class="st6" d="M209.5,196.4c0,0.5-0.2,1.1-0.6,1.4c-0.6,0.4-1.2,0.5-1.9,0.5c-0.4,0-0.8,0-1.1-0.1c-0.3-0.1-0.6-0.1-0.9-0.3
	v-1.4c0.3,0.1,0.7,0.3,1,0.4c0.3,0.1,0.7,0.1,1,0.1c0.6,0,0.9-0.2,0.9-0.5c0-0.1,0-0.2-0.1-0.3c-0.1-0.1-0.3-0.2-0.4-0.3
	c-0.2-0.1-0.5-0.2-0.8-0.4c-0.4-0.1-0.7-0.3-1-0.5c-0.2-0.1-0.4-0.3-0.5-0.6c-0.1-0.3-0.2-0.5-0.1-0.8c0-0.5,0.2-1,0.6-1.2
	c0.5-0.3,1.1-0.5,1.8-0.4c0.7,0,1.5,0.2,2.1,0.5l-0.5,1.2c-0.3-0.1-0.6-0.2-0.8-0.3c-0.3-0.1-0.5-0.1-0.8-0.1
	c-0.5,0-0.7,0.1-0.7,0.4c0,0.2,0.1,0.3,0.2,0.4c0.3,0.2,0.7,0.4,1,0.5c0.4,0.1,0.7,0.3,1,0.5c0.2,0.1,0.4,0.3,0.5,0.6
	C209.4,195.8,209.5,196.1,209.5,196.4z"/>
<path class="st6" d="M219.1,195.2c0,0.8-0.2,1.7-0.8,2.3c-0.6,0.6-1.3,0.9-2.1,0.8c-0.5,0-1.1-0.1-1.5-0.4c-0.4-0.3-0.8-0.6-1-1.1
	c-0.2-0.5-0.4-1.1-0.4-1.7c0-0.8,0.2-1.7,0.8-2.3c0.6-0.6,1.4-0.9,2.2-0.8c0.5,0,1.1,0.1,1.5,0.4c0.4,0.3,0.8,0.6,1,1.1
	C219,194,219.1,194.6,219.1,195.2z M215,195.2c0,0.5,0.1,0.9,0.3,1.4c0.2,0.3,0.6,0.5,1,0.5c0.4,0,0.7-0.1,0.9-0.5
	c0.4-0.9,0.4-1.8,0-2.7c-0.2-0.3-0.6-0.5-1-0.4c-0.4,0-0.7,0.1-1,0.4C215.1,194.2,214.9,194.7,215,195.2z"/>
<path class="st6" d="M225.4,198.2l-0.5-2.1l-0.6-2.6l0,0l-1.1,4.8h-1.8l-1.7-6h1.6l0.7,2.7c0.1,0.5,0.2,1.1,0.3,2l0,0
	c0-0.4,0.1-0.9,0.2-1.3l0.1-0.5l0.8-2.9h1.8l0.7,2.9c0,0.1,0,0.2,0.1,0.4s0.1,0.3,0.1,0.5s0,0.3,0.1,0.5s0,0.3,0,0.4l0,0
	c0-0.3,0.1-0.6,0.2-1.1s0.1-0.8,0.2-0.9l0.7-2.7h1.6l-1.7,6L225.4,198.2z"/>
<path class="st6" d="M232.6,198.3c-0.8,0-1.7-0.2-2.3-0.8c-0.6-0.6-0.9-1.4-0.8-2.3c-0.1-0.8,0.2-1.7,0.8-2.3
	c0.5-0.6,1.3-0.9,2.1-0.8c0.7-0.1,1.5,0.2,2,0.7c0.5,0.5,0.8,1.3,0.7,2v0.8h-3.9c0,0.4,0.1,0.8,0.4,1.1c0.3,0.3,0.7,0.4,1.1,0.4
	c0.3,0,0.7,0,1-0.1c0.3-0.1,0.7-0.2,1-0.4v1.3c-0.3,0.1-0.6,0.3-0.9,0.3C233.4,198.2,233,198.3,232.6,198.3z M232.4,193.2
	c-0.3,0-0.6,0.1-0.8,0.3c-0.2,0.3-0.3,0.6-0.3,0.9h2.3c0-0.3-0.1-0.7-0.3-0.9C233,193.3,232.7,193.2,232.4,193.2L232.4,193.2z"/>
<path class="st6" d="M238.3,198.3c-0.7,0-1.3-0.3-1.7-0.8c-0.8-1.4-0.8-3.2,0-4.6c0.4-0.5,1-0.8,1.7-0.8c0.7,0,1.4,0.3,1.7,0.9h0.1
	c-0.1-0.4-0.1-0.8-0.1-1.2v-1.9h1.6v8.4h-1.3l-0.3-0.8H240C239.6,198,239,198.3,238.3,198.3z M238.9,197c0.3,0,0.7-0.1,0.9-0.4
	c0.2-0.4,0.3-0.8,0.3-1.2v-0.2c0-0.5-0.1-1-0.3-1.4c-0.2-0.3-0.6-0.5-1-0.4c-0.3,0-0.7,0.2-0.9,0.5c-0.2,0.4-0.3,0.9-0.3,1.4
	c0,0.5,0.1,0.9,0.3,1.3C238.2,196.8,238.5,197,238.9,197L238.9,197z"/>
<path class="st6" d="M248.8,197c0.3,0,0.7-0.1,1-0.2v1.2c-0.5,0.2-1,0.3-1.5,0.3c-0.5,0.1-1.1-0.1-1.4-0.5c-0.3-0.4-0.5-1-0.4-1.5
	v-2.9h-0.8v-0.7l0.9-0.5l0.5-1.3h1v1.3h1.7v1.2H248v2.9c0,0.2,0.1,0.4,0.2,0.5C248.3,196.9,248.6,197,248.8,197z"/>
<path class="st6" d="M256.4,195.2c0,0.8-0.2,1.7-0.8,2.3c-0.6,0.6-1.4,0.9-2.2,0.8c-0.5,0-1.1-0.1-1.5-0.4c-0.4-0.3-0.8-0.6-1-1.1
	c-0.2-0.5-0.4-1.1-0.4-1.7c-0.1-0.8,0.2-1.7,0.8-2.3c0.6-0.6,1.4-0.9,2.2-0.8c0.5,0,1.1,0.1,1.5,0.4c0.4,0.3,0.8,0.6,1,1.1
	C256.3,194,256.4,194.6,256.4,195.2z M252.3,195.2c0,0.5,0.1,0.9,0.3,1.4c0.2,0.3,0.6,0.5,1,0.5c0.4,0,0.7-0.1,0.9-0.5
	c0.4-0.9,0.4-1.8,0-2.7c-0.2-0.3-0.6-0.5-1-0.4c-0.4,0-0.7,0.1-0.9,0.4C252.4,194.2,252.3,194.7,252.3,195.2L252.3,195.2z"/>
<path class="st6" d="M177.4,210.2c0.3,0,0.7-0.1,1-0.2v1.2c-0.5,0.2-1,0.3-1.5,0.3c-0.5,0.1-1.1-0.1-1.4-0.5c-0.3-0.4-0.5-1-0.4-1.5
	v-2.9h-0.8v-0.7l0.9-0.5l0.5-1.3h1.1v1.3h1.7v1.2h-1.7v2.9c0,0.2,0.1,0.4,0.2,0.5C177.1,210.1,177.3,210.2,177.4,210.2z"/>
<path class="st6" d="M185.2,211.4h-1.6v-3.5c0-0.9-0.3-1.3-1-1.3c-0.4,0-0.8,0.1-1,0.5c-0.2,0.5-0.3,1-0.3,1.5v2.8h-1.6V203h1.6v1.7
	c0,0.1,0,0.4,0,0.9v0.5h0.1c0.4-0.6,1-0.9,1.7-0.9c0.6,0,1.2,0.2,1.6,0.6c0.4,0.4,0.6,1,0.6,1.6L185.2,211.4z"/>
<path class="st6" d="M186.8,203.8c0-0.5,0.3-0.8,0.9-0.8s0.9,0.3,0.9,0.8c0,0.2-0.1,0.4-0.2,0.6c-0.2,0.2-0.4,0.2-0.7,0.2
	C187.1,204.6,186.8,204.3,186.8,203.8z M188.6,211.4h-1.6v-6h1.6V211.4z"/>
<path class="st6" d="M193.6,205.2c0.2,0,0.4,0,0.6,0l-0.1,1.5c-0.2,0-0.3,0-0.5,0c-0.4,0-0.9,0.1-1.2,0.4c-0.3,0.3-0.5,0.7-0.4,1.1
	v3h-1.6v-6h1.3l0.2,1h0.1c0.2-0.3,0.4-0.6,0.8-0.8C192.9,205.3,193.3,205.2,193.6,205.2z"/>
<path class="st6" d="M197.2,211.5c-0.7,0-1.3-0.3-1.7-0.8c-0.8-1.4-0.8-3.2,0-4.6c0.4-0.5,1-0.8,1.7-0.8c0.7,0,1.4,0.3,1.7,0.9h0.1
	c-0.1-0.4-0.1-0.8-0.1-1.2V203h1.6v8.4h-1.3l-0.3-0.8h-0.1C198.5,211.2,197.8,211.5,197.2,211.5z M197.8,210.2
	c0.3,0,0.7-0.1,0.9-0.4c0.2-0.4,0.3-0.8,0.3-1.2v-0.2c0-0.5-0.1-1-0.3-1.4c-0.2-0.3-0.6-0.5-1-0.4c-0.3,0-0.7,0.2-0.9,0.5
	c-0.2,0.4-0.3,0.9-0.3,1.4c0,0.5,0.1,0.9,0.3,1.3C197.1,210,197.4,210.2,197.8,210.2z"/>
<path class="st6" d="M208.4,211.5c-0.6,0-1.3-0.3-1.7-0.8h-0.1c0.1,0.5,0.1,0.8,0.1,0.9v2.4h-1.6v-8.6h1.3l0.2,0.8h0.1
	c0.4-0.6,1-0.9,1.7-0.9c0.7,0,1.3,0.3,1.7,0.8c0.4,0.7,0.7,1.5,0.6,2.3c0,0.6-0.1,1.1-0.3,1.7c-0.2,0.4-0.4,0.8-0.8,1.1
	C209.3,211.4,208.8,211.5,208.4,211.5z M207.9,206.6c-0.3,0-0.7,0.1-0.9,0.4c-0.2,0.4-0.3,0.8-0.3,1.3v0.2c0,0.5,0.1,1,0.3,1.4
	c0.2,0.3,0.6,0.4,0.9,0.4c0.7,0,1.1-0.6,1.1-1.8c0-0.5-0.1-0.9-0.3-1.3C208.6,206.7,208.3,206.5,207.9,206.6z"/>
<path class="st6" d="M215.9,211.4l-0.3-0.8l0,0c-0.2,0.3-0.5,0.5-0.9,0.7c-0.4,0.1-0.8,0.2-1.1,0.2c-0.5,0-1-0.1-1.4-0.5
	c-0.4-0.4-0.5-0.9-0.5-1.4c0-0.6,0.2-1.1,0.7-1.4c0.6-0.3,1.3-0.5,2-0.5h1v-0.3c0-0.6-0.3-0.9-0.9-0.9c-0.6,0-1.2,0.2-1.7,0.4
	l-0.5-1.1c0.7-0.4,1.5-0.5,2.3-0.5c0.7,0,1.3,0.1,1.9,0.5c0.4,0.4,0.7,1,0.6,1.6v4L215.9,211.4z M215.4,208.6h-0.6
	c-0.4,0-0.7,0.1-1.1,0.3c-0.2,0.2-0.4,0.4-0.4,0.7c0,0.5,0.3,0.7,0.8,0.7c0.3,0,0.7-0.1,0.9-0.3c0.2-0.2,0.4-0.5,0.3-0.9
	L215.4,208.6z"/>
<path class="st6" d="M222,205.2c0.2,0,0.4,0,0.6,0l-0.1,1.5c-0.2,0-0.3,0-0.5,0c-0.4,0-0.9,0.1-1.2,0.4c-0.3,0.3-0.5,0.7-0.4,1.1v3
	h-1.6v-6h1.2l0.3,1h0.1c0.2-0.3,0.4-0.6,0.8-0.8C221.3,205.3,221.7,205.2,222,205.2z"/>
<path class="st6" d="M226.2,210.2c0.3,0,0.7-0.1,1-0.2v1.2c-0.5,0.2-1,0.3-1.5,0.3c-0.5,0.1-1.1-0.1-1.4-0.5c-0.3-0.4-0.5-1-0.4-1.5
	v-2.9H223v-0.7l0.9-0.5l0.5-1.3h1v1.3h1.7v1.2h-1.7v2.9c0,0.2,0.1,0.4,0.2,0.5C225.8,210.1,226,210.2,226.2,210.2z"/>
<path class="st6" d="M228.4,203.8c0-0.5,0.3-0.8,0.9-0.8s0.9,0.3,0.9,0.8c0,0.2-0.1,0.4-0.2,0.6c-0.2,0.2-0.4,0.2-0.7,0.2
	C228.7,204.6,228.4,204.3,228.4,203.8z M230.1,211.4h-1.6v-6h1.6V211.4z"/>
<path class="st6" d="M234.5,211.5c-0.8,0-1.7-0.2-2.3-0.8c-0.6-0.6-0.9-1.4-0.8-2.3c-0.1-0.8,0.2-1.7,0.8-2.3
	c1.1-1.1,2.9-1.1,4.1-0.1c0.5,0.5,0.8,1.3,0.7,2v0.8h-3.9c0,0.4,0.1,0.8,0.4,1.1c0.3,0.3,0.7,0.4,1.1,0.4c0.3,0,0.7,0,1-0.1
	c0.3-0.1,0.7-0.2,1-0.4v1.3c-0.3,0.1-0.6,0.3-0.9,0.3C235.3,211.4,234.9,211.5,234.5,211.5z M234.3,206.4c-0.3,0-0.6,0.1-0.8,0.3
	c-0.2,0.3-0.3,0.6-0.3,0.9h2.3c0-0.3-0.1-0.7-0.3-0.9C234.9,206.5,234.6,206.4,234.3,206.4L234.3,206.4z"/>
<path class="st6" d="M242.5,209.6c0,0.5-0.2,1.1-0.6,1.4c-0.6,0.4-1.2,0.5-1.9,0.5c-0.4,0-0.8,0-1.1-0.1c-0.3-0.1-0.6-0.1-0.9-0.3
	v-1.4c0.3,0.1,0.7,0.3,1,0.4c0.3,0.1,0.7,0.1,1,0.1c0.6,0,0.9-0.2,0.9-0.5c0-0.1,0-0.2-0.1-0.3c-0.1-0.1-0.3-0.2-0.4-0.3l-0.8-0.4
	c-0.4-0.1-0.7-0.3-1-0.5c-0.2-0.2-0.4-0.3-0.5-0.6c-0.1-0.2-0.2-0.5-0.1-0.8c0-0.5,0.2-1,0.6-1.2c0.5-0.3,1.1-0.5,1.8-0.4
	c0.7,0,1.5,0.2,2.1,0.5l-0.5,1.2c-0.3-0.1-0.6-0.2-0.8-0.3c-0.3-0.1-0.5-0.1-0.8-0.1c-0.5,0-0.7,0.1-0.7,0.4c0,0.2,0.1,0.3,0.2,0.4
	c0.3,0.2,0.7,0.4,1,0.5c0.4,0.1,0.7,0.3,1,0.5c0.2,0.1,0.4,0.3,0.5,0.6C242.4,209,242.5,209.3,242.5,209.6z"/>
<ellipse class="st9" cx="396.8" cy="201.1" rx="63.6" ry="35"/>
<path class="st6" d="M358.8,198.2l-0.6-1.9h-2.9l-0.6,1.9H353l2.8-7.9h2l2.8,7.9H358.8z M357.8,194.9c-0.5-1.7-0.8-2.6-0.9-2.9
	s-0.1-0.4-0.1-0.5c-0.1,0.5-0.5,1.6-1,3.4H357.8z"/>
<path class="st6" d="M365.6,196.4c0,0.5-0.2,1.1-0.6,1.4c-0.6,0.4-1.2,0.5-1.9,0.5c-0.4,0-0.8,0-1.1-0.1c-0.3-0.1-0.6-0.1-0.9-0.3
	v-1.4c0.3,0.1,0.7,0.3,1,0.4c0.3,0.1,0.7,0.1,1,0.1c0.6,0,0.9-0.2,0.9-0.5c0-0.1,0-0.2-0.1-0.3c-0.1-0.1-0.3-0.2-0.4-0.3
	c-0.2-0.1-0.5-0.2-0.8-0.4c-0.4-0.1-0.7-0.3-1-0.5c-0.2-0.1-0.4-0.3-0.5-0.6c-0.1-0.3-0.1-0.5-0.1-0.8c0-0.5,0.2-1,0.6-1.2
	c0.5-0.3,1.1-0.5,1.8-0.4c0.7,0,1.4,0.2,2.1,0.5l-0.5,1.2c-0.3-0.1-0.6-0.2-0.8-0.3c-0.3-0.1-0.5-0.1-0.8-0.1
	c-0.5,0-0.7,0.1-0.7,0.4c0,0.2,0.1,0.3,0.2,0.4c0.3,0.2,0.7,0.4,1,0.5c0.4,0.1,0.7,0.3,1,0.5c0.2,0.2,0.4,0.3,0.5,0.6
	C365.5,195.8,365.5,196.1,365.6,196.4z"/>
<path class="st6" d="M371,196.4c0,0.5-0.2,1.1-0.6,1.4c-0.6,0.4-1.2,0.5-1.9,0.5c-0.4,0-0.8,0-1.1-0.1c-0.3-0.1-0.6-0.1-0.9-0.3
	v-1.4c0.3,0.1,0.7,0.3,1,0.4c0.3,0.1,0.7,0.1,1,0.1c0.6,0,0.9-0.2,0.9-0.5c0-0.1,0-0.2-0.1-0.3c-0.1-0.1-0.3-0.2-0.4-0.3l-0.8-0.4
	c-0.4-0.1-0.7-0.3-1-0.5c-0.2-0.2-0.4-0.3-0.5-0.6c-0.1-0.2-0.2-0.5-0.1-0.8c0-0.5,0.2-1,0.6-1.2c0.5-0.3,1.1-0.5,1.8-0.4
	c0.7,0,1.5,0.2,2.1,0.5l-0.5,1.2c-0.3-0.1-0.6-0.2-0.8-0.3c-0.3-0.1-0.5-0.1-0.8-0.1c-0.5,0-0.7,0.1-0.7,0.4c0,0.2,0.1,0.3,0.2,0.4
	c0.3,0.2,0.7,0.4,1,0.5c0.4,0.1,0.7,0.3,1,0.5c0.2,0.1,0.4,0.3,0.5,0.6C370.9,195.8,371,196.1,371,196.4z"/>
<path class="st6" d="M375,198.3c-0.8,0-1.6-0.2-2.3-0.8c-0.6-0.6-0.9-1.4-0.8-2.3c-0.1-0.8,0.2-1.7,0.8-2.3c1.1-1.1,2.9-1.1,4.1-0.1
	c0.5,0.5,0.8,1.3,0.7,2v0.8h-3.9c0,0.4,0.1,0.8,0.4,1.1c0.3,0.3,0.7,0.4,1.1,0.4c0.3,0,0.7,0,1-0.1c0.3-0.1,0.7-0.2,1-0.4v1.3
	c-0.3,0.1-0.6,0.2-0.9,0.3C375.8,198.2,375.4,198.3,375,198.3z M374.8,193.2c-0.3,0-0.6,0.1-0.8,0.3c-0.2,0.3-0.3,0.6-0.3,0.9h2.3
	c0-0.3-0.1-0.7-0.3-0.9C375.4,193.3,375.1,193.2,374.8,193.2z"/>
<path class="st6" d="M381.3,197c0.3,0,0.7-0.1,1-0.2v1.2c-0.5,0.2-1,0.3-1.5,0.3c-0.5,0-1-0.1-1.4-0.5c-0.3-0.4-0.5-1-0.5-1.5v-2.9
	h-0.8v-0.7l0.9-0.5l0.5-1.3h1v1.3h1.7v1.2h-1.7v2.9c0,0.2,0.1,0.4,0.2,0.5C381,196.9,381.1,197,381.3,197z"/>
<path class="st6" d="M387.8,196.4c0,0.5-0.2,1.1-0.6,1.4c-0.6,0.4-1.2,0.5-1.9,0.5c-0.4,0-0.8,0-1.1-0.1c-0.3-0.1-0.6-0.1-0.9-0.3
	v-1.4c0.3,0.1,0.7,0.3,1,0.4c0.3,0.1,0.7,0.1,1,0.1c0.6,0,0.9-0.2,0.9-0.5c0-0.1,0-0.2-0.1-0.3c-0.1-0.1-0.3-0.2-0.4-0.3
	c-0.2-0.1-0.5-0.2-0.8-0.4c-0.4-0.1-0.7-0.3-1-0.5c-0.2-0.1-0.4-0.3-0.5-0.6c-0.1-0.3-0.2-0.5-0.1-0.8c0-0.5,0.2-1,0.6-1.2
	c0.5-0.3,1.1-0.5,1.8-0.4c0.7,0,1.5,0.2,2.1,0.5l-0.5,1.2c-0.3-0.1-0.6-0.2-0.8-0.3c-0.3-0.1-0.5-0.1-0.8-0.1
	c-0.5,0-0.7,0.1-0.7,0.4c0,0.2,0.1,0.3,0.2,0.4c0.3,0.2,0.7,0.4,1,0.5c0.4,0.1,0.7,0.3,1,0.5c0.2,0.1,0.4,0.3,0.5,0.6
	C387.7,195.8,387.8,196.1,387.8,196.4z"/>
<path class="st6" d="M397.4,195.2c0.1,0.8-0.2,1.7-0.8,2.3c-0.6,0.6-1.3,0.9-2.1,0.8c-0.5,0-1.1-0.1-1.5-0.4c-0.4-0.2-0.8-0.6-1-1.1
	c-0.2-0.5-0.4-1.1-0.4-1.7c0-0.8,0.2-1.7,0.8-2.3c0.6-0.6,1.4-0.9,2.2-0.8c0.5,0,1.1,0.1,1.5,0.4c0.4,0.3,0.8,0.6,1,1.1
	C397.3,194,397.4,194.6,397.4,195.2z M393.2,195.2c0,0.5,0.1,0.9,0.3,1.4c0.2,0.3,0.6,0.5,1,0.5c0.4,0,0.7-0.1,0.9-0.5
	c0.4-0.9,0.4-1.8,0-2.7c-0.2-0.3-0.6-0.5-1-0.4c-0.4,0-0.7,0.1-1,0.4C393.3,194.2,393.2,194.7,393.2,195.2z"/>
<path class="st6" d="M403.7,198.2l-0.5-2.1l-0.6-2.6l0,0l-1.1,4.8h-1.8l-1.7-6h1.6l0.7,2.7c0.1,0.5,0.2,1.1,0.3,2l0,0
	c0-0.3,0.1-0.7,0.2-1.3l0.1-0.5l0.8-2.9h1.8l0.7,2.9c0,0.1,0,0.2,0.1,0.4s0.1,0.3,0.1,0.5s0,0.3,0.1,0.5s0,0.3,0,0.4l0,0
	c0-0.3,0.1-0.6,0.2-1.1s0.1-0.8,0.2-0.9l0.7-2.7h1.6l-1.7,6L403.7,198.2z"/>
<path class="st6" d="M413.7,198.2H412v-3.5c0-0.3-0.1-0.7-0.2-1c-0.2-0.2-0.5-0.3-0.7-0.3c-0.4,0-0.8,0.1-1,0.5
	c-0.2,0.5-0.4,1-0.3,1.5v2.8h-1.6v-6h1.3l0.2,0.8h0.1c0.2-0.3,0.4-0.5,0.8-0.7c0.3-0.2,0.7-0.2,1.1-0.2c0.6,0,1.2,0.2,1.6,0.6
	c0.4,0.5,0.6,1,0.5,1.6L413.7,198.2z"/>
<path class="st6" d="M418.1,198.3c-0.8,0-1.7-0.2-2.3-0.8c-0.6-0.6-0.9-1.4-0.8-2.3c-0.1-0.8,0.2-1.7,0.8-2.3
	c0.5-0.6,1.3-0.9,2.1-0.8c0.7-0.1,1.5,0.2,2,0.7c0.5,0.5,0.8,1.3,0.7,2v0.8h-3.9c0,0.4,0.1,0.8,0.4,1.1c0.3,0.3,0.7,0.4,1.1,0.4
	c0.3,0,0.7,0,1-0.1c0.3-0.1,0.7-0.2,1-0.4v1.3c-0.3,0.1-0.6,0.3-0.9,0.3C418.9,198.2,418.5,198.3,418.1,198.3z M417.9,193.2
	c-0.3,0-0.6,0.1-0.8,0.3c-0.2,0.3-0.3,0.6-0.3,0.9h2.3c0-0.3-0.1-0.7-0.3-0.9C418.5,193.3,418.2,193.2,417.9,193.2L417.9,193.2z"/>
<path class="st6" d="M423.8,198.3c-0.7,0-1.3-0.3-1.7-0.8c-0.8-1.4-0.8-3.2,0-4.6c0.4-0.5,1-0.8,1.7-0.8c0.7,0,1.4,0.3,1.7,0.9h0.1
	c-0.1-0.4-0.1-0.8-0.1-1.2v-1.9h1.6v8.4h-1.3l-0.3-0.8h-0.1C425.1,198,424.4,198.3,423.8,198.3z M424.3,197c0.3,0,0.7-0.1,0.9-0.4
	c0.2-0.4,0.3-0.8,0.3-1.2v-0.2c0-0.5-0.1-1-0.3-1.4c-0.2-0.3-0.6-0.5-1-0.4c-0.3,0-0.7,0.2-0.9,0.5c-0.2,0.4-0.3,0.9-0.3,1.4
	c0,0.5,0.1,0.9,0.3,1.3C423.6,196.8,424,197,424.3,197z"/>
<path class="st6" d="M435,192c0.7,0,1.3,0.3,1.7,0.8c0.8,1.4,0.8,3.2,0,4.6c-0.7,0.9-2.1,1.1-3,0.4c-0.1-0.1-0.2-0.2-0.3-0.3h-0.1
	l-0.3,0.7h-1.3v-8.4h1.6v1.9c0,0.3,0,0.6-0.1,1.2h0.1C433.7,192.4,434.3,192,435,192z M434.5,193.4c-0.3,0-0.7,0.1-0.9,0.4
	c-0.2,0.4-0.3,0.8-0.3,1.2v0.2c0,0.5,0.1,1,0.3,1.4c0.2,0.3,0.6,0.4,0.9,0.4c0.3,0,0.6-0.2,0.8-0.5c0.2-0.4,0.3-0.9,0.3-1.4
	c0-0.5-0.1-0.9-0.3-1.3C435.1,193.5,434.8,193.4,434.5,193.4z"/>
<path class="st6" d="M437.8,192.2h1.8l1.1,3.4c0.1,0.3,0.2,0.7,0.2,1l0,0c0-0.3,0.1-0.7,0.2-1l1.1-3.4h1.8l-2.5,6.8
	c-0.2,0.6-0.5,1-1,1.4c-0.4,0.3-1,0.5-1.5,0.5c-0.3,0-0.6,0-0.8-0.1v-1.3c0.2,0,0.4,0.1,0.6,0.1c0.3,0,0.5-0.1,0.8-0.3
	c0.2-0.2,0.4-0.5,0.5-0.8l0.1-0.3L437.8,192.2z"/>
<path class="st6" d="M368.1,209.6c0,0.5-0.2,1.1-0.6,1.4c-0.6,0.4-1.2,0.5-1.9,0.5c-0.4,0-0.7,0-1.1-0.1c-0.3-0.1-0.6-0.1-0.9-0.3
	v-1.4c0.3,0.1,0.7,0.3,1,0.4c0.3,0.1,0.7,0.1,1,0.1c0.6,0,0.9-0.2,0.9-0.5c0-0.1,0-0.2-0.1-0.3c-0.1-0.1-0.3-0.2-0.4-0.3
	c-0.2-0.1-0.5-0.2-0.8-0.4c-0.4-0.1-0.7-0.3-1-0.5c-0.2-0.1-0.4-0.3-0.5-0.6c-0.1-0.2-0.2-0.5-0.1-0.8c0-0.5,0.2-1,0.6-1.2
	c0.5-0.3,1.1-0.5,1.8-0.4c0.7,0,1.5,0.2,2.1,0.5l-0.5,1.2c-0.3-0.1-0.6-0.2-0.9-0.3c-0.3-0.1-0.5-0.1-0.8-0.1
	c-0.5,0-0.7,0.1-0.7,0.4c0,0.2,0.1,0.3,0.2,0.4c0.3,0.2,0.7,0.3,1,0.5c0.4,0.1,0.7,0.3,1,0.5C367.8,208.5,368.1,209,368.1,209.6
	L368.1,209.6z"/>
<path class="st6" d="M371.9,210.2c0.3,0,0.7-0.1,1-0.2v1.2c-0.5,0.2-1,0.3-1.5,0.3c-0.5,0.1-1.1-0.1-1.4-0.5c-0.3-0.4-0.5-1-0.5-1.5
	v-2.9h-0.8v-0.7l0.9-0.5l0.5-1.3h1v1.3h1.7v1.2h-1.7v2.9c0,0.2,0.1,0.4,0.2,0.5C371.5,210.1,371.7,210.2,371.9,210.2z"/>
<path class="st6" d="M379.6,208.3c0.1,0.8-0.2,1.7-0.8,2.3c-0.6,0.6-1.3,0.9-2.1,0.8c-0.5,0-1.1-0.1-1.5-0.4c-0.4-0.2-0.8-0.6-1-1.1
	c-0.2-0.5-0.4-1.1-0.4-1.7c0-0.8,0.2-1.7,0.8-2.3c0.6-0.6,1.4-0.9,2.2-0.8c0.5,0,1.1,0.1,1.5,0.4c0.4,0.3,0.8,0.6,1,1.1
	C379.5,207.2,379.6,207.8,379.6,208.3z M375.5,208.3c0,0.5,0.1,0.9,0.3,1.4c0.2,0.3,0.6,0.5,1,0.5c0.4,0,0.7-0.1,0.9-0.5
	c0.4-0.9,0.4-1.8,0-2.7c-0.2-0.3-0.6-0.5-1-0.4c-0.4,0-0.7,0.1-1,0.4C375.5,207.4,375.4,207.9,375.5,208.3z"/>
<path class="st6" d="M383.4,211.5c-1.9,0-2.8-1-2.8-3.1c-0.1-0.9,0.2-1.7,0.8-2.3c0.6-0.6,1.4-0.9,2.2-0.8c0.6,0,1.3,0.1,1.9,0.4
	l-0.5,1.3c-0.3-0.1-0.5-0.2-0.7-0.3c-0.2-0.1-0.4-0.1-0.7-0.1c-0.9,0-1.3,0.6-1.3,1.8s0.4,1.8,1.3,1.8c0.3,0,0.6,0,0.9-0.1
	c0.3-0.1,0.6-0.2,0.8-0.4v1.4c-0.2,0.2-0.5,0.3-0.8,0.3C384.1,211.4,383.8,211.5,383.4,211.5z"/>
<path class="st6" d="M388.2,208.1l0.7-0.9l1.7-1.8h1.9l-2.4,2.6l2.5,3.4h-1.9l-1.7-2.4l-0.7,0.6v1.9h-1.6V203h1.6v3.7L388.2,208.1
	L388.2,208.1z"/>
<path class="st6" d="M399,211.4h-1.6v-3.5c0-0.9-0.3-1.3-1-1.3c-0.4,0-0.8,0.1-1,0.5c-0.2,0.5-0.3,1-0.3,1.5v2.8h-1.6V203h1.6v1.7
	c0,0.1,0,0.4,0,0.9v0.5h0.1c0.4-0.6,1-0.9,1.7-0.9c0.6,0,1.2,0.2,1.6,0.6c0.4,0.4,0.6,1,0.5,1.6L399,211.4z"/>
<path class="st6" d="M406.1,208.3c0,0.8-0.2,1.7-0.8,2.3c-0.6,0.6-1.4,0.9-2.2,0.8c-0.5,0-1.1-0.1-1.5-0.4c-0.4-0.3-0.8-0.6-1-1.1
	c-0.2-0.5-0.4-1.1-0.4-1.7c0-0.8,0.2-1.7,0.8-2.3c0.6-0.6,1.4-0.9,2.2-0.8c0.5,0,1.1,0.1,1.5,0.4c0.4,0.3,0.8,0.6,1,1.1
	C406,207.2,406.1,207.8,406.1,208.3z M402,208.3c0,0.5,0.1,0.9,0.3,1.4c0.2,0.3,0.6,0.5,1,0.5c0.4,0,0.7-0.1,0.9-0.5
	c0.4-0.9,0.4-1.8,0-2.7c-0.2-0.3-0.6-0.5-1-0.4c-0.4,0-0.7,0.1-1,0.4C402,207.4,402,207.9,402,208.3z"/>
<path class="st6" d="M409.1,211.4h-1.6V203h1.6V211.4z"/>
<path class="st6" d="M412.8,211.5c-0.7,0-1.3-0.3-1.7-0.8c-0.8-1.4-0.8-3.2,0-4.6c0.4-0.5,1-0.8,1.7-0.8c0.7,0,1.3,0.3,1.7,0.9h0
	c-0.1-0.4-0.1-0.8-0.1-1.2V203h1.6v8.4h-1.3l-0.3-0.8h-0.1C414.1,211.2,413.4,211.5,412.8,211.5z M413.3,210.2
	c0.3,0,0.7-0.1,0.9-0.4c0.2-0.4,0.3-0.8,0.3-1.2v-0.2c0-0.5-0.1-1-0.3-1.4c-0.2-0.3-0.6-0.5-1-0.4c-0.3,0-0.7,0.2-0.9,0.5
	c-0.2,0.4-0.3,0.9-0.3,1.4c0,0.5,0.1,0.9,0.3,1.3C412.6,210,413,210.2,413.3,210.2L413.3,210.2z"/>
<path class="st6" d="M420.5,211.5c-0.8,0-1.7-0.2-2.3-0.8c-0.6-0.6-0.9-1.4-0.8-2.3c-0.1-0.8,0.2-1.7,0.8-2.3
	c0.5-0.6,1.3-0.9,2.1-0.8c0.7-0.1,1.5,0.2,2,0.7c0.5,0.5,0.8,1.3,0.7,2v0.8h-3.9c0,0.4,0.1,0.8,0.4,1.1c0.3,0.3,0.7,0.4,1.1,0.4
	c0.3,0,0.7,0,1-0.1c0.3-0.1,0.7-0.2,1-0.4v1.3c-0.3,0.1-0.6,0.3-0.9,0.3C421.3,211.4,420.9,211.5,420.5,211.5z M420.3,206.4
	c-0.3,0-0.6,0.1-0.8,0.3c-0.2,0.3-0.3,0.6-0.3,0.9h2.3c0-0.3-0.1-0.7-0.3-0.9C420.9,206.5,420.6,206.4,420.3,206.4z"/>
<path class="st6" d="M427.7,205.2c0.2,0,0.4,0,0.6,0l-0.1,1.5c-0.2,0-0.3,0-0.5,0c-0.4,0-0.9,0.1-1.2,0.4c-0.3,0.3-0.5,0.7-0.4,1.1
	v3h-1.6v-6h1.2l0.2,1h0.1c0.2-0.3,0.4-0.6,0.8-0.8C426.9,205.3,427.3,205.2,427.7,205.2z"/>
<path class="st6" d="M433.5,209.6c0,0.5-0.2,1.1-0.6,1.4c-0.6,0.4-1.2,0.5-1.9,0.5c-0.4,0-0.8,0-1.1-0.1c-0.3-0.1-0.6-0.1-0.9-0.3
	v-1.4c0.3,0.1,0.7,0.3,1,0.4c0.3,0.1,0.7,0.1,1,0.1c0.6,0,0.9-0.2,0.9-0.5c0-0.1,0-0.2-0.1-0.3c-0.1-0.1-0.3-0.2-0.4-0.3
	c-0.2-0.1-0.5-0.2-0.8-0.4c-0.4-0.1-0.7-0.3-1-0.5c-0.2-0.2-0.4-0.3-0.5-0.6c-0.1-0.2-0.2-0.5-0.1-0.8c0-0.5,0.2-1,0.6-1.2
	c0.5-0.3,1.1-0.5,1.8-0.4c0.7,0,1.5,0.2,2.1,0.5l-0.5,1.2c-0.3-0.1-0.6-0.2-0.8-0.3c-0.3-0.1-0.5-0.1-0.8-0.1
	c-0.5,0-0.7,0.1-0.7,0.4c0,0.2,0.1,0.3,0.2,0.4c0.3,0.2,0.7,0.4,1,0.5c0.4,0.1,0.7,0.3,1,0.5c0.2,0.1,0.4,0.3,0.5,0.6
	C433.4,209,433.5,209.3,433.5,209.6z"/>
<line class="st10" x1="58.3" y1="127.1" x2="58.3" y2="160.1"/>
<polygon class="st6" points="55.3,150.6 61.3,150.6 58.3,161.6 "/>
<line class="st10" x1="206.3" y1="127.1" x2="206.3" y2="160.1"/>
<polygon class="st6" points="203.3,150.6 209.3,150.6 206.3,161.6 "/>
<line class="st10" x1="397.3" y1="127.1" x2="397.3" y2="160.1"/>
<polygon class="st6" points="394.3,150.6 400.3,150.6 397.3,161.6 "/>
</svg>
