<?xml version="1.0" encoding="utf-8"?>
<!-- Generator: Adobe Illustrator 23.0.3, SVG Export Plug-In . SVG Version: 6.00 Build 0)  -->
<svg version="1.1" id="Layer_1" xmlns="http://www.w3.org/2000/svg" xmlns:xlink="http://www.w3.org/1999/xlink" x="0px" y="0px"
	 viewBox="0 0 919.9 178.2" style="enable-background:new 0 0 919.9 178.2;" xml:space="preserve">
<style type="text/css">
	.st0{fill:#CF6B3E;}
	.st1{fill:#F58553;}
	.st2{fill:#2A5CA8;}
	.st3{fill:#FFFFFF;}
	.st4{fill:#555554;}
	.st5{fill:#C1D1EC;}
	.st6{fill:#FDDFD3;}
	.st7{fill:#E8E7E7;}
	.st8{fill:none;stroke:#555554;stroke-miterlimit:10;}
</style>
<title>Accounting_Equation</title>
<path class="st0" d="M560.6,12.9h171.5c1.6,0,2.8,1.3,2.8,2.8v39c0,1.6-1.3,2.8-2.8,2.8H560.6c-1.6,0-2.8-1.3-2.8-2.8v-39
	C557.8,14.1,559.1,12.9,560.6,12.9z"/>
<path class="st1" d="M408.2,12.9h95.5c1.6,0,2.8,1.3,2.8,2.8v39c0,1.6-1.3,2.8-2.8,2.8h-95.5c-1.6,0-2.8-1.3-2.8-2.8v-39
	C405.4,14.1,406.6,12.9,408.2,12.9z"/>
<path class="st2" d="M268.6,12.9h75.5c1.6,0,2.8,1.3,2.8,2.8v39c0,1.6-1.3,2.8-2.8,2.8h-75.5c-1.6,0-2.8-1.3-2.8-2.8v-39
	C265.8,14.1,267.1,12.9,268.6,12.9z"/>
<path class="st3" d="M291.8,39.7l-0.7-2.2h-3.4l-0.7,2.2h-2.1l3.3-9.3h2.4l3.3,9.3H291.8z M290.7,35.8c-0.6-2-1-3.1-1.1-3.4
	s-0.1-0.5-0.2-0.6c-0.1,0.5-0.5,1.9-1.2,4H290.7z"/>
<path class="st3" d="M299.9,37.6c0,0.6-0.3,1.3-0.8,1.7c-0.7,0.4-1.5,0.6-2.3,0.6c-0.4,0-0.9,0-1.3-0.1c-0.3-0.1-0.7-0.2-1-0.3v-1.6
	c0.4,0.2,0.8,0.3,1.2,0.4s0.8,0.2,1.2,0.2c0.7,0,1.1-0.2,1.1-0.6c0-0.1,0-0.3-0.1-0.4c-0.1-0.1-0.3-0.2-0.5-0.3
	c-0.2-0.1-0.5-0.3-0.9-0.4c-0.4-0.2-0.8-0.4-1.2-0.6c-0.2-0.2-0.4-0.4-0.6-0.7c-0.1-0.3-0.2-0.6-0.2-0.9c0-0.6,0.3-1.1,0.7-1.5
	c0.6-0.4,1.4-0.6,2.1-0.5c0.9,0,1.7,0.2,2.5,0.6l-0.6,1.4c-0.4-0.1-0.7-0.3-1-0.4s-0.7-0.1-1-0.1c-0.6,0-0.8,0.1-0.8,0.5
	c0,0.2,0.1,0.4,0.3,0.5c0.4,0.2,0.8,0.4,1.2,0.6c0.4,0.2,0.8,0.4,1.2,0.6c0.2,0.2,0.4,0.4,0.6,0.7C299.8,36.9,299.9,37.2,299.9,37.6
	z"/>
<path class="st3" d="M306.4,37.6c0,0.6-0.3,1.3-0.8,1.7c-0.7,0.4-1.5,0.6-2.3,0.6c-0.4,0-0.9,0-1.3-0.1c-0.3-0.1-0.7-0.2-1-0.3v-1.6
	c0.4,0.2,0.8,0.3,1.2,0.4s0.8,0.2,1.2,0.2c0.7,0,1.1-0.2,1.1-0.6c0-0.1,0-0.3-0.1-0.4c-0.1-0.1-0.3-0.2-0.5-0.3
	c-0.2-0.1-0.5-0.3-0.9-0.4c-0.4-0.2-0.8-0.4-1.2-0.6c-0.2-0.2-0.4-0.4-0.6-0.7c-0.1-0.3-0.2-0.6-0.2-0.9c0-0.6,0.3-1.1,0.7-1.5
	c0.6-0.4,1.4-0.6,2.1-0.5c0.9,0,1.7,0.2,2.5,0.6l-0.6,1.4c-0.4-0.1-0.7-0.3-1-0.4s-0.6-0.1-0.9-0.1c-0.6,0-0.9,0.1-0.9,0.5
	c0,0.2,0.1,0.4,0.3,0.5c0.4,0.2,0.8,0.4,1.2,0.6c0.4,0.2,0.8,0.4,1.2,0.6c0.2,0.2,0.4,0.4,0.6,0.7C306.3,36.9,306.4,37.2,306.4,37.6
	z"/>
<path class="st3" d="M311.1,39.8c-1,0.1-1.9-0.3-2.7-0.9c-0.7-0.7-1-1.7-1-2.7c-0.1-1,0.3-2,0.9-2.8c0.6-0.7,1.5-1,2.5-1
	c0.9,0,1.7,0.3,2.3,0.9s0.9,1.5,0.8,2.4v0.9h-4.6c0,0.5,0.2,0.9,0.5,1.3c0.3,0.3,0.8,0.5,1.3,0.5c0.4,0,0.8,0,1.2-0.1
	c0.4-0.1,0.8-0.2,1.2-0.4v1.5c-0.3,0.2-0.7,0.3-1.1,0.4C312,39.7,311.6,39.8,311.1,39.8z M310.8,33.8c-0.4,0-0.7,0.1-1,0.4
	c-0.3,0.3-0.4,0.7-0.4,1.1h2.7c0-0.4-0.1-0.8-0.4-1.1C311.5,33.9,311.2,33.8,310.8,33.8L310.8,33.8z"/>
<path class="st3" d="M318.6,38.2c0.4,0,0.8-0.1,1.2-0.2v1.4c-0.6,0.2-1.2,0.3-1.8,0.3c-0.6,0.1-1.2-0.2-1.7-0.6
	c-0.4-0.5-0.6-1.1-0.5-1.8v-3.4h-0.9v-0.8l1.1-0.6l0.6-1.5h1.2v1.5h2V34h-2v3.4c0,0.2,0.1,0.5,0.2,0.6
	C318.1,38.2,318.3,38.3,318.6,38.2z"/>
<path class="st3" d="M326.2,37.6c0,0.6-0.2,1.3-0.8,1.7c-0.7,0.4-1.5,0.6-2.3,0.6c-0.4,0-0.9,0-1.3-0.1c-0.3-0.1-0.7-0.2-1-0.3v-1.6
	c0.4,0.2,0.8,0.3,1.2,0.4s0.8,0.2,1.2,0.2c0.7,0,1-0.2,1-0.6c0-0.1,0-0.3-0.1-0.4c-0.1-0.1-0.3-0.2-0.5-0.3
	c-0.2-0.1-0.5-0.3-0.9-0.4c-0.4-0.2-0.8-0.4-1.2-0.6c-0.2-0.2-0.4-0.4-0.6-0.7c-0.1-0.3-0.2-0.6-0.2-0.9c0-0.6,0.3-1.1,0.7-1.5
	c0.6-0.4,1.4-0.6,2.1-0.5c0.9,0,1.7,0.2,2.5,0.6l-0.6,1.4c-0.3-0.1-0.7-0.3-1-0.4c-0.3-0.1-0.7-0.1-1-0.1c-0.6,0-0.9,0.1-0.9,0.5
	c0,0.2,0.1,0.4,0.3,0.5c0.4,0.2,0.8,0.4,1.2,0.6s0.8,0.4,1.2,0.6c0.2,0.2,0.4,0.4,0.6,0.7C326.1,36.9,326.1,37.2,326.2,37.6z"/>
<path class="st3" d="M425.6,39.7v-9.3h2v7.7h3.8v1.6C431.4,39.7,425.6,39.7,425.6,39.7z"/>
<path class="st3" d="M432.7,30.7c0-0.6,0.4-0.9,1.1-0.9s1,0.3,1,0.9c0,0.3-0.1,0.5-0.3,0.7c-0.2,0.2-0.5,0.3-0.8,0.3
	C433.1,31.7,432.7,31.4,432.7,30.7z M434.7,39.7h-1.9v-7.1h1.9V39.7z"/>
<path class="st3" d="M441.3,39.7l-0.4-1h-0.1c-0.3,0.4-0.6,0.6-1,0.9c-0.4,0.2-0.9,0.3-1.4,0.2c-0.6,0-1.2-0.2-1.6-0.6
	c-0.4-0.5-0.6-1.1-0.6-1.7c0-0.7,0.3-1.3,0.8-1.7c0.7-0.4,1.5-0.6,2.4-0.6h1.2v-0.3c0-0.6-0.4-1-0.9-1.1c-0.1,0-0.1,0-0.2,0
	c-0.7,0-1.4,0.2-2,0.5l-0.6-1.3c0.8-0.4,1.8-0.6,2.7-0.6c0.8-0.1,1.6,0.2,2.2,0.6c0.5,0.5,0.8,1.2,0.8,1.9v4.7L441.3,39.7
	L441.3,39.7z M440.7,36.4h-0.8c-0.4,0-0.9,0.1-1.3,0.3c-0.3,0.2-0.4,0.5-0.4,0.9c0,0.5,0.3,0.8,0.9,0.8c0.4,0,0.8-0.1,1.1-0.4
	c0.3-0.3,0.4-0.6,0.4-1v-0.6H440.7z"/>
<path class="st3" d="M448.6,32.4c0.8,0,1.6,0.3,2,1c1,1.7,1,3.7,0,5.4c-0.9,1.1-2.5,1.3-3.6,0.4c-0.2-0.1-0.3-0.3-0.4-0.4h-0.1
	l-0.3,0.8h-1.5v-9.9h1.9V32c0,0.3,0,0.8-0.1,1.4h0.1C447,32.8,447.7,32.4,448.6,32.4z M447.9,34c-0.4,0-0.8,0.1-1,0.4
	c-0.3,0.4-0.4,0.9-0.4,1.5v0.2c0,0.6,0.1,1.1,0.3,1.6c0.3,0.3,0.7,0.5,1.1,0.5c0.4,0,0.8-0.2,0.9-0.5c0.3-0.5,0.4-1,0.4-1.6
	c0-0.5-0.1-1.1-0.4-1.6C448.7,34.2,448.3,34,447.9,34L447.9,34z"/>
<path class="st3" d="M452.7,30.7c0-0.6,0.4-0.9,1.1-0.9c0.7,0,1,0.3,1,0.9c0,0.3-0.1,0.5-0.3,0.7c-0.2,0.2-0.5,0.3-0.8,0.3
	C453.1,31.7,452.7,31.4,452.7,30.7z M454.7,39.7h-1.9v-7.1h1.9V39.7z"/>
<path class="st3" d="M458.7,39.7h-1.9v-9.9h1.9V39.7z"/>
<path class="st3" d="M460.7,30.7c0-0.6,0.4-0.9,1-0.9s1,0.3,1,0.9c0,0.3-0.1,0.5-0.3,0.7c-0.2,0.2-0.5,0.3-0.8,0.3
	C461,31.7,460.7,31.4,460.7,30.7z M462.7,39.7h-1.9v-7.1h1.9V39.7z"/>
<path class="st3" d="M467.7,38.2c0.4,0,0.8-0.1,1.2-0.2v1.4c-0.6,0.2-1.2,0.3-1.8,0.3c-0.6,0.1-1.2-0.2-1.7-0.6
	c-0.4-0.5-0.6-1.1-0.5-1.8v-3.4H464v-0.8l1.1-0.6l0.5-1.5h1.2v1.5h2V34h-2v3.4c0,0.2,0.1,0.5,0.2,0.6
	C467.3,38.2,467.5,38.3,467.7,38.2z"/>
<path class="st3" d="M470.3,30.7c0-0.6,0.4-0.9,1-0.9s1,0.3,1,0.9c0,0.3-0.1,0.5-0.3,0.7c-0.2,0.2-0.5,0.3-0.8,0.3
	C470.6,31.7,470.3,31.4,470.3,30.7z M472.3,39.7h-1.9v-7.1h1.9V39.7z"/>
<path class="st3" d="M477.6,39.8c-1,0.1-1.9-0.3-2.7-0.9c-0.7-0.7-1-1.7-1-2.7c-0.1-1,0.3-2,0.9-2.8c1.3-1.3,3.4-1.3,4.8-0.1
	c0.6,0.6,0.9,1.5,0.8,2.4v0.9h-4.6c0,0.5,0.2,0.9,0.5,1.3c0.3,0.3,0.8,0.5,1.3,0.5c0.4,0,0.8,0,1.2-0.1s0.8-0.2,1.2-0.4v1.5
	c-0.3,0.2-0.7,0.3-1.1,0.4C478.5,39.7,478,39.8,477.6,39.8z M477.3,33.8c-0.4,0-0.7,0.1-1,0.4c-0.3,0.3-0.4,0.7-0.4,1.1h2.7
	c0-0.4-0.1-0.8-0.4-1.1C478,33.9,477.6,33.8,477.3,33.8L477.3,33.8z"/>
<path class="st3" d="M487,37.6c0,0.6-0.3,1.3-0.8,1.7c-0.7,0.4-1.5,0.6-2.3,0.6c-0.4,0-0.9,0-1.3-0.1c-0.3-0.1-0.7-0.2-1-0.3v-1.6
	c0.4,0.2,0.8,0.3,1.2,0.4s0.8,0.2,1.2,0.2c0.7,0,1.1-0.2,1.1-0.6c0-0.1,0-0.3-0.1-0.4s-0.3-0.2-0.5-0.3c-0.2-0.1-0.5-0.3-0.9-0.4
	c-0.4-0.2-0.8-0.4-1.2-0.6c-0.2-0.2-0.4-0.4-0.6-0.7c-0.1-0.3-0.2-0.6-0.2-0.9c0-0.6,0.3-1.1,0.7-1.5c0.6-0.4,1.4-0.6,2.1-0.5
	c0.9,0,1.7,0.2,2.5,0.6l-0.6,1.4c-0.4-0.1-0.7-0.3-1-0.4c-0.3-0.1-0.6-0.1-0.9-0.1c-0.6,0-0.9,0.1-0.9,0.5c0,0.2,0.1,0.4,0.3,0.5
	c0.4,0.2,0.8,0.4,1.2,0.6s0.8,0.4,1.2,0.6c0.2,0.2,0.4,0.4,0.6,0.7C486.9,36.9,487,37.2,487,37.6z"/>
<path class="st3" d="M587.6,37.1c0,0.8-0.3,1.5-0.9,2c-0.7,0.5-1.6,0.8-2.5,0.7c-0.9,0-1.8-0.2-2.6-0.6v-1.8c0.5,0.2,1,0.4,1.6,0.6
	c0.4,0.1,0.8,0.2,1.2,0.2s0.7-0.1,1-0.3c0.2-0.2,0.4-0.5,0.4-0.7s-0.1-0.3-0.2-0.5c-0.1-0.2-0.3-0.3-0.4-0.4
	c-0.4-0.2-0.8-0.4-1.2-0.6c-0.5-0.2-0.9-0.5-1.3-0.8c-0.3-0.2-0.5-0.5-0.7-0.9c-0.5-1-0.3-2.3,0.6-3.1c0.7-0.5,1.5-0.7,2.3-0.7
	c0.5,0,0.9,0.1,1.4,0.2s0.9,0.3,1.4,0.5l-0.6,1.5c-0.4-0.2-0.8-0.3-1.2-0.4c-0.3-0.1-0.7-0.1-1-0.1s-0.6,0.1-0.9,0.3
	c-0.2,0.2-0.3,0.4-0.3,0.7c0,0.2,0,0.3,0.1,0.5c0.1,0.1,0.2,0.3,0.4,0.4c0.4,0.2,0.8,0.5,1.3,0.6c0.7,0.3,1.3,0.7,1.8,1.2
	C587.5,36,587.6,36.5,587.6,37.1z"/>
<path class="st3" d="M592.2,38.2c0.4,0,0.8-0.1,1.2-0.2v1.4c-0.6,0.2-1.2,0.3-1.8,0.3c-0.6,0.1-1.2-0.2-1.7-0.6
	c-0.4-0.5-0.6-1.1-0.5-1.8v-3.4h-0.9v-0.8l1.1-0.6l0.5-1.5h1.2v1.5h2V34h-2v3.4c0,0.2,0.1,0.5,0.2,0.6
	C591.7,38.2,591.9,38.3,592.2,38.2z"/>
<path class="st3" d="M601.3,36.1c0.1,1-0.3,2-0.9,2.7c-0.7,0.7-1.6,1.1-2.5,1c-0.6,0-1.3-0.1-1.8-0.5c-0.5-0.3-0.9-0.7-1.2-1.3
	c-0.3-0.6-0.4-1.3-0.4-2c-0.1-1,0.3-2,0.9-2.7c0.7-0.7,1.6-1,2.5-1c0.6,0,1.3,0.1,1.8,0.5c0.5,0.3,0.9,0.7,1.2,1.3
	C601.1,34.7,601.3,35.4,601.3,36.1z M596.4,36.1c0,0.6,0.1,1.1,0.4,1.6c0.5,0.6,1.4,0.7,2,0.2c0.1-0.1,0.2-0.1,0.2-0.2
	c0.3-0.5,0.4-1,0.3-1.6c0-0.5-0.1-1.1-0.3-1.6c-0.5-0.6-1.5-0.7-2.1-0.2c-0.1,0.1-0.1,0.1-0.2,0.2C596.4,35,596.3,35.5,596.4,36.1
	L596.4,36.1z"/>
<path class="st3" d="M605.7,39.8c-2.2,0-3.3-1.2-3.3-3.6c-0.1-1,0.3-2,0.9-2.8c0.7-0.7,1.6-1.1,2.6-1c0.8,0,1.5,0.2,2.2,0.5
	l-0.6,1.5c-0.3-0.1-0.6-0.2-0.9-0.3c-0.3-0.1-0.5-0.1-0.8-0.1c-1,0-1.5,0.7-1.5,2.1s0.5,2.1,1.5,2.1c0.3,0,0.7-0.1,1-0.1
	c0.3-0.1,0.7-0.3,1-0.5v1.6c-0.3,0.2-0.6,0.3-1,0.4C606.5,39.7,606.1,39.8,605.7,39.8z"/>
<path class="st3" d="M611.4,35.8l0.9-1.1l2-2.2h2.2l-2.8,3.1l3,4h-2.2l-2-2.9l-1,0.8v2.2h-1.9v-9.9h1.9v4.4L611.4,35.8L611.4,35.8z"
	/>
<path class="st3" d="M624.1,39.7h-1.9v-4.2c0-1-0.4-1.5-1.1-1.5c-0.5,0-0.9,0.2-1.2,0.5c-0.3,0.6-0.4,1.2-0.4,1.8v3.3h-1.9v-9.9h1.9
	v2c0,0.2,0,0.5,0,1.1v0.6h0.1c0.5-0.7,1.2-1.1,2.1-1c0.7,0,1.4,0.2,1.9,0.7s0.7,1.2,0.6,1.9L624.1,39.7z"/>
<path class="st3" d="M632.6,36.1c0.1,1-0.3,2-0.9,2.7c-0.7,0.7-1.6,1.1-2.5,1c-0.6,0-1.3-0.1-1.8-0.5c-0.5-0.3-0.9-0.7-1.2-1.3
	c-0.3-0.6-0.4-1.3-0.4-2c-0.1-1,0.3-2,0.9-2.7c0.7-0.7,1.6-1,2.6-1c0.6,0,1.3,0.1,1.8,0.5c0.5,0.3,0.9,0.7,1.2,1.3
	C632.5,34.7,632.6,35.4,632.6,36.1z M627.7,36.1c0,0.6,0.1,1.1,0.4,1.6c0.5,0.6,1.4,0.7,2,0.2c0.1-0.1,0.2-0.1,0.2-0.2
	c0.3-0.5,0.4-1,0.3-1.6c0-0.5-0.1-1.1-0.4-1.6c-0.5-0.6-1.5-0.7-2.1-0.2c-0.1,0.1-0.1,0.1-0.2,0.2C627.8,35,627.6,35.5,627.7,36.1
	L627.7,36.1z"/>
<path class="st3" d="M636.1,39.7h-1.9v-9.9h1.9V39.7z"/>
<path class="st3" d="M640.4,39.8c-0.8,0-1.6-0.3-2-1c-1-1.7-1-3.7,0-5.4c0.9-1.1,2.5-1.3,3.6-0.4c0.2,0.1,0.3,0.3,0.5,0.5h0.1
	c-0.1-0.5-0.1-0.9-0.1-1.4v-2.3h2v9.9H643l-0.4-0.9h-0.1C642,39.4,641.2,39.8,640.4,39.8z M641.1,38.2c0.4,0,0.8-0.1,1.1-0.4
	c0.3-0.4,0.4-1,0.4-1.5v-0.2c0-0.6-0.1-1.1-0.4-1.6c-0.3-0.3-0.7-0.5-1.1-0.5c-0.4,0-0.8,0.2-1,0.5c-0.3,0.5-0.4,1-0.4,1.6
	c0,0.5,0.1,1.1,0.4,1.6C640.3,38.1,640.7,38.3,641.1,38.2L641.1,38.2z"/>
<path class="st3" d="M649.6,39.8c-1,0.1-1.9-0.3-2.7-0.9c-0.7-0.7-1-1.7-1-2.7c-0.1-1,0.3-2,0.9-2.8c0.6-0.7,1.5-1,2.5-1
	c0.9,0,1.7,0.3,2.3,0.9c0.6,0.6,0.9,1.5,0.8,2.4v0.9h-4.6c0,0.5,0.2,0.9,0.5,1.3c0.3,0.3,0.8,0.5,1.3,0.5c0.4,0,0.8,0,1.2-0.1
	c0.4-0.1,0.8-0.2,1.2-0.4v1.5c-0.3,0.2-0.7,0.3-1.1,0.4C650.5,39.7,650.1,39.8,649.6,39.8z M649.3,33.8c-0.4,0-0.7,0.1-1,0.4
	s-0.4,0.7-0.4,1.1h2.7c0-0.4-0.1-0.8-0.4-1.1C650,33.9,649.7,33.8,649.3,33.8L649.3,33.8z"/>
<path class="st3" d="M658,32.4c0.2,0,0.4,0,0.7,0.1l-0.1,1.8c-0.2-0.1-0.4-0.1-0.6-0.1c-0.5,0-1,0.1-1.5,0.5
	c-0.4,0.3-0.5,0.8-0.5,1.3v3.6h-1.9v-7.1h1.5l0.3,1.2h0.1c0.2-0.4,0.5-0.7,0.9-1C657.2,32.5,657.6,32.4,658,32.4z"/>
<path class="st3" d="M661.5,30.4l0.1,0.1c-0.3,1-0.7,2-1.1,3h-1.4c0.3-1.2,0.5-2.3,0.6-3.2L661.5,30.4z"/>
<path class="st3" d="M667.7,37.6c0,0.6-0.3,1.3-0.8,1.7c-0.7,0.4-1.5,0.6-2.3,0.6c-0.4,0-0.9,0-1.3-0.1c-0.3-0.1-0.7-0.2-1-0.3v-1.6
	c0.4,0.2,0.8,0.3,1.2,0.4s0.8,0.2,1.2,0.2c0.7,0,1-0.2,1-0.6c0-0.1,0-0.3-0.1-0.4c-0.1-0.1-0.3-0.2-0.5-0.3
	c-0.2-0.1-0.5-0.3-0.9-0.4c-0.4-0.2-0.8-0.4-1.2-0.6c-0.2-0.2-0.4-0.4-0.5-0.7c-0.1-0.3-0.2-0.6-0.2-0.9c0-0.6,0.3-1.1,0.7-1.5
	c0.6-0.4,1.4-0.6,2.1-0.5c0.9,0,1.7,0.2,2.5,0.6l-0.6,1.4c-0.4-0.1-0.7-0.3-1-0.4s-0.6-0.1-1-0.1c-0.6,0-0.9,0.1-0.9,0.5
	c0,0.2,0.1,0.4,0.3,0.5c0.4,0.2,0.8,0.4,1.2,0.6c0.4,0.2,0.8,0.4,1.2,0.6c0.2,0.2,0.4,0.4,0.6,0.7C667.7,36.9,667.7,37.2,667.7,37.6
	z"/>
<path class="st3" d="M678.1,39.7h-5.4v-9.3h5.4V32h-3.4v2h3.1v1.7h-3.1v2.4h3.4V39.7z"/>
<path class="st3" d="M682.2,39.8c-0.8,0-1.6-0.3-2-1c-1-1.7-1-3.7,0-5.4c0.5-0.7,1.2-1,2-1c0.4,0,0.8,0.1,1.2,0.3
	c0.4,0.2,0.7,0.5,0.9,0.8h0.1l0.2-0.9h1.6v10.2h-1.9v-3c0-0.3,0-0.6,0.1-1.1h-0.1c-0.2,0.3-0.5,0.6-0.8,0.8
	C683,39.7,682.6,39.8,682.2,39.8z M682.8,38.3c0.4,0,0.8-0.1,1.1-0.4c0.3-0.4,0.4-1,0.4-1.5v-0.2c0-0.6-0.1-1.1-0.4-1.6
	c-0.3-0.3-0.7-0.5-1.1-0.5c-0.9,0-1.4,0.7-1.4,2.1c0,0.6,0.1,1.1,0.3,1.6C682,38.1,682.4,38.3,682.8,38.3L682.8,38.3z"/>
<path class="st3" d="M693.2,39.7l-0.3-0.9h-0.1c-0.2,0.3-0.5,0.6-0.9,0.8c-0.4,0.2-0.9,0.3-1.3,0.3c-0.7,0.1-1.4-0.2-1.9-0.7
	s-0.7-1.2-0.6-1.9v-4.6h1.9v4.1c0,0.4,0.1,0.8,0.3,1.1c0.2,0.3,0.5,0.4,0.9,0.4c0.5,0,0.9-0.2,1.2-0.5c0.3-0.6,0.4-1.2,0.4-1.8v-3.5
	h1.9v7.1L693.2,39.7L693.2,39.7z"/>
<path class="st3" d="M696.6,30.7c0-0.6,0.4-0.9,1-0.9c0.6,0,1.1,0.3,1.1,0.9c0,0.3-0.1,0.5-0.3,0.7s-0.5,0.3-0.8,0.3
	C696.9,31.7,696.6,31.4,696.6,30.7z M698.6,39.7h-1.9v-7.1h1.9V39.7z"/>
<path class="st3" d="M703.6,38.2c0.4,0,0.8-0.1,1.2-0.2v1.4c-0.6,0.2-1.2,0.3-1.8,0.3c-0.6,0.1-1.2-0.2-1.7-0.6
	c-0.4-0.5-0.6-1.1-0.5-1.8v-3.4h-0.9v-0.8l1.1-0.6l0.6-1.5h1.2v1.5h2V34h-2v3.4c0,0.2,0.1,0.5,0.2,0.6
	C703.2,38.2,703.4,38.3,703.6,38.2z"/>
<path class="st3" d="M705.3,32.6h2.1l1.3,4c0.1,0.4,0.2,0.8,0.2,1.2l0,0c0-0.4,0.1-0.8,0.3-1.2l1.3-4h2.1l-3,8
	c-0.2,0.7-0.6,1.2-1.2,1.7c-0.5,0.4-1.1,0.6-1.8,0.6c-0.3,0-0.7,0-1-0.1v-1.5c0.2,0.1,0.5,0.1,0.8,0.1s0.6-0.1,0.9-0.3
	c0.3-0.3,0.5-0.6,0.6-1l0.1-0.4L705.3,32.6z"/>
<path class="st4" d="M528.6,37.4h-5.7v-3.2h5.7v-5.7h3.2v5.7h5.7v3.2h-5.7V43h-3.2V37.4z"/>
<path class="st4" d="M366.9,34.5v-3.2h14.6v3.2H366.9z M366.9,40.2V37h14.6v3.2H366.9z"/>
<ellipse class="st5" cx="307.3" cy="132.6" rx="51" ry="35"/>
<path class="st4" d="M287.1,129.7h-1.7v-6.5h-2.2v-1.4h6v1.4H287v6.5H287.1z"/>
<path class="st4" d="M295.9,129.7h-1.6v-3.5c0-0.9-0.3-1.3-1-1.3c-0.4,0-0.8,0.1-1,0.5c-0.2,0.5-0.4,1-0.3,1.5v2.8h-1.6v-8.4h1.6
	v1.7c0,0.1,0,0.4,0,0.9v0.5h0.1c0.4-0.6,1-0.9,1.7-0.9c0.6,0,1.2,0.2,1.6,0.6c0.4,0.4,0.6,1,0.6,1.6L295.9,129.7z"/>
<path class="st4" d="M297.5,122.1c0-0.5,0.3-0.8,0.9-0.8c0.6,0,0.9,0.3,0.9,0.8c0,0.2-0.1,0.4-0.2,0.6c-0.2,0.2-0.4,0.2-0.7,0.2
	C297.8,122.9,297.5,122.7,297.5,122.1z M299.2,129.7h-1.7v-6h1.6v6H299.2z"/>
<path class="st4" d="M306.4,129.7h-1.6v-3.5c0-0.3,0-0.7-0.2-1c-0.2-0.2-0.4-0.3-0.7-0.3c-0.4,0-0.8,0.1-1,0.5
	c-0.2,0.5-0.3,1-0.3,1.5v2.8H301v-6h1.3l0.2,0.8l0,0c0.2-0.3,0.4-0.5,0.8-0.7c0.3-0.2,0.7-0.2,1.1-0.2c0.6,0,1.2,0.2,1.6,0.6
	c0.4,0.5,0.6,1,0.5,1.6L306.4,129.7z"/>
<path class="st4" d="M313.4,123.7v0.8l-0.9,0.2c0.2,0.3,0.3,0.6,0.3,0.9c0,0.6-0.2,1.1-0.7,1.5s-1.2,0.6-1.9,0.5h-0.3h-0.2
	c-0.1,0.1-0.2,0.3-0.3,0.4c0,0.2,0.3,0.4,0.9,0.4h1c0.5,0,1.1,0.1,1.5,0.4c0.4,0.3,0.5,0.8,0.5,1.2c0,0.7-0.3,1.3-0.9,1.6
	c-0.8,0.4-1.6,0.6-2.5,0.6c-0.7,0-1.3-0.1-1.9-0.4c-0.4-0.3-0.7-0.7-0.7-1.2c0-0.3,0.1-0.7,0.3-0.9c0.3-0.3,0.6-0.4,1-0.5
	c-0.2-0.1-0.3-0.2-0.4-0.4c-0.1-0.1-0.2-0.3-0.2-0.5s0.1-0.4,0.2-0.6c0.2-0.2,0.4-0.3,0.6-0.5c-0.3-0.1-0.6-0.4-0.8-0.6
	c-0.2-0.3-0.3-0.7-0.3-1.1c0-0.6,0.2-1.1,0.6-1.5c0.5-0.4,1.2-0.6,1.8-0.5c0.2,0,0.4,0,0.6,0c0.1,0,0.3,0,0.4,0.1L313.4,123.7z
	 M308.7,130.5c0,0.2,0.1,0.4,0.3,0.5c0.3,0.1,0.6,0.2,0.9,0.2c0.5,0,0.9-0.1,1.4-0.2c0.3-0.1,0.5-0.4,0.5-0.7c0-0.2-0.1-0.4-0.3-0.5
	c-0.3-0.1-0.6-0.1-0.9-0.1h-0.8c-0.3,0-0.5,0.1-0.8,0.2C308.8,130.1,308.7,130.3,308.7,130.5L308.7,130.5z M309.3,125.6
	c0,0.3,0.1,0.6,0.2,0.8c0.2,0.2,0.4,0.3,0.7,0.3c0.3,0,0.5-0.1,0.7-0.3c0.2-0.2,0.2-0.5,0.2-0.8c0-0.7-0.3-1.1-0.9-1.1
	S309.3,124.9,309.3,125.6L309.3,125.6z"/>
<path class="st4" d="M318.5,127.9c0,0.5-0.2,1.1-0.6,1.4c-0.6,0.4-1.2,0.5-1.9,0.5c-0.4,0-0.8,0-1.1-0.1c-0.3-0.1-0.6-0.1-0.9-0.3
	V128c0.3,0.1,0.7,0.3,1,0.4c0.3,0.1,0.7,0.1,1,0.1c0.6,0,0.9-0.2,0.9-0.5c0-0.1,0-0.2-0.1-0.3c-0.1-0.1-0.3-0.2-0.4-0.3
	c-0.2-0.1-0.4-0.2-0.8-0.4c-0.4-0.1-0.7-0.3-1-0.5c-0.2-0.1-0.4-0.3-0.5-0.6s-0.1-0.5-0.1-0.8c0-0.5,0.2-1,0.6-1.2
	c0.5-0.3,1.1-0.5,1.8-0.4c0.7,0,1.4,0.2,2.1,0.5l-0.5,1.2c-0.3-0.1-0.6-0.2-0.8-0.3c-0.3-0.1-0.5-0.1-0.8-0.1
	c-0.5,0-0.7,0.1-0.7,0.4c0,0.2,0.1,0.3,0.2,0.4c0.3,0.2,0.7,0.4,1,0.5c0.4,0.1,0.7,0.3,1,0.5c0.2,0.2,0.4,0.3,0.5,0.6
	C318.5,127.3,318.5,127.6,318.5,127.9z"/>
<path class="st4" d="M328.1,126.7c0.1,0.8-0.2,1.7-0.8,2.3c-0.6,0.6-1.3,0.9-2.2,0.8c-0.5,0-1.1-0.1-1.5-0.4c-0.4-0.2-0.8-0.6-1-1.1
	c-0.3-0.5-0.4-1.1-0.4-1.7c0-0.8,0.2-1.7,0.8-2.3s1.4-0.9,2.2-0.8c0.5,0,1.1,0.1,1.5,0.4c0.4,0.3,0.8,0.6,1,1.1
	C328,125.5,328.1,126.1,328.1,126.7z M324,126.7c0,0.5,0.1,0.9,0.3,1.4c0.2,0.3,0.6,0.5,0.9,0.5c0.4,0,0.7-0.1,0.9-0.5
	c0.4-0.9,0.4-1.8,0-2.7c-0.2-0.3-0.6-0.5-1-0.4c-0.4-0.1-0.8,0.1-1,0.4C324,125.8,323.9,126.2,324,126.7z"/>
<path class="st4" d="M332.8,124.9h-1.4v4.8h-1.6v-4.8h-0.9v-0.8l0.9-0.4v-0.4c-0.1-0.6,0.1-1.1,0.5-1.6c0.5-0.4,1-0.5,1.6-0.5
	c0.5,0,1,0.1,1.5,0.3l-0.4,1.2c-0.3-0.1-0.6-0.1-0.9-0.1c-0.2,0-0.4,0.1-0.5,0.2c-0.1,0.2-0.2,0.3-0.2,0.5v0.4h1.4V124.9z"/>
<path class="st4" d="M295.3,142.9l-2.3-6h1.7l1.2,3.4c0.1,0.4,0.2,0.8,0.2,1.2l0,0c0-0.4,0.1-0.8,0.3-1.2l1.2-3.4h1.8l-2.3,6H295.3z
	"/>
<path class="st4" d="M303.9,142.9l-0.3-0.8l0,0c-0.2,0.3-0.5,0.5-0.8,0.7c-0.4,0.1-0.8,0.2-1.2,0.2c-0.5,0-1-0.1-1.4-0.5
	c-0.3-0.4-0.5-0.9-0.5-1.4c0-0.6,0.2-1.1,0.7-1.4c0.6-0.3,1.3-0.5,2-0.5h1v-0.3c0.1-0.4-0.2-0.9-0.7-0.9c-0.1,0-0.2,0-0.2,0
	c-0.6,0-1.2,0.2-1.7,0.4l-0.6-1.1c0.7-0.4,1.5-0.5,2.3-0.5c0.7,0,1.3,0.1,1.9,0.5c0.4,0.4,0.7,1,0.6,1.6v4H303.9z M303.4,140.1h-0.6
	c-0.4,0-0.7,0.1-1.1,0.3c-0.2,0.2-0.4,0.4-0.3,0.7c0,0.5,0.3,0.7,0.8,0.7c0.3,0,0.7-0.1,0.9-0.3c0.2-0.2,0.4-0.5,0.3-0.9
	L303.4,140.1z"/>
<path class="st4" d="M308.4,142.9h-1.6v-8.4h1.6V142.9z"/>
<path class="st4" d="M314.4,142.9l-0.2-0.8h-0.1c-0.2,0.3-0.4,0.5-0.7,0.6c-0.3,0.2-0.7,0.2-1.1,0.2c-0.6,0-1.2-0.2-1.6-0.6
	c-0.4-0.5-0.6-1-0.5-1.6v-3.9h1.6v3.5c0,0.3,0.1,0.7,0.2,1c0.2,0.2,0.5,0.4,0.7,0.3c0.4,0,0.8-0.1,1-0.5c0.2-0.5,0.4-1,0.3-1.5v-2.8
	h1.6v6L314.4,142.9z"/>
<path class="st4" d="M320.1,143c-0.8,0-1.6-0.2-2.3-0.8c-0.6-0.6-0.9-1.4-0.8-2.3c-0.1-0.8,0.2-1.7,0.8-2.3c0.5-0.6,1.3-0.9,2.1-0.8
	c0.7-0.1,1.5,0.2,2,0.7s0.8,1.3,0.7,2v0.8h-3.9c0,0.4,0.1,0.8,0.4,1.1c0.3,0.3,0.7,0.4,1.1,0.4c0.3,0,0.7,0,1-0.1
	c0.3-0.1,0.7-0.2,1-0.4v1.3c-0.3,0.1-0.6,0.3-0.9,0.3C320.8,142.9,320.5,143,320.1,143z M319.8,137.9c-0.3,0-0.6,0.1-0.8,0.3
	c-0.2,0.3-0.3,0.6-0.3,0.9h2.3c0-0.3-0.1-0.7-0.3-0.9C320.4,138,320.1,137.9,319.8,137.9z"/>
<ellipse class="st6" cx="455.3" cy="132.6" rx="63.6" ry="35"/>
<path class="st4" d="M414.3,129.7l-0.6-1.9h-2.9l-0.6,1.9h-1.7l2.8-7.9h2l2.8,7.9H414.3z M413.3,126.4c-0.5-1.7-0.8-2.6-0.9-2.9
	c-0.1-0.3-0.1-0.4-0.1-0.5c-0.1,0.5-0.4,1.6-1,3.4H413.3z"/>
<path class="st4" d="M422.4,129.7h-1.6v-3.5c0-0.3,0-0.7-0.2-1c-0.2-0.2-0.4-0.3-0.7-0.3c-0.4,0-0.7,0.2-0.9,0.5
	c-0.2,0.5-0.3,1-0.3,1.5v2.8h-1.6v-6h1.3l0.2,0.8h0.1c0.2-0.3,0.4-0.5,0.7-0.6c0.3-0.2,0.7-0.2,1-0.2c0.7-0.1,1.4,0.3,1.8,0.9h0.2
	c0.2-0.3,0.4-0.5,0.7-0.6c0.3-0.2,0.7-0.2,1.1-0.2c0.6,0,1.1,0.1,1.5,0.5c0.4,0.5,0.6,1.1,0.5,1.7v3.9h-1.7v-3.5c0-0.3,0-0.7-0.2-1
	c-0.2-0.2-0.4-0.3-0.7-0.3c-0.4,0-0.7,0.1-0.9,0.4c-0.2,0.4-0.3,0.9-0.3,1.4L422.4,129.7L422.4,129.7z"/>
<path class="st4" d="M433.3,126.7c0.1,0.8-0.2,1.7-0.8,2.3s-1.3,0.9-2.1,0.8c-0.5,0-1.1-0.1-1.5-0.4c-0.4-0.2-0.8-0.6-1-1.1
	c-0.2-0.5-0.4-1.1-0.4-1.7c0-0.8,0.2-1.7,0.8-2.3s1.4-0.9,2.2-0.8c0.5,0,1.1,0.1,1.5,0.4c0.4,0.3,0.8,0.6,1,1.1
	C433.1,125.5,433.3,126.1,433.3,126.7z M429.1,126.7c0,0.5,0.1,0.9,0.3,1.4c0.2,0.3,0.6,0.5,1,0.5s0.7-0.1,0.9-0.5
	c0.4-0.9,0.4-1.8,0-2.7c-0.2-0.3-0.6-0.5-1-0.4c-0.4,0-0.7,0.1-0.9,0.4C429.2,125.7,429.1,126.2,429.1,126.7L429.1,126.7z"/>
<path class="st4" d="M438.9,129.7l-0.2-0.8h-0.2c-0.2,0.3-0.4,0.5-0.7,0.6c-0.3,0.2-0.7,0.2-1.1,0.2c-0.6,0-1.2-0.2-1.6-0.6
	c-0.4-0.5-0.6-1-0.5-1.6v-3.9h1.6v3.5c0,0.3,0.1,0.7,0.2,1c0.2,0.2,0.5,0.4,0.7,0.3c0.4,0,0.8-0.1,1-0.5c0.2-0.5,0.4-1,0.3-1.5v-2.9
	h1.6v6h-1.1V129.7z"/>
<path class="st4" d="M447.4,129.7h-1.6v-3.5c0-0.3-0.1-0.7-0.2-1c-0.2-0.2-0.5-0.3-0.7-0.3c-0.4,0-0.8,0.1-1,0.5
	c-0.2,0.5-0.3,1-0.3,1.5v2.8H442v-6h1.3l0.2,0.8h0.1c0.2-0.3,0.4-0.5,0.8-0.7c0.3-0.2,0.7-0.2,1.1-0.2c0.6,0,1.2,0.2,1.6,0.6
	c0.4,0.5,0.6,1,0.5,1.6L447.4,129.7z"/>
<path class="st4" d="M451.6,128.5c0.3,0,0.7-0.1,1-0.2v1.2c-0.5,0.2-1,0.3-1.5,0.3s-1-0.1-1.4-0.5c-0.3-0.4-0.5-1-0.4-1.5v-2.9h-0.8
	v-0.7l0.9-0.5l0.5-1.3h1.1v1.3h1.7v1.2H451v2.9c0,0.2,0.1,0.4,0.2,0.5C451.2,128.4,451.4,128.5,451.6,128.5z"/>
<path class="st4" d="M458,127.9c0,0.5-0.2,1.1-0.6,1.4c-0.6,0.4-1.2,0.5-1.9,0.5c-0.4,0-0.8,0-1.1-0.1c-0.3-0.1-0.6-0.1-0.9-0.3V128
	c0.3,0.1,0.7,0.3,1,0.4c0.3,0.1,0.7,0.1,1,0.1c0.6,0,0.9-0.2,0.9-0.5c0-0.1,0-0.2-0.1-0.3s-0.3-0.2-0.4-0.3
	c-0.2-0.1-0.5-0.2-0.8-0.4c-0.4-0.1-0.7-0.3-1-0.5c-0.2-0.1-0.4-0.3-0.5-0.6s-0.2-0.5-0.1-0.8c0-0.5,0.2-1,0.6-1.2
	c0.5-0.3,1.1-0.5,1.8-0.4c0.7,0,1.5,0.2,2.1,0.5l-0.5,1.2c-0.3-0.1-0.6-0.2-0.8-0.3c-0.3-0.1-0.5-0.1-0.8-0.1
	c-0.5,0-0.7,0.1-0.7,0.4c0,0.2,0.1,0.3,0.2,0.4c0.3,0.2,0.7,0.4,1,0.5c0.4,0.1,0.7,0.3,1,0.5c0.2,0.1,0.4,0.3,0.5,0.6
	C457.9,127.3,458,127.6,458,127.9z"/>
<path class="st4" d="M467.6,126.7c0,0.8-0.2,1.7-0.8,2.3s-1.3,0.9-2.1,0.8c-0.5,0-1.1-0.1-1.5-0.4c-0.4-0.3-0.8-0.6-1-1.1
	c-0.2-0.5-0.4-1.1-0.4-1.7c0-0.8,0.2-1.7,0.8-2.3s1.4-0.9,2.2-0.8c0.5,0,1.1,0.1,1.5,0.4c0.4,0.3,0.8,0.6,1,1.1
	C467.5,125.5,467.6,126.1,467.6,126.7z M463.5,126.7c0,0.5,0.1,0.9,0.3,1.4c0.2,0.3,0.6,0.5,1,0.5s0.7-0.1,0.9-0.5
	c0.4-0.9,0.4-1.8,0-2.7c-0.2-0.3-0.6-0.5-1-0.4c-0.4,0-0.7,0.1-1,0.4C463.6,125.7,463.4,126.2,463.5,126.7z"/>
<path class="st4" d="M473.9,129.7l-0.5-2.1l-0.6-2.6l0,0l-1.1,4.8h-1.8l-1.7-6h1.6l0.7,2.7c0.1,0.5,0.2,1.1,0.3,2l0,0
	c0-0.4,0.1-0.9,0.2-1.3l0.1-0.5l0.8-2.9h1.8l0.7,2.9c0,0.1,0,0.2,0.1,0.4s0.1,0.3,0.1,0.5s0,0.3,0.1,0.5c0.1,0.2,0,0.3,0,0.4l0,0
	c0-0.3,0.1-0.6,0.2-1.1c0.1-0.5,0.1-0.8,0.2-0.9l0.7-2.7h1.6l-1.7,6L473.9,129.7z"/>
<path class="st4" d="M481.1,129.8c-0.8,0-1.7-0.2-2.3-0.8s-0.9-1.4-0.8-2.3c-0.1-0.8,0.2-1.7,0.8-2.3c0.5-0.6,1.3-0.9,2.1-0.8
	c0.7-0.1,1.5,0.2,2,0.7s0.8,1.3,0.7,2v0.8h-3.9c0,0.4,0.1,0.8,0.4,1.1c0.3,0.3,0.7,0.4,1.1,0.4c0.3,0,0.7,0,1-0.1
	c0.3-0.1,0.7-0.2,1-0.4v1.3c-0.3,0.1-0.6,0.3-0.9,0.3C481.9,129.7,481.5,129.8,481.1,129.8z M480.9,124.7c-0.3,0-0.6,0.1-0.8,0.3
	c-0.2,0.3-0.3,0.6-0.3,0.9h2.3c0-0.3-0.1-0.7-0.3-0.9C481.5,124.8,481.2,124.7,480.9,124.7L480.9,124.7z"/>
<path class="st4" d="M486.8,129.8c-0.7,0-1.3-0.3-1.7-0.8c-0.8-1.4-0.8-3.2,0-4.6c0.4-0.5,1-0.8,1.7-0.8c0.7,0,1.4,0.3,1.7,0.9h0.1
	c-0.1-0.4-0.1-0.8-0.1-1.2v-1.9h1.6v8.4h-1.3l-0.3-0.8l0,0C488.1,129.5,487.5,129.8,486.8,129.8z M487.4,128.5
	c0.3,0,0.7-0.1,0.9-0.4c0.2-0.4,0.3-0.8,0.3-1.2v-0.2c0-0.5-0.1-1-0.3-1.4c-0.2-0.3-0.6-0.5-1-0.4c-0.3,0-0.7,0.2-0.9,0.5
	c-0.2,0.4-0.3,0.9-0.3,1.4s0.1,0.9,0.3,1.3C486.7,128.3,487,128.5,487.4,128.5L487.4,128.5z"/>
<path class="st4" d="M497.3,128.5c0.3,0,0.7-0.1,1-0.2v1.2c-0.5,0.2-1,0.3-1.5,0.3c-0.5,0.1-1.1-0.1-1.4-0.5c-0.3-0.4-0.5-1-0.4-1.5
	v-2.9h-0.8v-0.7l0.9-0.5l0.5-1.3h1v1.3h1.7v1.2h-1.8v2.9c0,0.2,0.1,0.4,0.2,0.5C496.8,128.4,497.1,128.5,497.3,128.5z"/>
<path class="st4" d="M504.9,126.7c0,0.8-0.2,1.7-0.8,2.3c-0.6,0.6-1.4,0.9-2.2,0.8c-0.5,0-1.1-0.1-1.5-0.4c-0.4-0.3-0.8-0.6-1-1.1
	c-0.2-0.5-0.4-1.1-0.4-1.7c-0.1-0.8,0.2-1.7,0.8-2.3s1.4-0.9,2.2-0.8c0.5,0,1.1,0.1,1.5,0.4c0.4,0.3,0.8,0.6,1,1.1
	C504.8,125.5,504.9,126.1,504.9,126.7z M500.8,126.7c0,0.5,0.1,0.9,0.3,1.4c0.2,0.3,0.6,0.5,1,0.5s0.7-0.1,0.9-0.5
	c0.4-0.9,0.4-1.8,0-2.7c-0.2-0.3-0.6-0.5-1-0.4c-0.4,0-0.7,0.1-0.9,0.4C500.9,125.7,500.8,126.2,500.8,126.7L500.8,126.7z"/>
<path class="st4" d="M425.9,141.7c0.3,0,0.7-0.1,1-0.2v1.2c-0.5,0.2-1,0.3-1.5,0.3c-0.5,0.1-1.1-0.1-1.4-0.5s-0.5-1-0.4-1.5v-2.9
	h-0.8v-0.7l0.9-0.5l0.5-1.3h1.1v1.3h1.7v1.2h-1.7v2.9c0,0.2,0.1,0.4,0.2,0.5C425.6,141.6,425.8,141.7,425.9,141.7z"/>
<path class="st4" d="M433.7,142.9h-1.6v-3.5c0-0.9-0.3-1.3-1-1.3c-0.4,0-0.8,0.1-1,0.5c-0.2,0.5-0.3,1-0.3,1.5v2.8h-1.6v-8.4h1.6
	v1.7c0,0.1,0,0.4,0,0.9v0.5h0.1c0.4-0.6,1-0.9,1.7-0.9c0.6,0,1.2,0.2,1.6,0.6c0.4,0.4,0.6,1,0.6,1.6L433.7,142.9z"/>
<path class="st4" d="M435.3,135.3c0-0.5,0.3-0.8,0.9-0.8c0.6,0,0.9,0.3,0.9,0.8c0,0.2-0.1,0.4-0.2,0.6c-0.2,0.2-0.4,0.2-0.7,0.2
	C435.6,136.1,435.3,135.8,435.3,135.3z M437.1,142.9h-1.6v-6h1.6V142.9z"/>
<path class="st4" d="M442.1,136.7c0.2,0,0.4,0,0.6,0l-0.1,1.5c-0.2,0-0.3,0-0.5,0c-0.4,0-0.9,0.1-1.2,0.4c-0.3,0.3-0.5,0.7-0.4,1.1
	v3h-1.6v-6h1.3l0.2,1h0.1c0.2-0.3,0.4-0.6,0.8-0.8C441.4,136.8,441.8,136.7,442.1,136.7z"/>
<path class="st4" d="M445.7,143c-0.7,0-1.3-0.3-1.7-0.8c-0.8-1.4-0.8-3.2,0-4.6c0.4-0.5,1-0.8,1.7-0.8c0.7,0,1.4,0.3,1.7,0.9h0.1
	c-0.1-0.4-0.1-0.8-0.1-1.2v-2h1.6v8.4h-1.3l-0.3-0.8h-0.1C447,142.7,446.3,143,445.7,143z M446.3,141.7c0.3,0,0.7-0.1,0.9-0.4
	c0.2-0.4,0.3-0.8,0.3-1.2v-0.2c0-0.5-0.1-1-0.3-1.4c-0.2-0.3-0.6-0.5-1-0.4c-0.3,0-0.7,0.2-0.9,0.5c-0.2,0.4-0.3,0.9-0.3,1.4
	s0.1,0.9,0.3,1.3C445.6,141.5,445.9,141.7,446.3,141.7z"/>
<path class="st4" d="M456.9,143c-0.6,0-1.3-0.3-1.7-0.8h-0.1c0.1,0.5,0.1,0.8,0.1,0.9v2.4h-1.6v-8.6h1.3l0.2,0.8h0.1
	c0.4-0.6,1-0.9,1.7-0.9c0.7,0,1.3,0.3,1.7,0.8c0.4,0.7,0.7,1.5,0.6,2.3c0,0.6-0.1,1.1-0.3,1.7c-0.2,0.4-0.4,0.8-0.8,1.1
	C457.8,142.9,457.3,143,456.9,143z M456.4,138.1c-0.3,0-0.7,0.1-0.9,0.4c-0.2,0.4-0.3,0.8-0.3,1.3v0.2c0,0.5,0.1,1,0.3,1.4
	c0.2,0.3,0.6,0.4,0.9,0.4c0.7,0,1.1-0.6,1.1-1.8c0-0.5-0.1-0.9-0.3-1.3C457.1,138.2,456.8,138,456.4,138.1z"/>
<path class="st4" d="M464.4,142.9l-0.3-0.8l0,0c-0.2,0.3-0.5,0.5-0.9,0.7c-0.4,0.1-0.8,0.2-1.1,0.2c-0.5,0-1-0.1-1.4-0.5
	s-0.5-0.9-0.5-1.4c0-0.6,0.2-1.1,0.7-1.4c0.6-0.3,1.3-0.5,2-0.5h1v-0.3c0-0.6-0.3-0.9-0.9-0.9s-1.2,0.2-1.7,0.4l-0.5-1.1
	c0.7-0.4,1.5-0.5,2.3-0.5c0.7,0,1.3,0.1,1.9,0.5c0.4,0.4,0.7,1,0.6,1.6v4H464.4z M463.9,140.1h-0.6c-0.4,0-0.7,0.1-1.1,0.3
	c-0.2,0.2-0.4,0.4-0.4,0.7c0,0.5,0.3,0.7,0.8,0.7c0.3,0,0.7-0.1,0.9-0.3c0.2-0.2,0.4-0.5,0.3-0.9L463.9,140.1z"/>
<path class="st4" d="M470.5,136.7c0.2,0,0.4,0,0.6,0l-0.1,1.5c-0.2,0-0.3,0-0.5,0c-0.4,0-0.9,0.1-1.2,0.4c-0.3,0.3-0.5,0.7-0.4,1.1
	v3h-1.6v-6h1.2l0.3,1h0.1c0.2-0.3,0.4-0.6,0.8-0.8C469.8,136.8,470.2,136.7,470.5,136.7z"/>
<path class="st4" d="M474.7,141.7c0.3,0,0.7-0.1,1-0.2v1.2c-0.5,0.2-1,0.3-1.5,0.3c-0.5,0.1-1.1-0.1-1.4-0.5c-0.3-0.4-0.5-1-0.4-1.5
	v-2.9h-0.9v-0.7l0.9-0.5l0.5-1.3h1v1.3h1.7v1.2h-1.7v2.9c0,0.2,0.1,0.4,0.2,0.5C474.3,141.6,474.5,141.7,474.7,141.7z"/>
<path class="st4" d="M476.9,135.3c0-0.5,0.3-0.8,0.9-0.8c0.6,0,0.9,0.3,0.9,0.8c0,0.2-0.1,0.4-0.2,0.6c-0.2,0.2-0.4,0.2-0.7,0.2
	C477.2,136.1,476.9,135.8,476.9,135.3z M478.6,142.9H477v-6h1.6V142.9z"/>
<path class="st4" d="M483,143c-0.8,0-1.7-0.2-2.3-0.8s-0.9-1.4-0.8-2.3c-0.1-0.8,0.2-1.7,0.8-2.3c1.1-1.1,2.9-1.1,4.1-0.1
	c0.5,0.5,0.8,1.3,0.7,2v0.8h-3.9c0,0.4,0.1,0.8,0.4,1.1c0.3,0.3,0.7,0.4,1.1,0.4c0.3,0,0.7,0,1-0.1c0.3-0.1,0.7-0.2,1-0.4v1.3
	c-0.3,0.1-0.6,0.3-0.9,0.3C483.8,142.9,483.4,143,483,143z M482.8,137.9c-0.3,0-0.6,0.1-0.8,0.3c-0.2,0.3-0.3,0.6-0.3,0.9h2.3
	c0-0.3-0.1-0.7-0.3-0.9C483.4,138,483.1,137.9,482.8,137.9L482.8,137.9z"/>
<path class="st4" d="M491,141.1c0,0.5-0.2,1.1-0.6,1.4c-0.6,0.4-1.2,0.5-1.9,0.5c-0.4,0-0.8,0-1.1-0.1c-0.3-0.1-0.6-0.1-0.9-0.3
	v-1.4c0.3,0.1,0.7,0.3,1,0.4c0.3,0.1,0.7,0.1,1,0.1c0.6,0,0.9-0.2,0.9-0.5c0-0.1,0-0.2-0.1-0.3s-0.3-0.2-0.4-0.3l-0.8-0.4
	c-0.4-0.1-0.7-0.3-1-0.5c-0.2-0.2-0.4-0.3-0.5-0.6c-0.1-0.2-0.2-0.5-0.1-0.8c0-0.5,0.2-1,0.6-1.2c0.5-0.3,1.1-0.5,1.8-0.4
	c0.7,0,1.5,0.2,2.1,0.5l-0.5,1.2c-0.3-0.1-0.6-0.2-0.8-0.3c-0.3-0.1-0.5-0.1-0.8-0.1c-0.5,0-0.7,0.1-0.7,0.4c0,0.2,0.1,0.3,0.2,0.4
	c0.3,0.2,0.7,0.4,1,0.5c0.4,0.1,0.7,0.3,1,0.5c0.2,0.1,0.4,0.3,0.5,0.6C490.9,140.5,491,140.8,491,141.1z"/>
<ellipse class="st7" cx="645.3" cy="132.6" rx="63.6" ry="35"/>
<path class="st4" d="M607.3,129.7l-0.6-1.9h-2.9l-0.6,1.9h-1.7l2.8-7.9h2l2.8,7.9H607.3z M606.3,126.4c-0.5-1.7-0.8-2.6-0.9-2.9
	c-0.1-0.3-0.1-0.4-0.1-0.5c-0.1,0.5-0.5,1.6-1,3.4H606.3z"/>
<path class="st4" d="M614.1,127.9c0,0.5-0.2,1.1-0.6,1.4c-0.6,0.4-1.2,0.5-1.9,0.5c-0.4,0-0.8,0-1.1-0.1c-0.3-0.1-0.6-0.1-0.9-0.3
	V128c0.3,0.1,0.7,0.3,1,0.4c0.3,0.1,0.7,0.1,1,0.1c0.6,0,0.9-0.2,0.9-0.5c0-0.1,0-0.2-0.1-0.3c-0.1-0.1-0.3-0.2-0.4-0.3
	c-0.2-0.1-0.5-0.2-0.8-0.4c-0.4-0.1-0.7-0.3-1-0.5c-0.2-0.1-0.4-0.3-0.5-0.6c-0.1-0.3-0.1-0.5-0.1-0.8c0-0.5,0.2-1,0.6-1.2
	c0.5-0.3,1.1-0.5,1.8-0.4c0.7,0,1.4,0.2,2.1,0.5l-0.5,1.2c-0.3-0.1-0.6-0.2-0.8-0.3c-0.3-0.1-0.5-0.1-0.8-0.1
	c-0.5,0-0.7,0.1-0.7,0.4c0,0.2,0.1,0.3,0.2,0.4c0.3,0.2,0.7,0.4,1,0.5c0.4,0.1,0.7,0.3,1,0.5c0.2,0.2,0.4,0.3,0.5,0.6
	C614,127.3,614,127.6,614.1,127.9z"/>
<path class="st4" d="M619.5,127.9c0,0.5-0.2,1.1-0.6,1.4c-0.6,0.4-1.2,0.5-1.9,0.5c-0.4,0-0.8,0-1.1-0.1s-0.6-0.1-0.9-0.3V128
	c0.3,0.1,0.7,0.3,1,0.4c0.3,0.1,0.7,0.1,1,0.1c0.6,0,0.9-0.2,0.9-0.5c0-0.1,0-0.2-0.1-0.3c-0.1-0.1-0.3-0.2-0.4-0.3l-0.8-0.4
	c-0.4-0.1-0.7-0.3-1-0.5c-0.2-0.2-0.4-0.3-0.5-0.6c-0.1-0.2-0.2-0.5-0.1-0.8c0-0.5,0.2-1,0.6-1.2c0.5-0.3,1.1-0.5,1.8-0.4
	c0.7,0,1.5,0.2,2.1,0.5l-0.5,1.2c-0.3-0.1-0.6-0.2-0.8-0.3c-0.3-0.1-0.5-0.1-0.8-0.1c-0.5,0-0.7,0.1-0.7,0.4c0,0.2,0.1,0.3,0.2,0.4
	c0.3,0.2,0.7,0.4,1,0.5c0.4,0.1,0.7,0.3,1,0.5c0.2,0.1,0.4,0.3,0.5,0.6C619.4,127.3,619.5,127.6,619.5,127.9z"/>
<path class="st4" d="M623.5,129.8c-0.8,0-1.6-0.2-2.3-0.8c-0.6-0.6-0.9-1.4-0.8-2.3c-0.1-0.8,0.2-1.7,0.8-2.3
	c1.1-1.1,2.9-1.1,4.1-0.1c0.5,0.5,0.8,1.3,0.7,2v0.8h-3.9c0,0.4,0.1,0.8,0.4,1.1c0.3,0.3,0.7,0.4,1.1,0.4c0.3,0,0.7,0,1-0.1
	s0.7-0.2,1-0.4v1.3c-0.3,0.1-0.6,0.2-0.9,0.3C624.3,129.7,623.9,129.8,623.5,129.8z M623.3,124.7c-0.3,0-0.6,0.1-0.8,0.3
	c-0.2,0.3-0.3,0.6-0.3,0.9h2.3c0-0.3-0.1-0.7-0.3-0.9C623.9,124.8,623.6,124.7,623.3,124.7z"/>
<path class="st4" d="M629.8,128.5c0.3,0,0.7-0.1,1-0.2v1.2c-0.5,0.2-1,0.3-1.5,0.3s-1-0.1-1.4-0.5c-0.3-0.4-0.5-1-0.5-1.5v-2.9h-0.8
	v-0.7l0.9-0.5l0.5-1.3h1v1.3h1.7v1.2H629v2.9c0,0.2,0.1,0.4,0.2,0.5C629.5,128.4,629.6,128.5,629.8,128.5z"/>
<path class="st4" d="M636.3,127.9c0,0.5-0.2,1.1-0.6,1.4c-0.6,0.4-1.2,0.5-1.9,0.5c-0.4,0-0.8,0-1.1-0.1s-0.6-0.1-0.9-0.3V128
	c0.3,0.1,0.7,0.3,1,0.4c0.3,0.1,0.7,0.1,1,0.1c0.6,0,0.9-0.2,0.9-0.5c0-0.1,0-0.2-0.1-0.3c-0.1-0.1-0.3-0.2-0.4-0.3
	c-0.2-0.1-0.5-0.2-0.8-0.4c-0.4-0.1-0.7-0.3-1-0.5c-0.2-0.1-0.4-0.3-0.5-0.6c-0.1-0.3-0.2-0.5-0.1-0.8c0-0.5,0.2-1,0.6-1.2
	c0.5-0.3,1.1-0.5,1.8-0.4c0.7,0,1.5,0.2,2.1,0.5l-0.5,1.2c-0.3-0.1-0.6-0.2-0.8-0.3c-0.3-0.1-0.5-0.1-0.8-0.1
	c-0.5,0-0.7,0.1-0.7,0.4c0,0.2,0.1,0.3,0.2,0.4c0.3,0.2,0.7,0.4,1,0.5c0.4,0.1,0.7,0.3,1,0.5c0.2,0.1,0.4,0.3,0.5,0.6
	C636.2,127.3,636.3,127.6,636.3,127.9z"/>
<path class="st4" d="M645.9,126.7c0.1,0.8-0.2,1.7-0.8,2.3c-0.6,0.6-1.3,0.9-2.1,0.8c-0.5,0-1.1-0.1-1.5-0.4c-0.4-0.2-0.8-0.6-1-1.1
	c-0.2-0.5-0.4-1.1-0.4-1.7c0-0.8,0.2-1.7,0.8-2.3s1.4-0.9,2.2-0.8c0.5,0,1.1,0.1,1.5,0.4c0.4,0.3,0.8,0.6,1,1.1
	C645.8,125.5,645.9,126.1,645.9,126.7z M641.7,126.7c0,0.5,0.1,0.9,0.3,1.4c0.2,0.3,0.6,0.5,1,0.5c0.4,0,0.7-0.1,0.9-0.5
	c0.4-0.9,0.4-1.8,0-2.7c-0.2-0.3-0.6-0.5-1-0.4c-0.4,0-0.7,0.1-1,0.4C641.8,125.7,641.7,126.2,641.7,126.7z"/>
<path class="st4" d="M652.2,129.7l-0.5-2.1l-0.6-2.6l0,0l-1.1,4.8h-1.8l-1.7-6h1.6l0.7,2.7c0.1,0.5,0.2,1.1,0.3,2l0,0
	c0-0.3,0.1-0.7,0.2-1.3l0.1-0.5l0.8-2.9h1.8l0.7,2.9c0,0.1,0,0.2,0.1,0.4c0.1,0.2,0.1,0.3,0.1,0.5s0,0.3,0.1,0.5
	c0.1,0.2,0,0.3,0,0.4l0,0c0-0.3,0.1-0.6,0.2-1.1c0.1-0.5,0.1-0.8,0.2-0.9l0.7-2.7h1.6l-1.7,6L652.2,129.7z"/>
<path class="st4" d="M662.2,129.7h-1.7v-3.5c0-0.3-0.1-0.7-0.2-1c-0.2-0.2-0.5-0.3-0.7-0.3c-0.4,0-0.8,0.1-1,0.5
	c-0.2,0.5-0.4,1-0.3,1.5v2.8h-1.6v-6h1.3l0.2,0.8h0.1c0.2-0.3,0.4-0.5,0.8-0.7c0.3-0.2,0.7-0.2,1.1-0.2c0.6,0,1.2,0.2,1.6,0.6
	c0.4,0.5,0.6,1,0.5,1.6L662.2,129.7z"/>
<path class="st4" d="M666.6,129.8c-0.8,0-1.7-0.2-2.3-0.8c-0.6-0.6-0.9-1.4-0.8-2.3c-0.1-0.8,0.2-1.7,0.8-2.3
	c0.5-0.6,1.3-0.9,2.1-0.8c0.7-0.1,1.5,0.2,2,0.7s0.8,1.3,0.7,2v0.8h-3.9c0,0.4,0.1,0.8,0.4,1.1c0.3,0.3,0.7,0.4,1.1,0.4
	c0.3,0,0.7,0,1-0.1s0.7-0.2,1-0.4v1.3c-0.3,0.1-0.6,0.3-0.9,0.3C667.4,129.7,667,129.8,666.6,129.8z M666.4,124.7
	c-0.3,0-0.6,0.1-0.8,0.3c-0.2,0.3-0.3,0.6-0.3,0.9h2.3c0-0.3-0.1-0.7-0.3-0.9C667,124.8,666.7,124.7,666.4,124.7L666.4,124.7z"/>
<path class="st4" d="M672.3,129.8c-0.7,0-1.3-0.3-1.7-0.8c-0.8-1.4-0.8-3.2,0-4.6c0.4-0.5,1-0.8,1.7-0.8s1.4,0.3,1.7,0.9h0.1
	c-0.1-0.4-0.1-0.8-0.1-1.2v-1.9h1.6v8.4h-1.3L674,129h-0.1C673.6,129.5,672.9,129.8,672.3,129.8z M672.8,128.5
	c0.3,0,0.7-0.1,0.9-0.4c0.2-0.4,0.3-0.8,0.3-1.2v-0.2c0-0.5-0.1-1-0.3-1.4c-0.2-0.3-0.6-0.5-1-0.4c-0.3,0-0.7,0.2-0.9,0.5
	c-0.2,0.4-0.3,0.9-0.3,1.4s0.1,0.9,0.3,1.3C672.1,128.3,672.5,128.5,672.8,128.5z"/>
<path class="st4" d="M683.5,123.5c0.7,0,1.3,0.3,1.7,0.8c0.8,1.4,0.8,3.2,0,4.6c-0.7,0.9-2.1,1.1-3,0.4c-0.1-0.1-0.2-0.2-0.3-0.3
	h-0.1l-0.3,0.7h-1.3v-8.4h1.6v1.9c0,0.3,0,0.6-0.1,1.2h0.1C682.2,123.9,682.8,123.5,683.5,123.5z M683,124.9c-0.3,0-0.7,0.1-0.9,0.4
	c-0.2,0.4-0.3,0.8-0.3,1.2v0.2c0,0.5,0.1,1,0.3,1.4c0.2,0.3,0.6,0.4,0.9,0.4s0.6-0.2,0.8-0.5c0.2-0.4,0.3-0.9,0.3-1.4
	s-0.1-0.9-0.3-1.3C683.6,125,683.3,124.9,683,124.9z"/>
<path class="st4" d="M686.3,123.7h1.8l1.1,3.4c0.1,0.3,0.2,0.7,0.2,1l0,0c0-0.3,0.1-0.7,0.2-1l1.1-3.4h1.8l-2.5,6.8
	c-0.2,0.6-0.5,1-1,1.4c-0.4,0.3-1,0.5-1.5,0.5c-0.3,0-0.6,0-0.8-0.1V131c0.2,0,0.4,0.1,0.6,0.1c0.3,0,0.5-0.1,0.8-0.3
	c0.2-0.2,0.4-0.5,0.5-0.8l0.1-0.3L686.3,123.7z"/>
<path class="st4" d="M616.6,141.1c0,0.5-0.2,1.1-0.6,1.4c-0.6,0.4-1.2,0.5-1.9,0.5c-0.4,0-0.7,0-1.1-0.1c-0.3-0.1-0.6-0.1-0.9-0.3
	v-1.4c0.3,0.1,0.7,0.3,1,0.4c0.3,0.1,0.7,0.1,1,0.1c0.6,0,0.9-0.2,0.9-0.5c0-0.1,0-0.2-0.1-0.3c-0.1-0.1-0.3-0.2-0.4-0.3
	c-0.2-0.1-0.5-0.2-0.8-0.4c-0.4-0.1-0.7-0.3-1-0.5c-0.2-0.1-0.4-0.3-0.5-0.6c-0.1-0.2-0.2-0.5-0.1-0.8c0-0.5,0.2-1,0.6-1.2
	c0.5-0.3,1.1-0.5,1.8-0.4c0.7,0,1.5,0.2,2.1,0.5l-0.5,1.2c-0.3-0.1-0.6-0.2-0.9-0.3s-0.5-0.1-0.8-0.1c-0.5,0-0.7,0.1-0.7,0.4
	c0,0.2,0.1,0.3,0.2,0.4c0.3,0.2,0.7,0.3,1,0.5c0.4,0.1,0.7,0.3,1,0.5C616.3,140,616.6,140.5,616.6,141.1L616.6,141.1z"/>
<path class="st4" d="M620.4,141.7c0.3,0,0.7-0.1,1-0.2v1.2c-0.5,0.2-1,0.3-1.5,0.3c-0.5,0.1-1.1-0.1-1.4-0.5s-0.5-1-0.5-1.5v-2.9
	h-0.8v-0.7l0.9-0.5l0.5-1.3h1v1.3h1.7v1.2h-1.7v2.9c0,0.2,0.1,0.4,0.2,0.5C620,141.6,620.2,141.7,620.4,141.7z"/>
<path class="st4" d="M628.1,139.8c0.1,0.8-0.2,1.7-0.8,2.3c-0.6,0.6-1.3,0.9-2.1,0.8c-0.5,0-1.1-0.1-1.5-0.4c-0.4-0.2-0.8-0.6-1-1.1
	s-0.4-1.1-0.4-1.7c0-0.8,0.2-1.7,0.8-2.3s1.4-0.9,2.2-0.8c0.5,0,1.1,0.1,1.5,0.4c0.4,0.3,0.8,0.6,1,1.1
	C628,138.7,628.1,139.3,628.1,139.8z M624,139.8c0,0.5,0.1,0.9,0.3,1.4c0.2,0.3,0.6,0.5,1,0.5c0.4,0,0.7-0.1,0.9-0.5
	c0.4-0.9,0.4-1.8,0-2.7c-0.2-0.3-0.6-0.5-1-0.4c-0.4,0-0.7,0.1-1,0.4C624,138.9,623.9,139.4,624,139.8z"/>
<path class="st4" d="M631.9,143c-1.9,0-2.8-1-2.8-3.1c-0.1-0.9,0.2-1.7,0.8-2.3s1.4-0.9,2.2-0.8c0.6,0,1.3,0.1,1.9,0.4l-0.5,1.3
	c-0.3-0.1-0.5-0.2-0.7-0.3s-0.4-0.1-0.7-0.1c-0.9,0-1.3,0.6-1.3,1.8s0.4,1.8,1.3,1.8c0.3,0,0.6,0,0.9-0.1s0.6-0.2,0.8-0.4v1.4
	c-0.2,0.2-0.5,0.3-0.8,0.3C632.6,142.9,632.3,143,631.9,143z"/>
<path class="st4" d="M636.7,139.6l0.7-0.9l1.7-1.8h1.9l-2.4,2.6l2.5,3.4h-1.9l-1.7-2.4l-0.7,0.6v1.9h-1.6v-8.5h1.6v3.7L636.7,139.6
	L636.7,139.6z"/>
<path class="st4" d="M647.5,142.9h-1.6v-3.5c0-0.9-0.3-1.3-1-1.3c-0.4,0-0.8,0.1-1,0.5c-0.2,0.5-0.3,1-0.3,1.5v2.8H642v-8.4h1.6v1.7
	c0,0.1,0,0.4,0,0.9v0.5h0.1c0.4-0.6,1-0.9,1.7-0.9c0.6,0,1.2,0.2,1.6,0.6c0.4,0.4,0.6,1,0.5,1.6L647.5,142.9z"/>
<path class="st4" d="M654.6,139.8c0,0.8-0.2,1.7-0.8,2.3c-0.6,0.6-1.4,0.9-2.2,0.8c-0.5,0-1.1-0.1-1.5-0.4c-0.4-0.3-0.8-0.6-1-1.1
	s-0.4-1.1-0.4-1.7c0-0.8,0.2-1.7,0.8-2.3c0.6-0.6,1.4-0.9,2.2-0.8c0.5,0,1.1,0.1,1.5,0.4c0.4,0.3,0.8,0.6,1,1.1
	C654.5,138.7,654.6,139.3,654.6,139.8z M650.5,139.8c0,0.5,0.1,0.9,0.3,1.4c0.2,0.3,0.6,0.5,1,0.5c0.4,0,0.7-0.1,0.9-0.5
	c0.4-0.9,0.4-1.8,0-2.7c-0.2-0.3-0.6-0.5-1-0.4c-0.4,0-0.7,0.1-1,0.4C650.5,138.9,650.5,139.4,650.5,139.8z"/>
<path class="st4" d="M657.6,142.9H656v-8.4h1.6V142.9z"/>
<path class="st4" d="M661.3,143c-0.7,0-1.3-0.3-1.7-0.8c-0.8-1.4-0.8-3.2,0-4.6c0.4-0.5,1-0.8,1.7-0.8s1.3,0.3,1.7,0.9l0,0
	c-0.1-0.4-0.1-0.8-0.1-1.2v-2h1.6v8.4h-1.3l-0.3-0.8h-0.1C662.6,142.7,661.9,143,661.3,143z M661.8,141.7c0.3,0,0.7-0.1,0.9-0.4
	c0.2-0.4,0.3-0.8,0.3-1.2v-0.2c0-0.5-0.1-1-0.3-1.4c-0.2-0.3-0.6-0.5-1-0.4c-0.3,0-0.7,0.2-0.9,0.5c-0.2,0.4-0.3,0.9-0.3,1.4
	s0.1,0.9,0.3,1.3C661.1,141.5,661.5,141.7,661.8,141.7L661.8,141.7z"/>
<path class="st4" d="M669,143c-0.8,0-1.7-0.2-2.3-0.8s-0.9-1.4-0.8-2.3c-0.1-0.8,0.2-1.7,0.8-2.3c0.5-0.6,1.3-0.9,2.1-0.8
	c0.7-0.1,1.5,0.2,2,0.7s0.8,1.3,0.7,2v0.8h-3.9c0,0.4,0.1,0.8,0.4,1.1s0.7,0.4,1.1,0.4c0.3,0,0.7,0,1-0.1s0.7-0.2,1-0.4v1.3
	c-0.3,0.1-0.6,0.3-0.9,0.3C669.8,142.9,669.4,143,669,143z M668.8,137.9c-0.3,0-0.6,0.1-0.8,0.3c-0.2,0.3-0.3,0.6-0.3,0.9h2.3
	c0-0.3-0.1-0.7-0.3-0.9C669.4,138,669.1,137.9,668.8,137.9z"/>
<path class="st4" d="M676.2,136.7c0.2,0,0.4,0,0.6,0l-0.1,1.5c-0.2,0-0.3,0-0.5,0c-0.4,0-0.9,0.1-1.2,0.4c-0.3,0.3-0.5,0.7-0.4,1.1
	v3H673v-6h1.2l0.2,1h0.1c0.2-0.3,0.4-0.6,0.8-0.8C675.4,136.8,675.8,136.7,676.2,136.7z"/>
<path class="st4" d="M682,141.1c0,0.5-0.2,1.1-0.6,1.4c-0.6,0.4-1.2,0.5-1.9,0.5c-0.4,0-0.8,0-1.1-0.1s-0.6-0.1-0.9-0.3v-1.4
	c0.3,0.1,0.7,0.3,1,0.4c0.3,0.1,0.7,0.1,1,0.1c0.6,0,0.9-0.2,0.9-0.5c0-0.1,0-0.2-0.1-0.3c-0.1-0.1-0.3-0.2-0.4-0.3
	c-0.2-0.1-0.5-0.2-0.8-0.4c-0.4-0.1-0.7-0.3-1-0.5c-0.2-0.2-0.4-0.3-0.5-0.6c-0.1-0.2-0.2-0.5-0.1-0.8c0-0.5,0.2-1,0.6-1.2
	c0.5-0.3,1.1-0.5,1.8-0.4c0.7,0,1.5,0.2,2.1,0.5l-0.5,1.2c-0.3-0.1-0.6-0.2-0.8-0.3c-0.3-0.1-0.5-0.1-0.8-0.1
	c-0.5,0-0.7,0.1-0.7,0.4c0,0.2,0.1,0.3,0.2,0.4c0.3,0.2,0.7,0.4,1,0.5c0.4,0.1,0.7,0.3,1,0.5c0.2,0.1,0.4,0.3,0.5,0.6
	C681.9,140.5,682,140.8,682,141.1z"/>
<line class="st8" x1="306.8" y1="58.6" x2="306.8" y2="91.6"/>
<polygon class="st4" points="303.8,82.1 309.8,82.1 306.8,93.1 "/>
<line class="st8" x1="454.8" y1="58.6" x2="454.8" y2="91.6"/>
<polygon class="st4" points="451.8,82.1 457.8,82.1 454.8,93.1 "/>
<line class="st8" x1="645.8" y1="58.6" x2="645.8" y2="91.6"/>
<polygon class="st4" points="642.8,82.1 648.8,82.1 645.8,93.1 "/>
</svg>
