<?xml version="1.0" encoding="utf-8"?>
<!-- Generator: Adobe Illustrator 23.0.6, SVG Export Plug-In . SVG Version: 6.00 Build 0)  -->
<svg version="1.1" id="Layer_1" xmlns="http://www.w3.org/2000/svg" xmlns:xlink="http://www.w3.org/1999/xlink" x="0px" y="0px"
	 viewBox="0 0 919.9 145.7" style="enable-background:new 0 0 919.9 145.7;" xml:space="preserve">
<style type="text/css">
	.st0{fill:#CE6A3E;}
	.st1{fill:#FA8551;}
	.st2{fill:#255BA8;}
	.st3{fill:#FFFFFF;}
	.st4{fill:#545454;}
	.st5{font-family:'OpenSans-Bold';}
	.st6{font-size:24px;}
	.st7{fill:#BFD1F1;}
	.st8{fill:#FDDFD2;}
	.st9{fill:#E7E7E7;}
	.st10{fill:none;stroke:#545454;stroke-miterlimit:10;}
</style>
<title>Accounting_Equation</title>
<path class="st0" d="M647.6,47.8H511.6c-1.6,0-2.8-1.3-2.8-2.8v-30c0-1.6,1.3-2.8,2.8-2.8h136.1c1.6,0,2.8,1.3,2.8,2.8v30
	C650.5,46.5,649.2,47.8,647.6,47.8z"/>
<path class="st1" d="M464.9,47.8h-75.3c-1.6,0-2.8-1.3-2.8-2.8v-30c0-1.6,1.3-2.8,2.8-2.8h75.3c1.6,0,2.8,1.3,2.8,2.8v30
	C467.7,46.5,466.5,47.8,464.9,47.8z"/>
<path class="st2" d="M337.2,47.8H278c-1.6,0-2.8-1.3-2.8-2.8v-30c0-1.6,1.3-2.8,2.8-2.8h59.3c1.6,0,2.8,1.3,2.8,2.8v30
	C340.1,46.5,338.8,47.8,337.2,47.8z"/>
<g>
	<path class="st3" d="M296,33.5l-0.5-1.8h-2.7l-0.5,1.8h-1.7l2.6-7.5h1.9l2.6,7.5H296z M295.1,30.4c-0.5-1.6-0.8-2.5-0.8-2.7
		c-0.1-0.2-0.1-0.4-0.1-0.5c-0.1,0.4-0.4,1.5-1,3.2H295.1z"/>
	<path class="st3" d="M302.4,31.8c0,0.6-0.2,1-0.6,1.3c-0.4,0.3-1,0.5-1.8,0.5c-0.4,0-0.8,0-1.1-0.1c-0.3-0.1-0.6-0.1-0.8-0.2V32
		c0.3,0.1,0.6,0.2,1,0.3c0.4,0.1,0.7,0.1,1,0.1c0.6,0,0.8-0.2,0.8-0.5c0-0.1,0-0.2-0.1-0.3c-0.1-0.1-0.2-0.2-0.4-0.3
		c-0.2-0.1-0.4-0.2-0.7-0.3c-0.4-0.2-0.8-0.4-1-0.5c-0.2-0.2-0.4-0.3-0.4-0.5c-0.1-0.2-0.1-0.4-0.1-0.7c0-0.5,0.2-0.9,0.6-1.2
		s0.9-0.4,1.7-0.4c0.7,0,1.3,0.1,2,0.4l-0.5,1.1c-0.3-0.1-0.5-0.2-0.8-0.3c-0.2-0.1-0.5-0.1-0.8-0.1c-0.5,0-0.7,0.1-0.7,0.4
		c0,0.1,0.1,0.3,0.2,0.4c0.1,0.1,0.5,0.3,1,0.5c0.4,0.2,0.8,0.3,1,0.5s0.4,0.3,0.5,0.5S302.4,31.6,302.4,31.8z"/>
	<path class="st3" d="M307.6,31.8c0,0.6-0.2,1-0.6,1.3c-0.4,0.3-1,0.5-1.8,0.5c-0.4,0-0.8,0-1.1-0.1c-0.3-0.1-0.6-0.1-0.8-0.2V32
		c0.3,0.1,0.6,0.2,1,0.3c0.4,0.1,0.7,0.1,1,0.1c0.6,0,0.8-0.2,0.8-0.5c0-0.1,0-0.2-0.1-0.3c-0.1-0.1-0.2-0.2-0.4-0.3
		c-0.2-0.1-0.4-0.2-0.7-0.3c-0.4-0.2-0.8-0.4-1-0.5c-0.2-0.2-0.4-0.3-0.4-0.5c-0.1-0.2-0.1-0.4-0.1-0.7c0-0.5,0.2-0.9,0.6-1.2
		s0.9-0.4,1.7-0.4c0.7,0,1.3,0.1,2,0.4l-0.5,1.1c-0.3-0.1-0.5-0.2-0.8-0.3c-0.2-0.1-0.5-0.1-0.8-0.1c-0.5,0-0.7,0.1-0.7,0.4
		c0,0.1,0.1,0.3,0.2,0.4c0.1,0.1,0.5,0.3,1,0.5c0.4,0.2,0.8,0.3,1,0.5s0.4,0.3,0.5,0.5S307.6,31.6,307.6,31.8z"/>
	<path class="st3" d="M311.4,33.6c-0.9,0-1.6-0.3-2.1-0.8c-0.5-0.5-0.8-1.2-0.8-2.1c0-1,0.2-1.7,0.7-2.2s1.1-0.8,2-0.8
		c0.8,0,1.4,0.2,1.9,0.7s0.7,1.1,0.7,1.9v0.8H310c0,0.4,0.1,0.8,0.4,1s0.6,0.4,1,0.4c0.3,0,0.7,0,1-0.1c0.3-0.1,0.6-0.2,1-0.3v1.2
		c-0.3,0.1-0.6,0.2-0.9,0.3S311.8,33.6,311.4,33.6z M311.2,28.8c-0.3,0-0.6,0.1-0.8,0.3c-0.2,0.2-0.3,0.5-0.3,0.9h2.2
		c0-0.4-0.1-0.7-0.3-0.9C311.8,29,311.5,28.8,311.2,28.8z"/>
	<path class="st3" d="M317.4,32.4c0.3,0,0.6-0.1,1-0.2v1.2c-0.4,0.2-0.9,0.3-1.4,0.3c-0.6,0-1.1-0.2-1.4-0.5
		c-0.3-0.3-0.4-0.8-0.4-1.4V29h-0.7v-0.7l0.9-0.5l0.4-1.2h1v1.2h1.6V29h-1.6v2.7c0,0.2,0.1,0.4,0.2,0.5
		C317,32.3,317.2,32.4,317.4,32.4z"/>
	<path class="st3" d="M323.4,31.8c0,0.6-0.2,1-0.6,1.3c-0.4,0.3-1,0.5-1.8,0.5c-0.4,0-0.8,0-1.1-0.1c-0.3-0.1-0.6-0.1-0.8-0.2V32
		c0.3,0.1,0.6,0.2,1,0.3c0.4,0.1,0.7,0.1,1,0.1c0.6,0,0.8-0.2,0.8-0.5c0-0.1,0-0.2-0.1-0.3c-0.1-0.1-0.2-0.2-0.4-0.3
		c-0.2-0.1-0.4-0.2-0.7-0.3c-0.4-0.2-0.8-0.4-1-0.5c-0.2-0.2-0.4-0.3-0.4-0.5c-0.1-0.2-0.1-0.4-0.1-0.7c0-0.5,0.2-0.9,0.6-1.2
		s0.9-0.4,1.7-0.4c0.7,0,1.3,0.1,2,0.4l-0.5,1.1c-0.3-0.1-0.5-0.2-0.8-0.3c-0.2-0.1-0.5-0.1-0.8-0.1c-0.5,0-0.7,0.1-0.7,0.4
		c0,0.1,0.1,0.3,0.2,0.4c0.1,0.1,0.5,0.3,1,0.5c0.4,0.2,0.8,0.3,1,0.5s0.4,0.3,0.5,0.5S323.4,31.6,323.4,31.8z"/>
</g>
<g>
	<path class="st3" d="M403,33.5v-7.4h1.6v6.1h3v1.3H403z"/>
	<path class="st3" d="M408.7,26.4c0-0.5,0.3-0.8,0.8-0.8s0.8,0.3,0.8,0.8c0,0.2-0.1,0.4-0.2,0.6c-0.1,0.1-0.4,0.2-0.6,0.2
		C408.9,27.1,408.7,26.9,408.7,26.4z M410.3,33.5h-1.5v-5.7h1.5V33.5z"/>
	<path class="st3" d="M415.5,33.5l-0.3-0.8h0c-0.3,0.3-0.5,0.6-0.8,0.7s-0.6,0.2-1.1,0.2c-0.5,0-1-0.2-1.3-0.5
		c-0.3-0.3-0.5-0.8-0.5-1.3c0-0.6,0.2-1,0.6-1.3c0.4-0.3,1.1-0.4,1.9-0.5l1,0v-0.2c0-0.6-0.3-0.9-0.9-0.9c-0.5,0-1,0.1-1.6,0.4
		l-0.5-1c0.7-0.3,1.4-0.5,2.2-0.5c0.8,0,1.3,0.2,1.8,0.5c0.4,0.3,0.6,0.8,0.6,1.5v3.8H415.5z M415.1,30.9l-0.6,0
		c-0.5,0-0.8,0.1-1,0.2c-0.2,0.1-0.3,0.4-0.3,0.7c0,0.4,0.3,0.7,0.8,0.7c0.4,0,0.6-0.1,0.9-0.3c0.2-0.2,0.3-0.5,0.3-0.8V30.9z"/>
	<path class="st3" d="M421.3,27.7c0.7,0,1.2,0.3,1.6,0.8c0.4,0.5,0.6,1.2,0.6,2.2c0,0.9-0.2,1.7-0.6,2.2c-0.4,0.5-0.9,0.8-1.6,0.8
		c-0.7,0-1.2-0.2-1.6-0.7h-0.1l-0.3,0.6h-1.2v-7.9h1.5v1.8c0,0.2,0,0.6-0.1,1.1h0.1C420.1,28,420.6,27.7,421.3,27.7z M420.8,29
		c-0.4,0-0.7,0.1-0.8,0.4c-0.2,0.2-0.3,0.6-0.3,1.2v0.2c0,0.6,0.1,1,0.3,1.3s0.5,0.4,0.9,0.4c0.3,0,0.6-0.1,0.8-0.4
		c0.2-0.3,0.3-0.7,0.3-1.3s-0.1-1-0.3-1.3C421.4,29.1,421.2,29,420.8,29z"/>
	<path class="st3" d="M424.7,26.4c0-0.5,0.3-0.8,0.8-0.8s0.8,0.3,0.8,0.8c0,0.2-0.1,0.4-0.2,0.6c-0.1,0.1-0.4,0.2-0.6,0.2
		C425,27.1,424.7,26.9,424.7,26.4z M426.3,33.5h-1.5v-5.7h1.5V33.5z"/>
	<path class="st3" d="M429.5,33.5h-1.5v-7.9h1.5V33.5z"/>
	<path class="st3" d="M431.1,26.4c0-0.5,0.3-0.8,0.8-0.8s0.8,0.3,0.8,0.8c0,0.2-0.1,0.4-0.2,0.6c-0.1,0.1-0.4,0.2-0.6,0.2
		C431.3,27.1,431.1,26.9,431.1,26.4z M432.7,33.5h-1.5v-5.7h1.5V33.5z"/>
	<path class="st3" d="M436.7,32.4c0.3,0,0.6-0.1,1-0.2v1.2c-0.4,0.2-0.9,0.3-1.4,0.3c-0.6,0-1.1-0.2-1.4-0.5
		c-0.3-0.3-0.4-0.8-0.4-1.4V29h-0.7v-0.7l0.9-0.5l0.4-1.2h1v1.2h1.6V29H436v2.7c0,0.2,0.1,0.4,0.2,0.5
		C436.3,32.3,436.5,32.4,436.7,32.4z"/>
	<path class="st3" d="M438.7,26.4c0-0.5,0.3-0.8,0.8-0.8s0.8,0.3,0.8,0.8c0,0.2-0.1,0.4-0.2,0.6c-0.1,0.1-0.4,0.2-0.6,0.2
		C439,27.1,438.7,26.9,438.7,26.4z M440.4,33.5h-1.5v-5.7h1.5V33.5z"/>
	<path class="st3" d="M444.5,33.6c-0.9,0-1.6-0.3-2.1-0.8c-0.5-0.5-0.8-1.2-0.8-2.1c0-1,0.2-1.7,0.7-2.2s1.1-0.8,2-0.8
		c0.8,0,1.4,0.2,1.9,0.7s0.7,1.1,0.7,1.9v0.8h-3.7c0,0.4,0.1,0.8,0.4,1s0.6,0.4,1,0.4c0.3,0,0.7,0,1-0.1c0.3-0.1,0.6-0.2,1-0.3v1.2
		c-0.3,0.1-0.6,0.2-0.9,0.3S445,33.6,444.5,33.6z M444.3,28.8c-0.3,0-0.6,0.1-0.8,0.3c-0.2,0.2-0.3,0.5-0.3,0.9h2.2
		c0-0.4-0.1-0.7-0.3-0.9C444.9,29,444.7,28.8,444.3,28.8z"/>
	<path class="st3" d="M452.1,31.8c0,0.6-0.2,1-0.6,1.3c-0.4,0.3-1,0.5-1.8,0.5c-0.4,0-0.8,0-1.1-0.1c-0.3-0.1-0.6-0.1-0.8-0.2V32
		c0.3,0.1,0.6,0.2,1,0.3c0.4,0.1,0.7,0.1,1,0.1c0.6,0,0.8-0.2,0.8-0.5c0-0.1,0-0.2-0.1-0.3c-0.1-0.1-0.2-0.2-0.4-0.3
		c-0.2-0.1-0.4-0.2-0.7-0.3c-0.4-0.2-0.8-0.4-1-0.5c-0.2-0.2-0.4-0.3-0.4-0.5c-0.1-0.2-0.1-0.4-0.1-0.7c0-0.5,0.2-0.9,0.6-1.2
		s0.9-0.4,1.7-0.4c0.7,0,1.3,0.1,2,0.4l-0.5,1.1c-0.3-0.1-0.5-0.2-0.8-0.3c-0.2-0.1-0.5-0.1-0.8-0.1c-0.5,0-0.7,0.1-0.7,0.4
		c0,0.1,0.1,0.3,0.2,0.4c0.1,0.1,0.5,0.3,1,0.5c0.4,0.2,0.8,0.3,1,0.5s0.4,0.3,0.5,0.5S452.1,31.6,452.1,31.8z"/>
</g>
<g>
	<path class="st3" d="M532.6,31.5c0,0.7-0.2,1.2-0.7,1.6c-0.5,0.4-1.2,0.6-2,0.6c-0.8,0-1.5-0.1-2.1-0.4v-1.5
		c0.5,0.2,0.9,0.4,1.3,0.5c0.3,0.1,0.7,0.1,1,0.1c0.3,0,0.6-0.1,0.8-0.2s0.3-0.3,0.3-0.6c0-0.1,0-0.3-0.1-0.4s-0.2-0.2-0.4-0.3
		s-0.5-0.3-1-0.5c-0.5-0.2-0.8-0.4-1-0.6c-0.2-0.2-0.4-0.4-0.5-0.7c-0.1-0.3-0.2-0.6-0.2-0.9c0-0.7,0.2-1.2,0.7-1.5
		c0.4-0.4,1.1-0.6,1.8-0.6c0.4,0,0.8,0,1.1,0.1c0.4,0.1,0.7,0.2,1.1,0.4l-0.5,1.2c-0.4-0.2-0.7-0.3-1-0.3c-0.3-0.1-0.5-0.1-0.8-0.1
		c-0.3,0-0.5,0.1-0.7,0.2c-0.2,0.1-0.2,0.3-0.2,0.5c0,0.1,0,0.3,0.1,0.4c0.1,0.1,0.2,0.2,0.3,0.3c0.1,0.1,0.5,0.3,1,0.5
		c0.7,0.3,1.2,0.7,1.4,1C532.5,30.6,532.6,31,532.6,31.5z"/>
	<path class="st3" d="M536.2,32.4c0.3,0,0.6-0.1,1-0.2v1.2c-0.4,0.2-0.9,0.3-1.4,0.3c-0.6,0-1.1-0.2-1.4-0.5
		c-0.3-0.3-0.4-0.8-0.4-1.4V29h-0.7v-0.7l0.9-0.5l0.4-1.2h1v1.2h1.6V29h-1.6v2.7c0,0.2,0.1,0.4,0.2,0.5
		C535.9,32.3,536,32.4,536.2,32.4z"/>
	<path class="st3" d="M543.5,30.7c0,0.9-0.2,1.6-0.7,2.2c-0.5,0.5-1.2,0.8-2,0.8c-0.5,0-1-0.1-1.4-0.4c-0.4-0.2-0.7-0.6-1-1
		c-0.2-0.4-0.3-1-0.3-1.6c0-0.9,0.2-1.6,0.7-2.2s1.2-0.8,2-0.8c0.5,0,1,0.1,1.4,0.4c0.4,0.2,0.7,0.6,1,1S543.5,30.1,543.5,30.7z
		 M539.6,30.7c0,0.6,0.1,1,0.3,1.3s0.5,0.4,0.9,0.4c0.4,0,0.7-0.1,0.9-0.4c0.2-0.3,0.3-0.7,0.3-1.3c0-0.6-0.1-1-0.3-1.3
		c-0.2-0.3-0.5-0.4-0.9-0.4c-0.4,0-0.7,0.1-0.9,0.4C539.7,29.7,539.6,30.1,539.6,30.7z"/>
	<path class="st3" d="M547.1,33.6c-1.8,0-2.7-1-2.7-2.9c0-1,0.2-1.7,0.7-2.2c0.5-0.5,1.2-0.8,2.1-0.8c0.7,0,1.2,0.1,1.8,0.4
		l-0.5,1.2c-0.2-0.1-0.5-0.2-0.7-0.2c-0.2-0.1-0.4-0.1-0.6-0.1c-0.8,0-1.2,0.6-1.2,1.7c0,1.1,0.4,1.7,1.2,1.7c0.3,0,0.6,0,0.8-0.1
		s0.5-0.2,0.8-0.4v1.3c-0.3,0.2-0.5,0.3-0.8,0.3C547.8,33.6,547.5,33.6,547.1,33.6z"/>
	<path class="st3" d="M551.6,30.4l0.7-0.9l1.6-1.7h1.7l-2.3,2.5l2.4,3.2H554l-1.6-2.3l-0.7,0.5v1.8h-1.5v-7.9h1.5v3.5L551.6,30.4
		L551.6,30.4z"/>
	<path class="st3" d="M561.8,33.5h-1.5v-3.3c0-0.8-0.3-1.2-0.9-1.2c-0.4,0-0.7,0.1-0.9,0.4c-0.2,0.3-0.3,0.8-0.3,1.4v2.7h-1.5v-7.9
		h1.5v1.6c0,0.1,0,0.4,0,0.9l0,0.5h0.1c0.3-0.6,0.9-0.8,1.6-0.8c0.7,0,1.2,0.2,1.5,0.5s0.5,0.9,0.5,1.5V33.5z"/>
	<path class="st3" d="M568.6,30.7c0,0.9-0.2,1.6-0.7,2.2c-0.5,0.5-1.2,0.8-2,0.8c-0.5,0-1-0.1-1.4-0.4c-0.4-0.2-0.7-0.6-1-1
		c-0.2-0.4-0.3-1-0.3-1.6c0-0.9,0.2-1.6,0.7-2.2s1.2-0.8,2-0.8c0.5,0,1,0.1,1.4,0.4c0.4,0.2,0.7,0.6,1,1S568.6,30.1,568.6,30.7z
		 M564.7,30.7c0,0.6,0.1,1,0.3,1.3s0.5,0.4,0.9,0.4c0.4,0,0.7-0.1,0.9-0.4c0.2-0.3,0.3-0.7,0.3-1.3c0-0.6-0.1-1-0.3-1.3
		c-0.2-0.3-0.5-0.4-0.9-0.4c-0.4,0-0.7,0.1-0.9,0.4C564.7,29.7,564.7,30.1,564.7,30.7z"/>
	<path class="st3" d="M571.4,33.5h-1.5v-7.9h1.5V33.5z"/>
	<path class="st3" d="M574.8,33.6c-0.7,0-1.2-0.3-1.6-0.8s-0.6-1.2-0.6-2.2c0-0.9,0.2-1.7,0.6-2.2s0.9-0.8,1.6-0.8
		c0.7,0,1.3,0.3,1.6,0.8h0.1c-0.1-0.4-0.1-0.8-0.1-1.1v-1.8h1.6v7.9h-1.2l-0.3-0.7h-0.1C576.1,33.4,575.5,33.6,574.8,33.6z
		 M575.4,32.4c0.4,0,0.7-0.1,0.9-0.3c0.2-0.2,0.3-0.6,0.3-1.2v-0.2c0-0.6-0.1-1-0.3-1.3c-0.2-0.3-0.5-0.4-0.9-0.4
		c-0.3,0-0.6,0.1-0.8,0.4c-0.2,0.3-0.3,0.7-0.3,1.3s0.1,1,0.3,1.3C574.7,32.3,575,32.4,575.4,32.4z"/>
	<path class="st3" d="M582.2,33.6c-0.9,0-1.6-0.3-2.1-0.8c-0.5-0.5-0.8-1.2-0.8-2.1c0-1,0.2-1.7,0.7-2.2s1.1-0.8,2-0.8
		c0.8,0,1.4,0.2,1.9,0.7s0.7,1.1,0.7,1.9v0.8h-3.7c0,0.4,0.1,0.8,0.4,1c0.2,0.2,0.6,0.4,1,0.4c0.3,0,0.7,0,1-0.1
		c0.3-0.1,0.6-0.2,1-0.3v1.2c-0.3,0.1-0.6,0.2-0.9,0.3C583,33.6,582.6,33.6,582.2,33.6z M582,28.8c-0.3,0-0.6,0.1-0.8,0.3
		c-0.2,0.2-0.3,0.5-0.3,0.9h2.2c0-0.4-0.1-0.7-0.3-0.9C582.6,29,582.3,28.8,582,28.8z"/>
	<path class="st3" d="M588.9,27.7c0.2,0,0.4,0,0.5,0l-0.1,1.5c-0.1,0-0.3-0.1-0.5-0.1c-0.5,0-0.9,0.1-1.2,0.4
		c-0.3,0.3-0.4,0.6-0.4,1.1v2.9h-1.5v-5.7h1.2l0.2,1h0.1c0.2-0.3,0.4-0.6,0.7-0.8C588.2,27.8,588.6,27.7,588.9,27.7z"/>
	<path class="st3" d="M594.4,31.8c0,0.6-0.2,1-0.6,1.3c-0.4,0.3-1,0.5-1.8,0.5c-0.4,0-0.8,0-1.1-0.1c-0.3-0.1-0.6-0.1-0.8-0.2V32
		c0.3,0.1,0.6,0.2,1,0.3c0.4,0.1,0.7,0.1,1,0.1c0.6,0,0.8-0.2,0.8-0.5c0-0.1,0-0.2-0.1-0.3c-0.1-0.1-0.2-0.2-0.4-0.3
		c-0.2-0.1-0.4-0.2-0.7-0.3c-0.4-0.2-0.8-0.4-1-0.5s-0.4-0.3-0.4-0.5c-0.1-0.2-0.1-0.4-0.1-0.7c0-0.5,0.2-0.9,0.6-1.2
		s0.9-0.4,1.7-0.4c0.7,0,1.3,0.1,2,0.4l-0.5,1.1c-0.3-0.1-0.5-0.2-0.8-0.3c-0.2-0.1-0.5-0.1-0.8-0.1c-0.5,0-0.7,0.1-0.7,0.4
		c0,0.1,0.1,0.3,0.2,0.4s0.5,0.3,1,0.5c0.4,0.2,0.8,0.3,1,0.5c0.2,0.2,0.4,0.3,0.5,0.5C594.4,31.3,594.4,31.6,594.4,31.8z"/>
	<path class="st3" d="M596.9,26.1l0.1,0.1c-0.2,0.7-0.5,1.5-0.9,2.4H595c0.2-1,0.4-1.9,0.5-2.5H596.9z"/>
	<path class="st3" d="M605,33.5h-4.3v-7.4h4.3v1.3h-2.7V29h2.5v1.3h-2.5v1.9h2.7V33.5z"/>
	<path class="st3" d="M608.2,33.6c-0.7,0-1.2-0.3-1.6-0.8s-0.6-1.2-0.6-2.2c0-0.9,0.2-1.7,0.6-2.2s0.9-0.8,1.6-0.8
		c0.4,0,0.7,0.1,0.9,0.2c0.3,0.1,0.5,0.3,0.7,0.6h0l0.1-0.7h1.3V36h-1.6v-2.4c0-0.2,0-0.5,0.1-0.9h-0.1c-0.2,0.3-0.4,0.5-0.7,0.6
		S608.6,33.6,608.2,33.6z M608.8,32.4c0.4,0,0.7-0.1,0.9-0.3c0.2-0.2,0.3-0.6,0.3-1.2v-0.2c0-0.6-0.1-1-0.3-1.3
		c-0.2-0.3-0.5-0.4-0.9-0.4c-0.7,0-1.1,0.6-1.1,1.7c0,0.6,0.1,1,0.3,1.3C608.1,32.3,608.4,32.4,608.8,32.4z"/>
	<path class="st3" d="M617,33.5l-0.2-0.7h-0.1c-0.2,0.3-0.4,0.5-0.7,0.6s-0.7,0.2-1,0.2c-0.7,0-1.2-0.2-1.5-0.5
		c-0.3-0.4-0.5-0.9-0.5-1.5v-3.7h1.5v3.3c0,0.4,0.1,0.7,0.2,0.9c0.1,0.2,0.4,0.3,0.7,0.3c0.4,0,0.7-0.1,0.9-0.4
		c0.2-0.3,0.3-0.8,0.3-1.4v-2.7h1.5v5.7H617z"/>
	<path class="st3" d="M619.8,26.4c0-0.5,0.3-0.8,0.8-0.8c0.6,0,0.8,0.3,0.8,0.8c0,0.2-0.1,0.4-0.2,0.6c-0.1,0.1-0.4,0.2-0.6,0.2
		C620.1,27.1,619.8,26.9,619.8,26.4z M621.4,33.5h-1.5v-5.7h1.5V33.5z"/>
	<path class="st3" d="M625.4,32.4c0.3,0,0.6-0.1,1-0.2v1.2c-0.4,0.2-0.9,0.3-1.4,0.3c-0.6,0-1.1-0.2-1.4-0.5
		c-0.3-0.3-0.4-0.8-0.4-1.4V29h-0.7v-0.7l0.9-0.5l0.4-1.2h1v1.2h1.6V29h-1.6v2.7c0,0.2,0.1,0.4,0.2,0.5
		C625,32.3,625.2,32.4,625.4,32.4z"/>
	<path class="st3" d="M626.7,27.9h1.7l1.1,3.2c0.1,0.3,0.2,0.6,0.2,1h0c0-0.3,0.1-0.7,0.2-1l1.1-3.2h1.7l-2.4,6.4
		c-0.2,0.6-0.5,1-0.9,1.3s-0.9,0.4-1.4,0.4c-0.3,0-0.5,0-0.8-0.1v-1.2c0.2,0,0.4,0.1,0.6,0.1c0.3,0,0.5-0.1,0.7-0.3
		c0.2-0.2,0.4-0.4,0.5-0.8l0.1-0.3L626.7,27.9z"/>
</g>
<text transform="matrix(1 0 0 1 479.7993 38.8647)" class="st4 st5 st6">+</text>
<text transform="matrix(1 0 0 1 354.999 38.8647)" class="st4 st5 st6">=</text>
<ellipse class="st7" cx="308.3" cy="107.9" rx="40.8" ry="28"/>
<g>
	<path class="st4" d="M292.2,105.5h-1.3v-5.2h-1.7v-1.1h4.7v1.1h-1.7V105.5z"/>
	<path class="st4" d="M299.2,105.5h-1.3v-2.8c0-0.7-0.3-1-0.8-1c-0.4,0-0.6,0.1-0.8,0.4c-0.2,0.2-0.2,0.7-0.2,1.2v2.3h-1.3v-6.7h1.3
		v1.4c0,0.1,0,0.4,0,0.7l0,0.4h0.1c0.3-0.5,0.8-0.7,1.4-0.7c0.6,0,1,0.2,1.3,0.5s0.4,0.7,0.4,1.3V105.5z"/>
	<path class="st4" d="M300.5,99.5c0-0.4,0.2-0.6,0.7-0.6s0.7,0.2,0.7,0.6c0,0.2-0.1,0.4-0.2,0.5c-0.1,0.1-0.3,0.2-0.5,0.2
		C300.7,100.1,300.5,99.9,300.5,99.5z M301.9,105.5h-1.3v-4.8h1.3V105.5z"/>
	<path class="st4" d="M307.7,105.5h-1.3v-2.8c0-0.3-0.1-0.6-0.2-0.8c-0.1-0.2-0.3-0.3-0.6-0.3c-0.4,0-0.6,0.1-0.8,0.4
		c-0.2,0.2-0.2,0.7-0.2,1.2v2.3h-1.3v-4.8h1l0.2,0.6h0.1c0.1-0.2,0.3-0.4,0.6-0.5c0.3-0.1,0.5-0.2,0.9-0.2c0.6,0,1,0.2,1.3,0.5
		c0.3,0.3,0.4,0.7,0.4,1.3V105.5z"/>
	<path class="st4" d="M313.2,100.7v0.7l-0.8,0.2c0.1,0.2,0.2,0.5,0.2,0.7c0,0.5-0.2,0.9-0.5,1.2c-0.4,0.3-0.9,0.4-1.5,0.4l-0.2,0
		l-0.2,0c-0.1,0.1-0.2,0.2-0.2,0.3c0,0.2,0.2,0.3,0.7,0.3h0.8c0.5,0,0.9,0.1,1.2,0.3c0.3,0.2,0.4,0.6,0.4,1c0,0.6-0.2,1-0.7,1.3
		s-1.1,0.5-2,0.5c-0.7,0-1.2-0.1-1.5-0.4c-0.4-0.2-0.5-0.6-0.5-1c0-0.3,0.1-0.5,0.3-0.7c0.2-0.2,0.4-0.3,0.8-0.4
		c-0.1-0.1-0.3-0.2-0.4-0.3c-0.1-0.1-0.2-0.3-0.2-0.4c0-0.2,0.1-0.3,0.2-0.5c0.1-0.1,0.3-0.2,0.5-0.4c-0.3-0.1-0.5-0.3-0.6-0.5
		s-0.2-0.5-0.2-0.9c0-0.5,0.2-0.9,0.5-1.2c0.3-0.3,0.8-0.4,1.5-0.4c0.1,0,0.3,0,0.5,0c0.2,0,0.3,0,0.4,0.1H313.2z M309.5,106.2
		c0,0.2,0.1,0.3,0.3,0.4s0.4,0.2,0.7,0.2c0.5,0,0.8-0.1,1.1-0.2c0.3-0.1,0.4-0.3,0.4-0.5c0-0.2-0.1-0.3-0.2-0.4
		c-0.2-0.1-0.4-0.1-0.7-0.1h-0.7c-0.2,0-0.4,0.1-0.6,0.2C309.6,105.9,309.5,106,309.5,106.2z M310,102.3c0,0.3,0.1,0.5,0.2,0.6
		c0.1,0.2,0.3,0.2,0.5,0.2c0.2,0,0.4-0.1,0.5-0.2c0.1-0.2,0.2-0.4,0.2-0.6c0-0.6-0.2-0.9-0.7-0.9C310.2,101.4,310,101.7,310,102.3z"
		/>
	<path class="st4" d="M317.3,104.1c0,0.5-0.2,0.9-0.5,1.1s-0.9,0.4-1.5,0.4c-0.3,0-0.6,0-0.9-0.1c-0.2,0-0.5-0.1-0.7-0.2v-1.1
		c0.2,0.1,0.5,0.2,0.8,0.3c0.3,0.1,0.6,0.1,0.8,0.1c0.5,0,0.7-0.1,0.7-0.4c0-0.1,0-0.2-0.1-0.3c-0.1-0.1-0.2-0.1-0.3-0.2
		c-0.2-0.1-0.4-0.2-0.6-0.3c-0.4-0.2-0.6-0.3-0.8-0.4s-0.3-0.3-0.4-0.5c-0.1-0.2-0.1-0.4-0.1-0.6c0-0.4,0.2-0.8,0.5-1
		s0.8-0.3,1.4-0.3c0.6,0,1.1,0.1,1.7,0.4l-0.4,0.9c-0.2-0.1-0.5-0.2-0.7-0.3c-0.2-0.1-0.4-0.1-0.6-0.1c-0.4,0-0.6,0.1-0.6,0.3
		c0,0.1,0.1,0.2,0.2,0.3s0.4,0.2,0.8,0.4c0.4,0.2,0.7,0.3,0.8,0.4s0.3,0.3,0.4,0.5S317.3,103.9,317.3,104.1z"/>
	<path class="st4" d="M325,103.1c0,0.8-0.2,1.4-0.6,1.8c-0.4,0.4-1,0.7-1.7,0.7c-0.5,0-0.9-0.1-1.2-0.3c-0.4-0.2-0.6-0.5-0.8-0.9
		c-0.2-0.4-0.3-0.8-0.3-1.3c0-0.8,0.2-1.4,0.6-1.8c0.4-0.4,1-0.7,1.7-0.7c0.5,0,0.9,0.1,1.2,0.3c0.4,0.2,0.6,0.5,0.8,0.9
		S325,102.6,325,103.1z M321.7,103.1c0,0.5,0.1,0.8,0.2,1.1c0.2,0.2,0.4,0.4,0.8,0.4c0.3,0,0.6-0.1,0.8-0.4c0.2-0.2,0.2-0.6,0.2-1.1
		c0-0.5-0.1-0.8-0.2-1.1c-0.2-0.2-0.4-0.4-0.8-0.4c-0.3,0-0.6,0.1-0.8,0.4C321.8,102.3,321.7,102.6,321.7,103.1z"/>
	<path class="st4" d="M328.7,101.7h-1.1v3.8h-1.3v-3.8h-0.7v-0.6l0.7-0.4v-0.4c0-0.5,0.1-0.9,0.4-1.2c0.3-0.3,0.7-0.4,1.3-0.4
		c0.5,0,0.9,0.1,1.2,0.2l-0.3,1c-0.3-0.1-0.5-0.1-0.7-0.1c-0.2,0-0.3,0.1-0.4,0.2s-0.1,0.3-0.1,0.4v0.3h1.1V101.7z"/>
	<path class="st4" d="M298.7,116.1l-1.8-4.8h1.4l0.9,2.7c0.1,0.3,0.2,0.7,0.2,1h0c0-0.3,0.1-0.6,0.2-1l0.9-2.7h1.4l-1.8,4.8H298.7z"
		/>
	<path class="st4" d="M305.6,116.1l-0.3-0.7h0c-0.2,0.3-0.4,0.5-0.7,0.6c-0.2,0.1-0.5,0.2-0.9,0.2c-0.5,0-0.8-0.1-1.1-0.4
		c-0.3-0.3-0.4-0.6-0.4-1.1c0-0.5,0.2-0.9,0.5-1.1c0.4-0.2,0.9-0.4,1.6-0.4l0.8,0v-0.2c0-0.5-0.2-0.7-0.7-0.7
		c-0.4,0-0.8,0.1-1.4,0.3l-0.4-0.9c0.6-0.3,1.2-0.4,1.8-0.4c0.6,0,1.1,0.1,1.5,0.4c0.3,0.3,0.5,0.7,0.5,1.3v3.2H305.6z M305.3,113.9
		l-0.5,0c-0.4,0-0.7,0.1-0.9,0.2s-0.3,0.3-0.3,0.6c0,0.4,0.2,0.6,0.6,0.6c0.3,0,0.5-0.1,0.7-0.3c0.2-0.2,0.3-0.4,0.3-0.7V113.9z"/>
	<path class="st4" d="M309.2,116.1h-1.3v-6.7h1.3V116.1z"/>
	<path class="st4" d="M314,116.1l-0.2-0.6h-0.1c-0.1,0.2-0.3,0.4-0.6,0.5c-0.3,0.1-0.6,0.2-0.9,0.2c-0.6,0-1-0.2-1.3-0.5
		c-0.3-0.3-0.4-0.7-0.4-1.3v-3.1h1.3v2.8c0,0.3,0.1,0.6,0.2,0.8c0.1,0.2,0.3,0.3,0.6,0.3c0.4,0,0.6-0.1,0.8-0.4
		c0.2-0.2,0.2-0.7,0.2-1.2v-2.3h1.3v4.8H314z"/>
	<path class="st4" d="M318.6,116.2c-0.8,0-1.4-0.2-1.8-0.6s-0.7-1-0.7-1.8c0-0.8,0.2-1.4,0.6-1.9c0.4-0.4,1-0.7,1.7-0.7
		c0.7,0,1.2,0.2,1.6,0.6s0.6,0.9,0.6,1.6v0.6h-3.1c0,0.4,0.1,0.7,0.3,0.9c0.2,0.2,0.5,0.3,0.9,0.3c0.3,0,0.6,0,0.8-0.1
		c0.3-0.1,0.5-0.2,0.8-0.3v1c-0.2,0.1-0.5,0.2-0.7,0.3S318.9,116.2,318.6,116.2z M318.4,112.1c-0.3,0-0.5,0.1-0.7,0.3
		c-0.2,0.2-0.2,0.4-0.3,0.7h1.8c0-0.3-0.1-0.6-0.3-0.7C318.9,112.2,318.6,112.1,318.4,112.1z"/>
</g>
<ellipse class="st8" cx="426.7" cy="107.9" rx="50.9" ry="28"/>
<g>
	<path class="st4" d="M394,105.5l-0.5-1.5h-2.3l-0.5,1.5h-1.4l2.2-6.3h1.6l2.2,6.3H394z M393.2,102.9c-0.4-1.4-0.7-2.1-0.7-2.3
		c-0.1-0.2-0.1-0.3-0.1-0.4c-0.1,0.4-0.4,1.3-0.8,2.7H393.2z"/>
	<path class="st4" d="M400.4,105.5h-1.3v-2.8c0-0.3-0.1-0.6-0.2-0.8c-0.1-0.2-0.3-0.3-0.5-0.3c-0.3,0-0.6,0.1-0.7,0.4
		c-0.2,0.2-0.2,0.7-0.2,1.2v2.3h-1.3v-4.8h1l0.2,0.6h0.1c0.1-0.2,0.3-0.4,0.6-0.5c0.2-0.1,0.5-0.2,0.8-0.2c0.7,0,1.2,0.2,1.5,0.7
		h0.1c0.1-0.2,0.3-0.4,0.6-0.5c0.3-0.1,0.5-0.2,0.8-0.2c0.5,0,1,0.1,1.2,0.4s0.4,0.7,0.4,1.3v3.1h-1.3v-2.8c0-0.3-0.1-0.6-0.2-0.8
		c-0.1-0.2-0.3-0.3-0.5-0.3c-0.3,0-0.6,0.1-0.7,0.3c-0.2,0.2-0.2,0.6-0.2,1.1V105.5z"/>
	<path class="st4" d="M409.1,103.1c0,0.8-0.2,1.4-0.6,1.8c-0.4,0.4-1,0.7-1.7,0.7c-0.5,0-0.9-0.1-1.2-0.3c-0.4-0.2-0.6-0.5-0.8-0.9
		c-0.2-0.4-0.3-0.8-0.3-1.3c0-0.8,0.2-1.4,0.6-1.8c0.4-0.4,1-0.7,1.7-0.7c0.5,0,0.9,0.1,1.2,0.3c0.4,0.2,0.6,0.5,0.8,0.9
		S409.1,102.6,409.1,103.1z M405.8,103.1c0,0.5,0.1,0.8,0.2,1.1c0.2,0.2,0.4,0.4,0.8,0.4c0.3,0,0.6-0.1,0.8-0.4
		c0.2-0.2,0.2-0.6,0.2-1.1c0-0.5-0.1-0.8-0.2-1.1c-0.2-0.2-0.4-0.4-0.8-0.4c-0.3,0-0.6,0.1-0.8,0.4
		C405.9,102.3,405.8,102.6,405.8,103.1z"/>
	<path class="st4" d="M413.6,105.5l-0.2-0.6h-0.1c-0.1,0.2-0.3,0.4-0.6,0.5c-0.3,0.1-0.6,0.2-0.9,0.2c-0.6,0-1-0.2-1.3-0.5
		c-0.3-0.3-0.4-0.7-0.4-1.3v-3.1h1.3v2.8c0,0.3,0.1,0.6,0.2,0.8c0.1,0.2,0.3,0.3,0.6,0.3c0.4,0,0.6-0.1,0.8-0.4
		c0.2-0.2,0.2-0.7,0.2-1.2v-2.3h1.3v4.8H413.6z"/>
	<path class="st4" d="M420.4,105.5h-1.3v-2.8c0-0.3-0.1-0.6-0.2-0.8c-0.1-0.2-0.3-0.3-0.6-0.3c-0.4,0-0.6,0.1-0.8,0.4
		c-0.2,0.2-0.2,0.7-0.2,1.2v2.3H416v-4.8h1l0.2,0.6h0.1c0.1-0.2,0.3-0.4,0.6-0.5c0.3-0.1,0.5-0.2,0.9-0.2c0.6,0,1,0.2,1.3,0.5
		c0.3,0.3,0.4,0.7,0.4,1.3V105.5z"/>
	<path class="st4" d="M423.8,104.6c0.2,0,0.5,0,0.8-0.2v1c-0.3,0.1-0.7,0.2-1.2,0.2c-0.5,0-0.9-0.1-1.1-0.4
		c-0.2-0.3-0.4-0.7-0.4-1.2v-2.3h-0.6v-0.6l0.7-0.4l0.4-1h0.8v1h1.3v1h-1.3v2.3c0,0.2,0.1,0.3,0.2,0.4
		C423.5,104.5,423.6,104.6,423.8,104.6z"/>
	<path class="st4" d="M428.9,104.1c0,0.5-0.2,0.9-0.5,1.1s-0.9,0.4-1.5,0.4c-0.3,0-0.6,0-0.9-0.1c-0.2,0-0.5-0.1-0.7-0.2v-1.1
		c0.2,0.1,0.5,0.2,0.8,0.3c0.3,0.1,0.6,0.1,0.8,0.1c0.5,0,0.7-0.1,0.7-0.4c0-0.1,0-0.2-0.1-0.3c-0.1-0.1-0.2-0.1-0.3-0.2
		c-0.2-0.1-0.4-0.2-0.6-0.3c-0.4-0.2-0.6-0.3-0.8-0.4s-0.3-0.3-0.4-0.5c-0.1-0.2-0.1-0.4-0.1-0.6c0-0.4,0.2-0.8,0.5-1
		s0.8-0.3,1.4-0.3c0.6,0,1.1,0.1,1.7,0.4l-0.4,0.9c-0.2-0.1-0.5-0.2-0.7-0.3c-0.2-0.1-0.4-0.1-0.6-0.1c-0.4,0-0.6,0.1-0.6,0.3
		c0,0.1,0.1,0.2,0.2,0.3s0.4,0.2,0.8,0.4c0.4,0.2,0.7,0.3,0.8,0.4s0.3,0.3,0.4,0.5S428.9,103.9,428.9,104.1z"/>
	<path class="st4" d="M436.6,103.1c0,0.8-0.2,1.4-0.6,1.8c-0.4,0.4-1,0.7-1.7,0.7c-0.5,0-0.9-0.1-1.2-0.3c-0.4-0.2-0.6-0.5-0.8-0.9
		c-0.2-0.4-0.3-0.8-0.3-1.3c0-0.8,0.2-1.4,0.6-1.8c0.4-0.4,1-0.7,1.7-0.7c0.5,0,0.9,0.1,1.2,0.3c0.4,0.2,0.6,0.5,0.8,0.9
		S436.6,102.6,436.6,103.1z M433.3,103.1c0,0.5,0.1,0.8,0.2,1.1c0.2,0.2,0.4,0.4,0.8,0.4c0.3,0,0.6-0.1,0.8-0.4
		c0.2-0.2,0.2-0.6,0.2-1.1c0-0.5-0.1-0.8-0.2-1.1c-0.2-0.2-0.4-0.4-0.8-0.4c-0.3,0-0.6,0.1-0.8,0.4
		C433.4,102.3,433.3,102.6,433.3,103.1z"/>
	<path class="st4" d="M441.6,105.5l-0.4-1.7l-0.5-2.1h0l-0.9,3.8h-1.4l-1.4-4.8h1.3l0.6,2.1c0.1,0.4,0.2,0.9,0.3,1.6h0
		c0-0.2,0.1-0.6,0.2-1l0.1-0.4l0.6-2.3h1.4l0.6,2.3c0,0.1,0,0.2,0.1,0.3c0,0.1,0,0.3,0.1,0.4c0,0.1,0,0.3,0.1,0.4s0,0.2,0,0.3h0
		c0-0.2,0.1-0.5,0.1-0.8c0.1-0.4,0.1-0.6,0.1-0.7l0.6-2.1h1.3l-1.4,4.8H441.6z"/>
	<path class="st4" d="M447.4,105.6c-0.8,0-1.4-0.2-1.8-0.6s-0.7-1-0.7-1.8c0-0.8,0.2-1.4,0.6-1.9s1-0.7,1.7-0.7
		c0.7,0,1.2,0.2,1.6,0.6s0.6,0.9,0.6,1.6v0.6h-3.1c0,0.4,0.1,0.7,0.3,0.9c0.2,0.2,0.5,0.3,0.9,0.3c0.3,0,0.6,0,0.8-0.1
		s0.5-0.2,0.8-0.3v1c-0.2,0.1-0.5,0.2-0.7,0.3C448.1,105.6,447.8,105.6,447.4,105.6z M447.2,101.6c-0.3,0-0.5,0.1-0.7,0.3
		c-0.2,0.2-0.2,0.4-0.3,0.8h1.8c0-0.3-0.1-0.6-0.3-0.8C447.7,101.7,447.5,101.6,447.2,101.6z"/>
	<path class="st4" d="M451.9,105.6c-0.6,0-1-0.2-1.3-0.7s-0.5-1-0.5-1.8c0-0.8,0.2-1.4,0.5-1.8s0.8-0.7,1.4-0.7
		c0.6,0,1.1,0.2,1.4,0.7h0c-0.1-0.4-0.1-0.7-0.1-1v-1.5h1.3v6.7h-1l-0.3-0.6h-0.1C453,105.4,452.5,105.6,451.9,105.6z M452.4,104.6
		c0.3,0,0.6-0.1,0.7-0.3c0.2-0.2,0.2-0.5,0.3-1v-0.1c0-0.5-0.1-0.9-0.2-1.1c-0.2-0.2-0.4-0.3-0.8-0.3c-0.3,0-0.5,0.1-0.7,0.4
		c-0.2,0.2-0.2,0.6-0.2,1.1s0.1,0.8,0.2,1.1C451.9,104.5,452.1,104.6,452.4,104.6z"/>
	<path class="st4" d="M460.3,104.6c0.2,0,0.5,0,0.8-0.2v1c-0.3,0.1-0.7,0.2-1.2,0.2c-0.5,0-0.9-0.1-1.1-0.4
		c-0.2-0.3-0.4-0.7-0.4-1.2v-2.3h-0.6v-0.6l0.7-0.4l0.4-1h0.8v1h1.3v1h-1.3v2.3c0,0.2,0.1,0.3,0.2,0.4
		C460,104.5,460.1,104.6,460.3,104.6z"/>
	<path class="st4" d="M466.5,103.1c0,0.8-0.2,1.4-0.6,1.8c-0.4,0.4-1,0.7-1.7,0.7c-0.5,0-0.9-0.1-1.2-0.3s-0.6-0.5-0.8-0.9
		c-0.2-0.4-0.3-0.8-0.3-1.3c0-0.8,0.2-1.4,0.6-1.8c0.4-0.4,1-0.7,1.7-0.7c0.5,0,0.9,0.1,1.2,0.3c0.4,0.2,0.6,0.5,0.8,0.9
		S466.5,102.6,466.5,103.1z M463.1,103.1c0,0.5,0.1,0.8,0.2,1.1c0.2,0.2,0.4,0.4,0.8,0.4c0.3,0,0.6-0.1,0.8-0.4
		c0.2-0.2,0.2-0.6,0.2-1.1c0-0.5-0.1-0.8-0.2-1.1c-0.2-0.2-0.4-0.4-0.8-0.4c-0.3,0-0.6,0.1-0.8,0.4S463.1,102.6,463.1,103.1z"/>
	<path class="st4" d="M403.3,115.1c0.2,0,0.5-0.1,0.8-0.2v1c-0.3,0.1-0.7,0.2-1.2,0.2c-0.5,0-0.9-0.1-1.1-0.4
		c-0.2-0.3-0.4-0.7-0.4-1.2v-2.3h-0.6v-0.6l0.7-0.4l0.4-1h0.8v1h1.3v1h-1.3v2.3c0,0.2,0.1,0.3,0.2,0.4
		C402.9,115.1,403.1,115.1,403.3,115.1z"/>
	<path class="st4" d="M409.5,116.1h-1.3v-2.8c0-0.7-0.3-1-0.8-1c-0.4,0-0.6,0.1-0.8,0.4c-0.2,0.2-0.2,0.7-0.2,1.2v2.3h-1.3v-6.7h1.3
		v1.4c0,0.1,0,0.4,0,0.7l0,0.4h0.1c0.3-0.5,0.8-0.7,1.4-0.7c0.6,0,1,0.2,1.3,0.5s0.4,0.7,0.4,1.3V116.1z"/>
	<path class="st4" d="M410.8,110c0-0.4,0.2-0.6,0.7-0.6s0.7,0.2,0.7,0.6c0,0.2-0.1,0.4-0.2,0.5c-0.1,0.1-0.3,0.2-0.5,0.2
		C411,110.7,410.8,110.5,410.8,110z M412.1,116.1h-1.3v-4.8h1.3V116.1z"/>
	<path class="st4" d="M416.2,111.2c0.2,0,0.3,0,0.4,0l-0.1,1.2c-0.1,0-0.2,0-0.4,0c-0.4,0-0.7,0.1-1,0.3s-0.4,0.5-0.4,0.9v2.4h-1.3
		v-4.8h1l0.2,0.8h0.1c0.1-0.3,0.4-0.5,0.6-0.7C415.6,111.3,415.9,111.2,416.2,111.2z"/>
	<path class="st4" d="M419,116.2c-0.6,0-1-0.2-1.3-0.7c-0.3-0.4-0.5-1-0.5-1.8c0-0.8,0.2-1.4,0.5-1.8c0.3-0.4,0.8-0.7,1.4-0.7
		c0.6,0,1.1,0.2,1.4,0.7h0c-0.1-0.4-0.1-0.7-0.1-1v-1.5h1.3v6.7h-1l-0.3-0.6h-0.1C420.1,115.9,419.6,116.2,419,116.2z M419.5,115.1
		c0.3,0,0.6-0.1,0.7-0.3c0.2-0.2,0.2-0.5,0.3-1v-0.1c0-0.5-0.1-0.9-0.2-1.1c-0.2-0.2-0.4-0.3-0.8-0.3c-0.3,0-0.5,0.1-0.7,0.4
		c-0.2,0.2-0.2,0.6-0.2,1.1s0.1,0.8,0.2,1.1C419,115,419.2,115.1,419.5,115.1z"/>
	<path class="st4" d="M428,116.2c-0.6,0-1-0.2-1.3-0.6h-0.1c0,0.4,0.1,0.6,0.1,0.7v1.9h-1.3v-6.9h1.1l0.2,0.6h0.1
		c0.3-0.5,0.8-0.7,1.4-0.7c0.6,0,1,0.2,1.3,0.7c0.3,0.4,0.5,1,0.5,1.8c0,0.5-0.1,1-0.2,1.3s-0.4,0.7-0.6,0.9
		C428.7,116.1,428.4,116.2,428,116.2z M427.6,112.2c-0.3,0-0.6,0.1-0.7,0.3c-0.1,0.2-0.2,0.5-0.2,1v0.1c0,0.5,0.1,0.9,0.2,1.1
		s0.4,0.3,0.7,0.3c0.6,0,0.9-0.5,0.9-1.5c0-0.5-0.1-0.8-0.2-1.1S427.9,112.2,427.6,112.2z"/>
	<path class="st4" d="M434,116.1l-0.3-0.7h0c-0.2,0.3-0.4,0.5-0.7,0.6c-0.2,0.1-0.5,0.2-0.9,0.2c-0.5,0-0.8-0.1-1.1-0.4
		c-0.3-0.3-0.4-0.6-0.4-1.1c0-0.5,0.2-0.9,0.5-1.1c0.4-0.2,0.9-0.4,1.6-0.4l0.8,0v-0.2c0-0.5-0.2-0.7-0.7-0.7
		c-0.4,0-0.8,0.1-1.4,0.3l-0.4-0.9c0.6-0.3,1.2-0.4,1.8-0.4c0.6,0,1.1,0.1,1.5,0.4c0.3,0.3,0.5,0.7,0.5,1.3v3.2H434z M433.6,113.9
		l-0.5,0c-0.4,0-0.7,0.1-0.9,0.2s-0.3,0.3-0.3,0.6c0,0.4,0.2,0.6,0.6,0.6c0.3,0,0.5-0.1,0.7-0.3c0.2-0.2,0.3-0.4,0.3-0.7V113.9z"/>
	<path class="st4" d="M438.9,111.2c0.2,0,0.3,0,0.4,0l-0.1,1.2c-0.1,0-0.2,0-0.4,0c-0.4,0-0.7,0.1-1,0.3s-0.4,0.5-0.4,0.9v2.4h-1.3
		v-4.8h1l0.2,0.8h0.1c0.1-0.3,0.4-0.5,0.6-0.7C438.4,111.3,438.6,111.2,438.9,111.2z"/>
	<path class="st4" d="M442.3,115.1c0.2,0,0.5-0.1,0.8-0.2v1c-0.3,0.1-0.7,0.2-1.2,0.2c-0.5,0-0.9-0.1-1.1-0.4
		c-0.2-0.3-0.4-0.7-0.4-1.2v-2.3h-0.6v-0.6l0.7-0.4l0.4-1h0.8v1h1.3v1h-1.3v2.3c0,0.2,0.1,0.3,0.2,0.4
		C442,115.1,442.1,115.1,442.3,115.1z"/>
	<path class="st4" d="M444,110c0-0.4,0.2-0.6,0.7-0.6s0.7,0.2,0.7,0.6c0,0.2-0.1,0.4-0.2,0.5c-0.1,0.1-0.3,0.2-0.5,0.2
		C444.3,110.7,444,110.5,444,110z M445.4,116.1h-1.3v-4.8h1.3V116.1z"/>
	<path class="st4" d="M448.9,116.2c-0.8,0-1.4-0.2-1.8-0.6s-0.7-1-0.7-1.8c0-0.8,0.2-1.4,0.6-1.9c0.4-0.4,1-0.7,1.7-0.7
		c0.7,0,1.2,0.2,1.6,0.6s0.6,0.9,0.6,1.6v0.6h-3.1c0,0.4,0.1,0.7,0.3,0.9c0.2,0.2,0.5,0.3,0.9,0.3c0.3,0,0.6,0,0.8-0.1
		c0.3-0.1,0.5-0.2,0.8-0.3v1c-0.2,0.1-0.5,0.2-0.7,0.3S449.3,116.2,448.9,116.2z M448.7,112.1c-0.3,0-0.5,0.1-0.7,0.3
		c-0.2,0.2-0.2,0.4-0.3,0.7h1.8c0-0.3-0.1-0.6-0.3-0.7C449.2,112.2,449,112.1,448.7,112.1z"/>
	<path class="st4" d="M455.3,114.7c0,0.5-0.2,0.9-0.5,1.1s-0.9,0.4-1.5,0.4c-0.3,0-0.6,0-0.9-0.1c-0.2,0-0.5-0.1-0.7-0.2v-1.1
		c0.2,0.1,0.5,0.2,0.8,0.3c0.3,0.1,0.6,0.1,0.8,0.1c0.5,0,0.7-0.1,0.7-0.4c0-0.1,0-0.2-0.1-0.3c-0.1-0.1-0.2-0.1-0.3-0.2
		c-0.2-0.1-0.4-0.2-0.6-0.3c-0.4-0.2-0.6-0.3-0.8-0.4s-0.3-0.3-0.4-0.5c-0.1-0.2-0.1-0.4-0.1-0.6c0-0.4,0.2-0.8,0.5-1
		s0.8-0.4,1.4-0.4c0.6,0,1.1,0.1,1.7,0.4l-0.4,0.9c-0.2-0.1-0.5-0.2-0.7-0.3c-0.2-0.1-0.4-0.1-0.6-0.1c-0.4,0-0.6,0.1-0.6,0.3
		c0,0.1,0.1,0.2,0.2,0.3s0.4,0.2,0.8,0.4c0.4,0.2,0.7,0.3,0.8,0.4s0.3,0.3,0.4,0.5S455.3,114.4,455.3,114.7z"/>
</g>
<ellipse class="st9" cx="578.7" cy="107.9" rx="50.9" ry="28"/>
<g>
	<path class="st4" d="M548.3,105.5l-0.5-1.5h-2.3l-0.5,1.5h-1.4l2.2-6.3h1.6l2.2,6.3H548.3z M547.5,102.9c-0.4-1.4-0.7-2.1-0.7-2.3
		c-0.1-0.2-0.1-0.3-0.1-0.4c-0.1,0.4-0.4,1.3-0.8,2.7H547.5z"/>
	<path class="st4" d="M553.8,104.1c0,0.5-0.2,0.9-0.5,1.1c-0.3,0.3-0.9,0.4-1.5,0.4c-0.3,0-0.6,0-0.9-0.1c-0.2,0-0.5-0.1-0.7-0.2
		v-1.1c0.2,0.1,0.5,0.2,0.8,0.3c0.3,0.1,0.6,0.1,0.8,0.1c0.5,0,0.7-0.1,0.7-0.4c0-0.1,0-0.2-0.1-0.3c-0.1-0.1-0.2-0.1-0.3-0.2
		c-0.2-0.1-0.4-0.2-0.6-0.3c-0.4-0.2-0.6-0.3-0.8-0.4c-0.2-0.1-0.3-0.3-0.4-0.5c-0.1-0.2-0.1-0.4-0.1-0.6c0-0.4,0.2-0.8,0.5-1
		s0.8-0.3,1.4-0.3c0.6,0,1.1,0.1,1.7,0.4l-0.4,0.9c-0.2-0.1-0.5-0.2-0.7-0.3c-0.2-0.1-0.4-0.1-0.6-0.1c-0.4,0-0.6,0.1-0.6,0.3
		c0,0.1,0.1,0.2,0.2,0.3c0.1,0.1,0.4,0.2,0.8,0.4c0.4,0.2,0.6,0.3,0.8,0.4s0.3,0.3,0.4,0.5S553.8,103.9,553.8,104.1z"/>
	<path class="st4" d="M558.1,104.1c0,0.5-0.2,0.9-0.5,1.1c-0.3,0.3-0.9,0.4-1.5,0.4c-0.3,0-0.6,0-0.9-0.1c-0.2,0-0.5-0.1-0.7-0.2
		v-1.1c0.2,0.1,0.5,0.2,0.8,0.3c0.3,0.1,0.6,0.1,0.8,0.1c0.5,0,0.7-0.1,0.7-0.4c0-0.1,0-0.2-0.1-0.3c-0.1-0.1-0.2-0.1-0.3-0.2
		c-0.2-0.1-0.4-0.2-0.6-0.3c-0.4-0.2-0.6-0.3-0.8-0.4c-0.2-0.1-0.3-0.3-0.4-0.5c-0.1-0.2-0.1-0.4-0.1-0.6c0-0.4,0.2-0.8,0.5-1
		s0.8-0.3,1.4-0.3c0.6,0,1.1,0.1,1.7,0.4l-0.4,0.9c-0.2-0.1-0.5-0.2-0.7-0.3c-0.2-0.1-0.4-0.1-0.6-0.1c-0.4,0-0.6,0.1-0.6,0.3
		c0,0.1,0.1,0.2,0.2,0.3c0.1,0.1,0.4,0.2,0.8,0.4c0.4,0.2,0.6,0.3,0.8,0.4s0.3,0.3,0.4,0.5S558.1,103.9,558.1,104.1z"/>
	<path class="st4" d="M561.3,105.6c-0.8,0-1.4-0.2-1.8-0.6c-0.4-0.4-0.7-1-0.7-1.8c0-0.8,0.2-1.4,0.6-1.9s1-0.7,1.7-0.7
		c0.7,0,1.2,0.2,1.6,0.6s0.6,0.9,0.6,1.6v0.6h-3.1c0,0.4,0.1,0.7,0.3,0.9s0.5,0.3,0.9,0.3c0.3,0,0.6,0,0.8-0.1s0.5-0.2,0.8-0.3v1
		c-0.2,0.1-0.5,0.2-0.7,0.3C562,105.6,561.7,105.6,561.3,105.6z M561.1,101.6c-0.3,0-0.5,0.1-0.7,0.3c-0.2,0.2-0.2,0.4-0.3,0.8h1.8
		c0-0.3-0.1-0.6-0.3-0.8S561.4,101.6,561.1,101.6z"/>
	<path class="st4" d="M566.4,104.6c0.2,0,0.5,0,0.8-0.2v1c-0.3,0.1-0.7,0.2-1.2,0.2c-0.5,0-0.9-0.1-1.1-0.4
		c-0.2-0.3-0.4-0.7-0.4-1.2v-2.3h-0.6v-0.6l0.7-0.4l0.4-1h0.8v1h1.3v1h-1.3v2.3c0,0.2,0.1,0.3,0.2,0.4S566.2,104.6,566.4,104.6z"/>
	<path class="st4" d="M571.5,104.1c0,0.5-0.2,0.9-0.5,1.1c-0.3,0.3-0.9,0.4-1.5,0.4c-0.3,0-0.6,0-0.9-0.1c-0.2,0-0.5-0.1-0.7-0.2
		v-1.1c0.2,0.1,0.5,0.2,0.8,0.3c0.3,0.1,0.6,0.1,0.8,0.1c0.5,0,0.7-0.1,0.7-0.4c0-0.1,0-0.2-0.1-0.3c-0.1-0.1-0.2-0.1-0.3-0.2
		c-0.2-0.1-0.4-0.2-0.6-0.3c-0.4-0.2-0.6-0.3-0.8-0.4c-0.2-0.1-0.3-0.3-0.4-0.5c-0.1-0.2-0.1-0.4-0.1-0.6c0-0.4,0.2-0.8,0.5-1
		s0.8-0.3,1.4-0.3c0.6,0,1.1,0.1,1.7,0.4l-0.4,0.9c-0.2-0.1-0.5-0.2-0.7-0.3c-0.2-0.1-0.4-0.1-0.6-0.1c-0.4,0-0.6,0.1-0.6,0.3
		c0,0.1,0.1,0.2,0.2,0.3c0.1,0.1,0.4,0.2,0.8,0.4c0.4,0.2,0.6,0.3,0.8,0.4s0.3,0.3,0.4,0.5S571.5,103.9,571.5,104.1z"/>
	<path class="st4" d="M579.2,103.1c0,0.8-0.2,1.4-0.6,1.8c-0.4,0.4-1,0.7-1.7,0.7c-0.5,0-0.9-0.1-1.2-0.3s-0.6-0.5-0.8-0.9
		c-0.2-0.4-0.3-0.8-0.3-1.3c0-0.8,0.2-1.4,0.6-1.8c0.4-0.4,1-0.7,1.7-0.7c0.5,0,0.9,0.1,1.2,0.3c0.4,0.2,0.6,0.5,0.8,0.9
		S579.2,102.6,579.2,103.1z M575.9,103.1c0,0.5,0.1,0.8,0.2,1.1c0.2,0.2,0.4,0.4,0.8,0.4c0.3,0,0.6-0.1,0.8-0.4
		c0.2-0.2,0.2-0.6,0.2-1.1c0-0.5-0.1-0.8-0.2-1.1c-0.2-0.2-0.4-0.4-0.8-0.4c-0.3,0-0.6,0.1-0.8,0.4
		C576,102.3,575.9,102.6,575.9,103.1z"/>
	<path class="st4" d="M584.2,105.5l-0.4-1.7l-0.5-2.1h0l-0.9,3.8H581l-1.4-4.8h1.3l0.6,2.1c0.1,0.4,0.2,0.9,0.3,1.6h0
		c0-0.2,0.1-0.6,0.2-1l0.1-0.4l0.6-2.3h1.4l0.6,2.3c0,0.1,0,0.2,0.1,0.3c0,0.1,0,0.3,0.1,0.4c0,0.1,0,0.3,0.1,0.4c0,0.1,0,0.2,0,0.3
		h0c0-0.2,0.1-0.5,0.1-0.8c0.1-0.4,0.1-0.6,0.1-0.7l0.6-2.1h1.3l-1.4,4.8H584.2z"/>
	<path class="st4" d="M592.2,105.5h-1.3v-2.8c0-0.3-0.1-0.6-0.2-0.8c-0.1-0.2-0.3-0.3-0.6-0.3c-0.4,0-0.6,0.1-0.8,0.4
		c-0.2,0.2-0.2,0.7-0.2,1.2v2.3h-1.3v-4.8h1l0.2,0.6h0.1c0.1-0.2,0.3-0.4,0.6-0.5c0.3-0.1,0.5-0.2,0.9-0.2c0.6,0,1,0.2,1.3,0.5
		c0.3,0.3,0.4,0.7,0.4,1.3V105.5z"/>
	<path class="st4" d="M595.8,105.6c-0.8,0-1.4-0.2-1.8-0.6c-0.4-0.4-0.7-1-0.7-1.8c0-0.8,0.2-1.4,0.6-1.9s1-0.7,1.7-0.7
		c0.7,0,1.2,0.2,1.6,0.6s0.6,0.9,0.6,1.6v0.6h-3.1c0,0.4,0.1,0.7,0.3,0.9s0.5,0.3,0.9,0.3c0.3,0,0.6,0,0.8-0.1s0.5-0.2,0.8-0.3v1
		c-0.2,0.1-0.5,0.2-0.7,0.3C596.5,105.6,596.1,105.6,595.8,105.6z M595.6,101.6c-0.3,0-0.5,0.1-0.7,0.3c-0.2,0.2-0.2,0.4-0.3,0.8
		h1.8c0-0.3-0.1-0.6-0.3-0.8S595.9,101.6,595.6,101.6z"/>
	<path class="st4" d="M600.3,105.6c-0.6,0-1-0.2-1.3-0.7s-0.5-1-0.5-1.8c0-0.8,0.2-1.4,0.5-1.8c0.3-0.4,0.8-0.7,1.4-0.7
		c0.6,0,1.1,0.2,1.4,0.7h0c-0.1-0.4-0.1-0.7-0.1-1v-1.5h1.3v6.7h-1l-0.3-0.6h-0.1C601.4,105.4,600.9,105.6,600.3,105.6z
		 M600.8,104.6c0.3,0,0.6-0.1,0.7-0.3c0.2-0.2,0.2-0.5,0.3-1v-0.1c0-0.5-0.1-0.9-0.2-1.1c-0.2-0.2-0.4-0.3-0.8-0.3
		c-0.3,0-0.5,0.1-0.7,0.4c-0.2,0.2-0.2,0.6-0.2,1.1s0.1,0.8,0.2,1.1S600.5,104.6,600.8,104.6z"/>
	<path class="st4" d="M609.3,100.6c0.6,0,1,0.2,1.3,0.7c0.3,0.4,0.5,1,0.5,1.8c0,0.8-0.2,1.4-0.5,1.8c-0.3,0.4-0.8,0.7-1.4,0.7
		c-0.6,0-1-0.2-1.3-0.6h-0.1l-0.2,0.5h-1v-6.7h1.3v1.6c0,0.2,0,0.5-0.1,0.9h0.1C608.3,100.9,608.7,100.6,609.3,100.6z M608.9,101.7
		c-0.3,0-0.6,0.1-0.7,0.3c-0.1,0.2-0.2,0.5-0.2,1v0.1c0,0.5,0.1,0.9,0.2,1.1s0.4,0.3,0.7,0.3c0.3,0,0.5-0.1,0.6-0.4s0.2-0.6,0.2-1.1
		s-0.1-0.8-0.2-1.1C609.4,101.8,609.2,101.7,608.9,101.7z"/>
	<path class="st4" d="M611.5,100.7h1.4l0.9,2.7c0.1,0.2,0.1,0.5,0.2,0.8h0c0-0.3,0.1-0.6,0.2-0.8l0.9-2.7h1.4l-2,5.4
		c-0.2,0.5-0.5,0.9-0.8,1.1c-0.3,0.2-0.7,0.4-1.2,0.4c-0.2,0-0.4,0-0.7-0.1v-1c0.2,0,0.3,0.1,0.5,0.1c0.2,0,0.4-0.1,0.6-0.2
		c0.2-0.1,0.3-0.4,0.4-0.6l0.1-0.2L611.5,100.7z"/>
	<path class="st4" d="M555.8,114.7c0,0.5-0.2,0.9-0.5,1.1c-0.3,0.3-0.9,0.4-1.5,0.4c-0.3,0-0.6,0-0.9-0.1c-0.2,0-0.5-0.1-0.7-0.2
		v-1.1c0.2,0.1,0.5,0.2,0.8,0.3c0.3,0.1,0.6,0.1,0.8,0.1c0.5,0,0.7-0.1,0.7-0.4c0-0.1,0-0.2-0.1-0.3c-0.1-0.1-0.2-0.1-0.3-0.2
		c-0.2-0.1-0.4-0.2-0.6-0.3c-0.4-0.2-0.6-0.3-0.8-0.4c-0.2-0.1-0.3-0.3-0.4-0.5c-0.1-0.2-0.1-0.4-0.1-0.6c0-0.4,0.2-0.8,0.5-1
		s0.8-0.4,1.4-0.4c0.6,0,1.1,0.1,1.7,0.4l-0.4,0.9c-0.2-0.1-0.5-0.2-0.7-0.3c-0.2-0.1-0.4-0.1-0.6-0.1c-0.4,0-0.6,0.1-0.6,0.3
		c0,0.1,0.1,0.2,0.2,0.3c0.1,0.1,0.4,0.2,0.8,0.4c0.4,0.2,0.6,0.3,0.8,0.4s0.3,0.3,0.4,0.5S555.8,114.4,555.8,114.7z"/>
	<path class="st4" d="M558.8,115.1c0.2,0,0.5-0.1,0.8-0.2v1c-0.3,0.1-0.7,0.2-1.2,0.2c-0.5,0-0.9-0.1-1.1-0.4
		c-0.2-0.3-0.4-0.7-0.4-1.2v-2.3h-0.6v-0.6l0.7-0.4l0.4-1h0.8v1h1.3v1h-1.3v2.3c0,0.2,0.1,0.3,0.2,0.4S558.7,115.1,558.8,115.1z"/>
	<path class="st4" d="M565,113.7c0,0.8-0.2,1.4-0.6,1.8c-0.4,0.4-1,0.7-1.7,0.7c-0.5,0-0.9-0.1-1.2-0.3c-0.4-0.2-0.6-0.5-0.8-0.9
		c-0.2-0.4-0.3-0.8-0.3-1.3c0-0.8,0.2-1.4,0.6-1.8c0.4-0.4,1-0.7,1.7-0.7c0.5,0,0.9,0.1,1.2,0.3c0.4,0.2,0.6,0.5,0.8,0.9
		C564.9,112.7,565,113.2,565,113.7z M561.7,113.7c0,0.5,0.1,0.8,0.2,1.1c0.2,0.2,0.4,0.4,0.8,0.4c0.3,0,0.6-0.1,0.8-0.4
		s0.2-0.6,0.2-1.1c0-0.5-0.1-0.8-0.2-1.1c-0.2-0.2-0.4-0.4-0.8-0.4c-0.3,0-0.6,0.1-0.8,0.4C561.8,112.8,561.7,113.2,561.7,113.7z"/>
	<path class="st4" d="M568,116.2c-1.5,0-2.2-0.8-2.2-2.5c0-0.8,0.2-1.4,0.6-1.9c0.4-0.4,1-0.6,1.7-0.6c0.6,0,1.1,0.1,1.5,0.3l-0.4,1
		c-0.2-0.1-0.4-0.2-0.6-0.2s-0.4-0.1-0.5-0.1c-0.7,0-1,0.5-1,1.5c0,0.9,0.3,1.4,1,1.4c0.3,0,0.5,0,0.7-0.1s0.4-0.2,0.6-0.3v1.1
		c-0.2,0.1-0.4,0.2-0.6,0.3C568.6,116.1,568.4,116.2,568,116.2z"/>
	<path class="st4" d="M571.9,113.5l0.6-0.7l1.3-1.5h1.5l-1.9,2.1l2,2.7h-1.5l-1.4-1.9l-0.6,0.5v1.5h-1.3v-6.7h1.3v3L571.9,113.5
		L571.9,113.5z"/>
	<path class="st4" d="M580.5,116.1h-1.3v-2.8c0-0.7-0.3-1-0.8-1c-0.4,0-0.6,0.1-0.8,0.4c-0.2,0.2-0.2,0.7-0.2,1.2v2.3h-1.3v-6.7h1.3
		v1.4c0,0.1,0,0.4,0,0.7l0,0.4h0.1c0.3-0.5,0.8-0.7,1.4-0.7c0.6,0,1,0.2,1.3,0.5s0.4,0.7,0.4,1.3V116.1z"/>
	<path class="st4" d="M586.2,113.7c0,0.8-0.2,1.4-0.6,1.8c-0.4,0.4-1,0.7-1.7,0.7c-0.5,0-0.9-0.1-1.2-0.3c-0.4-0.2-0.6-0.5-0.8-0.9
		c-0.2-0.4-0.3-0.8-0.3-1.3c0-0.8,0.2-1.4,0.6-1.8c0.4-0.4,1-0.7,1.7-0.7c0.5,0,0.9,0.1,1.2,0.3c0.4,0.2,0.6,0.5,0.8,0.9
		C586.1,112.7,586.2,113.2,586.2,113.7z M582.9,113.7c0,0.5,0.1,0.8,0.2,1.1c0.2,0.2,0.4,0.4,0.8,0.4c0.3,0,0.6-0.1,0.8-0.4
		s0.2-0.6,0.2-1.1c0-0.5-0.1-0.8-0.2-1.1c-0.2-0.2-0.4-0.4-0.8-0.4c-0.3,0-0.6,0.1-0.8,0.4C583,112.8,582.9,113.2,582.9,113.7z"/>
	<path class="st4" d="M588.6,116.1h-1.3v-6.7h1.3V116.1z"/>
	<path class="st4" d="M591.5,116.2c-0.6,0-1-0.2-1.3-0.7c-0.3-0.4-0.5-1-0.5-1.8c0-0.8,0.2-1.4,0.5-1.8c0.3-0.4,0.8-0.7,1.4-0.7
		c0.6,0,1.1,0.2,1.4,0.7h0c-0.1-0.4-0.1-0.7-0.1-1v-1.5h1.3v6.7h-1l-0.3-0.6h-0.1C592.6,115.9,592.1,116.2,591.5,116.2z M592,115.1
		c0.3,0,0.6-0.1,0.7-0.3c0.2-0.2,0.2-0.5,0.3-1v-0.1c0-0.5-0.1-0.9-0.2-1.1c-0.2-0.2-0.4-0.3-0.8-0.3c-0.3,0-0.5,0.1-0.7,0.4
		s-0.2,0.6-0.2,1.1s0.1,0.8,0.2,1.1S591.7,115.1,592,115.1z"/>
	<path class="st4" d="M597.7,116.2c-0.8,0-1.4-0.2-1.8-0.6c-0.4-0.4-0.7-1-0.7-1.8c0-0.8,0.2-1.4,0.6-1.9c0.4-0.4,1-0.7,1.7-0.7
		c0.7,0,1.2,0.2,1.6,0.6s0.6,0.9,0.6,1.6v0.6h-3.1c0,0.4,0.1,0.7,0.3,0.9s0.5,0.3,0.9,0.3c0.3,0,0.6,0,0.8-0.1
		c0.3-0.1,0.5-0.2,0.8-0.3v1c-0.2,0.1-0.5,0.2-0.7,0.3S598.1,116.2,597.7,116.2z M597.5,112.1c-0.3,0-0.5,0.1-0.7,0.3
		c-0.2,0.2-0.2,0.4-0.3,0.7h1.8c0-0.3-0.1-0.6-0.3-0.7C598,112.2,597.8,112.1,597.5,112.1z"/>
	<path class="st4" d="M603.4,111.2c0.2,0,0.3,0,0.4,0l-0.1,1.2c-0.1,0-0.2,0-0.4,0c-0.4,0-0.7,0.1-1,0.3c-0.2,0.2-0.4,0.5-0.4,0.9
		v2.4h-1.3v-4.8h1l0.2,0.8h0.1c0.1-0.3,0.4-0.5,0.6-0.7C602.9,111.3,603.1,111.2,603.4,111.2z"/>
	<path class="st4" d="M608.1,114.7c0,0.5-0.2,0.9-0.5,1.1c-0.3,0.3-0.9,0.4-1.5,0.4c-0.3,0-0.6,0-0.9-0.1c-0.2,0-0.5-0.1-0.7-0.2
		v-1.1c0.2,0.1,0.5,0.2,0.8,0.3c0.3,0.1,0.6,0.1,0.8,0.1c0.5,0,0.7-0.1,0.7-0.4c0-0.1,0-0.2-0.1-0.3c-0.1-0.1-0.2-0.1-0.3-0.2
		c-0.2-0.1-0.4-0.2-0.6-0.3c-0.4-0.2-0.6-0.3-0.8-0.4c-0.2-0.1-0.3-0.3-0.4-0.5c-0.1-0.2-0.1-0.4-0.1-0.6c0-0.4,0.2-0.8,0.5-1
		s0.8-0.4,1.4-0.4c0.6,0,1.1,0.1,1.7,0.4l-0.4,0.9c-0.2-0.1-0.5-0.2-0.7-0.3c-0.2-0.1-0.4-0.1-0.6-0.1c-0.4,0-0.6,0.1-0.6,0.3
		c0,0.1,0.1,0.2,0.2,0.3c0.1,0.1,0.4,0.2,0.8,0.4c0.4,0.2,0.6,0.3,0.8,0.4s0.3,0.3,0.4,0.5S608.1,114.4,608.1,114.7z"/>
</g>
<g>
	<line class="st10" x1="307.9" y1="48.7" x2="307.9" y2="75.1"/>
	<polygon class="st4" points="305.5,67.5 310.3,67.5 307.9,76.3 	"/>
</g>
<g>
	<line class="st10" x1="426.3" y1="48.7" x2="426.3" y2="75.1"/>
	<polygon class="st4" points="423.9,67.5 428.7,67.5 426.3,76.3 	"/>
</g>
<g>
	<line class="st10" x1="579.1" y1="48.7" x2="579.1" y2="75.1"/>
	<polygon class="st4" points="576.7,67.5 581.5,67.5 579.1,76.3 	"/>
</g>
</svg>
