<?xml version="1.0" encoding="utf-8"?>
<!-- Generator: Adobe Illustrator 23.0.3, SVG Export Plug-In . SVG Version: 6.00 Build 0)  -->
<svg version="1.1" id="Layer_1" xmlns="http://www.w3.org/2000/svg" xmlns:xlink="http://www.w3.org/1999/xlink" x="0px" y="0px"
	 viewBox="0 0 919.9 318.9" style="enable-background:new 0 0 919.9 318.9;" xml:space="preserve">
<style type="text/css">
	.st0{fill:#CF6B3E;}
	.st1{fill:#F58553;}
	.st2{fill:#2A5CA8;}
	.st3{fill:#FFFFFF;}
	.st4{fill:#555554;}
	.st5{fill:#E8E7E7;}
	.st6{fill:none;stroke:#555554;stroke-miterlimit:10;}
	.st7{fill:#FFFFFF;stroke:#B0B0B0;stroke-miterlimit:10;}
</style>
<path class="st0" d="M595.2,63.8H423.7c-1.6,0-2.8-1.3-2.8-2.8V22c0-1.6,1.3-2.8,2.8-2.8h171.5c1.6,0,2.8,1.3,2.8,2.8v39
	C598,62.6,596.7,63.8,595.2,63.8z"/>
<path class="st1" d="M366.7,63.8h-95.5c-1.6,0-2.8-1.3-2.8-2.8V22c0-1.6,1.3-2.8,2.8-2.8h95.5c1.6,0,2.8,1.3,2.8,2.8v39
	C369.6,62.6,368.3,63.8,366.7,63.8z"/>
<path class="st2" d="M207.2,63.8h-75.5c-1.6,0-2.8-1.3-2.8-2.8V22c0-1.6,1.3-2.8,2.8-2.8h75.5c1.6,0,2.8,1.3,2.8,2.8v39
	C210,62.6,208.7,63.8,207.2,63.8z"/>
<g>
	<path class="st3" d="M154.9,46l-0.7-2.2h-3.4l-0.7,2.2H148l3.3-9.3h2.4L157,46H154.9z M153.7,42.1c-0.6-2-1-3.1-1.1-3.4
		c-0.1-0.3-0.1-0.5-0.2-0.6c-0.1,0.5-0.5,1.9-1.2,4H153.7z"/>
	<path class="st3" d="M163,43.9c0,0.7-0.3,1.3-0.8,1.7s-1.3,0.6-2.3,0.6c-0.5,0-1,0-1.3-0.1c-0.4-0.1-0.7-0.2-1-0.3v-1.6
		c0.4,0.2,0.8,0.3,1.2,0.4c0.5,0.1,0.8,0.2,1.2,0.2c0.7,0,1.1-0.2,1.1-0.6c0-0.2,0-0.3-0.1-0.4c-0.1-0.1-0.3-0.2-0.5-0.3
		s-0.5-0.3-0.9-0.4c-0.5-0.2-0.9-0.4-1.2-0.6c-0.3-0.2-0.4-0.4-0.6-0.7c-0.1-0.3-0.2-0.6-0.2-0.9c0-0.6,0.2-1.1,0.7-1.5
		c0.5-0.3,1.2-0.5,2.1-0.5s1.7,0.2,2.5,0.6l-0.6,1.2c-0.4-0.2-0.7-0.3-1-0.4s-0.6-0.1-0.9-0.1c-0.6,0-0.9,0.2-0.9,0.5
		c0,0.2,0.1,0.3,0.3,0.5c0.2,0.1,0.6,0.3,1.2,0.6c0.6,0.2,1,0.4,1.2,0.6c0.2,0.2,0.4,0.4,0.6,0.7S163,43.5,163,43.9z"/>
	<path class="st3" d="M169.4,43.9c0,0.7-0.3,1.3-0.8,1.7s-1.3,0.6-2.3,0.6c-0.5,0-1,0-1.3-0.1c-0.4-0.1-0.7-0.2-1-0.3v-1.6
		c0.4,0.2,0.8,0.3,1.2,0.4c0.5,0.1,0.8,0.2,1.2,0.2c0.7,0,1.1-0.2,1.1-0.6c0-0.2,0-0.3-0.1-0.4s-0.3-0.2-0.5-0.3s-0.5-0.3-0.9-0.4
		c-0.5-0.2-0.9-0.4-1.2-0.6s-0.4-0.4-0.6-0.7c-0.1-0.3-0.2-0.6-0.2-0.9c0-0.6,0.2-1.1,0.7-1.5c0.5-0.3,1.2-0.5,2.1-0.5
		s1.7,0.2,2.5,0.6l-0.6,1.4c-0.4-0.2-0.7-0.3-1-0.4c-0.3-0.1-0.6-0.1-0.9-0.1c-0.6,0-0.9,0.2-0.9,0.5c0,0.2,0.1,0.3,0.3,0.5
		c0.2,0.1,0.6,0.3,1.2,0.6c0.6,0.2,1,0.4,1.2,0.6c0.2,0.2,0.4,0.4,0.6,0.7C169.4,43.6,169.4,43.5,169.4,43.9z"/>
	<path class="st3" d="M174.1,46.1c-1.1,0-2-0.3-2.7-0.9c-0.7-0.6-1-1.5-1-2.7s0.3-2.1,0.9-2.8c0.6-0.6,1.4-1,2.5-1
		c1,0,1.8,0.3,2.3,0.9s0.8,1.4,0.8,2.4v0.9h-4.6c0,0.6,0.2,1,0.5,1.3s0.7,0.5,1.3,0.5c0.4,0,0.8,0,1.2-0.1s0.8-0.2,1.2-0.4v1.5
		c-0.3,0.2-0.7,0.3-1.1,0.4C175.2,46.1,174.7,46.1,174.1,46.1z M173.9,40.1c-0.4,0-0.7,0.1-1,0.4c-0.2,0.3-0.4,0.6-0.4,1.1h2.7
		c0-0.5-0.1-0.8-0.4-1.1C174.6,40.3,174.3,40.1,173.9,40.1z"/>
	<path class="st3" d="M181.6,44.6c0.3,0,0.7-0.1,1.2-0.2v1.4c-0.5,0.2-1.1,0.3-1.8,0.3c-0.8,0-1.3-0.2-1.7-0.6s-0.5-1-0.5-1.8v-3.4
		h-0.9v-0.8l1.1-0.6l0.6-1.5h1.2v1.5h2v1.5h-2v3.4c0,0.3,0.1,0.5,0.2,0.6C181.1,44.5,181.3,44.6,181.6,44.6z"/>
	<path class="st3" d="M189.2,43.9c0,0.7-0.3,1.3-0.8,1.7s-1.3,0.6-2.3,0.6c-0.5,0-1,0-1.3-0.1c-0.4-0.1-0.7-0.2-1-0.3v-1.6
		c0.4,0.2,0.8,0.3,1.2,0.4c0.5,0.1,0.8,0.2,1.2,0.2c0.7,0,1.1-0.2,1.1-0.6c0-0.2,0-0.3-0.1-0.4s-0.3-0.2-0.5-0.3s-0.5-0.3-0.9-0.4
		c-0.5-0.2-0.9-0.4-1.2-0.6s-0.4-0.4-0.6-0.7c-0.1-0.3-0.2-0.6-0.2-0.9c0-0.6,0.2-1.1,0.7-1.5c0.5-0.3,1.2-0.5,2.1-0.5
		s1.7,0.2,2.5,0.6l-0.6,1.4c-0.4-0.2-0.7-0.3-1-0.4c-0.3-0.1-0.6-0.1-0.9-0.1c-0.6,0-0.9,0.2-0.9,0.5c0,0.2,0.1,0.3,0.3,0.5
		c0.2,0.1,0.6,0.3,1.2,0.6c0.6,0.2,1,0.4,1.2,0.6c0.2,0.2,0.4,0.4,0.6,0.7S189.2,43.5,189.2,43.9z"/>
</g>
<g>
	<path class="st3" d="M288.6,46v-9.3h2v7.7h3.8V46C294.4,46,288.6,46,288.6,46z"/>
	<path class="st3" d="M295.7,37.1c0-0.6,0.4-0.9,1.1-0.9s1.1,0.3,1.1,0.9c0,0.3-0.1,0.5-0.3,0.7c-0.2,0.2-0.4,0.3-0.8,0.3
		C296.1,38,295.7,37.7,295.7,37.1z M297.8,46h-1.9v-7.1h1.9V46z"/>
	<path class="st3" d="M304.3,46l-0.4-1h-0.1c-0.3,0.4-0.7,0.7-1,0.9s-0.8,0.2-1.3,0.2c-0.7,0-1.2-0.2-1.6-0.6
		c-0.4-0.4-0.6-0.9-0.6-1.7s0.3-1.3,0.8-1.7s1.3-0.6,2.4-0.6h1.2v-0.3c0-0.7-0.4-1.1-1.1-1.1c-0.6,0-1.2,0.2-2,0.5l-0.6-1.3
		c0.8-0.4,1.7-0.6,2.7-0.6s1.7,0.2,2.2,0.6s0.8,1,0.8,1.9V46H304.3z M303.7,42.7H303c-0.6,0-1,0.1-1.3,0.3s-0.4,0.5-0.4,0.9
		c0,0.5,0.3,0.8,0.9,0.8c0.4,0,0.8-0.1,1.1-0.4s0.4-0.6,0.4-1V42.7z"/>
	<path class="st3" d="M311.6,38.8c0.8,0,1.5,0.3,2,1s0.7,1.5,0.7,2.7s-0.2,2.1-0.7,2.7s-1.2,1-2,1s-1.5-0.3-2-0.9h-0.1l-0.3,0.8
		h-1.5v-9.9h1.9v2.3c0,0.3,0,0.8-0.1,1.4h0.1C310,39.1,310.7,38.8,311.6,38.8z M311,40.3c-0.5,0-0.8,0.1-1,0.4
		c-0.2,0.3-0.3,0.8-0.3,1.5v0.2c0,0.8,0.1,1.3,0.3,1.6c0.2,0.3,0.6,0.5,1.1,0.5c0.4,0,0.7-0.2,0.9-0.5c0.2-0.4,0.4-0.9,0.4-1.6
		s-0.1-1.2-0.4-1.6C311.7,40.5,311.4,40.3,311,40.3z"/>
	<path class="st3" d="M315.8,37.1c0-0.6,0.4-0.9,1.1-0.9s1.1,0.3,1.1,0.9c0,0.3-0.1,0.5-0.3,0.7c-0.2,0.2-0.4,0.3-0.8,0.3
		C316.1,38,315.8,37.7,315.8,37.1z M317.8,46h-1.9v-7.1h1.9V46z"/>
	<path class="st3" d="M321.8,46h-1.9v-9.9h1.9V46z"/>
	<path class="st3" d="M323.7,37.1c0-0.6,0.4-0.9,1.1-0.9s1.1,0.3,1.1,0.9c0,0.3-0.1,0.5-0.3,0.7c-0.2,0.2-0.4,0.3-0.8,0.3
		C324.1,38,323.7,37.7,323.7,37.1z M325.7,46h-1.9v-7.1h1.9V46z"/>
	<path class="st3" d="M330.8,44.6c0.3,0,0.7-0.1,1.2-0.2v1.4c-0.5,0.2-1.1,0.3-1.8,0.3c-0.8,0-1.3-0.2-1.7-0.6
		c-0.4-0.4-0.5-1-0.5-1.8v-3.4h-0.9v-0.8l1.1-0.6l0.6-1.5h1.2v1.5h2v1.5h-2v3.4c0,0.3,0.1,0.5,0.2,0.6
		C330.3,44.5,330.5,44.6,330.8,44.6z"/>
	<path class="st3" d="M333.3,37.1c0-0.6,0.4-0.9,1.1-0.9s1.1,0.3,1.1,0.9c0,0.3-0.1,0.5-0.3,0.7c-0.2,0.2-0.4,0.3-0.8,0.3
		C333.7,38,333.3,37.7,333.3,37.1z M335.3,46h-1.9v-7.1h1.9V46z"/>
	<path class="st3" d="M340.6,46.1c-1.1,0-2-0.3-2.7-0.9s-1-1.5-1-2.7s0.3-2.1,0.9-2.8c0.6-0.6,1.4-1,2.5-1c1,0,1.8,0.3,2.3,0.9
		s0.8,1.4,0.8,2.4v0.9h-4.6c0,0.6,0.2,1,0.5,1.3s0.7,0.5,1.3,0.5c0.4,0,0.8,0,1.2-0.1s0.8-0.2,1.2-0.4v1.5c-0.3,0.2-0.7,0.3-1.1,0.4
		C341.6,46.1,341.1,46.1,340.6,46.1z M340.3,40.1c-0.4,0-0.7,0.1-1,0.4c-0.2,0.3-0.4,0.6-0.4,1.1h2.7c0-0.5-0.1-0.8-0.4-1.1
		C341.1,40.3,340.7,40.1,340.3,40.1z"/>
	<path class="st3" d="M350,43.9c0,0.7-0.3,1.3-0.8,1.7s-1.3,0.6-2.3,0.6c-0.5,0-1,0-1.3-0.1c-0.4-0.1-0.7-0.2-1-0.3v-1.6
		c0.4,0.2,0.8,0.3,1.2,0.4c0.5,0.1,0.8,0.2,1.2,0.2c0.7,0,1.1-0.2,1.1-0.6c0-0.2,0-0.3-0.1-0.4s-0.3-0.2-0.5-0.3s-0.5-0.3-0.9-0.4
		c-0.5-0.2-0.9-0.4-1.2-0.6c-0.3-0.2-0.4-0.4-0.6-0.7c-0.1-0.3-0.2-0.6-0.2-0.9c0-0.6,0.2-1.1,0.7-1.5c0.5-0.3,1.2-0.5,2.1-0.5
		s1.7,0.2,2.5,0.6l-0.6,1.4c-0.4-0.2-0.7-0.3-1-0.4c-0.3-0.1-0.6-0.1-0.9-0.1c-0.6,0-0.9,0.2-0.9,0.5c0,0.2,0.1,0.3,0.3,0.5
		c0.2,0.1,0.6,0.3,1.2,0.6c0.6,0.2,1,0.4,1.2,0.6s0.4,0.4,0.6,0.7S350,43.5,350,43.9z"/>
</g>
<g>
	<path class="st3" d="M450.7,43.4c0,0.8-0.3,1.5-0.9,2s-1.4,0.7-2.5,0.7c-1,0-1.9-0.2-2.6-0.6v-1.8c0.6,0.3,1.2,0.5,1.6,0.6
		s0.8,0.2,1.2,0.2s0.8-0.1,1-0.2s0.3-0.4,0.3-0.7c0-0.2-0.1-0.3-0.2-0.5c-0.1-0.1-0.3-0.3-0.4-0.4c-0.2-0.1-0.6-0.3-1.2-0.6
		c-0.6-0.3-1-0.5-1.3-0.8c-0.3-0.2-0.5-0.5-0.7-0.9c-0.2-0.3-0.3-0.7-0.3-1.1c0-0.8,0.3-1.5,0.8-1.9s1.3-0.7,2.3-0.7
		c0.5,0,0.9,0.1,1.4,0.2c0.4,0.1,0.9,0.3,1.4,0.5l-0.6,1.5c-0.5-0.2-0.9-0.3-1.2-0.4s-0.6-0.1-1-0.1s-0.7,0.1-0.9,0.3
		s-0.3,0.4-0.3,0.7c0,0.2,0,0.3,0.1,0.5c0.1,0.1,0.2,0.3,0.4,0.4c0.2,0.1,0.6,0.3,1.2,0.7c0.9,0.4,1.5,0.8,1.8,1.2
		C450.5,42.3,450.7,42.8,450.7,43.4z"/>
	<path class="st3" d="M455.2,44.6c0.3,0,0.7-0.1,1.2-0.2v1.4c-0.5,0.2-1.1,0.3-1.8,0.3c-0.8,0-1.3-0.2-1.7-0.6
		c-0.4-0.4-0.5-1-0.5-1.8v-3.4h-0.9v-0.8l1.1-0.6l0.6-1.5h1.2v1.5h2v1.5h-2v3.4c0,0.3,0.1,0.5,0.2,0.6S454.9,44.6,455.2,44.6z"/>
	<path class="st3" d="M464.3,42.4c0,1.2-0.3,2.1-0.9,2.7c-0.6,0.6-1.5,1-2.5,1c-0.7,0-1.3-0.1-1.8-0.4s-0.9-0.7-1.2-1.3
		s-0.4-1.2-0.4-2c0-1.2,0.3-2.1,0.9-2.7c0.6-0.6,1.5-1,2.6-1c0.7,0,1.3,0.1,1.8,0.4s0.9,0.7,1.2,1.3S464.3,41.7,464.3,42.4z
		 M459.4,42.4c0,0.7,0.1,1.2,0.3,1.6c0.2,0.4,0.6,0.5,1.1,0.5s0.9-0.2,1.1-0.5c0.2-0.4,0.3-0.9,0.3-1.6s-0.1-1.2-0.3-1.6
		c-0.2-0.4-0.6-0.5-1.1-0.5s-0.9,0.2-1.1,0.5C459.5,41.2,459.4,41.7,459.4,42.4z"/>
	<path class="st3" d="M468.8,46.1c-2.2,0-3.3-1.2-3.3-3.6c0-1.2,0.3-2.1,0.9-2.8c0.6-0.6,1.5-1,2.6-1c0.8,0,1.6,0.2,2.2,0.5
		l-0.6,1.5c-0.3-0.1-0.6-0.2-0.9-0.3c-0.3-0.1-0.5-0.1-0.8-0.1c-1,0-1.5,0.7-1.5,2.1s0.5,2.1,1.5,2.1c0.4,0,0.7,0,1-0.1
		s0.6-0.3,1-0.5v1.7c-0.3,0.2-0.6,0.3-0.9,0.4C469.7,46.1,469.3,46.1,468.8,46.1z"/>
	<path class="st3" d="M474.4,42.1l0.9-1.1l2-2.2h2.2l-2.8,3.1l3,4h-2.2l-2-2.9l-0.8,0.7V46h-1.9v-9.9h1.9v4.4L474.4,42.1L474.4,42.1
		z"/>
	<path class="st3" d="M487.2,46h-1.9v-4.1c0-1-0.4-1.5-1.1-1.5c-0.5,0-0.9,0.2-1.2,0.6c-0.3,0.4-0.4,1-0.4,1.8V46h-1.9v-9.9h1.9v2
		c0,0.2,0,0.5,0,1.1v0.6h0.1c0.4-0.7,1.1-1,2.1-1c0.8,0,1.5,0.2,1.9,0.7s0.6,1.1,0.6,1.9L487.2,46C487.3,46,487.2,46,487.2,46z"/>
	<path class="st3" d="M495.6,42.4c0,1.2-0.3,2.1-0.9,2.7c-0.6,0.6-1.5,1-2.5,1c-0.7,0-1.3-0.1-1.8-0.4s-0.9-0.7-1.2-1.3
		s-0.4-1.2-0.4-2c0-1.2,0.3-2.1,0.9-2.7c0.6-0.6,1.5-1,2.6-1c0.7,0,1.3,0.1,1.8,0.4s0.9,0.7,1.2,1.3S495.6,41.7,495.6,42.4z
		 M490.7,42.4c0,0.7,0.1,1.2,0.3,1.6c0.2,0.4,0.6,0.5,1.1,0.5s0.9-0.2,1.1-0.5c0.2-0.4,0.3-0.9,0.3-1.6s-0.1-1.2-0.3-1.6
		c-0.2-0.4-0.6-0.5-1.1-0.5s-0.9,0.2-1.1,0.5C490.8,41.2,490.7,41.7,490.7,42.4z"/>
	<path class="st3" d="M499.2,46h-1.9v-9.9h1.9V46z"/>
	<path class="st3" d="M503.4,46.1c-0.8,0-1.5-0.3-2-1c-0.5-0.6-0.7-1.5-0.7-2.7s0.2-2.1,0.7-2.7s1.2-1,2-1c0.9,0,1.6,0.3,2,1h0.1
		c-0.1-0.5-0.1-1-0.1-1.4V36h1.9v10h-1.5l-0.4-0.9h-0.1C505,45.8,504.3,46.1,503.4,46.1z M504.1,44.6c0.5,0,0.9-0.1,1.1-0.4
		c0.2-0.3,0.4-0.8,0.4-1.5v-0.2c0-0.8-0.1-1.3-0.4-1.6c-0.2-0.3-0.6-0.5-1.1-0.5c-0.4,0-0.8,0.2-1,0.5c-0.2,0.4-0.4,0.9-0.4,1.6
		s0.1,1.2,0.4,1.6C503.3,44.4,503.7,44.6,504.1,44.6z"/>
	<path class="st3" d="M512.6,46.1c-1.1,0-2-0.3-2.7-0.9c-0.6-0.6-1-1.5-1-2.7s0.3-2.1,0.9-2.8c0.6-0.6,1.4-1,2.5-1
		c1,0,1.8,0.3,2.3,0.9s0.8,1.4,0.8,2.4v0.9h-4.6c0,0.6,0.2,1,0.5,1.3s0.7,0.5,1.3,0.5c0.4,0,0.8,0,1.2-0.1s0.8-0.2,1.2-0.4v1.5
		c-0.3,0.2-0.7,0.3-1.1,0.4C513.7,46.1,513.2,46.1,512.6,46.1z M512.4,40.1c-0.4,0-0.7,0.1-1,0.4c-0.2,0.3-0.4,0.6-0.4,1.1h2.7
		c0-0.5-0.1-0.8-0.4-1.1C513.1,40.3,512.8,40.1,512.4,40.1z"/>
	<path class="st3" d="M521.1,38.8c0.3,0,0.5,0,0.7,0.1l-0.1,1.8c-0.2,0-0.3-0.1-0.6-0.1c-0.6,0-1.1,0.2-1.4,0.5
		c-0.3,0.3-0.5,0.8-0.5,1.3V46h-1.9v-7.1h1.5l0.3,1.2h0.1c0.2-0.4,0.5-0.7,0.9-1C520.2,38.9,520.6,38.8,521.1,38.8z"/>
	<path class="st3" d="M524.6,36.7L524.6,36.7c-0.1,0.9-0.5,1.9-1,3.1h-1.4c0.3-1.3,0.5-2.3,0.6-3.2L524.6,36.7L524.6,36.7z"/>
	<path class="st3" d="M530.8,43.9c0,0.7-0.3,1.3-0.8,1.7s-1.3,0.6-2.3,0.6c-0.5,0-1,0-1.3-0.1c-0.4-0.1-0.7-0.2-1-0.3v-1.6
		c0.4,0.2,0.8,0.3,1.2,0.4c0.5,0.1,0.8,0.2,1.2,0.2c0.7,0,1.1-0.2,1.1-0.6c0-0.2,0-0.3-0.1-0.4s-0.3-0.2-0.5-0.3s-0.5-0.3-0.9-0.4
		c-0.5-0.2-0.9-0.4-1.2-0.6c-0.3-0.2-0.4-0.4-0.6-0.7c-0.1-0.3-0.2-0.6-0.2-0.9c0-0.6,0.2-1.1,0.7-1.5c0.5-0.3,1.2-0.5,2.1-0.5
		c0.9,0,1.7,0.2,2.5,0.6l-0.6,1.4c-0.4-0.2-0.7-0.3-1-0.4s-0.6-0.1-0.9-0.1c-0.6,0-0.9,0.2-0.9,0.5c0,0.2,0.1,0.3,0.3,0.5
		c0.2,0.1,0.6,0.3,1.2,0.6c0.6,0.2,1,0.4,1.2,0.6c0.3,0.2,0.4,0.4,0.6,0.7C530.7,43.2,530.8,43.5,530.8,43.9z"/>
	<path class="st3" d="M541.2,46h-5.3v-9.3h5.3v1.6h-3.4v2h3.1V42h-3.1v2.4h3.4V46z"/>
	<path class="st3" d="M545.2,46.1c-0.8,0-1.5-0.3-2-1c-0.5-0.6-0.7-1.5-0.7-2.7s0.2-2.1,0.7-2.7s1.1-1,2-1c0.4,0,0.8,0.1,1.2,0.3
		c0.3,0.2,0.6,0.4,0.9,0.8h0.1l0.2-0.9h1.6v10.2h-1.9v-3c0-0.3,0-0.6,0.1-1.1h-0.1c-0.2,0.3-0.5,0.6-0.8,0.8S545.6,46.1,545.2,46.1z
		 M545.9,44.6c0.5,0,0.9-0.1,1.1-0.4s0.4-0.8,0.4-1.5v-0.2c0-0.8-0.1-1.3-0.4-1.6c-0.2-0.3-0.6-0.5-1.1-0.5c-0.9,0-1.4,0.7-1.4,2.1
		c0,0.7,0.1,1.2,0.3,1.6S545.4,44.6,545.9,44.6z"/>
	<path class="st3" d="M556.2,46l-0.3-0.9h-0.1c-0.2,0.3-0.5,0.6-0.9,0.8s-0.8,0.3-1.3,0.3c-0.8,0-1.5-0.2-1.9-0.7
		c-0.4-0.4-0.6-1.1-0.6-1.9V39h1.9v4c0,0.5,0.1,0.9,0.3,1.2s0.5,0.4,0.9,0.4c0.5,0,0.9-0.2,1.2-0.5c0.2-0.4,0.4-1,0.4-1.8V39h1.9v7
		H556.2z"/>
	<path class="st3" d="M559.6,37.1c0-0.6,0.4-0.9,1.1-0.9c0.7,0,1.1,0.3,1.1,0.9c0,0.3-0.1,0.5-0.3,0.7s-0.4,0.3-0.8,0.3
		C560,38,559.6,37.7,559.6,37.1z M561.6,46h-1.9v-7.1h1.9V46z"/>
	<path class="st3" d="M566.7,44.6c0.3,0,0.7-0.1,1.2-0.2v1.4c-0.5,0.2-1.1,0.3-1.8,0.3c-0.8,0-1.3-0.2-1.7-0.6
		c-0.4-0.4-0.5-1-0.5-1.8v-3.4H563v-0.8l1.1-0.6l0.6-1.5h1.2v1.5h2v1.5h-2v3.4c0,0.3,0.1,0.5,0.2,0.6S566.4,44.6,566.7,44.6z"/>
	<path class="st3" d="M568.3,38.9h2.1l1.3,4c0.1,0.3,0.2,0.8,0.2,1.2l0,0c0-0.4,0.1-0.8,0.3-1.2l1.3-4h2.1l-3,8
		c-0.3,0.7-0.7,1.3-1.2,1.7s-1.1,0.6-1.8,0.6c-0.3,0-0.7,0-1-0.1v-1.5c0.2,0.1,0.5,0.1,0.8,0.1s0.6-0.1,0.9-0.3
		c0.3-0.2,0.5-0.5,0.6-0.9l0.1-0.3L568.3,38.9z"/>
</g>
<g>
	<path class="st4" d="M391.6,43.7h-5.7v-3.2h5.7v-5.7h3.2v5.7h5.7v3.2h-5.7v5.6h-3.2V43.7z"/>
</g>
<g>
	<path class="st4" d="M229.9,40.9v-3.2h14.5v3.2H229.9z M229.9,46.5v-3.2h14.5v3.2H229.9z"/>
</g>
<path class="st5" d="M499.9,138.9c0,19.3-14.5,35-49.6,35s-46.6-15.7-46.6-35s11.5-35,46.6-35S499.9,119.6,499.9,138.9z"/>
<g>
	<path class="st4" d="M431.6,129.4c-0.6,0-1.1,0.2-1.5,0.7c-0.3,0.5-0.5,1.1-0.5,2c0,1.8,0.7,2.6,2,2.6c0.6,0,1.2-0.1,2-0.4v1.4
		c-0.6,0.3-1.4,0.4-2.2,0.4c-1.1,0-2-0.3-2.6-1s-0.9-1.7-0.9-3c0-0.8,0.1-1.5,0.4-2.1c0.3-0.6,0.7-1.1,1.3-1.4
		c0.6-0.3,1.2-0.5,2-0.5s1.5,0.2,2.3,0.6l-0.5,1.4c-0.3-0.1-0.6-0.3-0.9-0.4C432.2,129.5,431.9,129.4,431.6,129.4z"/>
	<path class="st4" d="M440.6,133c0,1-0.3,1.7-0.8,2.3s-1.2,0.8-2.2,0.8c-0.6,0-1.1-0.1-1.5-0.4c-0.4-0.3-0.8-0.6-1-1.1
		s-0.4-1-0.4-1.7c0-1,0.3-1.7,0.8-2.3c0.5-0.5,1.2-0.8,2.2-0.8c0.6,0,1.1,0.1,1.5,0.4c0.4,0.3,0.8,0.6,1,1.1S440.6,132.3,440.6,133z
		 M436.5,133c0,0.6,0.1,1,0.3,1.3s0.5,0.5,1,0.5c0.4,0,0.8-0.2,0.9-0.5c0.2-0.3,0.3-0.8,0.3-1.4c0-0.6-0.1-1-0.3-1.3s-0.5-0.4-1-0.4
		c-0.4,0-0.8,0.1-0.9,0.4C436.6,131.9,436.5,132.4,436.5,133z"/>
	<path class="st4" d="M447.3,136h-1.6v-3.5c0-0.4-0.1-0.8-0.2-1c-0.1-0.2-0.4-0.3-0.7-0.3c-0.4,0-0.7,0.2-0.9,0.5s-0.3,0.8-0.3,1.5
		v2.8H442v-6h1.3l0.2,0.8h0.1c0.2-0.3,0.4-0.5,0.7-0.6c0.3-0.2,0.7-0.2,1-0.2c0.9,0,1.5,0.3,1.8,0.9h0.1c0.2-0.3,0.4-0.5,0.7-0.6
		c0.3-0.2,0.7-0.2,1.1-0.2c0.7,0,1.2,0.2,1.5,0.5s0.5,0.9,0.5,1.7v3.9h-1.6v-3.5c0-0.4-0.1-0.8-0.2-1c-0.1-0.2-0.4-0.3-0.7-0.3
		c-0.4,0-0.7,0.1-0.9,0.4c-0.2,0.3-0.3,0.7-0.3,1.4L447.3,136L447.3,136z"/>
	<path class="st4" d="M458.1,136h-1.6v-3.5c0-0.4-0.1-0.8-0.2-1c-0.1-0.2-0.4-0.3-0.7-0.3c-0.4,0-0.7,0.2-0.9,0.5s-0.3,0.8-0.3,1.5
		v2.8h-1.6v-6h1.3l0.2,0.8h0.1c0.2-0.3,0.4-0.5,0.7-0.6c0.3-0.2,0.7-0.2,1-0.2c0.9,0,1.5,0.3,1.8,0.9h0.1c0.2-0.3,0.4-0.5,0.7-0.6
		s0.7-0.2,1.1-0.2c0.7,0,1.2,0.2,1.5,0.5s0.5,0.9,0.5,1.7v3.9h-1.6v-3.5c0-0.4-0.1-0.8-0.2-1c-0.1-0.2-0.4-0.3-0.7-0.3
		c-0.4,0-0.7,0.1-0.9,0.4c-0.2,0.3-0.3,0.7-0.3,1.4L458.1,136L458.1,136z"/>
	<path class="st4" d="M469,133c0,1-0.3,1.7-0.8,2.3s-1.2,0.8-2.2,0.8c-0.6,0-1.1-0.1-1.5-0.4c-0.4-0.3-0.8-0.6-1-1.1s-0.4-1-0.4-1.7
		c0-1,0.3-1.7,0.8-2.3c0.5-0.5,1.2-0.8,2.2-0.8c0.6,0,1.1,0.1,1.5,0.4c0.4,0.3,0.8,0.6,1,1.1S469,132.3,469,133z M464.9,133
		c0,0.6,0.1,1,0.3,1.3s0.5,0.5,1,0.5c0.4,0,0.8-0.2,0.9-0.5c0.2-0.3,0.3-0.8,0.3-1.4c0-0.6-0.1-1-0.3-1.3s-0.5-0.4-1-0.4
		c-0.4,0-0.8,0.1-0.9,0.4C465,131.9,464.9,132.4,464.9,133z"/>
	<path class="st4" d="M475.9,136h-1.6v-3.5c0-0.4-0.1-0.8-0.2-1c-0.2-0.2-0.4-0.3-0.7-0.3c-0.5,0-0.8,0.2-1,0.5s-0.3,0.8-0.3,1.5
		v2.8h-1.6v-6h1.3l0.2,0.8h0.1c0.2-0.3,0.4-0.5,0.8-0.7c0.3-0.1,0.7-0.2,1.1-0.2c0.7,0,1.2,0.2,1.6,0.6c0.4,0.4,0.5,0.9,0.5,1.6v3.9
		L475.9,136L475.9,136z"/>
	<path class="st4" d="M442.6,147c0,0.7-0.3,1.3-0.8,1.7s-1.2,0.6-2.1,0.6c-0.8,0-1.6-0.2-2.2-0.5v-1.5c0.5,0.2,1,0.4,1.3,0.5
		c0.4,0.1,0.7,0.1,1,0.1c0.4,0,0.6-0.1,0.8-0.2c0.2-0.1,0.3-0.3,0.3-0.6c0-0.2,0-0.3-0.1-0.4c-0.1-0.1-0.2-0.2-0.4-0.3
		s-0.5-0.3-1-0.5s-0.8-0.4-1.1-0.6c-0.2-0.2-0.4-0.4-0.6-0.7c-0.1-0.3-0.2-0.6-0.2-1c0-0.7,0.2-1.2,0.7-1.6c0.5-0.4,1.1-0.6,2-0.6
		c0.4,0,0.8,0,1.2,0.1s0.8,0.2,1.2,0.4l-0.5,1.3c-0.4-0.2-0.8-0.3-1-0.4c-0.3-0.1-0.5-0.1-0.8-0.1s-0.6,0.1-0.7,0.2
		c-0.2,0.1-0.3,0.3-0.3,0.6c0,0.1,0,0.3,0.1,0.4c0.1,0.1,0.2,0.2,0.3,0.3s0.5,0.3,1.1,0.6c0.7,0.4,1.2,0.7,1.5,1.1
		C442.4,146.1,442.6,146.5,442.6,147z"/>
	<path class="st4" d="M446.4,148c0.3,0,0.6-0.1,1-0.2v1.2c-0.4,0.2-0.9,0.3-1.5,0.3c-0.7,0-1.1-0.2-1.4-0.5s-0.4-0.8-0.4-1.5v-2.9
		h-0.8v-0.7l0.9-0.5l0.5-1.3h1v1.3h1.7v1.2h-1.7v2.9c0,0.2,0.1,0.4,0.2,0.5C446,147.9,446.2,148,446.4,148z"/>
	<path class="st4" d="M454.1,146.2c0,1-0.3,1.7-0.8,2.3s-1.2,0.8-2.2,0.8c-0.6,0-1.1-0.1-1.5-0.4c-0.4-0.3-0.8-0.6-1-1.1
		s-0.4-1-0.4-1.7c0-1,0.3-1.7,0.8-2.3c0.5-0.5,1.2-0.8,2.2-0.8c0.6,0,1.1,0.1,1.5,0.4c0.4,0.3,0.8,0.6,1,1.1
		S454.1,145.5,454.1,146.2z M450,146.2c0,0.6,0.1,1,0.3,1.3s0.5,0.5,1,0.5c0.4,0,0.8-0.2,0.9-0.5c0.2-0.3,0.3-0.8,0.3-1.4
		c0-0.6-0.1-1-0.3-1.3s-0.5-0.4-1-0.4c-0.4,0-0.8,0.1-0.9,0.4C450.1,145.1,450,145.6,450,146.2z"/>
	<path class="st4" d="M457.9,149.3c-1.9,0-2.8-1-2.8-3.1c0-1,0.3-1.8,0.8-2.3s1.2-0.8,2.2-0.8c0.7,0,1.3,0.1,1.9,0.4l-0.5,1.3
		c-0.3-0.1-0.5-0.2-0.7-0.3s-0.4-0.1-0.7-0.1c-0.9,0-1.3,0.6-1.3,1.8s0.4,1.8,1.3,1.8c0.3,0,0.6,0,0.9-0.1c0.3-0.1,0.5-0.2,0.8-0.4
		v1.4c-0.3,0.2-0.5,0.3-0.8,0.3C458.7,149.2,458.3,149.3,457.9,149.3z"/>
	<path class="st4" d="M462.7,145.9l0.7-0.9l1.7-1.8h1.8l-2.4,2.6l2.5,3.4h-1.9l-1.7-2.4l-0.7,0.6v1.9h-1.6v-8.4h1.6v3.7L462.7,145.9
		L462.7,145.9z"/>
</g>
<g>
	<line class="st6" x1="569.8" y1="64.9" x2="569.8" y2="97.9"/>
	<polygon class="st4" points="566.8,88.4 572.8,88.4 569.8,99.4 	"/>
</g>
<g>
	<line class="st6" x1="450.8" y1="64.9" x2="450.8" y2="97.9"/>
	<polygon class="st4" points="447.8,88.4 453.8,88.4 450.8,99.4 	"/>
</g>
<path class="st5" d="M618.9,138.9c0,19.3-14.5,35-49.6,35s-46.6-15.7-46.6-35s11.5-35,46.6-35S618.9,119.6,618.9,138.9z"/>
<g>
	<path class="st4" d="M549.1,133v3h-1.7v-7.9h2.3c1.1,0,1.9,0.2,2.4,0.6c0.5,0.4,0.8,1,0.8,1.8c0,0.5-0.1,0.9-0.4,1.2
		c-0.3,0.4-0.6,0.6-1.1,0.8c1.2,1.8,2,2.9,2.3,3.4h-1.8l-1.9-3L549.1,133L549.1,133z M549.1,131.6h0.5c0.5,0,0.9-0.1,1.2-0.3
		s0.4-0.5,0.4-0.8c0-0.4-0.1-0.6-0.4-0.8s-0.7-0.2-1.2-0.2h-0.5V131.6z"/>
	<path class="st4" d="M557.2,136.1c-1,0-1.7-0.3-2.3-0.8c-0.5-0.5-0.8-1.3-0.8-2.3s0.3-1.8,0.8-2.3s1.2-0.8,2.1-0.8
		c0.8,0,1.5,0.2,2,0.7s0.7,1.2,0.7,2v0.8h-3.9c0,0.5,0.2,0.8,0.4,1.1s0.6,0.4,1.1,0.4c0.4,0,0.7,0,1-0.1s0.7-0.2,1-0.4v1.3
		c-0.3,0.1-0.6,0.2-0.9,0.3C558.1,136.1,557.7,136.1,557.2,136.1z M557,131c-0.3,0-0.6,0.1-0.8,0.3s-0.3,0.5-0.3,0.9h2.3
		c0-0.4-0.1-0.7-0.3-0.9C557.6,131.1,557.4,131,557,131z"/>
	<path class="st4" d="M563.6,134.8c0.3,0,0.6-0.1,1-0.2v1.2c-0.4,0.2-0.9,0.3-1.5,0.3c-0.7,0-1.1-0.2-1.4-0.5
		c-0.3-0.3-0.4-0.8-0.4-1.5v-2.9h-0.8v-0.7l0.9-0.5l0.5-1.3h1v1.3h1.7v1.2h-1.7v2.9c0,0.2,0.1,0.4,0.2,0.5
		C563.2,134.7,563.3,134.8,563.6,134.8z"/>
	<path class="st4" d="M569.6,136l-0.3-0.8l0,0c-0.3,0.3-0.6,0.6-0.9,0.7c-0.3,0.1-0.7,0.2-1.1,0.2c-0.6,0-1-0.2-1.4-0.5
		s-0.5-0.8-0.5-1.4c0-0.6,0.2-1.1,0.7-1.4c0.4-0.3,1.1-0.5,2-0.5h1V132c0-0.6-0.3-0.9-0.9-0.9c-0.5,0-1,0.1-1.7,0.4l-0.5-1.1
		c0.7-0.4,1.5-0.5,2.3-0.5s1.4,0.2,1.9,0.5s0.6,0.9,0.6,1.6v4H569.6z M569.1,133.2h-0.6c-0.5,0-0.8,0.1-1.1,0.3
		c-0.2,0.2-0.3,0.4-0.3,0.7c0,0.5,0.3,0.7,0.8,0.7c0.4,0,0.7-0.1,0.9-0.3s0.3-0.5,0.3-0.9L569.1,133.2L569.1,133.2z"/>
	<path class="st4" d="M572.4,128.4c0-0.5,0.3-0.8,0.9-0.8s0.9,0.3,0.9,0.8c0,0.3-0.1,0.5-0.2,0.6c-0.1,0.1-0.4,0.2-0.7,0.2
		C572.7,129.2,572.4,129,572.4,128.4z M574.1,136h-1.6v-6h1.6V136z"/>
	<path class="st4" d="M581.3,136h-1.6v-3.5c0-0.4-0.1-0.8-0.2-1c-0.2-0.2-0.4-0.3-0.7-0.3c-0.5,0-0.8,0.2-1,0.5s-0.3,0.8-0.3,1.5
		v2.8h-1.6v-6h1.3l0.2,0.8h0.1c0.2-0.3,0.4-0.5,0.8-0.7c0.3-0.1,0.7-0.2,1.1-0.2c0.7,0,1.2,0.2,1.6,0.6c0.4,0.4,0.5,0.9,0.5,1.6v3.9
		L581.3,136L581.3,136z"/>
	<path class="st4" d="M585.8,136.1c-1,0-1.7-0.3-2.3-0.8c-0.5-0.5-0.8-1.3-0.8-2.3s0.3-1.8,0.8-2.3s1.2-0.8,2.1-0.8
		c0.8,0,1.5,0.2,2,0.7s0.7,1.2,0.7,2v0.8h-4c0,0.5,0.2,0.8,0.4,1.1s0.6,0.4,1.1,0.4c0.4,0,0.7,0,1-0.1s0.7-0.2,1-0.4v1.3
		c-0.3,0.1-0.6,0.2-0.9,0.3C586.6,136.1,586.2,136.1,585.8,136.1z M585.5,131c-0.3,0-0.6,0.1-0.8,0.3s-0.3,0.5-0.3,0.9h2.3
		c0-0.4-0.1-0.7-0.3-0.9C586.1,131.1,585.9,131,585.5,131z"/>
	<path class="st4" d="M591.4,136.1c-0.7,0-1.3-0.3-1.7-0.8s-0.6-1.3-0.6-2.3s0.2-1.8,0.6-2.3c0.4-0.5,1-0.8,1.7-0.8
		c0.8,0,1.3,0.3,1.7,0.9h0.1c-0.1-0.4-0.1-0.8-0.1-1.2v-1.9h1.6v8.4h-1.3l-0.3-0.8H593C592.8,135.8,592.2,136.1,591.4,136.1z
		 M592,134.8c0.4,0,0.7-0.1,0.9-0.4c0.2-0.3,0.3-0.7,0.3-1.2V133c0-0.6-0.1-1.1-0.3-1.4c-0.2-0.3-0.5-0.4-1-0.4
		c-0.4,0-0.6,0.2-0.9,0.5c-0.2,0.3-0.3,0.8-0.3,1.4s0.1,1,0.3,1.3C591.3,134.6,591.6,134.8,592,134.8z"/>
	<path class="st4" d="M552.9,149.2h-4.5v-7.9h4.5v1.4H550v1.7h2.7v1.4H550v2h2.9V149.2z"/>
	<path class="st4" d="M558.2,149.2l-0.3-0.8l0,0c-0.3,0.3-0.6,0.6-0.9,0.7c-0.3,0.1-0.7,0.2-1.1,0.2c-0.6,0-1-0.2-1.4-0.5
		c-0.3-0.3-0.5-0.8-0.5-1.4c0-0.6,0.2-1.1,0.7-1.4c0.4-0.3,1.1-0.5,2-0.5h1v-0.3c0-0.6-0.3-0.9-0.9-0.9c-0.5,0-1,0.1-1.7,0.4
		l-0.5-1.1c0.7-0.4,1.5-0.5,2.3-0.5s1.4,0.2,1.9,0.5s0.6,0.9,0.6,1.6v4H558.2z M557.7,146.4h-0.6c-0.5,0-0.8,0.1-1.1,0.3
		c-0.2,0.2-0.3,0.4-0.3,0.7c0,0.5,0.3,0.7,0.8,0.7c0.4,0,0.7-0.1,0.9-0.3s0.3-0.5,0.3-0.9L557.7,146.4L557.7,146.4z"/>
	<path class="st4" d="M564.4,143.1c0.2,0,0.4,0,0.6,0l-0.1,1.5c-0.1,0-0.3-0.1-0.5-0.1c-0.5,0-0.9,0.1-1.2,0.4
		c-0.3,0.3-0.4,0.6-0.4,1.1v3.1h-1.6v-6h1.2l0.2,1h0.1c0.2-0.3,0.4-0.6,0.8-0.8C563.7,143.2,564,143.1,564.4,143.1z"/>
	<path class="st4" d="M571.6,149.2H570v-3.5c0-0.4-0.1-0.8-0.2-1c-0.2-0.2-0.4-0.3-0.7-0.3c-0.5,0-0.8,0.2-1,0.5s-0.3,0.8-0.3,1.5
		v2.8h-1.6v-6h1.3l0.2,0.8h0.1c0.2-0.3,0.4-0.5,0.8-0.7c0.3-0.1,0.7-0.2,1.1-0.2c0.7,0,1.2,0.2,1.6,0.6c0.4,0.4,0.5,0.9,0.5,1.6v3.9
		L571.6,149.2L571.6,149.2z"/>
	<path class="st4" d="M573.2,141.6c0-0.5,0.3-0.8,0.9-0.8s0.9,0.3,0.9,0.8c0,0.3-0.1,0.5-0.2,0.6c-0.1,0.1-0.4,0.2-0.7,0.2
		C573.5,142.4,573.2,142.2,573.2,141.6z M574.9,149.2h-1.6v-6h1.6V149.2z"/>
	<path class="st4" d="M582.2,149.2h-1.6v-3.5c0-0.4-0.1-0.8-0.2-1c-0.2-0.2-0.4-0.3-0.7-0.3c-0.5,0-0.8,0.2-1,0.5s-0.3,0.8-0.3,1.5
		v2.8h-1.6v-6h1.3l0.2,0.8h0.1c0.2-0.3,0.4-0.5,0.8-0.7c0.3-0.1,0.7-0.2,1.1-0.2c0.7,0,1.2,0.2,1.6,0.6c0.4,0.4,0.5,0.9,0.5,1.6v3.9
		L582.2,149.2L582.2,149.2z"/>
	<path class="st4" d="M589.1,143.2v0.8l-0.9,0.2c0.2,0.3,0.3,0.6,0.3,0.9c0,0.6-0.2,1.1-0.7,1.5s-1.1,0.5-1.9,0.5h-0.3h-0.2
		c-0.2,0.1-0.3,0.3-0.3,0.4c0,0.2,0.3,0.4,0.9,0.4h1c0.7,0,1.2,0.1,1.5,0.4c0.3,0.3,0.5,0.7,0.5,1.2c0,0.7-0.3,1.2-0.9,1.6
		c-0.6,0.4-1.4,0.6-2.5,0.6c-0.8,0-1.5-0.1-1.9-0.4c-0.4-0.3-0.7-0.7-0.7-1.2c0-0.4,0.1-0.7,0.3-0.9s0.6-0.4,1-0.5
		c-0.2-0.1-0.3-0.2-0.4-0.4s-0.2-0.3-0.2-0.5s0.1-0.4,0.2-0.6c0.1-0.2,0.3-0.3,0.6-0.4c-0.3-0.1-0.6-0.4-0.7-0.7
		c-0.1-0.3-0.3-0.7-0.3-1.1c0-0.7,0.2-1.2,0.6-1.5c0.4-0.4,1-0.5,1.8-0.5c0.2,0,0.4,0,0.6,0c0.2,0,0.4,0.1,0.4,0.1L589.1,143.2
		L589.1,143.2z M584.4,150c0,0.2,0.1,0.4,0.3,0.5s0.5,0.2,0.9,0.2c0.6,0,1-0.1,1.4-0.2c0.4-0.1,0.5-0.4,0.5-0.7
		c0-0.2-0.1-0.4-0.3-0.5s-0.5-0.1-0.9-0.1h-0.8c-0.3,0-0.6,0.1-0.8,0.2C584.5,149.6,584.4,149.8,584.4,150z M585,145.1
		c0,0.3,0.1,0.6,0.2,0.8s0.4,0.3,0.7,0.3s0.5-0.1,0.7-0.3c0.1-0.2,0.2-0.4,0.2-0.8c0-0.7-0.3-1.1-0.9-1.1
		C585.3,144.1,585,144.4,585,145.1z"/>
	<path class="st4" d="M594.3,147.4c0,0.6-0.2,1.1-0.6,1.4c-0.4,0.3-1.1,0.5-1.9,0.5c-0.4,0-0.8,0-1.1-0.1s-0.6-0.1-0.9-0.3v-1.4
		c0.3,0.1,0.6,0.3,1,0.4c0.4,0.1,0.7,0.1,1,0.1c0.6,0,0.9-0.2,0.9-0.5c0-0.1,0-0.2-0.1-0.3s-0.2-0.2-0.4-0.3s-0.5-0.2-0.8-0.4
		c-0.5-0.2-0.8-0.4-1-0.5c-0.2-0.2-0.4-0.4-0.5-0.6c-0.1-0.2-0.1-0.5-0.1-0.8c0-0.5,0.2-0.9,0.6-1.2c0.4-0.3,1-0.4,1.8-0.4
		c0.7,0,1.4,0.2,2.1,0.5l-0.5,1.2c-0.3-0.1-0.6-0.2-0.8-0.3c-0.3-0.1-0.5-0.1-0.8-0.1c-0.5,0-0.7,0.1-0.7,0.4c0,0.1,0.1,0.3,0.2,0.4
		c0.2,0.1,0.5,0.3,1,0.5s0.8,0.4,1,0.5c0.2,0.2,0.4,0.4,0.5,0.6C594.2,146.8,594.3,147.1,594.3,147.4z"/>
</g>
<g>
	<g>
		<line class="st6" x1="633.8" y1="191.9" x2="633.8" y2="224.9"/>
		<polygon class="st4" points="630.8,215.4 636.8,215.4 633.8,226.4 		"/>
	</g>
	<g>
		<line class="st6" x1="514.8" y1="191.9" x2="514.8" y2="224.9"/>
		<polygon class="st4" points="511.8,215.4 517.8,215.4 514.8,226.4 		"/>
	</g>
	<line class="st6" x1="514.8" y1="191.9" x2="633.8" y2="191.9"/>
	<line class="st6" x1="574.3" y1="190.4" x2="574.3" y2="174.4"/>
</g>
<path class="st5" d="M563.9,265.9c0,19.3-14.5,35-49.6,35s-46.6-15.7-46.6-35s11.5-35,46.6-35S563.9,246.6,563.9,265.9z"/>
<g>
	<path class="st4" d="M494.9,266v3h-1.6v-7.9h2.3c1.1,0,1.9,0.2,2.4,0.6s0.8,1,0.8,1.8c0,0.5-0.1,0.9-0.4,1.2
		c-0.3,0.4-0.6,0.6-1.1,0.8c1.2,1.8,2,2.9,2.3,3.4h-1.8l-1.9-3h-1V266L494.9,266z M494.9,264.6h0.5c0.5,0,0.9-0.1,1.2-0.3
		c0.3-0.2,0.4-0.5,0.4-0.8c0-0.4-0.1-0.6-0.4-0.8c-0.3-0.2-0.7-0.2-1.2-0.2h-0.5V264.6z"/>
	<path class="st4" d="M503.1,269.1c-1,0-1.7-0.3-2.3-0.8c-0.5-0.5-0.8-1.3-0.8-2.3s0.3-1.8,0.8-2.3s1.2-0.8,2.1-0.8
		c0.8,0,1.5,0.2,2,0.7s0.7,1.2,0.7,2v0.8h-3.9c0,0.5,0.2,0.8,0.4,1.1c0.2,0.3,0.6,0.4,1.1,0.4c0.4,0,0.7,0,1-0.1s0.7-0.2,1-0.4v1.3
		c-0.3,0.1-0.6,0.2-0.9,0.3C504,269.1,503.6,269.1,503.1,269.1z M502.9,264c-0.3,0-0.6,0.1-0.8,0.3c-0.2,0.2-0.3,0.5-0.3,0.9h2.3
		c0-0.4-0.1-0.7-0.3-0.9C503.5,264.1,503.2,264,502.9,264z"/>
	<path class="st4" d="M508.3,269l-2.3-6h1.7l1.2,3.4c0.1,0.4,0.2,0.8,0.2,1.2l0,0c0-0.3,0.1-0.8,0.2-1.2l1.2-3.4h1.7l-2.3,6H508.3z"
		/>
	<path class="st4" d="M515.9,269.1c-1,0-1.7-0.3-2.3-0.8c-0.5-0.5-0.8-1.3-0.8-2.3s0.3-1.8,0.8-2.3s1.2-0.8,2.1-0.8
		c0.8,0,1.5,0.2,2,0.7s0.7,1.2,0.7,2v0.8h-3.9c0,0.5,0.2,0.8,0.4,1.1s0.6,0.4,1.1,0.4c0.4,0,0.7,0,1-0.1s0.7-0.2,1-0.4v1.3
		c-0.3,0.1-0.6,0.2-0.9,0.3C516.7,269.1,516.3,269.1,515.9,269.1z M515.6,264c-0.3,0-0.6,0.1-0.8,0.3c-0.2,0.2-0.3,0.5-0.3,0.9h2.3
		c0-0.4-0.1-0.7-0.3-0.9S516,264,515.6,264z"/>
	<path class="st4" d="M525.2,269h-1.6v-3.5c0-0.4-0.1-0.8-0.2-1c-0.2-0.2-0.4-0.3-0.7-0.3c-0.5,0-0.8,0.2-1,0.5s-0.3,0.8-0.3,1.5
		v2.8h-1.6v-6h1.3l0.2,0.8h0.1c0.2-0.3,0.4-0.5,0.8-0.7c0.3-0.1,0.7-0.2,1.1-0.2c0.7,0,1.2,0.2,1.6,0.6s0.5,0.9,0.5,1.6v3.9
		L525.2,269L525.2,269z"/>
	<path class="st4" d="M531.1,269l-0.2-0.8h-0.1c-0.2,0.3-0.4,0.5-0.7,0.6c-0.3,0.2-0.7,0.2-1.1,0.2c-0.7,0-1.2-0.2-1.6-0.6
		c-0.4-0.4-0.5-0.9-0.5-1.6V263h1.6v3.5c0,0.4,0.1,0.8,0.2,1c0.2,0.2,0.4,0.3,0.7,0.3c0.5,0,0.8-0.2,1-0.5s0.3-0.8,0.3-1.5V263h1.6
		v6H531.1z"/>
	<path class="st4" d="M536.8,269.1c-1,0-1.7-0.3-2.3-0.8c-0.5-0.5-0.8-1.3-0.8-2.3s0.3-1.8,0.8-2.3s1.2-0.8,2.1-0.8
		c0.8,0,1.5,0.2,2,0.7s0.7,1.2,0.7,2v0.8h-3.9c0,0.5,0.2,0.8,0.4,1.1c0.2,0.3,0.6,0.4,1.1,0.4c0.4,0,0.7,0,1-0.1s0.7-0.2,1-0.4v1.3
		c-0.3,0.1-0.6,0.2-0.9,0.3C537.7,269.1,537.3,269.1,536.8,269.1z M536.6,264c-0.3,0-0.6,0.1-0.8,0.3c-0.2,0.2-0.3,0.5-0.3,0.9h2.3
		c0-0.4-0.1-0.7-0.3-0.9C537.2,264.1,537,264,536.6,264z"/>
</g>
<path class="st5" d="M684.9,265.9c0,19.3-14.5,35-49.6,35s-46.6-15.7-46.6-35s11.5-35,46.6-35S684.9,246.6,684.9,265.9z"/>
<g>
	<path class="st4" d="M617.2,269h-4.5v-7.9h4.5v1.4h-2.9v1.7h2.7v1.4h-2.7v2h2.9V269z"/>
	<path class="st4" d="M619.9,265.9L618,263h1.9l1.2,1.9l1.2-1.9h1.9l-2,2.9l2,3.1h-1.9l-1.3-2.1l-1.3,2.1h-1.9L619.9,265.9z"/>
	<path class="st4" d="M628.4,269.1c-0.7,0-1.3-0.3-1.7-0.8h-0.1c0.1,0.5,0.1,0.8,0.1,0.9v2.4h-1.6V263h1.3l0.2,0.8h0.1
		c0.4-0.6,1-0.9,1.7-0.9s1.3,0.3,1.7,0.8s0.6,1.3,0.6,2.3c0,0.6-0.1,1.2-0.3,1.7s-0.5,0.8-0.8,1.1
		C629.3,269,628.8,269.1,628.4,269.1z M627.9,264.2c-0.4,0-0.7,0.1-0.9,0.4c-0.2,0.2-0.3,0.7-0.3,1.2v0.2c0,0.6,0.1,1.1,0.3,1.4
		s0.5,0.4,0.9,0.4c0.7,0,1.1-0.6,1.1-1.8c0-0.6-0.1-1-0.3-1.3C628.6,264.3,628.3,264.2,627.9,264.2z"/>
	<path class="st4" d="M634.8,269.1c-1,0-1.7-0.3-2.3-0.8c-0.5-0.5-0.8-1.3-0.8-2.3s0.3-1.8,0.8-2.3s1.2-0.8,2.1-0.8
		c0.8,0,1.5,0.2,2,0.7s0.7,1.2,0.7,2v0.8h-4c0,0.5,0.2,0.8,0.4,1.1c0.2,0.3,0.6,0.4,1.1,0.4c0.4,0,0.7,0,1-0.1s0.7-0.2,1-0.4v1.3
		c-0.3,0.1-0.6,0.2-0.9,0.3C635.6,269.1,635.2,269.1,634.8,269.1z M634.5,264c-0.3,0-0.6,0.1-0.8,0.3c-0.2,0.2-0.3,0.5-0.3,0.9h2.3
		c0-0.4-0.1-0.7-0.3-0.9C635.1,264.1,634.9,264,634.5,264z"/>
	<path class="st4" d="M644.1,269h-1.6v-3.5c0-0.4-0.1-0.8-0.2-1c-0.2-0.2-0.4-0.3-0.7-0.3c-0.5,0-0.8,0.2-1,0.5s-0.3,0.8-0.3,1.5
		v2.8h-1.6v-6h1.3l0.2,0.8h0.1c0.2-0.3,0.4-0.5,0.8-0.7c0.3-0.1,0.7-0.2,1.1-0.2c0.7,0,1.2,0.2,1.6,0.6c0.4,0.4,0.5,0.9,0.5,1.6v3.9
		L644.1,269L644.1,269z"/>
	<path class="st4" d="M650,267.2c0,0.6-0.2,1.1-0.6,1.4s-1.1,0.5-1.9,0.5c-0.4,0-0.8,0-1.1-0.1s-0.6-0.1-0.9-0.3v-1.4
		c0.3,0.1,0.6,0.3,1,0.4s0.7,0.1,1,0.1c0.6,0,0.9-0.2,0.9-0.5c0-0.1,0-0.2-0.1-0.3c-0.1-0.1-0.2-0.2-0.4-0.3
		c-0.2-0.1-0.5-0.2-0.8-0.4c-0.5-0.2-0.8-0.4-1-0.5c-0.2-0.2-0.4-0.4-0.5-0.6s-0.1-0.5-0.1-0.8c0-0.5,0.2-0.9,0.6-1.2
		c0.4-0.3,1-0.4,1.8-0.4c0.7,0,1.4,0.2,2.1,0.5l-0.5,1.2c-0.3-0.1-0.6-0.2-0.8-0.3c-0.3-0.1-0.5-0.1-0.8-0.1c-0.5,0-0.7,0.1-0.7,0.4
		c0,0.1,0.1,0.3,0.2,0.4c0.2,0.1,0.5,0.3,1,0.5s0.8,0.4,1,0.5c0.2,0.2,0.4,0.4,0.5,0.6C649.9,266.6,650,266.9,650,267.2z"/>
	<path class="st4" d="M654,269.1c-1,0-1.7-0.3-2.3-0.8c-0.5-0.5-0.8-1.3-0.8-2.3s0.3-1.8,0.8-2.3s1.2-0.8,2.1-0.8
		c0.8,0,1.5,0.2,2,0.7s0.7,1.2,0.7,2v0.8h-3.9c0,0.5,0.2,0.8,0.4,1.1s0.6,0.4,1.1,0.4c0.4,0,0.7,0,1-0.1s0.7-0.2,1-0.4v1.3
		c-0.3,0.1-0.6,0.2-0.9,0.3C654.8,269.1,654.4,269.1,654,269.1z M653.7,264c-0.3,0-0.6,0.1-0.8,0.3c-0.2,0.2-0.3,0.5-0.3,0.9h2.3
		c0-0.4-0.1-0.7-0.3-0.9C654.3,264.1,654.1,264,653.7,264z"/>
	<path class="st4" d="M661.9,267.2c0,0.6-0.2,1.1-0.6,1.4s-1.1,0.5-1.9,0.5c-0.4,0-0.8,0-1.1-0.1s-0.6-0.1-0.9-0.3v-1.4
		c0.3,0.1,0.6,0.3,1,0.4s0.7,0.1,1,0.1c0.6,0,0.9-0.2,0.9-0.5c0-0.1,0-0.2-0.1-0.3c-0.1-0.1-0.2-0.2-0.4-0.3
		c-0.2-0.1-0.5-0.2-0.8-0.4c-0.5-0.2-0.8-0.4-1-0.5c-0.2-0.2-0.4-0.4-0.5-0.6s-0.1-0.5-0.1-0.8c0-0.5,0.2-0.9,0.6-1.2
		c0.4-0.3,1-0.4,1.8-0.4c0.7,0,1.4,0.2,2.1,0.5l-0.5,1.2c-0.3-0.1-0.6-0.2-0.8-0.3c-0.3-0.1-0.5-0.1-0.8-0.1c-0.5,0-0.7,0.1-0.7,0.4
		c0,0.1,0.1,0.3,0.2,0.4c0.2,0.1,0.5,0.3,1,0.5s0.8,0.4,1,0.5c0.2,0.2,0.4,0.4,0.5,0.6C661.9,266.6,661.9,266.9,661.9,267.2z"/>
</g>
<g>
	<path class="st4" d="M571.7,269.2v-4.4h9.4v4.4H571.7z"/>
</g>
<g>
	<path class="st4" d="M689.9,263.9v-3.2h14.5v3.2H689.9z M689.9,269.5v-3.2h14.5v3.2H689.9z"/>
</g>
<path class="st7" d="M807.9,265.9c0,19.3-14.5,35-49.6,35s-46.6-15.7-46.6-35s11.5-35,46.6-35S807.9,246.6,807.9,265.9z"/>
<g>
	<path class="st4" d="M757.9,263h-2.1l-3.5-6l0,0c0.1,1,0.1,1.8,0.1,2.2v3.7h-1.5V255h2.1l3.4,5.9l0,0c-0.1-1-0.1-1.7-0.1-2.2V255
		h1.5L757.9,263L757.9,263z"/>
	<path class="st4" d="M762.4,263.1c-1,0-1.7-0.3-2.3-0.8c-0.5-0.5-0.8-1.3-0.8-2.3s0.3-1.8,0.8-2.3s1.2-0.8,2.1-0.8
		c0.8,0,1.5,0.2,2,0.7s0.7,1.2,0.7,2v0.8H761c0,0.5,0.2,0.8,0.4,1.1s0.6,0.4,1.1,0.4c0.4,0,0.7,0,1-0.1s0.7-0.2,1-0.4v1.3
		c-0.3,0.1-0.6,0.2-0.9,0.3C763.3,263.1,762.9,263.1,762.4,263.1z M762.2,258c-0.3,0-0.6,0.1-0.8,0.3c-0.2,0.2-0.3,0.5-0.3,0.9h2.3
		c0-0.4-0.1-0.7-0.3-0.9C762.8,258.1,762.5,258,762.2,258z"/>
	<path class="st4" d="M768.7,261.8c0.3,0,0.6-0.1,1-0.2v1.2c-0.4,0.2-0.9,0.3-1.5,0.3c-0.7,0-1.1-0.2-1.4-0.5
		c-0.3-0.3-0.4-0.8-0.4-1.5v-2.9h-0.8v-0.7l0.9-0.5l0.5-1.3h1v1.3h1.7v1.2H768v2.9c0,0.2,0.1,0.4,0.2,0.5S768.5,261.8,768.7,261.8z"
		/>
	<path class="st4" d="M740.7,276.2v-7.9h1.7v7.9H740.7z"/>
	<path class="st4" d="M749.7,276.2h-1.6v-3.5c0-0.4-0.1-0.8-0.2-1c-0.2-0.2-0.4-0.3-0.7-0.3c-0.5,0-0.8,0.2-1,0.5s-0.3,0.8-0.3,1.5
		v2.8h-1.6v-6h1.3l0.2,0.8h0.1c0.2-0.3,0.4-0.5,0.8-0.7c0.3-0.1,0.7-0.2,1.1-0.2c0.7,0,1.2,0.2,1.6,0.6c0.4,0.4,0.5,0.9,0.5,1.6v3.9
		L749.7,276.2L749.7,276.2z"/>
	<path class="st4" d="M753.9,276.3c-1.9,0-2.8-1-2.8-3.1c0-1,0.3-1.8,0.8-2.3s1.2-0.8,2.2-0.8c0.7,0,1.3,0.1,1.9,0.4l-0.5,1.3
		c-0.3-0.1-0.5-0.2-0.7-0.3c-0.2-0.1-0.4-0.1-0.7-0.1c-0.9,0-1.3,0.6-1.3,1.8c0,1.2,0.4,1.8,1.3,1.8c0.3,0,0.6,0,0.9-0.1
		c0.3-0.1,0.5-0.2,0.8-0.4v1.4c-0.3,0.2-0.5,0.3-0.8,0.3S754.3,276.3,753.9,276.3z"/>
	<path class="st4" d="M762.5,273.2c0,1-0.3,1.7-0.8,2.3s-1.2,0.8-2.2,0.8c-0.6,0-1.1-0.1-1.5-0.4s-0.8-0.6-1-1.1s-0.4-1-0.4-1.7
		c0-1,0.3-1.7,0.8-2.3c0.5-0.5,1.2-0.8,2.2-0.8c0.6,0,1.1,0.1,1.5,0.4s0.8,0.6,1,1.1S762.5,272.5,762.5,273.2z M758.4,273.2
		c0,0.6,0.1,1,0.3,1.3s0.5,0.5,1,0.5c0.4,0,0.8-0.2,0.9-0.5c0.2-0.3,0.3-0.8,0.3-1.4s-0.1-1-0.3-1.3s-0.5-0.4-1-0.4
		c-0.4,0-0.8,0.1-0.9,0.4C758.5,272.1,758.4,272.6,758.4,273.2z"/>
	<path class="st4" d="M769.3,276.2h-1.6v-3.5c0-0.4-0.1-0.8-0.2-1c-0.1-0.2-0.4-0.3-0.7-0.3c-0.4,0-0.7,0.2-0.9,0.5
		s-0.3,0.8-0.3,1.5v2.8H764v-6h1.3l0.2,0.8h0.1c0.2-0.3,0.4-0.5,0.7-0.6c0.3-0.2,0.7-0.2,1-0.2c0.9,0,1.5,0.3,1.8,0.9h0.1
		c0.2-0.3,0.4-0.5,0.7-0.6s0.7-0.2,1.1-0.2c0.7,0,1.2,0.2,1.5,0.5s0.5,0.9,0.5,1.7v3.9h-1.6v-3.5c0-0.4-0.1-0.8-0.2-1
		c-0.1-0.2-0.4-0.3-0.7-0.3c-0.4,0-0.7,0.1-0.9,0.4s-0.3,0.7-0.3,1.4L769.3,276.2L769.3,276.2z"/>
	<path class="st4" d="M777.4,276.3c-1,0-1.7-0.3-2.3-0.8c-0.5-0.5-0.8-1.3-0.8-2.3s0.3-1.8,0.8-2.3s1.2-0.8,2.1-0.8
		c0.8,0,1.5,0.2,2,0.7s0.7,1.2,0.7,2v0.8H776c0,0.5,0.2,0.8,0.4,1.1s0.6,0.4,1.1,0.4c0.4,0,0.7,0,1-0.1s0.7-0.2,1-0.4v1.3
		c-0.3,0.1-0.6,0.2-0.9,0.3C778.3,276.3,777.9,276.3,777.4,276.3z M777.2,271.2c-0.3,0-0.6,0.1-0.8,0.3c-0.2,0.2-0.3,0.5-0.3,0.9
		h2.3c0-0.4-0.1-0.7-0.3-0.9C777.8,271.3,777.5,271.2,777.2,271.2z"/>
</g>
</svg>
